<svg width="374" height="120" viewBox="0 0 374 120" fill="none" xmlns="http://www.w3.org/2000/svg">
<rect x="2.18419" y="2.04173" width="370.536" height="54.7816" rx="5.99874" fill="#FF671F"/>
<rect x="2.18419" y="2.04173" width="370.536" height="54.7816" rx="5.99874" stroke="black" stroke-width="2.5256"/>
<path d="M60.9018 36.9325H51.469V40.2002H48.942V34.6233H50.2055C50.4669 34.2602 50.6848 33.8754 50.859 33.4687C51.0478 33.0621 51.2003 32.5683 51.3165 31.9874C51.4472 31.3919 51.5344 30.673 51.5779 29.8307C51.636 28.9884 51.6651 27.9427 51.6651 26.6937V21.6833H62.0128V34.6233H63.4288V40.2002H60.9018V36.9325ZM54.2792 26.6937C54.2792 27.812 54.2574 28.785 54.2139 29.6129C54.1703 30.4407 54.105 31.1668 54.0178 31.7913C53.9307 32.4158 53.8145 32.9532 53.6693 33.4034C53.524 33.8536 53.3498 34.2602 53.1464 34.6233H59.3986V23.9924H54.2792V26.6937ZM65.2898 26.0402H67.8168V36.9325H65.2898V26.0402ZM66.5533 24.7331C66.0886 24.7331 65.6965 24.5806 65.377 24.2756C65.072 23.9561 64.9195 23.564 64.9195 23.0993C64.9195 22.6345 65.072 22.2497 65.377 21.9447C65.6965 21.6252 66.0886 21.4654 66.5533 21.4654C67.0035 21.4654 67.3884 21.6252 67.7079 21.9447C68.0274 22.2497 68.1872 22.6345 68.1872 23.0993C68.1872 23.564 68.0274 23.9561 67.7079 24.2756C67.3884 24.5806 67.0035 24.7331 66.5533 24.7331ZM74.567 25.8441C76.0193 25.8441 77.0868 26.1491 77.7693 26.7591C78.4664 27.3545 78.815 28.1242 78.815 29.0682C78.815 29.533 78.6988 29.9614 78.4664 30.3535C78.2486 30.7457 77.9073 31.0724 77.4426 31.3338C78.009 31.5807 78.4301 31.9148 78.7061 32.3359C78.9965 32.7571 79.1418 33.2364 79.1418 33.7737C79.1418 34.2675 79.0546 34.725 78.8804 35.1462C78.7061 35.5528 78.4301 35.9014 78.0525 36.1918C77.6895 36.4823 77.2175 36.7146 76.6365 36.8889C76.0556 37.0487 75.3658 37.1286 74.567 37.1286C72.9695 37.1286 71.7931 36.8018 71.0379 36.1482C70.2972 35.4802 69.876 34.5434 69.7744 33.338H72.2143C72.3304 33.8754 72.5556 34.2893 72.8896 34.5798C73.2236 34.8557 73.7828 34.9937 74.567 34.9937C75.3658 34.9937 75.9176 34.8702 76.2226 34.6233C76.5421 34.3764 76.7019 34.0642 76.7019 33.6866C76.7019 33.309 76.5421 32.9967 76.2226 32.7498C75.9176 32.503 75.3658 32.3795 74.567 32.3795H73.3688V30.3753H74.567C75.2351 30.3753 75.6998 30.2664 75.9612 30.0486C76.2372 29.8307 76.3751 29.5402 76.3751 29.1772C76.3751 28.8141 76.2372 28.5236 75.9612 28.3058C75.6998 28.0879 75.2351 27.979 74.567 27.979C73.9135 27.979 73.4415 28.1097 73.151 28.3711C72.8605 28.6326 72.6572 29.0174 72.541 29.5257H70.1012C70.2173 28.3494 70.624 27.4417 71.3211 26.8026C72.0182 26.1636 73.1002 25.8441 74.567 25.8441ZM88.604 32.4884H83.8549V36.9325H81.3279V26.0402H83.8549V30.2664H88.604V26.0402H91.131V36.9325H88.604V32.4884ZM96.7967 37.1286C95.6203 37.1286 94.7271 36.8381 94.1172 36.2572C93.5072 35.6762 93.2022 34.8702 93.2022 33.8391C93.2022 33.2727 93.2893 32.7644 93.4636 32.3142C93.6524 31.8494 93.9429 31.4646 94.335 31.1596C94.7417 30.8401 95.2572 30.6004 95.8817 30.4407C96.5207 30.2664 97.2977 30.1793 98.2127 30.1793H100.043V29.5257C100.043 29.0029 99.8973 28.6108 99.6069 28.3494C99.3309 28.0734 98.8662 27.9354 98.2127 27.9354C97.6027 27.9354 97.1597 28.0516 96.8838 28.284C96.6079 28.5164 96.4409 28.8214 96.3828 29.199H93.6379C93.696 28.2259 94.0881 27.4271 94.8143 26.8026C95.5549 26.1636 96.6877 25.8441 98.2127 25.8441C99.665 25.8441 100.754 26.1782 101.48 26.8462C102.207 27.5143 102.57 28.4074 102.57 29.5257V36.9325H100.587L100.326 35.4294C99.9482 35.9812 99.4544 36.4024 98.8444 36.6929C98.249 36.9833 97.5664 37.1286 96.7967 37.1286ZM97.2324 35.0372C97.639 35.0372 98.0093 34.9719 98.3434 34.8412C98.6919 34.6959 98.9897 34.5071 99.2365 34.2748C99.4834 34.0279 99.6795 33.7519 99.8247 33.447C99.97 33.142 100.043 32.8152 100.043 32.4666V32.1399H98.2127C97.3413 32.1399 96.7313 32.2851 96.3828 32.5756C96.0342 32.866 95.8599 33.2582 95.8599 33.7519C95.8599 34.1441 95.9761 34.4563 96.2085 34.6887C96.4554 34.921 96.7967 35.0372 97.2324 35.0372ZM112.559 29.2425L111.578 31.2685L108.463 36.9325H105.282V26.0402H107.809V33.7302L108.79 31.7042L111.905 26.0402H115.086V36.9325H112.559V29.2425ZM110.184 24.7113C109.182 24.7113 108.405 24.4426 107.853 23.9053C107.301 23.3679 107.025 22.6273 107.025 21.6833H108.986C108.986 22.2061 109.095 22.5982 109.313 22.8596C109.545 23.1065 109.835 23.23 110.184 23.23C110.518 23.23 110.808 23.1065 111.055 22.8596C111.302 22.5982 111.426 22.2061 111.426 21.6833H113.343C113.343 22.6273 113.067 23.3679 112.515 23.9053C111.963 24.4426 111.186 24.7113 110.184 24.7113ZM122.385 37.1286C121.601 37.1286 120.889 37.0124 120.25 36.78C119.626 36.5331 119.088 36.1846 118.638 35.7343C118.202 35.2696 117.861 34.7105 117.614 34.0569C117.382 33.4034 117.266 32.6627 117.266 31.8349V31.1378C117.266 30.3245 117.382 29.5911 117.614 28.9375C117.861 28.284 118.21 27.7321 118.66 27.2819C119.11 26.8172 119.647 26.4614 120.272 26.2145C120.911 25.9676 121.615 25.8441 122.385 25.8441C123.765 25.8441 124.832 26.1854 125.587 26.868C126.357 27.5506 126.851 28.4365 127.069 29.5257H124.367C124.251 29.1336 124.012 28.8141 123.649 28.5672C123.286 28.3203 122.828 28.1969 122.276 28.1969C121.957 28.1969 121.652 28.255 121.361 28.3711C121.085 28.4728 120.838 28.6471 120.621 28.894C120.403 29.1263 120.228 29.4313 120.098 29.8089C119.982 30.172 119.923 30.615 119.923 31.1378V31.8349C119.923 32.3432 119.989 32.7862 120.119 33.1638C120.25 33.5268 120.424 33.8318 120.642 34.0787C120.86 34.3111 121.107 34.4854 121.383 34.6015C121.673 34.7177 121.971 34.7758 122.276 34.7758C122.901 34.7758 123.373 34.6378 123.692 34.3619C124.026 34.086 124.251 33.7447 124.367 33.338H127.069C126.851 34.4854 126.357 35.4076 125.587 36.1047C124.832 36.7873 123.765 37.1286 122.385 37.1286ZM128.177 29.7218C128.177 29.1409 128.264 28.6253 128.439 28.1751C128.627 27.7103 128.918 27.3255 129.31 27.0205C129.702 26.701 130.21 26.4614 130.835 26.3016C131.474 26.1273 132.251 26.0402 133.166 26.0402H137.196V36.9325H134.669V33.4034H133.166C133.035 33.4034 132.912 33.4034 132.796 33.4034C132.679 33.4034 132.563 33.3961 132.447 33.3816L130.661 36.9325H127.829L130.051 32.9023C129.383 32.5974 128.903 32.1762 128.613 31.6388C128.322 31.1015 128.177 30.4625 128.177 29.7218ZM130.835 29.7218C130.835 30.2591 131.002 30.6658 131.336 30.9417C131.67 31.2177 132.28 31.3556 133.166 31.3556H134.669V28.0879H133.166C132.28 28.0879 131.67 28.2259 131.336 28.5018C131.002 28.7778 130.835 29.1844 130.835 29.7218ZM140.154 34.2094H142.855L141.047 40.2002H139.152L140.154 34.2094ZM150.175 29.7218C150.175 29.1409 150.262 28.6253 150.436 28.1751C150.625 27.7103 150.915 27.3255 151.307 27.0205C151.7 26.701 152.208 26.4614 152.832 26.3016C153.471 26.1273 154.248 26.0402 155.163 26.0402H159.193V36.9325H156.666V33.4034H155.163C155.033 33.4034 154.909 33.4034 154.793 33.4034C154.677 33.4034 154.561 33.3961 154.444 33.3816L152.658 36.9325H149.826L152.048 32.9023C151.38 32.5974 150.901 32.1762 150.61 31.6388C150.32 31.1015 150.175 30.4625 150.175 29.7218ZM152.832 29.7218C152.832 30.2591 152.999 30.6658 153.333 30.9417C153.667 31.2177 154.277 31.3556 155.163 31.3556H156.666V28.0879H155.163C154.277 28.0879 153.667 28.2259 153.333 28.5018C152.999 28.7778 152.832 29.1844 152.832 29.7218ZM165.637 32.3795H164.547V36.9325H162.02V26.0402H164.547V30.1575H165.637L168.251 26.0402H171.17L167.728 31.1814L171.606 36.9325H168.556L165.637 32.3795ZM180.401 29.2425L179.421 31.2685L176.306 36.9325H173.125V26.0402H175.652V33.7302L176.633 31.7042L179.748 26.0402H182.928V36.9325H180.401V29.2425ZM193.038 29.2425L192.058 31.2685L188.943 36.9325H185.762V26.0402H188.289V33.7302L189.269 31.7042L192.385 26.0402H195.565V36.9325H193.038V29.2425ZM190.664 24.7113C189.662 24.7113 188.885 24.4426 188.333 23.9053C187.781 23.3679 187.505 22.6273 187.505 21.6833H189.466C189.466 22.2061 189.574 22.5982 189.792 22.8596C190.025 23.1065 190.315 23.23 190.664 23.23C190.998 23.23 191.288 23.1065 191.535 22.8596C191.782 22.5982 191.905 22.2061 191.905 21.6833H193.822C193.822 22.6273 193.547 23.3679 192.995 23.9053C192.443 24.4426 191.666 24.7113 190.664 24.7113ZM202.756 26.0402H211.905V28.2622H208.594V36.9325H206.067V28.2622H202.756V26.0402ZM220.928 29.2425L219.948 31.2685L216.833 36.9325H213.652V26.0402H216.179V33.7302L217.16 31.7042L220.275 26.0402H223.455V36.9325H220.928V29.2425ZM241.429 23.9924H234.458V36.9325H231.844V21.6833H244.044V36.9325H241.429V23.9924ZM251.128 32.6409L245.791 21.6833H248.753L252.544 29.7871L255.812 21.6833H258.644L252.108 36.9325H249.276L251.128 32.6409ZM260.394 21.6833H263.008V34.6233H267.801V21.6833H270.415V34.6233H275.208V21.6833H277.822V36.9325H260.394V21.6833ZM285.238 37.1286C284.454 37.1286 283.749 37.0124 283.125 36.78C282.5 36.5331 281.963 36.1846 281.513 35.7343C281.062 35.2696 280.714 34.7105 280.467 34.0569C280.235 33.4034 280.118 32.6627 280.118 31.8349V31.1378C280.118 30.31 280.235 29.5693 280.467 28.9158C280.714 28.2622 281.062 27.7103 281.513 27.2601C281.963 26.7954 282.5 26.4468 283.125 26.2145C283.749 25.9676 284.454 25.8441 285.238 25.8441C286.821 25.8441 288.07 26.3306 288.985 27.3037C289.9 28.2767 290.357 29.671 290.357 31.4863V32.3359H282.645C282.718 33.2509 282.972 33.9117 283.408 34.3183C283.844 34.7105 284.454 34.9065 285.238 34.9065C286.008 34.9065 286.567 34.7758 286.915 34.5144C287.278 34.2385 287.518 33.919 287.634 33.5559H290.248C290.132 34.0642 289.951 34.5362 289.704 34.9719C289.457 35.4076 289.13 35.7852 288.723 36.1047C288.317 36.4242 287.823 36.6783 287.242 36.8671C286.661 37.0414 285.993 37.1286 285.238 37.1286ZM285.238 28.0662C284.497 28.0662 283.916 28.2477 283.495 28.6108C283.074 28.9738 282.805 29.5475 282.689 30.3318H287.787C287.685 29.5185 287.416 28.9375 286.981 28.589C286.559 28.2404 285.979 28.0662 285.238 28.0662ZM292.537 26.0402H296.785C297.598 26.0402 298.288 26.1128 298.854 26.258C299.42 26.4033 299.878 26.6138 300.226 26.8898C300.59 27.1512 300.851 27.4707 301.011 27.8483C301.17 28.2259 301.25 28.6471 301.25 29.1118C301.25 29.5475 301.141 29.9542 300.924 30.3318C300.706 30.7094 300.364 31.0289 299.9 31.2903C300.524 31.5372 300.974 31.8785 301.25 32.3142C301.541 32.7498 301.686 33.2291 301.686 33.7519C301.686 34.2457 301.606 34.6887 301.446 35.0808C301.287 35.4729 301.025 35.807 300.662 36.0829C300.314 36.3588 299.856 36.5694 299.29 36.7146C298.723 36.8599 298.034 36.9325 297.22 36.9325H292.537V26.0402ZM294.976 32.3577V34.9283H297.22C297.888 34.9283 298.353 34.8194 298.614 34.6015C298.89 34.3692 299.028 34.0497 299.028 33.643C299.028 33.2364 298.89 32.9241 298.614 32.7063C298.353 32.4739 297.888 32.3577 297.22 32.3577H294.976ZM294.976 28.0444V30.3971H296.785C297.482 30.3971 297.954 30.2954 298.201 30.0921C298.462 29.8888 298.593 29.5983 298.593 29.2207C298.593 28.8431 298.462 28.5527 298.201 28.3494C297.954 28.146 297.482 28.0444 296.785 28.0444H294.976ZM311.13 29.2425L310.15 31.2685L307.035 36.9325H303.854V26.0402H306.381V33.7302L307.362 31.7042L310.477 26.0402H313.657V36.9325H311.13V29.2425ZM320.107 32.3795H319.018V36.9325H316.491V26.0402H319.018V30.1575H320.107L322.722 26.0402H325.641L322.199 31.1814L326.076 36.9325H323.026L320.107 32.3795Z" fill="white"/>
<mask id="mask0_470_39543" style="mask-type:alpha" maskUnits="userSpaceOnUse" x="19" y="26" width="128" height="93">
<path fill-rule="evenodd" clip-rule="evenodd" d="M146.664 26.7864H19.3022V118.618H146.664V26.7864ZM33.2871 58.1956H64.926C66.8526 57.1717 72.8231 54.3719 81.2924 51.3637C89.7618 48.3556 94.5454 46.9039 95.8785 46.5542C102.498 39.3923 110.489 26.0048 89.4943 29.7493C68.4999 33.4938 55.252 34.5834 51.2523 34.6601L35.3827 43.0238L33.2871 58.1956Z" fill="#D9D9D9"/>
</mask>
<g mask="url(#mask0_470_39543)">
<path d="M35.3619 58.87C35.3619 58.87 32.5296 80.1043 32.5352 80.7181C32.5407 81.3319 35.7146 114.938 72.2542 111.217C108.794 107.496 121.925 91.9256 130.283 85.8842C136.928 81.0814 133.704 61.3553 130.097 58.87C126.49 56.3846 113.481 50.3707 106.864 48.3587C102.585 47.0569 96.9176 48.5762 93.4439 49.812C91.5446 50.4891 90.3006 51.0781 90.3006 51.0781C90.3006 51.0781 92.0666 30.1272 73.8592 34.9245C55.6519 39.7219 49.7235 39.9806 45.1251 44.7697C40.5268 49.5588 35.3592 58.87 35.3592 58.87H35.3619Z" fill="#FF671F"/>
<path d="M58.9302 61.3357C67.9214 47.6593 89.933 44.9014 71.2647 36.3637C89.1305 29.5241 94.1704 47.4474 87.5005 52.7869C85.7289 54.0034 73.8277 57.243 73.8277 57.243L58.9302 64.3936V61.3357Z" fill="#CC3D05"/>
<path d="M130.475 65.1896C131.733 77.3109 130.283 85.8842 130.283 85.8842L116.958 95.515C112.054 100.709 85.0996 109.051 77.9939 110.532C68.6611 112.478 53.4332 107.567 48.2767 105.872C37.0669 102.181 23.4634 81.5963 33.3682 73.9586C63.7184 106.563 90.3283 92.6883 130.475 65.1896Z" fill="#CC3D05"/>
<path d="M48.9199 40.3964C41.8529 43.8671 37.9793 51.0975 35.2303 58.0829C31.9149 66.5079 29.0492 76.0695 30.1877 85.1991C31.2984 94.1002 36.7048 101.531 44.1244 106.466C51.5217 111.388 60.5213 113.59 69.357 113.749C78.4815 113.914 87.5088 111.999 96.0002 108.759C100.504 107.039 104.925 105.049 109.148 102.734C113.355 100.428 117.381 97.8433 121.508 95.4075C125.217 93.2166 129.402 91.1716 131.971 87.6019C134.681 83.8311 134.645 78.698 134.339 74.2722C133.998 69.3015 133.29 64.2344 131.485 59.5554C130.657 57.4086 129.577 55.3471 127.867 53.7507C126.156 52.1544 124.126 51.1415 122.005 50.2112C117.54 48.2543 113.027 46.2671 108.154 45.5928C103.1 44.891 98.0356 45.6809 93.1679 47.0873C88.3002 48.4938 83.9379 50.1672 79.3895 51.8489C74.7412 53.5691 70.1206 55.4104 65.6666 57.5848C63.5257 58.6306 61.5292 59.7426 59.6132 61.1573C56.8142 63.2243 59.1495 67.3639 62.3734 65.8363C66.3525 63.9509 70.2206 61.8674 74.2858 60.1582C78.2732 58.482 82.3523 57.0178 86.4258 55.559C90.7104 54.026 95.0144 52.4324 99.5073 51.6039C103.753 50.8222 107.885 51.1663 111.983 52.4737C115.796 53.6902 119.933 55.237 123.304 57.4141C126.675 59.5912 127.683 64.3996 128.552 67.9446C129.566 72.0841 130.116 76.5842 129.505 80.8311C129.238 82.6862 128.625 84.511 127.328 85.9119C126.031 87.3129 124.568 88.2404 123.029 89.2065C115.596 93.88 107.829 98.0883 99.8238 101.724C92.2599 105.162 84.1461 107.782 75.8213 108.509C68.0547 109.188 59.8909 108.36 52.7324 105.145C46.0792 102.159 39.787 97.147 36.9658 90.2882C33.6864 82.3091 35.3025 73.4328 37.4823 65.4069C39.34 58.5701 40.9533 50.8635 45.8737 45.4359C47.0594 44.1258 48.4089 43.0111 49.9195 42.0918C51.0135 41.4257 50.0556 39.8404 48.9199 40.3991V40.3964Z" fill="black"/>
<path d="M41.2558 49.7574C41.9889 48.0179 43.6966 47.0931 45.2432 46.1628C47.0343 45.0867 48.9058 44.1316 50.7996 43.2454C54.5621 41.4839 58.4913 40.0829 62.512 39.0315C66.5328 37.9801 70.7619 37.1819 74.9798 36.8379C78.3369 36.5654 82.2411 36.3535 85.1789 38.2856C88.7665 40.6389 88.6582 45.3124 88.997 49.0858C89.1136 50.3877 91.2601 50.9354 91.5016 49.4216C92.132 45.4858 91.6877 41.0462 89.1053 37.815C86.5062 34.5617 82.2466 33.6644 78.2592 33.6699C68.7459 33.6837 59.0855 36.3672 50.5552 40.4187C48.1283 41.5719 45.6764 42.827 43.4522 44.3353C41.7001 45.5216 40.2284 47.2638 39.798 49.3611C39.6008 50.3271 40.8865 50.6326 41.253 49.7602L41.2558 49.7574Z" fill="black"/>
</g>
<mask id="mask1_470_39543" style="mask-type:alpha" maskUnits="userSpaceOnUse" x="234" y="26" width="128" height="94">
<path fill-rule="evenodd" clip-rule="evenodd" d="M234.029 26.5511H361.391V119.106H234.029V26.5511ZM347.406 58.2079H315.767C313.84 57.1759 307.87 54.354 299.4 51.3221C290.931 48.2903 286.147 46.8272 284.814 46.4747C278.195 39.2564 270.204 25.7633 291.199 29.5373C312.193 33.3114 325.441 34.4095 329.441 34.4868L345.31 42.9165L347.406 58.2079Z" fill="#D9D9D9"/>
</mask>
<g mask="url(#mask1_470_39543)">
<path d="M345.327 58.8874C345.327 58.8874 348.159 80.2891 348.153 80.9077C348.148 81.5263 344.974 115.397 308.434 111.647C271.895 107.896 258.763 92.2036 250.405 86.1146C243.76 81.2739 246.984 61.3923 250.591 58.8874C254.198 56.3824 267.207 50.3211 273.824 48.2933C278.103 46.9812 283.771 48.5125 287.245 49.758C289.144 50.4404 290.388 51.0341 290.388 51.0341C290.388 51.0341 288.622 29.9181 306.829 34.7532C325.037 39.5884 330.965 39.8491 335.563 44.676C340.162 49.5028 345.329 58.8874 345.329 58.8874H345.327Z" fill="#FF671F"/>
<path d="M321.758 61.3725C312.767 47.5883 290.755 44.8088 309.424 36.2037C291.558 29.3102 286.518 47.3747 293.188 52.7564C294.96 53.9825 306.861 57.2475 306.861 57.2475L321.758 64.4545V61.3725Z" fill="#CC3D05"/>
<path d="M250.213 65.2568C248.956 77.4737 250.405 86.1146 250.405 86.1146L263.731 95.8212C268.635 101.056 295.589 109.464 302.695 110.956C312.027 112.918 327.255 107.969 332.412 106.26C343.622 102.54 357.225 81.7929 347.32 74.0949C316.97 106.956 290.36 92.9723 250.213 65.2568Z" fill="#CC3D05"/>
<path d="M331.769 40.2682C338.836 43.7662 342.709 51.0536 345.458 58.0941C348.774 66.5855 351.639 76.2225 350.501 85.424C349.39 94.3953 343.984 101.885 336.564 106.859C329.167 111.819 320.167 114.038 311.332 114.199C302.207 114.366 293.18 112.435 284.688 109.17C280.184 107.436 275.764 105.43 271.54 103.097C267.333 100.773 263.307 98.1679 259.181 95.7129C255.471 93.5048 251.286 91.4437 248.718 87.8457C246.008 84.0453 246.044 78.8717 246.349 74.4111C246.691 69.4011 247.399 64.2941 249.204 59.5783C250.031 57.4145 251.111 55.3368 252.822 53.7278C254.532 52.1189 256.562 51.098 258.684 50.1604C263.149 48.1881 267.661 46.1852 272.534 45.5056C277.588 44.7982 282.653 45.5943 287.521 47.0119C292.388 48.4294 296.751 50.116 301.299 51.811C305.947 53.5447 310.568 55.4006 315.022 57.592C317.163 58.6462 319.159 59.7669 321.075 61.1928C323.874 63.2761 321.539 67.4482 318.315 65.9086C314.336 64.0084 310.468 61.9085 306.403 60.1858C302.415 58.4964 298.336 57.0206 294.263 55.5504C289.978 54.0052 285.674 52.399 281.181 51.5641C276.936 50.7762 272.804 51.123 268.705 52.4407C264.893 53.6668 260.755 55.2258 257.384 57.4201C254.013 59.6143 253.005 64.4606 252.136 68.0335C251.123 72.2057 250.573 76.7413 251.184 81.0216C251.45 82.8913 252.064 84.7305 253.361 86.1425C254.657 87.5545 256.121 88.4893 257.659 89.463C265.093 94.1733 272.859 98.4148 280.865 102.079C288.429 105.544 296.542 108.185 304.867 108.917C312.634 109.603 320.798 108.768 327.956 105.527C334.609 102.518 340.901 97.4661 343.723 90.5532C347.002 82.5113 345.386 73.565 343.206 65.4759C341.349 58.5852 339.735 50.8178 334.815 45.3474C333.629 44.027 332.28 42.9035 330.769 41.977C329.675 41.3057 330.633 39.7078 331.769 40.2709V40.2682Z" fill="black"/>
<path d="M339.433 49.703C338.7 47.9498 336.992 47.0177 335.445 46.0801C333.654 44.9954 331.783 44.0329 329.889 43.1396C326.126 41.3642 322.197 39.9522 318.176 38.8926C314.156 37.8329 309.927 37.0284 305.709 36.6816C302.352 36.407 298.447 36.1934 295.51 38.1408C291.922 40.5126 292.03 45.2229 291.691 49.0261C291.575 50.3382 289.428 50.8903 289.187 49.3646C288.557 45.3977 289.001 40.9232 291.583 37.6664C294.182 34.3875 298.442 33.4832 302.429 33.4887C311.943 33.5026 321.603 36.2073 330.133 40.2907C332.56 41.453 335.012 42.718 337.236 44.2381C338.988 45.4338 340.46 47.1897 340.891 49.3035C341.088 50.2772 339.802 50.5851 339.435 49.7058L339.433 49.703Z" fill="black"/>
</g>
</svg>
