<svg width="651" height="49" viewBox="0 0 651 49" fill="none" xmlns="http://www.w3.org/2000/svg">
<path d="M30.8938 40H6.64584V48.4H0.149844V34.064H3.39784C4.06984 33.1307 4.62984 32.1413 5.07784 31.096C5.56318 30.0507 5.95518 28.7813 6.25384 27.288C6.58984 25.7573 6.81384 23.9093 6.92584 21.744C7.07518 19.5787 7.14984 16.8907 7.14984 13.68V0.799997H33.7498V34.064H37.3898V48.4H30.8938V40ZM13.8698 13.68C13.8698 16.5547 13.8138 19.056 13.7018 21.184C13.5898 23.312 13.4218 25.1787 13.1978 26.784C12.9738 28.3893 12.6752 29.7707 12.3018 30.928C11.9285 32.0853 11.4805 33.1307 10.9578 34.064H27.0298V6.736H13.8698V13.68ZM53.107 40.504C48.8884 40.504 45.5844 39.3093 43.195 36.92C40.843 34.5307 39.667 31.1893 39.667 26.896V25.104C39.667 22.976 39.9657 21.072 40.563 19.392C41.1977 17.712 42.0937 16.2933 43.251 15.136C44.4457 13.9413 45.8644 13.0453 47.507 12.448C49.1497 11.8133 51.0164 11.496 53.107 11.496C57.3257 11.496 60.611 12.6907 62.963 15.08C65.3524 17.4693 66.547 20.8107 66.547 25.104V26.896C66.547 29.024 66.2297 30.928 65.595 32.608C64.9977 34.288 64.1017 35.7253 62.907 36.92C61.7497 38.0773 60.331 38.9733 58.651 39.608C57.0084 40.2053 55.1604 40.504 53.107 40.504ZM53.107 34.456C55.235 34.456 56.859 33.84 57.979 32.608C59.1364 31.376 59.715 29.472 59.715 26.896V25.104C59.715 22.5653 59.1177 20.68 57.923 19.448C56.7657 18.1787 55.1604 17.544 53.107 17.544C50.979 17.544 49.3364 18.16 48.179 19.392C47.059 20.624 46.499 22.528 46.499 25.104V26.896C46.499 29.4347 47.0777 31.3387 48.235 32.608C49.4297 33.84 51.0537 34.456 53.107 34.456ZM83.6161 40.504C81.6001 40.504 79.7708 40.2053 78.1281 39.608C76.5228 38.9733 75.1414 38.0773 73.9841 36.92C72.8641 35.7253 71.9868 34.288 71.3521 32.608C70.7548 30.928 70.4561 29.024 70.4561 26.896V25.104C70.4561 23.0133 70.7548 21.128 71.3521 19.448C71.9868 17.768 72.8828 16.3493 74.0401 15.192C75.1974 13.9973 76.5788 13.0827 78.1841 12.448C79.8268 11.8133 81.6374 11.496 83.6161 11.496C87.1628 11.496 89.9068 12.3733 91.8481 14.128C93.8268 15.8827 95.0961 18.16 95.6561 20.96H88.7121C88.4134 19.952 87.7974 19.1307 86.8641 18.496C85.9308 17.8613 84.7548 17.544 83.3361 17.544C82.5148 17.544 81.7308 17.6933 80.9841 17.992C80.2748 18.2533 79.6401 18.7013 79.0801 19.336C78.5201 19.9333 78.0721 20.7173 77.7361 21.688C77.4374 22.6213 77.2881 23.76 77.2881 25.104V26.896C77.2881 28.2027 77.4561 29.3413 77.7921 30.312C78.1281 31.2453 78.5761 32.0293 79.1361 32.664C79.6961 33.2613 80.3308 33.7093 81.0401 34.008C81.7868 34.3067 82.5521 34.456 83.3361 34.456C84.9414 34.456 86.1548 34.1013 86.9761 33.392C87.8348 32.6827 88.4134 31.8053 88.7121 30.76H95.6561C95.0961 33.7093 93.8268 36.08 91.8481 37.872C89.9068 39.6267 87.1628 40.504 83.6161 40.504ZM98.5055 21.464C98.5055 19.9707 98.7295 18.6453 99.1775 17.488C99.6629 16.2933 100.41 15.304 101.418 14.52C102.426 13.6987 103.732 13.0827 105.338 12.672C106.98 12.224 108.978 12 111.33 12H121.69V40H115.194V30.928H111.33C110.994 30.928 110.676 30.928 110.378 30.928C110.079 30.928 109.78 30.9093 109.482 30.872L104.89 40H97.6095L103.322 29.64C101.604 28.856 100.372 27.7733 99.6255 26.392C98.8789 25.0107 98.5055 23.368 98.5055 21.464ZM105.338 21.464C105.338 22.8453 105.767 23.8907 106.626 24.6C107.484 25.3093 109.052 25.664 111.33 25.664H115.194V17.264H111.33C109.052 17.264 107.484 17.6187 106.626 18.328C105.767 19.0373 105.338 20.0827 105.338 21.464ZM128.956 12H148.556V17.712H135.452V40H128.956V12ZM171.723 28.576H159.515V40H153.019V12H159.515V22.864H171.723V12H178.219V40H171.723V28.576ZM196.983 40.504C194.967 40.504 193.157 40.2053 191.551 39.608C189.946 38.9733 188.565 38.0773 187.407 36.92C186.25 35.7253 185.354 34.288 184.719 32.608C184.122 30.928 183.823 29.024 183.823 26.896V25.104C183.823 22.976 184.122 21.072 184.719 19.392C185.354 17.712 186.25 16.2933 187.407 15.136C188.565 13.9413 189.946 13.0453 191.551 12.448C193.157 11.8133 194.967 11.496 196.983 11.496C201.053 11.496 204.263 12.7467 206.615 15.248C208.967 17.7493 210.143 21.3333 210.143 26V28.184H190.319C190.506 30.536 191.159 32.2347 192.279 33.28C193.399 34.288 194.967 34.792 196.983 34.792C198.962 34.792 200.399 34.456 201.295 33.784C202.229 33.0747 202.845 32.2533 203.143 31.32H209.863C209.565 32.6267 209.098 33.84 208.463 34.96C207.829 36.08 206.989 37.0507 205.943 37.872C204.898 38.6933 203.629 39.3467 202.135 39.832C200.642 40.28 198.925 40.504 196.983 40.504ZM196.983 17.208C195.079 17.208 193.586 17.6747 192.503 18.608C191.421 19.5413 190.73 21.016 190.431 23.032H203.535C203.274 20.9413 202.583 19.448 201.463 18.552C200.381 17.656 198.887 17.208 196.983 17.208ZM234.449 28.576H222.241V40H215.745V12H222.241V22.864H234.449V12H240.945V40H234.449V28.576ZM266.934 28.576H254.726V40H248.23V12H254.726V22.864H266.934V12H273.43V40H266.934V28.576ZM278.81 21.464C278.81 19.9707 279.034 18.6453 279.482 17.488C279.968 16.2933 280.714 15.304 281.722 14.52C282.73 13.6987 284.037 13.0827 285.642 12.672C287.285 12.224 289.282 12 291.634 12H301.994V40H295.498V30.928H291.634C291.298 30.928 290.981 30.928 290.682 30.928C290.384 30.928 290.085 30.9093 289.786 30.872L285.194 40H277.914L283.626 29.64C281.909 28.856 280.677 27.7733 279.93 26.392C279.184 25.0107 278.81 23.368 278.81 21.464ZM285.642 21.464C285.642 22.8453 286.072 23.8907 286.93 24.6C287.789 25.3093 289.357 25.664 291.634 25.664H295.498V17.264H291.634C289.357 17.264 287.789 17.6187 286.93 18.328C286.072 19.0373 285.642 20.0827 285.642 21.464ZM339.221 40.504C336.645 40.504 334.293 40.0933 332.165 39.272C330.074 38.4507 328.282 37.2373 326.789 35.632C325.333 34.0267 324.194 32.0853 323.373 29.808C322.552 27.4933 322.141 24.8427 322.141 21.856V18.944C322.141 15.9947 322.552 13.3813 323.373 11.104C324.194 8.78933 325.352 6.82933 326.845 5.224C328.338 3.61866 330.13 2.40533 332.221 1.584C334.349 0.725331 336.682 0.295997 339.221 0.295997C341.498 0.295997 343.552 0.631997 345.381 1.304C347.248 1.976 348.853 2.89066 350.197 4.048C351.541 5.168 352.624 6.49333 353.445 8.024C354.304 9.51733 354.882 11.1227 355.181 12.84H347.789C347.49 11.9813 347.098 11.1787 346.613 10.432C346.128 9.648 345.53 8.976 344.821 8.416C344.112 7.856 343.29 7.408 342.357 7.072C341.424 6.736 340.378 6.568 339.221 6.568C336.234 6.568 333.808 7.59467 331.941 9.648C330.112 11.7013 329.197 14.8 329.197 18.944V21.856C329.197 23.9093 329.44 25.72 329.925 27.288C330.448 28.8187 331.138 30.1067 331.997 31.152C332.893 32.16 333.957 32.9253 335.189 33.448C336.421 33.9707 337.765 34.232 339.221 34.232C341.498 34.232 343.365 33.56 344.821 32.216C346.277 30.872 347.266 29.08 347.789 26.84H355.181C354.882 28.8187 354.304 30.648 353.445 32.328C352.624 33.9707 351.522 35.408 350.141 36.64C348.797 37.8347 347.21 38.7867 345.381 39.496C343.552 40.168 341.498 40.504 339.221 40.504ZM377.017 40.504C374.403 40.504 372.014 40.0933 369.849 39.272C367.721 38.4133 365.891 37.2 364.361 35.632C362.867 34.0267 361.71 32.0667 360.889 29.752C360.067 27.4373 359.657 24.8053 359.657 21.856V18.944C359.657 16.032 360.067 13.4187 360.889 11.104C361.747 8.78933 362.923 6.848 364.417 5.28C365.947 3.67466 367.777 2.44266 369.905 1.584C372.07 0.725331 374.441 0.295997 377.017 0.295997C379.63 0.295997 382.001 0.725331 384.129 1.584C386.294 2.40533 388.123 3.61866 389.617 5.224C391.147 6.82933 392.323 8.78933 393.145 11.104C393.966 13.3813 394.377 15.9947 394.377 18.944V21.856C394.377 24.768 393.947 27.3813 393.089 29.696C392.267 32.0107 391.091 33.9707 389.561 35.576C388.067 37.1813 386.238 38.4133 384.073 39.272C381.945 40.0933 379.593 40.504 377.017 40.504ZM377.017 34.232C380.078 34.232 382.561 33.2053 384.465 31.152C386.369 29.0613 387.321 25.9627 387.321 21.856V18.944C387.321 16.928 387.059 15.1547 386.537 13.624C386.051 12.056 385.342 10.768 384.409 9.76C383.513 8.71467 382.43 7.93067 381.161 7.408C379.891 6.848 378.51 6.568 377.017 6.568C373.918 6.568 371.417 7.61333 369.513 9.704C367.646 11.7573 366.713 14.8373 366.713 18.944V21.856C366.713 25.9253 367.665 29.0053 369.569 31.096C371.51 33.1867 373.993 34.232 377.017 34.232ZM409.831 14.24L407.535 8.304V40H400.815V0.799997H410.895L419.631 22.024L428.367 0.799997H438.335V40H431.615V8.248L429.263 14.24L422.935 29.64H416.215L409.831 14.24ZM446.15 0.799997H471.35V6.736H452.87V17.432H467.99V23.368H452.87V40H446.15V0.799997ZM488.686 26.84L474.126 0.799997H481.742L492.158 19.952L502.126 0.799997H509.406L495.406 26.84V40H488.686V26.84ZM525.948 34.064L538.604 21.912C539.836 20.7173 540.882 19.672 541.74 18.776C542.599 17.88 543.271 17.0587 543.756 16.312C544.279 15.5653 544.652 14.8747 544.876 14.24C545.1 13.6053 545.212 12.952 545.212 12.28C545.212 10.5627 544.671 9.18133 543.588 8.136C542.506 7.09067 541.012 6.568 539.108 6.568C537.204 6.568 535.711 7.10933 534.628 8.192C533.546 9.27467 533.004 10.824 533.004 12.84H525.948C525.948 10.936 526.247 9.21867 526.844 7.688C527.442 6.12 528.3 4.79467 529.42 3.712C530.578 2.62933 531.959 1.78933 533.564 1.192C535.207 0.594664 537.055 0.295997 539.108 0.295997C541.162 0.295997 542.991 0.594664 544.596 1.192C546.239 1.752 547.62 2.57333 548.74 3.656C549.898 4.70133 550.775 5.97066 551.372 7.464C551.97 8.92 552.268 10.5253 552.268 12.28C552.268 14.4827 551.559 16.648 550.14 18.776C548.722 20.904 546.519 23.3307 543.532 26.056L534.74 34.064H552.268V40H525.948V34.064ZM571.857 40.504C569.692 40.504 567.732 40.168 565.977 39.496C564.26 38.7867 562.804 37.6853 561.609 36.192C560.415 34.6987 559.481 32.776 558.809 30.424C558.175 28.072 557.857 25.216 557.857 21.856V18.944C557.857 15.6213 558.175 12.784 558.809 10.432C559.481 8.08 560.415 6.15733 561.609 4.664C562.841 3.13333 564.316 2.032 566.033 1.36C567.751 0.650664 569.692 0.295997 571.857 0.295997C574.023 0.295997 575.964 0.650664 577.681 1.36C579.436 2.032 580.911 3.11466 582.105 4.608C583.337 6.10133 584.271 8.024 584.905 10.376C585.54 12.728 585.857 15.584 585.857 18.944V21.856C585.857 25.1787 585.521 28.016 584.849 30.368C584.215 32.72 583.281 34.6613 582.049 36.192C580.855 37.6853 579.399 38.7867 577.681 39.496C575.964 40.168 574.023 40.504 571.857 40.504ZM571.857 34.232C572.94 34.232 573.911 34.0453 574.769 33.672C575.628 33.2987 576.356 32.6453 576.953 31.712C577.551 30.7787 577.999 29.528 578.297 27.96C578.633 26.3547 578.801 24.32 578.801 21.856V18.944C578.801 16.5173 578.633 14.52 578.297 12.952C577.961 11.3467 577.495 10.0773 576.897 9.144C576.3 8.17333 575.572 7.50133 574.713 7.128C573.855 6.75467 572.903 6.568 571.857 6.568C570.775 6.568 569.804 6.75467 568.945 7.128C568.087 7.50133 567.359 8.15466 566.761 9.088C566.164 10.0213 565.697 11.2907 565.361 12.896C565.063 14.464 564.913 16.48 564.913 18.944V21.856C564.913 24.2827 565.063 26.2987 565.361 27.904C565.697 29.472 566.164 30.7413 566.761 31.712C567.396 32.6453 568.124 33.2987 568.945 33.672C569.804 34.0453 570.775 34.232 571.857 34.232ZM590.917 34.064L603.573 21.912C604.805 20.7173 605.85 19.672 606.709 18.776C607.568 17.88 608.24 17.0587 608.725 16.312C609.248 15.5653 609.621 14.8747 609.845 14.24C610.069 13.6053 610.181 12.952 610.181 12.28C610.181 10.5627 609.64 9.18133 608.557 8.136C607.474 7.09067 605.981 6.568 604.077 6.568C602.173 6.568 600.68 7.10933 599.597 8.192C598.514 9.27467 597.973 10.824 597.973 12.84H590.917C590.917 10.936 591.216 9.21867 591.813 7.688C592.41 6.12 593.269 4.79467 594.389 3.712C595.546 2.62933 596.928 1.78933 598.533 1.192C600.176 0.594664 602.024 0.295997 604.077 0.295997C606.13 0.295997 607.96 0.594664 609.565 1.192C611.208 1.752 612.589 2.57333 613.709 3.656C614.866 4.70133 615.744 5.97066 616.341 7.464C616.938 8.92 617.237 10.5253 617.237 12.28C617.237 14.4827 616.528 16.648 615.109 18.776C613.69 20.904 611.488 23.3307 608.501 26.056L599.709 34.064H617.237V40H590.917V34.064ZM620.586 25.832L636.938 0.799997H645.786V25.832H650.266V31.768H645.786V40H639.066V31.768H620.586V25.832ZM639.066 25.832V8.248L627.81 25.832H639.066Z" fill="#0A0E1A"/>
</svg>
