<svg width="132" height="44" viewBox="0 0 132 44" fill="none" xmlns="http://www.w3.org/2000/svg">
<path d="M74.1308 17.096C74.0934 17.8895 74.1469 22.2508 72.8363 22.2508C71.5989 22.2508 71.6399 19.3979 71.5115 17.0943C71.4063 15.1935 74.2235 15.1187 74.1308 17.096ZM85.7347 33.2057C86.9133 33.2057 87.7977 32.1287 87.5677 30.9751C87.5677 30.9751 84.3707 14.771 83.2599 9.37732C80.9562 -1.8165 64.8341 -1.76123 62.5304 9.35593C61.4392 14.6212 59.2568 25.6242 58.1816 30.9448C57.9481 32.0984 58.8324 33.1789 60.0092 33.1789L69.174 33.1878C70.1047 33.1878 70.891 32.5085 71.0248 31.5885L72.2479 26.004C72.2996 25.6385 72.5903 25.4566 72.8791 25.4566C73.1698 25.4566 73.4586 25.6403 73.5103 26.0058L74.7228 31.592C74.8547 32.5121 75.641 33.195 76.57 33.195L85.7347 33.2039V33.2057Z" fill="#FFFF00" stroke="#662D91" stroke-width="0.905228" stroke-miterlimit="10"/>
<path d="M3.20382 33.1254C6.88041 33.129 9.28036 33.1575 10.8869 33.1593C12.973 33.1611 13.7451 32.5245 13.7468 30.4758C13.7468 28.9406 13.7326 27.4179 13.7611 23.736C13.7629 21.821 13.7647 20.1307 14.4155 20.1307C14.904 20.1307 15.2535 20.6407 15.603 21.9851C15.9524 23.3295 17.9904 30.4883 18.1652 31.3655C18.3399 32.2428 18.5146 33.1397 19.8002 33.1414C21.0858 33.1414 27.6312 33.1486 28.9168 33.1504C30.2024 33.1504 31.1385 32.1376 30.2059 29.8571C29.2734 27.5766 24.5502 17.4205 24.5502 17.4205C24.5502 17.4205 29.2948 7.27332 30.2309 4.99461C31.1688 2.71591 30.2345 1.70137 28.9489 1.69958C27.6633 1.69958 21.1179 1.69245 19.8323 1.69067C18.5467 1.69067 18.3702 2.58753 18.1937 3.463C18.0172 4.34024 15.9631 12.8578 15.6119 14.2022C15.2606 15.5466 14.9094 16.0547 14.4208 16.0547C13.9323 16.0547 13.77 15.6214 13.7718 13.7065L13.7807 3.8927C13.7807 2.67312 12.7947 1.68354 11.5751 1.68354L3.23591 1.67462C2.01632 1.67462 1.02674 2.66063 1.02674 3.88022L1 30.9162C1 32.1358 1.98601 33.1254 3.2056 33.1254H3.20382Z" fill="#FFFF00" stroke="#662D91" stroke-width="0.905228" stroke-miterlimit="10"/>
<path d="M51.6612 19.1252C51.6612 19.6922 51.2012 20.1522 50.6342 20.1522H45.82C45.253 20.1522 44.793 19.6922 44.793 19.1252V19.1073C44.793 18.5403 45.253 18.0803 45.82 18.0803H50.6342C51.2012 18.0803 51.6612 18.5403 51.6612 19.1073V19.1252ZM47.9186 1.71927L34.9293 1.70679C33.7097 1.70679 32.7201 2.6928 32.7201 3.91239L32.6934 30.9484C32.6934 32.168 33.6794 33.1576 34.899 33.1576L42.9832 33.1665C44.2028 33.1665 45.1924 32.1805 45.1924 30.9609L45.1995 24.5562C46.3852 24.5473 48.0541 24.5848 49.2933 24.5848C56.7321 24.5919 59.4762 18.3763 59.4797 13.596C59.4886 4.49187 54.0166 1.72462 47.9204 1.71927H47.9186Z" fill="#FFFF00" stroke="#662D91" stroke-width="0.905228" stroke-miterlimit="10"/>
<path d="M127.689 22.9622L124.4 22.9675L125.4 3.88382C125.534 1.32874 122.148 0.528165 120.978 2.8033C119.175 6.3123 116.414 13.6726 115.094 17.3546C114.606 18.7186 113.39 18.5635 113.065 17.2494C112.184 13.6887 109.966 6.42641 108.698 2.81579C108.014 0.868722 105.328 0.879421 104.612 2.81579C103.271 6.43889 101.117 13.5104 100.277 17.1531C99.9794 18.4422 98.6885 18.526 98.2481 17.2583C96.9554 13.5389 94.124 6.26415 92.4069 2.8033C91.2694 0.512117 87.8513 1.32874 87.985 3.88382L89.3365 29.6735C89.44 31.658 91.0803 33.2146 93.0684 33.2146H118.191L117.047 40.3805C116.683 42.6593 119.664 43.8467 120.967 41.9425L130.419 28.1169C131.917 25.9273 130.344 22.9568 127.693 22.9622H127.689Z" fill="#FFFF00" stroke="#662D91" stroke-width="0.905228" stroke-miterlimit="10"/>
</svg>
