<svg width="101" height="26" viewBox="0 0 101 26" fill="none" xmlns="http://www.w3.org/2000/svg">
<path d="M16.4273 13.7646C16.4011 10.7295 18.8176 9.25311 18.9284 9.18405C17.5595 7.10924 15.438 6.82579 14.6932 6.80377C12.9117 6.60919 11.1836 7.91178 10.2758 7.91178C9.3498 7.91178 7.95179 6.82258 6.44612 6.85401C4.50763 6.88534 2.69402 8.05201 1.69964 9.86307C-0.352577 13.5576 1.17826 18.9856 3.14495 21.9718C4.12825 23.4344 5.27867 25.0666 6.78227 25.009C8.25479 24.9463 8.80427 24.034 10.5807 24.034C12.3411 24.034 12.8574 25.009 14.3913 24.9724C15.9713 24.9463 16.9657 23.5035 17.9149 22.0282C19.0512 20.3521 19.5081 18.7011 19.5262 18.6163C19.4879 18.6048 16.4575 17.4016 16.4273 13.7646Z" fill="white"/>
<path d="M13.5275 4.83981C14.3196 3.81026 14.8611 2.41034 14.7102 0.989487C13.5648 1.0418 12.1315 1.81291 11.3063 2.82047C10.5765 3.70773 9.92439 5.16101 10.0924 6.52846C11.3797 6.62785 12.7012 5.85364 13.5275 4.83981Z" fill="white"/>
<path d="M39.5952 20.1602H37.5726L36.4643 16.639H32.6131L31.5572 20.1602H29.5881L33.4037 8.17224H35.7598L39.5952 20.1602ZM36.1308 15.1616L35.1285 12.0308C35.0226 11.7115 34.8237 10.9578 34.5308 9.77271H34.4952C34.3784 10.2822 34.1904 11.0359 33.9321 12.0308L32.9485 15.1616H36.1308Z" fill="white"/>
<path d="M49.4069 15.7325C49.4069 17.2029 49.0141 18.365 48.2284 19.2177C47.5248 19.9774 46.6511 20.3568 45.6081 20.3568C44.482 20.3568 43.6736 19.9474 43.1818 19.1297H43.1462V23.6828H41.2473V14.3623C41.2473 13.4384 41.2235 12.4896 41.177 11.5167H42.8473L42.9532 12.8869H42.9888C43.6221 11.855 44.583 11.3395 45.8723 11.3395C46.8807 11.3395 47.7218 11.7419 48.3956 12.5486C49.0705 13.3554 49.4069 14.4163 49.4069 15.7325ZM47.4724 15.8026C47.4724 14.9608 47.2854 14.2672 46.9094 13.7217C46.4987 13.1522 45.9475 12.8679 45.2568 12.8679C44.7888 12.8679 44.3623 13.0261 43.9823 13.3394C43.6014 13.6546 43.352 14.066 43.2352 14.5765C43.1768 14.8147 43.1472 15.0089 43.1472 15.162V16.6033C43.1472 17.2319 43.3381 17.7624 43.7191 18.1958C44.1001 18.6292 44.5958 18.8454 45.2044 18.8454C45.9198 18.8454 46.4759 18.5661 46.8747 18.0096C47.2725 17.4511 47.4724 16.7165 47.4724 15.8026Z" fill="white"/>
<path d="M59.2363 15.7325C59.2363 17.2029 58.8434 18.365 58.0567 19.2177C57.3542 19.9774 56.4804 20.3568 55.4375 20.3568C54.3114 20.3568 53.5029 19.9474 53.0111 19.1297H52.9755V23.6828H51.0766V14.3623C51.0766 13.4384 51.0529 12.4896 51.0063 11.5167H52.6767L52.7826 12.8869H52.8182C53.4505 11.855 54.4113 11.3395 55.7017 11.3395C56.709 11.3395 57.5501 11.7419 58.226 12.5486C58.8988 13.3554 59.2363 14.4163 59.2363 15.7325ZM57.3017 15.8026C57.3017 14.9608 57.1137 14.2672 56.7377 13.7217C56.327 13.1522 55.7779 12.8679 55.0852 12.8679C54.6162 12.8679 54.1907 13.0261 53.8097 13.3394C53.4287 13.6546 53.1803 14.066 53.0636 14.5765C53.0052 14.8147 52.9755 15.0089 52.9755 15.162V16.6033C52.9755 17.2319 53.1665 17.7624 53.5455 18.1958C53.9264 18.6282 54.4222 18.8454 55.0327 18.8454C55.7482 18.8454 56.3043 18.5661 56.7031 18.0096C57.1028 17.4511 57.3017 16.7165 57.3017 15.8026Z" fill="white"/>
<path d="M70.2247 16.7973C70.2247 17.8173 69.8744 18.647 69.1719 19.2876C68.4 19.9873 67.3244 20.3376 65.943 20.3376C64.6674 20.3376 63.6453 20.0894 62.8715 19.5909L63.3119 17.9904C64.145 18.4999 65.0604 18.7561 66.0568 18.7561C66.7722 18.7561 67.3284 18.592 67.7281 18.2657C68.1259 17.9394 68.3248 17.502 68.3248 16.9555C68.3248 16.469 68.1606 16.0587 67.832 15.7264C67.5055 15.3941 66.9593 15.0848 66.1973 14.7995C64.1223 14.0168 63.0853 12.8697 63.0853 11.3624C63.0853 10.3765 63.4484 9.56872 64.1757 8.94014C64.901 8.31057 65.8678 7.99628 67.077 7.99628C68.1556 7.99628 69.0511 8.18645 69.7666 8.5658L69.2916 10.1312C68.6237 9.7639 67.8686 9.57973 67.0236 9.57973C66.3557 9.57973 65.8342 9.74688 65.4601 10.0782C65.1445 10.3745 64.9852 10.7358 64.9852 11.1632C64.9852 11.6366 65.1662 12.029 65.5294 12.3373C65.846 12.6215 66.42 12.9298 67.2532 13.2621C68.2724 13.6775 69.0214 14.1629 69.5033 14.7194C69.9852 15.2739 70.2247 15.9686 70.2247 16.7973Z" fill="white"/>
<path d="M76.502 12.9565H74.4091V17.1533C74.4091 18.2203 74.7782 18.7538 75.5174 18.7538C75.8568 18.7538 76.1378 18.7238 76.3605 18.6647L76.4129 20.1231C76.0389 20.2642 75.5461 20.3352 74.9366 20.3352C74.1865 20.3352 73.6007 20.104 73.1782 19.6416C72.7566 19.1782 72.5449 18.4025 72.5449 17.3115V12.9545H71.298V11.5132H72.5449V9.93071L74.4101 9.36119V11.5132H76.503L76.502 12.9565Z" fill="white"/>
<path d="M85.9469 15.7676C85.9469 17.0968 85.5708 18.1868 84.8208 19.0406C84.0341 19.9184 82.9911 20.3568 81.6899 20.3568C80.4362 20.3568 79.4377 19.9364 78.6936 19.0946C77.9495 18.2529 77.5764 17.1909 77.5764 15.9107C77.5764 14.5715 77.9594 13.4745 78.7282 12.6207C79.4951 11.7669 80.5302 11.3395 81.8314 11.3395C83.0851 11.3395 84.0945 11.7599 84.8554 12.6027C85.5837 13.4204 85.9469 14.4754 85.9469 15.7676ZM83.9767 15.8296C83.9767 15.0319 83.8085 14.3483 83.4671 13.7788C83.0693 13.0891 82.5003 12.7448 81.7621 12.7448C80.9992 12.7448 80.4193 13.0901 80.0206 13.7788C79.6792 14.3503 79.511 15.0449 79.511 15.8657C79.511 16.6624 79.6792 17.347 80.0206 17.9155C80.4312 18.6052 81.0051 18.9495 81.7443 18.9495C82.4696 18.9495 83.0386 18.5982 83.4493 17.8975C83.8006 17.317 83.9767 16.6264 83.9767 15.8296Z" fill="white"/>
<path d="M92.1177 13.2034C91.9297 13.1683 91.7298 13.1503 91.5191 13.1503C90.8511 13.1503 90.3346 13.4055 89.9714 13.916C89.6548 14.3664 89.4965 14.9359 89.4965 15.6226V20.1577H87.5985L87.6163 14.2353C87.6163 13.2394 87.5926 12.3316 87.5451 11.5138H89.1986L89.2679 13.1673H89.3203C89.5202 12.5988 89.8369 12.1414 90.2693 11.7981C90.6918 11.4888 91.149 11.3346 91.6418 11.3346C91.8169 11.3346 91.9762 11.3477 92.1167 11.3697C92.1177 11.3717 92.1177 13.2034 92.1177 13.2034Z" fill="white"/>
<path d="M100.608 15.4265C100.608 15.7708 100.586 16.0611 100.539 16.2973H94.8431C94.8649 17.1511 95.141 17.8047 95.6694 18.2551C96.1493 18.6575 96.7697 18.8597 97.5327 18.8597C98.3757 18.8597 99.1456 18.7235 99.8373 18.4503L100.135 19.7835C99.3267 20.1398 98.3718 20.318 97.2704 20.318C95.9455 20.318 94.9055 19.9236 94.1485 19.1349C93.3935 18.3462 93.0145 17.2882 93.0145 15.96C93.0145 14.6568 93.3657 13.5708 94.0703 12.705C94.8075 11.7812 95.8039 11.3187 97.0587 11.3187C98.2906 11.3187 99.2228 11.7812 99.8561 12.705C100.357 13.4397 100.608 14.3475 100.608 15.4265ZM98.7983 14.928C98.8111 14.3585 98.6865 13.8671 98.4292 13.4517C98.1007 12.9172 97.596 12.651 96.9162 12.651C96.2957 12.651 95.7901 12.9112 95.4052 13.4337C95.0885 13.8491 94.9015 14.3475 94.8431 14.927L98.7983 14.928Z" fill="white"/>
</svg>
