<svg width="109" height="24" viewBox="0 0 109 24" fill="none" xmlns="http://www.w3.org/2000/svg">
<path d="M0.595111 0.493973C0.325627 0.778116 0.166199 1.2192 0.166199 1.79159V22.2089C0.166199 22.7812 0.325627 23.2213 0.595111 23.5055L12.1326 11.9992L0.595111 0.493973Z" fill="#00E3FF"/>
<path d="M0.664609 0.425644L0.595886 0.493138C0.618794 0.469255 0.651073 0.458872 0.675021 0.436028L0.664609 0.425644Z" fill="#00E3FF"/>
<path d="M0.665649 23.5732L0.676062 23.5628C0.651072 23.541 0.618793 23.5306 0.595886 23.5057L0.665649 23.5732Z" fill="#00E3FF"/>
<path d="M20.572 10.6684L16.0421 8.10187H16.0411L12.1326 11.9999L16.0411 15.8999L15.9537 15.9502L16.0411 15.9009L20.5709 13.3344C21.8659 12.601 21.8659 11.4018 20.572 10.6684Z" fill="#FFE000"/>
<path d="M12.1333 11.9999L0.595886 23.5061C0.618515 23.5307 0.650401 23.541 0.675087 23.5625C1.10709 23.9482 1.76845 23.9882 2.51931 23.5625L15.9555 15.9502L16.0429 15.8999L12.1333 11.9999Z" fill="#FF3A44"/>
<path d="M12.1333 12.0001L16.0419 8.1011L16.0429 8.10008L2.51931 0.437455C1.76845 0.0117527 1.10503 0.0517584 0.674058 0.437455C0.650401 0.460022 0.618515 0.470269 0.595886 0.493862L12.1333 12.0001Z" fill="#00F076"/>
<path d="M46.4812 10.6301C44.3038 10.6301 42.5295 12.2806 42.5295 14.5568C42.5295 16.8176 44.3038 18.4835 46.4812 18.4835C48.6587 18.4835 50.433 16.8176 50.433 14.5568C50.433 12.2816 48.6587 10.6301 46.4812 10.6301ZM46.4812 16.9366C45.2881 16.9366 44.2595 15.9549 44.2595 14.5568C44.2595 13.1443 45.2881 12.177 46.4812 12.177C47.6744 12.177 48.7029 13.1432 48.7029 14.5568C48.704 15.9549 47.6744 16.9366 46.4812 16.9366Z" fill="white"/>
<path d="M55.1023 10.6301C52.9249 10.6301 51.1506 12.2806 51.1506 14.5568C51.1506 16.8176 52.9249 18.4835 55.1023 18.4835C57.2798 18.4835 59.0541 16.8176 59.0541 14.5568C59.0551 12.2816 57.2798 10.6301 55.1023 10.6301ZM55.1023 16.9366C53.9092 16.9366 52.8806 15.9549 52.8806 14.5568C52.8806 13.1443 53.9102 12.177 55.1023 12.177C56.2944 12.177 57.324 13.1432 57.324 14.5568C57.3251 15.9549 56.2955 16.9366 55.1023 16.9366Z" fill="white"/>
<path d="M92.7474 6.70433H91.0203V18.2455H92.7474V6.70433Z" fill="white"/>
<path d="M36.2246 11.8364V13.5013H40.2217C40.1023 14.4378 39.7897 15.122 39.3114 15.598C38.7302 16.1776 37.82 16.8177 36.2246 16.8177C33.7643 16.8177 31.8399 14.8399 31.8399 12.3852C31.8399 9.93052 33.7633 7.9528 36.2246 7.9528C37.5525 7.9528 38.5214 8.4739 39.2373 9.14272L40.415 7.96819C39.4163 7.01626 38.0884 6.28795 36.2246 6.28795C32.854 6.28795 30.0203 9.02475 30.0203 12.3863C30.0203 15.7478 32.854 18.4846 36.2246 18.4846C38.0442 18.4846 39.4163 17.8896 40.4901 16.7746C41.5938 15.6739 41.9373 14.127 41.9373 12.8776C41.9373 12.4909 41.9075 12.1339 41.8478 11.8364H36.2246Z" fill="white"/>
<path d="M96.9906 10.6115C95.7399 10.6115 94.4449 11.1614 93.909 12.379L95.4426 13.017C95.7697 12.379 96.3807 12.1707 97.0204 12.1707C97.9132 12.1707 98.8215 12.7052 98.8369 13.655V13.774C98.5242 13.5955 97.8546 13.3288 97.0359 13.3288C95.3829 13.3288 93.7012 14.2346 93.7012 15.9272C93.7012 17.471 95.0559 18.466 96.5751 18.466C97.7363 18.466 98.3761 17.9459 98.7783 17.3376H98.8379V18.228H100.505V13.8028C100.504 11.7543 98.9706 10.6115 96.9906 10.6115ZM96.7818 16.9365C96.2161 16.9365 95.4272 16.6544 95.4272 15.9569C95.4272 15.0665 96.4095 14.7249 97.258 14.7249C98.0171 14.7249 98.3751 14.888 98.8359 15.1106C98.7032 16.1795 97.7795 16.9365 96.7818 16.9365Z" fill="white"/>
<path d="M104.599 15.866H104.539L102.485 10.8622H100.625L103.706 17.856L101.949 21.7458H103.75L108.5 10.8622H106.579L104.599 15.866Z" fill="white"/>
<path d="M65.6858 11.5095H65.6251C65.2373 11.0489 64.4916 10.6324 63.5525 10.6324C61.5838 10.6324 59.7797 12.3578 59.7797 14.5735C59.7797 16.7749 61.5838 18.4849 63.5525 18.4849C64.4916 18.4849 65.2373 18.0684 65.6251 17.5924H65.6847V18.1576C65.6847 19.6594 64.8794 20.4626 63.5823 20.4626C62.5239 20.4626 61.8677 19.7045 61.5993 19.0644L60.0934 19.6891C60.5254 20.7303 61.6743 22.0095 63.5834 22.0095C65.6117 22.0095 67.3263 20.8195 67.3263 17.9196V10.8694H65.6858V11.5095ZM63.7006 16.938C62.5075 16.938 61.5087 15.9419 61.5087 14.5735C61.5087 13.1908 62.5085 12.1793 63.7006 12.1793C64.8783 12.1793 65.803 13.1908 65.803 14.5735C65.804 15.9419 64.8794 16.938 63.7006 16.938Z" fill="white"/>
<path d="M86.2713 6.70428H82.1323V18.2454H83.8593V13.8725H86.2713C88.1865 13.8725 90.0677 12.4897 90.0677 10.2884C90.0677 8.08705 88.1865 6.70428 86.2713 6.70428ZM86.3165 12.2661H83.8593V8.30964H86.3155C87.6074 8.30964 88.3408 9.37646 88.3408 10.2874C88.3408 11.1829 87.6074 12.2661 86.3165 12.2661Z" fill="white"/>
<path d="M70.2491 6.70428H68.519V18.2454H70.2491V6.70428Z" fill="white"/>
<path d="M78.1678 13.129C77.8397 12.252 76.8409 10.6302 74.7972 10.6302C72.7688 10.6302 71.084 12.2212 71.084 14.5569C71.084 16.7582 72.7544 18.4836 74.9916 18.4836C76.7957 18.4836 77.8397 17.3829 78.2727 16.7439L76.9304 15.8514C76.483 16.5059 75.872 16.9367 74.9916 16.9367C74.1111 16.9367 73.4857 16.5346 73.0825 15.7468L78.3468 13.5752L78.1678 13.129ZM72.7987 14.4379C72.7534 12.9208 73.9764 12.1473 74.8568 12.1473C75.5429 12.1473 76.1251 12.4889 76.3184 12.9803L72.7987 14.4379Z" fill="white"/>
</svg>
