<svg width="385" height="96" viewBox="0 0 385 96" fill="none" xmlns="http://www.w3.org/2000/svg">
<g clip-path="url(#clip0_290_13694)">
<mask id="mask0_290_13694" style="mask-type:alpha" maskUnits="userSpaceOnUse" x="-19" y="0" width="420" height="96">
<rect x="-19" width="420" height="96" fill="#D9D9D9"/>
</mask>
<g mask="url(#mask0_290_13694)">
<mask id="path-2-inside-1_290_13694" fill="white">
<path fill-rule="evenodd" clip-rule="evenodd" d="M344.924 75.5919C347.856 82.4201 353.948 87.9998 361.379 87.9998H406C414.284 87.9998 421 94.7155 421 103V163C421 171.284 414.284 178 406 178H-24C-32.2843 178 -39 171.284 -39 163V103C-39 94.7155 -32.2843 87.9998 -24 87.9998H20.6211C28.0522 87.9998 34.1436 82.4201 37.0756 75.5919C44.8009 57.6004 62.6789 44.9999 83.5 44.9999H298.5C319.321 44.9999 337.199 57.6004 344.924 75.5919Z"/>
</mask>
<path fill-rule="evenodd" clip-rule="evenodd" d="M344.924 75.5919C347.856 82.4201 353.948 87.9998 361.379 87.9998H406C414.284 87.9998 421 94.7155 421 103V163C421 171.284 414.284 178 406 178H-24C-32.2843 178 -39 171.284 -39 163V103C-39 94.7155 -32.2843 87.9998 -24 87.9998H20.6211C28.0522 87.9998 34.1436 82.4201 37.0756 75.5919C44.8009 57.6004 62.6789 44.9999 83.5 44.9999H298.5C319.321 44.9999 337.199 57.6004 344.924 75.5919Z" fill="#430006"/>
<path d="M344.924 75.5919L346.762 74.8028L344.924 75.5919ZM361.379 89.9998H406V85.9998H361.379V89.9998ZM419 103V163H423V103H419ZM406 176H-24V180H406V176ZM-37 163V103H-41V163H-37ZM-24 89.9998H20.6211V85.9998H-24V89.9998ZM38.9133 76.381C46.3345 59.098 63.5067 46.9999 83.5 46.9999V42.9999C61.8512 42.9999 43.2674 56.1029 35.2378 74.8028L38.9133 76.381ZM83.5 46.9999H298.5V42.9999H83.5V46.9999ZM298.5 46.9999C318.493 46.9999 335.666 59.098 343.087 76.381L346.762 74.8028C338.733 56.1029 320.149 42.9999 298.5 42.9999V46.9999ZM20.6211 89.9998C29.1214 89.9998 35.788 83.6595 38.9133 76.381L35.2378 74.8028C32.4992 81.1808 26.9831 85.9998 20.6211 85.9998V89.9998ZM-37 103C-37 95.8201 -31.1797 89.9998 -24 89.9998V85.9998C-33.3888 85.9998 -41 93.6109 -41 103H-37ZM-24 176C-31.1797 176 -37 170.179 -37 163H-41C-41 172.389 -33.3888 180 -24 180V176ZM419 163C419 170.179 413.18 176 406 176V180C415.389 180 423 172.389 423 163H419ZM406 89.9998C413.18 89.9998 419 95.8201 419 103H423C423 93.6109 415.389 85.9998 406 85.9998V89.9998ZM361.379 85.9998C355.017 85.9998 349.501 81.1808 346.762 74.8028L343.087 76.381C346.212 83.6595 352.879 89.9998 361.379 89.9998V85.9998Z" fill="black" mask="url(#path-2-inside-1_290_13694)"/>
<mask id="path-4-inside-2_290_13694" fill="white">
<path fill-rule="evenodd" clip-rule="evenodd" d="M339.713 81.798C341.908 88.4017 347.441 94 354.4 94H404C411.18 94 417 99.8203 417 107V159C417 166.18 411.18 172 404 172H-22C-29.1797 172 -35 166.18 -35 159V107C-35 99.8203 -29.1797 94 -22 94H27.5998C34.5586 94 40.0924 88.4017 42.287 81.798C48.2336 63.9045 65.1098 51 85 51H297C316.89 51 333.766 63.9045 339.713 81.798Z"/>
</mask>
<path fill-rule="evenodd" clip-rule="evenodd" d="M339.713 81.798C341.908 88.4017 347.441 94 354.4 94H404C411.18 94 417 99.8203 417 107V159C417 166.18 411.18 172 404 172H-22C-29.1797 172 -35 166.18 -35 159V107C-35 99.8203 -29.1797 94 -22 94H27.5998C34.5586 94 40.0924 88.4017 42.287 81.798C48.2336 63.9045 65.1098 51 85 51H297C316.89 51 333.766 63.9045 339.713 81.798Z" fill="#124300"/>
<path d="M42.287 81.798L41.5325 81.5473L42.287 81.798ZM339.713 81.798L338.959 82.0488L339.713 81.798ZM354.4 94.7951H404V93.2049H354.4V94.7951ZM416.205 107V159H417.795V107H416.205ZM404 171.205H-22V172.795H404V171.205ZM-34.2049 159V107H-35.7951V159H-34.2049ZM-22 94.7951H27.5998V93.2049H-22V94.7951ZM43.0415 82.0488C48.8833 64.4706 65.4624 51.7951 85 51.7951V50.2049C64.7571 50.2049 47.5838 63.3385 41.5325 81.5473L43.0415 82.0488ZM85 51.7951H297V50.2049H85V51.7951ZM297 51.7951C316.538 51.7951 333.117 64.4705 338.959 82.0488L340.468 81.5473C334.416 63.3385 317.243 50.2049 297 50.2049V51.7951ZM27.5998 94.7951C35.019 94.7951 40.7814 88.8495 43.0415 82.0488L41.5325 81.5473C39.4033 87.9539 34.0982 93.2049 27.5998 93.2049V94.7951ZM-34.2049 107C-34.2049 100.259 -28.7406 94.7951 -22 94.7951V93.2049C-29.6188 93.2049 -35.7951 99.3812 -35.7951 107H-34.2049ZM-22 171.205C-28.7406 171.205 -34.2049 165.741 -34.2049 159H-35.7951C-35.7951 166.619 -29.6188 172.795 -22 172.795V171.205ZM416.205 159C416.205 165.741 410.741 171.205 404 171.205V172.795C411.619 172.795 417.795 166.619 417.795 159H416.205ZM404 94.7951C410.741 94.7951 416.205 100.259 416.205 107H417.795C417.795 99.3812 411.619 93.2049 404 93.2049V94.7951ZM354.4 93.2049C347.902 93.2049 342.597 87.9539 340.468 81.5473L338.959 82.0488C341.219 88.8495 346.981 94.7951 354.4 94.7951V93.2049Z" fill="#FFDEC6" mask="url(#path-4-inside-2_290_13694)"/>
<path fill-rule="evenodd" clip-rule="evenodd" d="M357.5 72.5C349.621 69.7596 348.029 66.0328 341 59C349.5 77 327 73.3326 314.5 64.3326C302 55.3326 261.547 42.0328 245.047 39.5328C229.103 37.117 213.088 39.4553 197.101 41.7893C185.22 43.5241 173.354 45.2565 161.545 45.0328C149.108 44.7973 139.482 42.4463 130.295 40.2029C122.091 38.1991 114.237 36.2812 105.047 36.0328C86.5469 35.5328 61.0469 56.0332 49.0447 66.0328C40.1318 73.4587 19.2121 73.1143 9.54688 71.6553C4.53232 73.6776 1.75569 76.1477 3.54474 80.0332C11.5083 97.3288 47.0447 85.5328 52.0447 75.0328C57.0447 64.5328 66.0447 58.0328 84.0447 50.0328C97.5904 44.0125 122.179 48.7522 142.895 52.7453C149.707 54.0584 156.101 55.2908 161.545 56.0332C171.447 57.3837 180.336 55.0874 190.811 52.3815C203.609 49.0755 218.773 45.1581 241.045 46.5328C272.551 48.4776 284.423 53.5464 296.232 64.3326C299.603 67.4117 303.17 70.6689 307.5 74C327 89 384.5 97 380 88.5C377.752 84.2538 369 76.5 357.5 72.5Z" fill="#C2DEF8"/>
<path d="M85.0469 31.5328C87.0469 34.0328 125.047 24.5328 114.047 21.0328C103.047 17.5328 83.0469 30.0328 85.0469 31.5328Z" fill="white"/>
<path fill-rule="evenodd" clip-rule="evenodd" d="M118.045 17.5332C88.1243 15.1586 64.5194 39.8508 51.0865 53.9024C50.3774 54.6442 49.6966 55.3563 49.0447 56.0332C43.0221 62.2875 31.6284 65.3223 21.6822 67.9715C17.1106 69.1891 12.8447 70.3254 9.54688 71.6553C19.2121 73.1143 40.1318 73.4587 49.0447 66.0328C61.0469 56.0332 86.5469 35.5328 105.047 36.0328C114.237 36.2812 122.091 38.1991 130.295 40.2029C139.482 42.4463 149.108 44.7973 161.545 45.0328C173.354 45.2565 185.22 43.5241 197.101 41.7893C213.088 39.4553 229.103 37.117 245.047 39.5328C261.547 42.0328 302 55.3326 314.5 64.3326C327 73.3326 349.5 77 341 59C336.653 54.6504 328.705 48.3071 323.5 45.0328C292.5 25.5328 267 25.0328 224.5 26.0328C198.603 26.6422 173.32 27.4248 154.263 23.4711C142.046 20.9363 130.351 18.5099 118.045 17.5332ZM85.0469 31.5328C87.0469 34.0328 125.047 24.5328 114.047 21.0328C103.047 17.5328 83.0469 30.0328 85.0469 31.5328ZM299.047 44.0328C287.047 36.5328 266.047 35.0328 265.047 37.0328C265.047 39.6697 274.98 41.739 281.162 43.0268C283.185 43.4484 284.807 43.7862 285.547 44.0328C286.737 44.4296 289.422 46.0854 292.479 47.9701C297.127 50.8361 302.633 54.2312 305.045 54.5328C309.043 55.0328 311.047 51.5328 299.047 44.0328Z" fill="#E1EFFB"/>
<path d="M265.047 37.0328C266.047 35.0328 287.047 36.5328 299.047 44.0328C311.047 51.5328 309.043 55.0328 305.045 54.5328C302.633 54.2312 297.127 50.8361 292.479 47.9701C289.422 46.0854 286.737 44.4296 285.547 44.0328C284.807 43.7862 283.185 43.4484 281.162 43.0268C274.98 41.739 265.047 39.6697 265.047 37.0328Z" fill="white"/>
<path d="M166.943 29.6456C167.69 30.3511 168.708 31.1059 169.621 30.6532C169.981 30.4747 170.238 30.1364 170.532 29.8562C171.25 29.1721 172.254 28.8205 173.226 28.9134C173.411 26.8738 174.187 24.895 175.428 23.2976C175.54 23.1529 175.66 23.0054 175.702 22.825C175.747 22.6376 175.702 22.441 175.657 22.2538C175.5 21.591 175.342 20.9283 175.184 20.2656C174.997 19.479 174.808 18.6696 174.917 17.8682C175.125 16.3424 176.342 15.1928 176.937 13.7794C175.414 12.5206 174.693 10.3104 175.167 8.35455C174.027 9.38596 172.864 10.4324 171.482 11.0725C170.099 11.7126 168.438 11.8957 167.09 11.1817C166.921 12.1256 166.751 13.0705 166.582 14.0144C166.402 15.0191 166.208 16.0572 165.647 16.8974C165.085 17.7383 164.049 18.3298 163.104 18.0326C163.723 19.1517 163.615 20.5314 163.488 21.8136C163.336 23.3385 163.15 24.9573 162.22 26.1503C162.743 27.3991 163.375 28.6366 164.356 29.5448C165.336 30.453 166.725 30.9836 167.993 30.6191L166.942 29.6441L166.943 29.6456Z" fill="#63AF75"/>
<g clip-path="url(#clip1_290_13694)">
<path d="M185.366 28.1321C184.851 29.0436 184.351 30.2389 185.004 31.0578C185.261 31.381 185.65 31.564 185.991 31.7976C186.824 32.3682 187.4 33.3023 187.534 34.3034C189.565 34.0333 191.673 34.3729 193.517 35.2662C193.684 35.3471 193.856 35.4345 194.041 35.4372C194.234 35.4403 194.416 35.3506 194.588 35.2638C195.197 34.9564 195.807 34.649 196.416 34.3416C197.139 33.977 197.884 33.6054 198.691 33.5361C200.226 33.404 201.628 34.3738 203.143 34.6568C204.018 32.8402 206.005 31.6186 208.021 31.6582C206.752 30.7397 205.463 29.8018 204.519 28.5512C203.575 27.3006 203.011 25.6667 203.395 24.1479C202.436 24.1885 201.476 24.2288 200.517 24.2694C199.496 24.3126 198.439 24.3499 197.49 23.9717C196.541 23.5939 195.724 22.6819 195.795 21.6625C194.848 22.537 193.478 22.7368 192.199 22.8953C190.678 23.0842 189.057 23.2587 187.679 22.5878C186.583 23.3946 185.523 24.3094 184.865 25.5009C184.207 26.6923 184.011 28.2124 184.66 29.4089L185.367 28.1313L185.366 28.1321Z" fill="#63AF75"/>
<path d="M184.558 27.9429C185.284 28.5639 186.265 29.2217 187.113 28.782C187.448 28.6083 187.68 28.2926 187.949 28.0283C188.607 27.3831 189.543 27.0331 190.463 27.0889C190.579 25.2241 191.254 23.3972 192.378 21.9049C192.48 21.7701 192.589 21.6314 192.623 21.4666C192.66 21.2945 192.612 21.1171 192.565 20.9469C192.397 20.3477 192.229 19.7484 192.062 19.1488C191.863 18.4379 191.662 17.7051 191.742 16.9713C191.894 15.5742 193.009 14.4899 193.529 13.184C192.058 12.081 191.314 10.0881 191.705 8.29165C190.66 9.2657 189.593 10.2544 188.307 10.8782C187.021 11.5027 185.461 11.7191 184.169 11.1084C184.036 11.9743 183.903 12.8401 183.771 13.7057C183.629 14.627 183.477 15.5784 182.971 16.3615C182.466 17.1446 181.506 17.7151 180.606 17.4715C181.222 18.473 181.159 19.7338 181.076 20.9071C180.978 22.3018 180.848 23.783 180.005 24.8984C180.534 26.0212 181.166 27.1315 182.116 27.9297C183.066 28.7285 184.392 29.1706 185.577 28.8016L184.558 27.9439L184.558 27.9429Z" fill="#63AF75"/>
<path d="M189.351 31.3504C187.454 32.22 186.064 32.0438 184.466 30.5935C182.818 29.0969 182.858 26.757 184.153 25.0031C185.65 22.9768 188.71 22.4029 190.512 24.2119C192.03 25.736 192.197 26.9545 191.397 28.9598C191.086 29.7391 189.85 31.1219 189.352 31.3507L189.351 31.3504Z" fill="#FF1E1D"/>
<path d="M182.955 34.1497C181.058 35.0193 179.667 34.8431 178.07 33.3928C176.422 31.8962 176.462 29.5563 177.757 27.8024C179.253 25.7761 182.313 25.2023 184.115 27.0112C185.634 28.5353 185.801 29.7538 185 31.7591C184.689 32.5384 183.454 33.9212 182.956 34.15L182.955 34.1497Z" fill="#FF1E1D"/>
<path d="M184.889 27.2543C182.992 28.124 181.602 27.9478 180.004 26.4975C178.356 25.0009 178.396 22.6609 179.692 20.907C181.188 18.8808 184.248 18.3069 186.05 20.1159C187.568 21.64 187.736 22.8585 186.935 24.8638C186.624 25.6431 185.388 27.0259 184.89 27.2547L184.889 27.2543Z" fill="#FF1E1D"/>
<path d="M185.392 31.5317C185.255 31.6039 185.082 31.5892 184.958 31.4814C184.866 31.4022 182.719 29.52 183.041 27.6638C183.185 26.837 183.598 25.5794 184.327 24.5291C185.19 23.2843 186.261 22.6727 187.421 22.7606C187.635 22.7766 187.796 22.9637 187.78 23.1774C187.764 23.3912 187.577 23.5517 187.363 23.5357C185.283 23.3777 184.05 26.3963 183.807 27.7966C183.602 28.9775 184.935 30.4329 185.467 30.894C185.629 31.0348 185.647 31.2799 185.506 31.4422C185.473 31.4797 185.435 31.5103 185.393 31.5324L185.392 31.5317Z" fill="#333333"/>
<path d="M183.393 28.3636C183.348 28.3871 183.299 28.4016 183.246 28.4064C180.68 28.6265 179.699 26.7525 179.659 26.673C179.562 26.4816 179.639 26.2489 179.829 26.1506C180.02 26.054 180.254 26.1291 180.351 26.3195C180.385 26.3842 181.153 27.8051 183.179 27.6314C183.393 27.6129 183.581 27.7717 183.599 27.9858C183.613 28.1462 183.527 28.2932 183.393 28.3636Z" fill="#333333"/>
<path d="M192.541 22.434C192.515 22.4477 192.487 22.4587 192.457 22.4666C192.318 22.503 189.015 23.3375 187.22 22.2492C187.036 22.1384 186.977 21.899 187.089 21.7157C187.2 21.532 187.44 21.4731 187.623 21.585C189.138 22.5035 192.232 21.7221 192.264 21.7142C192.472 21.6604 192.683 21.7856 192.737 21.9935C192.783 22.1713 192.698 22.3527 192.542 22.4347L192.541 22.434Z" fill="#333333"/>
</g>
<g clip-path="url(#clip2_290_13694)">
<path d="M167.266 28.3378C167.247 29.3843 167.071 30.668 166.093 31.0423C165.707 31.1902 165.279 31.1503 164.866 31.1784C163.859 31.2472 162.889 31.7601 162.265 32.5543C160.653 31.2908 158.664 30.5132 156.621 30.3469C156.436 30.3318 156.244 30.3201 156.083 30.2281C155.915 30.1329 155.805 29.9636 155.7 29.8015C155.331 29.2273 154.962 28.6531 154.593 28.0789C154.155 27.3977 153.702 26.6993 153.042 26.2303C151.787 25.3372 150.086 25.461 148.637 24.9358C148.806 22.9267 147.714 20.8656 145.957 19.8765C147.516 19.7293 149.103 19.5755 150.551 18.9772C151.999 18.3788 153.314 17.2569 153.754 15.7535C154.56 16.2753 155.367 16.7974 156.173 17.3192C157.03 17.8747 157.922 18.4431 158.931 18.5989C159.941 18.7554 161.108 18.384 161.564 17.4697C161.936 18.704 163.015 19.5715 164.037 20.3573C165.251 21.2922 166.56 22.2653 168.087 22.3867C168.622 23.6382 169.071 24.9643 169.033 26.325C168.996 27.6856 168.392 29.0944 167.226 29.7961L167.265 28.3365L167.266 28.3378Z" fill="#63AF75"/>
<path d="M167.788 29.3605C166.848 29.5275 165.668 29.5961 165.161 28.7868C164.961 28.4673 164.921 28.0775 164.823 27.713C164.584 26.8232 163.955 26.0464 163.134 25.6278C163.981 23.9621 164.326 22.0454 164.115 20.1889C164.096 20.0213 164.073 19.8465 164.127 19.6869C164.182 19.5198 164.314 19.3915 164.441 19.2688C164.889 18.8377 165.338 18.4065 165.786 17.9747C166.319 17.4633 166.864 16.9339 167.167 16.261C167.746 14.9801 167.336 13.4802 167.55 12.091C169.378 11.8875 171.03 10.5478 171.605 8.80161C172.012 10.1714 172.429 11.5646 173.22 12.7549C174.011 13.9455 175.245 14.924 176.669 15.0536C176.344 15.8672 176.019 16.6807 175.693 17.4935C175.348 18.3592 174.996 19.2562 175.034 20.1875C175.072 21.1188 175.61 22.0978 176.508 22.3444C175.469 22.8947 174.883 24.0129 174.36 25.066C173.737 26.3177 173.096 27.6597 173.257 29.0487C172.231 29.7478 171.123 30.3834 169.899 30.589C168.675 30.795 167.309 30.5031 166.475 29.5834L167.788 29.3616L167.788 29.3605Z" fill="#63AF75"/>
<path d="M161.929 29.8637C163.122 31.5759 164.41 32.1299 166.522 31.6911C168.702 31.2381 169.855 29.2018 169.629 27.0331C169.368 24.5277 167.023 22.4802 164.552 23.124C162.47 23.6664 161.708 24.6315 161.38 26.7658C161.252 27.5951 161.615 29.4136 161.928 29.8634L161.929 29.8637Z" fill="#FF1E1D"/>
<path d="M166.02 35.5225C167.213 37.2347 168.5 37.7887 170.613 37.35C172.792 36.897 173.946 34.8607 173.72 32.692C173.459 30.1866 171.114 28.139 168.643 28.7828C166.561 29.3253 165.799 30.2904 165.471 32.4247C165.343 33.2539 165.706 35.0725 166.019 35.5223L166.02 35.5225Z" fill="#FF1E1D"/>
<path d="M167.853 28.5994C169.046 30.3116 170.333 30.8657 172.446 30.4269C174.625 29.9739 175.779 27.9376 175.553 25.7689C175.292 23.2635 172.947 21.2159 170.476 21.8597C168.394 22.4022 167.632 23.3673 167.304 25.5016C167.176 26.3308 167.539 28.1494 167.852 28.5992L167.853 28.5994Z" fill="#FF1E1D"/>
<path d="M165.248 32.0294C165.33 32.1615 165.486 32.2365 165.648 32.2067C165.767 32.1849 168.573 31.6535 169.237 29.8903C169.533 29.105 169.816 27.8119 169.721 26.5371C169.609 25.0261 168.997 23.9559 167.952 23.4424C167.76 23.3477 167.527 23.4274 167.432 23.6197C167.337 23.812 167.417 24.0452 167.609 24.1399C169.481 25.0595 169.011 28.2862 168.51 29.6161C168.087 30.7375 166.2 31.3147 165.508 31.4422C165.297 31.4815 165.157 31.6835 165.196 31.8946C165.205 31.9437 165.223 31.9896 165.248 32.0299L165.248 32.0294Z" fill="#333333"/>
<path d="M168.579 30.3146C168.606 30.3575 168.641 30.3951 168.684 30.426C170.783 31.9182 172.579 30.8012 172.655 30.7534C172.835 30.6377 172.887 30.398 172.773 30.2166C172.657 30.0366 172.418 29.9828 172.238 30.0975C172.176 30.136 170.793 30.9703 169.135 29.7922C168.96 29.6676 168.718 29.7091 168.593 29.8843C168.5 30.0154 168.499 30.1858 168.579 30.3146Z" fill="#333333"/>
<path d="M163.707 20.5623C163.723 20.5874 163.741 20.6109 163.763 20.6329C163.865 20.7353 166.286 23.1305 168.386 23.1041C168.6 23.1019 168.772 22.9255 168.769 22.7107C168.767 22.4963 168.59 22.324 168.376 22.3273C166.604 22.3497 164.335 20.106 164.312 20.083C164.16 19.9311 163.914 19.9317 163.762 20.0836C163.632 20.2135 163.613 20.4128 163.706 20.5627L163.707 20.5623Z" fill="#333333"/>
</g>
</g>
</g>
<defs>
<clipPath id="clip0_290_13694">
<rect width="385" height="96" fill="white"/>
</clipPath>
<clipPath id="clip1_290_13694">
<rect width="28.0892" height="29.0305" fill="white" transform="translate(170.002 18.5393) rotate(-27.6823)"/>
</clipPath>
<clipPath id="clip2_290_13694">
<rect width="28.0892" height="29.0305" fill="white" transform="matrix(-0.52717 -0.84976 -0.84976 0.52717 185.102 28.6466)"/>
</clipPath>
</defs>
</svg>
