<svg width="213" height="90" viewBox="0 0 213 90" fill="none" xmlns="http://www.w3.org/2000/svg">
<rect x="1.71484" y="31" width="210" height="58" rx="29" fill="#430006" stroke="black" stroke-width="2"/>
<rect x="7.21484" y="36.5" width="199" height="47" rx="23.5" fill="#124300" stroke="#FFDEC6"/>
<path d="M183.215 32C207.215 37.4999 211.715 60.5 212.715 47.5C212.791 46.5206 212.66 45.5177 212.338 44.5C206.464 40.6667 192.215 32.3 182.215 29.5C171.516 27.174 153.459 29.609 138.916 31.57L138.914 31.5703C138.912 31.5706 138.91 31.5708 138.908 31.5711C137.822 31.7175 136.757 31.8611 135.715 32C120.715 34 96.7153 33 82.2153 32C67.7153 31 39.7153 30.5 24.7153 32C12.7153 33.2 3.74515 39.5 0.760053 42.5C-0.434991 45.6706 -0.295841 48.5374 1.71538 50.0001C2.95999 51.5002 6.21533 46 8.21533 43.5C16.5322 33.1039 35.7153 34 48.2153 33C60.7153 32 96.2153 35.5 107.215 36C138.215 37.4091 159.215 26.5001 183.215 32Z" fill="#C2DEF8"/>
<path d="M102.715 27C102.215 24.5 131.215 17 143.215 21C155.215 25 133.215 28.5 128.715 27C126.389 26.2247 119.789 26.6516 113.816 27.0379C108.233 27.399 103.198 27.7247 102.715 27Z" fill="white"/>
<path fill-rule="evenodd" clip-rule="evenodd" d="M42.52 27.3256C32.514 27.4484 22.8051 27.5675 16.2154 29.0001C8.92066 30.5859 2.83304 37.0001 0.760053 42.5C3.74515 39.5 12.7153 33.2 24.7153 32C39.7153 30.5 67.7153 31 82.2153 32C96.7153 33 120.715 34 135.715 32C136.757 31.8611 137.822 31.7175 138.908 31.5711L138.914 31.5703L138.916 31.57C153.459 29.609 171.516 27.174 182.215 29.5C192.215 32.3 206.464 40.6667 212.338 44.5C208.412 32.068 176.029 17.4244 143.215 16.5001C118.747 15.8108 97.8423 20.1096 82.1372 23.3391C75.0561 24.7952 69.0322 26.0339 64.2153 26.5001C57.5971 27.1406 49.9761 27.2341 42.52 27.3256ZM102.715 27C102.215 24.5 131.215 17 143.215 21C155.215 25 133.215 28.5 128.715 27C126.389 26.2247 119.789 26.6516 113.816 27.0379C108.233 27.399 103.198 27.7247 102.715 27ZM13.7153 30.5C11.2153 31 6.71533 34.5 7.21533 35.5C7.78933 36.361 8.69281 35.5746 9.64209 34.7484C10.3466 34.1352 11.0763 33.5 11.7153 33.5C13.2153 33.5 20.7153 31 19.7153 30.5C18.7153 30 16.2154 30 13.7153 30.5Z" fill="#E1EFFB"/>
<path d="M7.21533 35.5C6.71533 34.5 11.2153 31 13.7153 30.5C16.2154 30 18.7153 30 19.7153 30.5C20.7153 31 13.2153 33.5 11.7153 33.5C11.0763 33.5 10.3466 34.1352 9.64209 34.7484C8.69281 35.5746 7.78933 36.361 7.21533 35.5Z" fill="white"/>
<path d="M100.181 20.4244C100.818 20.7671 101.651 21.0958 102.208 20.6334C102.428 20.451 102.549 20.1795 102.705 19.9405C103.088 19.3569 103.725 18.9463 104.415 18.8392C104.2 17.4397 104.405 15.978 104.997 14.6911C105.05 14.5745 105.108 14.4548 105.107 14.3264C105.107 14.193 105.042 14.0691 104.98 13.9514C104.759 13.5346 104.538 13.1178 104.317 12.701C104.055 12.2062 103.788 11.6965 103.728 11.1403C103.616 10.0813 104.266 9.09862 104.44 8.04763C103.173 7.46887 102.301 6.11283 102.3 4.7192C101.683 5.60916 101.053 6.51312 100.202 7.18302C99.3508 7.85291 98.2296 8.26499 97.1747 8.02112C97.2162 8.68335 97.2575 9.34632 97.299 10.0086C97.3432 10.7135 97.3838 11.4431 97.1358 12.1041C96.8881 12.7656 96.2693 13.3426 95.5638 13.3079C96.1814 13.9503 96.3388 14.8941 96.4662 15.7758C96.6181 16.8244 96.7615 17.9421 96.3172 18.9038C96.8901 19.6499 97.5372 20.3693 98.3698 20.8074C99.2024 21.2456 100.256 21.3592 101.073 20.894L100.181 20.4234L100.181 20.4244Z" fill="#63AF75"/>
<g clip-path="url(#clip0_390_6198)">
<path d="M107.978 17.3876C107.786 18.0853 107.653 18.9707 108.228 19.4098C108.455 19.5832 108.746 19.6403 109.014 19.7395C109.669 19.9817 110.212 20.5111 110.471 21.1596C111.786 20.6366 113.257 20.5093 114.644 20.7977C114.769 20.8238 114.899 20.8535 115.024 20.824C115.154 20.7937 115.26 20.703 115.361 20.6158C115.718 20.3072 116.074 19.9985 116.431 19.6898C116.855 19.3236 117.292 18.9491 117.82 18.7669C118.827 18.4198 119.931 18.8339 120.994 18.7685C121.274 17.4035 122.401 16.25 123.759 15.9372C122.753 15.5351 121.731 15.1234 120.888 14.444C120.045 13.7646 119.392 12.7641 119.394 11.6813C118.757 11.87 118.121 12.0586 117.484 12.2473C116.807 12.4482 116.105 12.6511 115.405 12.5573C114.705 12.4639 114.004 11.99 113.88 11.2947C113.392 12.0404 112.508 12.405 111.677 12.7265C110.689 13.1093 109.632 13.4992 108.595 13.2814C107.996 14.0068 107.44 14.7985 107.199 15.708C106.959 16.6176 107.084 17.6694 107.72 18.3623L107.979 17.3868L107.978 17.3876Z" fill="#63AF75"/>
<path d="M107.405 17.3966C107.995 17.6908 108.764 17.9665 109.259 17.529C109.454 17.3562 109.556 17.1055 109.692 16.883C110.024 16.3397 110.593 15.9475 111.219 15.8301C110.983 14.5604 111.128 13.222 111.63 12.0324C111.676 11.9249 111.725 11.8136 111.721 11.6973C111.717 11.5757 111.654 11.4649 111.594 11.3587C111.381 10.9853 111.167 10.6118 110.954 10.238C110.701 9.79493 110.443 9.33753 110.373 8.83212C110.24 7.86997 110.805 6.95546 110.933 5.99246C109.761 5.50076 108.927 4.28993 108.887 3.01987C108.35 3.84882 107.802 4.69119 107.045 5.32586C106.288 5.96095 105.278 6.36873 104.309 6.17687C104.366 6.7797 104.423 7.38254 104.48 7.98502C104.54 8.62648 104.598 9.2899 104.391 9.89997C104.184 10.51 103.636 11.0542 102.992 11.0423C103.574 11.61 103.744 12.4657 103.886 13.2663C104.054 14.2179 104.217 15.2326 103.84 16.1223C104.383 16.786 104.994 17.4238 105.765 17.799C106.536 18.1745 107.5 18.2477 108.232 17.8008L107.405 17.3973L107.405 17.3966Z" fill="#63AF75"/>
<path d="M111.192 18.8739C110.067 19.7763 109.105 19.8923 107.79 19.189C106.433 18.4632 106.066 16.8878 106.639 15.494C107.301 13.8837 109.256 12.9839 110.768 13.8931C112.043 14.6592 112.36 15.4479 112.161 16.9271C112.083 17.5018 111.488 18.6368 111.193 18.874L111.192 18.8739Z" fill="#FF1E1D"/>
<path d="M107.375 21.8275C106.249 22.7299 105.287 22.8459 103.972 22.1426C102.616 21.4168 102.249 19.8414 102.822 18.4476C103.484 16.8373 105.438 15.9375 106.951 16.8467C108.225 17.6128 108.543 18.4015 108.343 19.8807C108.266 20.4554 107.671 21.5904 107.375 21.8276L107.375 21.8275Z" fill="#FF1E1D"/>
<path d="M107.51 16.8794C106.385 17.7817 105.423 17.8977 104.108 17.1944C102.752 16.4686 102.384 14.8933 102.957 13.4994C103.619 11.8892 105.574 10.9893 107.087 11.8985C108.361 12.6646 108.678 13.4533 108.479 14.9325C108.402 15.5072 107.806 16.6422 107.511 16.8794L107.51 16.8794Z" fill="#FF1E1D"/>
<path d="M108.568 19.662C108.488 19.7336 108.369 19.7528 108.268 19.7015C108.193 19.6638 106.437 18.7637 106.34 17.465C106.298 16.8865 106.363 15.9739 106.674 15.1472C107.044 14.1673 107.658 13.5771 108.451 13.4406C108.597 13.4153 108.736 13.5137 108.762 13.6597C108.787 13.8057 108.689 13.9448 108.543 13.97C107.122 14.2143 106.803 16.4454 106.876 17.4251C106.938 18.2512 108.076 19.0024 108.51 19.222C108.642 19.2892 108.696 19.4505 108.629 19.5829C108.613 19.6136 108.593 19.6406 108.568 19.6624L108.568 19.662Z" fill="#333333"/>
<path d="M106.695 17.8748C106.669 17.8981 106.638 17.9162 106.604 17.9283C104.921 18.5078 103.948 17.4167 103.907 17.3702C103.81 17.2582 103.822 17.0892 103.934 16.9912C104.045 16.8944 104.214 16.9054 104.312 17.0167C104.345 17.0543 105.099 17.8775 106.428 17.42C106.569 17.3716 106.721 17.4464 106.77 17.5868C106.806 17.692 106.773 17.805 106.695 17.8748Z" fill="#333333"/>
<path d="M111.828 12.3597C111.813 12.3733 111.796 12.3853 111.778 12.3957C111.69 12.4436 109.617 13.559 108.23 13.1317C108.088 13.0884 108.008 12.9378 108.053 12.796C108.096 12.6543 108.247 12.5745 108.388 12.6186C109.558 12.9793 111.501 11.9346 111.521 11.9239C111.651 11.8528 111.814 11.9012 111.885 12.0315C111.946 12.143 111.92 12.2789 111.829 12.3601L111.828 12.3597Z" fill="#333333"/>
</g>
<g clip-path="url(#clip1_390_6198)">
<path d="M95.8796 20.5727C96.0428 21.2776 96.1409 22.1677 95.5484 22.5833C95.3147 22.7474 95.021 22.7927 94.7492 22.881C94.0855 23.0967 93.5217 23.6038 93.237 24.2413C91.9433 23.6658 90.4791 23.4794 89.082 23.7117C88.9554 23.7327 88.8247 23.7572 88.7011 23.7227C88.5725 23.6872 88.4699 23.5923 88.3727 23.5011C88.0287 23.1784 87.6846 22.8556 87.3406 22.5328C86.9321 22.1498 86.5106 21.758 85.9895 21.5547C84.9974 21.1674 83.8783 21.5366 82.8185 21.4285C82.5933 20.0533 81.5142 18.8555 80.1698 18.4882C81.1907 18.127 82.2285 17.7567 83.0985 17.1118C83.9686 16.4669 84.6609 15.4934 84.7029 14.4115C85.3309 14.6256 85.9597 14.8398 86.5877 15.0539C87.2563 15.2819 87.9495 15.5129 88.6525 15.4474C89.3559 15.3822 90.0752 14.9369 90.2272 14.2471C90.6847 15.0119 91.5539 15.4118 92.3711 15.7666C93.3428 16.1888 94.3835 16.6209 95.4282 16.4451C95.9975 17.194 96.5215 18.0074 96.7253 18.9259C96.9292 19.8444 96.7619 20.8904 96.0982 21.5571L95.8788 20.572L95.8796 20.5727Z" fill="#63AF75"/>
<path d="M96.4013 21.1704C95.7992 21.4406 95.0201 21.6852 94.5436 21.2281C94.3556 21.0476 94.2634 20.793 94.1363 20.5651C93.8262 20.0089 93.2736 19.5941 92.6532 19.4516C92.9401 18.1925 92.8492 16.8493 92.3949 15.6404C92.3541 15.5313 92.3089 15.418 92.3181 15.302C92.3272 15.1806 92.3939 15.0724 92.4583 14.9688C92.6866 14.6042 92.9148 14.2397 93.1426 13.8747C93.4135 13.4422 93.6898 12.9956 93.7798 12.4934C93.9519 11.5374 93.4245 10.6009 93.3346 9.63347C94.5255 9.18936 95.4076 8.01309 95.4991 6.74568C96.002 7.59557 96.5161 8.45933 97.247 9.12398C97.9776 9.78901 98.9699 10.2371 99.9458 10.0844C99.865 10.6845 99.7841 11.2845 99.7028 11.8842C99.6169 12.5228 99.532 13.1833 99.7144 13.8012C99.8967 14.4191 100.422 14.9848 101.066 14.9989C100.462 15.5427 100.258 16.3909 100.084 17.1851C99.8768 18.1291 99.6736 19.1365 100.015 20.0407C99.4451 20.682 98.809 21.2947 98.0235 21.6385C97.2375 21.9827 96.2723 22.0171 95.5584 21.541L96.4013 21.1712L96.4013 21.1704Z" fill="#63AF75"/>
<path d="M92.5585 22.4941C93.6466 23.4411 94.603 23.5957 95.9453 22.9459C97.3301 22.2753 97.7604 20.716 97.244 19.3003C96.6472 17.6646 94.7305 16.6868 93.1824 17.5344C91.8781 18.2486 91.5295 19.0239 91.669 20.5098C91.7231 21.0873 92.2723 22.2453 92.5578 22.4942L92.5585 22.4941Z" fill="#FF1E1D"/>
<path d="M96.2538 25.599C97.3419 26.546 98.2983 26.7006 99.6406 26.0508C101.025 25.3802 101.456 23.8209 100.939 22.4051C100.343 20.7695 98.4258 19.7917 96.8777 20.6393C95.5734 21.3534 95.2248 22.1287 95.3643 23.6147C95.4184 24.1921 95.9676 25.3501 96.2531 25.599L96.2538 25.599Z" fill="#FF1E1D"/>
<path d="M96.3173 20.6494C97.4053 21.5963 98.3618 21.7509 99.704 21.1011C101.089 20.4305 101.519 18.8712 101.003 17.4555C100.406 15.8198 98.4893 14.842 96.9412 15.6896C95.6369 16.4038 95.2883 17.1791 95.4278 18.6651C95.4819 19.2425 96.0311 20.4005 96.3166 20.6494L96.3173 20.6494Z" fill="#FF1E1D"/>
<path d="M95.1486 23.3872C95.2258 23.4619 95.3432 23.4859 95.4465 23.4387C95.5227 23.404 97.3142 22.5754 97.4627 21.2816C97.5287 20.7053 97.5005 19.7909 97.2223 18.9522C96.8927 17.9582 96.3024 17.3438 95.5155 17.1755C95.3706 17.1443 95.2277 17.237 95.1966 17.3819C95.1655 17.5268 95.2582 17.6697 95.403 17.7008C96.8128 18.0021 97.0412 20.2442 96.9291 21.2202C96.8343 22.0431 95.6662 22.7479 95.2237 22.9498C95.0891 23.0116 95.0293 23.1706 95.0907 23.3057C95.1053 23.337 95.1247 23.3648 95.1482 23.3876L95.1486 23.3872Z" fill="#333333"/>
<path d="M97.0927 21.6768C97.1177 21.7011 97.1477 21.7204 97.1817 21.7339C98.8402 22.3808 99.8561 21.3297 99.8987 21.2849C100 21.1769 99.9946 21.0075 99.8873 20.9051C99.7797 20.8039 99.6103 20.8081 99.5087 20.9154C99.4736 20.9516 98.6868 21.7438 97.3774 21.2331C97.239 21.1791 97.0835 21.2477 97.0295 21.3861C96.989 21.4897 97.0174 21.604 97.0927 21.6768Z" fill="#333333"/>
<path d="M92.184 15.9596C92.1986 15.9738 92.2148 15.9864 92.2332 15.9975C92.3188 16.049 94.3454 17.2469 95.7483 16.8758C95.8917 16.8382 95.9775 16.6909 95.9391 16.5476C95.9015 16.4042 95.7542 16.3184 95.6109 16.3567C94.427 16.67 92.5281 15.5479 92.5085 15.5365C92.3812 15.4602 92.2166 15.502 92.1403 15.6293C92.0752 15.7383 92.096 15.8751 92.1836 15.96L92.184 15.9596Z" fill="#333333"/>
</g>
<defs>
<clipPath id="clip0_390_6198">
<rect width="19.4149" height="20.0655" fill="white" transform="translate(96.0635 13.5435) rotate(-41.7803)"/>
</clipPath>
<clipPath id="clip1_390_6198">
<rect width="19.4149" height="20.0655" fill="white" transform="matrix(-0.718277 -0.695758 -0.695758 0.718277 107.888 17.777)"/>
</clipPath>
</defs>
</svg>
