<svg width="571" height="811" viewBox="0 0 571 811" fill="none" xmlns="http://www.w3.org/2000/svg">
<g filter="url(#filter0_f_199_188005)">
<path d="M64.0733 609.341C57.8094 631.023 92.3809 732.409 110.45 780.391L411.595 791.232C431.873 753.087 471.102 668.365 465.802 634.637C459.176 592.476 452.551 556.339 465.802 532.247C479.052 508.156 512.78 454.552 503.746 397.937C494.712 341.321 476.643 294.945 465.802 266.637C454.96 238.33 543.497 219.659 536.27 153.407C529.042 87.1548 573.612 46.8015 536.27 22.7099C498.928 -1.38169 451.347 120.883 420.028 110.644C388.708 100.405 397.743 79.3252 335.707 71.4954C273.671 63.6656 278.489 123.895 243.557 120.883C208.624 117.872 219.465 76.9159 150.202 61.2564C94.7909 48.7287 91.3779 128.713 96.5978 170.271C15.8909 156.418 31.5489 278.081 21.31 306.389C11.0711 334.696 64.0733 411.187 73.7092 467.2C83.3452 523.213 71.903 582.237 64.0733 609.341Z" fill="url(#paint0_radial_199_188005)" fill-opacity="0.2"/>
</g>
<defs>
<filter id="filter0_f_199_188005" x="0.730135" y="0.285067" width="569.915" height="810.22" filterUnits="userSpaceOnUse" color-interpolation-filters="sRGB">
<feFlood flood-opacity="0" result="BackgroundImageFix"/>
<feBlend mode="normal" in="SourceGraphic" in2="BackgroundImageFix" result="shape"/>
<feGaussianBlur stdDeviation="9.63664" result="effect1_foregroundBlur_199_188005"/>
</filter>
<radialGradient id="paint0_radial_199_188005" cx="0" cy="0" r="1" gradientUnits="userSpaceOnUse" gradientTransform="translate(502.45 690.8) rotate(-129.446) scale(608.344 1294.6)">
<stop stop-color="white"/>
<stop offset="1" stop-color="#F0FCFB"/>
</radialGradient>
</defs>
</svg>
