<svg width="480" height="670" viewBox="0 0 480 670" fill="none" xmlns="http://www.w3.org/2000/svg">
<g filter="url(#filter0_f_199_120198)">
<path d="M18.0698 468.782C11.806 490.465 46.3775 591.85 64.4462 639.833L365.592 650.674C385.869 612.529 425.098 527.806 419.798 494.078C413.173 451.918 406.548 415.78 419.798 391.689C433.049 367.597 466.777 313.993 457.742 257.378C448.708 200.763 430.639 154.387 419.798 126.079C408.957 97.7713 497.494 79.1003 490.266 12.8484C483.039 -53.4035 527.608 -93.7568 490.266 -117.848C452.924 -141.94 405.343 -19.6752 374.024 -29.9141C342.705 -40.153 351.739 -61.2332 289.704 -69.0629C227.668 -76.8927 232.486 -16.6637 197.553 -19.6752C162.62 -22.6866 173.462 -63.6424 104.198 -79.302C48.7875 -91.8296 45.3745 -11.8454 50.5944 29.7127C-30.1125 15.86 -14.4545 137.523 -24.6934 165.83C-34.9324 194.138 18.0698 270.629 27.7058 326.642C37.3418 382.655 25.8996 441.679 18.0698 468.782Z" fill="url(#paint0_radial_199_120198)" fill-opacity="0.2"/>
</g>
<defs>
<filter id="filter0_f_199_120198" x="-45.2733" y="-140.273" width="569.915" height="810.22" filterUnits="userSpaceOnUse" color-interpolation-filters="sRGB">
<feFlood flood-opacity="0" result="BackgroundImageFix"/>
<feBlend mode="normal" in="SourceGraphic" in2="BackgroundImageFix" result="shape"/>
<feGaussianBlur stdDeviation="9.63664" result="effect1_foregroundBlur_199_120198"/>
</filter>
<radialGradient id="paint0_radial_199_120198" cx="0" cy="0" r="1" gradientUnits="userSpaceOnUse" gradientTransform="translate(456.446 550.241) rotate(-129.446) scale(608.344 1294.6)">
<stop stop-color="white"/>
<stop offset="1" stop-color="#F0FCFB"/>
</radialGradient>
</defs>
</svg>
