<svg width="1830" height="880" viewBox="0 0 1830 880" fill="none" xmlns="http://www.w3.org/2000/svg">
<g filter="url(#filter0_f_191_283562)">
<path d="M105.083 403.342C89.8832 572.942 238.417 744.009 314.583 808.342H1473.08C1567.42 777.676 1749.48 697.242 1723.08 620.842C1690.08 525.342 1497.58 520.342 1500.08 441.342C1502.58 362.342 1595.58 370.842 1519.08 272.842C1442.58 174.842 1345.08 139.842 1163.08 71.8421C981.082 3.84214 981.082 -37.1579 613.582 -4.65786C246.082 27.8421 401.582 71.8421 360.582 172.342C319.582 272.842 124.083 191.342 105.083 403.342Z" fill="url(#paint0_radial_191_283562)" fill-opacity="0.4"/>
</g>
<defs>
<filter id="filter0_f_191_283562" x="0" y="-120" width="1829.67" height="1032.34" filterUnits="userSpaceOnUse" color-interpolation-filters="sRGB">
<feFlood flood-opacity="0" result="BackgroundImageFix"/>
<feBlend mode="normal" in="SourceGraphic" in2="BackgroundImageFix" result="shape"/>
<feGaussianBlur stdDeviation="52" result="effect1_foregroundBlur_191_283562"/>
</filter>
<radialGradient id="paint0_radial_191_283562" cx="0" cy="0" r="1" gradientUnits="userSpaceOnUse" gradientTransform="translate(1578.51 701.056) rotate(-156.653) scale(1266.31 1998.46)">
<stop stop-color="white"/>
<stop offset="1" stop-color="#F0FCFB"/>
</radialGradient>
</defs>
</svg>
