<svg width="592" height="132" viewBox="0 0 592 132" fill="none" xmlns="http://www.w3.org/2000/svg">
<path d="M570.967 52.3924L584.822 22.8527L579.997 17.623L566.063 21.3021L553.824 51.206L570.967 52.3924Z" fill="url(#paint0_linear_3014_4129)"/>
<path d="M31.4291 132L560.628 123.479V114.334L541.747 105.1L331.84 105.099L26.0197 128.15L25.1969 128.694L31.4291 132Z" fill="url(#paint1_linear_3014_4129)"/>
<path d="M588.768 60.4025L586.964 59.6922L546.653 113.443L555.283 121.103L560.624 123.464L592 62.3428L588.768 60.4025Z" fill="url(#paint2_linear_3014_4129)"/>
<path d="M567.293 50.8164L580.019 17.627L555.602 0L16.6571 23.4418L11.4267 35.1149L16.6568 50.8164L0 88.7212L25.1936 128.668L555.602 121.251L588.785 60.4182L567.293 50.8164Z" fill="#FF7307"/>
<g filter="url(#filter0_d_3014_4129)">
<path d="M29.2059 64.7303C29.3565 62.4751 29.8905 60.3621 30.808 58.3915C31.7255 56.4209 32.9126 54.7278 34.3694 53.3121C35.8822 51.8419 37.6103 50.6774 39.5538 49.8187C41.5499 48.9579 43.7035 48.4834 46.0147 48.3954C48.2734 48.3093 50.3482 48.6226 52.2391 49.3352C54.1301 50.0479 55.7112 51.0863 56.9823 52.4503C58.257 53.7619 59.2235 55.373 59.8818 57.2836C60.5401 59.1941 60.794 61.277 60.6434 63.5323L60.2862 68.882L48.9403 69.3144L49.2975 63.9647C49.3886 62.601 49.0699 61.4884 48.3415 60.6268C47.6657 59.7632 46.6449 59.3574 45.2792 59.4095C43.966 59.4595 42.8875 59.9191 42.0435 60.7883C41.2521 61.6555 40.7636 62.6943 40.578 63.9046L40.0422 71.9292L49.1031 71.5839L48.3677 82.598L39.3067 82.9433L38.7656 91.0465L27.4197 91.4789L29.2059 64.7303ZM47.9474 85.3605L59.2933 84.9281L58.9361 90.2778C58.782 92.5855 58.2462 94.7247 57.3287 96.6953C56.4147 98.6135 55.2013 100.308 53.6885 101.778C52.2318 103.193 50.5054 104.332 48.5093 105.192C46.5133 106.053 44.3859 106.527 42.1273 106.613C39.8161 106.701 37.715 106.389 35.824 105.676C33.9856 104.961 32.4027 103.949 31.0756 102.64C29.8044 101.275 28.8379 99.6644 28.1761 97.8063C27.5178 95.8957 27.2657 93.7866 27.4197 91.4789L38.7656 91.0465C38.6746 92.4101 38.9932 93.5228 39.7216 94.3844C40.45 95.2459 41.497 95.6507 42.8627 95.5987C44.2284 95.5466 45.335 95.0598 46.1824 94.1381C47.0299 93.2165 47.4991 92.0739 47.5902 90.7102L47.9474 85.3605ZM110.385 87.3755C110.238 89.5784 109.707 91.6388 108.793 93.557C107.935 95.4207 106.778 97.0604 105.321 98.4761C103.92 99.8374 102.276 100.92 100.389 101.724C98.5014 102.529 96.4546 102.973 94.2484 103.057L79.8297 103.607L83.507 48.536L96.9014 48.0256C99.1076 47.9415 101.104 48.2578 102.89 48.9745C104.679 49.6387 106.185 50.6276 107.407 51.9412C108.685 53.2004 109.63 54.7338 110.243 56.5414C110.909 58.3471 111.168 60.3513 111.021 62.5542L110.979 63.1835C110.811 65.7011 110.192 67.8957 109.124 69.7674C108.112 71.5846 106.729 73.076 104.975 74.2415C106.845 75.2688 108.266 76.7318 109.24 78.6303C110.269 80.4744 110.693 82.7601 110.511 85.4874L110.385 87.3755ZM99.3017 83.8743C99.4733 81.3043 98.435 79.9837 96.1868 79.9125L96.108 79.9155L95.7929 79.9275L92.72 80.0446L91.911 92.1601L94.9839 92.043C97.5052 91.9469 98.8569 90.5352 99.039 87.8079L99.3017 83.8743ZM99.6748 62.9865C99.8569 60.2592 98.6873 58.9436 96.166 59.0397L94.1174 59.1178L93.3925 69.9745L95.441 69.8965C97.9623 69.8004 99.314 68.3887 99.4961 65.6614L99.6748 62.9865ZM126.538 88.0155C126.457 89.2218 126.702 90.2588 127.273 91.1264C127.848 91.9415 128.765 92.3251 130.026 92.277C131.286 92.229 132.26 91.7734 132.946 90.9102C133.636 89.9946 134.021 88.9336 134.102 87.7273L134.48 82.0629L145.826 81.6305L145.448 87.2949C145.304 89.4453 144.775 91.4795 143.861 93.3977C143 95.3139 141.839 97.006 140.379 98.4742C138.974 99.8878 137.327 101.023 135.436 101.88C133.545 102.737 131.496 103.207 129.29 103.291C127.084 103.375 125.062 103.06 123.223 102.345C121.437 101.629 119.907 100.614 118.632 99.3029C117.414 97.9368 116.5 96.3237 115.891 94.4636C115.281 92.6035 115.048 90.5983 115.192 88.4479L117.02 61.07C117.164 58.9196 117.666 56.8863 118.528 54.9702C119.389 53.054 120.522 51.3891 121.926 49.9754C123.387 48.5073 125.062 47.3448 126.953 46.488C128.897 45.6292 130.971 45.1578 133.178 45.0737C135.384 44.9897 137.38 45.306 139.166 46.0226C140.952 46.7393 142.454 47.7806 143.673 49.1467C144.947 50.4583 145.889 52.0442 146.498 53.9043C147.16 55.7624 147.419 57.7666 147.276 59.917L146.877 65.8961L135.531 66.3284L135.93 60.3494C136.01 59.1431 135.764 58.1323 135.189 57.3172C134.619 56.4496 133.703 56.0398 132.442 56.0878C131.182 56.1359 130.206 56.6177 129.516 57.5334C128.83 58.3966 128.447 59.4313 128.366 60.6376L126.538 88.0155ZM150.695 100.906L154.373 45.8355L176.119 45.0068L175.383 56.0209L164.983 56.4172L164.284 66.8806L173.424 66.5323L172.689 77.5464L163.549 77.8947L162.777 89.4595L174.201 89.0241L173.466 100.038L150.695 100.906Z" fill="white"/>
</g>
<g filter="url(#filter1_d_3014_4129)">
<path d="M222.538 55.8673L220.263 87.9396L223.878 87.8168L221.068 103.224L214.641 103.442L215.161 96.1117L201.963 96.5601L200.64 103.918L194.213 104.137L195.302 88.7876L196.564 88.7448C197.228 88.5318 197.76 88.0185 198.162 87.205C198.604 86.352 198.969 85.235 199.258 83.854C199.585 82.4717 199.854 80.8247 200.066 78.913C200.278 77.0013 200.506 74.8606 200.751 72.4907L202.282 56.5555L222.538 55.8673ZM208.555 72.2256C208.232 75.7027 207.861 78.7815 207.442 81.462C207.023 84.1425 206.419 86.4674 205.63 88.4367L212 88.2203L213.706 64.1661L209.288 64.3162L208.555 72.2256ZM250.186 54.928L247.342 95.0183L239.079 95.2991L241.354 63.2268L237.911 63.3438L237.178 71.2531C236.85 74.8066 236.464 78.0954 236.02 81.1195C235.615 84.1423 235.009 86.772 234.201 89.0086C233.394 91.2453 232.333 93.0144 231.02 94.3159C229.709 95.5793 228.002 96.2468 225.898 96.3182C225.132 96.3442 224.299 96.2583 223.397 96.0604L224.007 87.4696L224.58 87.4501C225.384 87.4228 226.041 87.0386 226.551 86.2976C227.064 85.5184 227.485 84.4376 227.812 83.0553C228.141 81.6348 228.415 79.9305 228.632 77.9425C228.891 75.915 229.149 73.6208 229.407 71.0601L230.905 55.583L250.186 54.928ZM259.082 94.6195L250.36 94.9158L256.817 78.1276C255.663 77.1765 254.813 75.9865 254.265 74.5577C253.718 73.1289 253.509 71.4982 253.639 69.6655L253.915 65.771C254.029 64.1674 254.401 62.6883 255.031 61.3337C255.662 59.9792 256.489 58.8084 257.513 57.8214C258.578 56.7949 259.799 55.9916 261.176 55.4116C262.594 54.7921 264.106 54.455 265.713 54.4004L275.468 54.069L272.624 94.1594L264.361 94.4401L265.393 79.893L264.073 79.9379L259.082 94.6195ZM261.955 69.4401C261.817 71.3873 262.569 72.3521 264.212 72.3344L265.933 72.2759L266.636 62.3678L265.201 62.4166C263.365 62.479 262.377 63.5029 262.236 65.4883L261.955 69.4401ZM304.874 61.0687L299.48 61.252L297.205 93.3242L288.942 93.605L291.786 53.5146L313.706 52.7699L310.862 92.8603L302.599 93.141L304.874 61.0687ZM338.763 69.4016C338.644 71.0815 338.247 72.6376 337.573 74.0698C336.902 75.4639 336.013 76.6939 334.907 77.7598C333.842 78.7864 332.581 79.61 331.125 80.2308C329.669 80.8516 328.119 81.19 326.474 81.2459L325.326 81.2849L324.538 92.3956L316.275 92.6764L319.119 52.586L328.529 52.2663C330.174 52.2104 331.684 52.4447 333.059 52.9694C334.434 53.494 335.582 54.2549 336.504 55.252C337.466 56.2096 338.184 57.385 338.658 58.7782C339.131 60.1714 339.31 61.6889 339.193 63.3307L338.763 69.4016ZM330.93 63.6115C331.001 62.6188 330.772 61.8076 330.244 61.178C329.716 60.5484 328.955 60.2505 327.961 60.2843L326.813 60.3233L325.895 73.2668L327.042 73.2278C328.037 73.194 328.844 72.8428 329.464 72.1742C330.084 71.5057 330.429 70.675 330.5 69.6823L330.93 63.6115ZM358.001 51.265L367.756 50.9335L364.912 91.0239L356.534 91.3085L358.79 67.5785L359.419 64.3576L358.903 64.3751L358.666 66.0972L350.337 91.5191L340.582 91.8505L343.426 51.7602L351.803 51.4755L349.548 75.2056L348.919 78.4265L349.435 78.4089L349.672 76.6869L358.001 51.265ZM392.426 78.6623C392.307 80.3423 391.91 81.8984 391.236 83.3306C390.565 84.7246 389.676 85.9546 388.57 87.0206C387.505 88.0471 386.244 88.8708 384.788 89.4916C383.332 90.1124 381.782 90.4508 380.137 90.5067L370.324 90.84L373.168 50.7497L391.531 50.1258L390.962 58.1439L380.863 58.487L380.521 63.2978L382.071 63.2452C383.716 63.1893 385.226 63.4237 386.6 63.9483C387.975 64.4729 389.123 65.2338 390.045 66.2309C391.007 67.1885 391.725 68.364 392.199 69.7572C392.673 71.1504 392.851 72.6679 392.735 74.3097L392.426 78.6623ZM384.472 74.5904C384.542 73.5977 384.313 72.7866 383.786 72.157C383.258 71.5274 382.497 71.2295 381.502 71.2633L379.953 71.3159L379.156 82.5412L380.706 82.4886C381.7 82.4548 382.508 82.1036 383.127 81.435C383.747 80.7664 384.092 79.9358 384.163 78.9431L384.472 74.5904ZM412.499 49.4134L422.254 49.082L419.41 89.1724L411.032 89.457L413.288 65.7269L413.917 62.506L413.401 62.5236L413.164 64.2456L404.835 89.6675L395.08 89.999L397.924 49.9086L406.301 49.624L404.046 73.3541L403.416 76.5749L403.933 76.5574L404.17 74.8353L412.499 49.4134ZM447.31 65.7137C447.191 67.3937 446.795 68.9497 446.121 70.382C445.449 71.776 444.561 73.006 443.454 74.072C442.389 75.0985 441.129 75.9221 439.673 76.5429C438.217 77.1637 436.666 77.5021 435.021 77.558L433.874 77.597L433.085 88.7077L424.822 88.9885L427.666 48.8981L437.077 48.5784C438.722 48.5225 440.232 48.7569 441.607 49.2815C442.981 49.8061 444.13 50.567 445.051 51.5641C446.014 52.5217 446.732 53.6971 447.205 55.0903C447.679 56.4836 447.857 58.0011 447.741 59.6429L447.31 65.7137ZM439.478 59.9236C439.548 58.9309 439.32 58.1197 438.792 57.4901C438.264 56.8606 437.503 56.5627 436.508 56.5965L435.361 56.6354L434.442 69.5789L435.59 69.5399C436.585 69.5061 437.392 69.1549 438.012 68.4864C438.632 67.8178 438.977 66.9871 439.047 65.9944L439.478 59.9236ZM446.949 88.2367L456.047 47.9339L466.95 47.5634L470.361 87.4413L462.04 87.724L461.762 81.1631L455.978 81.1882L454.695 87.9735L446.949 88.2367ZM457.416 73.8262L461.441 73.5751L460.837 58.6837L461.122 55.4745L460.549 55.494L460.378 58.6993L457.416 73.8262ZM488.712 70.4775L482.973 70.6725L481.811 87.0523L473.548 87.333L476.392 47.2427L484.655 46.9619L483.542 62.6544L489.28 62.4595L490.394 46.767L498.657 46.4862L495.813 86.5766L487.55 86.8573L488.712 70.4775ZM516.381 69.5375L510.643 69.7324L509.481 86.1122L501.218 86.393L504.061 46.3026L512.325 46.0219L511.211 61.7144L516.95 61.5194L518.063 45.8269L526.326 45.5462L523.482 85.6365L515.219 85.9173L516.381 69.5375ZM535.256 85.2365L526.534 85.5328L532.992 68.7446C531.838 67.7935 530.987 66.6035 530.44 65.1747C529.892 63.7459 529.684 62.1152 529.814 60.2825L530.09 56.388C530.204 54.7844 530.576 53.3053 531.206 51.9508C531.836 50.5962 532.664 49.4254 533.688 48.4384C534.753 47.4119 535.974 46.6086 537.351 46.0286C538.768 45.4091 540.281 45.0721 541.887 45.0175L551.642 44.686L548.799 84.7764L540.536 85.0571L541.567 70.5101L540.248 70.5549L535.256 85.2365ZM538.13 60.0571C537.992 62.0043 538.744 62.9691 540.386 62.9514L542.108 62.8929L542.811 52.9848L541.376 53.0336C539.54 53.096 538.551 54.1199 538.41 56.1053L538.13 60.0571Z" fill="white"/>
</g>
<defs>
<filter id="filter0_d_3014_4129" x="25.9106" y="43.3943" width="158.215" height="78.4914" filterUnits="userSpaceOnUse" color-interpolation-filters="sRGB">
<feFlood flood-opacity="0" result="BackgroundImageFix"/>
<feColorMatrix in="SourceAlpha" type="matrix" values="0 0 0 0 0 0 0 0 0 0 0 0 0 0 0 0 0 0 127 0" result="hardAlpha"/>
<feOffset dx="3.20959" dy="11.0043"/>
<feGaussianBlur stdDeviation="1.83405"/>
<feComposite in2="hardAlpha" operator="out"/>
<feColorMatrix type="matrix" values="0 0 0 0 0.995426 0 0 0 0 0.365317 0 0 0 0 0.0815589 0 0 0 1 0"/>
<feBlend mode="normal" in2="BackgroundImageFix" result="effect1_dropShadow_3014_4129"/>
<feBlend mode="normal" in="SourceGraphic" in2="effect1_dropShadow_3014_4129" result="shape"/>
</filter>
<filter id="filter1_d_3014_4129" x="193.965" y="44.686" width="361.387" height="67.3643" filterUnits="userSpaceOnUse" color-interpolation-filters="sRGB">
<feFlood flood-opacity="0" result="BackgroundImageFix"/>
<feColorMatrix in="SourceAlpha" type="matrix" values="0 0 0 0 0 0 0 0 0 0 0 0 0 0 0 0 0 0 127 0" result="hardAlpha"/>
<feOffset dx="1.73114" dy="5.93533"/>
<feGaussianBlur stdDeviation="0.989222"/>
<feComposite in2="hardAlpha" operator="out"/>
<feColorMatrix type="matrix" values="0 0 0 0 0.995426 0 0 0 0 0.365317 0 0 0 0 0.0815589 0 0 0 1 0"/>
<feBlend mode="normal" in2="BackgroundImageFix" result="effect1_dropShadow_3014_4129"/>
<feBlend mode="normal" in="SourceGraphic" in2="effect1_dropShadow_3014_4129" result="shape"/>
</filter>
<linearGradient id="paint0_linear_3014_4129" x1="579.036" y1="20.6691" x2="569.352" y2="53.4147" gradientUnits="userSpaceOnUse">
<stop stop-color="#C95004"/>
<stop offset="1" stop-color="#FF4E03"/>
</linearGradient>
<linearGradient id="paint1_linear_3014_4129" x1="560.628" y1="122.323" x2="362.178" y2="130.934" gradientUnits="userSpaceOnUse">
<stop stop-color="#8D3702"/>
<stop offset="1" stop-color="#903802"/>
</linearGradient>
<linearGradient id="paint2_linear_3014_4129" x1="612.644" y1="29.5404" x2="560.453" y2="123.535" gradientUnits="userSpaceOnUse">
<stop stop-color="#CB5304"/>
<stop offset="1" stop-color="#CA5304"/>
</linearGradient>
</defs>
</svg>
