<svg width="17" height="16" viewBox="0 0 17 16" fill="none" xmlns="http://www.w3.org/2000/svg">
<g clip-path="url(#clip0_3014_4155)">
<path fill-rule="evenodd" clip-rule="evenodd" d="M8.82043 13.7996C8.34158 14.3591 8.40689 15.2008 8.96631 15.6796C9.52574 16.1585 10.3674 16.0932 10.8463 15.5337L15.7455 9.81022C16.7515 8.81549 16.7515 7.18456 15.7455 6.18983L10.8463 0.466314C10.3674 -0.0931076 9.52573 -0.15842 8.96631 0.320435C8.40689 0.799289 8.34158 1.64098 8.82043 2.2004L12.6507 6.67514C12.6013 6.66957 12.551 6.66672 12.5 6.66672L1.83333 6.66672C1.09695 6.66672 0.5 7.26367 0.5 8.00005C0.5 8.73643 1.09695 9.33338 1.83333 9.33338L12.5 9.33338C12.5509 9.33338 12.6012 9.33052 12.6507 9.32496L8.82043 13.7996Z" fill="white"/>
</g>
<defs>
<clipPath id="clip0_3014_4155">
<rect width="16" height="16" fill="white" transform="translate(0.5)"/>
</clipPath>
</defs>
</svg>
