<svg width="183" height="48" viewBox="0 0 183 48" fill="none" xmlns="http://www.w3.org/2000/svg">
<g clip-path="url(#clip0_3014_4139)">
<path d="M183 33.1616H0V47.9993H183V33.1616Z" fill="#FFF000"/>
<path d="M71.3697 9.14485C71.3697 11.5189 70.4364 12.1309 68.1306 12.1309H64.9464V6.36278H68.2404C70.6377 6.36278 71.4429 7.01193 71.4429 9.14485H71.3697ZM79.5132 8.82955C79.5132 3.26541 75.6153 0.483337 68.2953 0.483337H57.1689V25.7445H64.9464V17.4169H68.1855L72.3945 25.7445H81.5445L75.1578 15.9146C76.5288 15.3473 77.6899 14.3586 78.4778 13.0878C79.2656 11.8169 79.6405 10.3276 79.5498 8.82955H79.5132Z" fill="white"/>
<path d="M142.246 19.5127V15.6734H152.384V10.1464H142.246V6.77082H154.507L154.379 0.483337H134.469V25.7445H154.873L155.001 19.5127H142.246Z" fill="white"/>
<path d="M129.784 25.7445V0.483337H122.043V9.81255H113.753V0.483337H105.975V25.7445H113.753V16.2484H122.043V25.7445H129.784Z" fill="white"/>
<path d="M102.37 1.04139C100.194 0.363361 97.931 0.0134033 95.6541 0.00274658C86.0832 0.00274658 81.8193 5.02902 81.8193 12.9857C81.8193 21.6102 86.3394 26.1913 94.977 26.1913C97.5533 26.1983 100.105 25.6811 102.48 24.6704L101.657 18.8652C99.9069 19.5591 98.0453 19.9176 96.1665 19.9224C91.4085 19.9224 90.1824 18.2717 90.1824 13.0414C90.1824 8.0893 91.2987 6.4386 96.0933 6.4386C98.0047 6.43239 99.9077 6.69454 101.748 7.21758L102.37 1.04139Z" fill="white"/>
<path d="M172.862 9.14485C172.862 11.5189 171.929 12.1309 169.641 12.1309H166.384V6.36278H169.678C172.057 6.36278 172.862 7.01193 172.862 9.14485ZM181.006 8.82955C181.006 3.26541 177.126 0.483337 169.806 0.483337H158.606V25.7445H166.384V17.4169H169.605L173.85 25.7445H183L176.614 15.9146C177.986 15.3496 179.149 14.3615 179.937 13.09C180.725 11.8186 181.099 10.3281 181.006 8.82955Z" fill="white"/>
<path d="M42.8956 15.6363H37.1677L39.2722 9.05212L40.0408 6.41842L40.7728 9.05212L42.8956 15.6363ZM54.7357 25.7445L44.6158 0.483337H35.6122L25.7119 25.7445H33.9835L35.3194 21.4972H44.689L45.9883 25.7445H54.7357Z" fill="white"/>
<path d="M32.1715 0.465149H26.3887V5.82527H32.1715V0.465149Z" fill="white"/>
<path d="M53.8755 0.465149H48.0927V5.82527H53.8755V0.465149Z" fill="white"/>
<path d="M16.287 0.483337L10.2663 9.94238H7.7775V0.483337H0V25.7445H7.7775V15.8775H10.1748L16.2138 25.7445H25.6932L17.0922 12.4277L25.2357 0.483337H16.287Z" fill="white"/>
</g>
<defs>
<clipPath id="clip0_3014_4139">
<rect width="183" height="48" fill="white"/>
</clipPath>
</defs>
</svg>
