<svg width="80" height="80" viewBox="0 0 80 80" fill="none" xmlns="http://www.w3.org/2000/svg">
<path d="M47.1274 18.0569C51.96 18.6284 56.7846 19.7097 61.3586 21.7139C62.9792 22.4249 64.5759 23.2271 66.0712 24.1662C66.5963 24.4962 67.0868 25.3574 67.0868 25.9799C67.1401 39.9691 67.1188 53.961 67.1374 67.9502C67.1374 68.9885 66.6896 69.6056 65.8686 70.1073C61.1374 72.9889 55.9556 74.588 50.5553 75.5404C44.39 76.6297 38.19 76.7022 32.0007 75.8222C26.2218 75.0012 20.6776 73.3752 15.5358 70.4937C14.1524 69.7183 13.566 68.7336 13.5713 67.0702C13.6246 53.4351 13.5953 39.8027 13.5713 26.1704C13.5713 25.0891 14.0911 24.4613 14.9601 23.9354C19.8992 20.9546 25.3049 19.3609 30.9371 18.4218C31.8514 18.2689 32.7737 18.1643 33.8079 18.0221C33.6986 17.3728 33.6373 16.7262 33.472 16.1064C32.8989 13.9385 33.2854 11.8511 34.4716 10.0777C35.9216 7.90711 37.6302 5.90022 39.3521 3.93625C39.6693 3.57673 40.8582 3.43721 41.1833 3.7243C44.2034 6.41535 46.9595 9.36398 47.4313 13.6461C47.5886 15.0707 47.2447 16.5491 47.1274 18.0569ZM16.8419 28.7407C16.8179 28.8212 16.7939 28.8614 16.7939 28.9043C16.7806 41.5118 16.7646 54.1193 16.7939 66.7241C16.7939 67.1292 17.1964 67.7141 17.5669 67.9046C19.0596 68.6773 20.579 69.4232 22.1489 70.0134C30.3347 73.0801 38.7924 73.7858 47.418 72.7716C52.821 72.1357 58.0027 70.6976 62.8833 68.2158C63.7815 67.7597 64.1494 67.2499 64.1467 66.1794C64.1014 54.1086 64.1174 42.0377 64.1147 29.9668C64.1147 29.5456 64.0694 29.1244 64.0481 28.7031C48.2736 35.5019 32.6137 35.4563 16.8419 28.7434V28.7407ZM18.5931 25.6257C28.0237 31.9737 55.6651 31.8798 62.1476 25.556C61.6971 25.3333 61.2733 25.1025 60.8308 24.9093C56.3234 22.9507 51.6188 21.8105 46.7383 21.2605C45.3975 21.1102 44.4113 21.5717 43.2411 21.9741C41.3353 22.6288 42.3029 24.0642 42.0363 25.1615C41.9963 25.3252 41.9457 25.4889 41.9084 25.6203H38.8617C38.8617 24.7779 38.9097 24.024 38.8404 23.2808C38.8084 22.9534 38.6138 22.492 38.3552 22.3605C36.9239 21.6173 35.5298 20.7239 33.7519 21.3222C32.9709 21.5851 32.0886 21.5314 31.2597 21.6683C26.9175 22.3819 22.73 23.5947 18.5958 25.6284L18.5931 25.6257ZM40.7595 7.19343C40.565 7.22562 40.3677 7.25782 40.1731 7.2927C39.1975 8.65835 38.1607 9.98644 37.2571 11.4004C36.2628 12.9565 36.2255 14.6871 36.7719 16.4149C37.297 18.0704 38.4086 19.2348 40.1438 19.428C41.5512 19.5836 42.7533 18.8189 43.4997 17.6464C44.4966 16.0796 44.8991 14.239 44.0861 12.5514C43.1798 10.6679 41.8844 8.97495 40.7595 7.19611V7.19343Z" fill="#89897F"/>
</svg>
