<svg width="81" height="80" viewBox="0 0 81 80" fill="none" xmlns="http://www.w3.org/2000/svg">
<g clip-path="url(#clip0_5_20567)">
<path d="M79.9374 40.1234C79.9004 39.8766 79.8263 39.4569 79.7645 39.1977C79.7151 38.9385 79.604 38.5312 79.5299 38.272C79.4681 38.0498 79.3323 37.6425 79.2335 37.3586C79.1347 37.0501 78.9247 36.5687 78.7765 36.2478C78.5913 35.8405 78.3443 35.3715 78.1467 35.0629C77.9738 34.779 77.7268 34.384 77.6033 34.2113C77.4304 33.9521 77.134 33.5818 76.9487 33.3596C76.7388 33.1004 76.4177 32.7548 76.2324 32.5573C76.0595 32.3969 75.7631 32.1253 75.5902 31.9772C75.3803 31.7921 75.0468 31.5329 74.8369 31.3848C74.5775 31.212 74.1946 30.9528 73.9229 30.8047C73.7253 30.6936 73.2807 30.4591 72.9349 30.3109C72.6385 30.1875 72.1939 30.0271 71.9099 29.9283C71.6135 29.8296 71.1812 29.7185 70.9342 29.6691C70.6996 29.6198 70.292 29.558 69.9956 29.521C69.7486 29.4963 69.3534 29.4593 69.1064 29.447C68.81 29.4346 68.353 29.447 68.0319 29.447C67.7108 29.4716 67.1798 29.521 66.7846 29.5827C66.4141 29.6321 65.8707 29.7432 65.5372 29.8296C65.3273 29.879 65.0679 29.953 64.858 30.0147C64.7715 29.6321 64.6357 29.126 64.5369 28.7928C64.4381 28.4719 64.2899 28.0152 64.2034 27.7807C64.0675 27.4104 63.7217 26.7069 63.5735 26.3983C63.4006 26.0527 63.0548 25.3862 62.8449 25.0529C62.709 24.8431 62.4497 24.4482 62.2397 24.1766C62.0545 23.9051 61.721 23.4854 61.4987 23.2262C61.2888 22.9794 60.9306 22.5844 60.696 22.3499C60.4613 22.1154 60.1032 21.7698 59.8685 21.56C59.6462 21.3748 59.2387 21.0416 58.9546 20.8317C58.6829 20.6219 58.2136 20.301 57.8801 20.1035C57.5961 19.9307 57.1268 19.6592 56.8057 19.4864C56.5216 19.3506 56.0523 19.1284 55.793 19.0174C55.4595 18.8692 54.8791 18.6718 54.5209 18.5607C54.1504 18.4496 53.5947 18.2891 53.2365 18.2151C52.9648 18.1534 52.5449 18.0793 52.2855 18.0299C52.0509 17.9929 51.6186 17.9435 51.2852 17.9188C51.0011 17.8942 50.5195 17.8695 50.2478 17.8695C49.9143 17.8695 49.408 17.8695 49.0869 17.8942C48.7287 17.9065 48.1606 17.9682 47.7777 18.0299C47.4072 18.0793 46.8515 18.178 46.518 18.2521C46.2093 18.3262 45.7276 18.4496 45.4683 18.5113C45.1719 18.5977 44.6779 18.7582 44.3444 18.8692C43.9863 18.9927 43.3441 19.2519 42.9118 19.437C42.2572 19.7209 41.862 19.9184 41.2198 20.2763C40.8123 20.5108 40.1948 20.8811 39.8366 21.1033C39.5402 21.3008 39.0339 21.6464 38.7004 21.8809C38.614 21.9426 38.5152 22.029 38.404 22.103C38.0706 21.8562 37.5766 21.5476 37.2431 21.3501C36.9096 21.1526 36.3662 20.8811 36.0081 20.7083C35.6376 20.5355 35.0571 20.3133 34.6743 20.1776C34.2791 20.0418 33.7357 19.8813 33.4146 19.8196C33.1058 19.7456 32.6118 19.6592 32.2784 19.5975C31.982 19.5604 31.525 19.4987 31.2533 19.4864C30.9939 19.4617 30.4876 19.4493 30.1171 19.4493C29.7589 19.4493 29.2279 19.4864 28.8697 19.5234C28.5486 19.5604 28.067 19.6345 27.7953 19.6839C27.5483 19.7456 27.1531 19.8196 26.9308 19.8813C26.7085 19.9431 26.3132 20.0665 26.0539 20.1529C25.7575 20.2516 25.3129 20.4491 25.0041 20.5849C24.6954 20.733 24.2384 20.9552 23.9667 21.1156C23.7568 21.2514 23.3863 21.4859 23.1393 21.671C22.9046 21.8315 22.5465 22.1154 22.3242 22.3252C22.1142 22.498 21.7684 22.8189 21.5461 23.0658C21.3238 23.3003 20.9656 23.7199 20.7063 24.0655C20.4963 24.3494 20.1999 24.7691 20.027 25.0406C19.9035 25.2504 19.6812 25.6454 19.533 25.9416C19.4342 26.1391 19.3107 26.423 19.1872 26.6945C19.1502 26.6945 19.1131 26.6945 19.0761 26.6945C18.755 26.6698 18.2733 26.6452 17.9769 26.6575C17.6188 26.6575 17.1371 26.7069 16.8407 26.7316C16.5567 26.7686 16.1121 26.855 15.8527 26.9044C15.6057 26.9537 15.2105 27.0648 14.9511 27.1389C14.5436 27.2746 14.1854 27.4227 13.5679 27.7313C12.9504 28.0399 12.6046 28.2374 12.2588 28.4842C12.0365 28.6323 11.7401 28.8792 11.5919 29.0026C11.4437 29.1384 11.2091 29.3482 11.1473 29.4099C11.0238 29.521 10.7892 29.7679 10.641 29.9283C10.4434 30.1381 10.184 30.4714 10.0234 30.6689C9.8629 30.9034 9.61589 31.2737 9.45534 31.5576C9.31949 31.8044 9.10954 32.1994 8.98604 32.4833C8.86254 32.7795 8.68963 33.2238 8.60318 33.5201C8.51673 33.8039 8.39323 34.2483 8.34383 34.5322C8.29443 34.7914 8.22033 35.1863 8.19563 35.4579C8.17093 35.6924 8.14623 36.1244 8.13388 36.4329C8.13388 36.7415 8.13388 37.2105 8.15858 37.4697C8.17093 37.7289 8.23268 38.1856 8.26973 38.5065C8.31913 38.7904 8.40558 39.2718 8.46733 39.5557C8.50438 39.6791 8.54143 39.8519 8.59083 40.0247C8.14623 40.2468 7.55343 40.5678 7.23232 40.7529C6.96062 40.9257 6.54072 41.1972 6.28136 41.37C6.00966 41.5552 5.61446 41.8514 5.42921 41.9995C5.1822 42.1723 4.8364 42.4809 4.62645 42.6784C4.4165 42.8635 4.09539 43.1968 3.88544 43.4189C3.70019 43.6287 3.41614 43.962 3.26794 44.1718C3.11973 44.3817 2.88508 44.7149 2.74923 44.9247C2.62573 45.1222 2.44048 45.4678 2.31698 45.7147C2.19348 45.9739 2.03292 46.3688 1.93412 46.6527C1.83532 46.9613 1.72417 47.4056 1.66242 47.7019C1.61302 47.9611 1.56362 48.393 1.55127 48.7016C1.55127 48.9978 1.55127 49.3681 1.55127 49.6273C1.57597 49.8248 1.61302 50.1704 1.66242 50.4296C1.71182 50.6518 1.78592 50.9974 1.86002 51.2566C1.97117 51.6268 2.11937 51.9971 2.42813 52.6019C2.71218 53.1697 2.92213 53.5523 3.18148 53.9226C3.32969 54.1077 3.57669 54.4286 3.76194 54.6385C3.94719 54.8483 4.23124 55.1569 4.37945 55.305C4.54 55.4654 4.8611 55.7493 5.0834 55.9345C5.31805 56.1443 5.70091 56.4158 5.96026 56.601C6.20726 56.7614 6.60247 57.0206 6.84947 57.1687C7.08412 57.3045 7.49167 57.5143 7.75103 57.6378C8.09683 57.8106 8.65259 58.0204 9.06014 58.1562C9.41829 58.2672 9.9617 58.44 10.2952 58.5017C10.5298 58.5511 10.9621 58.6252 11.2338 58.6622C11.5796 58.7116 12.0736 58.7239 12.4194 58.7239C12.7158 58.7239 13.1974 58.6869 13.5185 58.6499C13.8026 58.6128 14.2225 58.5264 14.5189 58.4524C14.6794 58.4153 14.8153 58.366 14.9511 58.3166C15.0746 58.4524 15.2105 58.5881 15.3093 58.6869C15.544 58.9214 15.9639 59.2917 16.285 59.5262C16.6184 59.7854 17.1248 60.1433 17.4582 60.3285C17.7423 60.4889 18.1869 60.7234 18.4956 60.8715C18.8044 61.0073 19.286 61.2048 19.6195 61.3159C19.99 61.4517 20.521 61.5998 20.8421 61.6862C21.1632 61.7602 21.6943 61.8713 22.0401 61.933C22.3612 61.9824 22.8182 62.0441 23.0775 62.0688C23.2998 62.0935 23.7074 62.1182 23.9544 62.1305C24.2261 62.1305 24.7077 62.1305 25.0535 62.1305C25.3623 62.1182 25.881 62.0564 26.2021 62.0441C26.5108 62.0071 26.9555 61.9454 27.1778 61.896C27.4248 61.8466 27.8323 61.7602 28.1164 61.6862C28.3757 61.6121 28.808 61.4763 29.1044 61.3776C29.4255 61.2665 29.9318 61.0567 30.3023 60.8592C30.6358 60.6864 31.1174 60.4272 31.4262 60.2174C31.6114 60.0816 31.8955 59.8841 32.1178 59.7113C32.1178 59.7113 32.1302 59.7113 32.1549 59.7113C32.4266 59.8718 32.8465 60.094 33.1305 60.205C33.4516 60.3532 33.995 60.563 34.4026 60.7111C34.8225 60.8469 35.4029 61.0197 35.724 61.1061C36.0451 61.1925 36.5885 61.3035 36.922 61.3653C37.2678 61.427 37.7989 61.5134 38.1323 61.5504C38.4287 61.5874 38.8486 61.6245 39.108 61.6491C39.355 61.6738 39.7749 61.6985 40.0466 61.7109C40.3306 61.7232 40.874 61.7355 41.2075 61.7109C41.5656 61.7109 42.1461 61.6738 42.5042 61.6491C42.8501 61.6245 43.3811 61.5627 43.7022 61.5134C44.011 61.4763 44.542 61.3776 44.8755 61.3035C45.2213 61.2171 45.7029 61.1061 45.9129 61.0443C46.1599 60.9703 46.6045 60.8345 46.9009 60.7234C47.222 60.6124 47.753 60.3778 48.1606 60.168C48.4447 60.0322 48.9634 59.7484 49.3709 59.4768C49.6179 59.3164 49.9884 59.0325 50.2231 58.835C50.2478 58.8103 50.2725 58.798 50.3095 58.7733C50.5936 58.9831 50.9517 59.1929 51.174 59.3287C51.4704 59.5015 51.878 59.7237 52.125 59.8348C52.4708 59.9952 53.0759 60.2174 53.3847 60.3161C53.7923 60.4519 54.3727 60.6247 54.7432 60.6987C55.0273 60.7605 55.4719 60.8469 55.7189 60.8839C55.9906 60.9209 56.4846 60.9826 56.818 61.0073C57.2009 61.0443 57.7566 61.0567 58.1148 61.0567C58.4853 61.0567 59.0534 61.0197 59.4116 60.995L59.5968 60.9703C59.9056 60.9456 60.2761 60.8962 60.5107 60.8592C60.7577 60.8098 61.2023 60.7234 61.4617 60.6741C61.7457 60.6124 62.178 60.4889 62.4744 60.4025C62.709 60.3285 63.0548 60.205 63.2648 60.1433C63.6353 60.0076 64.2775 59.7113 64.5616 59.5632C64.7098 59.4892 65.4384 59.1189 65.8089 58.872C65.9818 58.7486 66.3276 58.5017 66.5499 58.3289C66.8093 58.1315 67.1798 57.7982 67.4391 57.5514C67.6491 57.3415 67.9455 57.0206 68.1184 56.8108C68.2666 56.638 68.4889 56.3294 68.6371 56.0949C68.7976 55.8604 68.9952 55.5025 69.094 55.305C69.2422 55.0087 69.4275 54.5891 69.5263 54.3176C69.6375 54.009 69.7486 53.6264 69.798 53.3919C69.798 53.3548 69.8227 53.3055 69.8227 53.2684C69.9586 53.2684 70.0821 53.2561 70.1809 53.2561C70.4526 53.2314 70.9219 53.182 71.1936 53.145C71.4776 53.0956 71.9469 53.0092 72.2433 52.9228C72.5397 52.8611 72.9473 52.7377 73.1943 52.6513C73.5154 52.5402 74.0464 52.2934 74.4293 52.1082C74.9727 51.8367 75.3309 51.6268 75.6643 51.3923C75.8866 51.2319 76.2201 50.985 76.393 50.8246C76.5782 50.6764 76.8746 50.3926 77.0599 50.1951C77.2822 49.9853 77.5786 49.6273 77.7762 49.3681C77.9614 49.1336 78.2208 48.7633 78.406 48.4671C78.5419 48.2449 78.7642 47.85 78.8753 47.6031C79.0482 47.2699 79.2582 46.7268 79.394 46.3688C79.5175 45.9862 79.6904 45.4308 79.7769 45.0605C79.851 44.7273 79.9498 44.1718 79.9992 43.7645C80.0362 43.3942 80.098 42.7771 80.098 42.3451C80.098 41.9748 80.098 41.4194 80.0733 41.0985C80.0486 40.7899 79.9869 40.3209 79.9622 40.0987M75.9484 41.3947C75.9607 41.6169 75.9731 42.0242 75.9731 42.3204C75.9731 42.5426 75.9484 43.0116 75.899 43.2708C75.8619 43.567 75.7878 43.9743 75.7508 44.1471C75.7014 44.3446 75.5902 44.7519 75.4914 45.0235C75.3926 45.3074 75.2444 45.653 75.1827 45.7764C75.0962 45.9492 74.9604 46.2084 74.8863 46.3318C74.7998 46.4676 74.6269 46.7021 74.5034 46.8625C74.3922 47.0107 74.1946 47.2328 74.1082 47.3192C73.997 47.4303 73.8118 47.6031 73.713 47.7019C73.6018 47.7883 73.4166 47.9364 73.256 48.0598C73.1449 48.1462 72.9596 48.2449 72.5768 48.4424C72.2557 48.6029 71.9346 48.7386 71.8975 48.751C71.7493 48.8004 71.4653 48.8868 71.2306 48.9361C71.033 48.9978 70.7366 49.0472 70.5637 49.0719C70.3908 49.1089 70.0944 49.1336 69.9215 49.146C69.7363 49.146 69.3781 49.1706 69.1064 49.1706C68.8594 49.1706 68.5259 49.1706 68.1184 49.1336L65.8954 48.9732V51.5034C65.8954 51.6145 65.8707 51.812 65.846 51.9724C65.8336 52.1206 65.7966 52.3427 65.7719 52.4538C65.7348 52.5772 65.6731 52.7871 65.6237 52.9475C65.5619 53.0956 65.4631 53.3178 65.4014 53.4412C65.352 53.5523 65.2408 53.7374 65.1667 53.8485C65.0926 53.972 64.9691 54.1448 64.895 54.2312C64.8209 54.3299 64.6357 54.515 64.5122 54.6508C64.3763 54.7866 64.1293 54.9964 64.0058 55.0951C63.8452 55.2186 63.6106 55.3914 63.5118 55.4654C63.4377 55.5148 63.1289 55.6876 62.7214 55.8851C62.3509 56.0702 61.9927 56.2307 61.9063 56.2677C61.7334 56.3171 61.437 56.4282 61.2641 56.4775C61.0912 56.5269 60.7824 56.6133 60.5725 56.6627C60.3625 56.712 60.0167 56.7861 59.8562 56.8108C59.6586 56.8355 59.2881 56.8725 59.0411 56.8972C58.8064 56.9219 58.3741 56.9342 58.0777 56.9342C57.8184 56.9342 57.3861 56.9219 57.1515 56.9095C56.9045 56.8972 56.5463 56.8478 56.3364 56.8231C56.1388 56.7861 55.8177 56.7367 55.6077 56.6997C55.4842 56.6627 55.052 56.5516 54.6938 56.4405C54.3233 56.3171 53.9775 56.1813 53.8911 56.1443C53.7429 56.0702 53.4588 55.9221 53.2489 55.7987C53.076 55.6999 52.7672 55.5025 52.619 55.3914C52.4337 55.2556 52.2114 55.0705 52.125 54.9841C52.0385 54.91 51.9274 54.7989 51.8656 54.7372L51.3099 53.6634L49.8649 53.8609C48.951 53.9843 48.5188 54.6014 48.2471 54.9964C48.173 55.0951 48.0248 55.2803 47.926 55.3914C47.8272 55.4901 47.6666 55.6506 47.5184 55.774C47.4443 55.8357 47.222 56.0085 47.0614 56.1196C46.9503 56.1936 46.6662 56.3541 46.3204 56.5392C46.024 56.675 45.6412 56.8478 45.4806 56.9095C45.2954 56.9836 45.0113 57.07 44.8014 57.1317C44.6285 57.1811 44.2703 57.2675 44.0233 57.3168C43.764 57.3786 43.3441 57.4526 43.1218 57.4773C42.8748 57.5143 42.4548 57.5514 42.1955 57.576C41.9114 57.6007 41.4668 57.6254 41.1457 57.6254C40.8617 57.6254 40.4665 57.6254 40.2442 57.6254C40.0095 57.6131 39.6514 57.5884 39.4661 57.576C39.2562 57.5514 38.861 57.5143 38.6263 57.4896C38.3793 57.4526 37.9594 57.3909 37.663 57.3292C37.4037 57.2798 36.9714 57.1934 36.7367 57.1317C36.5021 57.07 36.0451 56.9466 35.724 56.8355C35.4276 56.7367 35.0077 56.5763 34.8348 56.4899C34.6125 56.3911 34.3408 56.243 34.242 56.1813C34.1185 56.1196 33.9086 55.9715 33.7974 55.8851C33.6863 55.7987 33.5628 55.6999 33.501 55.6506C33.3034 55.4654 33.1058 55.2926 32.8218 55.1569C32.0437 54.7866 30.9322 54.8606 30.1171 55.9221C30.0677 55.9838 29.9689 56.0949 29.9195 56.1566C29.8454 56.243 29.6972 56.3788 29.586 56.4775C29.4625 56.5763 29.2649 56.7367 29.1414 56.8231C29.055 56.8725 28.7462 57.0576 28.4745 57.1934C28.2275 57.3168 27.8817 57.465 27.7459 57.5143C27.5606 57.576 27.2519 57.6748 27.1037 57.7118C26.9184 57.7612 26.622 57.8352 26.412 57.8599C26.2391 57.8969 25.918 57.9463 25.7451 57.9587C25.5228 57.9834 25.1523 58.0204 24.9424 58.0204C24.7077 58.0204 24.3619 58.0204 24.152 58.0204C23.942 58.0204 23.6333 57.9833 23.4851 57.9833C23.3122 57.971 22.954 57.9093 22.7194 57.8846C22.4847 57.8476 22.0895 57.7612 21.8302 57.6995C21.6202 57.6501 21.2374 57.539 21.0027 57.4526C20.7557 57.3662 20.4099 57.2304 20.237 57.1564C20.0394 57.0576 19.7183 56.8972 19.5207 56.7738C19.3848 56.6874 19.0267 56.4652 18.8167 56.2924C18.5944 56.1073 18.3227 55.8727 18.2486 55.7987C18.1375 55.6876 17.9893 55.5271 17.9028 55.4037C17.8411 55.3297 17.7423 55.2062 17.6682 55.0951C17.5941 54.9841 17.5076 54.8606 17.4212 54.7125L16.4579 53.0463L14.0743 54.2065C13.6173 54.441 13.5679 54.4533 13.4938 54.4657C13.3703 54.5027 13.1357 54.5521 12.9875 54.5644C12.8763 54.5768 12.5799 54.6014 12.407 54.6014C12.1971 54.6014 11.8883 54.5768 11.7525 54.5644C11.5672 54.5521 11.2832 54.5027 11.135 54.4657C11.0485 54.441 10.7027 54.3546 10.3816 54.2435C10.0481 54.1324 9.66529 53.9843 9.55414 53.9226C9.35654 53.8362 9.06014 53.6757 8.91194 53.5893C8.75139 53.4906 8.46733 53.3178 8.29443 53.1944C8.13388 53.0833 7.88688 52.8981 7.75103 52.7747C7.60283 52.6513 7.40522 52.4661 7.26937 52.3427C7.15822 52.244 6.99767 52.0588 6.88652 51.9354C6.77537 51.7996 6.59012 51.5775 6.50366 51.454C6.44191 51.3553 6.33076 51.1578 6.12081 50.7505C5.88616 50.2938 5.83676 50.1457 5.82441 50.1334C5.78736 50.0099 5.73796 49.7878 5.71326 49.689C5.68856 49.5533 5.66386 49.3558 5.66386 49.2941C5.66386 49.1953 5.66386 49.0102 5.66386 48.8621C5.66386 48.7757 5.68856 48.5535 5.71326 48.4301C5.73796 48.3313 5.79971 48.0845 5.83676 47.9611C5.88616 47.8129 5.98496 47.5784 6.02201 47.492C6.08376 47.3563 6.19491 47.1711 6.24431 47.0847C6.31841 46.9613 6.45427 46.7761 6.54072 46.6527C6.63952 46.5293 6.81242 46.3195 6.89887 46.2084C7.02237 46.0726 7.24467 45.8628 7.40522 45.7147C7.54107 45.5912 7.76338 45.3938 7.93628 45.258C8.09683 45.1346 8.38088 44.9247 8.57848 44.789C8.78844 44.6409 9.13424 44.4187 9.33184 44.3076C9.51709 44.1965 10.0481 43.9126 10.5175 43.6781C10.9868 43.4436 11.4684 43.2214 11.8883 43.0486L13.7285 42.2957L12.8887 40.0247C12.8146 39.8395 12.7158 39.531 12.654 39.3458C12.5923 39.1483 12.5182 38.8521 12.4688 38.6299C12.4194 38.4448 12.37 38.1239 12.3329 37.9511C12.3082 37.7289 12.2588 37.3957 12.2465 37.2105C12.2465 37.0377 12.2465 36.7415 12.2465 36.5687C12.2465 36.3589 12.2712 36.0627 12.2835 35.9392C12.2959 35.7911 12.3329 35.5443 12.3823 35.3591C12.407 35.2234 12.4811 34.9518 12.5429 34.7667C12.5923 34.5939 12.7034 34.31 12.7652 34.1742C12.8393 34.0261 12.9628 33.7669 13.0369 33.6435C13.111 33.4954 13.2592 33.2732 13.358 33.1498C13.4444 33.0263 13.5926 32.8412 13.7161 32.7054C13.8026 32.6067 13.9261 32.4833 14.0372 32.3845C14.099 32.3228 14.2225 32.2241 14.2966 32.15C14.3954 32.076 14.5683 31.9402 14.6918 31.8538C14.8153 31.755 14.9758 31.6563 15.4451 31.4341C15.9021 31.1996 16.075 31.1379 16.1985 31.0885C16.3714 31.0392 16.6431 30.9651 16.8037 30.9281C16.9519 30.8911 17.2236 30.8417 17.3965 30.8293C17.557 30.8047 17.8781 30.78 18.0634 30.78C18.2733 30.78 18.5697 30.7923 18.7056 30.8047C18.8661 30.8293 19.1378 30.8664 19.3107 30.8911C19.496 30.9281 19.743 30.9775 20.0517 31.0639L22.0525 31.6069L22.707 29.2124C22.7317 29.1137 22.8305 28.8051 22.9293 28.5459C23.0281 28.3114 23.1763 27.9535 23.2628 27.7807C23.3616 27.5832 23.5098 27.3117 23.5839 27.1882C23.6703 27.0525 23.8803 26.7562 24.0285 26.5464C24.2014 26.3366 24.4484 26.028 24.5472 25.9293C24.683 25.7935 24.9053 25.5713 25.0659 25.4479C25.1894 25.3368 25.424 25.1517 25.5722 25.0529C25.7328 24.9419 25.9798 24.7691 26.1403 24.6827C26.2268 24.6333 26.5232 24.4728 26.7702 24.3618C26.9802 24.263 27.2889 24.1396 27.4495 24.0779C27.6224 24.0162 27.8941 23.9298 28.0423 23.8927C28.2028 23.8434 28.4745 23.794 28.6351 23.757C28.8203 23.7199 29.1414 23.6706 29.3514 23.6582C29.5737 23.6335 29.9689 23.6088 30.1912 23.6088C30.4382 23.6088 30.7963 23.6088 30.9692 23.6335C31.1668 23.6459 31.5003 23.6829 31.6855 23.7199C31.9079 23.757 32.266 23.8187 32.5007 23.8804C32.6736 23.9174 33.0935 24.0408 33.3899 24.1396C33.6369 24.226 34.0691 24.3864 34.3038 24.4975C34.5384 24.6086 34.9583 24.8308 35.193 24.9665C35.4276 25.1023 35.8105 25.3615 36.0328 25.5096C36.2674 25.6824 36.5638 25.9169 36.7244 26.065C37.9718 27.1265 38.9474 26.9044 39.5896 26.4847C39.7008 26.4106 39.8119 26.3242 40.2565 25.9786C40.4912 25.7935 40.8987 25.4849 41.1457 25.2998C41.4174 25.1023 41.862 24.7937 42.1337 24.6209C42.3931 24.4482 42.9118 24.1396 43.2823 23.9421C43.801 23.6582 44.0851 23.5101 44.6038 23.2879C44.9866 23.1275 45.5177 22.9053 45.74 22.8313C45.987 22.7449 46.3698 22.6214 46.6045 22.5597C46.8268 22.498 47.2096 22.3993 47.4566 22.3499C47.6913 22.3005 48.0989 22.2265 48.3829 22.1894C48.6546 22.1524 49.0992 22.103 49.3709 22.0907C49.6056 22.066 49.9884 22.066 50.186 22.066C50.4083 22.066 50.7665 22.0907 50.9641 22.103C51.1864 22.1277 51.5198 22.1647 51.6804 22.1894C51.878 22.2141 52.2114 22.2758 52.4337 22.3252C52.5943 22.3622 53.0018 22.4733 53.3353 22.5721C53.6317 22.6708 54.0516 22.8189 54.2245 22.893C54.4345 22.9794 54.7926 23.1398 54.9902 23.2509C55.2002 23.3496 55.546 23.5595 55.7559 23.6952C55.9782 23.831 56.3364 24.0779 56.534 24.226C56.7439 24.3864 57.065 24.6333 57.2132 24.7567C57.3738 24.9048 57.6455 25.1517 57.806 25.3121C57.9789 25.4973 58.2506 25.7812 58.3988 25.9663C58.5594 26.1638 58.8188 26.4847 58.967 26.6945C59.1152 26.9044 59.3251 27.2129 59.4363 27.3734C59.4857 27.4598 59.7203 27.8671 59.9426 28.3114C60.1773 28.7681 60.3625 29.1878 60.3996 29.2865C60.4613 29.4716 60.5848 29.8419 60.6713 30.0888C60.7454 30.3356 60.8565 30.7553 60.9183 31.0145C60.98 31.286 61.0541 31.7057 61.0788 31.9278C61.1159 32.1747 61.1406 32.4956 61.1529 32.6561V32.8782L61.1776 32.977V34.0508L62.1162 34.6679C63.1042 35.3098 64.0429 34.8901 64.5863 34.6309C64.8333 34.5198 65.1914 34.384 65.3273 34.3223C65.5002 34.2606 65.7842 34.1619 65.9695 34.1002C66.13 34.0508 66.4388 33.9644 66.6734 33.9027C66.8463 33.8533 67.2415 33.7793 67.5009 33.7299C67.7602 33.6929 68.1431 33.6558 68.353 33.6435C68.563 33.6435 68.847 33.6435 69.0076 33.6435C69.1805 33.6435 69.4645 33.6805 69.5881 33.6929C69.7486 33.7175 69.9956 33.7546 70.1438 33.7793C70.292 33.8163 70.5637 33.8903 70.749 33.9397C70.9342 34.0014 71.2183 34.1125 71.3788 34.1866C71.5394 34.2606 71.8234 34.4087 71.9716 34.4828C72.1322 34.5692 72.3668 34.7296 72.5274 34.8284C72.6509 34.9148 72.8485 35.0752 72.9967 35.1987C73.1325 35.3221 73.3301 35.4949 73.4166 35.5813C73.5277 35.6924 73.7253 35.9145 73.8859 36.0997C74.0217 36.2601 74.207 36.4947 74.3181 36.6428C74.4169 36.7785 74.5898 37.0501 74.7133 37.2722C74.8245 37.445 74.9974 37.7906 75.1086 38.0375C75.2197 38.2844 75.3679 38.6423 75.4297 38.8151C75.4914 39.0126 75.6026 39.3211 75.652 39.5063C75.7014 39.6667 75.7755 39.9506 75.8002 40.1111C75.8372 40.2962 75.899 40.5924 75.9237 40.8146C75.9607 40.9874 75.9854 41.3083 75.9978 41.5058" fill="#89897F"/>
<path fill-rule="evenodd" clip-rule="evenodd" d="M58.3742 46.3565C58.3742 46.3565 58.3742 46.554 58.473 46.8379C58.5347 47.0724 58.5841 47.2575 58.5718 47.2575C58.5471 47.2575 58.3865 47.1341 58.1889 46.9983C57.8678 46.7638 57.8308 46.7391 57.7567 46.7762C57.7073 46.8009 57.6702 46.8379 57.6702 46.8749C57.6702 46.8996 57.7937 47.0971 57.9296 47.3192C58.0778 47.5414 58.1889 47.7266 58.1889 47.7389C58.1889 47.7512 57.979 47.6895 57.7196 47.6031C57.4109 47.5044 57.238 47.455 57.1886 47.4797C57.1515 47.5044 57.1145 47.5538 57.1145 47.5908C57.1145 47.6525 57.1886 47.7266 57.4726 47.9487C57.6702 48.0968 57.8184 48.2326 57.8061 48.2326C57.7937 48.2326 57.5838 48.245 57.3368 48.2326H56.8922C56.8428 48.4054 56.8551 48.4424 56.8922 48.4795C56.9169 48.5042 57.1392 48.5905 57.3615 48.6769C57.5838 48.7633 57.7814 48.8374 57.7814 48.8497C57.7814 48.8621 57.5838 48.9361 57.3368 49.0102C57.0898 49.0966 56.8675 49.1707 56.8428 49.1953C56.8181 49.22 56.8057 49.2694 56.8181 49.3188C56.8181 49.3805 56.8551 49.4052 56.9416 49.4175C57.0033 49.4299 57.2133 49.4422 57.4109 49.4422C57.6085 49.4422 57.769 49.4545 57.769 49.4669C57.769 49.4669 57.6208 49.5903 57.4356 49.7137C57.2503 49.8372 57.0774 49.9729 57.0651 49.9976C57.0404 50.0347 57.0404 50.084 57.0527 50.1087C57.0651 50.1334 57.1021 50.1704 57.1268 50.1828C57.1515 50.1951 57.3862 50.1581 57.6455 50.084C57.9049 50.0223 58.1272 49.9606 58.1272 49.9729C58.1272 49.9729 58.0037 50.1704 57.8555 50.3802C57.6085 50.7258 57.5838 50.7876 57.6085 50.8616C57.6332 50.9233 57.6702 50.948 57.7073 50.948C57.7443 50.948 57.9172 50.8369 58.1025 50.7135C58.2877 50.5901 58.4483 50.4913 58.4606 50.4913C58.473 50.4913 58.4236 50.6888 58.3371 50.911C58.226 51.2442 58.2013 51.343 58.2507 51.3924C58.2877 51.4417 58.3248 51.4541 58.3865 51.4417C58.4359 51.4294 58.5965 51.2566 58.757 51.0468C58.9176 50.8493 59.0534 50.6888 59.0534 50.6888C59.0534 50.6888 59.0658 50.911 59.0658 51.1949C59.0658 51.6022 59.0782 51.7009 59.1276 51.7256C59.1646 51.7379 59.2263 51.7503 59.2634 51.7256C59.3128 51.7009 59.3746 51.5775 59.4734 51.2813C59.5969 50.911 59.6216 50.874 59.6586 50.948C59.6833 50.9974 59.7451 51.1825 59.7945 51.3677C59.8562 51.5775 59.918 51.7256 59.9427 51.7503C59.9797 51.775 60.0291 51.775 60.0785 51.7503C60.1526 51.7009 60.165 51.6392 60.1773 51.1949C60.1897 50.7999 60.2144 50.7012 60.2514 50.7505C60.2761 50.7752 60.412 50.9604 60.5478 51.1455C60.6837 51.3306 60.8195 51.5034 60.8566 51.5158C60.8936 51.5158 60.943 51.5158 60.9677 51.5158C60.9924 51.5034 61.0171 51.4541 61.0171 51.4047C61.0171 51.3553 60.9801 51.1455 60.9183 50.948C60.8566 50.7505 60.8195 50.5777 60.8319 50.5654C60.8442 50.5654 61.0048 50.6641 61.19 50.8122C61.4617 51.0221 61.5358 51.0591 61.5976 51.0344C61.647 51.0221 61.684 50.985 61.6964 50.948C61.6964 50.8986 61.6346 50.7752 61.4988 50.5654C61.3876 50.3926 61.2765 50.2074 61.2518 50.1581C61.2147 50.0717 61.2518 50.084 61.684 50.2074C62.0051 50.3062 62.1657 50.3309 62.2027 50.3062C62.2274 50.2815 62.2645 50.2321 62.2645 50.1951C62.2645 50.1457 62.2027 50.0717 61.931 49.8495C61.7458 49.7014 61.5976 49.5656 61.5976 49.5656C61.5976 49.5656 61.8075 49.5533 62.0422 49.5656C62.4003 49.5656 62.4868 49.5656 62.5115 49.5163C62.5362 49.4792 62.5362 49.4175 62.5238 49.3928C62.5115 49.3558 62.3386 49.2694 62.0422 49.146C61.7828 49.0472 61.5729 48.9608 61.5852 48.9485C61.5852 48.9485 61.7952 48.8621 62.0545 48.7757C62.425 48.6523 62.5238 48.6152 62.5485 48.5659C62.5609 48.5288 62.5609 48.4671 62.5485 48.4301C62.5238 48.3684 62.425 48.356 62.0545 48.3437C61.8075 48.3437 61.5976 48.3314 61.5976 48.319C61.5976 48.319 61.7581 48.1956 61.9434 48.0598C62.1286 47.924 62.3015 47.7883 62.3139 47.7636C62.3262 47.7389 62.3139 47.6772 62.3015 47.6402C62.2768 47.5908 62.2274 47.5784 62.178 47.5784C62.1286 47.5784 61.9063 47.6402 61.6717 47.7019C61.437 47.7636 61.2518 47.813 61.2394 47.8006C61.2394 47.8006 61.3629 47.6031 61.5358 47.381C61.7458 47.0971 61.8322 46.9613 61.8075 46.9119C61.8075 46.8749 61.7581 46.8379 61.7087 46.8255C61.647 46.8132 61.5976 46.8255 61.2888 47.0354C61.1036 47.1711 60.9307 47.2575 60.9183 47.2575C60.906 47.2575 60.943 47.0847 61.0171 46.8873C61.0912 46.6898 61.153 46.4923 61.153 46.4553C61.153 46.4059 61.1283 46.3689 61.0912 46.3318C61.0542 46.3071 61.0048 46.2948 60.9677 46.3195C60.9307 46.3318 60.7825 46.5046 60.6219 46.7021C60.4614 46.8996 60.3255 47.0477 60.3132 47.0354C60.3008 47.0354 60.2885 46.8009 60.2885 46.5417C60.2885 46.159 60.2885 46.0603 60.2267 46.0233C60.1897 45.9986 60.1279 45.9986 60.0909 46.0233C60.0415 46.0479 59.9674 46.2084 59.8809 46.4553C59.7945 46.6774 59.7327 46.8626 59.7204 46.8626C59.7204 46.8626 59.6463 46.6774 59.5722 46.4429C59.4734 46.1097 59.4363 46.0233 59.3869 45.9986C59.3499 45.9862 59.3005 45.9862 59.2758 45.9986C59.2511 46.0109 59.214 46.0603 59.2016 46.0973C59.2016 46.1467 59.1646 46.3689 59.1646 46.6034C59.1646 46.8379 59.1399 47.0354 59.1276 47.0477C59.1276 47.0477 58.9793 46.8749 58.8311 46.6651C58.6706 46.4429 58.5224 46.2578 58.4853 46.2454C58.4483 46.2454 58.4112 46.2331 58.3989 46.2454C58.3865 46.2454 58.3495 46.2948 58.3371 46.3318" fill="#FF671F"/>
<path fill-rule="evenodd" clip-rule="evenodd" d="M64.7221 37.6919C64.6604 37.7413 64.5492 37.8524 64.4751 37.9388C64.401 38.0252 64.2775 38.1856 64.2034 38.309C64.1293 38.4325 64.0305 38.667 63.9811 38.8398C63.9194 39.0496 63.8823 39.2594 63.8947 39.4693C63.8947 39.6421 63.9317 39.8889 63.9564 40.0247C63.9935 40.1605 64.0676 40.3703 64.1293 40.4937C64.1911 40.6171 64.2899 40.7899 64.364 40.8887C64.4381 40.9874 64.5739 41.1479 64.6727 41.2466C64.7715 41.3454 64.9938 41.5305 65.1544 41.6539C65.3149 41.7774 65.4508 41.8884 65.4508 41.9131C65.4508 41.9255 65.4137 41.9748 65.3643 42.0242C65.3149 42.0736 65.2285 42.1106 65.1544 42.1229C65.0926 42.1353 64.9815 42.1476 64.9197 42.1353C64.858 42.1353 64.5616 42.0242 64.2528 41.9131C63.8576 41.765 63.66 41.7033 63.5736 41.7156C63.4995 41.7156 63.413 41.765 63.376 41.7897C63.3389 41.8267 63.0425 42.3081 62.709 42.8882C62.2768 43.6411 62.1162 43.9497 62.1162 44.0361C62.1162 44.0978 62.1409 44.1965 62.1656 44.2459C62.1903 44.2953 62.2397 44.3693 62.2891 44.394C62.3262 44.431 62.7461 44.6038 63.2031 44.7766C63.6724 44.9618 64.0923 45.1222 64.1417 45.1222C64.1911 45.1222 64.3022 45.1222 64.3763 45.0852C64.4751 45.0605 64.5492 45.0111 64.6233 44.9124C64.6851 44.8384 65.0556 44.2336 65.4508 43.5794C65.846 42.9252 66.1918 42.3575 66.2165 42.3204C66.2535 42.2587 66.2782 42.2587 66.3647 42.3081L66.4635 42.3575C66.3523 42.629 66.2041 42.9993 66.0559 43.3572C65.9201 43.7152 65.6607 44.2829 65.5002 44.6409C65.2532 45.1716 65.2161 45.295 65.2285 45.4061C65.2532 45.4925 65.2902 45.5542 65.352 45.6036C65.4014 45.653 65.8707 45.8505 66.3894 46.0603C67.1674 46.3688 67.3527 46.4306 67.4638 46.4059C67.575 46.3812 67.612 46.3565 67.6861 46.2824C67.7355 46.2207 67.9825 45.653 68.2419 44.9988C68.5013 44.3446 68.8471 43.4313 69.0323 42.9623C69.2052 42.4932 69.551 41.4811 69.798 40.7282C70.045 39.963 70.2797 39.2348 70.3044 39.0866C70.3414 38.9509 70.3538 38.7904 70.3414 38.7287C70.3414 38.6793 70.292 38.5929 70.255 38.5559C70.2056 38.4942 69.7733 38.309 68.8347 37.9264C68.0937 37.6302 67.365 37.3587 67.2292 37.3216C67.0933 37.2969 66.8957 37.2599 66.7969 37.2352C66.6981 37.2229 66.4882 37.2105 66.3276 37.2105C66.1794 37.2105 65.9324 37.2352 65.7966 37.2476C65.6237 37.2723 65.4384 37.334 65.1914 37.4451C65.0062 37.5315 64.7962 37.6549 64.7345 37.6919M43.6899 43.6781C43.3935 44.0114 43.1341 44.32 43.1094 44.357C43.0847 44.4064 43.06 44.4928 43.0724 44.5668C43.0724 44.6409 43.1094 44.7396 43.1465 44.789C43.1835 44.8507 43.5293 45.1469 43.9122 45.4678C44.295 45.7887 44.5914 46.0603 44.5791 46.085C44.5791 46.1097 43.7022 47.0477 42.6525 48.1956C41.6027 49.3434 40.7135 50.3062 40.6888 50.3556C40.6641 50.4049 40.6394 50.479 40.6394 50.5407C40.6394 50.5901 40.6641 50.6765 40.6888 50.7382C40.7135 50.7875 41.0223 51.0838 41.3804 51.4047C41.9362 51.886 42.0473 51.9724 42.1461 51.9848C42.2202 51.9848 42.319 51.9724 42.3684 51.9478C42.4302 51.9231 42.8871 51.417 43.5293 50.6641C44.1098 49.9853 44.9496 48.9979 45.4065 48.4795C45.8511 47.9611 46.2217 47.5291 46.2464 47.5167C46.2587 47.5167 46.6045 47.7883 47.0121 48.1215C47.4196 48.4671 47.8025 48.7633 47.8519 48.7757C47.9013 48.788 48.0001 48.788 48.0742 48.7757C48.173 48.751 48.2594 48.6646 48.667 48.2079C48.9387 47.9117 49.161 47.6278 49.1857 47.5661C49.2104 47.5044 49.2104 47.418 49.2104 47.3563C49.2104 47.2699 49.161 47.2205 49.0498 47.0971C48.9634 47.023 48.0989 46.2084 47.1109 45.295C46.1228 44.3817 45.1966 43.5177 45.036 43.3696C44.8755 43.2215 44.6902 43.0733 44.6285 43.0487C44.542 43.0116 44.4556 43.0116 44.3691 43.0487C44.258 43.0857 44.1468 43.1968 43.7022 43.6905M47.3702 41.5182C47.3702 41.5182 47.2961 41.6416 47.2838 41.7033C47.2467 41.8267 47.2591 41.8267 47.7778 42.9623C48.0742 43.5794 48.5558 44.5668 48.8522 45.1346C49.1486 45.7023 49.5562 46.4676 49.7538 46.8008C49.9514 47.1464 50.2848 47.7265 50.4948 48.0968C50.7171 48.4671 50.9147 48.788 50.9517 48.8127C50.9888 48.8374 51.0629 48.8744 51.1246 48.8991C51.174 48.9238 51.2605 48.9361 51.3099 48.9361C51.3593 48.9361 52.0139 48.6276 52.7672 48.2449C53.9158 47.6772 54.1875 47.5291 54.3851 47.381C54.5209 47.2822 54.7185 47.0971 54.8297 46.9736C54.9408 46.8502 55.1014 46.6527 55.1755 46.5293C55.2619 46.4059 55.3607 46.1837 55.4225 46.0356C55.4842 45.8875 55.546 45.653 55.5583 45.5049C55.583 45.3567 55.5707 45.1099 55.5583 44.9494C55.5213 44.7149 55.4842 44.5915 55.3607 44.32C55.2743 44.1348 55.1384 43.925 55.0643 43.8386C54.9902 43.7522 54.8173 43.5917 54.6691 43.4806C54.4592 43.3202 54.3357 43.2461 54.0022 43.1474C53.7799 43.0733 53.4835 43.0116 53.3353 42.9993C53.1871 42.9993 52.9401 42.9993 52.7672 43.0116C52.6067 43.024 52.3226 43.0733 52.1497 43.1227C51.9768 43.1721 51.6928 43.2708 51.5198 43.3449C51.3469 43.4189 51.1493 43.5053 51.0752 43.5177L50.9517 43.5547C50.3342 42.2464 50.0502 41.6046 49.9267 41.296C49.7414 40.8516 49.6673 40.7035 49.6056 40.6542C49.5562 40.6171 49.4697 40.5801 49.3956 40.5678C49.2968 40.5678 49.1486 40.6171 48.3335 41.0121C47.8148 41.259 47.3579 41.4935 47.3332 41.5182M57.028 36.544C56.8921 36.6551 56.6822 36.8403 56.5587 36.9513C56.4352 37.0624 56.2252 37.3216 56.0647 37.5315C55.9041 37.7289 55.6695 38.0869 55.546 38.2967C55.4225 38.5189 55.2496 38.8892 55.1755 39.1113C55.1014 39.3335 55.0026 39.6421 54.9779 39.8025C54.9532 39.963 54.9285 40.2345 54.9161 40.4197C54.9161 40.6048 54.9285 40.8887 54.9532 41.0491C54.9779 41.2096 55.0396 41.4688 55.1014 41.6416C55.1631 41.8144 55.2866 42.0736 55.3854 42.2711C55.4842 42.4439 55.6695 42.7031 55.793 42.8512C55.9165 42.9993 56.1264 43.1968 56.2376 43.3202C56.3611 43.4313 56.5834 43.6041 56.7192 43.7028C56.8551 43.8016 57.1268 43.962 57.3244 44.0731C57.5097 44.1718 57.8555 44.32 58.0778 44.4064C58.3248 44.4928 58.5841 44.5545 58.7076 44.5668C58.8558 44.5668 58.967 44.5545 59.0658 44.5051C59.1522 44.4681 59.251 44.3693 59.3128 44.2829C59.3745 44.2089 59.5721 43.9003 59.7697 43.6164C59.955 43.3325 60.1402 43.0487 60.1649 42.9869C60.1896 42.9252 60.202 42.8265 60.202 42.7648C60.202 42.7031 60.1773 42.6043 60.1526 42.5549C60.1279 42.5056 60.0661 42.4439 60.0044 42.3945C59.955 42.3575 59.7697 42.2957 59.6215 42.2711C59.4733 42.2464 59.214 42.1723 59.0658 42.1229C58.9176 42.0612 58.7323 41.9748 58.6459 41.9255C58.5594 41.8761 58.4483 41.7774 58.3865 41.7033C58.3248 41.6292 58.2383 41.4935 58.1766 41.37C58.1148 41.2466 58.0654 41.0738 58.0531 40.938C58.0284 40.8146 58.0284 40.6295 58.0531 40.5307C58.0531 40.432 58.1148 40.2222 58.1642 40.0741C58.2136 39.9259 58.3001 39.7408 58.3495 39.6421C58.3989 39.5433 58.51 39.3952 58.5841 39.2841C58.6706 39.173 58.8064 39.0249 58.8929 38.9509C58.9793 38.8768 59.1152 38.7781 59.1893 38.741C59.2634 38.704 59.3992 38.6546 59.461 38.6423C59.5351 38.63 59.6709 38.6423 59.7574 38.667C59.8562 38.704 59.9673 38.7657 60.0167 38.8398C60.0908 38.9262 60.1155 38.9879 60.1279 39.0866C60.1279 39.1607 60.1279 39.2841 60.1032 39.3705C60.0785 39.4569 59.9797 39.6544 59.8932 39.8149C59.7944 39.9877 59.7203 40.1728 59.708 40.2715C59.708 40.3579 59.708 40.4937 59.745 40.5801C59.7821 40.6665 59.8315 40.7776 59.8809 40.827C59.9179 40.8763 60.1896 41.0862 60.486 41.2713C60.7701 41.4564 61.0912 41.6416 61.19 41.6786C61.2888 41.7033 61.4246 41.728 61.4864 41.7156C61.5605 41.7156 61.6593 41.6663 61.721 41.6169C61.7828 41.5799 61.8939 41.4688 61.9557 41.37C62.0174 41.2713 62.1533 41.0862 62.2274 40.938C62.3015 40.8023 62.425 40.5431 62.4991 40.3826C62.5609 40.2222 62.6473 39.963 62.6843 39.8025C62.7214 39.6421 62.7584 39.4075 62.7708 39.2718C62.7708 39.136 62.7708 38.9015 62.7585 38.7534C62.7461 38.6053 62.672 38.3461 62.6226 38.1733C62.5361 37.9388 62.4744 37.803 62.3385 37.6055C62.2397 37.4574 62.0668 37.2476 61.9557 37.1365C61.8445 37.0254 61.6099 36.8156 61.437 36.6921C61.2641 36.5564 60.9924 36.3836 60.8442 36.2972C60.6836 36.2108 60.4243 36.0874 60.2514 36.0256C60.0785 35.9639 59.8315 35.8899 59.6956 35.8652C59.5721 35.8405 59.3375 35.8158 59.2016 35.8035C59.0534 35.8035 58.8435 35.8035 58.72 35.8158C58.5965 35.8282 58.3865 35.8775 58.2507 35.9146C58.1148 35.9516 57.8431 36.0627 57.6455 36.1614C57.4479 36.2602 57.1885 36.4206 57.0403 36.5317M36.8109 41.9748C36.675 42.0612 36.4404 42.234 36.2922 42.3575C36.1563 42.4809 35.934 42.7031 35.8105 42.8388C35.687 42.9869 35.4894 43.2585 35.3659 43.4436C35.2424 43.6288 35.0695 43.925 34.983 44.0978C34.8966 44.2706 34.7607 44.6038 34.6866 44.8384C34.6125 45.0729 34.5261 45.4185 34.5014 45.6159C34.4767 45.8134 34.4643 46.1097 34.4643 46.2824C34.4643 46.4552 34.5014 46.7144 34.5384 46.8502C34.5755 47.023 34.6619 47.2699 34.7854 47.5291C34.9213 47.8376 35.0201 48.0104 35.1683 48.1956C35.2794 48.3437 35.44 48.5288 35.5512 48.6276C35.65 48.7263 35.8476 48.8991 35.9958 48.9979C36.1316 49.0966 36.3786 49.257 36.5392 49.3558C36.6997 49.4545 36.9838 49.578 37.1567 49.652C37.3419 49.7261 37.6013 49.8001 37.7248 49.8248C37.8606 49.8495 38.0829 49.8742 38.2188 49.8865C38.367 49.8865 38.6263 49.8865 38.8116 49.8495C39.0462 49.8248 39.2068 49.7754 39.355 49.7014C39.4785 49.6397 39.6143 49.5409 39.7008 49.4545C39.7996 49.3434 39.8984 49.1583 40.0836 48.6769C40.2195 48.3313 40.3553 47.9734 40.3677 47.8747C40.3924 47.7389 40.3677 47.6648 40.3183 47.5414C40.2689 47.4427 40.1948 47.3563 40.133 47.3192C40.0713 47.2822 39.9725 47.2452 39.9231 47.2328C39.8613 47.2328 39.7008 47.2575 39.5526 47.2946C39.4044 47.3316 39.1944 47.381 39.0833 47.4056C38.9721 47.418 38.7992 47.4427 38.7004 47.4427C38.6016 47.4427 38.4287 47.418 38.3299 47.381C38.2311 47.3563 38.0706 47.2822 37.9841 47.2328C37.8483 47.1464 37.8112 47.0971 37.7001 46.8749C37.5889 46.6527 37.5766 46.591 37.5766 46.3935C37.5766 46.2578 37.626 46.0233 37.6877 45.8381C37.7495 45.6653 37.8112 45.5172 37.8236 45.5049C37.8483 45.5049 38.5275 45.8875 39.3426 46.3442C40.1577 46.8132 40.8988 47.2082 40.9852 47.2328C41.1087 47.2699 41.1705 47.2699 41.2569 47.2328C41.3187 47.1958 41.4051 47.1341 41.4422 47.0724C41.4792 47.0107 41.5904 46.8379 41.6768 46.6898C41.7633 46.5416 41.8991 46.2207 41.9856 45.9862C42.072 45.7517 42.1585 45.4308 42.1832 45.2703C42.2079 45.1222 42.2326 44.863 42.2449 44.6902C42.2449 44.5298 42.2449 44.2582 42.2079 44.0854C42.1708 43.8016 42.1461 43.7398 41.9238 43.2832C41.7139 42.8635 41.6521 42.7648 41.4916 42.592C41.3928 42.4809 41.1828 42.3081 41.047 42.2093C40.9111 42.1106 40.6518 41.9502 40.4665 41.8514C40.2812 41.765 39.9478 41.6292 39.7255 41.5552C39.5032 41.4811 39.1697 41.4194 39.0092 41.3947C38.8363 41.3824 38.5522 41.37 38.3793 41.3947C38.2064 41.4071 37.9347 41.4564 37.7865 41.4935C37.6383 41.5428 37.416 41.6169 37.3049 41.6663C37.1937 41.7156 36.9838 41.8267 36.8356 41.9131M21.9043 45.3814C21.7684 45.4925 21.5708 45.653 21.4844 45.7517C21.3856 45.8381 21.2374 46.0109 21.1386 46.122C21.0398 46.2331 20.8916 46.4552 20.8051 46.6034C20.7187 46.7515 20.5952 47.023 20.5334 47.2082C20.4717 47.3933 20.4099 47.6895 20.3852 47.8747C20.3605 48.0598 20.3605 48.3437 20.3729 48.4918C20.3729 48.6523 20.4223 48.8991 20.447 49.0472C20.4717 49.1953 20.5458 49.4422 20.6075 49.6026C20.6569 49.7754 20.8051 50.0717 20.9533 50.3309C21.0892 50.5777 21.2868 50.8986 21.3979 51.0467C21.5091 51.1949 21.6943 51.417 21.8178 51.5405C21.929 51.6639 22.1266 51.8614 22.2501 51.9724C22.3736 52.0835 22.5835 52.244 22.7194 52.3304C22.8429 52.4168 23.1022 52.5526 23.2751 52.639C23.4604 52.7254 23.7568 52.8241 23.9544 52.8611C24.152 52.8982 24.4607 52.9352 24.6583 52.9352C24.856 52.9352 25.1771 52.8982 25.3623 52.8611C25.6958 52.7994 25.7699 52.7624 26.338 52.4785C26.8937 52.207 26.9802 52.1452 27.2519 51.9231C27.4248 51.7873 27.6471 51.5651 27.7582 51.4417C27.8694 51.3183 28.0299 51.0838 28.1164 50.9357C28.2028 50.7875 28.3263 50.5037 28.3881 50.3062C28.4498 50.1087 28.5116 49.8495 28.5116 49.7261C28.5116 49.5286 28.5116 49.4792 28.3757 49.2077C28.2399 48.9361 28.1781 48.8744 27.7953 48.4795C27.5606 48.2326 27.3136 48.0104 27.2395 47.9611C27.1531 47.9117 27.0543 47.887 26.9431 47.8993C26.8567 47.8993 26.7332 47.9487 26.6838 47.9857C26.6344 48.0228 26.5479 48.0968 26.5232 48.1585C26.4862 48.2203 26.4368 48.4301 26.3997 48.6276C26.3627 48.8251 26.3009 49.0842 26.2515 49.2077C26.2021 49.3311 26.1033 49.5039 26.0169 49.6026C25.9428 49.7014 25.8193 49.8248 25.7452 49.8742C25.6587 49.9359 25.5352 49.9729 25.3994 50.01C25.2141 50.047 25.14 50.0346 24.893 49.9482C24.6584 49.8618 24.5596 49.8125 24.3866 49.6397C24.2631 49.5286 24.1396 49.4052 24.1149 49.3681L24.0655 49.2941C26.2639 47.7265 26.9431 47.2575 26.9802 47.2205C27.0172 47.1835 27.0666 47.0971 27.0913 47.0354C27.1284 46.9243 27.1284 46.8872 27.0419 46.7144C26.9925 46.6034 26.8443 46.3935 26.7332 46.2454C26.622 46.0973 26.4121 45.8628 26.2762 45.7394C26.1404 45.6036 25.9551 45.4431 25.844 45.3691C25.7328 45.295 25.5476 45.1716 25.4241 45.0852C25.2882 45.0111 25.0659 44.9001 24.9054 44.8384C24.7448 44.7766 24.5101 44.7149 24.3619 44.6902C24.2261 44.6656 24.0038 44.6532 23.8679 44.6532C23.7444 44.6532 23.5221 44.6656 23.3739 44.6902C23.164 44.7273 23.0281 44.7766 22.6453 44.9494C22.2501 45.1346 22.1142 45.2086 21.9166 45.3814M43.3317 33.1992C43.2453 33.3226 43.2329 33.372 43.2453 33.5694C43.2576 33.6929 43.3194 34.1372 43.3935 34.5569C43.4552 34.9765 43.5787 35.6183 43.6528 35.9763C43.7269 36.3342 43.8875 37.0254 43.9986 37.4821C44.1221 37.9511 44.3197 38.7534 44.4679 39.2471L44.7149 40.1605C44.9002 40.2962 45.0113 40.3209 45.1225 40.3209C45.2336 40.3209 45.7029 40.2098 46.3822 40.0247C47.2097 39.8025 47.4937 39.7038 47.5802 39.6421C47.6419 39.5927 47.716 39.5063 47.7407 39.4322C47.7778 39.3211 47.7654 39.2718 47.5925 38.7781C47.4814 38.4942 47.3208 37.9881 47.222 37.6672C47.1232 37.3463 47.0244 37.0007 46.9997 36.902C46.9627 36.7539 46.9627 36.7168 47.0244 36.6798C47.0615 36.6675 47.1232 36.6428 47.1603 36.6304C47.2097 36.6304 47.3208 36.6798 47.4443 36.7662C47.5678 36.8649 47.7901 36.9637 47.9877 37.0377C48.2224 37.1118 48.4076 37.1488 48.6176 37.1488C48.7781 37.1488 49.0375 37.1241 49.198 37.0871C49.3956 37.0501 49.5809 36.976 49.7785 36.8773C49.9514 36.7909 50.149 36.6675 50.2354 36.5811C50.3219 36.4947 50.4701 36.3342 50.5565 36.2108C50.643 36.0874 50.7665 35.8405 50.8282 35.6677C50.89 35.4949 50.9641 35.2357 50.9764 35.0999C51.0011 34.9642 51.0135 34.705 51.0011 34.5198C51.0011 34.3347 50.9517 34.0014 50.9023 33.7793C50.8406 33.4707 50.7665 33.2609 50.6306 32.9523C50.4948 32.6437 50.396 32.4833 50.2725 32.3228C50.186 32.2117 50.0008 32.0389 49.8773 31.9402C49.7167 31.8291 49.5562 31.7427 49.3586 31.681C49.2104 31.6316 48.9634 31.5946 48.8275 31.5946C48.6917 31.5946 48.4694 31.6193 48.3459 31.644C48.2224 31.6687 48.0001 31.7427 47.8642 31.8168C47.716 31.8908 47.5431 32.0019 47.4567 32.0883C47.3702 32.1747 47.2344 32.3228 47.1603 32.4339C47.0738 32.545 46.9627 32.7795 46.8886 33.0264C46.7898 33.3226 46.7527 33.5077 46.7527 33.7052C46.7527 33.9027 46.728 34.0014 46.7033 34.0138C46.6663 34.0261 46.6169 34.0508 46.5675 34.0631L46.481 34.0878C46.4316 33.6188 46.3822 33.2732 46.3575 33.0264C46.3328 32.7795 46.2957 32.545 46.2834 32.508C46.2587 32.4709 46.197 32.4216 46.1352 32.3845C46.0735 32.3599 45.9499 32.3352 45.8758 32.3475C45.7894 32.3475 45.246 32.4833 44.6532 32.6437C44.0604 32.8042 43.554 32.9523 43.517 32.977C43.4799 32.9893 43.4058 33.0757 43.3441 33.1498M52.3967 28.5583C52.2609 28.6447 52.0262 28.8051 51.8904 28.9162C51.7545 29.0273 51.5322 29.2248 51.4087 29.3606C51.2852 29.4963 51.1123 29.6938 51.0505 29.8049C50.9764 29.916 50.8653 30.1505 50.8035 30.3233C50.7418 30.4961 50.6677 30.78 50.6553 30.9528C50.643 31.1256 50.6306 31.3971 50.6553 31.5699C50.68 31.7304 50.7171 32.0019 50.7665 32.1624C50.8035 32.3228 50.9147 32.6437 51.0011 32.8659C51.0999 33.1128 51.2605 33.4584 51.4087 33.7176C51.5445 33.9644 51.7545 34.3223 51.878 34.5075C52.0015 34.6926 52.2115 34.9765 52.3473 35.137C52.4832 35.2974 52.6931 35.5072 52.8043 35.6183C52.9278 35.7171 53.1377 35.8775 53.2859 35.9886C53.4712 36.112 53.6811 36.1984 53.9528 36.2848C54.2616 36.3712 54.4221 36.4083 54.7185 36.4083C54.9285 36.4083 55.2125 36.3836 55.3731 36.3466C55.5336 36.3095 55.793 36.2355 55.9535 36.1738C56.1141 36.112 56.3734 36.001 56.534 35.9269C56.6945 35.8528 56.9539 35.6924 57.1268 35.5936C57.2997 35.4826 57.5591 35.3098 57.6949 35.1987C57.8308 35.0876 58.0531 34.8901 58.1766 34.7543C58.3001 34.6186 58.4606 34.4087 58.5347 34.2977C58.6088 34.1866 58.7323 33.9027 58.8188 33.6682C58.9423 33.2856 58.967 33.1992 58.9546 32.8289C58.9546 32.6067 58.9176 32.2981 58.8929 32.1377C58.8558 31.9772 58.7941 31.7551 58.757 31.6193C58.7076 31.4835 58.5965 31.1996 58.51 30.9775C58.4112 30.7553 58.2136 30.3727 58.0531 30.1011C57.9049 29.8419 57.6702 29.4963 57.5344 29.3112C57.4109 29.1384 57.2009 28.8915 57.0774 28.7558C56.9539 28.62 56.7316 28.4225 56.571 28.2991C56.4228 28.1757 56.1635 28.0276 56.0153 27.9535C55.8671 27.8794 55.6201 27.793 55.4719 27.756C55.3237 27.719 55.052 27.6943 54.8544 27.7066C54.6568 27.7066 54.3727 27.7313 54.2122 27.7684C54.0516 27.8054 53.7923 27.8794 53.6317 27.9412C53.4712 28.0029 53.1748 28.1263 52.9895 28.225C52.8043 28.3238 52.5326 28.4719 52.3967 28.5706M28.5733 39.9506C28.4992 40 28.351 40.1358 28.2399 40.2345C28.1411 40.3333 27.9805 40.5184 27.8817 40.6542C27.7829 40.7899 27.6471 41.0121 27.5853 41.1479C27.5112 41.2836 27.4001 41.5799 27.326 41.8144C27.2519 42.0365 27.1778 42.3945 27.1407 42.6043C27.116 42.8141 27.079 43.1474 27.0666 43.3449C27.0666 43.5424 27.0666 43.8509 27.0666 44.0361C27.079 44.2089 27.116 44.5051 27.1654 44.6902C27.2025 44.8754 27.2889 45.1716 27.3507 45.3567C27.4371 45.6036 27.5236 45.7764 27.6841 46.0109C27.7953 46.196 27.9805 46.4306 28.104 46.554C28.2152 46.6774 28.4251 46.8502 28.561 46.949C28.6968 47.0477 28.8944 47.1835 29.0056 47.2452C29.1044 47.2946 29.3143 47.3933 29.4502 47.455C29.586 47.5167 29.8577 47.5908 30.0307 47.6401C30.2159 47.6772 30.5 47.7389 30.6729 47.7512C30.8458 47.7636 31.1422 47.7759 31.3274 47.7759C31.525 47.7759 31.8832 47.7389 32.1425 47.7019C32.5007 47.6525 32.6612 47.6155 32.8712 47.5167C33.0688 47.4303 33.1676 47.3686 33.2293 47.2946C33.2787 47.2452 33.3281 47.1218 33.3528 47.0477C33.3652 46.9613 33.4022 46.5663 33.4146 46.159C33.4393 45.69 33.4269 45.3691 33.4022 45.2827C33.3775 45.1963 33.3158 45.1099 33.2417 45.0605C33.1799 45.0111 33.0811 44.9618 33.007 44.9618C32.9206 44.9618 32.7477 44.9988 32.5501 45.0605C32.3772 45.1222 32.1178 45.1839 31.982 45.2086C31.8338 45.2333 31.6362 45.2457 31.525 45.2333C31.4139 45.2333 31.2286 45.1839 31.1298 45.1346C31.031 45.0975 30.8705 45.0111 30.784 44.9371C30.6976 44.863 30.5741 44.7273 30.5 44.6038C30.4135 44.4804 30.3394 44.32 30.29 44.1842C30.253 44.0608 30.2036 43.8756 30.1912 43.7769C30.1789 43.6781 30.1665 43.4313 30.1665 43.2338C30.1665 42.9869 30.2036 42.7895 30.2653 42.5673C30.3271 42.3945 30.4012 42.2093 30.4382 42.16C30.4753 42.0983 30.5741 42.0242 30.6358 41.9748C30.7223 41.9131 30.8087 41.8761 30.9322 41.8638C31.0557 41.8514 31.1545 41.8638 31.2533 41.9131C31.3645 41.9748 31.4139 42.0242 31.4756 42.1476C31.5374 42.2587 31.5621 42.4068 31.5621 42.7031C31.5744 43.024 31.5991 43.1351 31.6609 43.2708C31.7103 43.3696 31.7844 43.4806 31.8338 43.53C31.8832 43.5794 32.019 43.6411 32.1302 43.6658C32.2413 43.6905 32.6118 43.7275 32.9453 43.7398C33.2787 43.7398 33.6245 43.7398 33.6986 43.7152C33.7727 43.6905 33.8839 43.6288 33.9333 43.5794C33.9827 43.53 34.0568 43.4066 34.0815 43.2955C34.1062 43.1844 34.1432 42.9376 34.1432 42.7401C34.1432 42.5426 34.1309 42.234 34.1062 42.0489C34.0815 41.8638 34.0321 41.5799 33.9827 41.4318C33.9333 41.2713 33.8345 41.0368 33.7727 40.901C33.711 40.7652 33.5751 40.5554 33.4763 40.432C33.3775 40.3086 33.2293 40.1481 33.1305 40.0617C33.0317 39.9753 32.8218 39.8395 32.6612 39.7408C32.5007 39.6544 32.229 39.531 32.0561 39.4816C31.8832 39.4322 31.5744 39.3582 31.3768 39.3335C31.1792 39.3088 30.8952 39.2965 30.7346 39.2841C30.5741 39.2841 30.3024 39.3088 30.1295 39.3335C29.9442 39.3582 29.6725 39.4199 29.4996 39.4693C29.3267 39.5186 29.0797 39.6174 28.9438 39.6914C28.808 39.7655 28.6351 39.8642 28.5486 39.9259M14.9018 42.7524C14.6054 43.0857 14.1608 43.5917 13.9261 43.8756C13.6914 44.1595 13.3209 44.6162 13.0986 44.8877C12.8763 45.1716 12.5305 45.6159 12.3206 45.8875C12.1106 46.159 11.7401 46.6774 11.4808 47.0354C11.2214 47.3933 10.9374 47.8006 10.8386 47.9487C10.7274 48.1092 10.6533 48.2573 10.6533 48.3313C10.6533 48.3931 10.6533 48.5041 10.6904 48.5535C10.7274 48.6276 10.9868 48.8251 11.5549 49.22C11.9995 49.5286 12.4194 49.8001 12.4811 49.8248C12.5305 49.8495 12.6293 49.8495 12.6911 49.8495C12.7652 49.8495 12.8269 49.8125 12.8763 49.7508C12.9134 49.7014 13.111 49.4175 13.3086 49.1213C13.5062 48.8251 13.852 48.2943 14.0743 47.9611C14.309 47.6278 14.4942 47.3439 14.5066 47.3439C14.5189 47.3439 14.7783 47.5044 15.0747 47.7142C15.3711 47.924 15.6304 48.1092 15.6428 48.1215C15.6551 48.1339 15.5316 48.3313 15.3711 48.5659C15.2105 48.8004 14.8277 49.3188 14.5189 49.7384C14.1978 50.1828 13.9508 50.553 13.9385 50.6147C13.9261 50.7011 13.9385 50.7629 14.0002 50.8616C14.062 50.9603 14.2843 51.1331 14.8894 51.5528C15.5069 51.9848 15.7292 52.1082 15.8404 52.1329C15.9145 52.1329 16.0133 52.1329 16.0627 52.1082C16.1121 52.0835 16.2109 51.9848 16.2726 51.8984C16.3467 51.7997 16.6061 51.417 16.8654 51.0467C17.1248 50.6641 17.5076 50.0717 17.7423 49.7261C17.9646 49.3681 18.2486 48.9238 18.3598 48.7263C18.4833 48.5288 18.7179 48.1215 18.8908 47.8253C19.0637 47.5291 19.4343 46.8502 19.7183 46.3318C20.0518 45.69 20.2247 45.3444 20.237 45.2457C20.237 45.1716 20.2247 45.0729 20.2 45.0235C20.1629 44.9618 19.9283 44.7643 19.459 44.4434C19.0761 44.1842 18.7179 43.9497 18.6438 43.9126C18.545 43.8756 18.4833 43.888 18.3721 43.9373C18.2486 43.999 18.1869 44.0731 17.8287 44.6779C17.6064 45.0482 17.2853 45.6036 17.1001 45.8998C16.9148 46.196 16.6061 46.7021 16.4085 47.0107C16.2109 47.3192 16.038 47.5661 16.038 47.5661C16.038 47.5661 15.7663 47.3933 15.4575 47.1835C15.1488 46.9736 14.9018 46.7885 14.9141 46.7885C14.9141 46.7885 15.2229 46.3688 15.581 45.8875C15.9515 45.4061 16.5196 44.6656 16.8654 44.2336C17.3224 43.6658 17.4953 43.4189 17.5076 43.3449C17.5076 43.2832 17.4829 43.1844 17.4582 43.1227C17.4088 43.024 17.2606 42.9005 16.7543 42.5549C16.3961 42.3081 16.0627 42.0859 16.0133 42.0489C15.9639 42.0119 15.8774 41.9872 15.828 41.9872C15.7786 41.9872 15.6798 42.0242 15.5934 42.0612C15.4822 42.1229 15.3093 42.2834 14.9018 42.7524ZM36.8232 29.2989C36.8232 29.2989 36.6009 29.7926 36.4157 30.2863C36.2304 30.78 35.9093 31.6316 35.7117 32.1871C35.5141 32.7425 35.193 33.6805 35.0077 34.2853C34.8225 34.8778 34.5261 35.8652 34.3408 36.4947C34.1556 37.1118 33.9209 37.9388 33.8098 38.3337C33.6986 38.7287 33.5998 39.099 33.6122 39.1607C33.6122 39.2348 33.6369 39.3211 33.6616 39.3705C33.6863 39.4199 33.7604 39.4939 33.8221 39.5433C33.8962 39.605 34.3038 39.7408 34.983 39.9383C35.5635 40.1111 36.0946 40.2469 36.1563 40.2469C36.2181 40.2469 36.3292 40.2222 36.391 40.1975C36.4527 40.1728 36.5392 40.0987 36.5886 40.0494C36.6503 39.9877 36.6997 39.7902 36.7615 39.4816C36.8109 39.2224 36.8603 39.0126 36.885 39.0002C36.8973 39.0002 36.9714 39.0002 37.0332 39.0249L37.1567 39.0496C37.2061 39.7038 37.2184 39.7531 37.379 40.0741C37.5519 40.4197 37.5519 40.4197 37.7989 40.6048C37.9471 40.7159 38.157 40.8393 38.3176 40.901C38.4781 40.9627 38.7004 41.0121 38.861 41.0121C39.0709 41.0121 39.2068 40.9998 39.4291 40.9257C39.6761 40.8393 39.7502 40.8023 39.9725 40.6418C40.1207 40.5431 40.3183 40.3579 40.4418 40.2345C40.5529 40.1111 40.7382 39.8766 40.8494 39.7038C40.9605 39.5433 41.1334 39.2347 41.2446 39.0373C41.3434 38.8274 41.541 38.3584 41.6645 37.9758C41.8003 37.5932 41.9485 37.0871 42.0103 36.8526C42.072 36.6181 42.1338 36.2355 42.1708 36.0256C42.1955 35.8158 42.2326 35.5196 42.2326 35.3591C42.2326 35.211 42.2326 34.9642 42.1955 34.8284C42.1708 34.6803 42.1214 34.4705 42.0844 34.3347C42.035 34.1742 41.9609 34.0385 41.8744 33.915C41.8003 33.8163 41.6521 33.6682 41.5533 33.5818C41.4545 33.5077 41.2569 33.3966 41.1211 33.3596C40.9729 33.3102 40.7876 33.2732 40.6394 33.2732C40.5035 33.2732 40.2936 33.3102 40.1577 33.3596C40.0342 33.3966 39.849 33.483 39.7625 33.5324C39.6761 33.5941 39.5032 33.7176 39.392 33.8039C39.2685 33.8903 39.0956 34.0631 38.9845 34.1866C38.8857 34.2977 38.7375 34.4705 38.6757 34.5569C38.614 34.6433 38.4905 34.8407 38.404 34.9889C38.3176 35.137 38.2435 35.2851 38.2311 35.3221C38.2064 35.3591 38.1694 35.3591 38.0582 35.3221L37.91 35.2727C38.4905 33.6682 38.7375 33.014 38.8239 32.7795C38.9104 32.545 39.0215 32.3105 39.0709 32.2488C39.1203 32.1871 39.2191 32.1007 39.3179 32.0636C39.4167 32.0143 39.5402 31.9896 39.6267 31.9896C39.7008 31.9896 40.2936 32.1377 40.9358 32.3352C41.578 32.5203 42.1338 32.6808 42.1832 32.6808C42.2326 32.6808 42.3437 32.6808 42.4302 32.6561C42.5537 32.6314 42.6154 32.5944 42.7266 32.4956C42.8377 32.3969 42.8995 32.2735 43.0353 31.8908C43.1341 31.6316 43.2082 31.3477 43.2082 31.2737C43.2082 31.1996 43.1712 31.0639 43.1341 30.9898C43.0971 30.9158 43.0106 30.8047 42.9612 30.7553C42.8748 30.6812 42.2573 30.4838 40.1454 29.879C38.651 29.447 37.3913 29.089 37.3419 29.089C37.2925 29.089 37.1814 29.1261 37.0949 29.1631C37.0085 29.2001 36.9097 29.2742 36.8603 29.3359M19.1131 34.6309C19.0143 34.7297 18.9032 34.8654 18.8414 34.9518C18.792 35.0382 18.7056 35.1863 18.6685 35.2974C18.6191 35.3962 18.5697 35.6183 18.5327 35.7664C18.508 35.9269 18.4833 36.1861 18.4833 36.3589C18.4833 36.5317 18.508 36.8032 18.5327 36.9637C18.5574 37.1241 18.6191 37.408 18.6685 37.5808C18.7179 37.766 18.8167 38.0745 18.9032 38.2844C19.002 38.5436 19.1131 38.7534 19.2367 38.9632C19.3355 39.1237 19.5084 39.3582 19.6072 39.4693C19.706 39.5803 19.9159 39.7655 20.0641 39.8766C20.2494 40.0123 20.4346 40.1111 20.6322 40.1851C20.8175 40.2469 21.0398 40.2962 21.2127 40.2962C21.3609 40.2962 21.5832 40.2839 21.7067 40.2592C21.8178 40.2345 22.0772 40.1481 22.2624 40.0741C22.4724 39.9877 22.6823 39.8766 22.8058 39.7902C22.917 39.7161 23.0775 39.568 23.1516 39.4569C23.2504 39.3335 23.3122 39.1977 23.3492 39.0496C23.3863 38.9262 23.3986 38.741 23.3863 38.63C23.3863 38.5312 23.3492 38.4201 23.3369 38.3831C23.3245 38.3584 23.3369 38.3214 23.4233 38.2844C23.4851 38.2597 23.5468 38.2473 23.5715 38.2597C23.5962 38.272 23.658 38.4695 23.7074 38.6917C23.7691 38.9385 23.8062 39.2101 23.8062 39.3829C23.8062 39.5927 23.7815 39.7655 23.695 40.0123C23.6333 40.1975 23.5468 40.3826 23.5098 40.4073C23.4604 40.4443 23.3986 40.4567 23.2875 40.432C23.2134 40.4197 23.0281 40.4073 22.8799 40.4073C22.7317 40.4073 22.4847 40.432 22.3242 40.469C22.0772 40.5184 21.9537 40.5678 21.3732 40.8516C20.8298 41.1108 20.6816 41.2096 20.5334 41.333C20.4346 41.4194 20.2864 41.5675 20.2123 41.6786C20.1382 41.7774 20.0271 41.9625 19.9777 42.0859C19.9283 42.2093 19.8789 42.3945 19.8789 42.5179C19.8789 42.7154 19.8789 42.7648 20.0271 43.0487C20.1629 43.3325 20.2 43.3819 20.3729 43.5053C20.484 43.5917 20.6693 43.6781 20.8298 43.7398C21.0274 43.8139 21.2003 43.8262 21.4597 43.8262C21.6573 43.8262 21.966 43.8016 22.1513 43.7769C22.3365 43.7522 22.6453 43.6905 22.8429 43.6411C23.164 43.567 23.2998 43.5053 23.905 43.2091C24.4731 42.9252 24.646 42.8265 24.8313 42.6784C24.9671 42.5796 25.1771 42.3821 25.3006 42.2587C25.4364 42.1229 25.634 41.9008 25.7575 41.7527C25.881 41.6046 26.0663 41.3207 26.1774 41.1355C26.2886 40.938 26.4491 40.5801 26.5356 40.3086C26.622 40.0494 26.7208 39.6791 26.7332 39.5063C26.7579 39.3212 26.7702 39.0249 26.7702 38.8645C26.7702 38.6917 26.7332 38.4201 26.6961 38.272C26.6591 38.1116 26.5603 37.7413 26.4615 37.4451C26.3627 37.1488 26.1651 36.5687 26.0292 36.1738C25.881 35.7788 25.5599 34.9395 25.3129 34.31C25.0659 33.6929 24.8313 33.0881 24.7819 32.9646C24.7078 32.7795 24.6831 32.7425 24.5843 32.6808C24.5225 32.6437 24.399 32.619 24.3002 32.619C24.1767 32.619 23.8803 32.7178 23.1763 32.977C22.6453 33.1745 22.1513 33.372 22.0648 33.409C21.9784 33.446 21.8919 33.5201 21.8549 33.5694C21.8178 33.6188 21.7808 33.7052 21.7684 33.7546C21.7437 33.841 21.7684 33.915 21.9166 34.2359C22.0772 34.5939 22.0895 34.6186 22.0154 34.6309C21.9784 34.6309 21.9166 34.6556 21.8919 34.6679C21.8549 34.6803 21.7561 34.6309 21.5585 34.4951C21.3732 34.3594 21.188 34.2606 21.0151 34.1989C20.8545 34.1495 20.6446 34.1125 20.5087 34.1125C20.3852 34.1125 20.1753 34.1372 20.0641 34.1619C19.953 34.1866 19.7307 34.273 19.5701 34.347C19.3602 34.4458 19.249 34.5322 19.1131 34.6679M28.1658 29.6815C28.0793 29.7432 27.9311 29.8666 27.8323 29.9654C27.7335 30.0641 27.61 30.2122 27.5359 30.311C27.4618 30.4097 27.363 30.5948 27.3013 30.7183C27.2395 30.8417 27.1407 31.1009 27.079 31.2984C27.0172 31.4959 26.9431 31.8538 26.9184 32.1007C26.8937 32.3475 26.8567 32.7548 26.869 33.0264C26.869 33.2979 26.869 33.7176 26.9061 33.9767C26.9308 34.2236 26.9802 34.6062 27.0296 34.8407C27.1037 35.2234 27.1284 35.2851 27.3877 35.8158C27.6594 36.3589 27.6718 36.3959 27.8817 36.5934C28.0052 36.7045 28.2028 36.8649 28.3387 36.9513C28.4745 37.0501 28.7586 37.1735 29.0056 37.2476C29.2526 37.334 29.5984 37.408 29.833 37.4451C30.0554 37.4697 30.4259 37.4821 30.6605 37.4821C30.8952 37.4821 31.2533 37.4574 31.4633 37.4327C31.6609 37.408 31.9696 37.3463 32.1302 37.3093C32.3031 37.2599 32.5748 37.1488 32.7847 37.0501C33.007 36.939 33.2046 36.8156 33.2911 36.7415C33.3775 36.6675 33.501 36.544 33.5875 36.4576C33.6616 36.3712 33.7974 36.1861 33.8962 36.0256C33.9827 35.8775 34.1185 35.606 34.1679 35.4208C34.2297 35.248 34.3038 34.9518 34.3408 34.779C34.3655 34.6062 34.4026 34.3347 34.4273 34.1742C34.4273 34.0261 34.452 33.6929 34.452 33.4337C34.452 33.1745 34.452 32.7918 34.4149 32.5944C34.4026 32.3969 34.3655 32.0883 34.3285 31.9279C34.2914 31.7674 34.242 31.4835 34.1926 31.3231C34.1432 31.1626 34.0197 30.8664 33.9209 30.6689C33.7974 30.4097 33.6863 30.2492 33.5504 30.0888C33.4516 29.9654 33.254 29.7926 33.1305 29.6938C33.007 29.5951 32.7724 29.4593 32.6118 29.3853C32.4513 29.3112 32.2166 29.2248 32.0808 29.2001C31.9449 29.1631 31.6856 29.1261 31.5003 29.1014C31.3151 29.0767 30.9569 29.0643 30.7099 29.0643C30.4629 29.0643 30.0554 29.089 29.8207 29.1261C29.586 29.1631 29.2279 29.2371 29.0426 29.2989C28.8574 29.3606 28.6227 29.447 28.5239 29.5087C28.4251 29.558 28.2646 29.6568 28.1781 29.7185" fill="#89897F"/>
<path fill-rule="evenodd" clip-rule="evenodd" d="M66.2535 40.0247C66.2165 40.1234 66.1918 40.2592 66.2041 40.3333C66.2041 40.395 66.2659 40.5307 66.3153 40.6048C66.3647 40.6912 66.4758 40.8023 66.5623 40.864C66.6487 40.9257 66.7475 40.9874 66.797 40.9998C66.8711 41.0245 66.8957 40.9998 67.081 40.4443C67.1922 40.1234 67.2663 39.8396 67.2539 39.8149C67.2539 39.7902 67.1675 39.7532 67.081 39.7408C66.9945 39.7161 66.8587 39.7038 66.7722 39.7038C66.6858 39.7038 66.5499 39.7408 66.4758 39.7778C66.3523 39.8396 66.3276 39.8766 66.2659 40.0247M51.6804 44.826C51.6804 44.826 51.841 45.1099 51.9892 45.3568C52.1374 45.6159 52.2609 45.8258 52.2856 45.8505C52.3103 45.8751 52.372 45.8505 52.5079 45.7641C52.6067 45.7023 52.7302 45.5913 52.7796 45.5172C52.829 45.4432 52.8784 45.3197 52.8907 45.2457C52.9031 45.1222 52.8907 45.0729 52.8043 44.9371C52.7425 44.8384 52.6437 44.7396 52.5573 44.6902C52.4708 44.6409 52.3473 44.6162 52.2238 44.6162C52.1127 44.6162 51.9274 44.6532 51.8286 44.6902C51.6434 44.752 51.631 44.7643 51.6928 44.826M38.5399 44.5421C38.4658 44.6162 38.3423 44.752 38.2929 44.826C38.2311 44.9001 38.1817 44.9741 38.1817 44.9741C38.1817 44.9741 38.4164 45.1222 38.7128 45.295C39.0092 45.4678 39.2562 45.5913 39.2685 45.5913C39.2685 45.5913 39.3303 45.4802 39.3797 45.3444C39.4291 45.221 39.4908 44.9988 39.5032 44.863C39.5279 44.7273 39.5402 44.5421 39.5155 44.4681C39.4908 44.357 39.4661 44.3076 39.4044 44.2582C39.355 44.2212 39.2562 44.1965 39.1944 44.1965C39.1327 44.1965 38.9845 44.2459 38.8733 44.3076C38.7622 44.357 38.614 44.4681 38.5275 44.5545M23.3739 47.6031C23.3492 47.6648 23.3245 47.813 23.3369 47.924C23.3369 48.0351 23.3863 48.2449 23.4357 48.3807C23.4851 48.5165 23.5592 48.6769 23.6086 48.7387C23.658 48.8127 23.7074 48.8374 23.7321 48.8251C23.7568 48.8127 23.9791 48.6523 24.2261 48.4795C24.4731 48.3067 24.6831 48.1462 24.6831 48.1339C24.6831 48.1215 24.5966 48.0104 24.4731 47.887C24.3496 47.7636 24.1644 47.6155 24.0409 47.5414C23.9174 47.4674 23.7815 47.4056 23.7197 47.3933C23.658 47.3933 23.5715 47.3933 23.5098 47.4303C23.4604 47.455 23.3863 47.5291 23.3616 47.5908M54.0516 31.3231C54.0516 31.3231 53.9528 31.4342 53.9158 31.4959C53.8787 31.5576 53.854 31.6934 53.8664 31.8168C53.8664 32.0019 53.9034 32.0883 54.0763 32.4586C54.2122 32.7672 54.3357 32.9647 54.4715 33.1621C54.5827 33.3102 54.7309 33.483 54.8173 33.5324C54.8914 33.5941 55.0149 33.6558 55.089 33.6805C55.1508 33.6929 55.2743 33.6929 55.3607 33.6805C55.4472 33.6682 55.5583 33.6188 55.6077 33.5694C55.6695 33.5324 55.7436 33.4337 55.7806 33.372C55.8177 33.2979 55.8671 33.1868 55.8794 33.1004C55.8794 33.0264 55.8794 32.8783 55.8547 32.7919C55.83 32.6931 55.7312 32.4833 55.6448 32.2981C55.5583 32.113 55.4101 31.8661 55.3237 31.7427C55.2372 31.6193 55.1014 31.4465 55.0149 31.3724C54.9285 31.2984 54.805 31.212 54.7309 31.175C54.6568 31.1503 54.5333 31.1256 54.4592 31.1503C54.3851 31.1503 54.2739 31.1996 54.2245 31.2243C54.1751 31.249 54.101 31.2984 54.064 31.3354M47.2344 34.7914C47.1973 34.8654 47.1479 34.9889 47.1479 35.0629C47.1479 35.137 47.1479 35.2727 47.1726 35.3715C47.1973 35.4826 47.2467 35.5813 47.3208 35.6677C47.3826 35.7418 47.4814 35.8282 47.5555 35.8652C47.6296 35.9022 47.7531 35.9269 47.8395 35.9146C47.9754 35.9022 48.0124 35.8775 48.0989 35.7911C48.1606 35.7294 48.2224 35.6307 48.2594 35.5566C48.2841 35.4826 48.3088 35.3591 48.3088 35.2727C48.3088 35.1617 48.2841 35.0506 48.21 34.9025C48.1359 34.7543 48.0742 34.6803 47.9877 34.6186C47.926 34.5692 47.8025 34.5322 47.7284 34.5198C47.6296 34.5198 47.5431 34.5198 47.4443 34.5692C47.3455 34.6186 47.2714 34.6803 47.2344 34.7667M38.1076 36.5687C38.1076 36.5687 37.9841 36.7415 37.9224 36.8526C37.8606 36.9637 37.7865 37.1365 37.7495 37.2599C37.7248 37.371 37.7001 37.5685 37.7001 37.6919C37.7001 37.8153 37.7248 37.9881 37.7495 38.0622C37.7742 38.1486 37.8236 38.235 37.8977 38.2967C37.9594 38.3584 38.0582 38.3831 38.1323 38.3831C38.2188 38.3831 38.2929 38.3584 38.3917 38.2967C38.4658 38.2473 38.5769 38.1116 38.651 38.0005C38.7251 37.8894 38.8239 37.6796 38.861 37.5315C38.898 37.3957 38.9351 37.1735 38.9351 37.0501C38.9351 36.9143 38.898 36.7662 38.8486 36.6428C38.7745 36.47 38.7498 36.4453 38.651 36.3959C38.5522 36.3466 38.5028 36.3589 38.3546 36.4206C38.2558 36.4576 38.1447 36.5317 38.0953 36.5811M21.472 41.9872C21.472 41.9872 21.4226 42.1106 21.4103 42.1723C21.4103 42.2464 21.4226 42.3451 21.472 42.4315C21.5338 42.5426 21.5585 42.5796 21.6696 42.592C21.7437 42.592 21.8672 42.592 21.9537 42.592C22.0401 42.5673 22.2254 42.5056 22.3736 42.4439C22.5218 42.3822 22.67 42.2958 22.7317 42.2464C22.7811 42.197 22.8429 42.1106 22.8552 42.0612C22.8799 41.9872 22.8552 41.9255 22.8058 41.8144C22.7564 41.7033 22.707 41.6539 22.6329 41.6292C22.5835 41.6046 22.46 41.6046 22.3736 41.6169C22.2871 41.6169 22.0525 41.7033 21.8672 41.7897C21.682 41.8761 21.5091 41.9748 21.472 41.9995M21.6696 36.47C21.6696 36.47 21.5461 36.6551 21.5214 36.7539C21.4967 36.8526 21.4844 37.0007 21.5091 37.0871C21.5091 37.1859 21.5832 37.3463 21.6326 37.4574C21.6943 37.5808 21.7808 37.6919 21.8549 37.7536C21.9166 37.803 22.0525 37.8771 22.1513 37.9017C22.3118 37.9388 22.3365 37.9388 22.4724 37.8647C22.5835 37.803 22.6206 37.7413 22.67 37.6179C22.707 37.5315 22.7317 37.3587 22.7317 37.2599C22.7317 37.1242 22.6947 37.0131 22.6206 36.865C22.5712 36.7539 22.4847 36.6181 22.4353 36.5687C22.3859 36.5194 22.2871 36.4453 22.2254 36.4083C22.1513 36.3712 22.0648 36.3466 22.0278 36.3466C21.9907 36.3466 21.929 36.3466 21.8796 36.3712C21.8302 36.3836 21.7437 36.4453 21.6943 36.4947M30.0801 32.1747C30.0307 32.2611 29.9689 32.4216 29.9442 32.5203C29.9195 32.6191 29.9072 32.9029 29.9072 33.1374C29.9072 33.372 29.9195 33.6558 29.9319 33.7546C29.9319 33.8533 29.9936 34.0385 30.043 34.1496C30.1048 34.3224 30.1542 34.3841 30.253 34.4581C30.3271 34.5198 30.4382 34.5569 30.5617 34.5692C30.6605 34.5692 30.8087 34.5692 30.8705 34.5569C30.9322 34.5445 31.0434 34.4828 31.0928 34.4211C31.1669 34.3594 31.2286 34.236 31.278 34.0632C31.3398 33.8657 31.3521 33.6682 31.3521 33.2979C31.3521 33.014 31.3274 32.6931 31.3027 32.582C31.278 32.4586 31.2286 32.3105 31.1916 32.2364C31.1545 32.1624 31.0928 32.076 31.0434 32.0266C31.0063 31.9896 30.9199 31.9402 30.8581 31.9155C30.7964 31.8908 30.6852 31.8785 30.5988 31.8785C30.5123 31.8785 30.3765 31.9155 30.3024 31.9525C30.2036 32.0019 30.1295 32.0636 30.0677 32.1871" fill="#EBEBCA"/>
</g>
<defs>
<clipPath id="clip0_5_20567">
<rect width="80" height="80" fill="white" transform="translate(0.799927)"/>
</clipPath>
</defs>
</svg>
