<svg width="81" height="80" viewBox="0 0 81 80" fill="none" xmlns="http://www.w3.org/2000/svg">
<path d="M59.3124 58.1067C59.3124 60.2051 59.4137 61.998 59.2741 63.772C59.192 64.8428 58.6883 65.8731 58.4693 66.944C58.3488 67.5389 58.3817 68.1771 58.42 68.7936C58.5788 71.2599 58.3899 71.8142 55.9426 72.3037C52.0308 73.0852 48.0752 73.8397 44.1059 74.0993C37.9658 74.4995 31.8066 74.3075 25.7349 73.0744C24.4921 72.8202 23.2822 72.4037 22.0449 72.1252C20.8322 71.8494 20.2929 71.1625 20.334 69.9267C20.3805 68.5259 20.2436 67.2171 19.7345 65.8001C19.1404 64.1397 19.4553 62.1603 19.3841 60.3187C19.3649 59.786 19.3813 59.2533 19.1733 58.6908C18.7079 60.7135 18.2289 62.7308 17.7881 64.7563C17.5308 65.9434 16.6603 66.6438 14.8262 66.5032C13.1235 66.3707 11.4072 65.9867 9.78934 65.4431C9.20627 65.2484 8.54654 64.2912 8.50548 63.6476C8.21258 58.8855 7.7828 54.1126 7.95252 49.364C8.17152 43.212 8.6971 37.0518 9.48001 30.943C10.2383 25.029 11.4811 19.1744 12.5323 13.2982C12.9894 10.7346 14.3527 8.87683 16.8574 7.85194C20.594 6.32677 24.2595 4.62584 28.0399 3.22236C29.1814 2.7978 30.6268 2.93571 31.8887 3.1169C37.6319 3.93356 43.3422 3.5685 49.0552 2.87352C49.3974 2.83295 49.7889 2.87893 50.1064 3.00873C54.01 4.59609 57.8807 6.26728 61.809 7.79515C64.79 8.95525 65.8987 11.3836 66.3778 14.1608C67.5658 21.0187 68.877 27.8711 69.6545 34.7776C70.3689 41.1162 70.5441 47.5225 70.7631 53.9044C70.8398 56.1705 70.3251 58.4555 70.1171 60.7351C70.0322 61.6735 70.1773 62.647 69.9802 63.5529C69.8351 64.2209 69.4574 65.1051 68.9181 65.3728C67.0703 66.2869 65.0665 66.6763 62.9642 66.3599C61.7378 66.176 61.0781 65.5135 61.0397 64.302C61.0042 63.1987 60.9384 62.2035 60.1555 61.2165C59.6026 60.5188 59.6245 59.3776 59.3097 58.1067H59.3124ZM56.5804 64.6481C56.5804 64.1046 56.5859 63.6584 56.5804 63.2122C56.4217 53.3013 56.2519 43.3905 56.1014 33.4769C56.0466 29.8722 56.0466 26.2675 55.9892 22.6628C55.9755 21.7948 56.1835 21.0809 57.1361 20.9673C58.1955 20.8429 58.5624 21.6001 58.6691 22.4789C58.7622 23.2388 58.7485 24.0095 58.8251 24.7694C59.6245 32.6467 60.4293 40.524 61.2368 48.3986C61.5982 51.933 61.954 55.4701 62.3592 59.0018C62.392 59.2992 62.7835 59.8076 62.9888 59.7968C64.5628 59.7211 66.1396 59.5859 67.6999 59.356C67.9737 59.3154 68.3597 58.753 68.3651 58.4258C68.3952 56.9412 68.3706 55.4484 68.2556 53.9693C67.5713 45.2672 66.9553 36.5543 66.1095 27.8657C65.677 23.4011 64.8858 18.9635 64.1029 14.5394C63.9031 13.4118 63.4131 11.938 62.5535 11.3944C59.9804 9.7638 57.158 8.51447 54.4343 7.11369C51.0043 13.2468 45.3268 14.6097 39.3592 14.5854C33.3779 14.5583 27.5909 13.3415 24.3279 7.17859C21.7985 8.42252 19.3649 9.62589 16.9259 10.8184C15.8309 11.3539 15.1356 12.1976 14.9467 13.3928C14.0324 19.2474 13.0086 25.0912 12.2695 30.9674C11.6535 35.8755 11.325 40.8242 10.9692 45.7593C10.6763 49.8454 10.512 53.9422 10.3396 58.0364C10.3259 58.3879 10.575 58.9396 10.8624 59.0856C12.5733 59.9536 14.391 60.051 16.2908 59.6967C16.4112 58.7097 16.5371 57.82 16.622 56.9249C17.0107 52.939 17.3748 48.9503 17.7745 44.967C18.2891 39.8209 18.8311 34.6748 19.3594 29.5288C19.6113 27.0679 19.8002 24.5963 20.1697 22.1517C20.2409 21.692 21.0375 21.3405 21.5001 20.9375C21.8943 21.3999 22.3706 21.8218 22.6498 22.3437C22.8196 22.6601 22.6827 23.1387 22.6772 23.5444C22.502 34.9426 22.3186 46.3407 22.1544 57.7389C22.1215 60.0321 22.1489 62.3225 22.1489 64.6535C33.6024 67.712 45.0148 67.7201 56.5777 64.6427L56.5804 64.6481ZM55.5703 67.6119C44.7629 70.2593 33.9308 70.2269 23.118 67.6119C22.9209 69.0019 23.4364 69.8474 24.6646 70.1484C29.154 71.2328 33.7255 71.5627 38.3272 71.6033C43.6132 71.6493 48.8745 71.3897 54.0401 70.1539C55.9399 69.6995 55.9645 69.6617 55.5731 67.6146L55.5703 67.6119ZM50.3637 5.82379C45.6882 12.5329 33.7228 12.5086 28.2698 5.84543C27.8784 6.00768 27.4732 6.17804 26.9805 6.38086C27.7579 8.14399 29.0171 9.41226 30.6897 10.045C32.751 10.8266 34.8999 11.5296 37.0734 11.8325C41.1303 12.4004 45.0695 11.7622 48.6692 9.70431C50.0051 8.93902 51.1056 7.8925 51.6421 6.31596C51.1713 6.13478 50.7962 5.98875 50.3637 5.82109V5.82379ZM31.8668 6.01579C34.9711 9.19863 45.5622 8.48742 46.7257 6.01579H31.8668ZM15.1931 62.6659C13.7696 62.4983 12.5021 62.3468 11.2238 62.1981C11.232 63.6043 12.8799 64.2019 15.1931 63.7071V62.6659ZM63.7744 63.8017C66.3367 64.0343 67.2729 63.6205 67.1607 62.3847C66.0493 62.4739 64.9379 62.5659 63.7744 62.6605V63.8017Z" fill="#89897F"/>
</svg>
