<svg width="80" height="80" viewBox="0 0 80 80" fill="none" xmlns="http://www.w3.org/2000/svg">
<path d="M39.2968 72.143C32.1575 72.143 25.016 72.143 17.8767 72.143C16.04 72.143 15.645 71.7528 15.645 69.948C15.645 59.8996 15.6361 49.849 15.6606 39.8006C15.6606 39.0379 15.4486 38.4969 14.9085 37.9581C11.4137 34.4837 7.94779 30.9783 4.47523 27.4818C3.2701 26.269 3.2634 25.6659 4.50647 24.5595C9.07928 20.4976 13.5896 16.3647 18.2896 12.4513C19.5617 11.3915 21.3939 10.9702 23.003 10.345C25.0383 9.55345 27.1071 8.84838 29.1626 8.11448C30.7895 7.53136 31.5036 7.99032 31.6978 9.73305C32.075 13.0988 34.3603 15.7705 37.44 16.4445C40.7073 17.1585 43.9589 15.9612 45.4564 13.254C46.1371 12.0234 46.454 10.58 46.8289 9.20313C47.1369 8.06792 47.7037 7.60896 48.8285 7.99475C52.2944 9.1854 55.7446 10.4182 59.1904 11.662C59.5609 11.795 59.9023 12.0633 60.2036 12.3294C64.7965 16.3691 69.3805 20.4156 73.9622 24.4664C75.3303 25.677 75.3347 26.2379 74.0381 27.5461C70.6169 30.9894 67.2045 34.4416 63.7588 37.8605C63.1651 38.4503 62.904 39.0379 62.9062 39.8871C62.9353 49.9 62.9263 59.9129 62.9241 69.9236C62.9241 71.7483 62.5313 72.143 60.7169 72.1452C53.5776 72.1452 46.4361 72.1452 39.2968 72.1452V72.143ZM60.034 69.2119C60.034 68.6842 60.034 68.2474 60.034 67.8106C60.034 54.8421 60.034 41.8759 60.034 28.9075C60.034 27.6015 60.5272 26.9186 61.4489 26.9098C62.3372 26.9009 62.8839 27.637 62.8995 28.8986C62.9129 30.0072 62.9018 31.1158 62.9018 32.2244C62.9018 32.9605 62.9018 33.6966 62.9018 34.3529C65.7986 31.6058 68.6217 28.9296 71.5006 26.2002C70.9315 25.6748 70.4829 25.2446 70.0187 24.83C66.6198 21.7924 63.2187 18.7549 59.8108 15.7284C59.2038 15.1896 58.6347 14.5 57.9139 14.2162C55.1354 13.1165 52.3011 12.152 49.4579 11.1255C48.0653 15.9257 45.048 18.9943 40.0422 19.3203C34.2464 19.6972 30.6958 16.5643 29.0019 11.1365C27.1272 11.8194 25.3575 12.5999 23.5118 13.101C21.1708 13.7351 19.314 15.0122 17.6022 16.6507C15.8102 18.3669 13.911 19.9721 12.0564 21.6239C10.4027 23.0984 8.74452 24.5684 7.02609 26.0983C9.94072 28.8897 12.7862 31.6147 15.6272 34.333C15.6272 34.16 15.6272 33.8474 15.6272 33.5326C15.6272 31.7965 15.616 30.0604 15.6383 28.3243C15.6495 27.4995 16.1427 26.9874 16.9394 26.9341C17.754 26.8787 18.2628 27.3488 18.3543 28.178C18.4034 28.617 18.419 29.0604 18.419 29.5039C18.4213 42.2506 18.4213 54.9951 18.4213 67.7418C18.4213 68.2119 18.4213 68.6842 18.4213 69.2163H60.034V69.2119Z" fill="#89897F"/>
</svg>
