<svg width="81" height="80" viewBox="0 0 81 80" fill="none" xmlns="http://www.w3.org/2000/svg">
<path d="M52.6097 13.7997C53.1415 13.7997 53.5451 13.7997 53.9486 13.7997C57.9509 13.7997 61.9511 13.7997 65.9535 13.7997C67.7456 13.7997 68.0167 14.0645 68.0167 15.7887C68.0167 26.1527 67.9939 36.5166 68.0291 46.8826C68.0415 50.5015 66.7543 53.5476 64.2089 56.0847C59.9045 60.3769 55.6 64.669 51.2604 68.9242C44.8575 75.2054 34.978 73.7767 30.6032 65.9622C30.5535 65.876 30.4935 65.7939 30.5328 65.8534C28.662 65.9355 26.8782 66.1901 25.1233 66.0566C18.9212 65.5886 13.8572 60.0485 13.7455 53.9007C13.6751 50.0068 15.0637 46.7861 17.8306 44.0787C20.6512 41.3158 23.4325 38.5098 26.2573 35.751C26.7644 35.2563 26.9672 34.7534 26.9651 34.0472C26.9423 25.7688 26.9506 17.4924 26.9506 9.214C26.9527 7.39944 27.2134 7.14285 29.047 7.14285C36.2217 7.14285 43.3965 7.14285 50.5713 7.14285C52.2806 7.14285 52.6035 7.46718 52.6097 9.19347C52.6138 10.6878 52.6097 12.1822 52.6097 13.7976V13.7997ZM65.4547 39.6818V23.1455H45.0169C45.0169 23.593 45.0169 23.9625 45.0169 24.334C45.0169 30.0815 45.0044 35.829 45.0314 41.5744C45.0355 42.4263 44.7747 43.0564 44.1601 43.6538C41.327 46.4002 38.5312 49.1857 35.8306 51.8501C40.6772 56.6636 45.4659 61.4196 50.1905 66.1121C53.1208 63.2157 56.1153 60.2537 59.1139 57.2917C53.6051 50.8258 57.0445 41.2685 65.4568 39.6839L65.4547 39.6818ZM29.9472 54.9599C31.1536 53.4553 32.1822 51.9548 33.428 50.6616C36.1182 47.8679 38.9079 45.1666 41.6851 42.455C42.1921 41.9603 42.4032 41.4656 42.4011 40.7574C42.3763 33.0271 42.3866 25.2946 42.3866 17.5643C42.3866 17.201 42.3866 16.8356 42.3866 16.4517H29.525V17.632C29.525 23.3795 29.5105 29.127 29.5415 34.8724C29.5457 35.7592 29.2994 36.416 28.6496 37.0441C26.0835 39.5279 23.565 42.0629 21.032 44.5816C20.7774 44.8361 20.5395 45.105 20.2456 45.417C23.4822 48.6151 26.6319 51.7269 29.7837 54.8388C29.8768 54.9291 29.9927 54.9968 29.9472 54.9619V54.9599ZM33.966 53.9582C30.5701 57.8993 31.1971 64.1661 35.2781 67.7603C39.3714 71.3669 45.4659 70.671 48.1169 68.0867C48.0631 68.0067 48.0217 67.9123 47.9513 67.8445C43.3054 63.2301 38.6595 58.6177 33.966 53.9602V53.9582ZM29.2767 63.1316C29.2767 61.6516 29.2415 60.3276 29.2911 59.0057C29.316 58.353 29.198 57.8665 28.6951 57.3779C26.1539 54.9168 23.6498 52.4166 21.1499 49.9124C20.2808 49.042 19.4613 48.1204 18.6107 47.2131C15.8501 50.3311 15.4217 55.551 18.2858 59.4368C21.1044 63.2588 26.1684 64.4063 29.2767 63.1336V63.1316ZM65.4795 16.4497H45.1017V20.397H65.4795V16.4497ZM29.585 13.7176H49.9277V9.7867H29.585V13.7176ZM61.0199 55.4423C65.5996 52.1128 65.8148 47.4163 65.4175 42.416C62.4892 43.1324 60.4674 44.8156 59.5113 47.6134C58.5345 50.4748 59.0891 53.0981 61.022 55.4423H61.0199Z" fill="#89897F"/>
</svg>
