<svg width="81" height="80" viewBox="0 0 81 80" fill="none" xmlns="http://www.w3.org/2000/svg">
<path d="M28.5052 23.9967C28.1753 19.6984 29.2311 16.0122 32.3988 13.118C34.5466 11.1558 37.0903 10.1018 39.988 10.0078C43.7656 9.88374 46.9513 11.2478 49.475 14.074C51.9768 16.8742 52.7267 20.2424 52.4307 23.9087C53.5066 23.9927 54.4725 23.9887 55.4084 24.1567C58.3981 24.6927 60.5439 27.3069 60.6798 30.3251C60.9578 36.5815 61.2998 42.8359 61.6097 49.0924C61.8337 53.6167 62.0957 58.141 62.2517 62.6693C62.4077 67.1956 59.622 69.9997 55.0984 69.9997C45.2995 69.9997 35.5025 69.9997 25.7035 69.9997C21.386 69.9997 18.5283 67.1596 18.6923 62.8293C18.9222 56.7709 19.2962 50.7185 19.5942 44.6621C19.7681 41.1338 19.9081 37.6056 20.0681 34.0774C20.1341 32.6473 20.1721 31.2132 20.2961 29.7871C20.5721 26.6729 23.3778 24.0967 26.5534 24.0007C27.1494 23.9827 27.7453 23.9987 28.5052 23.9987V23.9967ZM40.468 65.9955C45.3675 65.9955 50.2669 65.9955 55.1664 65.9955C57.3042 65.9955 58.3381 64.9874 58.2481 62.8813C58.0561 58.387 57.8221 53.8967 57.5982 49.4044C57.2902 43.216 56.9622 37.0276 56.6683 30.8371C56.5803 28.983 55.6524 27.999 53.8126 27.997C44.9135 27.9909 36.0164 27.9909 27.1174 27.997C25.2776 27.997 24.3397 28.981 24.2657 30.8391C24.1417 33.9693 23.9857 37.0976 23.8277 40.2258C23.4498 47.7443 23.0498 55.2628 22.6858 62.7833C22.5798 64.9734 23.5977 65.9935 25.7675 65.9955C30.667 65.9975 35.5665 65.9955 40.466 65.9955H40.468ZM48.4131 23.9487C48.7671 20.0504 47.7352 16.8562 44.2196 14.9621C41.2939 13.386 38.3522 13.642 35.6785 15.6181C32.8768 17.6903 32.1788 20.6205 32.5408 23.9467H48.4151L48.4131 23.9487Z" fill="#89897F"/>
</svg>
