<svg width="319" height="160" viewBox="0 0 319 160" fill="none" xmlns="http://www.w3.org/2000/svg">
<g clip-path="url(#clip0_5_24051)">
<path fill-rule="evenodd" clip-rule="evenodd" d="M128.65 12.3792C127.07 14.1782 126.134 22.981 126.247 38.6486C126.224 51.4647 125.76 61.7726 124.879 61.4827C123.944 61.323 117.039 52.5364 109.399 42.1894C96.8085 25.0926 95.1437 23.5134 90.5329 24.3123C87.5642 24.8425 84.9787 26.4177 84.6455 27.8312C84.3032 29.0434 87.2455 41.39 91.1045 54.8317C95.295 68.3191 98.0742 79.8797 97.8393 80.4886C97.3389 81.1768 87.6261 74.8427 75.8366 66.7396C61.5692 56.6233 53.259 52.0214 50.4887 52.4754C48.0472 52.9146 45.7543 55.0145 44.9963 57.301C44.0789 60.5292 46.6117 65.263 57.8114 80.8894C65.4666 91.5652 71.307 100.467 70.5212 100.637C69.601 100.813 58.7813 97.9774 46.1833 94.0322C46.1833 94.0322 26 85 23.2934 87.0264C20.5869 89.0529 18.2557 97.4794 19.7463 99.6715C21.0124 101.208 30.5923 109.074 41.0413 116.975C51.4169 124.739 59.9659 131.663 59.8555 132.199C59.6236 132.875 48.0378 133.793 34.2963 133.879C20.3682 134.303 7.6559 135.144 6.30227 135.998C4.94563 136.785 3.46849 139.38 3.31314 141.908C2.91989 144.978 4.20376 146.911 8.21403 149.057C11.0096 150.659 21.874 154.487 32.0529 157.875C42.1529 161.005 50.3218 163.959 50.2054 164.361C49.9644 164.836 40.4299 168.452 28.9789 172.22C17.5921 175.919 6.81962 180.122 5.34987 181.385C3.60865 182.592 2.52716 185.162 2.87916 187.009C3.15499 188.657 4.39558 191.123 5.29925 192.077C6.28209 193.297 19.0169 194.453 33.5748 194.726C48.0777 195.271 60.0511 195.795 60.1451 196.389C60.236 196.916 51.0142 204.498 39.5945 213.45C21.5666 227.539 19.157 230.034 19.6332 234.793C19.7852 238.175 21.1332 240.037 23.5455 240.594C25.2851 240.846 36.3206 238.158 47.7044 234.392C59.1644 230.824 69.0023 228.123 69.6147 228.432C70.2999 228.865 64.5867 237.755 57.288 248.175C46.3583 263.539 43.9097 268.16 45.1369 271.823C46.1449 275.099 47.859 276.279 51.3085 276.124C54.1578 275.929 64.5785 269.887 76.4875 261.646C87.7509 253.704 97.1663 247.438 97.5683 247.554C97.979 247.865 94.9201 259.554 90.716 273.889C84.6767 294.674 83.7361 300.23 85.8901 302.52C87.2874 303.983 90.3269 305.178 92.6519 305.141C95.4952 304.811 100.622 299.336 110.506 285.68C122.632 268.804 124.605 266.92 125.121 271.079C125.566 273.647 125.784 284.328 125.727 294.886C125.545 306.977 126.44 315.24 127.788 317.102C129.204 318.962 131.814 319.443 134.901 318.706C139.287 317.379 140.997 313.987 148.765 291.726C155.694 271.567 157.947 266.947 159.397 269.733C160.48 271.674 164.841 282.969 168.826 294.872C172.881 306.839 177.483 317.524 178.99 318.586C180.488 319.447 183.108 320.129 184.555 319.862C186.069 319.593 188.159 317.314 189.243 314.804C190.121 312.176 191.013 300.914 190.894 289.436C190.985 278.143 191.427 268.831 192.347 268.655C193.076 268.555 199.676 276.555 207.042 286.787C218.017 301.899 221.073 304.949 224.979 304.639C227.633 304.587 230.292 303.142 231.143 301.437C232.111 299.336 230.583 291.968 226.73 278.661C223.45 267.788 220.494 256.632 219.839 253.871C218.957 249.063 220.581 249.723 241.173 263.072C255.953 272.768 264.373 276.969 266.732 276.197C268.497 275.519 270.788 273.359 271.637 271.465C272.84 268.755 270.307 264.021 259.525 248.706C252.077 238.148 246.499 229.242 247.014 228.882C247.526 228.463 257.819 231.389 270.215 235.343C288.269 240.972 293.021 241.821 295.314 239.728C296.976 238.261 298.17 235.35 298.218 233.418C298.181 231.1 290.83 224.19 277.066 213.459C265.302 204.427 255.864 196.884 256.182 196.473C256.298 196.071 268.288 195.465 282.746 195.016C303.773 194.535 309.393 193.886 311.284 191.676C312.739 190.085 313.522 186.862 312.961 184.696C312.337 181.14 307.927 179.079 288.86 173.031C275.997 169.031 265.602 165.316 265.916 164.831C266.032 164.429 275.896 160.799 287.874 156.939C299.843 152.885 310.533 148.484 311.671 147.176C312.739 145.797 313.336 142.784 312.768 140.618C312.323 138.05 310.238 136.086 307.618 135.404C305.084 135.121 292.5 134.49 279.411 134.278C266.584 134.061 255.932 133.471 255.841 132.944C255.68 132.353 265.302 124.686 277.312 115.714C292.656 104.005 298.707 98.2867 298.655 95.6332C298.627 93.5098 296.975 90.7266 294.868 89.6245C291.659 87.6441 289.093 88.1561 270.236 94.1204C258.653 97.9624 248.346 100.55 247.524 100.056C246.647 99.6989 251.594 91.7108 258.563 82.6301C265.592 73.5466 271.817 64.3715 272.274 62.5625C272.84 60.3452 272.379 57.5757 270.827 55.5208C269.547 53.6554 266.641 52.4547 264.593 52.8157C262.545 53.1768 251.823 59.6965 240.943 67.3595C229.872 75.0917 220.482 80.5632 220.111 79.652C219.61 78.8139 222.477 67.1945 226.457 53.871C232.151 34.2311 233.104 28.9372 231.123 26.1754C229.644 24.3862 226.739 23.1855 224.496 23.5486C221.738 24.2709 215.543 31.125 206.908 42.9298C199.337 53.2949 192.937 61.55 192.334 61.4493C191.725 61.2145 191.178 50.5486 191.006 37.7413C190.754 18.8325 190.189 13.7413 187.979 11.8505C186.32 10.3988 183.692 9.52184 182.244 9.78189C180.73 10.0517 178.424 12.011 177.06 14.1297C175.699 16.3156 171.232 27.8052 167.259 39.8038C163.02 51.8748 159.488 61.8634 158.894 61.9574C158.37 62.1154 154.082 50.952 149.227 37.4946C144.293 23.7717 139.229 11.6482 137.722 10.5863C136.215 9.52453 134.123 8.75796 133.208 9.06128C132.157 9.31024 130.099 10.7945 128.644 12.3862" fill="#EC672C"/>
<path d="M99.6363 138.632L91.7163 138.632L91.7163 146L88.8363 146L88.8363 129.2L91.7163 129.2L91.7163 136.088L99.6363 136.088L99.6363 129.2L102.516 129.2L102.516 146L99.6363 146L99.6363 138.632ZM115.091 141.752L108.731 141.752L107.339 146L104.315 146L110.315 129.2L113.675 129.2L119.675 146L116.507 146L115.091 141.752ZM109.571 139.208L114.251 139.208L113.051 135.536L111.923 132.08L110.795 135.536L109.571 139.208ZM125.349 134.96L124.365 132.416L124.365 146L121.485 146L121.485 129.2L125.805 129.2L129.549 138.296L133.293 129.2L137.565 129.2L137.565 146L134.685 146L134.685 132.392L133.677 134.96L130.965 141.56L128.085 141.56L125.349 134.96ZM140.914 129.2L151.954 129.2L151.954 131.744L143.794 131.744L143.794 135.392L146.914 135.392C147.922 135.392 148.81 135.528 149.578 135.8C150.362 136.056 151.018 136.416 151.546 136.88C152.074 137.344 152.474 137.904 152.746 138.56C153.018 139.2 153.154 139.912 153.154 140.696C153.154 142.376 152.65 143.68 151.642 144.608C150.634 145.536 149.058 146 146.914 146L140.914 146L140.914 129.2ZM143.794 137.936L143.794 143.456L146.914 143.456C147.986 143.456 148.786 143.208 149.314 142.712C149.858 142.216 150.13 141.544 150.13 140.696C150.13 139.896 149.85 139.24 149.29 138.728C148.73 138.2 147.938 137.936 146.914 137.936L143.794 137.936ZM155.563 129.2L166.363 129.2L166.363 131.744L158.443 131.744L158.443 136.088L164.923 136.088L164.923 138.632L158.443 138.632L158.443 143.456L166.363 143.456L166.363 146L155.563 146L155.563 129.2ZM168.993 129.2L174.753 129.2C177.009 129.2 178.649 129.68 179.673 130.64C180.713 131.584 181.233 132.952 181.233 134.744C181.233 136.424 180.689 137.768 179.601 138.776C178.513 139.784 176.897 140.288 174.753 140.288L171.873 140.288L171.873 146L168.993 146L168.993 129.2ZM171.873 131.744L171.873 137.744L174.753 137.744C175.905 137.744 176.769 137.472 177.345 136.928C177.921 136.384 178.209 135.656 178.209 134.744C178.209 133.784 177.929 133.048 177.369 132.536C176.825 132.008 175.953 131.744 174.753 131.744L171.873 131.744ZM183.383 129.2L189.023 129.2C190.127 129.2 191.063 129.304 191.831 129.512C192.615 129.72 193.247 130.016 193.727 130.4C194.223 130.784 194.583 131.264 194.807 131.84C195.031 132.4 195.143 133.04 195.143 133.76C195.143 134.496 194.967 135.168 194.615 135.776C194.263 136.384 193.719 136.88 192.983 137.264C193.895 137.632 194.559 138.16 194.975 138.848C195.407 139.52 195.623 140.288 195.623 141.152C195.623 141.952 195.511 142.656 195.287 143.264C195.063 143.856 194.703 144.36 194.207 144.776C193.727 145.176 193.095 145.48 192.311 145.688C191.543 145.896 190.607 146 189.503 146L183.383 146L183.383 129.2ZM186.263 138.536L186.263 143.552L189.503 143.552C190.655 143.552 191.455 143.352 191.903 142.952C192.367 142.536 192.599 141.896 192.599 141.032C192.599 140.184 192.367 139.56 191.903 139.16C191.455 138.744 190.655 138.536 189.503 138.536L186.263 138.536ZM186.263 131.648L186.263 136.184L189.023 136.184C190.159 136.184 190.959 135.992 191.423 135.608C191.887 135.208 192.119 134.64 192.119 133.904C192.119 133.184 191.887 132.632 191.423 132.248C190.959 131.848 190.159 131.648 189.023 131.648L186.263 131.648ZM207.248 141.752L200.888 141.752L199.496 146L196.472 146L202.472 129.2L205.832 129.2L211.832 146L208.664 146L207.248 141.752ZM201.728 139.208L206.408 139.208L205.208 135.536L204.08 132.08L202.952 135.536L201.728 139.208ZM224.441 138.632L216.521 138.632L216.521 146L213.641 146L213.641 129.2L216.521 129.2L216.521 136.088L224.441 136.088L224.441 129.2L227.321 129.2L227.321 146L224.441 146L224.441 138.632Z" fill="#F7F6CC"/>
<path d="M142.509 117.185C142.509 114.185 144.109 108.185 150.509 108.185C158.509 108.185 158.509 117.185 166.509 117.185C172.909 117.185 174.509 111.185 174.509 108.185" stroke="#F7F6CC" stroke-width="2"/>
<circle cx="166.509" cy="111.185" r="2" fill="#248A2E"/>
<circle cx="150.509" cy="114.185" r="2" fill="#43B02A"/>
<path d="M98.5946 109.219L100.847 115.203L99.1354 117.419L96.2251 109.31L88.299 108.546L90.0592 106.267L95.7027 106.91L93.7019 101.55L95.3887 99.3651L98.0686 106.791L106.714 107.605L104.929 109.916L98.5946 109.219Z" fill="#F7F6CC"/>
<path d="M98.2047 96.5959L106.426 89.2881L107.835 90.8726L104.621 93.7293L112.513 102.609L110.719 104.203L102.827 95.3237L99.6131 98.1804L98.2047 96.5959Z" fill="#F7F6CC"/>
<path d="M122.507 95.8301C121.704 96.3069 120.896 96.6168 120.081 96.7597C119.271 96.8843 118.488 96.8455 117.732 96.6434C116.981 96.423 116.268 96.0324 115.593 95.4716C114.919 94.9108 114.313 94.1776 113.774 93.2721L113.243 92.378C112.712 91.484 112.361 90.6067 112.191 89.7462C112.032 88.8789 112.039 88.0683 112.212 87.3144C112.389 86.5423 112.726 85.8303 113.222 85.1784C113.73 84.5197 114.38 83.9553 115.171 83.4854C115.973 83.0085 116.779 82.7078 117.589 82.5832C118.404 82.4403 119.187 82.4791 119.938 82.6995C120.701 82.9131 121.42 83.3003 122.094 83.8611C122.762 84.4104 123.365 85.1379 123.903 86.0434L124.434 86.9374C124.966 87.8315 125.311 88.7122 125.469 89.5795C125.639 90.44 125.636 91.2563 125.459 92.0285C125.293 92.7938 124.956 93.5058 124.448 94.1645C123.945 94.8049 123.298 95.3601 122.507 95.8301ZM121.362 93.9045C122.302 93.3459 122.877 92.5778 123.087 91.6C123.29 90.6107 123.017 89.4856 122.268 88.2248L121.737 87.3307C121.369 86.7118 120.965 86.215 120.525 85.8404C120.09 85.4476 119.637 85.1815 119.167 85.0423C118.701 84.8849 118.226 84.8417 117.741 84.9128C117.249 84.9725 116.774 85.1385 116.315 85.411C115.364 85.9764 114.786 86.7537 114.583 87.7429C114.385 88.7139 114.66 89.8298 115.41 91.0907L115.941 91.9847C116.683 93.2341 117.537 94.006 118.503 94.3005C119.481 94.5882 120.434 94.4562 121.362 93.9045Z" fill="#F7F6CC"/>
<path d="M144.276 87.4086L135.893 89.58L136.645 92.4841L134.399 93.0658L133.116 88.1094L134.239 87.8185C134.387 87.4357 134.492 87.0435 134.554 86.642C134.628 86.2371 134.65 85.7631 134.619 85.2201C134.598 84.6608 134.51 84.0018 134.355 83.2432C134.213 82.4812 133.998 81.5451 133.71 80.4351L132.557 75.982L141.754 73.6001L144.732 85.1006L145.991 84.7747L147.275 89.7311L145.029 90.3128L144.276 87.4086ZM136.034 79.8333C136.291 80.8272 136.496 81.697 136.648 82.4428C136.8 83.1885 136.909 83.849 136.975 84.424C137.041 84.9991 137.062 85.5034 137.036 85.937C137.011 86.3705 136.949 86.7721 136.852 87.1416L142.409 85.7024L139.962 76.2541L135.412 77.4326L136.034 79.8333Z" fill="#F7F6CC"/>
<path d="M154.611 86.609C153.678 86.6525 152.819 86.5459 152.033 86.2889C151.259 86.0181 150.587 85.6157 150.014 85.0818C149.455 84.534 149.009 83.8541 148.678 83.042C148.346 82.2299 148.156 81.2978 148.107 80.2456L148.058 79.2067C148.01 78.1679 148.112 77.2287 148.367 76.3893C148.635 75.5492 149.022 74.837 149.528 74.2527C150.048 73.6545 150.68 73.1845 151.425 72.8427C152.183 72.5003 153.022 72.3076 153.94 72.2646C154.873 72.2211 155.726 72.3347 156.499 72.6056C157.285 72.8625 157.958 73.2649 158.518 73.8127C159.091 74.3599 159.543 75.0395 159.874 75.8516C160.205 76.6503 160.395 77.5758 160.445 78.628L160.493 79.6669C160.542 80.7057 160.432 81.6452 160.164 82.4853C159.91 83.3247 159.523 84.0436 159.004 84.6418C158.498 85.2394 157.866 85.7094 157.107 86.0518C156.362 86.3803 155.53 86.566 154.611 86.609ZM154.506 84.3714C155.598 84.3204 156.467 83.9127 157.112 83.1485C157.756 82.3709 158.044 81.2496 157.976 79.7845L157.927 78.7456C157.894 78.0264 157.771 77.3981 157.559 76.8608C157.36 76.3095 157.085 75.8618 156.735 75.5177C156.398 75.1597 155.999 74.8981 155.537 74.7328C155.075 74.5542 154.578 74.4773 154.045 74.5022C152.94 74.5538 152.065 74.9685 151.42 75.7461C150.789 76.5097 150.507 77.6241 150.575 79.0891L150.624 80.128C150.692 81.5797 151.083 82.6627 151.797 83.3768C152.524 84.0903 153.427 84.4218 154.506 84.3714Z" fill="#F7F6CC"/>
<path d="M173.278 81.9241L166.766 80.8495L165.766 86.9076L163.398 86.5169L165.678 72.7037L168.046 73.0944L167.111 78.7578L173.623 79.8324L174.558 74.169L176.926 74.5598L174.646 88.373L172.278 87.9822L173.278 81.9241Z" fill="#F7F6CC"/>
<path d="M186.394 88.9853L181.449 87.0779L179.093 89.9633L176.742 89.0564L186.445 77.7938L189.058 78.8015L188.684 93.6628L186.221 92.7128L186.394 88.9853ZM182.865 85.3519L186.504 86.7554L186.672 83.5406L186.832 80.5152L184.918 82.864L182.865 85.3519Z" fill="#F7F6CC"/>
<path d="M196.444 82.2101L205.807 87.9833L204.695 89.7878L201.035 87.531L194.8 97.6434L192.757 96.3838L198.992 86.2714L195.332 84.0147L196.444 82.2101Z" fill="#F7F6CC"/>
<path d="M214.29 99.2976L212.369 100.084L202.517 103.517L200.164 101.349L209.649 91.0523L211.414 92.6783L203.839 100.901L205.858 100.068L215.709 96.635L218.034 98.776L208.548 109.073L206.783 107.447L214.29 99.2976Z" fill="#F7F6CC"/>
<path d="M221.375 102.852L222.798 104.784L218.966 107.607L220.389 109.539C221.449 110.978 221.91 112.311 221.771 113.539C221.632 114.768 221 115.797 219.872 116.627C218.67 117.513 217.49 117.844 216.332 117.621C215.192 117.4 214.065 116.533 212.95 115.02L210.103 111.155L221.375 102.852ZM217.259 108.865L213.233 111.83L214.716 113.843C215.278 114.605 215.865 115.042 216.477 115.154C217.1 115.258 217.734 115.073 218.378 114.598C218.99 114.148 219.336 113.595 219.416 112.939C219.504 112.295 219.279 111.607 218.742 110.877L217.259 108.865Z" fill="#F7F6CC"/>
</g>
<defs>
<clipPath id="clip0_5_24051">
<rect width="319" height="160" fill="white" transform="translate(319 160) rotate(180)"/>
</clipPath>
</defs>
</svg>
