<svg width="400" height="200" viewBox="0 0 400 200" fill="none" xmlns="http://www.w3.org/2000/svg">
<g clip-path="url(#clip0_31_16069)">
<g clip-path="url(#clip1_31_16069)">
<path fill-rule="evenodd" clip-rule="evenodd" d="M31.4097 30.4725C33.2797 32.3242 42.8761 33.9288 60.0729 34.8339C74.1323 35.6997 85.4109 36.8862 85.0351 37.8332C84.7985 38.8487 74.7053 45.8471 62.8517 53.5504C43.2678 66.2417 41.426 67.9645 41.9998 73.0757C42.3866 76.3675 43.9451 79.3075 45.474 79.7658C46.7814 80.2209 60.5204 77.8033 75.5211 74.4519C90.5935 70.7397 103.459 68.4494 104.112 68.7471C104.834 69.3412 97.2474 79.5816 87.5834 91.9844C75.5479 106.974 69.9535 115.789 70.2697 118.858C70.5913 121.566 72.7447 124.219 75.2035 125.201C78.685 126.419 84.0449 123.951 101.924 112.689C114.14 104.991 124.289 99.1678 124.424 100.041C124.556 101.062 120.736 112.747 115.58 126.309C115.58 126.309 104.346 147.86 106.392 150.963C108.437 154.065 117.529 157.176 120.032 155.685C121.801 154.396 131.06 144.402 140.415 133.457C149.613 122.583 157.771 113.658 158.352 113.815C159.078 114.113 159.324 126.885 158.517 141.967C158.069 157.275 158.156 171.278 159.004 172.819C159.779 174.359 162.528 176.15 165.292 176.486C168.635 177.119 170.839 175.838 173.457 171.579C175.398 168.617 180.312 156.948 184.697 146.003C188.794 135.128 192.571 126.359 193.005 126.513C193.51 126.809 196.85 137.507 200.234 150.317C203.544 163.053 207.448 175.148 208.737 176.843C209.948 178.833 212.696 180.188 214.745 179.923C216.572 179.729 219.358 178.529 220.465 177.601C221.868 176.602 223.971 162.706 225.227 146.752C226.777 130.877 228.138 117.775 228.796 117.711C229.38 117.645 237.093 128.261 246.164 141.377C260.439 162.081 263.018 164.888 268.271 164.678C271.991 164.734 274.123 163.377 274.892 160.767C275.282 158.875 273.058 146.591 269.673 133.854C266.511 121.047 264.193 110.076 264.572 109.424C265.092 108.701 274.471 115.553 285.424 124.244C301.562 137.244 306.472 140.234 310.571 139.128C314.232 138.237 315.639 136.434 315.696 132.639C315.668 129.501 309.723 117.671 301.464 104.064C293.489 91.1857 287.233 80.4444 287.387 80.011C287.755 79.5808 300.378 83.7041 315.83 89.2576C338.237 97.2479 344.271 98.6445 346.925 96.4316C348.622 94.9947 350.132 91.7384 350.244 89.185C350.069 86.044 344.399 80.0596 330.065 68.3197C312.346 53.9081 310.408 51.6197 315.005 51.3261C317.852 51.0065 329.585 51.4686 341.165 52.2239C354.418 53.2181 363.542 52.7775 365.674 51.4209C367.807 49.9904 368.506 47.1578 367.9 43.7224C366.732 38.8239 363.124 36.7248 339.21 26.7406C317.547 17.8162 312.627 15.0404 315.778 13.6325C317.98 12.5722 330.657 8.52906 343.978 4.93853C357.374 1.27526 369.399 -3.07294 370.663 -4.65662C371.706 -6.24358 372.626 -9.07294 372.428 -10.6783C372.232 -12.3575 369.869 -14.7999 367.187 -16.1542C364.361 -17.289 352.064 -19.0075 339.463 -19.6302C327.079 -20.4712 316.892 -21.5676 316.759 -22.5886C316.697 -23.3944 325.908 -30.1105 337.617 -37.5206C354.917 -48.5695 358.463 -51.7217 358.38 -56.0281C358.497 -58.9432 357.087 -61.9549 355.271 -63.0009C353.03 -64.2009 344.846 -63.0079 329.993 -59.6542C317.85 -56.7699 305.416 -54.2591 302.344 -53.7214C297.011 -53.0694 297.842 -54.8072 313.838 -76.5238C325.447 -92.1026 330.608 -101.065 329.916 -103.704C329.289 -105.685 327.069 -108.339 325.047 -109.396C322.152 -110.893 316.793 -108.425 299.282 -97.601C287.21 -90.1225 277.072 -84.5869 276.711 -85.1756C276.285 -85.7653 280.17 -96.8656 285.322 -110.207C292.684 -129.644 293.927 -134.802 291.781 -137.456C290.281 -139.376 287.166 -140.877 285.049 -141.056C282.504 -141.167 274.439 -133.556 261.763 -119.159C251.081 -106.845 242.186 -96.9863 241.756 -97.3619C241.322 -97.516 241.444 -110.71 241.902 -126.602C242.754 -149.703 242.411 -155.911 240.11 -158.131C238.46 -159.832 234.976 -160.903 232.562 -160.429C228.62 -159.978 226.07 -155.275 218.183 -134.752C212.949 -120.903 208.191 -109.742 207.68 -110.118C207.247 -110.273 203.911 -121.332 200.463 -134.727C196.8 -148.125 192.674 -160.142 191.313 -161.477C189.87 -162.739 186.605 -163.592 184.19 -163.111C181.343 -162.791 179.052 -160.632 178.131 -157.803C177.655 -155.041 176.136 -141.277 175.045 -126.93C173.965 -112.871 172.618 -101.224 172.034 -101.158C171.375 -101.021 163.595 -112.08 154.54 -125.846C142.701 -143.449 136.824 -150.463 133.91 -150.58C131.578 -150.688 128.416 -149.059 127.069 -146.819C124.685 -143.428 125.079 -140.58 130.384 -119.499C133.839 -106.54 136.002 -95.062 135.406 -94.1921C134.956 -93.2535 126.517 -99.2051 117.012 -107.447C107.508 -115.755 97.8499 -123.187 95.8952 -123.807C93.4996 -124.573 90.4308 -124.25 88.0745 -122.682C85.9439 -121.399 84.4359 -118.291 84.6975 -116.02C84.9591 -113.749 91.4083 -101.558 99.1015 -89.1187C106.858 -76.4647 112.244 -65.8028 111.22 -65.4562C110.268 -64.9608 97.7082 -68.869 83.3519 -74.1109C62.1781 -81.6471 56.4326 -83.0395 53.2725 -81.0482C51.2124 -79.5429 49.7044 -76.4342 49.9555 -73.9493C50.567 -70.8757 57.6802 -63.6293 70.0647 -53.3805C80.9396 -44.3946 89.5764 -36.8303 89.4264 -36.1753C89.1288 -35.5225 77.391 -35.6228 63.3284 -36.2746C42.5665 -37.24 36.9437 -36.9542 34.7241 -34.6537C33.0225 -32.9288 31.8879 -30.1026 32.0782 -28.4973C32.2747 -26.8181 34.273 -24.1596 36.508 -22.524C38.8168 -20.8873 51.1292 -15.2327 64.0324 -10.0862C76.9977 -4.64344 87.7246 -0.112613 87.7887 0.54556C87.9277 1.13098 75.3986 5.10249 60.3153 9.54562C44.9356 14.0582 31.3021 18.8182 30.0382 20.4019C28.7744 21.9856 27.796 24.2307 28.0687 25.2538C28.2729 26.4236 29.7662 28.7792 31.417 30.48" fill="#EC672C"/>
<path d="M120.8 33.6844L116.768 40.2124L113.408 40.2124L118.976 31.5004L113.888 23.4124L117.344 23.4124L120.872 29.2444L124.496 23.4124L127.808 23.4124L122.72 31.4044L128.288 40.2124L124.784 40.2124L120.8 33.6844ZM129.018 23.4124L142.218 23.4124L142.218 25.9564L137.058 25.9564L137.058 40.2124L134.178 40.2124L134.178 25.9564L129.018 25.9564L129.018 23.4124ZM150.139 40.4284C149.019 40.4284 147.995 40.2524 147.067 39.9004C146.155 39.5324 145.371 39.0124 144.715 38.3404C144.075 37.6524 143.579 36.8124 143.227 35.8204C142.875 34.8284 142.699 33.7004 142.699 32.4364L142.699 31.1884C142.699 29.9404 142.875 28.8204 143.227 27.8284C143.595 26.8364 144.099 26.0044 144.739 25.3324C145.395 24.6444 146.179 24.1164 147.091 23.7484C148.019 23.3804 149.035 23.1964 150.139 23.1964C151.259 23.1964 152.275 23.3804 153.187 23.7484C154.115 24.1004 154.899 24.6204 155.539 25.3084C156.195 25.9964 156.699 26.8364 157.051 27.8284C157.403 28.8044 157.579 29.9244 157.579 31.1884L157.579 32.4364C157.579 33.6844 157.395 34.8044 157.027 35.7964C156.675 36.7884 156.171 37.6284 155.515 38.3164C154.875 39.0044 154.091 39.5324 153.163 39.9004C152.251 40.2524 151.243 40.4284 150.139 40.4284ZM150.139 37.7404C151.451 37.7404 152.515 37.3004 153.331 36.4204C154.147 35.5244 154.555 34.1964 154.555 32.4364L154.555 31.1884C154.555 30.3244 154.443 29.5644 154.219 28.9084C154.011 28.2364 153.707 27.6844 153.307 27.2524C152.923 26.8044 152.459 26.4684 151.915 26.2444C151.371 26.0044 150.779 25.8844 150.139 25.8844C148.811 25.8844 147.739 26.3324 146.923 27.2284C146.123 28.1084 145.723 29.4284 145.723 31.1884L145.723 32.4364C145.723 34.1804 146.131 35.5004 146.947 36.3964C147.779 37.2924 148.843 37.7404 150.139 37.7404ZM178.074 40.2124L167.682 40.2124L167.682 43.8124L164.898 43.8124L164.898 37.6684L166.29 37.6684C166.578 37.2684 166.818 36.8444 167.01 36.3964C167.218 35.9484 167.386 35.4044 167.514 34.7644C167.658 34.1084 167.754 33.3164 167.802 32.3884C167.866 31.4604 167.898 30.3084 167.898 28.9324L167.898 23.4124L179.298 23.4124L179.298 37.6684L180.858 37.6684L180.858 43.8124L178.074 43.8124L178.074 40.2124ZM170.778 28.9324C170.778 30.1644 170.754 31.2364 170.706 32.1484C170.658 33.0604 170.586 33.8604 170.49 34.5484C170.394 35.2364 170.266 35.8284 170.106 36.3244C169.946 36.8204 169.754 37.2684 169.53 37.6684L176.418 37.6684L176.418 25.9564L170.778 25.9564L170.778 28.9324ZM189.514 40.4284C188.394 40.4284 187.37 40.2524 186.442 39.9004C185.53 39.5324 184.746 39.0124 184.09 38.3404C183.45 37.6524 182.954 36.8124 182.602 35.8204C182.25 34.8284 182.074 33.7004 182.074 32.4364L182.074 31.1884C182.074 29.9404 182.25 28.8204 182.602 27.8284C182.97 26.8364 183.474 26.0044 184.114 25.3324C184.77 24.6444 185.554 24.1164 186.466 23.7484C187.394 23.3804 188.41 23.1964 189.514 23.1964C190.634 23.1964 191.65 23.3804 192.562 23.7484C193.49 24.1004 194.274 24.6204 194.914 25.3084C195.57 25.9964 196.074 26.8364 196.426 27.8284C196.778 28.8044 196.954 29.9244 196.954 31.1884L196.954 32.4364C196.954 33.6844 196.77 34.8044 196.402 35.7964C196.05 36.7884 195.546 37.6284 194.89 38.3164C194.25 39.0044 193.466 39.5324 192.538 39.9004C191.626 40.2524 190.618 40.4284 189.514 40.4284ZM189.514 37.7404C190.826 37.7404 191.89 37.3004 192.706 36.4204C193.522 35.5244 193.93 34.1964 193.93 32.4364L193.93 31.1884C193.93 30.3244 193.818 29.5644 193.594 28.9084C193.386 28.2364 193.082 27.6844 192.682 27.2524C192.298 26.8044 191.834 26.4684 191.29 26.2444C190.746 26.0044 190.154 25.8844 189.514 25.8844C188.186 25.8844 187.114 26.3324 186.298 27.2284C185.498 28.1084 185.098 29.4284 185.098 31.1884L185.098 32.4364C185.098 34.1804 185.506 35.5004 186.322 36.3964C187.154 37.2924 188.218 37.7404 189.514 37.7404ZM210.513 32.8444L202.593 32.8444L202.593 40.2124L199.713 40.2124L199.713 23.4124L202.593 23.4124L202.593 30.3004L210.513 30.3004L210.513 23.4124L213.393 23.4124L213.393 40.2124L210.513 40.2124L210.513 32.8444ZM225.968 35.9644L219.608 35.9644L218.216 40.2124L215.192 40.2124L221.192 23.4124L224.552 23.4124L230.552 40.2124L227.384 40.2124L225.968 35.9644ZM220.448 33.4204L225.128 33.4204L223.928 29.7484L222.8 26.2924L221.672 29.7484L220.448 33.4204ZM229.119 23.4124L242.319 23.4124L242.319 25.9564L237.159 25.9564L237.159 40.2124L234.279 40.2124L234.279 25.9564L229.119 25.9564L229.119 23.4124ZM255.161 26.9164L254.105 29.1724L248.201 40.2124L244.361 40.2124L244.361 23.4124L247.241 23.4124L247.241 36.8284L248.345 34.4524L254.249 23.4124L258.041 23.4124L258.041 40.2124L255.161 40.2124L255.161 26.9164ZM260.08 23.4124L273.28 23.4124L273.28 25.9564L268.12 25.9564L268.12 40.2124L265.24 40.2124L265.24 25.9564L260.08 25.9564L260.08 23.4124ZM275.322 23.4124L278.202 23.4124L278.202 29.1244L281.082 29.1244C283.226 29.1244 284.842 29.6284 285.93 30.6364C287.018 31.6444 287.562 32.9884 287.562 34.6684C287.562 36.4604 287.042 37.8364 286.002 38.7964C284.978 39.7404 283.338 40.2124 281.082 40.2124L275.322 40.2124L275.322 23.4124ZM278.202 31.6684L278.202 37.6684L281.202 37.6684C282.338 37.6684 283.178 37.4124 283.722 36.9004C284.266 36.3724 284.538 35.6284 284.538 34.6684C284.538 33.7564 284.25 33.0284 283.674 32.4844C283.114 31.9404 282.29 31.6684 281.202 31.6684L278.202 31.6684Z" fill="#F7F6CC"/>
<path d="M132.09 75.6864L125.358 71.5154L121.477 77.7788L119.029 76.2621L127.877 61.9806L130.325 63.4974L126.698 69.3528L133.43 73.5238L137.058 67.6684L139.506 69.1851L130.658 83.4666L128.21 81.9498L132.09 75.6864Z" fill="#F7F6CC"/>
<path d="M147.374 86.5487L141.514 84.0755L138.58 87.4478L135.794 86.2719L147.855 73.1274L150.95 74.4341L149.945 92.245L147.026 91.013L147.374 86.5487ZM143.277 82.0584L147.589 83.8783L147.911 80.0287L148.216 76.4061L145.833 79.1514L143.277 82.0584Z" fill="#F7F6CC"/>
<path d="M162.933 84.6952L162.568 81.992L159.404 95.2024L156.604 94.5316L160.516 78.1936L164.718 79.1998L166.24 88.9176L172 80.9438L176.154 81.9388L172.241 98.2767L169.441 97.606L172.61 84.3722L171.032 86.6348L166.857 92.4217L164.056 91.7509L162.933 84.6952Z" fill="#F7F6CC"/>
<path d="M181.795 82.5987L192.804 83.4289L192.612 85.9657L184.475 85.352L184.201 88.9897L187.312 89.2243C188.317 89.3001 189.193 89.5025 189.938 89.8315C190.701 90.1458 191.328 90.5541 191.819 91.0565C192.311 91.5589 192.668 92.1474 192.889 92.8219C193.113 93.4806 193.195 94.2008 193.136 94.9826C193.009 96.6578 192.409 97.9202 191.334 98.7698C190.259 99.6194 188.652 99.9635 186.515 99.8023L180.531 99.3511L181.795 82.5987ZM184.01 91.5265L183.595 97.0309L186.706 97.2655C187.775 97.3461 188.591 97.159 189.155 96.7041C189.735 96.2504 190.057 95.6008 190.12 94.7552C190.18 93.9574 189.951 93.2822 189.431 92.7296C188.912 92.161 188.142 91.8381 187.121 91.7611L184.01 91.5265Z" fill="#F7F6CC"/>
<path d="M197.93 83.4166L208.71 82.753L208.866 85.2922L200.961 85.7789L201.228 90.1146L207.696 89.7164L207.852 92.2556L201.384 92.6538L201.681 97.4687L209.586 96.982L209.742 99.5212L198.963 100.185L197.93 83.4166Z" fill="#F7F6CC"/>
<path d="M213.07 82.1851L218.723 81.0759C220.936 80.6414 222.638 80.7966 223.828 81.5414C225.03 82.2675 225.804 83.5097 226.149 85.2682C226.473 86.9167 226.198 88.3403 225.324 89.539C224.451 90.7376 222.962 91.5434 220.858 91.9563L218.032 92.5109L219.132 98.116L216.306 98.6707L213.07 82.1851ZM216.386 84.1269L217.542 90.0146L220.368 89.4599C221.498 89.2381 222.294 88.8048 222.754 88.16C223.215 87.5153 223.357 86.7455 223.182 85.8505C222.997 84.9085 222.58 84.2402 221.932 83.8456C221.297 83.4323 220.39 83.3411 219.213 83.5722L216.386 84.1269Z" fill="#F7F6CC"/>
<path d="M229.192 78.6234L234.523 76.7821C235.566 76.4217 236.485 76.2144 237.279 76.1603C238.088 76.101 238.782 76.1744 239.361 76.3807C239.955 76.5817 240.452 76.9179 240.852 77.3892C241.246 77.8454 241.561 78.4137 241.796 79.0943C242.036 79.7899 242.089 80.4826 241.955 81.1722C241.821 81.8618 241.469 82.5082 240.898 83.1115C241.881 83.1615 242.681 83.4438 243.298 83.9583C243.926 84.4525 244.381 85.1079 244.663 85.9245C244.924 86.6807 245.048 87.3827 245.035 88.0305C245.016 88.6632 244.841 89.2571 244.508 89.8122C244.185 90.347 243.687 90.8407 243.013 91.2933C242.355 91.7406 241.505 92.1445 240.461 92.5049L234.676 94.5029L229.192 78.6234ZM234.962 86.5077L236.599 91.2488L239.662 90.191C240.751 89.8149 241.442 89.3647 241.734 88.8404C242.037 88.2957 242.048 87.615 241.766 86.7984C241.489 85.9968 241.066 85.4828 240.497 85.2562C239.937 85.0092 239.113 85.0738 238.024 85.4499L234.962 86.5077ZM232.713 79.9971L234.194 84.2845L236.803 83.3835C237.876 83.0126 238.57 82.5699 238.883 82.0555C239.191 81.5259 239.225 80.9133 238.985 80.2176C238.75 79.5371 238.35 79.0911 237.786 78.8796C237.217 78.653 236.396 78.7251 235.322 79.096L232.713 79.9971Z" fill="#F7F6CC"/>
<path d="M258.252 79.9721L252.611 82.9102L253.339 87.3208L250.657 88.7177L248.217 71.0461L251.197 69.4939L264.28 81.622L261.47 83.0855L258.252 79.9721ZM252.181 80.2658L256.331 78.1039L253.571 75.4015L250.974 72.8575L251.57 76.4437L252.181 80.2658Z" fill="#F7F6CC"/>
<path d="M274.478 65.5872L268.105 70.2901L272.48 76.2185L270.163 77.9286L260.187 64.4111L262.504 62.7009L266.594 68.2431L272.967 63.5403L268.877 57.9981L271.194 56.288L281.17 69.8055L278.853 71.5157L274.478 65.5872Z" fill="#F7F6CC"/>
<path d="M184.574 66.3976C184.574 63.3976 186.174 57.3976 192.574 57.3976C200.574 57.3976 200.574 66.3976 208.574 66.3976C214.974 66.3976 216.574 60.3976 216.574 57.3976" stroke="#F7F6CC" stroke-width="2"/>
<circle cx="208.574" cy="60.3976" r="2" fill="#248A2E"/>
<circle cx="192.574" cy="63.3976" r="2" fill="#43B02A"/>
</g>
</g>
<defs>
<clipPath id="clip0_31_16069">
<rect width="400" height="200" fill="white"/>
</clipPath>
<clipPath id="clip1_31_16069">
<rect width="375.539" height="376.79" fill="white" transform="translate(397.167 179.623) rotate(177.426)"/>
</clipPath>
</defs>
</svg>
