<svg width="34" height="34" viewBox="0 0 34 34" fill="none" xmlns="http://www.w3.org/2000/svg">
<path fill-rule="evenodd" clip-rule="evenodd" d="M14.558 0.343095C14.3771 0.530684 14.2321 1.48176 14.1676 3.1832C14.1024 4.57442 14.0014 5.69119 13.9069 5.65542C13.8058 5.63352 13.0968 4.64595 12.3152 3.48538C11.0276 1.56789 10.854 1.38833 10.3479 1.45257C10.0219 1.49563 9.7326 1.65402 9.68938 1.80585C9.64617 1.93577 9.90619 3.29049 10.2607 4.76857C10.6511 6.25322 10.8972 7.52182 10.8686 7.58678C10.8108 7.65904 9.78387 6.92402 8.53942 5.9868C7.03496 4.81894 6.15235 4.2788 5.84838 4.31457C5.5803 4.35033 5.32028 4.56712 5.22652 4.81164C5.11079 5.15762 5.36349 5.68389 6.50686 7.43496C7.28839 8.63129 7.88095 9.62616 7.79452 9.64076C7.69344 9.65536 6.52883 9.29478 5.17598 8.80501L2.71713 7.93276C2.12384 8.81231 2.11724 9.04296 2.26886 9.28821C2.39924 9.4612 3.40417 10.3619 4.50359 11.2707C5.59568 12.1641 6.49294 12.9575 6.47829 13.0152C6.44973 13.0874 5.18331 13.1305 3.68617 13.0728C2.16705 13.0509 0.778314 13.0801 0.626696 13.1663C0.475078 13.2451 0.301485 13.5195 0.272187 13.7933C0.214323 14.1246 0.3447 14.3407 0.77099 14.5932C1.06763 14.7808 2.23224 15.2494 3.32433 15.6669C4.4091 16.056 5.28439 16.4166 5.26974 16.4596C5.24117 16.51 4.18497 16.856 2.91929 17.2093C1.66092 17.5552 0.46702 17.9589 0.300753 18.0888C0.105187 18.2114 -0.0251903 18.4852 0.00410797 18.6873C0.0260817 18.8676 0.149134 19.1413 0.242889 19.2494C0.343968 19.3866 1.72538 19.5742 3.30968 19.6749C4.88666 19.8048 6.18824 19.9202 6.19556 19.9851C6.20289 20.0428 5.16133 20.8209 3.87368 21.7369C1.84111 23.1785 1.56644 23.4376 1.595 23.9566C1.595 24.3245 1.73271 24.5332 1.99273 24.6055C2.18097 24.6413 3.39611 24.4033 4.65447 24.05C5.92016 23.7186 7.00493 23.4734 7.07012 23.5099C7.14263 23.5603 6.47683 24.4975 5.63084 25.5931C4.36515 27.2076 4.07583 27.6974 4.19156 28.1011C4.28532 28.4616 4.46623 28.5981 4.84272 28.5981C5.15401 28.5908 6.31862 27.9857 7.65608 27.1493C8.92177 26.342 9.97797 25.7077 10.0212 25.7223C10.0644 25.758 9.674 27.012 9.1459 28.5478C8.38634 30.7747 8.2567 31.3733 8.48009 31.6324C8.62512 31.7981 8.95033 31.9426 9.20376 31.9499C9.51506 31.928 10.1003 31.3587 11.2437 29.9244C12.647 28.1514 12.8712 27.9565 12.9071 28.4105C12.943 28.6916 12.9144 29.8521 12.8565 30.9981C12.7774 32.3098 12.8345 33.2112 12.9722 33.42C13.1173 33.6287 13.3993 33.6937 13.7391 33.6287C14.2233 33.5061 14.4262 33.1462 15.3813 30.7674C16.2346 28.6127 16.5027 28.1222 16.647 28.4317C16.7554 28.6478 17.1751 29.8952 17.5508 31.2069C17.9339 32.5258 18.3829 33.7083 18.5419 33.8309C18.7008 33.9316 18.9828 34.0185 19.1417 33.9966C19.308 33.9747 19.5468 33.7375 19.6772 33.4703C19.7856 33.1893 19.9379 31.9711 19.9811 30.7244C20.0463 29.4988 20.1401 28.4901 20.2411 28.4755C20.321 28.4682 21.0007 29.3689 21.7529 30.5156C22.8743 32.2098 23.1922 32.5557 23.6192 32.5411C23.9086 32.5484 24.2052 32.4046 24.3063 32.2236C24.422 32.0003 24.2916 31.193 23.9371 29.7295C23.6332 28.5332 23.3658 27.3076 23.3079 27.0047C23.2354 26.4785 23.409 26.558 25.5866 28.1076C27.1489 29.2324 28.0455 29.7295 28.3062 29.6572C28.5018 29.5923 28.7618 29.3689 28.8636 29.1675C29.0079 28.8792 28.7552 28.3529 27.6558 26.6376C26.8962 25.4551 26.3323 24.461 26.3901 24.4245C26.448 24.3814 27.5547 24.7493 28.8856 25.2391C30.8244 25.9383 31.3379 26.0536 31.5979 25.8376C31.7861 25.6865 31.9304 25.3763 31.9451 25.1668C31.9524 24.915 31.1855 24.1289 29.7389 22.8968C28.5018 21.8588 27.5108 20.9939 27.5474 20.9508C27.5621 20.9077 28.871 20.9004 30.4479 20.9223C32.7405 20.9727 33.3558 20.9296 33.5726 20.699C33.7389 20.5333 33.8399 20.1873 33.7894 19.9494C33.7389 19.5603 33.2686 19.3151 31.2214 18.5654C29.84 18.0684 28.7259 17.6144 28.7625 17.5633C28.7772 17.5202 29.8693 17.1742 31.1928 16.8136C32.5164 16.4319 33.7022 16.0064 33.8326 15.8699C33.9557 15.7253 34.0355 15.4013 33.9842 15.1633C33.9483 14.8823 33.7308 14.6589 33.4488 14.5721C33.1741 14.529 31.8066 14.3991 30.382 14.3122C28.9859 14.2261 27.8287 14.11 27.8213 14.0524C27.8067 13.9874 28.8922 13.202 30.2443 12.2867C31.9729 11.0904 32.66 10.4991 32.6673 10.2108C32.6746 9.98017 32.5083 9.66996 32.2842 9.54003C31.9443 9.30938 31.6623 9.35244 29.5792 9.90791C28.2989 10.2685 27.1636 10.4991 27.0764 10.4415C26.9827 10.3984 27.5606 9.55536 28.3641 8.60355C29.1742 7.65174 29.8971 6.68606 29.9557 6.49191C30.0282 6.25395 29.9916 5.95104 29.8327 5.72038C29.7023 5.51163 29.3917 5.36711 29.1669 5.3963C28.942 5.4255 27.7422 6.08096 26.5198 6.85978C25.2761 7.64517 24.2264 8.19334 24.1906 8.09261C24.14 7.99918 24.5092 6.75176 25.008 5.32477C25.7243 3.22042 25.854 2.65036 25.6518 2.34087C25.4995 2.13942 25.1889 1.99489 24.9428 2.02336C24.6388 2.08832 23.9305 2.80218 22.9322 4.04158C22.0569 5.12988 21.3193 5.99483 21.2541 5.98096C21.1889 5.9525 21.1816 4.79193 21.2256 3.40071C21.2908 1.34673 21.2541 0.791264 21.0227 0.575208C20.8491 0.409518 20.5671 0.30149 20.4081 0.322658C20.2419 0.344555 19.9811 0.546012 19.8222 0.769366C19.6632 1.00002 19.1205 2.22555 18.629 3.50874C18.1082 4.7985 17.6746 5.86564 17.6094 5.87294C17.5516 5.88754 17.1392 4.65471 16.6763 3.17006C16.206 1.65621 15.7138 0.315359 15.5549 0.192733C15.3959 0.0701068 15.1718 -0.0233224 15.0707 0.00514432C14.955 0.0270418 14.7236 0.178134 14.5573 0.343825" fill="#EC672C"/>
</svg>
