<svg width="346" height="343" viewBox="0 0 346 343" fill="none" xmlns="http://www.w3.org/2000/svg">
<g clip-path="url(#clip0_151_5157)">
<path d="M115.644 82.0091C115.969 81.9158 117.54 81.6402 119.158 81.3671C120.758 81.1043 123.441 80.6968 125.146 80.4739C127.529 80.1542 130.005 79.5699 136.534 77.8428C141.118 76.6366 147.724 74.9368 151.253 74.0801C154.752 73.2046 161.627 71.4497 166.513 70.1617C174.474 68.076 175.447 67.8474 176.046 68.0563C176.392 68.195 176.926 68.5147 177.238 68.7829C177.549 69.0512 177.895 69.6123 178.015 70.0265C178.135 70.4408 178.132 71.2673 177.993 71.8686C177.875 72.4461 177.574 73.7118 177.321 74.6529C177.069 75.6001 176.473 77.0612 176.009 77.9224C175.496 78.8461 174.661 79.9072 173.932 80.5601C173.252 81.1505 172.099 81.9962 171.392 82.4073C170.477 82.9233 169.559 83.2544 168.515 83.4801C167.399 83.7028 166.553 83.7038 165.579 83.51C164.575 83.2974 163.898 82.9718 163.179 82.3487C162.592 81.8553 161.7 80.785 161.162 79.9732C160.625 79.1615 159.807 77.6006 158.463 74.6044L156.283 75.2235L156.261 76.2208C156.238 76.7956 155.942 78.3355 155.585 79.6651C155.188 81.0999 154.45 82.9775 153.766 84.3051C153.076 85.6083 152.21 86.8686 151.66 87.3526C151.172 87.7969 150.238 88.3942 149.607 88.6661C148.953 88.9435 147.877 89.2018 147.194 89.3C146.489 89.3842 145.371 89.3449 144.697 89.2298C144 89.0946 142.897 88.6998 142.214 88.3499C141.544 87.9715 140.427 87.2025 139.767 86.6168C139.038 85.9511 138.297 85.0065 137.819 84.149C137.415 83.3898 136.949 82.2479 136.45 80.4801L133.934 81.003C132.559 81.2976 130.75 81.7425 129.925 81.9756C129.076 82.2143 127.373 82.5326 126.118 82.6783C125.029 82.8243 123.294 83.0602 122.008 83.2386L121.473 83.3095C120.166 83.5117 118.321 83.8241 117.366 84.0228C116.275 84.2399 115.481 84.2738 115.231 84.1325C114.986 84.0155 114.736 83.7077 114.674 83.4914C114.607 83.2508 114.659 82.8613 114.804 82.6296C114.946 82.3796 115.314 82.11 115.645 82.0152" fill="#EB662C"/>
<path fill-rule="evenodd" clip-rule="evenodd" d="M155.671 38.3586C155.563 38.3897 155.227 37.7046 154.921 36.8718C154.59 35.9552 154.057 34.9951 153.658 34.5677C153.282 34.1543 152.437 33.5725 151.783 33.261C151.128 32.9495 150.068 32.6858 149.396 32.6601C149.324 32.6571 149.261 32.6589 149.189 32.6559C144.724 32.555 141.732 34.7806 139.116 37.6179C138.453 37.1548 137.933 36.8445 137.513 36.6332C136.791 36.2476 135.709 35.7518 135.123 35.5144C134.537 35.2769 133.36 34.9503 132.516 34.7909C131.967 34.692 131.558 34.6383 131.173 34.6366C125.599 35.0446 122.591 38.2979 121.774 43.9892C121.559 44 121.309 43.9995 121.034 44.0045C120.165 44.0172 119.289 44.166 118.791 44.4012C118.331 44.6024 117.475 45.3163 116.882 45.9765C116.805 46.0643 116.725 46.1596 116.639 46.2623C115.293 47.9202 114.378 49.723 113.776 51.6397C113.744 51.7238 113.718 51.8066 113.696 51.8758C113.444 52.6564 113.103 54.0273 112.936 54.9232C112.769 55.8192 112.599 57.0678 112.567 57.6894C112.512 58.739 112.44 58.9026 111.451 59.6532C110.867 60.1002 110.027 60.8553 109.574 61.3427C109.114 61.7998 108.289 62.7883 107.723 63.5384C107.151 64.2642 106.188 65.8602 105.58 67.0424C104.883 68.3985 104.339 69.8924 104.123 70.966C103.825 72.583 103.846 72.8151 104.375 74.4291L104.936 76.1573C103.056 78.3404 102.192 79.5296 101.776 80.2327C101.321 81.0471 100.946 82.2144 100.739 83.4714C100.576 84.5521 100.477 86.2837 100.53 87.3022C100.606 88.3923 100.905 90.1228 101.29 91.475L101.917 93.7708C101.098 94.7066 100.732 95.4047 100.563 95.8978C100.417 96.3854 100.29 97.1762 100.296 97.623C100.284 98.0739 100.453 99.0145 100.647 99.6937C100.845 100.391 101.311 101.366 101.69 101.875C102.073 102.402 102.984 103.276 103.729 103.842C104.479 104.407 106.348 105.434 107.868 106.137C109.368 106.869 110.78 107.603 110.954 107.807C111.159 108.029 111.253 108.359 111.207 108.607C111.18 108.85 110.778 109.338 110.33 109.678C109.85 110.075 109 110.48 108.084 110.734C107.253 110.969 105.939 111.224 105.114 111.316C104.289 111.409 103.405 111.354 103.13 111.219C102.716 111.006 102.565 110.624 101.961 108.343C101.337 105.976 101.196 105.637 100.517 104.908C100.112 104.482 99.3395 103.993 98.8173 103.811C98.2706 103.635 97.0474 103.556 96.0987 103.612C95.1073 103.678 93.7036 103.96 92.8166 104.259C91.9539 104.552 91.2316 104.73 91.2102 104.664C91.1949 104.597 91.4332 103.282 91.7217 101.737C92.2802 98.9597 92.279 98.8703 91.7733 97.1038C91.3255 95.5353 91.1713 95.2249 90.4918 94.663C90.0655 94.3123 89.3526 93.9693 88.934 93.9048C88.4672 93.8257 87.5282 93.9248 86.7641 94.144C86 94.3632 84.409 94.976 83.2069 95.5512C81.9992 96.1021 80.8214 96.531 80.6078 96.5221C80.3643 96.4945 80.1171 96.2821 80.0493 96.0415C79.9816 95.8009 80.0012 94.2858 80.0792 92.6613C80.2005 90.2716 80.1559 89.4304 79.7703 88.0782C79.3781 86.6123 79.228 86.3201 78.3439 85.5361C77.794 85.0087 76.9264 84.5218 76.2374 84.3398C75.6196 84.1607 74.6002 84.0478 73.9606 84.1105C73.2499 84.1703 72.2448 84.4573 71.3406 84.8493C70.5406 85.192 69.3415 85.6961 68.707 85.9497C68.0767 86.2216 67.2699 86.4506 66.9181 86.454L66.2669 86.4939L64.7291 80.655C63.3488 79.6066 62.4211 79.1654 61.785 78.9906C61.1489 78.8157 59.9683 78.7267 59.1431 78.819C58.2712 78.9028 57.1223 79.1778 56.3838 79.4808C55.6878 79.7741 54.3032 80.4486 53.275 80.9713C52.2768 81.5128 51.4324 81.9424 51.3983 81.9053C51.3983 81.9053 51.3928 81.881 51.3709 81.8412C51.3551 81.8 51.3276 81.7359 51.296 81.6535C51.1359 81.2611 50.8027 80.4474 50.4413 79.5378C49.9347 78.2451 49.2277 76.7486 48.8859 76.2057C48.5398 75.6446 47.8211 74.8549 47.261 74.4514C46.6524 73.9758 45.8833 73.6393 44.9128 73.4319C43.1581 73.1027 41.4028 73.1641 39.6405 73.7007C39.2493 73.9245 38.7138 74.3027 38.394 74.5869C38.0413 74.9235 37.4723 75.7447 37.1416 76.4026C36.8166 77.0849 36.3673 78.4869 36.1538 79.4894C35.9519 80.5148 35.6155 81.7374 35.4546 82.1838C35.2596 82.734 34.941 83.1076 34.6574 83.1851C34.3738 83.2626 32.8154 83.2599 31.1747 83.2055C29.0356 83.1304 27.8002 83.1947 26.7713 83.4616C25.7424 83.7284 25.1219 84.0429 24.4937 84.5767C24.0241 84.9912 23.3565 85.8861 23.0085 86.58C22.5636 87.4113 22.356 88.2716 22.3482 89.0799C22.3567 89.7629 22.4298 90.6168 22.5327 90.9837C22.6316 91.3324 22.9333 91.9805 23.166 92.3819C23.5772 93.0881 23.5742 93.1592 23.1837 93.274C22.9427 93.3418 22.3964 93.7289 21.9593 94.1167C21.508 94.527 20.6606 95.7574 20.0693 96.8461C19.318 98.189 18.8692 99.4244 18.6151 100.699C18.4132 101.724 18.3447 102.828 18.4379 103.152C18.5367 103.501 18.836 104.054 19.0899 104.38C19.3737 104.725 20.0095 105.207 20.5171 105.437C21.0322 105.671 22.037 105.973 22.7515 106.098C23.5773 106.262 24.0822 106.479 24.1485 106.714C24.2107 106.93 24.0366 107.571 23.7887 108.114C23.5225 108.662 22.4531 110.212 21.3983 111.572C20.3678 112.928 19.2613 114.512 18.9636 115.117C18.6787 115.695 18.3884 116.67 18.3287 117.279C18.2441 118.06 18.3381 118.64 18.621 119.318C18.8618 119.839 19.3156 120.536 19.661 120.841C20.0105 121.164 20.7519 121.52 21.2955 121.626C21.8451 121.731 23.1096 121.795 24.1224 121.794C25.1052 121.775 26.4927 121.759 27.1719 121.757C27.9466 121.753 28.4237 121.849 28.4873 122.072C28.5397 122.245 28.5181 122.769 28.4303 123.199C28.3223 123.652 27.7429 125.186 27.1268 126.588C26.4864 127.995 25.8853 129.771 25.7409 130.514C25.5213 131.659 25.5729 132.166 25.9993 133.669C26.4623 135.304 26.5629 135.492 27.45 136.205C28.1764 136.776 28.8638 137.035 30.3531 137.297C31.4225 137.488 32.806 137.735 33.4268 137.843C34.1244 137.978 34.7204 138.258 35.0327 138.616C35.453 139.109 35.5446 139.511 35.7605 141.945C35.9323 143.877 36.1571 145.087 36.5022 145.981C36.8759 146.888 37.2463 147.444 37.8521 147.907C38.3654 148.302 39.2146 148.652 39.9407 148.8C40.6327 148.911 42.131 148.96 43.2648 148.899C44.427 148.852 45.5267 148.895 45.7143 148.987C45.9122 149.095 46.1376 149.409 46.2023 149.72C46.2914 150.026 46.2668 150.621 46.1491 151.032C46.0313 151.443 45.6631 152.301 45.3167 152.918C45.1214 153.27 44.7312 153.948 44.2812 154.729C43.9414 155.319 43.5701 155.967 43.2223 156.577C42.3196 158.128 41.672 159.588 41.5149 160.36C41.3257 161.357 41.3789 161.786 41.6985 162.597C42.0014 163.334 42.3834 163.772 43.0731 164.21C43.565 164.539 44.433 164.859 44.9785 164.946C45.5226 165.027 46.4921 165.061 47.1189 165.027C47.7627 164.983 49.9558 164.649 52.0264 164.227C54.0843 163.834 55.8824 163.539 56.012 163.574C56.16 163.604 56.333 163.884 56.4263 164.209C56.5251 164.557 56.5029 165.977 56.3866 167.405C56.2335 169.29 56.2737 170.337 56.5238 171.208C56.8203 172.255 56.978 172.468 57.8024 172.991C58.2901 173.302 59.09 173.548 59.5359 173.536C59.9833 173.53 61.5222 173.307 62.9314 173.049C64.3406 172.791 66.3085 172.425 67.2979 172.238L69.0863 171.9C67.4029 175.114 66.8555 176.423 66.7663 176.846C66.6826 177.294 66.7063 178.044 66.8307 178.477C66.9606 178.934 67.3518 179.58 67.6958 179.88C68.0453 180.203 68.7867 180.559 69.3303 180.665C69.8799 180.77 70.9624 180.766 71.7488 180.644C72.5154 180.521 74.0262 180.118 75.0714 179.726C76.1349 179.33 77.8372 178.755 78.9032 178.455C79.9454 178.133 80.9616 177.895 81.1522 177.916C81.3475 177.929 81.5717 178.153 81.6436 178.412C81.721 178.695 81.6583 179.375 81.5102 179.934C81.362 180.492 80.7462 182.316 80.114 183.984C79.4987 185.642 78.8752 187.685 78.7522 188.494C78.5874 189.485 78.5935 190.354 78.7784 191.08C79.0071 191.886 79.2905 192.397 79.9671 193.03C80.5267 193.6 81.2549 194.01 81.9439 194.192C82.5276 194.334 84.1725 194.407 85.57 194.35C86.9945 194.3 88.3333 194.296 88.5823 194.348C88.8056 194.399 89.0487 194.593 89.1011 194.767C89.1536 194.941 88.9459 196.39 88.6726 198.001C88.1979 200.472 88.1892 201.107 88.4664 202.35C88.7497 203.591 88.9039 203.902 89.5208 204.414C89.8988 204.75 90.6458 205.13 91.1237 205.258C91.831 205.435 92.495 205.367 94.3282 204.917C95.6022 204.6 96.748 204.396 96.8533 204.436C96.9885 204.495 96.8067 204.85 96.4826 205.199C96.164 205.573 95.3471 206.937 94.6761 208.211C93.999 209.485 93.3557 211.104 93.2157 211.783C93.0295 212.709 93.0751 213.358 93.3599 214.381C93.7338 215.71 93.8034 215.79 94.7951 216.287C95.3783 216.596 96.3278 216.795 97.0599 216.801C97.7208 216.804 98.6598 216.705 99.1173 216.574C99.8997 216.351 99.9296 216.37 100.154 217.157C100.284 217.614 100.73 218.53 101.132 219.194C101.75 220.217 102.154 220.554 103.69 221.413C104.697 221.977 106.003 222.505 106.57 222.6C107.161 222.689 107.65 222.84 107.676 222.923C107.701 223.033 107.308 223.615 106.825 224.251C106.327 224.908 105.655 225.951 105.356 226.551C105.038 227.18 104.75 227.995 104.71 228.356C104.677 228.742 104.666 229.454 104.693 229.967C104.744 230.582 105.02 231.371 105.526 232.324C105.94 233.126 106.526 233.952 106.832 234.196C107.138 234.44 107.929 234.733 108.598 234.856C109.271 234.996 111.063 234.984 112.58 234.862C114.097 234.74 115.555 234.638 115.797 234.659C116.23 234.701 116.214 234.801 115.757 235.776C115.472 236.353 114.89 237.203 114.43 237.66C113.611 238.506 113.586 238.512 111.466 238.829C109.999 239.055 109.096 239.287 108.62 239.587C108.235 239.81 107.832 239.953 107.739 239.885C107.628 239.82 107.3 239.421 107.014 238.981C106.729 238.547 105.883 237.818 105.149 237.384C104.429 236.927 103.163 236.435 102.35 236.243C101.547 236.068 100.19 235.936 99.3497 235.962C98.5037 235.963 96.9948 236.205 95.9653 236.497C94.5872 236.863 93.7628 237.211 92.8255 237.88C92.115 238.362 91.1657 239.174 90.7028 239.702C90.6314 239.782 90.5586 239.856 90.4858 239.931C90.0936 240.347 89.7882 240.666 89.7348 240.685C89.6677 240.7 88.8983 240.306 88.0149 239.778C87.0719 239.27 85.7473 238.746 84.8447 238.555C83.9762 238.401 82.6232 238.288 81.8316 238.302C80.8502 238.328 79.8182 238.525 78.7478 238.891C77.8054 239.227 76.8157 239.722 76.3832 240.102C75.969 240.479 75.2389 241.465 74.7522 242.337C74.1055 243.464 73.7508 244.55 73.4217 246.367L72.975 248.875C69.8475 248.655 69.242 248.754 66.9956 249.389C64.8393 249.996 64.2104 250.274 63.3125 250.946C62.7346 251.392 62.0074 252.166 61.7072 252.676C61.4008 253.188 61.1171 253.995 61.0573 254.463C61.0022 254.924 61.146 255.947 61.3692 256.728C61.6248 257.624 62.1404 258.703 62.7819 259.632C63.3212 260.45 63.9395 261.474 64.1492 261.887L64.5161 262.68C62.6725 262.326 61.5107 262.207 60.7312 262.219C59.9523 262.205 58.6884 262.397 57.8985 262.616C56.8794 262.925 56.2231 263.28 55.5492 263.895C55.044 264.349 54.3393 265.278 54.0087 265.936C53.678 266.594 53.2901 267.815 53.1258 268.64C52.9047 269.862 52.9304 270.368 53.3216 271.745C53.7097 273.193 53.9265 273.553 55.1112 274.896C55.8397 275.728 56.8245 276.7 57.2981 277.034C57.7786 277.398 58.1566 277.734 58.1495 277.787C58.1165 277.839 57.6087 278.198 57.0151 278.602C56.4214 279.007 55.2469 279.928 54.4191 280.654C53.5913 281.381 52.61 282.418 52.261 282.939C51.912 283.461 51.5067 284.353 51.3586 284.912C51.2105 285.471 51.151 286.502 51.2062 287.194C51.3019 288.202 51.4928 288.786 52.1162 290.001C52.5641 290.839 53.3293 291.945 53.8207 292.441C54.3121 292.937 55.1482 293.623 55.67 293.971L56.6083 294.628C55.4986 295.86 54.9052 296.687 54.5917 297.251C54.2884 297.833 53.9696 298.795 53.8855 299.41C53.7608 300.296 53.8293 300.792 54.261 301.897C54.6005 302.767 55.1709 303.693 55.8201 304.403C56.3725 305.026 57.4101 305.864 58.12 306.278L59.4215 307.037C57.3769 310.634 57.0702 311.453 56.959 312.567C56.8461 313.757 56.9487 314.432 57.424 316.205C57.997 318.238 58.1121 318.461 59.0267 319.379C59.5766 319.907 60.5064 320.61 61.1024 320.89C61.7039 321.194 62.8628 321.525 63.6729 321.647C64.4829 321.77 65.3375 321.863 65.5796 321.884C65.9369 321.905 65.9595 322.06 65.7574 323.674C65.6109 324.661 65.6041 326.289 65.6997 327.298C65.8499 328.742 66.042 329.415 66.5291 330.482C66.9032 331.222 67.3998 332.05 67.6623 332.329C67.9364 332.631 68.6287 333.165 69.2333 333.539C69.8136 333.918 70.8836 334.365 71.5824 334.59C72.3013 334.791 73.3518 335.012 73.9568 335.079C74.5848 335.134 75.6077 335.009 76.3489 334.802C77.3722 334.51 77.7945 334.254 78.3246 333.627L78.9745 332.852C80.296 334.035 81.239 334.684 81.9555 335.071C82.6538 335.462 83.9103 335.911 84.7417 336.099C85.5445 336.275 86.9687 336.391 87.8503 336.35C89.2037 336.297 89.6851 336.187 90.718 335.657C91.3981 335.323 92.3897 334.667 92.9066 334.236C93.4418 333.8 94.2999 332.926 94.83 332.299L95.7986 331.15C98.7396 331.874 100.29 332.122 101.15 332.156C102.012 332.196 103.221 332.157 103.833 332.056C104.717 331.943 105.161 331.752 105.832 331.209C106.312 330.811 107.111 329.905 107.61 329.171C108.115 328.46 108.771 327.12 109.077 326.186C109.381 325.272 109.662 323.921 109.715 323.198C109.793 322.47 109.753 321.256 109.682 320.498C109.589 319.751 109.525 319.106 109.538 319.078C109.557 319.048 110.116 319.029 110.753 319.037C111.461 319.049 112.407 318.897 113.108 318.628C113.785 318.364 114.689 317.8 115.27 317.283C115.795 316.805 116.501 315.965 116.825 315.449C117.156 314.958 117.484 314.205 117.578 313.773C117.664 313.254 117.585 312.709 117.236 311.912C116.998 311.32 116.217 310.058 115.498 309.102C114.81 308.164 114.131 307.269 113.995 307.121C113.813 306.887 114.103 306.668 115.458 305.974C116.406 305.495 117.716 304.633 118.4 304.061C119.079 303.471 120.01 302.356 120.5 301.578C120.971 300.837 121.477 299.627 121.619 298.954C121.783 298.129 121.75 297.17 121.538 296.099L121.533 296.081C121.227 294.512 121.227 294.486 121.77 294.759C122.073 294.907 122.672 295.116 123.068 295.193C123.488 295.263 124.462 295.29 125.274 295.252L126.73 295.144C127.137 297.573 127.468 298.995 127.744 299.81C128.002 300.634 128.546 301.892 128.929 302.586C129.323 303.302 129.953 304.209 130.329 304.622C130.706 305.035 131.559 305.711 132.234 306.114C132.895 306.539 133.885 306.941 134.428 307.047C135.179 307.189 135.728 307.154 136.652 306.821C137.595 306.484 138.024 306.175 138.646 305.387L139.453 304.402C140.437 307.871 140.536 308.053 141.469 308.852C142.182 309.451 142.859 309.776 143.728 309.93C144.42 310.041 145.312 310.048 145.729 309.934C146.145 309.82 147.073 309.365 147.794 308.9C148.546 308.402 149.63 307.392 150.398 306.462C151.118 305.6 151.978 304.482 152.3 304.037L152.882 303.187C154.294 307.269 154.68 308.032 155.331 308.837C155.803 309.414 156.678 310.104 157.29 310.426C157.898 310.728 158.958 310.992 159.7 311.041C160.692 311.064 161.442 310.95 162.831 310.46C164.098 310.03 164.877 309.622 165.402 309.144C165.816 308.768 166.326 308.081 166.567 307.591C166.787 307.125 166.945 306.353 166.923 305.865C166.93 305.39 166.773 304.254 166.627 303.334C166.462 302.411 166.442 301.596 166.539 301.516C166.651 301.414 167.104 301.433 167.547 301.491C167.972 301.586 169.359 302.159 170.62 302.768C171.858 303.388 173.45 304.017 174.129 304.182C175.214 304.44 175.631 304.415 177.136 303.988C178.546 303.564 179.044 303.329 179.792 302.646C180.399 302.079 180.79 301.458 180.963 300.785C181.111 300.226 181.141 299.176 181.046 298.423L180.833 297.096C184.089 296.365 185.602 295.885 186.293 295.574C187.082 295.208 187.818 294.643 188.3 294.085C188.701 293.597 189.118 292.727 189.249 292.121C189.392 291.372 189.342 290.705 189.077 289.767C188.812 288.829 188.294 287.91 187.281 286.502C186.486 285.436 185.873 284.519 185.906 284.467C185.943 284.433 187.281 284.172 188.885 283.928C190.504 283.661 192.207 283.342 192.683 283.208C193.159 283.074 193.852 282.685 194.206 282.355C194.596 281.984 194.958 281.268 195.104 280.614C195.293 279.783 195.263 279.176 194.982 278.196C194.778 277.475 194.271 276.349 193.845 275.69C193.444 275.027 192.795 274.151 192.419 273.737C192.024 273.328 191.245 272.584 190.687 272.103C190.63 272.052 190.575 272.007 190.519 271.956L190.358 271.814C189.941 271.448 189.614 271.164 189.6 271.103C189.584 271.036 190.403 270.69 191.429 270.327C192.754 269.839 193.598 269.41 194.253 268.825C194.76 268.377 195.607 267.287 196.142 266.429C196.653 265.576 197.201 264.356 197.358 263.725C197.534 263.09 197.702 262.027 197.752 261.376C197.805 260.653 197.699 259.602 197.454 258.749C197.161 257.721 196.847 257.102 196.33 256.522C195.948 256.084 195.301 255.636 194.937 255.502L194.266 255.29C195.685 254.064 196 253.505 196.329 252.419C196.67 251.215 196.849 250.93 197.343 250.766C197.668 250.673 198.193 250.361 198.496 250.087C198.817 249.809 199.205 249.176 199.397 248.697C199.576 248.247 199.778 247.055 199.835 246.095C199.897 245.159 199.892 244.212 199.84 244.039C199.794 243.864 199.812 243.693 199.921 243.662C200.006 243.642 201.168 243.735 202.507 243.897C203.851 244.058 205.514 244.293 206.193 244.432C206.89 244.567 207.756 244.792 208.179 244.958C208.581 245.122 209.075 245.458 209.29 245.729C209.506 246 209.691 246.559 209.726 247.018C209.756 247.46 209.589 249.367 209.346 251.253C209.034 253.648 208.983 255.055 209.158 255.905C209.357 256.864 209.543 257.257 210.043 257.706C210.417 258.024 211.118 258.344 211.634 258.412C212.374 258.538 212.993 258.384 215.184 257.647C216.625 257.164 217.819 256.808 217.841 256.874C217.856 256.941 217.661 257.657 217.371 258.466C217.111 259.294 216.818 260.34 216.73 260.77C216.646 261.218 216.605 262.078 216.634 262.68C216.692 263.467 216.858 264.056 217.231 264.707C217.515 265.218 218.111 265.895 218.55 266.217C219.136 266.621 219.728 266.8 220.474 266.783C221.392 266.785 221.844 266.631 223.187 265.972C224.056 265.537 224.948 265.122 225.165 265.06C225.448 264.982 225.551 265.093 225.572 265.581C225.605 265.951 225.446 267.39 225.239 268.813C225.009 270.248 224.819 272.001 224.814 272.706C224.803 273.419 224.918 274.398 225.053 274.879C225.189 275.36 225.605 276.091 225.963 276.508C226.297 276.931 226.985 277.446 227.446 277.668C227.935 277.902 228.763 278.071 229.324 278.058C229.859 278.045 230.881 277.831 231.583 277.562C232.29 277.318 233.391 276.721 234.04 276.252C234.685 275.791 235.413 275.273 235.651 275.11L236.109 274.813C236.148 277.538 236.311 279.095 236.501 280.011C236.73 281.239 237.01 281.988 237.501 282.792C237.936 283.492 238.52 284.057 239.108 284.384C239.604 284.648 240.319 284.914 240.699 284.923C241.06 284.962 241.898 284.841 242.556 284.659C243.254 284.461 244.178 283.988 244.779 283.531C245.32 283.119 246.442 281.999 247.261 281.063C248.055 280.133 248.763 279.389 248.834 279.392C248.893 279.423 248.931 280.068 248.893 280.857C248.88 281.641 249.007 283.18 249.212 284.305C249.405 285.573 249.766 286.842 250.128 287.7C250.461 288.456 250.914 289.319 251.15 289.649C251.386 289.98 251.907 290.494 252.318 290.778C252.71 291.092 253.523 291.45 254.119 291.564C254.975 291.746 255.543 291.681 257.024 291.259C258.529 290.833 259.131 290.548 260.194 289.729C260.908 289.176 261.514 288.743 261.567 288.75C261.626 288.782 261.929 289.353 262.259 290.039C262.595 290.724 263.153 291.627 263.506 292.02C263.882 292.434 264.535 292.906 264.958 293.072C265.409 293.25 266.459 293.471 267.331 293.554C268.588 293.671 269.276 293.597 270.757 293.175C272.324 292.709 272.773 292.485 273.638 291.698C274.201 291.186 274.785 290.432 274.922 289.991C275.077 289.546 275.144 288.775 275.083 288.226L274.973 287.265C278.227 288.942 279.593 289.45 280.657 289.616C281.899 289.832 282.619 289.815 283.516 289.559C284.28 289.34 284.999 288.978 285.461 288.533C285.869 288.158 286.464 287.421 286.79 286.911C287.12 286.419 287.507 285.531 287.654 284.966C287.778 284.413 287.871 283.559 287.85 283.072C287.804 282.423 287.885 282.187 288.141 282.186C288.22 282.193 288.415 282.206 288.683 282.228L288.701 282.224C289.101 282.261 289.647 282.296 290.189 282.339C291.103 282.412 292.945 282.337 294.267 282.176C295.967 281.955 297.361 281.63 299.123 281.036C300.48 280.579 302.145 279.898 302.81 279.497C303.481 279.12 304.337 278.406 304.724 277.94C305.163 277.417 305.51 276.634 305.665 275.856C305.845 274.816 305.787 274.196 305.254 271.917C304.903 270.435 304.644 269.189 304.695 269.107C304.745 269.044 304.97 268.82 305.211 268.586C305.471 268.347 306.974 267.825 309.22 267.19C311.207 266.628 313.247 265.932 313.806 265.657C314.335 265.364 315.222 264.668 315.763 264.09C316.397 263.414 316.913 262.586 317.196 261.747C317.563 260.633 317.552 260.328 317.222 259.501C317.005 258.974 316.382 258.041 315.805 257.424C315.253 256.801 314.675 256.094 314.506 255.832L314.238 255.387C315.933 255.455 317.78 255.43 319.468 255.41L319.666 255.409C321.561 255.367 323.402 255.203 324.25 254.959C325.278 254.692 325.879 254.401 326.423 253.893C326.837 253.517 327.372 252.825 327.64 252.373C327.915 251.92 328.198 251.107 328.29 250.586C328.396 250.037 328.382 248.907 328.28 248.041L328.104 246.513C330.308 245.888 331.436 245.381 332.035 245.001C332.642 244.568 333.362 243.847 333.695 243.284C334.104 242.577 334.288 241.894 334.28 240.878C334.29 239.91 334.114 238.97 333.761 237.956C333.468 237.095 332.959 236.129 332.579 235.698C332.202 235.284 331.244 234.569 330.435 234.113L328.955 233.305C329.889 232.452 330.63 231.655 331.197 230.995C331.737 230.327 332.449 229.345 332.744 228.811C333.039 228.276 333.393 227.357 333.483 226.767C333.637 226.066 333.583 225.297 333.334 224.4C333.09 223.528 332.72 222.806 332.225 222.24C331.827 221.761 330.962 221.114 330.307 220.802C329.648 220.473 328.58 220.115 327.898 220.021C327.481 219.963 327.025 219.906 326.691 219.874C326.501 219.853 326.349 219.837 326.269 219.823C325.913 219.808 325.951 219.608 326.509 218.597C326.868 217.952 327.291 216.799 327.434 216.049C327.577 215.3 327.638 214.108 327.606 213.405C327.52 212.439 327.369 211.891 326.955 211.115C326.622 210.525 325.972 209.815 325.427 209.447C324.929 209.093 324.04 208.707 323.49 208.602C322.941 208.497 321.903 208.389 321.185 208.36C319.953 208.328 319.878 208.307 319.819 207.686C319.788 207.322 319.585 206.434 319.382 205.712C319.126 204.817 318.789 204.209 318.364 203.781C318.009 203.433 317.382 203.045 316.979 202.881C316.398 202.668 315.91 202.69 314.778 203.012C313.929 203.251 312.776 203.763 312.043 204.257C310.924 204.973 310.737 205.054 310.569 204.792C310.457 204.638 309.982 204.299 309.521 204.078C309.06 203.856 307.98 203.616 307.118 203.576C305.829 203.518 305.087 203.637 302.624 204.333C300.136 205.035 299.549 205.297 298.828 205.904C298.144 206.476 297.875 206.953 297.544 208.2L297.099 209.787C295.282 209.523 294.204 209.545 293.533 209.666C292.525 209.858 292.106 210.043 291.255 210.781C290.692 211.294 290.005 212.104 289.776 212.617C289.517 213.111 289.266 213.725 289.222 213.979C289.114 214.432 289.072 214.448 287.805 214.398C286.883 214.378 286.186 214.499 285.453 214.826C284.885 215.058 283.93 215.679 283.363 216.174C282.795 216.662 282.143 217.342 281.904 217.672L281.481 218.261C280.495 217.033 279.946 216.595 279.636 216.499C279.3 216.403 278.233 216.448 277.229 216.569C276.211 216.718 274.671 217.101 273.716 217.467L272.011 218.086C271.286 215.531 271.07 215.171 270.38 214.566C269.789 214.055 269.086 213.755 268.224 213.599C267.503 213.476 266.194 213.416 265.294 213.487C264.417 213.546 262.846 213.828 261.821 214.113C260.802 214.423 259.89 214.612 259.786 214.578C259.657 214.543 259.864 213.85 260.217 213.039C260.578 212.233 260.95 211.137 261.041 210.611C261.133 210.116 261.18 209.28 261.134 208.772C261.076 208.151 260.854 207.6 260.425 207.013C260.052 206.529 259.359 205.995 258.687 205.688C257.957 205.355 256.858 205.145 255.745 205.13C254.77 205.097 253.416 205.15 252.794 205.26L251.601 205.455C252.646 203.322 253.031 202.197 253.105 201.54C253.246 200.695 253.169 200.105 252.874 199.32C252.596 198.578 252.171 198.009 251.482 197.404C250.744 196.785 250.125 196.517 249.084 196.338C247.843 196.123 247.317 196.179 245.225 196.675L242.802 197.267C245.335 192.662 246.041 191.067 246.242 190.119C246.406 189.294 246.512 188.156 246.445 187.582C246.358 186.949 246.088 186.243 245.742 185.682C245.411 185.188 244.642 184.46 244.015 184.072C243.383 183.66 242.317 183.231 241.621 183.102C240.953 182.985 239.028 182.919 237.347 182.97C235.69 183.015 234.065 183.028 233.757 182.944C233.438 182.895 233.201 182.726 233.236 182.596C233.27 182.467 233.603 182.071 233.993 181.7C234.37 181.358 235.186 180.749 235.78 180.345C236.379 179.965 237.222 179.279 237.662 178.846C238.085 178.423 238.577 177.575 238.751 176.959C238.998 176.16 239.002 175.589 238.786 174.755L238.463 173.619C240.45 172.89 241.377 172.346 241.829 171.936C242.261 171.555 242.743 170.831 242.893 170.361C243.047 169.916 243.184 169.053 243.178 168.466C243.191 167.848 242.867 166.29 242.425 164.72C242.009 163.26 241.694 162.051 241.737 162.041C241.762 162.036 242.395 162.115 243.128 162.21C243.867 162.33 244.938 162.36 245.501 162.27C246.164 162.196 246.908 161.917 247.634 161.476C248.453 160.963 248.887 160.505 249.365 159.596C249.696 158.938 250.028 157.781 250.09 157.011C250.161 156.259 250.12 154.956 250.011 154.085C249.891 153.248 249.635 151.93 249.417 151.141L249.016 149.722C253.204 148.299 254.944 147.524 255.895 146.974C256.78 146.439 258.128 145.466 258.888 144.806C259.623 144.152 260.56 143.061 260.981 142.376C261.414 141.663 261.724 140.747 261.776 140.101C261.85 139.189 261.765 138.901 261.341 138.223C261.048 137.784 260.108 136.782 259.247 135.987C258.386 135.191 257.665 134.479 257.634 134.37C257.615 134.285 258.201 134.043 258.966 133.83C259.707 133.622 261.605 133.343 263.199 133.222C264.782 133.078 266.626 132.843 267.276 132.656C267.932 132.468 268.944 132.045 269.476 131.706C270.196 131.241 270.663 130.731 271.136 129.823C271.569 128.943 271.768 128.155 271.761 127.197C271.762 126.275 271.62 125.539 271.292 124.807C271.054 124.215 270.604 123.447 270.308 123.079C270.02 122.716 269.801 122.376 269.815 122.322C269.852 122.288 270.622 121.926 271.548 121.548C272.469 121.146 273.984 120.339 274.926 119.747C275.866 119.148 277.041 118.227 277.538 117.736C278.053 117.215 278.781 116.3 279.174 115.692C279.567 115.084 279.969 114.006 280.106 113.232C280.296 112.069 280.258 111.68 279.801 110.492C279.501 109.683 278.984 108.764 278.511 108.264C278.095 107.79 277.418 107.157 277.026 106.843L276.304 106.291C278.539 104.878 279.581 104.135 280.046 103.702C280.51 103.263 281.215 102.501 281.635 101.982C282.136 101.343 282.423 100.605 282.588 99.614C282.781 98.3795 282.753 98.0337 282.29 96.8207C281.982 96.059 281.306 94.6706 280.756 93.7208C280.222 92.7607 279.509 91.5729 279.168 91.0361L278.551 90.1016C275.582 90.9393 274.388 91.2119 273.975 91.2293C273.552 91.2298 273.209 91.1865 273.178 91.0784C273.158 90.9932 273.468 90.6922 273.879 90.3871C274.266 90.0876 276.126 88.9973 278.009 87.921C279.873 86.849 282.114 85.4606 283.011 84.7823C283.877 84.1109 284.936 83.1074 285.363 82.5361C285.791 81.9649 286.217 81.3044 286.322 81.0885C286.421 80.8482 286.59 80.2142 286.712 79.655C286.865 78.948 286.822 78.2795 286.556 77.3415C286.349 76.6015 285.926 75.7057 285.569 75.2625C285.235 74.8393 284.614 74.309 284.189 74.0475C283.769 73.8104 282.894 73.5429 282.212 73.4746C281.548 73.3764 279.997 73.4873 278.8 73.6645C277.583 73.8654 276.664 73.9407 276.733 73.8482C276.797 73.7375 277.783 73.058 278.938 72.3016C280.093 71.5514 281.571 70.4715 282.227 69.861C282.888 69.2748 283.714 68.2862 284.078 67.6653C284.443 67.0443 284.82 65.9725 284.96 65.294C285.152 64.226 285.106 63.7436 284.576 61.8676C284.082 60.1241 283.82 59.5374 283.271 58.9328C282.895 58.5194 282.227 57.9806 281.745 57.6937C281.267 57.4252 280.672 57.1512 280.395 57.0865C279.916 56.9845 279.931 56.9364 280.442 55.9172C280.745 55.3359 281.218 54.2614 281.509 53.5421C281.771 52.8101 282.06 51.8288 282.097 51.3723C282.152 50.9116 282.06 50.0877 281.909 49.5396C281.753 48.9929 281.386 48.1997 281.105 47.7837C280.842 47.3636 280.194 46.7433 279.702 46.4139C279.21 46.0845 278.26 45.7382 277.596 45.64C276.934 45.5479 275.958 45.5145 275.445 45.542L274.478 45.6284C276.501 42.1326 277.247 40.5989 277.464 39.9477C277.656 39.3021 277.848 38.4006 277.885 37.9441C277.897 37.4932 277.802 36.7403 277.672 36.2835C277.546 35.8449 277.216 35.1842 276.957 34.8337C276.678 34.5132 276.022 33.9397 275.477 33.6032C274.931 33.2606 274.063 32.9402 273.53 32.8825C272.86 32.8371 272.05 32.9706 270.849 33.3793L269.129 33.9638C268.223 30.7524 267.979 30.3281 267.316 29.6409C266.8 29.1505 266.072 28.7407 265.365 28.5628C264.346 28.2833 263.999 28.3111 262.264 28.8544C261.198 29.1553 259.57 29.8279 258.67 30.2957C257.764 30.7649 256.538 31.4864 255.95 31.9151C255.722 32.0695 255.507 32.2211 255.324 32.3461C255.036 32.5461 254.842 32.68 254.83 32.6828C254.787 32.6925 254.728 32.5717 254.685 32.4149C254.649 32.2824 254.21 31.8194 253.691 31.4001C253.201 30.9935 252.302 30.565 251.729 30.4717C250.814 30.3093 250.376 30.358 248.831 30.8899C247.473 31.347 246.779 31.7038 246.166 32.3046C245.697 32.719 244.734 34.1485 244.002 35.4614L242.673 37.8388C239.978 38.6457 238.804 39.1443 238.327 39.4708C237.849 39.7912 237.165 40.5298 236.803 41.0796C236.441 41.6295 235.967 42.6146 235.751 43.2657C235.558 43.9114 235.194 45.3771 234.986 46.5448C234.778 47.7124 234.561 49.5415 234.536 50.6099L234.479 52.5815C233.159 52.4155 232.353 52.4779 231.853 52.6176C231.328 52.763 230.579 53.1899 230.161 53.5478C229.747 53.924 229.095 54.8601 228.696 55.6106C228.284 56.3895 227.854 57.7101 227.696 58.5593C227.565 59.4212 227.497 60.525 227.571 61.0201C227.682 61.8399 227.592 62.0076 226.712 62.8165C226.174 63.3234 225.352 64.3302 224.863 65.1076C224.374 65.885 223.741 67.2136 223.421 68.0868C223.124 68.9483 222.734 70.4711 222.535 71.4511L222.2 73.2687C219.585 74.0319 218.414 74.4594 217.897 74.7245C217.747 74.7971 217.602 74.8623 217.475 74.9233C217.162 75.0714 216.937 75.1804 216.915 75.1664C216.886 75.1537 216.597 74.6179 216.278 74.0059C215.964 73.3863 215.299 72.469 214.806 71.967C214.309 71.4724 213.574 70.9489 213.144 70.8357C212.733 70.7184 211.957 70.633 211.438 70.6362C210.92 70.6393 209.714 70.8632 208.75 71.1344C207.793 71.4042 206.56 71.8713 205.987 72.2004C205.639 72.3886 205.257 72.5974 204.977 72.7446L204.817 72.8323C204.731 72.8775 204.664 72.9185 204.618 72.9418C204.361 73.1092 204.192 73.0134 203.972 72.5835C203.812 72.2744 203.008 71.4209 202.162 70.6922C201.322 69.9621 199.683 68.8449 198.523 68.2325L196.42 67.1317C197.094 65.1983 197.444 64.0108 197.63 63.2515C197.816 62.4922 197.95 61.0597 197.985 60.0853C197.998 58.8789 197.869 57.9225 197.564 57.0897C197.217 56.1061 196.986 55.7941 196.276 55.3801C195.714 55.0538 194.878 54.8733 193.768 54.8388C192.269 54.7903 191.627 54.9241 187.485 56.1C184.932 56.8235 182.831 57.3927 182.821 57.3501C182.815 57.3257 183.149 56.4301 183.555 55.371C183.966 54.3361 184.438 52.6666 184.62 51.7226C184.802 50.7785 184.928 49.5592 184.919 49.0427C184.916 48.5249 184.768 47.5984 184.602 47.0091C184.43 46.3955 184.071 45.5555 183.786 45.1213C183.48 44.6215 182.795 44.0353 182.02 43.6169C181.013 43.053 180.382 42.9025 179.199 42.8846C178.092 42.894 176.922 43.0778 174.978 43.6304C173.293 44.0853 172.308 44.2653 172.339 44.1175C172.373 43.988 172.491 42.9881 172.612 41.9171C172.799 40.2358 172.743 39.7108 172.309 38.0881C171.835 36.404 171.696 36.1605 170.997 35.6286C170.577 35.3021 169.83 34.9221 169.341 34.7775C169.025 34.6833 168.385 34.6052 167.678 34.5682C163.3 34.6522 159.388 36.2748 155.612 38.3529M128.264 38.0978C128.993 37.5857 129.818 37.186 130.443 37.0563C131.085 36.9225 131.951 36.9809 132.918 37.2275C133.736 37.444 135.176 38.0499 136.143 38.5525C137.088 39.0666 138.492 39.9368 140.57 41.5429L140.782 43.37C140.92 44.6764 141.089 45.3611 141.382 45.7486C141.585 46.0479 142.009 46.3033 142.324 46.3338C142.638 46.3644 143.066 46.2156 143.417 45.9563C143.73 45.7249 144.107 45.242 144.24 44.8722C144.411 44.4684 144.401 43.8626 144.22 43.2957C144.069 42.7734 143.696 41.9558 143.418 41.4688C142.904 40.6453 142.872 40.5372 143.215 39.5949C143.404 39.0203 143.893 38.1536 144.301 37.6123C144.721 37.0939 145.435 36.3741 145.93 36.0434C146.421 35.6945 147.312 35.2735 147.903 35.1068C148.625 34.9034 149.346 34.8862 150.006 35.0555C150.56 35.1787 151.322 35.6256 151.74 36.0232C152.33 36.612 152.589 37.1032 153.449 40.1395L152.679 41.4866C152.141 42.4159 151.918 43.1199 151.924 43.8226C151.926 44.5069 152.087 45.0719 152.426 45.6859C152.699 46.1486 153.165 46.7016 153.483 46.9169C153.796 47.108 154.184 47.237 154.341 47.1947C154.479 47.1824 154.795 46.8799 155.039 46.5745C155.28 46.2508 155.525 45.305 155.631 44.3336C155.721 43.4104 155.8 42.3491 155.805 41.951C155.809 41.3803 156.006 41.0921 156.854 40.4249C157.432 39.9794 158.724 39.2107 159.768 38.7292C160.801 38.2247 162.331 37.6258 163.156 37.3927C164.005 37.154 165.301 36.9032 166.06 36.8322C166.82 36.7613 167.865 36.7915 168.386 36.8838C168.882 36.9756 169.478 37.2557 169.694 37.5008C169.928 37.7417 170.157 38.3807 170.268 39.034C170.373 39.6629 170.406 40.7627 170.353 41.4854C170.3 42.208 170.083 43.4481 169.879 44.2116C169.557 45.4117 169.272 45.8223 168.012 47.0958C167.187 47.9179 166.371 48.7825 166.184 49.0301C165.995 49.2715 165.793 49.7338 165.744 50.0522C165.655 50.4759 165.723 50.7164 166.053 51.0698C166.269 51.3407 166.73 51.5362 167.054 51.5201C167.375 51.4978 167.993 51.2544 168.432 50.9878C168.877 50.7197 169.514 50.1391 169.836 49.6944C170.163 49.2741 170.596 48.5607 170.81 48.1471C171.159 47.4593 171.391 47.2974 173.412 46.5162C174.979 45.8833 176.178 45.5457 177.507 45.3318C178.525 45.1829 179.711 45.1297 180.108 45.2119C180.528 45.2824 181.145 45.628 181.519 45.946C182.03 46.412 182.205 46.788 182.436 47.8555C182.633 48.7194 182.645 49.7538 182.49 50.7877C182.341 51.6795 182.031 52.9919 181.807 53.6959C181.563 54.4238 180.913 55.9549 180.377 57.1205C179.505 58.9454 179.229 59.3092 178.243 59.9887C177.504 60.4583 177 61.0022 176.821 61.4528C176.58 62.1095 176.589 62.2035 177.046 62.6625C177.435 63.0473 177.741 63.1247 178.432 62.9797C179.099 62.8403 179.496 62.5833 180.027 61.9628C180.522 61.3762 181.273 60.8782 182.5 60.2974C183.483 59.8555 185.671 59.0232 187.39 58.4387C189.332 57.8164 191.154 57.3491 192.183 57.2231C193.07 57.1169 194.189 57.0789 195.441 57.3374L195.665 58.7137C195.828 59.7071 195.768 60.7385 195.44 62.3367C195.201 63.5627 194.833 65.0102 194.184 66.4642L192.753 66.2339C191.943 66.1115 190.618 66.0105 189.778 66.0359C188.895 66.071 187.859 66.2499 187.308 66.478C186.781 66.6944 186.075 67.1116 185.759 67.4141C185.419 67.7221 185.005 68.2391 184.825 68.6003C184.657 68.9331 184.462 69.4832 184.441 69.8144C184.398 70.1572 184.431 70.9497 184.49 71.5701C184.597 72.461 184.73 72.8467 185.199 73.3286C185.507 73.6679 186.171 74.022 186.644 74.0997C187.135 74.1732 188.258 74.0642 189.274 73.8259C190.451 73.5636 191.425 73.1941 192.151 72.7531C192.773 72.3615 193.721 71.4859 195.416 69.3067L196.673 69.8454C197.341 70.1284 198.574 70.8134 199.367 71.3685C200.185 71.9179 201.242 72.8417 201.714 73.419C202.532 74.3909 202.581 74.4948 202.29 74.7917C202.192 74.8972 201.972 75.1396 201.689 75.4473C201.443 75.7148 201.157 76.036 200.87 76.3512C200.264 77.0399 199.265 78.5034 198.65 79.572C197.969 80.8285 197.517 81.9685 197.424 82.6555C197.325 83.6254 197.377 83.8248 197.818 84.3833C198.114 84.7512 198.584 85.015 198.924 85.0401C199.285 85.0792 199.894 84.8826 200.442 84.5848C200.958 84.3197 201.935 83.5461 202.665 82.8675C203.37 82.1944 204.273 81.0666 204.665 80.369C205.121 79.5545 205.433 78.5934 205.517 77.723C205.584 76.9523 205.571 76.0784 205.483 75.7784C205.353 75.3215 205.468 75.1482 206.194 74.7072C206.652 74.4106 208.139 73.8472 209.494 73.4674C211.957 72.7708 211.982 72.7653 212.754 73.2548C213.212 73.5471 213.776 74.1929 214.119 74.8252C214.446 75.3905 214.758 76.0811 214.826 76.3217C214.893 76.5623 214.786 76.8493 214.609 76.9729C214.402 77.0777 213.773 77.7781 213.196 78.4795C212.525 79.3561 211.962 80.4318 211.563 81.6047C211.26 82.6084 210.982 83.8881 210.989 84.4818C210.998 85.4206 211.05 85.62 211.634 86.1845C212.071 86.6096 212.655 86.8667 213.383 86.9632C214.158 87.0486 214.684 86.9926 215.28 86.6837C215.881 86.393 216.298 85.9457 216.832 84.9982C217.277 84.1669 217.561 83.1673 217.652 82.2441C217.708 81.4504 217.737 80.2852 217.693 79.6424C217.67 79.3724 217.641 79.0781 217.613 78.8156C217.581 78.4773 217.557 78.1756 217.538 78.0389C217.513 77.7886 217.694 77.4274 217.956 77.2586C218.213 77.0912 219.224 76.662 222.04 75.6289L222.44 77.3811C222.791 78.8628 222.977 79.2557 223.621 79.9728C224.037 80.4475 224.829 81.163 225.377 81.601C225.925 82.033 226.771 82.4544 227.268 82.5265C227.793 82.6371 228.415 82.5785 228.785 82.4043C229.265 82.1733 229.525 81.7682 229.847 80.7346C230.091 80.0068 230.24 78.8077 230.209 78.1106C230.136 77.1159 230.001 76.6348 229.565 75.934C229.257 75.4282 228.642 74.7556 228.173 74.4403C227.728 74.1194 226.743 73.7104 226.013 73.5442C225.257 73.3775 224.622 73.2087 224.588 73.1717C224.535 73.1646 224.669 72.3724 224.867 71.4181C225.072 70.4881 225.536 69.038 225.904 68.1794C226.244 67.3081 226.792 66.2549 227.125 65.8332C227.447 65.3885 227.885 64.866 228.089 64.6657C228.438 64.3109 228.547 64.3691 229.328 65.3751C229.78 65.9762 230.505 66.7131 230.893 67.0086C231.31 67.3168 231.956 67.675 232.357 67.7755C232.744 67.8984 233.334 67.8982 233.703 67.7755C234.118 67.6552 234.435 67.3588 234.606 66.955C234.739 66.5853 234.752 65.9678 234.577 65.451C234.441 64.9698 233.876 64.0682 233.348 63.4398C232.796 62.8169 231.996 62.1482 231.539 61.9452C231.082 61.7421 230.532 61.5478 230.272 61.479C229.847 61.3841 229.821 61.3003 229.853 60.064C229.864 59.3511 230.083 58.2064 230.327 57.5043C230.581 56.819 231.073 55.9705 231.397 55.6213C231.697 55.2776 232.211 54.9171 232.513 54.8354C232.819 54.7462 233.443 54.7831 233.903 54.915C234.644 55.1298 234.746 55.2409 235.033 56.2445C235.2 56.8338 235.527 57.5656 235.747 57.8547C235.954 58.1723 236.473 58.5915 236.902 58.8455C237.322 59.0826 237.963 59.25 238.346 59.2138C238.782 59.1591 239.171 58.955 239.439 58.6697C239.753 58.2718 239.765 57.9874 239.526 57.1393C239.307 56.3764 238.943 55.8194 238.079 54.9541C237.455 54.3283 236.877 53.6217 236.809 53.3811C236.741 53.1405 236.73 51.9396 236.786 50.7235C236.846 49.5256 237.06 47.6269 237.289 46.5247C237.519 45.4226 237.934 43.9837 238.199 43.3213C238.562 42.4384 238.958 41.9256 239.663 41.4191C240.213 41.0502 240.932 40.662 241.96 40.3891L241.77 41.5526C241.673 42.1956 241.596 43.3462 241.607 44.1246C241.638 44.9882 241.788 45.8436 242.029 46.3648C242.23 46.8246 242.698 47.4729 243.019 47.7838C243.35 48.1114 243.962 48.4584 244.382 48.529C244.802 48.5995 245.306 48.6188 245.523 48.5566C245.721 48.4985 246.163 48.1608 246.487 47.8115C246.793 47.4665 247.131 46.7557 247.242 46.231C247.34 45.7349 247.37 44.6848 247.318 43.9222C247.26 43.1353 247.006 42.0794 246.768 41.4871C246.506 40.9005 245.991 40.077 244.929 38.8216L245.622 37.2808C245.996 36.4465 246.523 35.4685 246.817 35.1005C247.107 34.7143 247.611 34.1703 247.951 33.8623C248.309 33.5501 249.098 33.1588 249.858 32.9471C250.971 32.6289 251.282 32.6413 251.863 32.9695C252.253 33.1878 252.691 33.5615 252.829 33.8051C253.024 34.1512 252.963 34.6132 252.606 35.5204C252.187 36.6081 252.166 36.965 252.437 37.9273C252.662 38.7146 253.017 39.3183 253.515 39.8129C254.138 40.4387 254.349 40.5186 254.982 40.3422C255.505 40.1908 255.789 39.9467 255.981 39.4676C256.115 39.0979 256.152 37.9117 255.897 34.7755L256.976 33.998C257.558 33.5707 258.748 32.8574 259.588 32.4096C260.433 31.9801 261.869 31.3899 262.778 31.1055C264.184 30.6631 264.53 30.6353 265.025 30.8936C265.352 31.0622 265.839 31.5142 266.086 31.8931C266.315 32.2762 266.642 33.1746 266.744 33.8746C266.876 34.5934 266.869 35.3246 266.768 35.4694C266.672 35.6128 266.166 36.2021 265.577 36.8806C265.46 37.016 265.333 37.1603 265.212 37.3031C264.476 38.124 263.69 39.1739 263.464 39.616C263.256 40.0539 262.959 40.9154 262.851 41.5355C262.721 42.2308 262.73 43.0289 262.902 43.6425C263.059 44.1892 263.446 44.9011 263.749 45.216C264.119 45.6051 264.552 45.8137 264.975 45.7874C265.321 45.7596 265.822 45.6198 266.103 45.4469C266.389 45.2982 266.971 44.4485 267.416 43.5915C267.985 42.5144 268.388 41.1933 268.695 39.363C269.163 36.779 269.19 36.7023 270.043 36.226C270.507 35.9538 271.325 35.607 271.873 35.45C272.414 35.2944 273.179 35.2478 273.598 35.3123C274.018 35.3829 274.577 35.697 274.855 36.0175C275.133 36.3381 275.435 36.8196 275.525 37.1257C275.614 37.4318 275.618 38.039 275.53 38.4688C275.44 38.9181 274.568 40.743 273.611 42.5041C272.658 44.2835 271.833 46.1169 271.76 46.6136C271.673 47.2992 271.748 47.6534 272.019 48.0268C272.216 48.3018 272.618 48.4916 272.918 48.4553C273.198 48.4489 274.073 48.294 274.866 48.1132C275.706 47.9213 276.726 47.8677 277.3 47.9671C277.902 48.105 278.538 48.4207 278.885 48.8153C279.222 49.1673 279.589 49.7939 279.703 50.2096C279.833 50.6664 279.798 51.3848 279.6 52.0061C279.429 52.5765 278.821 53.8995 277.225 56.8498L275.655 57.1315C274.743 57.3204 273.874 57.589 273.566 57.8386C273.248 58.0457 272.932 58.5147 272.845 58.8672C272.725 59.3492 272.765 59.6665 273.092 60.1424C273.308 60.5026 273.768 60.9419 274.095 61.1105C274.484 61.3288 274.96 61.3354 275.587 61.1346C276.111 60.9832 276.892 60.504 277.468 59.963C278.358 59.1195 278.486 59.0585 279.13 59.1866C279.508 59.2669 280.146 59.5372 280.57 59.7926C280.989 60.0297 281.518 60.4658 281.715 60.7666C281.947 61.0786 282.258 61.7692 282.419 62.3342C282.586 62.9235 282.712 63.7845 282.729 64.2542C282.727 64.7477 282.571 65.5258 282.354 66.0104C282.11 66.4824 281.588 67.2863 281.135 67.7738C280.692 68.2781 279.222 69.4202 277.859 70.3267C276.489 71.2347 274.774 72.2598 274.028 72.6156C273.099 73.0646 272.576 73.4719 272.344 73.9154C272.134 74.2578 272.047 74.7769 272.12 75.0418C272.186 75.3278 272.561 75.7669 272.926 76.0422C273.308 76.3134 273.998 76.5847 274.461 76.6456C274.918 76.6821 276.466 76.5015 277.882 76.2424C279.285 75.9605 280.849 75.7317 281.331 75.7112C281.797 75.7009 282.499 75.8287 282.897 76.0002C283.283 76.2003 283.784 76.7131 284.028 77.1632C284.306 77.6502 284.494 78.3051 284.491 78.7986C284.503 79.2439 284.269 80.0144 283.981 80.4961C283.699 81.0021 283.048 81.7717 282.522 82.25C282.021 82.7229 280.825 83.5783 279.885 84.177C278.945 84.7757 277.133 85.8549 275.848 86.5707C274.564 87.2669 273.081 88.1817 272.528 88.5702C271.959 88.969 271.335 89.6876 271.068 90.2348C270.732 90.8942 270.632 91.4417 270.758 91.8803C270.862 92.2534 271.264 92.7505 271.675 93.0344C272.15 93.3741 272.828 93.5331 273.655 93.5362C274.316 93.539 275.489 93.3674 277.609 92.7684L278.609 94.5373C279.151 95.5399 279.822 96.904 280.092 97.6105C280.585 98.8422 280.576 98.9147 280.079 99.969C279.767 100.623 279.052 101.509 278.257 102.183C277.541 102.808 276.23 103.747 275.339 104.283C273.967 105.096 273.345 105.321 271.139 105.824C268.725 106.369 268.5 106.478 268.218 106.984C268.045 107.293 267.94 107.675 267.976 107.807C268.017 107.958 268.273 108.265 268.52 108.477C268.779 108.712 269.287 108.942 269.688 109.017C270.066 109.097 271.369 108.966 272.593 108.712C274.598 108.312 274.878 108.3 275.476 108.675C275.847 108.898 276.445 109.44 276.804 109.857C277.18 110.271 277.597 111.001 277.732 111.483C277.899 112.072 277.886 112.689 277.661 113.387C277.471 113.962 277.15 114.662 276.971 114.946C276.776 115.241 276.019 115.996 275.308 116.645C274.585 117.27 273.305 118.151 272.514 118.588C271.698 119.03 270.168 119.629 269.126 119.925C267.291 120.42 267.154 120.439 266.015 120.001C265.358 119.761 264.453 119.474 264.029 119.385C263.58 119.302 262.925 119.324 262.58 119.415C262.231 119.514 261.814 119.795 261.693 120.021C261.547 120.253 261.483 120.619 261.541 120.817C261.603 121.034 261.943 121.481 262.288 121.786C262.638 122.11 263.413 122.502 264.015 122.64C264.603 122.801 265.391 122.909 265.785 122.896C266.178 122.876 266.647 122.936 266.851 123.017C267.038 123.103 267.602 123.582 268.081 124.106C268.665 124.728 269.062 125.399 269.266 126.127C269.464 126.825 269.495 127.522 269.352 128.105C269.232 128.587 268.854 129.262 268.5 129.593C267.98 130.095 267.514 130.272 266.181 130.557C265.269 130.746 263.474 130.97 262.197 131.05C260.931 131.147 259.188 131.404 258.363 131.637C257.532 131.872 256.607 132.256 256.317 132.475C256.005 132.707 255.635 133.137 255.461 133.445C255.243 133.835 255.23 134.285 255.408 134.923C255.615 135.663 256.057 136.222 257.6 137.675C258.661 138.674 259.563 139.621 259.599 139.747C259.639 139.898 259.487 140.438 259.248 140.909C259.032 141.393 258.293 142.285 257.644 142.894C256.984 143.487 255.761 144.393 254.944 144.913C254.125 145.426 252.475 146.174 251.293 146.584C250.11 146.989 248.87 147.342 248.524 147.37C248.058 147.38 247.611 147.137 246.932 146.408C246.411 145.894 245.632 145.316 245.205 145.132C244.782 144.966 244.324 144.84 244.21 144.873C244.1 144.898 243.823 145.172 243.602 145.466C243.299 145.881 243.249 146.225 243.468 146.988C243.635 147.577 243.983 148.234 244.345 148.58C244.694 148.904 245.351 149.31 246.72 149.721L247.302 152.27C247.62 153.664 247.891 155.356 247.908 155.992C247.929 156.647 247.781 157.628 247.582 158.16C247.342 158.791 246.923 159.315 246.465 159.612C245.841 159.997 245.445 160.088 244.405 160.082C243.698 160.07 242.632 159.897 242.063 159.707C241.201 159.411 240.954 159.199 240.661 158.504C240.459 158.044 240.105 157.53 239.867 157.36C239.641 157.213 239.131 157.169 238.745 157.302C238.372 157.407 237.938 157.698 237.815 157.918C237.668 158.144 237.568 158.55 237.57 158.812C237.571 159.068 237.842 159.608 238.16 159.99C238.614 160.52 239.046 161.625 239.872 164.291C240.745 167.133 240.964 168.062 240.896 168.833C240.831 169.532 240.63 169.969 240.104 170.447C239.523 170.964 239.106 171.155 237.828 171.402C236.533 171.653 236.033 171.626 234.964 171.268C234.26 171.019 233.164 170.738 232.539 170.612C231.918 170.504 230.731 170.135 229.906 169.805C229.062 169.479 228.214 169.244 228.04 169.296C227.864 169.343 227.573 169.64 227.4 169.948C227.227 170.256 227.132 170.656 227.18 170.837C227.232 171.011 227.628 171.343 228.048 171.58C228.496 171.829 229.703 172.341 230.723 172.71C231.773 173.098 233.296 173.563 234.117 173.709C234.939 173.854 235.777 174.155 235.953 174.365C236.129 174.574 236.389 175.066 236.493 175.439C236.623 175.895 236.574 176.38 236.356 176.776C236.15 177.136 235.156 178.035 234.139 178.773C233.125 179.529 232.005 180.464 231.668 180.867C231.325 181.246 230.974 181.986 230.9 182.476C230.809 182.977 230.785 183.571 230.842 183.763C230.879 183.985 231.193 184.349 231.499 184.593C231.804 184.837 232.584 185.107 233.206 185.221C233.85 185.343 235.486 185.379 236.886 185.335C238.258 185.278 239.812 185.262 240.341 185.302C240.874 185.365 241.706 185.553 242.181 185.726C242.632 185.905 243.275 186.334 243.573 186.657C243.948 187.064 244.156 187.554 244.212 188.079C244.265 188.509 244.082 189.53 243.83 190.311C243.577 191.085 242.856 192.614 242.265 193.677C241.432 195.14 240.787 195.934 239.714 196.826C239.538 196.981 239.345 197.147 239.157 197.305C238.535 197.837 237.928 198.353 237.673 198.61C237.296 198.952 237.057 199.423 237.085 199.769C237.107 200.09 237.258 200.472 237.419 200.614C237.598 200.753 238.091 200.921 238.543 200.934C239.142 200.976 240.357 200.68 242.921 199.838C245.249 199.083 246.88 198.672 247.643 198.62C248.478 198.57 249.056 198.713 249.741 199.133C250.31 199.49 250.727 199.939 250.825 200.287C250.924 200.636 250.857 201.407 250.664 202.052C250.472 202.698 250.035 203.649 249.667 204.2C249.33 204.745 248.739 205.5 248.408 205.902C248.065 206.281 247.252 206.819 246.628 207.09C245.997 207.362 245.28 207.73 245.047 207.918C244.796 208.109 244.559 208.528 244.538 208.86C244.491 209.274 244.586 209.604 244.847 209.877C245.082 210.118 245.376 210.339 245.535 210.392C245.693 210.439 246.172 210.401 246.588 210.286C247.003 210.166 247.725 209.733 248.199 209.311C248.878 208.72 249.429 208.492 250.915 208.095C251.944 207.829 253.449 207.568 254.278 207.494C255.109 207.426 256.255 207.478 256.852 207.592C257.42 207.693 258.111 207.97 258.382 208.171C258.727 208.476 258.868 208.815 258.916 209.387C258.946 209.828 258.687 210.911 258.343 211.764C257.997 212.637 257.518 213.598 257.273 213.903C257.029 214.209 256.024 215.059 255.049 215.787C253.723 216.775 253.245 217.236 253.25 217.593C253.252 217.855 253.366 218.245 253.5 218.464C253.633 218.683 253.871 218.853 254.022 218.812C254.16 218.8 256.802 218.075 259.86 217.23C264.687 215.885 265.601 215.702 266.633 215.787C267.304 215.832 268.169 216.057 268.608 216.264C269.056 216.514 269.432 216.927 269.521 217.233C269.61 217.54 269.676 218.107 269.643 218.499C269.63 219.116 269.467 219.3 268.45 219.872C267.799 220.219 266.813 220.899 266.282 221.353C265.635 221.891 265.193 222.51 265.035 223.026C264.903 223.485 264.892 224.198 265.003 224.57C265.138 225.051 265.456 225.433 265.904 225.683C266.411 225.964 266.844 226.006 267.434 225.839C267.916 225.704 268.606 225.245 269.153 224.666C269.663 224.146 270.425 223.076 271.594 220.812L273.619 220.049C274.725 219.643 276.335 219.167 277.185 219.018C278.019 218.878 278.829 218.834 278.97 218.917C279.085 219 279.399 219.504 279.64 220.026C280.007 220.819 280.018 221.123 279.75 221.998C279.561 222.572 279.403 223.511 279.36 224.109C279.342 224.702 279.47 225.825 279.636 226.581C279.953 227.859 280.042 228.025 280.652 228.25C281.026 228.402 281.517 228.475 281.754 228.389C281.995 228.322 282.307 228.09 282.459 227.883C282.592 227.68 282.818 227.238 282.928 226.879C283.038 226.515 283.059 225.429 282.992 224.433C282.906 223.466 282.745 222.313 282.625 221.898C282.449 221.266 282.539 220.932 283.204 219.942C283.634 219.299 284.354 218.437 284.834 218.04C285.304 217.625 286.067 217.15 286.528 216.949C287.162 216.696 287.585 216.695 288.267 216.93C288.814 217.106 289.351 217.521 289.706 218.01C290.015 218.438 290.484 218.92 290.74 219.086C290.996 219.252 291.463 219.305 291.784 219.193C292.09 219.104 292.404 218.879 292.513 218.681C292.627 218.508 292.627 218.085 292.528 217.737C292.435 217.412 292.099 216.894 291.806 216.596C291.228 216.056 291.235 216.003 291.483 214.871C291.634 214.241 291.932 213.469 292.177 213.163C292.421 212.858 292.986 212.441 293.441 212.215C294.029 211.953 294.61 211.859 295.368 211.949C295.973 212.015 296.878 212.302 297.384 212.583C297.867 212.87 298.503 213.045 298.786 212.967C299.057 212.918 299.395 212.63 299.556 212.35C299.76 211.983 299.767 211.674 299.551 211.263C299.351 210.892 299.344 210.356 299.524 209.572C299.675 208.943 299.966 208.223 300.196 207.966C300.416 207.666 301.303 207.227 302.391 206.825C303.466 206.452 304.825 206.116 305.704 206.031C306.534 205.963 307.574 205.994 308.028 206.102C308.469 206.238 308.898 206.518 308.956 206.716C309.018 206.932 308.814 207.555 308.501 208.093C308.207 208.628 307.954 209.402 307.963 209.778C307.953 210.158 308.095 210.753 308.284 211.074C308.45 211.408 309.003 211.864 309.492 212.098C309.953 212.319 310.58 212.452 310.863 212.374C311.133 212.319 311.558 211.992 311.828 211.629C312.085 211.295 312.285 210.654 312.276 210.138C312.266 209.673 312.15 208.854 311.743 207.411L312.878 206.595C313.484 206.162 314.375 205.626 314.835 205.425C315.296 205.224 315.92 205.094 316.244 205.167C316.569 205.241 316.913 205.54 317.124 205.933C317.3 206.309 317.494 207.078 317.537 207.631C317.621 208.502 317.559 208.708 317.034 209.02C316.691 209.232 316.308 209.602 316.147 209.882C315.982 210.143 315.918 210.561 315.985 210.802C316.077 211.037 316.39 211.394 316.703 211.585C317.021 211.801 317.521 211.968 317.818 211.952C318.099 211.945 318.609 211.682 318.992 211.364C319.629 210.783 319.724 210.781 321.42 210.797C322.508 210.817 323.478 210.993 323.926 211.243C324.34 211.455 324.843 211.974 325.041 212.364C325.245 212.753 325.411 213.509 325.42 214.025C325.423 214.543 325.274 215.601 325.07 216.365C324.726 217.64 324.519 217.912 322.884 219.456C321.87 220.379 321.01 221.33 320.93 221.541C320.868 221.747 320.844 222.06 320.88 222.192C320.921 222.343 321.214 222.615 321.523 222.788C321.971 223.038 322.364 223.019 323.605 222.671C324.544 222.406 325.706 222.269 326.627 222.289C327.436 222.322 328.5 222.489 328.974 222.688C329.431 222.891 330.064 223.277 330.343 223.598C330.621 223.919 331.007 224.682 331.179 225.295C331.497 226.407 331.475 226.508 330.581 228.012C330.088 228.86 329.182 230.059 328.57 230.634C327.646 231.53 327.22 231.768 326.039 232.101C324.936 232.436 324.541 232.642 324.272 233.094C324.056 233.412 323.97 233.931 324.064 234.261C324.146 234.62 324.376 234.952 324.574 235.06C324.76 235.146 325.523 235.26 326.252 235.337C327 235.384 328.201 235.73 329.053 236.15C329.866 236.535 330.752 237.158 331.03 237.479C331.295 237.828 331.666 238.639 331.814 239.258C331.991 239.89 332.109 240.804 332.072 241.261C332.035 241.884 331.804 242.301 331.185 242.878C330.61 243.419 329.989 243.733 329.056 243.997C328.315 244.205 327.514 244.292 327.232 244.209C326.945 244.102 326.555 243.743 326.361 243.371C326.149 243.029 325.769 242.686 325.497 242.646C325.225 242.606 324.813 242.655 324.592 242.782C324.373 242.916 324.138 243.264 324.085 243.564C324.001 244.012 324.147 244.369 324.72 245.224C325.134 245.859 325.637 246.967 325.887 247.838C326.158 248.8 326.254 249.643 326.158 250.119C326.087 250.539 325.786 251.215 325.489 251.654C325.069 252.339 324.787 252.512 323.74 252.809C323.041 253.007 321.308 253.191 319.896 253.213C319.436 253.222 318.912 253.226 318.37 253.241C317.246 253.26 316.071 253.279 315.322 253.284C314.077 253.305 313.125 253.433 312.778 253.627C312.432 253.822 312.151 254.251 312.068 254.698C311.997 255.118 312.018 255.772 312.122 256.145C312.231 256.537 312.962 257.605 313.734 258.517C314.518 259.452 315.185 260.324 315.228 260.455C315.269 260.606 315.067 261.209 314.733 261.797C314.361 262.471 313.775 263.078 313.14 263.498C312.42 263.938 311.043 264.419 308.322 265.193C304.721 266.214 304.449 266.314 303.662 267.051C303.179 267.519 302.74 268.209 302.607 268.719C302.449 269.402 302.548 270.173 303.043 272.345C303.554 274.584 303.628 275.245 303.419 275.844C303.296 276.23 302.844 276.807 302.457 277.107C302.052 277.41 300.986 277.993 300.108 278.385C299.187 278.788 297.527 279.326 296.322 279.576C295.127 279.849 293.383 280.099 292.483 280.171C291.552 280.223 290.131 280.176 289.31 280.031C288.499 279.908 287.551 279.657 287.211 279.517C286.89 279.373 286.343 278.941 286.005 278.583C285.556 278.077 285.257 277.947 284.747 278.044C284.394 278.125 283.978 278.329 283.87 278.526C283.761 278.724 283.733 279.134 283.845 279.428C283.934 279.734 284.219 280.168 284.483 280.428C284.746 280.682 285.102 281.452 285.319 282.126C285.527 282.866 285.606 283.718 285.528 284.19C285.444 284.638 285.259 285.231 285.128 285.53C284.992 285.804 284.555 286.333 284.141 286.709C283.603 287.216 283.165 287.431 282.55 287.488C282.077 287.551 281.262 287.52 280.761 287.404C280.24 287.311 279.156 286.887 278.339 286.51C277.516 286.109 276.13 285.202 275.229 284.512C273.863 283.441 273.54 283.291 272.974 283.452C272.541 283.576 272.258 283.826 272.127 284.208C272.004 284.595 272.087 285.325 272.374 286.328C272.608 287.158 272.834 288.202 272.864 288.643C272.891 289.322 272.749 289.571 272.041 290.149C271.394 290.687 270.848 290.933 269.732 291.156C268.796 291.351 267.789 291.376 266.877 291.232C265.518 291.004 265.407 290.94 264.811 289.93C264.465 289.369 263.959 288.332 263.696 287.656C263.23 286.514 263.24 286.39 263.732 285.286C264.007 284.666 264.363 283.362 264.521 282.424C264.702 281.474 264.84 280.143 264.89 279.491C264.947 278.531 264.872 278.177 264.538 277.754C264.312 277.466 263.883 277.186 263.581 277.127C263.262 277.078 262.662 277.202 262.243 277.388C261.746 277.623 261.249 278.114 260.93 278.654C260.635 279.189 260.337 280.217 260.286 281.029C260.23 281.822 260.281 283.34 260.687 286.269L259.372 287.446C258.661 288.095 257.595 288.818 257.004 289.062C256.368 289.31 255.564 289.468 254.994 289.444C254.234 289.425 253.877 289.238 253.262 288.566C252.549 287.8 252.424 287.508 251.808 285.089C251.21 282.639 251.151 282.211 251.304 279.315C251.458 276.534 251.429 276.098 251.047 275.661C250.676 275.272 250.452 275.214 249.796 275.402C249.122 275.595 248.609 276.044 247.125 277.855C246.104 279.087 244.765 280.577 244.132 281.176C243.314 281.945 242.679 282.365 241.981 282.563C241.217 282.782 240.831 282.749 240.3 282.447C239.911 282.229 239.432 281.704 239.235 281.263C239.026 280.85 238.757 279.727 238.627 278.796C238.504 277.864 238.422 276.071 238.472 274.831C238.538 272.646 238.572 272.517 239.847 270.126C240.803 268.416 241.175 267.487 241.113 266.937C241.076 266.549 240.948 266.015 240.814 265.796C240.681 265.577 240.237 265.345 239.87 265.282C239.493 265.201 238.971 265.276 238.727 265.414C238.466 265.564 238.016 266.23 237.722 266.854C237.41 267.507 237.002 268.727 236.844 269.576C236.549 270.956 236.358 271.268 235.272 272.354C234.567 273.028 233.445 273.981 232.745 274.48C232.034 274.963 231.031 275.512 230.488 275.661C229.88 275.832 229.195 275.835 228.683 275.702C228.047 275.527 227.742 275.283 227.475 274.678C227.266 274.265 227.112 273.481 227.128 272.959C227.125 272.441 227.342 270.638 227.588 268.936C227.868 267.016 227.945 265.443 227.818 264.749C227.631 263.761 227.503 263.566 226.784 263.084C226.059 262.603 225.817 262.581 224.967 262.82C224.42 262.977 223.286 263.459 222.442 263.889C221.428 264.389 220.697 264.639 220.36 264.595C220.046 264.57 219.63 264.262 219.383 263.883C219.136 263.504 218.956 262.969 218.979 262.535C218.96 262.142 219.042 261.433 219.144 260.955C219.247 260.477 219.6 259.244 219.933 258.259C220.264 257.268 220.595 256.021 220.639 255.512C220.712 255.015 220.65 254.21 220.514 253.729C220.326 253.074 220.135 252.798 219.694 252.661C219.359 252.571 219.035 252.498 218.949 252.518C218.84 252.543 218.527 252.941 218.263 253.417C217.857 254.054 217.389 254.416 216.377 254.897C215.63 255.247 214.278 255.728 211.717 256.332L211.491 255.455C211.35 254.95 211.377 253.721 211.546 252.492C211.711 251.334 211.918 249.488 211.975 248.361C212.081 246.75 212.029 246.128 211.698 245.378C211.457 244.857 210.92 244.134 210.507 243.755C210.08 243.404 209.188 242.923 208.508 242.694C207.809 242.469 205.665 242.063 203.71 241.811C201.751 241.541 199.849 241.156 199.459 240.938C199.07 240.72 198.563 240.605 198.322 240.673C198.076 240.722 197.805 240.938 197.719 241.124C197.652 241.306 197.614 242.402 197.638 243.575C197.686 244.741 197.635 246.149 197.54 246.714C197.469 247.3 197.324 247.788 197.24 247.813C197.13 247.839 196.898 247.271 196.7 246.573C196.393 245.478 196.22 245.198 195.632 244.871C195.237 244.628 194.614 244.425 194.21 244.427C193.8 244.399 193.234 244.561 192.888 244.755C192.546 244.974 192.155 245.505 191.997 246.021C191.716 246.783 191.758 247.08 192.184 248.187C192.55 249.146 192.881 249.641 193.545 250.161C194.267 250.713 194.406 250.957 194.329 251.352C194.289 251.624 194.101 252.121 193.92 252.482C193.636 253.059 193.429 253.164 191.967 253.555C191.064 253.787 190.144 254.023 189.957 254.104C189.722 254.196 189.505 254.68 189.391 255.276C189.302 255.866 189.27 256.514 189.328 256.712C189.39 256.928 189.696 257.172 190.026 257.269C190.332 257.347 191.351 257.46 192.26 257.508C193.193 257.551 194.179 257.717 194.464 257.895C194.917 258.169 195.053 258.484 195.319 259.678C195.486 260.523 195.557 261.589 195.429 262.239C195.321 262.859 194.949 263.955 194.591 264.69C194.235 265.43 193.588 266.391 193.129 266.848C192.452 267.533 191.898 267.833 189.954 268.526C188.504 269.055 187.173 269.686 186.489 270.168C185.862 270.625 185.261 271.249 185.165 271.559C185.001 272.05 185.035 272.254 185.417 272.692C185.764 273.086 186.18 273.228 187.156 273.261C188.012 273.277 188.678 273.471 189.128 273.81C189.496 274.104 190.32 274.933 190.964 275.65C191.835 276.655 192.224 277.347 192.618 278.486C193.088 279.813 193.084 280.05 192.784 280.561C192.546 280.943 191.292 281.307 189.02 281.65C187.122 281.93 185.12 282.259 184.537 282.373C183.582 282.571 183.446 282.679 183.268 283.302C183.139 283.831 183.187 284.268 183.505 284.957C183.721 285.484 184.523 286.722 185.245 287.697C186.156 288.903 186.708 289.865 186.913 290.593C187.2 291.597 187.175 291.769 185.972 293.522L179.995 295.027L179.202 294.472C178.64 294.063 178.263 293.982 177.74 294.134C177.282 294.264 176.871 294.569 176.652 294.958C176.365 295.44 176.358 295.748 176.568 296.161C176.762 296.508 177.179 296.816 177.633 296.923C178.322 297.105 178.43 297.241 178.691 298.161C178.857 298.75 178.915 299.537 178.844 299.956C178.773 300.376 178.417 300.95 178.029 301.243C177.667 301.537 176.991 301.89 176.551 302.016C176.094 302.146 175.266 302.143 174.723 302.036C174.168 301.907 172.616 301.262 171.257 300.613C169.915 299.959 168.303 299.328 167.692 299.263C167.077 299.179 166.236 299.205 165.797 299.305C165.267 299.426 164.852 299.712 164.629 300.083C164.437 300.396 164.221 300.881 164.156 301.158C164.116 301.43 164.224 302.717 164.427 304.028C164.611 305.343 164.699 306.571 164.595 306.787C164.492 307.009 164.106 307.398 163.785 307.676C163.435 307.941 162.537 308.332 161.791 308.547C160.942 308.786 160.027 308.879 159.436 308.79C158.892 308.709 158.154 308.423 157.792 308.128C157.452 307.847 156.878 307.159 156.561 306.611C156.183 305.941 155.827 304.858 155.533 303.485C155.253 302.172 155.126 300.889 155.182 300.095C155.289 299.213 155.21 298.7 155.002 298.376C154.821 298.148 154.496 297.928 154.272 297.877C154.029 297.849 153.772 297.85 153.64 297.887C153.53 297.912 152.715 299.116 151.867 300.538C151 301.965 149.757 303.823 149.074 304.651C148.41 305.475 147.362 306.502 146.774 306.93C146.073 307.455 145.43 307.756 144.904 307.812C144.473 307.859 143.765 307.707 143.317 307.457C142.619 307.066 142.524 306.902 142.097 305.399C141.842 304.504 141.52 302.618 141.391 301.239C141.263 299.86 141.081 298.475 140.992 298.168C140.903 297.862 140.615 297.499 140.335 297.339C140.079 297.173 139.677 297.099 139.49 297.18C139.274 297.242 138.902 297.608 138.654 297.979C138.388 298.359 138.106 299.454 137.988 300.454C137.867 301.525 137.544 302.725 137.177 303.417C136.673 304.384 136.419 304.647 135.762 304.829C135.129 305.005 134.686 304.946 133.916 304.552C133.35 304.291 132.422 303.511 131.836 302.851C130.817 301.675 130.758 301.528 129.919 298.583C129.446 296.905 129.037 295.226 129.043 294.827C129.022 294.173 129.04 294.143 129.507 294.389C129.769 294.553 130.181 294.619 130.422 294.551C130.663 294.483 130.944 294.31 131.068 294.18C131.198 294.047 131.316 293.47 131.359 292.871C131.378 292.278 131.36 291.553 131.277 291.245C131.187 290.939 130.86 290.514 130.53 290.276C130.085 289.955 129.764 289.9 129.114 290.113C128.657 290.243 128.016 290.639 127.709 290.978C127.381 291.309 127.06 291.843 126.988 292.173C126.889 292.579 126.642 292.789 126.184 292.919C125.835 293.018 125.016 293.109 124.355 293.107C123.527 293.103 122.857 292.892 122.119 292.439C121.52 292.064 120.689 291.453 120.245 291.055C119.637 290.496 119.365 290.034 118.739 287.827L119.72 287.379C120.435 287.082 120.836 286.734 121.071 286.245C121.287 285.761 121.307 285.257 121.126 284.607C120.984 284.012 120.676 283.506 120.254 283.199C119.896 282.922 119.349 282.746 118.913 282.801C118.428 282.841 117.931 283.076 117.56 283.417C117.22 283.725 116.851 284.328 116.751 284.735C116.639 285.17 116.482 285.52 116.39 285.54C116.281 285.565 115.603 285.266 114.871 284.837C113.95 284.343 113.243 283.743 112.661 282.935C111.978 282.022 111.728 281.458 111.475 280.325C111.246 279.264 111.257 278.384 111.487 276.949C111.777 275.385 111.753 274.968 111.448 274.558C111.182 274.209 110.9 274.126 110.484 274.24C110.131 274.321 109.742 274.614 109.606 274.888C109.47 275.163 109.263 275.997 109.161 276.731C109.067 277.469 109 278.663 109.038 279.364C109.069 280.061 109.318 281.266 109.602 282.033C109.933 282.949 110.445 283.844 111.145 284.664C111.736 285.342 112.772 286.257 113.462 286.695C114.165 287.111 115.117 287.546 116.383 287.782L117.006 289.727C117.11 290.042 117.241 290.448 117.391 290.907C117.755 292.027 118.221 293.45 118.595 294.581C119.467 297.167 119.563 297.586 119.414 298.478C119.308 299.027 118.969 299.898 118.658 300.392C118.334 300.908 117.663 301.707 117.138 302.185C116.637 302.658 115.524 303.399 114.732 303.835C113.917 304.278 112.943 304.673 112.554 304.71C111.957 304.763 111.651 304.52 110.339 303.123C108.928 301.633 108.751 301.501 108.16 301.668C107.703 301.798 107.486 302.026 107.402 302.474C107.334 302.823 107.384 303.49 107.519 303.971C107.655 304.452 108.053 305.187 108.405 305.606C108.757 306.025 109.498 306.547 110.06 306.79C110.833 307.113 111.413 307.659 112.664 309.236C113.547 310.353 114.546 311.726 114.879 312.315C115.435 313.289 115.466 313.398 115.176 313.95C115.008 314.283 114.369 315.024 113.753 315.581C112.763 316.498 112.491 316.624 111.388 316.793C110.263 316.973 110.003 316.904 108.678 316.125C107.859 315.652 106.989 315.326 106.772 315.388C106.532 315.456 106.235 315.729 106.094 315.985C105.946 316.288 105.949 316.639 106.088 316.882C106.221 317.102 106.554 317.858 106.841 318.554C107.177 319.406 107.366 320.406 107.457 321.563C107.515 322.516 107.4 323.867 107.246 324.568C107.063 325.256 106.442 326.634 105.867 327.597C105.297 328.585 104.617 329.508 104.373 329.647C104.104 329.792 103.254 329.941 102.456 329.957C101.64 329.976 100.163 329.853 99.1879 329.653C98.1897 329.464 97.3157 329.286 97.2403 329.265C97.1636 329.238 97.3062 328.655 97.5371 327.981C97.8285 327.095 97.8713 326.497 97.7048 325.907C97.5382 325.318 97.2782 324.993 96.6894 324.66C96.2699 324.423 95.4385 324.235 94.8675 324.206C94.231 324.197 93.5111 324.33 93.0805 324.55C92.6912 324.754 92.0848 325.187 91.7266 325.499C91.3683 325.811 91.0304 326.381 90.9741 326.752C90.899 327.153 90.9019 327.671 90.9799 327.929C91.0587 328.218 91.4363 328.721 91.7974 329.067C92.1768 329.409 92.7297 329.866 93.0243 330.061C93.3949 330.318 93.4492 330.593 93.1874 330.888C92.9576 331.145 92.1894 331.852 91.4499 332.488C90.4507 333.362 89.8459 333.718 88.9192 333.955C88.2025 334.157 87.1109 334.234 86.2624 334.139C85.344 334.048 84.2549 333.714 83.2876 333.211C82.4597 332.786 81.4064 332.047 80.1134 330.735L80.4313 330.106C80.6117 329.745 80.8182 329.217 80.8674 328.899C80.9281 328.603 80.9107 328.134 80.8271 327.852C80.7538 327.587 80.4639 327.244 80.1851 327.09C79.9064 326.936 79.395 326.886 79.0101 327.025C78.5282 327.161 78.1145 327.511 77.7796 328.01C77.4479 328.579 77.3368 329.103 77.4145 329.809C77.5136 330.58 77.4014 331.015 76.9467 331.663C76.5108 332.281 76.1184 332.556 75.487 332.739C75.0051 332.874 74.1179 332.891 73.5026 332.808C72.8873 332.724 71.8811 332.416 71.2668 332.14C70.6295 331.876 69.7832 331.314 69.3971 330.858C68.8599 330.302 68.5454 329.682 68.2789 328.655C68.0543 327.868 67.8606 326.766 67.8608 326.177C67.8366 325.594 67.9509 324.409 68.3244 321.917L70.2216 321.382C71.439 321.014 72.2986 320.651 72.6569 320.339C72.9537 320.067 73.3398 319.511 73.4819 319.095C73.7469 318.458 73.7291 318.296 73.2733 317.619C73.0223 317.222 72.3428 316.66 71.818 316.383C71.0527 316.007 70.6382 315.961 69.9641 316.153C69.4822 316.289 68.8819 316.579 68.6064 316.777C68.3309 316.974 67.7507 317.746 66.5047 319.842L65.1176 319.692C64.3586 319.596 63.2612 319.366 62.6861 319.178C62.117 318.987 61.2962 318.509 60.8542 318.117C60.1649 317.513 59.9991 317.179 59.5402 315.562C59.0716 313.902 59.044 313.557 59.3377 312.344C59.529 311.609 59.9347 310.55 60.2823 310.022C60.6014 309.482 61.1973 308.751 61.5927 308.405C62.1679 307.864 62.4404 307.737 63.3235 307.702C63.8974 307.661 64.8939 307.421 65.5298 307.173C66.1656 306.925 67.0385 306.509 67.4608 306.252C67.8628 306.02 68.3141 305.609 68.443 305.388C68.5645 305.162 68.6014 304.705 68.5025 304.357C68.4262 304.022 68.0858 303.626 67.7527 303.459C67.3088 303.227 66.7977 303.235 65.5777 303.507C64.5615 303.745 63.6064 304.111 62.8673 304.58C61.8417 305.198 61.6251 305.261 61.0287 305.147C60.627 305.072 59.8733 304.719 59.3042 304.388C58.7411 304.056 57.9507 303.43 57.5402 302.98C57.1353 302.554 56.6417 301.796 56.4248 301.295C56.1627 300.708 56.0602 300.174 56.1571 299.672C56.2463 299.249 56.5805 298.494 56.9051 297.978C57.2339 297.481 57.8481 296.745 58.2994 296.335C59.0347 295.68 59.1374 295.625 59.9433 295.729C60.4162 295.807 61.2292 295.858 61.7477 295.855C62.2704 295.87 62.8947 295.74 63.157 295.597C63.4624 295.419 63.5899 295.05 63.5947 294.313C63.5791 293.683 63.4522 293.155 63.2268 292.842C63.0294 292.567 62.4578 292.281 61.8838 292.182C61.0153 292.028 60.7275 292.087 58.6251 293.156L57.3765 292.404C56.6782 292.013 55.6589 291.17 55.1309 290.542C54.4024 289.709 54.0308 289.064 53.7599 288.102C53.4804 287.187 53.4265 286.501 53.5579 285.729C53.6761 285.151 53.963 284.414 54.2486 284.092C54.5058 283.758 55.3609 282.955 56.1375 282.285C56.9155 281.621 58.2171 280.639 60.458 279.25L61.7359 279.765C62.4274 280.043 63.5991 280.345 64.3379 280.464C65.0767 280.584 66.1053 280.624 66.5969 280.531C67.2079 280.456 67.6629 280.23 68.01 279.87C68.3342 279.52 68.4434 279.156 68.3404 278.789C68.2513 278.483 67.6362 277.811 66.9725 277.29C66.2162 276.701 65.3597 276.263 64.7151 276.134C64.0474 276.018 62.9976 276.053 60.3041 276.61L58.9664 275.552C58.24 274.982 57.2766 274.075 56.8265 273.563C56.3721 273.033 55.7891 272.136 55.5569 271.568C55.1777 270.636 55.1556 270.315 55.4625 268.907C55.6401 268.028 56.0671 266.894 56.4216 266.397C57.0521 265.536 57.169 265.458 58.9564 264.948C60.6168 264.498 61.0586 264.468 62.4609 264.685C63.3538 264.834 65.2382 265.338 66.6656 265.806C68.093 266.274 69.407 266.582 69.5823 266.536C69.7576 266.489 70.0361 266.221 70.1905 265.942C70.3566 265.687 70.4159 265.245 70.3141 264.967C70.2408 264.702 70.0081 264.301 69.7736 264.06C69.5677 263.831 68.7446 263.174 67.9415 262.577C67.1608 261.993 66.3693 261.278 66.2095 260.943C66.0492 260.634 65.4564 259.694 64.9075 258.833C64.364 257.997 63.7533 256.754 63.5654 256.099C63.2787 255.096 63.2851 254.787 63.6589 254.093C63.885 253.651 64.5303 253.024 65.1713 252.602C65.7691 252.216 66.8599 251.743 67.5828 251.54C68.3056 251.337 69.5025 251.159 70.2473 251.137C70.9739 251.118 71.8825 251.167 72.2795 251.249C72.9344 251.394 72.9685 251.431 73.0367 252.516C73.1256 253.411 73.233 253.713 73.675 254.105C73.9735 254.402 74.6352 254.661 75.1493 254.723C75.635 254.772 76.2745 254.709 76.5611 254.56C76.8477 254.412 77.1949 254.051 77.3548 253.797C77.5737 253.407 77.5649 253.032 77.2208 252.086C76.9239 251.207 76.609 250.754 75.2571 249.718L75.4567 248.008C75.5661 247.055 75.8744 245.653 76.144 244.868C76.4211 244.088 76.9575 243.012 77.365 242.522C78.0666 241.664 78.2491 241.565 80.1219 241.035C81.9351 240.525 82.2814 240.497 83.7219 240.77C84.6372 240.933 86.0107 241.445 88.4142 242.791L88.0642 244.375C87.7269 245.931 87.7366 245.973 88.2793 246.554C88.6599 246.985 89.088 247.176 89.7306 247.183C90.3672 247.191 90.8064 247.065 91.3685 246.719C91.888 246.383 92.1537 246.002 92.2536 245.429C92.3936 244.75 92.3345 244.463 91.8567 243.606C91.3575 242.683 91.3223 242.556 91.5982 242.192C91.7684 241.955 92.3753 241.356 92.9337 240.825C93.4962 240.312 94.4767 239.609 95.0911 239.296C95.8942 238.882 96.671 238.634 97.8734 238.481C98.7539 238.351 100.083 238.303 100.778 238.343C101.454 238.413 102.583 238.725 103.256 239.032C103.935 239.338 104.785 239.944 105.855 241.153L105.02 242.521C104.231 243.809 104.182 243.961 104.453 244.923C104.62 245.513 104.927 246.185 105.123 246.454C105.339 246.725 105.769 247.068 106.121 247.231C106.454 247.398 107.011 247.45 107.337 247.363C107.711 247.259 108.119 246.884 108.388 246.406C108.644 245.983 108.854 245.052 108.865 244.339C108.876 243.632 108.823 242.863 108.761 242.647C108.693 242.406 108.9 242.135 109.425 241.823C109.931 241.541 110.696 241.322 111.767 241.186C112.652 241.074 113.843 240.789 114.412 240.557C115.042 240.285 115.785 239.744 116.26 239.188C116.709 238.682 117.305 237.81 117.614 237.227C117.917 236.646 118.251 235.891 118.38 235.529C118.489 235.165 118.486 234.558 118.369 234.162C118.265 233.789 118.03 233.292 117.83 233.088C117.654 232.878 117.164 232.644 116.743 232.568C116.347 232.492 114.685 232.538 113.072 232.663C111.435 232.793 109.726 232.832 109.253 232.728C108.787 232.649 108.209 232.365 107.969 232.1C107.73 231.84 107.379 231.088 107.191 230.434C106.935 229.538 106.904 229.008 107.115 228.332C107.289 227.857 108.207 226.374 109.196 225.034C110.287 223.55 111.008 222.355 111.034 221.965C111.071 221.508 110.982 221.202 110.735 220.99C110.55 220.827 109.872 220.694 109.245 220.728C108.614 220.744 107.488 220.585 106.742 220.378C105.976 220.168 104.929 219.709 104.385 219.373C103.844 219.055 103.22 218.429 102.964 218.007C102.73 217.6 102.418 216.909 102.298 216.495C102.21 216.195 102.163 216.014 102.204 215.857C102.271 215.618 102.572 215.447 103.34 215.022C104.052 214.629 105.099 213.91 105.667 213.422C106.23 212.909 106.978 212.06 107.316 211.516C107.653 210.971 107.941 210.156 107.96 209.704C107.96 209.115 107.835 208.677 107.528 208.177C107.281 207.798 106.796 207.326 106.428 207.122C106.037 206.898 105.381 206.83 104.764 206.907C103.949 207.016 103.512 207.237 102.666 207.994C102.056 208.498 101.24 209.529 100.835 210.255C100.412 211.011 99.9944 212.188 99.6502 214.219L98.3177 214.504C97.5852 214.665 96.6736 214.687 96.2907 214.582C95.8025 214.438 95.5212 214.188 95.401 213.774C95.2895 213.454 95.4227 212.521 95.7141 211.635C95.9685 210.783 96.6089 209.376 97.1195 208.523C97.6544 207.665 98.7803 206.166 99.6645 205.209C100.549 204.252 101.266 203.295 101.279 203.1C101.276 202.915 101.171 202.542 101.004 202.286C100.859 202.018 100.364 201.785 99.83 201.721C99.1679 201.629 97.8838 201.845 95.3485 202.45C92.6604 203.115 91.6904 203.246 91.3343 203.091C91.0298 202.936 90.7789 202.539 90.6221 201.992C90.4682 201.374 90.5521 200.338 90.9244 198.486C91.1972 197.041 91.445 195.487 91.4575 195.036C91.4517 194.589 91.3106 193.943 91.1278 193.619C90.962 193.286 90.4517 192.82 89.9854 192.574C89.4606 192.297 88.5865 192.119 87.622 192.134C86.7775 192.142 85.3642 192.157 84.4582 192.204C83.2959 192.251 82.6039 192.14 81.9921 191.819C81.3747 191.474 81.0964 191.153 80.9681 190.619C80.882 190.242 80.913 189.339 81.0713 188.656C81.2255 187.955 81.8241 186.084 82.4364 184.497C83.0244 182.916 83.6162 180.931 83.7623 180.111C83.9083 179.29 83.9266 178.275 83.8064 177.86C83.6862 177.446 83.3005 176.824 82.951 176.5C82.6057 176.195 81.9044 175.875 81.4132 175.801C80.6786 175.7 79.9601 175.839 78.1073 176.428C77.1153 176.744 75.512 177.219 74.1436 177.627L74.1314 177.63C73.7179 177.756 73.3274 177.871 72.9796 177.976C70.5166 178.672 70.1515 178.73 69.6267 178.453C69.2937 178.286 68.9727 177.975 68.9349 177.753C68.8769 177.555 69.38 176.333 70.0515 175.034C70.723 173.735 71.3131 172.416 71.3323 172.079C71.3759 171.736 71.289 171.103 71.1638 170.639C71.0625 170.194 70.7902 169.732 70.5965 169.642C70.3987 169.533 69.7438 169.529 69.1079 169.636C68.6697 169.71 67.3242 169.966 65.7518 170.267C65.137 170.382 64.493 170.51 63.8537 170.63C61.5793 171.085 59.5189 171.383 59.2956 171.331C58.9936 171.272 58.7737 170.983 58.6341 170.484C58.5139 170.069 58.5088 168.867 58.6109 167.826C58.7416 166.798 58.7978 165.415 58.7883 164.783C58.7574 164.086 58.567 163.336 58.3288 162.91C58.1246 162.522 57.7141 162.071 57.4481 161.889C57.1694 161.735 56.5515 161.556 56.0889 161.495C55.6277 161.44 53.5373 161.719 51.4381 162.127C49.362 162.525 47.2232 162.872 46.7046 162.875C46.1861 162.878 45.4686 162.824 45.0913 162.744C44.6957 162.668 44.2518 162.436 44.0528 162.238C43.8768 162.029 43.7042 161.582 43.6724 161.218C43.6534 160.825 44.4894 159.124 45.9706 156.513C47.4585 153.876 48.3366 152.05 48.4608 151.33C48.5693 150.71 48.5475 149.799 48.3948 149.271C48.2552 148.772 47.8608 148.055 47.5429 147.673C47.1665 147.26 46.5735 146.909 46.0538 146.822C45.5753 146.72 44.2493 146.697 43.087 146.744C41.9533 146.805 40.5815 146.721 40.0878 146.552C39.5996 146.407 39.0194 146.028 38.7879 145.715C38.5168 145.342 38.349 144.663 38.2209 143.541C38.1766 143.122 38.1223 142.603 38.0591 142.073C37.9845 141.437 37.9118 140.782 37.8644 140.293C37.7296 139.057 37.5686 138.492 37.133 137.791C36.7698 137.183 36.2072 136.684 35.4504 136.261C34.6511 135.848 33.6091 135.58 32.1326 135.431C30.65 135.283 29.7194 135.054 29.1635 134.668C28.5065 134.261 28.2708 133.931 28.0579 133.167C27.8858 132.553 27.8665 131.738 28.0095 130.989C28.1551 130.335 28.7502 128.701 29.3403 127.382C29.9492 126.033 30.5387 124.375 30.6802 123.703C30.8099 123.007 30.8055 122.061 30.6714 121.586C30.5506 121.057 30.2082 120.54 29.8787 120.276C29.5547 120.036 28.8687 119.783 28.3531 119.715C27.8334 119.629 26.3393 119.598 25.059 119.634C23.7671 119.648 22.3399 119.602 21.8914 119.519C21.413 119.417 20.9837 119.137 20.8234 118.828C20.6748 118.542 20.5491 118.103 20.5666 117.843C20.5645 117.581 20.7071 116.998 20.8919 116.572C21.0467 116.127 22.2122 114.408 23.4809 112.749C24.8344 110.955 25.9328 109.251 26.1679 108.596C26.4333 107.792 26.4833 107.141 26.3075 106.343C26.1347 105.473 25.9348 105.103 25.5141 104.776C25.1901 104.536 24.1212 104.179 23.1419 103.961C22.1437 103.772 21.1704 103.412 20.9603 103.165C20.6521 102.826 20.5929 102.539 20.742 101.647C20.8504 101.027 21.2378 99.8311 21.6121 98.9712C22.0046 98.107 22.6568 97.0044 23.0939 96.4758C23.5426 95.9701 24.1576 95.4905 24.5068 95.3916C24.856 95.2927 25.3528 95.3905 25.7485 95.6075C26.0954 95.8355 26.6775 96.0547 27.0578 96.0639C27.5022 96.1289 27.8683 96.0198 28.2011 95.7646C28.4725 95.549 28.7326 95.144 28.7803 94.8194C28.8397 94.5178 28.7469 94.0269 28.5824 93.6996C28.388 93.3535 28.0056 93.0823 27.5388 93.0033C27.1371 92.9285 26.6374 92.9017 26.4635 92.9542C26.2469 93.0165 25.8858 92.67 25.4848 91.9806C25.1388 91.4195 24.7688 90.6974 24.6797 90.3913C24.5906 90.0852 24.6212 89.3485 24.7297 88.7284C24.8564 88.1042 25.2404 87.2868 25.5718 86.8847C26.0205 86.379 26.5023 86.1026 27.3578 85.8626C28.0807 85.6592 29.5892 85.5837 31.4678 85.6414C33.1085 85.6958 34.7894 85.645 35.2042 85.5247C35.6205 85.4105 36.1594 85.1595 36.4119 84.9738C36.64 84.7937 37.0602 84.2754 37.3051 83.8034C37.5682 83.3273 37.9951 81.9112 38.2862 80.603C38.5586 79.3246 38.9926 77.8557 39.2516 77.3613C39.4923 76.8711 40.0279 76.2688 40.4117 76.0403C40.857 75.7723 41.5123 75.6099 42.1635 75.5701C42.7476 75.5456 43.7615 75.6342 44.4403 75.7994C45.4196 76.0175 45.8494 76.2715 46.4853 77.0353C47.076 77.7134 47.65 78.8242 48.5122 80.9446C49.5401 83.4817 49.7894 83.9561 50.33 84.2743C50.7196 84.4927 51.2296 84.5363 51.6215 84.4277C51.989 84.3246 53.1601 83.782 54.2184 83.1948C55.3025 82.6081 56.9852 81.8912 58.0099 81.6061C59.511 81.1611 60.0536 81.0948 60.9276 81.273C61.4997 81.3921 62.1913 81.6695 62.4629 81.8764C62.8423 82.2186 63.0404 82.7495 63.5403 84.9398C63.9969 86.884 64.278 87.7223 64.5862 88.0617C64.8207 88.3026 65.4793 88.6323 66.0387 88.7799C66.9524 89.0195 67.2219 88.9644 68.87 88.377C69.0303 88.3212 69.2015 88.2565 69.4045 88.1909C70.4599 87.8156 72.1094 87.2343 74.7594 86.2902L75.9387 86.8788C76.9201 87.3589 77.2117 87.6252 77.5257 88.4113C77.8342 89.173 77.892 89.96 77.7707 92.3496C77.6645 94.3838 77.7165 95.7354 77.9381 96.5938C78.1852 97.5359 78.4131 97.9448 78.8978 98.327C79.2321 98.5836 79.9846 98.8471 80.5358 98.8749C81.4017 98.9333 81.7524 98.8405 83.2494 98.1532C84.1777 97.6981 85.7219 97.0768 86.6643 96.74C88.2838 96.1399 88.3977 96.1332 88.9109 96.5281C89.1881 96.7593 89.5285 97.2961 89.6487 97.7103C89.7689 98.1246 89.8365 98.9541 89.818 99.5472C89.7765 100.152 89.4388 101.874 89.0547 103.421C88.6589 104.945 88.314 106.72 88.2828 107.342C88.2511 107.989 88.2825 108.661 88.3344 108.86C88.3966 109.076 88.6622 109.425 88.9094 109.638C89.1962 109.912 89.5979 109.986 89.9898 109.878C90.3817 109.769 90.7471 109.404 91.121 108.711C91.4156 108.176 91.9216 107.472 92.2245 107.198C92.6514 106.793 93.2019 106.565 94.5582 106.3C95.5373 106.096 96.7269 105.972 97.1882 106.026C97.6508 106.087 98.2972 106.279 98.6156 106.494C99.1318 106.818 99.2636 107.115 99.88 109.534C100.472 111.793 100.661 112.281 101.192 112.839C101.547 113.187 102.156 113.579 102.557 113.679C102.968 113.797 104.17 113.81 105.252 113.717C106.559 113.604 107.875 113.33 109.25 112.869C110.712 112.362 111.495 111.972 112.038 111.49C112.453 111.113 112.963 110.427 113.196 109.932C113.418 109.472 113.565 108.741 113.522 108.328C113.503 107.936 113.301 107.303 113.137 106.976C112.898 106.55 111.546 105.681 108.651 104.121C105.979 102.663 104.255 101.571 103.771 101.023C103.16 100.368 102.93 99.8958 102.71 98.8452C102.552 98.0426 102.522 97.179 102.862 95.9747L103.847 97.1134C104.375 97.7418 105.205 98.4293 105.672 98.6492C106.138 98.8948 106.876 99.0657 107.297 99.0591C107.696 99.0641 108.382 98.8948 108.771 98.6907C109.16 98.4866 109.786 98.0239 110.122 97.6462C110.471 97.2914 110.933 96.5906 111.172 96.1201C111.42 95.577 111.501 95.0336 111.367 94.5585C111.262 94.1855 110.882 93.5873 110.526 93.2652C110.113 92.8859 109.393 92.5958 108.482 92.4517C107.689 92.3191 106.363 92.2953 105.525 92.4161C104.156 92.5686 103.955 92.5312 103.711 92.0811C103.538 91.8006 103.27 90.6006 103.057 89.4396C102.866 88.2669 102.709 86.7088 102.72 85.996C102.73 85.2831 102.819 84.2705 102.906 83.7514C103.004 83.2553 103.318 82.3835 103.59 81.8349C103.838 81.2919 104.567 80.2165 105.199 79.445C105.938 78.5531 106.444 78.1046 106.631 78.1901C106.794 78.2616 107.557 78.542 108.337 78.8121C109.252 79.141 110.11 79.2522 110.769 79.1595C111.631 79.0332 111.875 78.8943 112.249 78.3159C112.598 77.7946 112.679 77.4177 112.517 76.8467C112.421 76.4269 112.023 75.7814 111.693 75.428C111.338 75.0802 110.587 74.682 110.031 74.5526C109.367 74.3651 108.669 74.3964 106.747 74.9374L106.408 73.7344C106.216 73.0614 106.132 72.1846 106.211 71.7183C106.3 71.2947 106.735 70.0817 107.171 69.0413C107.611 68.0192 108.508 66.4446 109.147 65.537C109.814 64.6421 110.786 63.4218 111.333 62.8681C111.874 62.2901 112.479 61.7679 112.653 61.7154C112.828 61.669 113.175 61.8971 113.441 62.2461C113.682 62.6007 114.265 63.0758 114.726 63.2971C115.198 63.5413 116.019 63.7124 116.579 63.6934C117.139 63.6745 117.957 63.4942 118.502 63.2418C119.169 62.9358 119.572 62.5367 119.877 61.9357C120.263 61.2138 120.267 60.9762 119.97 60.3525C119.766 59.9638 119.238 59.3354 118.748 58.9545C118.293 58.591 117.599 58.2182 117.174 58.1294C116.779 58.0532 116.05 57.9764 114.699 57.9582L114.966 56.233C115.118 55.2702 115.456 53.8039 115.753 52.9424C116.026 52.0864 116.588 50.7291 116.99 49.9076C117.393 49.0861 118.145 47.9991 118.641 47.508C119.151 46.9884 119.748 46.513 119.989 46.4452C120.23 46.3774 120.895 46.3984 122.528 46.6722L122.604 47.7623C122.637 48.3882 122.834 49.5852 123.059 50.4619C123.382 51.7644 123.571 52.1119 124.096 52.5298C124.516 52.8562 124.97 52.9638 125.486 52.8653C125.912 52.7936 126.513 52.503 126.81 52.2047C127.126 51.9022 127.431 51.4163 127.528 51.0807C127.63 50.7693 127.686 50.1422 127.655 49.701C127.625 49.2598 127.401 48.4725 127.119 47.9672C126.853 47.4516 126.196 46.6222 125.657 46.1435C124.738 45.3164 124.654 45.1754 124.716 44.4061C124.728 43.9551 124.946 42.9709 125.171 42.2729C125.416 41.5451 125.932 40.5503 126.352 40.0319C126.767 39.4892 127.626 38.7041 128.27 38.2372M115.031 60.7052C114.874 60.4916 114.955 60.3706 115.377 60.255C115.702 60.1617 116.342 60.2397 116.774 60.4483C117.231 60.6513 117.612 60.9164 117.643 61.0245C117.68 61.157 117.507 61.2989 117.266 61.3666C117.025 61.4344 116.502 61.4193 116.082 61.3488C115.687 61.2726 115.322 61.1638 115.307 61.0969C115.291 61.03 115.168 60.8533 115.031 60.7052ZM244.184 41.4818L244.588 42.0744C244.863 42.466 245.023 43.1082 245.103 44.05C245.174 44.8084 245.123 45.6265 245 45.8465C244.796 46.2133 244.747 46.1987 244.414 45.7756C244.211 45.4763 244.028 44.8458 243.972 44.2057C243.914 43.5853 243.93 42.7303 244.044 42.3011L244.19 41.4804L244.184 41.4818ZM265.977 40.009C266.172 39.7662 266.351 39.5715 266.37 39.5673C266.394 39.5617 266.323 39.9812 266.212 40.5058C266.078 41.0421 265.831 41.8153 265.646 42.2673C265.345 42.944 265.288 43.0019 265.185 42.6349C265.117 42.3944 265.177 41.7854 265.322 41.2978C265.496 40.8229 265.771 40.2289 265.969 40.0043M187.441 68.9697C187.669 68.7896 188.399 68.5334 189.095 68.4066C189.766 68.2855 190.892 68.278 191.613 68.4016C192.725 68.583 192.893 68.6727 192.731 69.0298C192.632 69.27 192.133 69.8383 191.627 70.2868C190.928 70.907 190.319 71.2444 189.376 71.4918C188.653 71.6952 187.812 71.8871 187.531 71.8936C187.118 71.9367 186.982 71.7886 186.821 71.2236C186.688 70.8379 186.706 70.2448 186.827 69.9035C186.929 69.5922 187.202 69.1587 187.436 68.9772M105.198 94.9167C105.14 94.7187 105.371 94.6083 106.076 94.5242C106.626 94.4626 107.371 94.4398 107.786 94.4861C108.176 94.5379 108.669 94.7068 108.873 94.8396C109.197 95.0793 109.173 95.2257 108.668 95.7696C108.344 96.1189 107.807 96.4592 107.423 96.5211C106.907 96.6197 106.586 96.4754 106.03 95.9237C105.613 95.5261 105.243 95.0599 105.203 94.9092M201.794 78.9119C202.366 78.1862 202.902 77.5838 203.01 77.5527C203.118 77.5216 203.229 77.5859 203.272 77.717C203.297 77.8265 203.057 78.4636 202.721 79.0972C202.403 79.7267 201.766 80.6403 201.312 81.096C200.848 81.5347 200.37 81.8551 200.26 81.7969C200.125 81.7381 200.206 81.3612 200.419 80.9477C200.62 80.5626 201.246 79.626 201.799 78.9044M224.724 76.9428C224.531 76.2637 224.471 75.7205 224.604 75.6838C224.712 75.6527 225.122 75.6806 225.494 75.7366C225.871 75.8169 226.539 76.0999 226.974 76.3782C227.432 76.6706 227.848 77.1453 227.928 77.4982C228.023 77.8287 228.026 78.6024 227.809 80.3164L227.225 80.0078C226.888 79.8224 226.277 79.3346 225.854 78.9127C225.27 78.3483 224.97 77.7957 224.731 76.9415M214.477 80.8309C214.863 80.109 215.209 79.5179 215.256 79.5007C215.299 79.491 215.389 79.8865 215.459 80.389C215.523 80.8672 215.471 81.8457 215.36 82.5369C215.22 83.2154 214.896 83.987 214.67 84.2625C214.317 84.5991 214.068 84.7136 213.72 84.6521C213.224 84.5542 213.22 84.536 213.493 83.347C213.639 82.6928 214.09 81.5528 214.477 80.8309ZM104.209 209.504C104.456 209.294 104.84 209.066 105.056 209.003C105.273 208.941 105.538 209.034 105.667 209.235C105.796 209.436 105.762 209.822 105.608 210.1C105.472 210.375 104.906 210.958 104.4 211.407C103.87 211.867 103.231 212.352 102.987 212.491C102.706 212.664 102.522 212.674 102.451 212.504C102.411 212.353 102.699 211.705 103.058 211.06C103.413 210.396 103.946 209.699 104.215 209.503M69.9864 318.638C70.021 318.508 70.2308 318.333 70.4718 318.265C70.7127 318.197 70.9848 318.237 71.0768 318.331C71.1547 318.448 70.9803 318.667 70.6754 318.82C70.3658 318.98 70.0653 319.068 70.0196 319.008C69.9799 318.947 69.9574 318.792 69.9878 318.644M93.6209 326.833C93.8735 326.647 94.2329 326.425 94.4312 326.366C94.6051 326.314 94.9624 326.335 95.2273 326.428C95.6911 326.578 95.7069 326.619 94.9766 328.194L93.1417 327.205L93.627 326.832L93.6209 326.833Z" fill="#2C2C2C"/>
</g>
<defs>
<clipPath id="clip0_151_5157">
<rect width="289.483" height="284.846" fill="white" transform="matrix(-0.974928 0.22252 0.22252 0.974928 282.225 0)"/>
</clipPath>
</defs>
</svg>
