<svg width="533" height="533" viewBox="0 0 533 533" fill="none" xmlns="http://www.w3.org/2000/svg">
<g clip-path="url(#clip0_31_16058)">
<path d="M342.698 102.191C342.135 102.105 339.447 101.987 336.684 101.883C333.951 101.793 329.377 101.698 326.477 101.7C322.425 101.687 318.159 101.246 306.87 99.7667C298.946 98.7387 287.534 97.3228 281.449 96.6536C275.41 95.9459 263.536 94.4964 255.089 93.3969C241.33 91.6271 239.653 91.4556 238.696 91.9439C238.147 92.2565 237.322 92.9184 236.859 93.4433C236.396 93.9682 235.937 94.9982 235.825 95.7286C235.712 96.4589 235.895 97.862 236.256 98.8524C236.577 99.8068 237.351 101.89 237.976 103.432C238.6 104.984 239.909 107.333 240.869 108.692C241.926 110.147 243.549 111.763 244.908 112.71C246.171 113.561 248.281 114.741 249.552 115.281C251.191 115.954 252.798 116.312 254.593 116.463C256.507 116.592 257.922 116.406 259.509 115.86C261.142 115.275 262.204 114.572 263.274 113.353C264.15 112.384 265.412 110.368 266.138 108.869C266.864 107.371 267.897 104.538 269.504 99.1498L273.281 99.7158L273.532 101.405C273.693 102.376 274.517 104.925 275.399 107.104C276.37 109.453 278.006 112.477 279.435 114.58C280.867 116.639 282.586 118.587 283.609 119.287C284.521 119.933 286.211 120.739 287.323 121.06C288.477 121.386 290.332 121.585 291.494 121.6C292.692 121.586 294.553 121.27 295.655 120.925C296.793 120.539 298.553 119.623 299.619 118.877C300.659 118.085 302.363 116.53 303.341 115.389C304.417 114.096 305.455 112.326 306.07 110.763C306.583 109.384 307.118 107.341 307.575 104.227L311.894 104.555C314.257 104.749 317.377 105.102 318.807 105.314C320.278 105.53 323.195 105.692 325.325 105.66C327.177 105.665 330.128 105.68 332.318 105.696L333.228 105.698C335.456 105.75 338.609 105.87 340.248 105.995C342.12 106.12 343.455 106.001 343.843 105.705C344.227 105.452 344.579 104.874 344.637 104.493C344.698 104.069 344.528 103.419 344.234 103.058C343.944 102.665 343.271 102.289 342.697 102.202" fill="#EB662C"/>
<path fill-rule="evenodd" clip-rule="evenodd" d="M266.414 36.9673C266.602 36.996 267.017 35.7577 267.35 34.2751C267.707 32.6446 268.393 30.8953 268.969 30.0805C269.51 29.2946 270.797 28.1184 271.825 27.4436C272.853 26.7688 274.57 26.0848 275.689 25.8913C275.808 25.8705 275.914 25.8592 276.033 25.8384C283.479 24.6725 288.96 27.7862 293.941 32.0228C294.952 31.0885 295.754 30.4458 296.411 29.9933C297.537 29.1775 299.239 28.0947 300.169 27.5609C301.099 27.0271 302.997 26.2102 304.375 25.7515C305.271 25.4614 305.944 25.2789 306.588 25.1903C315.997 24.6421 321.723 29.4978 324.307 38.9822C324.67 38.9525 325.088 38.8959 325.548 38.8434C327.004 38.6715 328.501 38.729 329.384 39.0177C330.197 39.2567 331.782 40.2786 332.915 41.2679C333.061 41.4001 333.217 41.5439 333.382 41.6993C335.988 44.2153 337.905 47.0734 339.32 50.1949C339.392 50.3307 339.453 50.4654 339.506 50.5779C340.093 51.8478 340.957 54.1002 341.428 55.5846C341.9 57.069 342.452 59.1518 342.637 60.2007C342.954 61.971 343.109 62.2329 344.924 63.2875C345.996 63.9166 347.563 65.012 348.425 65.739C349.292 66.4128 350.884 67.908 351.992 69.0559C353.103 70.1612 355.054 72.6575 356.325 74.53C357.781 76.678 359.01 79.0942 359.602 80.8694C360.446 83.5495 360.46 83.9483 359.922 86.8073L359.353 89.8675C362.965 93.1565 364.663 94.9841 365.51 96.0856C366.446 97.3674 367.322 99.2666 367.937 101.355C368.442 103.155 368.977 106.074 369.106 107.815C369.213 109.683 369.084 112.689 368.728 115.072L368.172 119.11C369.741 120.517 370.503 121.622 370.892 122.421C371.239 123.217 371.621 124.532 371.707 125.292C371.825 126.055 371.742 127.691 371.564 128.887C371.383 130.116 370.812 131.876 370.287 132.825C369.759 133.805 368.422 135.492 367.298 136.62C366.164 137.746 363.258 139.905 360.867 141.438C358.514 143.017 356.311 144.578 356.063 144.962C355.768 145.385 355.681 145.967 355.811 146.377C355.909 146.784 356.685 147.524 357.507 148C358.395 148.569 359.903 149.068 361.49 149.295C362.93 149.508 365.182 149.649 366.581 149.622C367.981 149.595 369.448 149.306 369.878 149.014C370.525 148.561 370.696 147.879 371.218 143.869C371.754 139.71 371.918 139.103 372.898 137.715C373.484 136.901 374.671 135.898 375.505 135.473C376.382 135.052 378.41 134.645 380.009 134.53C381.681 134.421 384.089 134.588 385.636 134.897C387.142 135.203 388.388 135.343 388.409 135.227C388.421 135.11 387.741 132.929 386.928 130.37C385.399 125.777 385.382 125.625 385.85 122.512C386.263 119.749 386.454 119.187 387.47 118.082C388.108 117.391 389.227 116.65 389.913 116.447C390.677 116.209 392.268 116.168 393.593 116.37C394.918 116.572 397.71 117.259 399.843 117.968C401.981 118.635 404.043 119.101 404.398 119.038C404.799 118.937 405.167 118.521 405.229 118.097C405.291 117.674 404.934 115.105 404.455 112.363C403.741 108.331 403.636 106.893 403.991 104.51C404.333 101.933 404.522 101.403 405.832 99.875C406.639 98.8568 407.986 97.8366 409.099 97.3741C410.094 96.9324 411.775 96.5135 412.858 96.4777C414.059 96.421 415.801 96.6846 417.397 97.1491C418.809 97.5529 420.922 98.142 422.037 98.4315C423.15 98.7529 424.548 98.9621 425.137 98.8897L426.235 98.8123L427.556 88.553C429.641 86.465 431.098 85.5092 432.124 85.0705C433.15 84.6319 435.106 84.2178 436.505 84.1908C437.982 84.139 439.962 84.3503 441.262 84.7004C442.488 85.0435 444.948 85.8808 446.78 86.5396C448.565 87.237 450.069 87.7785 450.118 87.7081C450.118 87.7081 450.122 87.6655 450.15 87.593C450.168 87.5195 450.2 87.4044 450.235 87.2575C450.419 86.5555 450.802 85.0992 451.212 83.4738C451.782 81.1655 452.644 78.4664 453.1 77.4682C453.559 76.4381 454.592 74.9368 455.442 74.1268C456.358 73.1835 457.572 72.4407 459.151 71.8724C462.015 70.9225 464.963 70.6358 468.025 71.1549C468.728 71.4477 469.704 71.9709 470.3 72.3824C470.962 72.8755 472.089 74.1435 472.783 75.1874C473.473 76.2738 474.524 78.5549 475.096 80.21C475.653 81.9067 476.477 83.9082 476.842 84.6306C477.286 85.5216 477.898 86.0851 478.389 86.1537C478.88 86.2222 481.486 85.8705 484.218 85.4127C487.779 84.8089 489.859 84.643 491.637 84.8671C493.415 85.0912 494.52 85.4871 495.685 86.2539C496.559 86.8532 497.867 88.2245 498.597 89.3256C499.519 90.6384 500.05 92.0533 500.237 93.4244C500.369 94.5863 500.429 96.0528 500.336 96.699C500.245 97.3133 499.879 98.4811 499.576 99.2147C499.039 100.506 499.06 100.626 499.737 100.734C500.155 100.795 501.151 101.331 501.965 101.892C502.808 102.489 504.488 104.39 505.71 106.107C507.254 108.221 508.269 110.219 508.967 112.327C509.524 114.023 509.875 115.883 509.788 116.454C509.698 117.069 509.316 118.074 508.961 118.684C508.56 119.333 507.6 120.294 506.8 120.797C505.989 121.31 504.373 122.047 503.205 122.418C501.859 122.88 501.061 123.362 501 123.775C500.943 124.156 501.371 125.207 501.902 126.074C502.464 126.944 504.584 129.338 506.64 131.415C508.653 133.487 510.843 135.931 511.47 136.894C512.07 137.81 512.765 139.402 512.995 140.423C513.304 141.731 513.271 142.737 512.942 143.952C512.651 144.89 512.041 146.174 511.529 146.77C511.014 147.397 509.85 148.166 508.964 148.468C508.067 148.769 505.966 149.158 504.272 149.382C502.624 149.568 500.301 149.85 499.164 149.999C497.868 150.165 497.091 150.434 497.032 150.826C496.981 151.132 497.129 152.016 497.368 152.727C497.646 153.473 498.943 155.949 500.274 158.193C501.646 160.44 503.031 163.323 503.432 164.553C504.044 166.448 504.066 167.32 503.675 169.968C503.251 172.849 503.123 173.191 501.792 174.599C500.699 175.73 499.605 176.323 497.17 177.099C495.423 177.662 493.162 178.391 492.147 178.712C491.009 179.097 490.073 179.706 489.627 180.382C489.03 181.313 488.962 182.016 489.122 186.198C489.249 189.519 489.132 191.623 488.746 193.219C488.315 194.842 487.814 195.868 486.901 196.79C486.127 197.575 484.782 198.359 483.599 198.772C482.465 199.115 479.97 199.531 478.061 199.681C476.107 199.859 474.277 200.177 473.983 200.375C473.675 200.603 473.366 201.186 473.324 201.729C473.241 202.269 473.409 203.273 473.694 203.945C473.979 204.617 474.778 205.993 475.49 206.963C475.892 207.517 476.689 208.582 477.609 209.809C478.303 210.734 479.063 211.752 479.776 212.712C481.617 215.144 483.012 217.48 483.441 218.756C483.97 220.407 483.973 221.148 483.612 222.596C483.264 223.916 482.718 224.744 481.659 225.642C480.907 226.311 479.523 227.048 478.63 227.317C477.737 227.575 476.123 227.85 475.068 227.931C473.982 227.999 470.242 227.92 466.689 227.665C463.164 227.456 460.093 227.355 459.884 227.443C459.643 227.527 459.414 228.042 459.327 228.614C459.236 229.228 459.577 231.634 460.078 234.034C460.737 237.202 460.894 238.989 460.662 240.524C460.39 242.367 460.172 242.765 458.905 243.835C458.156 244.472 456.871 245.069 456.123 245.148C455.374 245.237 452.752 245.2 450.34 245.077C447.928 244.953 444.559 244.77 442.864 244.672L439.801 244.496C443.304 249.579 444.5 251.681 444.74 252.38C444.976 253.123 445.097 254.402 444.981 255.164C444.862 255.969 444.346 257.154 443.835 257.739C443.319 258.366 442.156 259.135 441.269 259.437C440.373 259.738 438.561 259.972 437.22 259.941C435.912 259.901 433.299 259.554 431.467 259.121C429.604 258.684 426.634 258.088 424.787 257.814C422.975 257.501 421.225 257.323 420.91 257.4C420.586 257.466 420.259 257.896 420.194 258.352C420.126 258.85 420.376 259.991 420.743 260.907C421.111 261.823 422.531 264.784 423.945 267.475C425.329 270.154 426.809 273.485 427.188 274.832C427.676 276.479 427.852 277.957 427.698 279.231C427.488 280.65 427.123 281.582 426.127 282.807C425.314 283.9 424.183 284.758 423.07 285.221C422.124 285.592 419.389 286.082 417.04 286.297C414.647 286.529 412.407 286.819 412.001 286.963C411.639 287.1 411.274 287.484 411.224 287.791C411.173 288.097 411.831 290.513 412.633 293.189C413.955 297.279 414.106 298.356 413.908 300.528C413.7 302.7 413.509 303.261 412.587 304.268C412.026 304.923 410.859 305.735 410.087 306.059C408.942 306.518 407.817 306.55 404.655 306.193C402.456 305.94 400.496 305.848 400.329 305.94C400.115 306.07 400.495 306.632 401.112 307.153C401.725 307.717 403.383 309.852 404.778 311.865C406.183 313.879 407.605 316.486 407.985 317.607C408.494 319.138 408.557 320.251 408.3 322.052C407.959 324.393 407.86 324.544 406.308 325.609C405.398 326.263 403.853 326.813 402.63 326.986C401.525 327.138 399.934 327.179 399.141 327.06C397.785 326.854 397.739 326.893 397.532 328.28C397.412 329.085 396.862 330.74 396.332 331.957C395.517 333.833 394.914 334.495 392.53 336.296C390.966 337.478 388.894 338.665 387.967 338.952C386.998 339.235 386.212 339.6 386.187 339.748C386.169 339.94 386.95 340.842 387.894 341.813C388.867 342.819 390.214 344.441 390.843 345.393C391.509 346.391 392.166 347.711 392.309 348.315C392.448 348.962 392.618 350.171 392.682 351.047C392.729 352.104 392.436 353.504 391.794 355.237C391.274 356.69 390.47 358.224 390.011 358.707C389.552 359.189 388.292 359.863 387.199 360.22C386.103 360.609 383.103 360.988 380.54 361.118C377.977 361.248 375.518 361.399 375.117 361.489C374.403 361.657 374.45 361.823 375.423 363.377C376.023 364.294 377.178 365.607 378.045 366.281C379.597 367.536 379.639 367.54 383.252 367.607C385.755 367.664 387.314 367.857 388.175 368.262C388.866 368.553 389.571 368.707 389.712 368.57C389.883 368.436 390.347 367.686 390.731 366.874C391.115 366.073 392.374 364.647 393.508 363.746C394.614 362.81 396.626 361.693 397.945 361.186C399.25 360.709 401.491 360.183 402.902 360.039C404.317 359.852 406.892 359.927 408.677 360.195C411.06 360.509 412.513 360.917 414.223 361.844C415.515 362.504 417.276 363.672 418.163 364.466C418.3 364.586 418.438 364.696 418.575 364.806C419.32 365.425 419.899 365.9 419.993 365.919C420.108 365.93 421.311 365.09 422.675 363.996C424.143 362.923 426.246 361.739 427.715 361.214C429.135 360.759 431.373 360.265 432.7 360.113C434.347 359.938 436.115 360.043 437.983 360.426C439.631 360.788 441.392 361.408 442.197 361.958C442.97 362.504 444.402 364.016 445.403 365.39C446.726 367.16 447.552 368.926 448.491 371.937L449.775 376.099C454.958 375.027 455.992 375.062 459.884 375.639C463.621 376.19 464.732 376.523 466.377 377.464C467.439 378.092 468.821 379.245 469.432 380.045C470.054 380.846 470.701 382.153 470.902 382.935C471.092 383.705 471.071 385.475 470.865 386.852C470.629 388.43 469.998 390.378 469.124 392.098C468.397 393.607 467.582 395.484 467.32 396.232L466.876 397.661C469.884 396.65 471.801 396.189 473.107 396.035C474.407 395.837 476.562 395.883 477.929 396.078C479.7 396.377 480.874 396.833 482.132 397.727C483.074 398.387 484.452 399.807 485.145 400.851C485.839 401.895 486.749 403.884 487.201 405.248C487.832 407.274 487.897 408.139 487.538 410.564C487.199 413.11 486.913 413.77 485.219 416.314C484.179 417.89 482.74 419.76 482.02 420.432C481.294 421.158 480.734 421.813 480.757 421.901C480.823 421.982 481.75 422.479 482.829 423.034C483.908 423.588 486.07 424.891 487.61 425.941C489.149 426.991 491.013 428.533 491.708 429.341C492.403 430.149 493.272 431.575 493.639 432.49C494.007 433.406 494.327 435.145 494.382 436.332C494.438 438.066 494.244 439.1 493.462 441.302C492.892 442.826 491.849 444.874 491.133 445.826C490.418 446.778 489.166 448.129 488.368 448.837L486.939 450.161C489.059 452.007 490.229 453.279 490.874 454.168C491.505 455.088 492.244 456.652 492.517 457.677C492.915 459.154 492.907 460.012 492.421 461.985C492.039 463.538 491.284 465.238 490.35 466.588C489.56 467.768 488.004 469.424 486.905 470.285L484.891 471.864C489.08 477.518 489.768 478.84 490.193 480.707C490.637 482.704 490.609 483.872 490.194 486.99C489.671 490.57 489.526 490.975 488.193 492.738C487.386 493.756 485.982 495.157 485.045 495.766C484.104 496.417 482.237 497.236 480.909 497.625C479.58 498.013 478.171 498.361 477.77 498.452C477.177 498.567 477.173 498.835 477.856 501.532C478.313 503.176 478.672 505.938 478.728 507.673C478.786 510.159 478.609 511.345 478.023 513.265C477.556 514.606 476.902 516.122 476.523 516.655C476.129 517.23 475.086 518.29 474.155 519.06C473.266 519.834 471.572 520.831 470.451 521.368C469.292 521.87 467.582 522.479 466.585 522.727C465.546 522.96 463.809 522.977 462.525 522.789C460.751 522.522 459.99 522.181 458.97 521.235L457.717 520.062C455.76 522.366 454.322 523.678 453.206 524.495C452.122 525.315 450.117 526.358 448.767 526.862C447.462 527.339 445.105 527.854 443.622 527.98C441.347 528.192 440.519 528.112 438.678 527.442C437.469 527.025 435.67 526.133 434.713 525.515C433.725 524.894 432.103 523.6 431.082 522.654L429.216 520.918C424.453 522.803 421.913 523.569 420.482 523.818C419.049 524.078 417.019 524.281 415.974 524.246C414.471 524.252 413.688 524.026 412.45 523.253C411.562 522.684 410.031 521.324 409.039 520.187C408.043 519.093 406.66 516.962 405.948 515.444C405.243 513.959 404.484 511.727 404.24 510.512C403.955 509.292 403.762 507.222 403.717 505.918C403.714 504.629 403.683 503.52 403.655 503.474C403.617 503.428 402.677 503.52 401.614 503.676C400.433 503.853 398.818 503.805 397.588 503.505C396.399 503.208 394.767 502.451 393.685 501.702C392.704 501.007 391.344 499.738 390.691 498.934C390.033 498.173 389.323 496.967 389.074 496.255C388.818 495.393 388.834 494.45 389.247 493.018C389.518 491.959 390.555 489.642 391.551 487.858C392.502 486.112 393.445 484.441 393.642 484.159C393.895 483.722 393.364 483.413 390.95 482.537C389.261 481.935 386.886 480.762 385.621 479.943C384.358 479.091 382.562 477.405 381.577 476.193C380.629 475.039 379.524 473.097 379.144 471.986C378.692 470.622 378.542 468.986 378.668 467.118L378.671 467.086C378.849 464.354 378.842 464.31 377.992 464.895C377.517 465.214 376.56 465.703 375.915 465.92C375.228 466.133 373.604 466.397 372.238 466.513L369.78 466.653C369.619 470.869 369.37 473.359 369.083 474.803C368.827 476.26 368.187 478.519 367.696 479.782C367.19 481.087 366.33 482.766 365.789 483.552C365.248 484.338 363.966 485.676 362.923 486.51C361.909 487.379 360.34 488.282 359.454 488.583C358.23 488.992 357.303 489.054 355.686 488.695C354.038 488.333 353.254 487.903 352.046 486.703L350.485 485.211C349.581 491.321 349.454 491.653 348.066 493.217C347.001 494.393 345.938 495.096 344.519 495.551C343.385 495.893 341.894 496.105 341.173 496.004C340.453 495.902 338.803 495.336 337.498 494.706C336.134 494.028 334.105 492.555 332.621 491.146C331.233 489.842 329.555 488.134 328.922 487.451L327.767 486.137C326.278 493.384 325.797 494.766 324.879 496.279C324.214 497.364 322.898 498.731 321.943 499.413C320.992 500.063 319.275 500.747 318.045 500.994C316.39 501.254 315.112 501.228 312.685 500.706C310.474 500.257 309.084 499.738 308.103 499.042C307.33 498.495 306.33 497.444 305.822 496.665C305.354 495.922 304.926 494.646 304.857 493.812C304.744 493.006 304.763 491.043 304.81 489.447C304.89 487.843 304.748 486.455 304.568 486.341C304.36 486.192 303.606 486.324 302.878 486.523C302.187 486.779 299.99 488.061 298.011 489.375C296.074 490.704 293.546 492.126 292.446 492.558C290.687 493.238 289.984 493.289 287.375 492.899C284.927 492.493 284.044 492.204 282.647 491.211C281.509 490.382 280.724 489.415 280.29 488.31C279.922 487.394 279.648 485.618 279.646 484.318L279.718 482.015C274.116 481.5 271.484 481.022 270.26 480.647C268.863 480.202 267.511 479.406 266.586 478.566C265.81 477.825 264.927 476.441 264.578 475.441C264.178 474.2 264.119 473.056 264.362 471.404C264.605 469.751 265.273 468.075 266.667 465.459C267.768 463.471 268.597 461.778 268.531 461.696C268.461 461.647 266.168 461.502 263.432 461.444C260.668 461.351 257.752 461.19 256.927 461.068C256.103 460.946 254.86 460.44 254.197 459.957C253.466 459.415 252.707 458.279 252.323 457.2C251.83 455.832 251.75 454.793 252.01 453.067C252.196 451.796 252.803 449.771 253.374 448.558C253.903 447.341 254.801 445.709 255.342 444.923C255.914 444.14 257.057 442.703 257.888 441.763C257.972 441.663 258.055 441.574 258.138 441.475L258.377 441.197C258.995 440.483 259.483 439.928 259.493 439.822C259.504 439.705 258.061 439.298 256.267 438.911C253.948 438.377 252.444 437.836 251.223 436.989C250.28 436.34 248.629 434.678 247.551 433.339C246.514 432.005 245.336 430.055 244.938 429.018C244.508 427.978 244 426.211 243.777 425.116C243.534 423.9 243.485 422.091 243.714 420.588C243.982 418.777 244.376 417.655 245.116 416.555C245.661 415.727 246.648 414.822 247.228 414.513L248.303 414.003C245.668 412.236 245.022 411.358 244.239 409.586C243.411 407.617 243.052 407.174 242.189 407.005C241.626 406.919 240.681 406.506 240.116 406.109C239.52 405.708 238.736 404.72 238.312 403.949C237.916 403.223 237.322 401.244 237.022 399.626C236.718 398.05 236.523 396.442 236.574 396.135C236.614 395.827 236.546 395.542 236.358 395.513C236.211 395.499 234.287 395.916 232.084 396.489C229.87 397.061 227.14 397.83 226.033 398.218C224.896 398.603 223.497 399.178 222.825 399.554C222.187 399.922 221.434 400.602 221.131 401.11C220.828 401.618 220.638 402.609 220.679 403.397C220.723 404.153 221.411 407.355 222.22 410.505C223.256 414.503 223.641 416.881 223.531 418.364C223.402 420.037 223.176 420.746 222.436 421.62C221.879 422.244 220.774 422.943 219.927 423.173C218.716 423.551 217.648 423.428 213.826 422.664C211.313 422.165 209.239 421.827 209.217 421.943C209.206 422.06 209.686 423.234 210.344 424.543C210.956 425.89 211.67 427.602 211.909 428.312C212.145 429.054 212.397 430.507 212.478 431.535C212.55 432.885 212.398 433.923 211.913 435.111C211.549 436.043 210.696 437.325 210.031 437.97C209.137 438.787 208.185 439.222 206.934 439.36C205.4 439.567 204.611 439.406 202.224 438.586C200.678 438.041 199.097 437.535 198.721 437.477C198.23 437.409 198.083 437.62 198.151 438.454C198.175 439.09 198.749 441.497 199.4 443.868C200.092 446.255 200.784 449.189 200.945 450.386C201.115 451.594 201.133 453.282 201.009 454.129C200.886 454.977 200.345 456.311 199.836 457.099C199.368 457.892 198.328 458.92 197.604 459.399C196.836 459.905 195.489 460.378 194.548 460.481C193.649 460.577 191.895 460.441 190.664 460.141C189.429 459.883 187.46 459.114 186.274 458.463C185.097 457.824 183.768 457.106 183.335 456.882L182.505 456.48C183.024 461.116 183.085 463.796 182.963 465.396C182.843 467.532 182.535 468.867 181.886 470.341C181.308 471.628 180.452 472.716 179.539 473.402C178.766 473.962 177.628 474.572 176.994 474.673C176.398 474.82 174.97 474.801 173.832 474.638C172.622 474.458 170.975 473.86 169.873 473.217C168.88 472.638 166.763 470.985 165.194 469.578C163.667 468.175 162.323 467.069 162.204 467.09C162.113 467.157 162.187 468.259 162.42 469.592C162.61 470.92 162.727 473.563 162.624 475.519C162.572 477.716 162.242 479.95 161.819 481.488C161.424 482.847 160.851 484.414 160.527 485.027C160.204 485.641 159.442 486.631 158.816 487.204C158.227 487.825 156.945 488.615 155.972 488.94C154.579 489.441 153.615 489.456 151.048 489.07C148.439 488.68 147.372 488.331 145.419 487.177C144.107 486.396 143 485.796 142.913 485.82C142.822 485.886 142.437 486.924 142.033 488.163C141.618 489.401 140.877 491.059 140.371 491.806C139.83 492.592 138.84 493.539 138.169 493.915C137.452 494.319 135.743 494.928 134.303 495.263C132.225 495.74 131.058 495.768 128.492 495.382C125.772 494.939 124.973 494.658 123.357 493.515C122.307 492.77 121.168 491.619 120.845 490.901C120.491 490.18 120.213 488.886 120.198 487.939L120.177 486.283C115.093 489.856 112.917 491.022 111.174 491.542C109.143 492.185 107.935 492.317 106.38 492.082C105.055 491.879 103.776 491.424 102.907 490.771C102.144 490.226 100.992 489.106 100.338 488.313C99.6806 487.551 98.8433 486.129 98.4769 485.202C98.1516 484.29 97.8122 482.861 97.7439 482.028C97.6812 480.916 97.4956 480.533 97.0669 480.588C96.937 480.619 96.6132 480.684 96.1699 480.781L96.1385 480.778C95.4783 480.93 94.5718 481.112 93.6748 481.305C92.1616 481.632 89.0651 481.916 86.8193 481.937C83.9296 481.939 81.5289 481.698 78.4551 481.081C76.0873 480.607 73.1567 479.822 71.9589 479.288C70.7571 478.797 69.1721 477.775 68.4248 477.07C67.5796 476.28 66.8319 475.027 66.4048 473.74C65.8822 472.014 65.8469 470.948 66.2503 466.959C66.5202 464.364 66.6863 462.189 66.5822 462.061C66.4855 461.965 66.062 461.635 65.6082 461.291C65.1228 460.943 62.498 460.391 58.6054 459.814C55.1618 459.301 51.6012 458.573 50.6073 458.231C49.6595 457.85 48.0285 456.867 46.9997 456.006C45.7944 454.999 44.7539 453.707 44.1013 452.345C43.2482 450.534 43.2027 450.014 43.5773 448.535C43.8264 447.593 44.669 445.869 45.5015 444.692C46.2921 443.511 47.1074 442.182 47.3336 441.699L47.6869 440.885C44.8667 441.377 41.7724 441.746 38.9455 442.088L38.6133 442.131C35.4362 442.482 32.3224 442.613 30.8518 442.386C29.074 442.162 28.0077 441.802 26.9887 441.06C26.2155 440.513 25.1736 439.457 24.6276 438.75C24.071 438.041 23.4247 436.723 23.1582 435.859C22.8643 434.951 22.6463 433.029 22.6307 431.534L22.5975 428.9C18.7783 428.329 16.7835 427.719 15.7 427.207C14.5933 426.607 13.2347 425.543 12.5571 424.661C11.7216 423.55 11.2678 422.433 11.0629 420.705C10.8393 419.062 10.9325 417.428 11.3062 415.627C11.6114 414.099 12.2557 412.346 12.7998 411.528C13.3408 410.742 14.7902 409.313 16.0459 408.359L18.347 406.657C16.6032 405.416 15.1929 404.228 14.1029 403.232C13.0569 402.219 11.6563 400.71 11.049 399.868C10.4418 399.025 9.65248 397.543 9.37619 396.56C8.96837 395.404 8.89354 394.087 9.11894 392.508C9.34026 390.972 9.80439 389.663 10.5103 388.592C11.0731 387.69 12.3823 386.398 13.4102 385.723C14.441 385.016 16.1521 384.171 17.2721 383.859C17.9573 383.667 18.7064 383.471 19.2587 383.341C19.573 383.264 19.8224 383.202 19.9533 383.16C20.5455 383.056 20.4397 382.724 19.2905 381.131C18.5517 380.115 17.5978 378.252 17.1982 377.011C16.7985 375.769 16.4408 373.759 16.3443 372.557C16.2811 370.897 16.4159 369.933 16.9427 368.523C17.3739 367.447 18.3076 366.097 19.1413 365.35C19.8975 364.639 21.3023 363.785 22.199 363.484C23.0957 363.184 24.8079 362.768 26.0026 362.56C28.0558 362.231 28.1773 362.178 28.1419 361.111C28.1172 360.486 28.2661 358.932 28.4514 357.661C28.6873 356.083 29.1216 354.976 29.7401 354.154C30.2594 353.484 31.225 352.685 31.8636 352.317C32.7892 351.826 33.611 351.754 35.5725 352.049C37.0442 352.266 39.081 352.88 40.4134 353.555C42.4375 354.523 42.767 354.619 42.9932 354.135C43.1476 353.85 43.8693 353.167 44.5925 352.688C45.3157 352.21 47.0713 351.562 48.5039 351.302C50.6471 350.917 51.9138 350.952 56.1819 351.587C60.4919 352.225 61.5308 352.54 62.8658 353.409C64.1314 354.228 64.6839 354.979 65.5041 357.023L66.5889 359.619C69.5707 358.766 71.3788 358.564 72.5271 358.62C74.2532 358.721 74.9941 358.942 76.5749 360.007C77.6254 360.752 78.9477 361.974 79.4406 362.795C79.9795 363.577 80.5306 364.564 80.6596 364.985C80.9374 365.731 81.0098 365.748 83.1194 365.381C84.6559 365.142 85.8471 365.192 87.1431 365.584C88.1441 365.852 89.8733 366.695 90.9268 367.408C91.9814 368.11 93.2182 369.12 93.6883 369.627L94.5222 370.534C95.9074 368.229 96.7313 367.363 97.2297 367.131C97.7712 366.893 99.5648 366.732 101.271 366.713C103.004 366.739 105.663 367.048 107.338 367.456L110.322 368.128C110.986 363.627 111.272 362.967 112.295 361.787C113.174 360.787 114.286 360.12 115.695 359.664C116.874 359.294 119.049 358.901 120.57 358.821C122.051 358.727 124.737 358.855 126.512 359.111C128.283 359.41 129.848 359.528 130.015 359.447C130.224 359.36 129.73 358.227 128.965 356.93C128.189 355.642 127.333 353.863 127.067 352.989C126.807 352.169 126.551 350.759 126.518 349.886C126.482 348.819 126.736 347.834 127.327 346.741C127.848 345.835 128.892 344.775 129.951 344.104C131.1 343.376 132.894 342.774 134.751 342.501C136.375 342.227 138.65 342.016 139.714 342.064L141.751 342.13C139.546 338.74 138.663 336.915 138.397 335.816C137.982 334.412 137.984 333.392 138.309 331.995C138.615 330.671 139.204 329.61 140.227 328.43C141.328 327.214 142.306 326.621 144.008 326.086C146.039 325.443 146.93 325.421 150.534 325.798L154.713 326.263C149.492 319.007 147.969 316.455 147.431 314.889C146.98 313.525 146.559 311.616 146.548 310.627C146.558 309.532 146.859 308.272 147.317 307.242C147.765 306.329 148.894 304.923 149.86 304.124C150.83 303.282 152.52 302.317 153.657 301.942C154.749 301.596 157.955 301.055 160.776 300.767C163.556 300.475 166.277 300.134 166.774 299.924C167.296 299.77 167.657 299.428 167.572 299.216C167.486 299.004 166.845 298.405 166.114 297.863C165.41 297.366 163.915 296.513 162.835 295.959C161.752 295.447 160.194 294.471 159.366 293.833C158.569 293.209 157.564 291.877 157.142 290.87C156.558 289.568 156.428 288.6 156.611 287.135L156.908 285.134C153.428 284.338 151.761 283.62 150.919 283.024C150.114 282.474 149.153 281.351 148.803 280.587C148.449 279.866 148.036 278.43 147.92 277.431C147.766 276.385 147.974 273.666 148.376 270.901C148.761 268.328 149.028 266.206 148.954 266.199C148.912 266.195 147.87 266.471 146.664 266.795C145.454 267.163 143.669 267.453 142.708 267.426C141.584 267.447 140.28 267.139 138.971 266.552C137.492 265.863 136.668 265.182 135.673 263.744C134.98 262.7 134.177 260.808 133.909 259.515C133.628 258.253 133.417 256.031 133.413 254.527C133.436 253.079 133.582 250.784 133.778 249.396L134.145 246.896C126.836 245.412 123.76 244.483 122.051 243.761C120.458 243.05 117.994 241.697 116.582 240.745C115.213 239.798 113.412 238.154 112.562 237.084C111.685 235.969 110.97 234.483 110.746 233.398C110.427 231.864 110.507 231.356 111.071 230.11C111.466 229.3 112.824 227.389 114.094 225.846C115.364 224.303 116.416 222.932 116.445 222.742C116.459 222.593 115.428 222.311 114.102 222.12C112.818 221.932 109.584 221.88 106.892 222.03C104.215 222.139 101.081 222.15 99.9541 221.978C98.8171 221.804 97.0333 221.311 96.0716 220.854C94.7666 220.224 93.8765 219.462 92.8923 218.025C91.9785 216.627 91.478 215.333 91.2849 213.704C91.0857 212.138 91.1661 210.857 91.5569 209.541C91.8277 208.482 92.4174 207.078 92.8328 206.387C93.2368 205.706 93.5297 205.079 93.4959 204.99C93.4266 204.941 92.0613 204.498 90.4308 204.063C88.8043 203.585 86.0985 202.552 84.3967 201.755C82.6959 200.948 80.5346 199.645 79.5985 198.922C78.6244 198.152 77.2125 196.76 76.4247 195.814C75.6368 194.869 74.7346 193.128 74.339 191.844C73.7729 189.911 73.7523 189.243 74.2624 187.122C74.591 185.682 75.2596 184.006 75.9438 183.052C76.538 182.153 77.534 180.927 78.1226 180.307L79.2123 179.208C75.1714 177.307 73.2698 176.276 72.3989 175.645C71.529 175.003 70.1881 173.865 69.3744 173.078C68.3988 172.103 67.7613 170.915 67.2735 169.268C66.6871 167.214 66.6593 166.62 67.1736 164.457C67.5264 163.095 68.3596 160.586 69.0763 158.85C69.7626 157.101 70.7015 154.925 71.156 153.937L71.9881 152.213C77.1331 152.974 79.1887 153.171 79.8826 153.109C80.5901 153.015 81.1549 152.866 81.1837 152.675C81.198 152.526 80.6159 152.084 79.863 151.657C79.152 151.234 75.8076 149.797 72.4287 148.388C69.0812 146.983 65.0363 145.123 63.3918 144.171C61.7997 143.224 59.8131 141.755 58.9761 140.88C58.1392 140.005 57.285 138.978 57.0639 138.635C56.8469 138.249 56.4278 137.21 56.1035 136.287C55.6967 135.12 55.6265 133.975 55.8695 132.323C56.0579 131.02 56.5726 129.405 57.0758 128.572C57.5434 127.779 58.4685 126.74 59.1234 126.201C59.7743 125.705 61.1807 125.056 62.3071 124.788C63.3957 124.473 66.0145 124.316 68.0539 124.351C70.1322 124.421 71.6849 124.344 71.5503 124.202C71.4188 124.029 69.6244 123.094 67.5319 122.067C65.4385 121.05 62.7356 119.545 61.5085 118.654C60.2774 117.806 58.6849 116.31 57.942 115.337C57.1992 114.364 56.339 112.627 55.9595 111.506C55.4096 109.735 55.3832 108.905 55.8693 105.601C56.3224 102.53 56.6352 101.475 57.4227 100.326C57.9637 99.5399 58.9653 98.4759 59.7103 97.8814C60.4522 97.3188 61.3879 96.7211 61.8383 96.5495C62.6166 96.2696 62.5818 96.1911 61.5091 94.5739C60.8775 93.6541 59.8569 91.9345 59.2163 90.7776C58.6207 89.5928 57.9275 87.9904 57.7682 87.2233C57.5774 86.4532 57.5547 85.0333 57.6895 84.0689C57.8348 83.1054 58.2787 81.6765 58.6593 80.9075C59.0085 80.1354 59.9594 78.9377 60.7115 78.2687C61.4636 77.5997 62.9797 76.7998 64.0683 76.4853C65.1558 76.1814 66.7803 75.9074 67.6441 75.8399L69.2806 75.7712C65.1495 70.2843 63.5733 67.8455 63.0714 66.7878C62.6114 65.7341 62.0979 64.2456 61.9385 63.4785C61.8211 62.7155 61.8187 61.4156 61.9382 60.6108C62.0546 59.8379 62.4656 58.6422 62.8245 57.9892C63.2213 57.3828 64.1966 56.2626 65.0356 55.5697C65.8757 54.8662 67.2588 54.1287 68.1369 53.9122C69.2487 53.6858 70.6308 53.7323 72.7279 54.1589L75.7283 54.7686C76.5561 49.1126 76.8739 48.3375 77.836 47.0227C78.5937 46.075 79.7238 45.2167 80.8685 44.7571C82.5128 44.0555 83.0978 44.0256 86.1158 44.5619C87.963 44.8356 90.8307 45.6153 92.4354 46.2094C94.0507 46.8046 96.2561 47.7571 97.3314 48.3542C97.7451 48.5657 98.1378 48.7752 98.4706 48.9467C98.9946 49.2224 99.3474 49.4066 99.3684 49.4086C99.4418 49.4157 99.5156 49.1972 99.5526 48.9215C99.5856 48.6884 100.221 47.8041 100.999 46.9764C101.731 46.1767 103.143 45.2487 104.081 44.9627C105.577 44.4831 106.319 44.4683 109.018 45.0277C111.385 45.5016 112.623 45.9532 113.776 46.8371C114.65 47.4364 116.566 49.6499 118.072 51.7167L120.804 55.4585C125.482 56.2291 127.553 56.8142 128.421 57.2625C129.289 57.7002 130.591 58.8024 131.314 59.6557C132.036 60.509 133.04 62.0766 133.541 63.1343C134.001 64.188 134.924 66.5964 135.522 68.5332C136.119 70.4701 136.874 73.5282 137.145 75.3371L137.662 78.6732C139.834 78.0973 141.196 78.0238 142.062 78.1498C142.97 78.2798 144.314 78.8382 145.09 79.3529C145.863 79.8996 147.154 81.3444 147.982 82.53C148.838 83.7613 149.839 85.9086 150.286 87.3155C150.688 88.7503 151.039 90.6098 151.021 91.4673C151.012 92.8842 151.198 93.1491 152.842 94.327C153.851 95.0681 155.44 96.5952 156.425 97.8065C157.409 99.0179 158.752 101.134 159.474 102.545C160.155 103.942 161.133 106.442 161.676 108.062L162.626 111.075C167.161 111.788 169.212 112.254 170.133 112.589C170.399 112.679 170.656 112.757 170.882 112.833C171.436 113.014 171.836 113.149 171.87 113.121C171.915 113.093 172.284 112.118 172.687 111.008C173.08 109.885 173.995 108.18 174.712 107.217C175.438 106.266 176.555 105.213 177.249 104.926C177.912 104.635 179.192 104.317 180.06 104.207C180.927 104.097 182.991 104.209 184.661 104.455C186.321 104.699 188.483 105.218 189.511 105.65C190.133 105.892 190.816 106.161 191.317 106.349L191.602 106.462C191.756 106.52 191.877 106.575 191.959 106.604C192.424 106.831 192.687 106.631 192.963 105.852C193.165 105.291 194.326 103.662 195.585 102.236C196.833 100.809 199.336 98.5467 201.143 97.2485L204.426 94.9103C202.885 91.7767 202.044 89.838 201.571 88.5898C201.098 87.3415 200.566 84.9384 200.301 83.2911C200.02 81.2451 200.031 79.592 200.363 78.1095C200.732 76.3619 201.052 75.7804 202.151 74.9191C203.02 74.2398 204.38 73.7472 206.23 73.4412C208.725 73.0252 209.828 73.1094 217.007 74.1841C221.432 74.8445 225.067 75.3433 225.074 75.2688C225.078 75.2262 224.328 73.7795 223.423 72.0709C222.513 70.4049 221.367 67.6744 220.861 66.1115C220.355 64.5486 219.884 62.5057 219.788 61.6265C219.682 60.7464 219.73 59.14 219.882 58.102C220.039 57.0215 220.458 55.5151 220.842 54.7141C221.248 53.797 222.268 52.6489 223.474 51.7657C225.038 50.5837 226.06 50.1876 228.036 49.8937C229.889 49.6632 231.884 49.7148 235.254 50.2204C238.169 50.6179 239.854 50.7042 239.772 50.46C239.687 50.2478 239.275 48.5758 238.844 46.7837C238.171 43.9698 238.152 43.0657 238.532 40.2129C238.964 37.247 239.144 36.8025 240.198 35.7435C240.832 35.0954 242 34.2836 242.785 33.9293C243.294 33.6988 244.347 33.4238 245.522 33.2035C252.863 32.3711 259.752 34.2558 266.512 36.9444M312.194 30.4211C310.864 29.7137 309.398 29.2188 308.326 29.1375C307.223 29.0533 305.787 29.3453 304.224 29.9795C302.901 30.5293 300.623 31.8791 299.113 32.948C297.644 34.0316 295.482 35.8222 292.35 39.0127L292.387 42.1632C292.436 44.4126 292.3 45.6132 291.892 46.3367C291.617 46.8903 290.963 47.4183 290.443 47.5404C289.923 47.6624 289.176 47.5049 288.534 47.1426C287.961 46.8192 287.227 46.083 286.925 45.4847C286.553 44.8369 286.44 43.8057 286.621 42.8027C286.762 41.8818 287.21 40.4103 287.571 39.5212C288.255 38.008 288.284 37.8174 287.51 36.2932C287.07 35.3596 286.068 33.9962 285.269 33.1678C284.455 32.381 283.107 31.3174 282.208 30.866C281.313 30.3828 279.732 29.8662 278.71 29.7144C277.457 29.53 276.249 29.6612 275.18 30.0958C274.28 30.4284 273.101 31.3572 272.488 32.1255C271.628 33.2567 271.299 34.1489 270.511 39.4973L272.087 41.6138C273.185 43.0723 273.71 44.2182 273.85 45.413C273.992 46.5759 273.844 47.5713 273.409 48.6895C273.052 49.5361 272.392 50.579 271.905 51.0157C271.423 51.4099 270.801 51.7154 270.529 51.6786C270.295 51.6885 269.703 51.245 269.229 50.7807C268.758 50.2844 268.144 48.7327 267.76 47.1064C267.411 45.5585 267.053 43.7735 266.959 43.0986C266.83 42.1303 266.438 41.6846 264.878 40.7403C263.816 40.1122 261.49 39.0945 259.641 38.5091C257.806 37.8822 255.119 37.2058 253.69 36.9936C252.218 36.7774 249.998 36.6398 248.713 36.6884C247.427 36.7371 245.685 37.0212 244.834 37.294C244.025 37.5602 243.088 38.1686 242.779 38.633C242.438 39.0944 242.192 40.2308 242.147 41.3649C242.106 42.4565 242.286 44.3319 242.529 45.5474C242.772 46.7629 243.401 48.8208 243.905 50.0721C244.701 52.0387 245.265 52.6727 247.646 54.5549C249.202 55.7674 250.751 57.0543 251.117 57.4331C251.484 57.8012 251.921 58.5412 252.071 59.0712C252.311 59.7708 252.249 60.1945 251.772 60.8684C251.469 61.3764 250.739 61.8112 250.195 61.8557C249.652 61.8896 248.567 61.6138 247.776 61.2587C246.974 60.9026 245.785 60.0583 245.152 59.3746C244.515 58.7336 243.637 57.6184 243.192 56.9635C242.46 55.8731 242.037 55.6499 238.491 54.773C235.734 54.047 233.658 53.7405 231.388 53.6734C229.655 53.6469 227.659 53.8208 227.013 54.0489C226.326 54.2623 225.367 54.9867 224.81 55.6099C224.056 56.5151 223.843 57.1928 223.686 59.0572C223.541 60.5685 223.743 62.3278 224.223 64.0494C224.664 65.5308 225.462 67.6909 225.987 68.8368C226.551 70.0186 227.967 72.4742 229.112 74.3346C230.961 77.2399 231.5 77.7964 233.295 78.731C234.631 79.3638 235.59 80.1754 235.987 80.9008C236.531 81.9625 236.536 82.1242 235.87 83.0054C235.301 83.7457 234.806 83.9453 233.619 83.853C232.473 83.7647 231.755 83.4166 230.734 82.481C229.781 81.5949 228.417 80.9164 226.242 80.2031C224.504 79.6714 220.666 78.7451 217.666 78.1353C214.286 77.5106 211.137 77.1229 209.389 77.138C207.885 77.1549 206.004 77.3398 203.967 78.0575L203.886 80.4449C203.827 82.1684 204.147 83.9068 205.037 86.5483C205.7 88.5774 206.626 90.9538 208.022 93.2787L210.366 92.5689C211.695 92.1807 213.888 91.7143 215.299 91.5702C216.783 91.4332 218.554 91.5063 219.524 91.7711C220.452 92.0212 221.722 92.5726 222.315 93.016C222.95 93.4635 223.753 94.2493 224.132 94.8227C224.483 95.3504 224.927 96.2414 225.032 96.7993C225.179 97.3718 225.292 98.7253 225.328 99.792C225.339 101.329 225.199 102.014 224.518 102.937C224.075 103.581 223.041 104.331 222.266 104.568C221.461 104.802 219.56 104.867 217.809 104.689C215.784 104.505 214.077 104.095 212.768 103.507C211.644 102.981 209.872 101.705 206.57 98.3809L204.582 99.5759C203.527 100.205 201.611 101.643 200.403 102.763C199.153 103.878 197.583 105.682 196.918 106.768C195.758 108.601 195.698 108.788 196.248 109.228C196.434 109.385 196.855 109.748 197.393 110.207C197.863 110.607 198.409 111.089 198.957 111.56C200.117 112.595 202.102 114.858 203.359 116.536C204.767 118.518 205.766 120.354 206.069 121.5C206.443 123.125 206.398 123.476 205.779 124.522C205.364 125.213 204.634 125.766 204.072 125.884C203.476 126.031 202.415 125.833 201.436 125.449C200.515 125.113 198.715 124.017 197.35 123.027C196.026 122.041 194.274 120.327 193.469 119.229C192.534 117.947 191.805 116.384 191.479 114.925C191.201 113.631 191.037 112.144 191.119 111.614C191.239 110.81 191.01 110.541 189.701 109.953C188.872 109.552 186.265 108.926 183.916 108.583C179.648 107.948 179.606 107.944 178.42 108.947C177.717 109.546 176.912 110.768 176.473 111.918C176.046 112.952 175.673 114.194 175.611 114.618C175.55 115.041 175.791 115.505 176.113 115.675C176.482 115.807 177.683 116.857 178.798 117.92C180.109 119.259 181.28 120.961 182.198 122.864C182.92 124.501 183.659 126.613 183.774 127.623C183.96 129.219 183.916 129.569 183.06 130.658C182.42 131.477 181.498 132.044 180.303 132.37C179.023 132.688 178.132 132.71 177.069 132.318C176.003 131.958 175.209 131.291 174.114 129.801C173.192 128.488 172.502 126.854 172.153 125.306C171.889 123.97 171.591 121.998 171.527 120.896C171.508 120.432 171.493 119.926 171.484 119.474C171.465 118.892 171.441 118.374 171.442 118.138C171.431 117.708 171.052 117.134 170.576 116.906C170.111 116.679 168.328 116.175 163.398 115.047L163.105 118.112C162.835 120.707 162.608 121.416 161.684 122.777C161.09 123.676 159.919 125.068 159.095 125.934C158.272 126.789 156.947 127.694 156.131 127.927C155.276 128.232 154.225 128.27 153.568 128.057C152.717 127.771 152.195 127.141 151.436 125.458C150.871 124.276 150.365 122.272 150.267 121.082C150.177 119.376 150.3 118.529 150.879 117.241C151.285 116.314 152.17 115.035 152.887 114.394C153.563 113.75 155.122 112.836 156.308 112.392C157.536 111.94 158.562 111.512 158.611 111.442C158.698 111.418 158.305 110.102 157.768 108.525C157.227 106.991 156.141 104.632 155.342 103.256C154.587 101.851 153.445 100.185 152.797 99.5425C152.164 98.8589 151.319 98.069 150.935 97.7744C150.276 97.2494 150.105 97.3727 149.015 99.2552C148.389 100.377 147.332 101.79 146.747 102.378C146.116 102.994 145.113 103.747 144.463 104.007C143.842 104.301 142.856 104.433 142.212 104.306C141.492 104.194 140.899 103.762 140.527 103.114C140.224 102.516 140.07 101.47 140.254 100.553C140.377 99.7054 141.129 98.0483 141.877 96.8634C142.668 95.6825 143.863 94.3686 144.583 93.922C145.303 93.4755 146.183 93.0228 146.602 92.8481C147.293 92.5922 147.318 92.4442 147 90.3516C146.83 89.1431 146.218 87.2478 145.66 86.1096C145.089 85.0023 144.084 83.6708 143.467 83.1498C142.892 82.6329 141.955 82.135 141.433 82.0634C140.901 81.9803 139.866 82.1817 139.125 82.5082C137.931 83.0382 137.784 83.2496 137.519 85.0179C137.367 86.0559 136.976 87.3717 136.671 87.9116C136.392 88.4972 135.614 89.3248 134.95 89.8518C134.299 90.348 133.263 90.775 132.615 90.7988C131.874 90.8029 131.179 90.543 130.67 90.1183C130.061 89.5122 129.98 89.0318 130.197 87.5382C130.4 86.1937 130.89 85.1666 132.15 83.5044C133.059 82.3027 133.874 80.9738 133.936 80.5501C133.998 80.1265 133.76 78.0844 133.406 76.0313C133.049 74.0102 132.285 70.8329 131.666 69.0121C131.046 67.1913 130.044 64.8398 129.458 63.774C128.663 62.3552 127.891 61.5724 126.604 60.869C125.604 60.3651 124.318 59.866 122.542 59.6312L123.108 61.5651C123.407 62.6356 123.783 64.5726 123.931 65.8972C124.065 67.3707 123.996 68.8571 123.705 69.7958C123.468 70.6215 122.823 71.8271 122.353 72.4264C121.869 73.0567 120.921 73.7821 120.233 73.9955C119.546 74.2089 118.707 74.354 118.331 74.2965C117.987 74.2421 117.175 73.7669 116.559 73.2459C115.973 72.728 115.256 71.5959 114.958 70.7296C114.687 69.9089 114.413 68.1319 114.337 66.8251C114.266 65.4756 114.464 63.6258 114.735 62.567C115.048 61.5122 115.733 59.999 117.24 57.6302L115.751 55.1676C114.947 53.8339 113.857 52.2902 113.286 51.7307C112.718 51.1392 111.759 50.3277 111.124 49.8802C110.459 49.4297 109.055 48.9408 107.74 48.7503C105.81 48.4579 105.293 48.548 104.391 49.2349C103.786 49.6925 103.134 50.4247 102.954 50.8693C102.703 51.5004 102.904 52.2715 103.696 53.7329C104.628 55.487 104.74 56.0885 104.493 57.7833C104.286 59.1704 103.82 60.275 103.094 61.2257C102.185 62.4275 101.85 62.6102 100.754 62.4514C99.8464 62.3107 99.3191 61.9595 98.8956 61.1885C98.593 60.5903 98.2773 58.5838 98.0312 53.2007L96.0602 52.1204C94.9954 51.5243 92.8529 50.5778 91.352 50.0044C89.848 49.4628 87.3203 48.7802 85.7384 48.4997C83.2932 48.0613 82.7082 48.0911 81.9358 48.6401C81.4251 48.9993 80.7061 49.8755 80.3745 50.5741C80.0744 51.2757 79.7201 52.8742 79.6993 54.0859C79.6324 55.3361 79.7993 56.5765 80.0001 56.7999C80.1905 57.0222 81.1638 57.9102 82.2937 58.9315C82.5176 59.1355 82.7614 59.3522 82.9947 59.5679C84.4009 60.7982 85.9403 62.4064 86.4129 63.1069C86.8541 63.8044 87.5352 65.2014 87.8494 66.2304C88.2152 67.3825 88.3709 68.74 88.2144 69.8205C88.0692 70.7839 87.5746 72.0791 87.1358 72.6815C86.5989 73.4248 85.9206 73.8753 85.2067 73.9251C84.6218 73.9549 83.7553 73.8289 83.2483 73.5977C82.7372 73.4091 81.5824 72.0955 80.654 70.7392C79.473 69.0364 78.5152 66.8824 77.6105 63.8421C76.2748 59.5575 76.2126 59.4334 74.6843 58.8144C73.8508 58.4552 72.408 58.0485 71.4588 57.9038C70.52 57.7601 69.2305 57.8513 68.5443 58.0541C67.857 58.2674 66.9896 58.9254 66.5928 59.5318C66.196 60.1382 65.7936 61.0233 65.7101 61.5631C65.6266 62.1028 65.75 63.135 65.9889 63.8453C66.2351 64.5885 68.0841 67.4938 70.0617 70.2717C72.0362 73.0816 73.8087 76.0118 74.0364 76.8392C74.3288 77.9842 74.2802 78.6025 73.9066 79.297C73.6354 79.8081 73.0032 80.22 72.4947 80.225C72.024 80.2766 70.5276 80.2083 69.1642 80.0777C67.7169 79.9389 65.9998 80.0751 65.0611 80.3718C64.0839 80.74 63.0875 81.4178 62.5925 82.1651C62.1046 82.838 61.6243 83.9841 61.5225 84.7155C61.403 85.5203 61.6149 86.7328 62.079 87.7439C62.4872 88.6745 63.7878 90.7861 67.0884 95.4416L69.775 95.5702C71.3408 95.688 72.8503 95.9509 73.4195 96.3061C73.9959 96.5869 74.6249 97.3131 74.8445 97.8927C75.1497 98.6845 75.1501 99.2323 74.7058 100.113C74.4202 100.773 73.7462 101.622 73.2355 101.981C72.6307 102.439 71.8362 102.556 70.7442 102.354C69.8369 102.214 68.427 101.574 67.3491 100.783C65.6787 99.549 65.453 99.4736 64.4024 99.8348C63.7885 100.055 62.7783 100.656 62.1244 101.185C61.4736 101.681 60.6821 102.539 60.4173 103.094C60.097 103.675 59.7239 104.918 59.5756 105.913C59.4232 106.951 59.3967 108.441 59.4681 109.243C59.5783 110.081 60.0054 111.367 60.4709 112.142C60.9814 112.889 62.0259 114.139 62.8877 114.866C63.7358 115.624 66.439 117.236 68.9137 118.472C71.3988 119.709 74.4861 121.068 75.8095 121.507C77.4603 122.062 78.4212 122.638 78.9043 123.339C79.3294 123.874 79.5854 124.736 79.5196 125.203C79.4716 125.703 78.937 126.532 78.387 127.081C77.8054 127.627 76.7093 128.241 75.9486 128.448C75.192 128.611 72.5635 128.649 70.1411 128.525C67.7333 128.358 65.07 128.318 64.2586 128.391C63.4777 128.477 62.3306 128.85 61.7015 129.23C61.0997 129.656 60.3705 130.639 60.0592 131.457C59.6988 132.346 59.5246 133.5 59.6349 134.338C59.7103 135.097 60.2673 136.353 60.8512 137.107C61.4311 137.904 62.6851 139.066 63.6663 139.762C64.6055 140.453 66.7885 141.64 68.4893 142.447C70.19 143.255 73.4505 144.684 75.7534 145.614C78.0489 146.51 80.7259 147.733 81.7329 148.27C82.7703 148.821 83.9685 149.902 84.5307 150.772C85.235 151.817 85.5184 152.725 85.402 153.498C85.3073 154.155 84.7415 155.089 84.115 155.662C83.3933 156.345 82.2945 156.766 80.911 156.956C79.8063 157.108 77.8088 157.077 74.1355 156.532L72.8418 159.759C72.1484 161.583 71.3194 164.049 71.0187 165.309C70.4584 167.511 70.4891 167.632 71.5452 169.312C72.2075 170.353 73.592 171.699 75.0657 172.667C76.3976 173.568 78.7917 174.872 80.3957 175.584C82.8647 176.658 83.9527 176.902 87.7493 177.266C91.9035 177.654 92.3033 177.789 92.8832 178.585C93.2389 179.07 93.4964 179.697 93.4634 179.93C93.4275 180.195 93.0652 180.772 92.6972 181.188C92.3147 181.645 91.515 182.149 90.8592 182.365C90.2453 182.586 88.0374 182.653 85.9357 182.495C82.497 182.262 82.0274 182.303 81.1068 183.074C80.5334 183.534 79.6492 184.588 79.1396 185.377C78.5986 186.163 78.058 187.497 77.9345 188.344C77.7821 189.382 77.9358 190.428 78.4621 191.563C78.9018 192.497 79.5884 193.615 79.9482 194.058C80.3384 194.514 81.7663 195.628 83.0942 196.572C84.4366 197.474 86.7654 198.685 88.1824 199.25C89.6414 199.82 92.3285 200.496 94.1337 200.766C97.3097 201.199 97.5425 201.2 99.3527 200.203C100.401 199.648 101.853 198.96 102.544 198.715C103.276 198.474 104.376 198.364 104.972 198.443C105.577 198.533 106.334 198.917 106.586 199.274C106.879 199.635 107.065 200.244 107.01 200.593C106.952 200.974 106.481 201.81 105.968 202.405C105.453 203.032 104.24 203.872 103.263 204.24C102.314 204.643 101.02 205.002 100.358 205.068C99.6961 205.123 98.925 205.328 98.6004 205.512C98.3074 205.698 97.4658 206.638 96.7775 207.635C95.9335 208.822 95.4136 210.05 95.2272 211.332C95.046 212.56 95.1435 213.751 95.5068 214.71C95.8119 215.501 96.5886 216.564 97.2515 217.046C98.2286 217.785 99.0459 217.981 101.335 218.168C102.901 218.286 105.951 218.267 108.103 218.119C110.242 218.002 113.211 218.05 114.641 218.262C116.081 218.475 117.711 218.921 118.242 219.23C118.815 219.553 119.525 220.202 119.881 220.687C120.33 221.299 120.448 222.062 120.287 223.185C120.099 224.488 119.48 225.535 117.21 228.346C115.648 230.28 114.343 232.089 114.311 232.311C114.275 232.576 114.645 233.46 115.145 234.206C115.611 234.981 117.037 236.332 118.254 237.221C119.484 238.08 121.723 239.348 123.201 240.048C124.68 240.737 127.599 241.64 129.664 242.074C131.73 242.498 133.879 242.822 134.464 242.792C135.245 242.706 135.94 242.192 136.919 240.804C137.681 239.814 138.861 238.659 139.535 238.251C140.206 237.875 140.945 237.56 141.144 237.589C141.332 237.607 141.855 238.012 142.288 238.462C142.883 239.099 143.04 239.672 142.837 241.017C142.684 242.055 142.242 243.247 141.712 243.916C141.197 244.544 140.185 245.381 137.983 246.384L137.556 250.843C137.322 253.28 137.231 256.214 137.339 257.299C137.444 258.415 137.901 260.048 138.348 260.907C138.885 261.926 139.698 262.723 140.527 263.125C141.653 263.641 142.334 263.706 144.072 263.465C145.253 263.288 146.998 262.757 147.909 262.307C149.288 261.612 149.656 261.196 149.997 259.951C150.235 259.125 150.718 258.173 151.079 257.831C151.425 257.532 152.269 257.344 152.943 257.484C153.591 257.578 154.378 257.976 154.631 258.322C154.925 258.673 155.179 259.341 155.231 259.787C155.285 260.221 154.948 261.199 154.498 261.918C153.851 262.92 153.366 264.892 152.554 269.605C151.703 274.625 151.536 276.252 151.814 277.546C152.072 278.72 152.503 279.417 153.484 280.112C154.566 280.86 155.306 281.092 157.495 281.227C159.715 281.364 160.545 281.208 162.256 280.362C163.38 279.782 165.153 279.061 166.172 278.707C167.187 278.386 169.093 277.494 170.402 276.75C171.744 276.009 173.112 275.42 173.414 275.471C173.718 275.51 174.268 275.95 174.624 276.435C174.98 276.92 175.224 277.577 175.182 277.895C175.132 278.202 174.54 278.854 173.889 279.35C173.194 279.874 171.285 281.013 169.658 281.866C167.985 282.758 165.538 283.888 164.195 284.318C162.851 284.747 161.514 285.446 161.265 285.841C161.015 286.236 160.686 287.128 160.592 287.785C160.472 288.59 160.659 289.403 161.107 290.026C161.529 290.592 163.383 291.898 165.243 292.925C167.1 293.983 169.173 295.32 169.824 295.931C170.478 296.498 171.223 297.676 171.451 298.492C171.711 299.323 171.879 300.327 171.825 300.666C171.81 301.051 171.363 301.738 170.904 302.221C170.445 302.703 169.199 303.335 168.182 303.667C167.133 304.018 164.404 304.444 162.052 304.68C159.746 304.889 157.144 305.209 156.269 305.393C155.39 305.621 154.039 306.125 153.281 306.525C152.565 306.929 151.582 307.801 151.153 308.415C150.613 309.19 150.37 310.069 150.389 310.973C150.392 311.715 150.918 313.408 151.505 314.678C152.093 315.938 153.628 318.372 154.843 320.046C156.549 322.347 157.799 323.552 159.783 324.827C160.111 325.051 160.469 325.29 160.817 325.517C161.972 326.282 163.097 327.024 163.579 327.403C164.283 327.9 164.783 328.646 164.811 329.239C164.843 329.79 164.671 330.472 164.433 330.75C164.163 331.025 163.374 331.422 162.621 331.543C161.628 331.748 159.533 331.515 155.064 330.658C151.01 329.893 148.195 329.559 146.906 329.639C145.5 329.741 144.564 330.113 143.508 330.978C142.633 331.711 142.032 332.566 141.942 333.181C141.851 333.795 142.129 335.089 142.589 336.142C143.049 337.196 143.983 338.714 144.716 339.568C145.397 340.418 146.546 341.57 147.186 342.179C147.841 342.746 149.316 343.478 150.418 343.799C151.53 344.12 152.809 344.586 153.238 344.853C153.699 345.123 154.186 345.782 154.292 346.34C154.458 347.032 154.371 347.615 153.992 348.137C153.652 348.598 153.207 349.039 152.952 349.165C152.697 349.28 151.889 349.321 151.169 349.22C150.449 349.108 149.149 348.532 148.266 347.921C147.003 347.07 146.034 346.805 143.463 346.462C141.685 346.238 139.113 346.131 137.71 346.19C136.306 346.259 134.4 346.603 133.427 346.928C132.499 347.226 131.402 347.851 130.993 348.252C130.48 348.848 130.316 349.455 130.36 350.437C130.404 351.193 131.069 352.975 131.827 354.347C132.592 355.752 133.599 357.277 134.073 357.742C134.548 358.206 136.41 359.426 138.196 360.446C140.625 361.828 141.523 362.505 141.592 363.113C141.645 363.558 141.536 364.246 141.36 364.648C141.184 365.05 140.823 365.391 140.562 365.355C140.328 365.365 135.754 364.723 130.46 363.968C122.098 362.759 120.531 362.652 118.823 363.025C117.711 363.251 116.312 363.826 115.623 364.276C114.928 364.8 114.387 365.586 114.303 366.125C114.22 366.665 114.232 367.644 114.37 368.301C114.524 369.347 114.836 369.624 116.659 370.368C117.823 370.813 119.617 371.747 120.603 372.4C121.799 373.17 122.671 374.123 123.045 374.965C123.365 375.715 123.535 376.924 123.43 377.579C123.306 378.427 122.856 379.146 122.16 379.67C121.373 380.261 120.659 380.429 119.636 380.277C118.801 380.154 117.548 379.529 116.509 378.667C115.546 377.898 114.042 376.25 111.602 372.665L108.052 371.82C106.116 371.377 103.322 370.926 101.868 370.862C100.444 370.812 99.079 370.917 98.8613 371.09C98.6867 371.255 98.2698 372.182 97.9787 373.121C97.5348 374.55 97.5802 375.07 98.2163 376.495C98.656 377.428 99.1205 378.987 99.3203 379.994C99.4782 380.998 99.5043 382.933 99.3883 384.254C99.1312 386.496 99.0177 386.796 98.0471 387.316C97.4535 387.656 96.6478 387.89 96.2334 387.797C95.8159 387.735 95.2436 387.412 94.9461 387.094C94.6799 386.778 94.2073 386.078 93.9457 385.494C93.6851 384.9 93.417 383.059 93.316 381.352C93.2528 379.692 93.2747 377.697 93.3871 376.966C93.5466 375.854 93.3239 375.306 91.9997 373.772C91.1425 372.777 89.7539 371.473 88.8664 370.905C87.9925 370.306 86.6141 369.669 85.8008 369.43C84.6855 369.14 83.978 369.234 82.888 369.784C82.0115 370.205 81.2021 371.03 80.7128 371.939C80.2872 372.736 79.606 373.658 79.2137 373.997C78.8214 374.335 78.0513 374.53 77.4911 374.412C76.9593 374.328 76.3859 374.016 76.1618 373.704C75.9335 373.435 75.8435 372.718 75.9342 372.104C76.0207 371.532 76.4722 370.576 76.8974 370.005C77.7491 368.959 77.7258 368.871 77.0686 367.003C76.681 365.967 76.0172 364.722 75.543 364.258C75.0689 363.794 74.0346 363.211 73.2254 362.929C72.1865 362.615 71.1946 362.584 69.9466 362.905C68.9491 363.153 67.4967 363.841 66.7098 364.432C65.9648 365.026 64.9385 365.465 64.4476 365.396C63.9841 365.373 63.357 364.959 63.0287 364.519C62.6077 363.942 62.5309 363.419 62.8036 362.672C63.0586 361.998 62.9555 361.086 62.4866 359.795C62.099 358.759 61.4584 357.602 61.0191 357.216C60.5869 356.756 59.0095 356.207 57.1042 355.767C55.2264 355.372 52.8812 355.105 51.3945 355.155C49.9907 355.225 48.2594 355.51 47.523 355.794C46.8141 356.123 46.1561 356.694 46.1014 357.043C46.0437 357.424 46.5183 358.437 47.157 359.282C47.7642 360.124 48.3527 361.383 48.4184 362.023C48.5155 362.666 48.405 363.708 48.1581 364.297C47.9521 364.9 47.1252 365.798 46.3569 366.305C45.6337 366.783 44.6144 367.147 44.1236 367.079C43.6611 367.045 42.8797 366.583 42.3509 366.028C41.8493 365.518 41.3779 364.474 41.2822 363.595C41.1993 362.803 41.2186 361.387 41.5893 358.845L39.5175 357.712C38.4108 357.112 36.8068 356.399 35.9935 356.16C35.1803 355.921 34.1085 355.84 33.5816 356.037C33.0547 356.233 32.5436 356.818 32.2739 357.533C32.0608 358.211 31.8998 359.559 31.9464 360.509C31.9934 362.006 32.1411 362.343 33.0858 362.756C33.7042 363.04 34.4249 363.582 34.7532 364.022C35.0846 364.429 35.2825 365.125 35.2207 365.549C35.117 365.968 34.6711 366.645 34.1888 367.039C33.7024 367.476 32.9024 367.872 32.4013 367.91C31.9307 367.961 31.0207 367.627 30.3128 367.173C29.1236 366.328 28.9633 366.345 26.1302 366.75C24.3149 367.027 22.731 367.542 22.0351 368.066C21.3883 368.519 20.6581 369.512 20.4104 370.219C20.1523 370.925 20.0363 372.245 20.132 373.125C20.2381 374.005 20.7147 375.769 21.2192 377.02C22.0668 379.11 22.4716 379.524 25.5361 381.784C27.4291 383.125 29.0707 384.55 29.2499 384.889C29.3976 385.226 29.5059 385.751 29.473 385.985C29.437 386.25 29.0054 386.778 28.5261 387.14C27.8303 387.664 27.1688 387.719 25.0185 387.405C23.3906 387.163 21.4195 387.189 19.883 387.428C18.5373 387.665 16.794 388.185 16.0424 388.628C15.3222 389.075 14.3461 389.873 13.9492 390.479C13.5524 391.086 13.0707 392.468 12.9142 393.548C12.6206 395.507 12.6787 395.674 14.4958 398.028C15.5007 399.36 17.2724 401.194 18.4196 402.035C20.1563 403.35 20.9204 403.66 22.9658 403.963C24.8823 404.287 25.5876 404.548 26.1337 405.255C26.5628 405.747 26.8189 406.61 26.7313 407.192C26.6711 407.82 26.3582 408.434 26.0506 408.663C25.7575 408.849 24.5055 409.213 23.3026 409.506C22.0618 409.752 20.1275 410.608 18.792 411.511C17.5161 412.345 16.1679 413.601 15.7711 414.208C15.4017 414.86 14.9548 416.32 14.8402 417.405C14.6807 418.517 14.6776 420.096 14.8369 420.863C15.0326 421.913 15.5094 422.571 16.6671 423.412C17.745 424.203 18.8501 424.599 20.4676 424.84C21.7514 425.027 23.1092 424.996 23.5626 424.793C24.0202 424.546 24.595 423.85 24.8396 423.175C25.1221 422.547 25.6833 421.881 26.1296 421.752C26.576 421.623 27.2753 421.615 27.6721 421.782C28.0679 421.959 28.5348 422.498 28.6882 422.996C28.924 423.738 28.7569 424.377 27.981 425.957C27.4243 427.128 26.8204 429.122 26.5886 430.657C26.3415 432.352 26.3611 433.803 26.6243 434.591C26.8327 435.288 27.4805 436.37 28.0716 437.05C28.9216 438.12 29.4287 438.351 31.2444 438.621C32.4548 438.802 35.3936 438.729 37.7594 438.451C38.5298 438.364 39.4081 438.255 40.3169 438.159C42.2005 437.942 44.1701 437.712 45.4237 437.553C47.5106 437.313 49.1295 437.317 49.7509 437.57C50.3723 437.823 50.933 438.489 51.1688 439.231C51.3772 439.928 51.4819 441.044 51.3872 441.701C51.2894 442.39 50.2955 444.368 49.1991 446.088C48.0882 447.851 47.1594 449.48 47.116 449.712C47.08 449.977 47.5471 450.957 48.2312 451.881C48.9973 452.943 50.107 453.844 51.2587 454.416C52.5573 455.003 54.9639 455.512 59.6799 456.222C65.92 457.153 66.3963 457.263 67.8703 458.339C68.778 459.027 69.6596 460.1 69.9921 460.937C70.403 462.062 70.4023 463.393 70.0382 467.193C69.6628 471.109 69.6806 472.25 70.1592 473.219C70.4482 473.848 71.3271 474.727 72.038 475.15C72.7805 475.575 74.6876 476.327 76.2407 476.798C77.8672 477.277 80.7573 477.822 82.8275 477.978C84.8831 478.175 87.8536 478.212 89.3748 478.132C90.942 478.014 93.3085 477.618 94.6515 477.188C95.98 476.8 97.5122 476.163 98.0503 475.849C98.557 475.533 99.3798 474.677 99.8687 473.994C100.511 473.035 100.983 472.747 101.857 472.799C102.465 472.857 103.203 473.11 103.427 473.422C103.651 473.733 103.786 474.423 103.662 474.948C103.578 475.488 103.194 476.289 102.808 476.789C102.422 477.278 101.993 478.665 101.773 479.858C101.584 481.161 101.634 482.626 101.866 483.411C102.102 484.153 102.539 485.119 102.821 485.597C103.107 486.033 103.951 486.833 104.725 487.38C105.733 488.121 106.512 488.389 107.553 488.349C108.357 488.351 109.713 488.116 110.526 487.807C111.378 487.534 113.1 486.571 114.385 485.749C115.675 484.885 117.799 483.037 119.159 481.664C121.214 479.541 121.722 479.214 122.703 479.361C123.454 479.476 123.98 479.838 124.281 480.458C124.57 481.087 124.587 482.345 124.322 484.113C124.108 485.575 123.954 487.397 123.998 488.153C124.099 489.312 124.389 489.705 125.697 490.528C126.893 491.298 127.86 491.595 129.774 491.724C131.381 491.846 133.071 491.665 134.564 491.217C136.789 490.528 136.961 490.394 137.741 488.546C138.2 487.516 138.824 485.643 139.119 484.436C139.654 482.393 139.61 482.185 138.552 480.418C137.959 479.427 137.084 477.292 136.619 475.733C136.114 474.159 135.598 471.93 135.374 470.834C135.074 469.216 135.123 468.597 135.591 467.805C135.907 467.266 136.565 466.695 137.057 466.527C137.58 466.373 138.61 466.451 139.351 466.672C140.233 466.961 141.169 467.684 141.819 468.53C142.426 469.373 143.143 471.052 143.404 472.42C143.668 473.756 143.906 476.345 143.855 481.41L146.305 483.116C147.633 484.06 149.57 485.051 150.612 485.333C151.729 485.612 153.107 485.701 154.054 485.534C155.322 485.334 155.879 484.936 156.764 483.657C157.793 482.198 157.938 481.675 158.451 477.428C158.926 473.134 158.933 472.394 158.057 467.509C157.205 462.82 157.16 462.074 157.705 461.246C158.242 460.502 158.605 460.355 159.742 460.528C160.911 460.705 161.865 461.354 164.735 464.1C166.704 465.964 169.264 468.196 170.45 469.073C171.982 470.197 173.134 470.769 174.345 470.95C175.67 471.152 176.308 471.009 177.13 470.379C177.735 469.921 178.423 468.924 178.658 468.13C178.92 467.382 179.13 465.415 179.147 463.806C179.153 462.195 178.907 459.132 178.557 457.036C177.98 453.34 177.894 453.128 175.25 449.351C173.286 446.661 172.466 445.164 172.451 444.218C172.43 443.55 172.53 442.614 172.707 442.212C172.883 441.81 173.575 441.318 174.176 441.129C174.79 440.908 175.678 440.918 176.115 441.1C176.584 441.295 177.48 442.326 178.104 443.32C178.766 444.361 179.709 446.342 180.156 447.749C180.944 450.026 181.331 450.514 183.379 452.117C184.702 453.104 186.783 454.474 188.061 455.165C189.352 455.826 191.147 456.535 192.087 456.668C193.141 456.823 194.288 456.675 195.114 456.335C196.141 455.897 196.6 455.415 196.916 454.328C197.178 453.58 197.266 452.213 197.129 451.33C197.023 450.45 196.274 447.435 195.498 444.601C194.619 441.402 194.154 438.747 194.217 437.54C194.318 435.82 194.49 435.461 195.59 434.481C196.699 433.503 197.1 433.412 198.571 433.629C199.521 433.773 201.52 434.341 203.023 434.882C204.827 435.506 206.103 435.768 206.657 435.617C207.176 435.506 207.807 434.89 208.138 434.191C208.47 433.492 208.656 432.544 208.525 431.812C208.473 431.141 208.185 429.953 207.911 429.164C207.637 428.375 206.783 426.36 206.015 424.762C205.248 423.152 204.428 421.108 204.246 420.253C204.018 419.425 203.949 418.044 204.073 417.197C204.247 416.043 204.508 415.531 205.217 415.201C205.757 414.974 206.284 414.777 206.431 414.791C206.62 414.809 207.228 415.416 207.77 416.166C208.586 417.157 209.447 417.669 211.242 418.26C212.567 418.687 214.93 419.204 219.343 419.659L219.532 418.12C219.66 417.23 219.352 415.149 218.807 413.099C218.283 411.169 217.542 408.08 217.205 406.179C216.682 403.465 216.636 402.398 217.03 401.05C217.321 400.111 218.064 398.765 218.674 398.028C219.312 397.338 220.701 396.321 221.79 395.781C222.91 395.244 226.409 394.076 229.625 393.213C232.843 392.319 235.942 391.241 236.547 390.784C237.152 390.326 237.975 390.018 238.392 390.08C238.813 390.109 239.313 390.415 239.496 390.712C239.648 391.006 239.946 392.86 240.157 394.857C240.326 396.849 240.712 399.227 240.993 400.167C241.237 401.147 241.584 401.942 241.73 401.967C241.919 401.985 242.186 400.969 242.367 399.74C242.647 397.813 242.876 397.298 243.789 396.612C244.398 396.112 245.397 395.627 246.072 395.542C246.752 395.403 247.733 395.55 248.354 395.803C248.971 396.099 249.74 396.914 250.114 397.755C250.748 398.986 250.741 399.501 250.266 401.475C249.858 403.187 249.411 404.1 248.413 405.132C247.323 406.23 247.143 406.675 247.355 407.329C247.481 407.781 247.902 408.584 248.281 409.157C248.881 410.074 249.249 410.206 251.778 410.545C253.337 410.737 254.927 410.933 255.256 411.029C255.67 411.133 256.135 411.908 256.453 412.894C256.73 413.877 256.921 414.969 256.867 415.318C256.809 415.699 256.35 416.182 255.819 416.421C255.324 416.62 253.643 417.039 252.134 417.324C250.583 417.605 248.968 418.106 248.531 418.472C247.831 419.038 247.671 419.603 247.482 421.69C247.383 423.163 247.494 424.989 247.846 426.064C248.16 427.093 249.016 428.872 249.772 430.04C250.527 431.219 251.813 432.706 252.68 433.38C253.959 434.394 254.949 434.779 258.349 435.523C260.887 436.1 263.247 436.874 264.495 437.541C265.641 438.177 266.78 439.103 267.007 439.608C267.385 440.406 267.373 440.76 266.828 441.588C266.333 442.335 265.666 442.669 264.041 442.943C262.613 443.16 261.54 443.638 260.862 444.314C260.308 444.894 259.108 446.487 258.184 447.848C256.943 449.749 256.441 451.011 256.025 453.033C255.524 455.391 255.581 455.794 256.192 456.594C256.671 457.191 258.847 457.528 262.721 457.606C265.954 457.658 269.373 457.771 270.372 457.834C272.011 457.959 272.261 458.112 272.693 459.131C273.022 460 273.035 460.753 272.651 461.995C272.402 462.937 271.326 465.219 270.326 467.035C269.063 469.287 268.344 471.044 268.158 472.326C267.893 474.094 267.971 474.381 270.358 477.091L280.676 478.316L281.884 477.196C282.735 476.376 283.349 476.155 284.257 476.296C285.05 476.415 285.803 476.842 286.252 477.454C286.836 478.208 286.913 478.731 286.65 479.479C286.4 480.11 285.769 480.727 285.033 481.01C283.919 481.473 283.768 481.727 283.528 483.347C283.376 484.385 283.447 485.735 283.656 486.431C283.864 487.128 284.583 488.024 285.295 488.436C285.964 488.854 287.17 489.303 287.931 489.419C288.724 489.538 290.108 489.348 290.994 489.046C291.895 488.703 294.351 487.263 296.486 485.856C298.59 484.447 301.15 483.017 302.158 482.77C303.169 482.491 304.58 482.347 305.335 482.419C306.248 482.507 307.004 482.901 307.456 483.482C307.844 483.97 308.309 484.745 308.477 485.201C308.603 485.654 308.698 487.865 308.639 490.136C308.612 492.41 308.727 494.516 308.948 494.859C309.169 495.213 309.897 495.788 310.493 496.189C311.135 496.562 312.72 497.025 314.014 497.224C315.485 497.44 317.035 497.396 318.004 497.113C318.897 496.854 320.07 496.204 320.613 495.623C321.121 495.07 321.933 493.773 322.347 492.771C322.834 491.55 323.198 489.63 323.396 487.233C323.584 484.942 323.521 482.734 323.257 481.398C322.89 479.924 322.912 479.034 323.191 478.438C323.444 478.011 323.942 477.565 324.304 477.428C324.706 477.327 325.134 477.271 325.364 477.304C325.553 477.322 327.174 479.185 328.897 481.412C330.652 483.643 333.128 486.522 334.447 487.776C335.735 489.027 337.707 490.538 338.782 491.135C340.067 491.87 341.206 492.237 342.097 492.215C342.829 492.199 343.98 491.783 344.676 491.259C345.76 490.439 345.884 490.14 346.276 487.492C346.512 485.915 346.645 482.641 346.566 480.27C346.486 477.9 346.493 475.505 346.577 474.966C346.66 474.426 347.064 473.745 347.498 473.411C347.891 473.072 348.546 472.856 348.876 472.952C349.251 473.009 349.951 473.549 350.446 474.123C350.972 474.71 351.679 476.507 352.09 478.179C352.521 479.971 353.317 481.938 354.08 483.031C355.13 484.56 355.611 484.95 356.749 485.113C357.845 485.272 358.573 485.073 359.776 484.232C360.667 483.662 362.052 482.13 362.892 480.879C364.343 478.655 364.41 478.393 365.183 473.204C365.614 470.249 365.939 467.305 365.845 466.63C365.74 465.514 365.702 465.467 364.975 465.988C364.572 466.326 363.896 466.529 363.479 466.468C363.061 466.406 362.554 466.175 362.319 465.981C362.073 465.785 361.752 464.831 361.552 463.824C361.394 462.82 361.269 461.584 361.342 461.043C361.426 460.504 361.883 459.71 362.384 459.231C363.059 458.587 363.583 458.423 364.716 458.639C365.509 458.758 366.665 459.287 367.251 459.795C367.871 460.284 368.522 461.119 368.713 461.664C368.966 462.333 369.424 462.634 370.217 462.753C370.822 462.843 372.212 462.815 373.316 462.664C374.7 462.474 375.775 461.965 376.913 461.032C377.833 460.261 379.093 459.039 379.75 458.264C380.647 457.18 381.004 456.333 381.577 452.446L379.841 451.904C378.583 451.558 377.837 451.057 377.34 450.279C376.874 449.504 376.734 448.653 376.896 447.508C377.007 446.466 377.413 445.539 378.054 444.923C378.594 444.374 379.47 443.953 380.212 443.949C381.03 443.909 381.913 444.198 382.606 444.694C383.241 445.141 383.987 446.083 384.24 446.751C384.521 447.466 384.859 448.024 385.016 448.039C385.205 448.058 386.274 447.397 387.407 446.507C388.841 445.463 389.895 444.286 390.696 442.784C391.642 441.081 391.94 440.068 392.12 438.087C392.276 436.233 392.07 434.742 391.378 432.356C390.557 429.764 390.509 429.05 390.931 428.285C391.301 427.633 391.754 427.43 392.475 427.531C393.083 427.59 393.795 428.001 394.082 428.437C394.368 428.873 394.893 430.244 395.22 431.468C395.536 432.701 395.904 434.712 395.99 435.913C396.088 437.103 395.929 439.204 395.618 440.571C395.26 442.201 394.596 443.834 393.601 445.382C392.758 446.666 391.221 448.452 390.162 449.349C389.074 450.211 387.575 451.163 385.509 451.846L384.883 455.287C384.776 455.846 384.644 456.564 384.492 457.376C384.122 459.36 383.647 461.882 383.265 463.886C382.36 468.471 382.289 469.205 382.729 470.687C383.023 471.596 383.778 473 384.403 473.768C385.056 474.572 386.348 475.781 387.329 476.476C388.268 477.168 390.288 478.178 391.705 478.743C393.164 479.312 394.878 479.767 395.536 479.744C396.546 479.701 397.005 479.219 398.9 476.554C400.941 473.71 401.209 473.446 402.232 473.598C403.025 473.717 403.437 474.057 403.673 474.799C403.861 475.376 403.921 476.52 403.797 477.367C403.674 478.215 403.164 479.551 402.665 480.341C402.166 481.131 401.039 482.183 400.151 482.721C398.928 483.441 398.076 484.498 396.321 487.456C395.083 489.549 393.706 492.102 393.275 493.178C392.554 494.956 392.525 495.147 393.129 496.021C393.481 496.549 394.707 497.665 395.858 498.474C397.709 499.811 398.191 499.965 400.072 500.005C401.993 500.061 402.411 499.886 404.461 498.267C405.73 497.283 407.115 496.535 407.49 496.592C407.908 496.654 408.462 497.05 408.752 497.454C409.065 497.935 409.135 498.533 408.955 498.977C408.779 499.379 408.384 500.738 408.053 501.984C407.674 503.505 407.571 505.246 407.666 507.231C407.775 508.863 408.256 511.133 408.663 512.289C409.116 513.417 410.451 515.618 411.618 517.126C412.782 518.677 414.118 520.094 414.555 520.275C415.035 520.461 416.49 520.525 417.827 520.374C419.196 520.226 421.64 519.687 423.228 519.13C424.857 518.588 426.28 518.091 426.402 518.038C426.524 517.975 426.161 517.016 425.631 515.923C424.954 514.484 424.754 513.477 424.906 512.439C425.059 511.401 425.424 510.791 426.338 510.095C426.988 509.599 428.339 509.094 429.287 508.917C430.35 508.761 431.582 508.825 432.349 509.103C433.044 509.363 434.151 509.963 434.817 510.413C435.483 510.864 436.17 511.757 436.343 512.375C436.555 513.039 436.661 513.92 436.586 514.374C436.516 514.883 435.992 515.821 435.462 516.49C434.901 517.156 434.074 518.054 433.623 518.451C433.058 518.97 433.026 519.45 433.527 519.892C433.967 520.277 435.403 521.307 436.775 522.222C438.634 523.485 439.721 523.955 441.322 524.151C442.564 524.334 444.406 524.221 445.804 523.872C447.321 523.512 449.071 522.702 450.581 521.634C451.874 520.726 453.478 519.237 455.359 516.721L454.693 515.723C454.314 515.15 453.855 514.3 453.705 513.77C453.54 513.282 453.469 512.48 453.548 511.983C453.614 511.517 454.026 510.869 454.459 510.545C454.892 510.222 455.737 510.023 456.41 510.174C457.245 510.297 458.012 510.8 458.679 511.573C459.355 512.464 459.653 513.331 459.674 514.546C459.674 515.878 459.954 516.592 460.854 517.592C461.715 518.544 462.43 518.924 463.525 519.094C464.36 519.217 465.847 519.048 466.858 518.769C467.87 518.49 469.486 517.742 470.455 517.137C471.464 516.546 472.759 515.403 473.307 514.543C474.086 513.479 474.48 512.357 474.706 510.552C474.913 509.165 475.001 507.251 474.874 506.251C474.79 505.255 474.345 503.268 473.187 499.119L469.9 498.632C467.785 498.279 466.27 497.854 465.604 497.404C465.049 497.007 464.285 496.15 463.958 495.474C463.378 494.452 463.373 494.172 463.991 492.921C464.325 492.19 465.342 491.085 466.16 490.497C467.359 489.689 468.043 489.518 469.211 489.694C470.046 489.817 471.112 490.177 471.615 490.451C472.118 490.725 473.254 491.907 475.786 495.19L478.074 494.625C479.323 494.294 481.109 493.659 482.03 493.21C482.941 492.761 484.211 491.766 484.867 491.001C485.89 489.821 486.096 489.218 486.517 486.369C486.946 483.446 486.918 482.853 486.167 480.858C485.69 479.652 484.785 477.944 484.09 477.125C483.441 476.279 482.288 475.17 481.553 474.67C480.475 473.879 479.992 473.725 478.508 473.862C477.539 473.92 475.821 473.734 474.705 473.455C473.588 473.176 472.039 472.662 471.278 472.321C470.556 472.015 469.714 471.419 469.451 471.072C469.199 470.715 469.04 469.948 469.13 469.333C469.186 468.748 469.671 468 470.192 467.641C470.885 467.149 471.741 467.049 473.84 467.239C475.59 467.418 477.266 467.825 478.602 468.458C480.45 469.28 480.825 469.337 481.799 469.012C482.454 468.795 483.639 468.028 484.52 467.339C485.391 466.649 486.579 465.41 487.169 464.553C487.755 463.74 488.418 462.342 488.673 461.443C488.986 460.388 489.043 459.46 488.774 458.628C488.534 457.929 487.814 456.721 487.16 455.917C486.504 455.146 485.319 454.033 484.477 453.437C483.107 452.489 482.923 452.418 481.598 452.774C480.824 453.012 479.475 453.28 478.607 453.39C477.736 453.532 476.664 453.451 476.195 453.266C475.646 453.031 475.354 452.434 475.188 451.183C475.079 450.109 475.179 449.184 475.489 448.601C475.76 448.09 476.655 447.478 477.593 447.181C479.013 446.727 479.507 446.763 483.252 448.11L485.179 446.555C486.263 445.735 487.787 444.077 488.536 442.892C489.576 441.316 490.059 440.138 490.306 438.443C490.578 436.826 490.521 435.65 490.136 434.367C489.815 433.413 489.177 432.224 488.631 431.742C488.129 431.232 486.527 430.058 485.085 429.093C483.642 428.138 481.255 426.76 477.21 424.901L475.183 426.06C474.086 426.685 472.191 427.46 470.981 427.827C469.771 428.194 468.059 428.492 467.217 428.444C466.179 428.452 465.37 428.17 464.712 427.634C464.096 427.113 463.835 426.519 463.929 425.873C464.012 425.333 464.897 424.054 465.895 423.022C467.034 421.853 468.373 420.918 469.423 420.557C470.515 420.21 472.278 420.036 476.902 420.382L478.913 418.287C480.005 417.157 481.422 415.402 482.066 414.433C482.712 413.431 483.495 411.777 483.762 410.761C484.197 409.095 484.165 408.544 483.35 406.221C482.865 404.768 481.908 402.936 481.209 402.171C479.97 400.849 479.758 400.743 476.659 400.274C473.786 399.881 473.041 399.928 470.742 400.609C469.281 401.06 466.237 402.337 463.95 403.449C461.663 404.562 459.532 405.378 459.229 405.338C458.926 405.298 458.402 404.904 458.085 404.466C457.752 404.069 457.558 403.331 457.669 402.836C457.735 402.37 458.038 401.637 458.379 401.175C458.674 400.742 459.91 399.442 461.125 398.249C462.306 397.084 463.477 395.692 463.672 395.088C463.874 394.527 464.664 392.799 465.398 391.215C466.128 389.674 466.883 387.426 467.057 386.272C467.322 384.504 467.245 383.981 466.472 382.887C465.999 382.186 464.785 381.264 463.623 380.691C462.541 380.168 460.615 379.608 459.363 379.423C458.11 379.239 456.071 379.205 454.82 379.332C453.601 379.462 452.092 379.747 451.446 379.975C450.382 380.367 450.333 380.438 450.451 382.296C450.494 383.836 450.379 384.373 449.723 385.137C449.288 385.708 448.237 386.294 447.39 386.514C446.588 386.706 445.505 386.741 444.994 386.553C444.483 386.364 443.825 385.829 443.503 385.432C443.054 384.82 442.988 384.18 443.361 382.497C443.67 380.937 444.099 380.098 446.138 378.038L445.439 375.178C445.052 373.584 444.236 371.272 443.617 369.999C442.987 368.735 441.859 367.027 441.073 366.286C439.716 364.985 439.39 364.857 436.144 364.374C433.003 363.912 432.418 363.942 430.067 364.726C428.571 365.206 426.384 366.381 422.652 369.203L423.577 371.816C424.474 374.383 424.467 374.457 423.683 375.563C423.139 376.381 422.464 376.8 421.391 376.955C420.328 377.111 419.566 376.995 418.552 376.532C417.612 376.077 417.086 375.49 416.796 374.538C416.416 373.417 416.454 372.916 417.069 371.353C417.707 369.674 417.739 369.452 417.199 368.895C416.864 368.53 415.721 367.647 414.673 366.87C413.623 366.125 411.832 365.148 410.738 364.753C409.306 364.229 407.954 363.981 405.91 363.99C404.41 363.964 402.177 364.18 401.023 364.402C399.907 364.671 398.086 365.452 397.027 366.124C395.957 366.795 394.665 368.014 393.133 370.305L394.823 372.443C396.419 374.454 396.533 374.701 396.286 376.396C396.133 377.434 395.763 378.644 395.493 379.145C395.19 379.653 394.543 380.332 393.991 380.687C393.469 381.045 392.549 381.258 391.985 381.182C391.338 381.088 390.575 380.542 390.023 379.791C389.504 379.129 388.953 377.594 388.783 376.386C388.612 375.188 388.537 373.87 388.594 373.489C388.656 373.066 388.251 372.651 387.307 372.238C386.4 371.872 385.075 371.67 383.254 371.678C381.75 371.684 379.697 371.466 378.696 371.198C377.583 370.877 376.227 370.124 375.312 369.284C374.454 368.525 373.27 367.177 372.628 366.256C371.997 365.336 371.276 364.129 370.983 363.542C370.723 362.948 370.599 361.916 370.709 361.217C370.803 360.56 371.09 359.664 371.382 359.273C371.631 358.878 372.4 358.372 373.088 358.148C373.733 357.931 376.524 357.64 379.247 357.492C382.013 357.349 384.88 357.033 385.647 356.753C386.411 356.514 387.316 355.903 387.661 355.399C388.005 354.906 388.431 353.55 388.605 352.396C388.841 350.818 388.78 349.91 388.282 348.81C387.89 348.042 386.037 345.727 384.096 343.672C381.954 341.394 380.493 339.525 380.365 338.868C380.206 338.101 380.289 337.561 380.657 337.146C380.931 336.828 382.036 336.451 383.092 336.369C384.151 336.256 386 335.735 387.203 335.217C388.439 334.691 390.092 333.678 390.931 332.986C391.767 332.325 392.676 331.123 393.015 330.35C393.319 329.606 393.692 328.363 393.804 327.633C393.887 327.104 393.928 326.786 393.826 326.529C393.662 326.137 393.122 325.914 391.746 325.363C390.472 324.854 388.566 323.866 387.512 323.163C386.461 322.418 385.028 321.142 384.347 320.293C383.666 319.444 383.01 318.124 382.882 317.36C382.755 316.36 382.872 315.587 383.277 314.67C383.609 313.971 384.32 313.062 384.891 312.634C385.497 312.165 386.58 311.904 387.628 311.897C389.015 311.901 389.792 312.18 391.37 313.276C392.497 313.996 394.082 315.566 394.915 316.709C395.785 317.899 396.735 319.805 397.745 323.178L400.035 323.365C401.294 323.475 402.824 323.31 403.442 323.047C404.227 322.692 404.644 322.206 404.756 321.476C404.874 320.907 404.452 319.352 403.775 317.913C403.167 316.523 401.795 314.275 400.759 312.941C399.68 311.602 397.477 309.307 395.793 307.879C394.109 306.45 392.705 304.983 392.641 304.655C392.608 304.34 392.702 303.684 392.927 303.211C393.112 302.724 393.89 302.219 394.77 301.991C395.857 301.688 398.051 301.769 402.42 302.231C407.058 302.761 408.708 302.769 409.271 302.425C409.747 302.095 410.081 301.365 410.227 300.401C410.352 299.318 409.989 297.575 408.971 294.513C408.205 292.12 407.458 289.535 407.34 288.772C407.255 288.012 407.352 286.883 407.589 286.293C407.795 285.69 408.548 284.785 409.275 284.264C410.094 283.676 411.517 283.179 413.134 282.99C414.548 282.814 416.914 282.526 418.44 282.403C420.394 282.225 421.527 281.883 422.482 281.201C423.44 280.477 423.837 279.87 423.937 278.935C424 278.275 423.755 276.748 423.344 275.624C422.937 274.467 421.535 271.422 420.171 268.864C418.85 266.31 417.435 263.071 417.015 261.71C416.595 260.348 416.347 258.627 416.459 257.897C416.572 257.167 417.084 256.024 417.599 255.396C418.111 254.801 419.215 254.101 420.021 253.867C421.228 253.532 422.459 253.607 425.684 254.195C427.411 254.511 430.193 254.96 432.569 255.349L432.59 255.351C433.309 255.474 433.987 255.582 434.591 255.682C438.859 256.317 439.482 256.334 440.3 255.746C440.821 255.388 441.291 254.789 441.307 254.404C441.362 254.054 440.259 252.091 438.858 250.034C437.457 247.977 436.188 245.868 436.083 245.3C435.937 244.727 435.947 243.633 436.057 242.816C436.131 242.039 436.487 241.193 436.792 240.996C437.1 240.768 438.194 240.615 439.28 240.655C440.029 240.684 442.334 240.819 445.028 240.98C446.081 241.038 447.185 241.112 448.28 241.174C452.181 241.44 455.691 241.487 456.053 241.349C456.545 241.182 456.851 240.642 456.978 239.763C457.09 239.032 456.841 236.989 456.448 235.244C456.009 233.526 455.619 231.19 455.5 230.116C455.402 228.925 455.56 227.608 455.867 226.832C456.126 226.127 456.716 225.27 457.122 224.901C457.555 224.577 458.55 224.136 459.31 223.929C460.07 223.734 463.626 223.741 467.224 223.968C470.781 224.18 474.432 224.294 475.3 224.184C476.168 224.073 477.356 223.822 477.97 223.602C478.615 223.384 479.308 222.892 479.598 222.512C479.848 222.117 480.041 221.319 480.016 220.694C479.964 220.023 478.202 217.319 475.166 213.215C472.113 209.067 470.253 206.161 469.891 204.966C469.577 203.937 469.419 202.386 469.561 201.455C469.688 200.575 470.194 199.27 470.644 198.551C471.185 197.765 472.101 197.037 472.952 196.775C473.73 196.495 475.943 196.159 477.897 195.981C479.806 195.831 482.082 195.383 482.872 194.986C483.657 194.632 484.546 193.858 484.866 193.277C485.24 192.582 485.375 191.392 485.349 189.456C485.333 188.735 485.313 187.842 485.306 186.928C485.294 185.831 485.275 184.702 485.25 183.862C485.211 181.731 485.359 180.736 485.938 179.449C486.415 178.335 487.249 177.362 488.424 176.476C489.673 175.597 491.358 174.91 493.795 174.327C496.243 173.745 497.75 173.149 498.597 172.371C499.609 171.533 499.932 170.92 500.125 169.574C500.281 168.494 500.139 167.105 499.74 165.864C499.356 164.785 498.011 162.143 496.742 160.035C495.435 157.879 494.094 155.195 493.714 154.084C493.348 152.932 493.153 151.324 493.275 150.487C493.364 149.561 493.826 148.607 494.32 148.085C494.811 147.605 495.904 147.023 496.752 146.793C497.602 146.53 500.095 146.146 502.244 145.923C504.407 145.657 506.784 145.262 507.516 145.021C508.294 144.741 508.952 144.171 509.154 143.61C509.342 143.091 509.458 142.318 509.373 141.88C509.32 141.435 508.957 140.476 508.557 139.794C508.203 139.072 505.886 136.412 503.409 133.876C500.761 131.131 498.56 128.482 498.026 127.421C497.41 126.116 497.187 125.021 497.31 123.625C497.413 122.11 497.668 121.436 498.302 120.788C498.792 120.309 500.503 119.463 502.095 118.875C503.724 118.333 505.274 117.504 505.573 117.039C506.016 116.394 506.053 115.892 505.613 114.411C505.299 113.382 504.395 111.437 503.585 110.06C502.744 108.68 501.417 106.952 500.573 106.152C499.714 105.393 498.583 104.715 497.978 104.625C497.372 104.535 496.563 104.812 495.947 105.268C495.416 105.733 494.489 106.235 493.855 106.335C493.126 106.544 492.49 106.441 491.879 106.081C491.379 105.776 490.858 105.146 490.708 104.605C490.544 104.106 490.595 103.252 490.8 102.659C491.051 102.028 491.632 101.482 492.396 101.244C493.052 101.027 493.882 100.871 494.184 100.921C494.559 100.979 495.089 100.31 495.612 99.0496C496.071 98.0195 496.535 96.7107 496.618 96.1709C496.702 95.6311 496.493 94.3867 496.179 93.3577C495.833 92.3258 495.016 91.023 494.376 90.4139C493.517 89.655 492.652 89.2928 491.17 89.0756C489.918 88.8911 487.379 89.0989 484.249 89.6152C481.517 90.073 478.695 90.361 477.976 90.2491C477.255 90.1478 476.3 89.8415 475.838 89.5824C475.418 89.3273 474.604 88.5405 474.094 87.7934C473.552 87.0433 472.535 84.7333 471.768 82.5762C471.039 80.4656 469.998 78.0674 469.459 77.2855C468.952 76.5065 467.927 75.6027 467.237 75.3002C466.434 74.9441 465.304 74.8143 464.206 74.8917C463.224 74.9801 461.547 75.3564 460.448 75.7881C458.857 76.3767 458.192 76.9037 457.292 78.3426C456.449 79.6259 455.727 81.6403 454.739 85.4336C453.563 89.9715 453.248 90.8328 452.412 91.4937C451.807 91.9513 450.964 92.139 450.285 92.0417C449.648 91.9484 447.574 91.2878 445.678 90.5261C443.739 89.7711 440.772 88.9282 438.997 88.6721C436.391 88.2506 435.47 88.2589 434.046 88.7561C433.115 89.0858 432.018 89.711 431.608 90.1228C431.047 90.7886 430.829 91.7344 430.462 95.5657C430.114 98.9694 429.824 100.456 429.381 101.101C429.04 101.562 428.009 102.269 427.106 102.644C425.629 103.255 425.166 103.221 422.284 102.59C422.004 102.531 421.704 102.459 421.351 102.393C419.505 101.991 416.622 101.371 411.988 100.358L410.142 101.62C408.604 102.654 408.173 103.171 407.816 104.576C407.463 105.939 407.535 107.288 408.249 111.32C408.862 114.751 409.065 117.058 408.878 118.565C408.666 120.22 408.373 120.966 407.644 121.723C407.14 122.233 405.938 122.848 405.022 123.018C403.586 123.31 402.98 123.231 400.329 122.397C398.679 121.83 395.964 121.119 394.316 120.757C391.479 120.098 391.287 120.112 390.513 120.897C390.099 121.352 389.645 122.339 389.532 123.069C389.42 123.8 389.485 125.224 389.643 126.227C389.841 127.245 390.775 130.095 391.748 132.637C392.736 135.137 393.693 138.075 393.878 139.124C394.07 140.216 394.161 141.364 394.117 141.714C394.059 142.095 393.69 142.747 393.322 143.163C392.901 143.692 392.245 143.908 391.566 143.811C390.888 143.714 390.199 143.175 389.425 142.08C388.818 141.238 387.821 140.155 387.256 139.757C386.455 139.164 385.486 138.9 383.161 138.752C381.479 138.623 379.463 138.677 378.704 138.873C377.943 139.079 376.903 139.549 376.417 139.985C375.623 140.65 375.466 141.183 374.953 145.43C374.446 149.398 374.235 150.27 373.466 151.334C372.947 152.004 372.013 152.806 371.363 153.066C370.7 153.357 368.693 153.648 366.865 153.73C364.654 153.83 362.395 153.656 359.996 153.18C357.443 152.645 356.051 152.157 355.038 151.458C354.265 150.912 353.265 149.86 352.769 149.071C352.299 148.339 351.897 147.13 351.88 146.419C351.828 145.748 352.03 144.629 352.235 144.037C352.543 143.261 354.618 141.483 359.125 138.188C363.283 135.118 365.931 132.88 366.624 131.84C367.505 130.593 367.788 129.739 367.932 127.905C368.024 126.507 367.89 125.034 367.063 123.064L365.66 125.217C364.912 126.402 363.671 127.755 362.937 128.232C362.21 128.753 361.013 129.208 360.306 129.29C359.641 129.388 358.457 129.253 357.763 128.993C357.068 128.733 355.923 128.086 355.279 127.52C354.62 126.995 353.698 125.907 353.198 125.161C352.667 124.294 352.415 123.389 352.537 122.553C352.632 121.896 353.14 120.795 353.666 120.169C354.276 119.433 355.418 118.78 356.911 118.332C358.209 117.93 360.422 117.594 361.849 117.613C364.171 117.567 364.499 117.459 364.81 116.64C365.039 116.125 365.23 114.027 365.339 112.008C365.407 109.974 365.336 107.293 365.166 106.084C364.996 104.876 364.629 103.176 364.373 102.314C364.103 101.493 363.391 100.082 362.818 99.2109C362.288 98.3437 360.838 96.6797 359.617 95.51C358.19 94.1597 357.247 93.5108 356.954 93.6975C356.696 93.8553 355.48 94.5013 354.234 95.1338C352.774 95.8961 351.362 96.2762 350.241 96.2655C348.772 96.2428 348.334 96.0612 347.584 95.1624C346.889 94.3546 346.674 93.7325 346.823 92.7265C346.893 91.9921 347.42 90.8074 347.897 90.1336C348.416 89.4637 349.587 88.6201 350.488 88.2768C351.559 87.8102 352.734 87.7079 356.063 88.1989L356.372 86.0804C356.549 84.8944 356.503 83.3864 356.27 82.6122C356.03 81.9126 355.044 79.9492 354.092 78.2792C353.138 76.6411 351.301 74.1666 350.038 72.7674C348.73 71.3961 346.844 69.5399 345.811 68.7213C344.782 67.8601 343.658 67.108 343.356 67.0575C343.053 67.0177 342.521 67.4823 342.152 68.1343C341.824 68.7903 340.951 69.727 340.228 70.2054C339.49 70.7254 338.154 71.1988 337.214 71.2913C336.273 71.3837 334.867 71.2597 333.901 70.9524C332.72 70.5813 331.961 69.9931 331.322 69.0404C330.521 67.9003 330.465 67.4975 330.826 66.3722C331.085 65.6666 331.833 64.4817 332.572 63.7256C333.255 63.0069 334.336 62.2191 335.027 61.9738C335.672 61.7564 336.875 61.4635 339.129 61.1318L338.314 58.2612C337.854 56.6597 336.974 54.2447 336.293 52.8476C335.654 51.4546 334.423 49.2745 333.575 47.9687C332.726 46.663 331.236 44.9843 330.3 44.2609C329.336 43.4919 328.236 42.8172 327.819 42.7558C327.402 42.6943 326.294 42.8781 323.621 43.7067L323.728 45.575C323.805 46.6458 323.733 48.7225 323.543 50.2617C323.282 52.5458 323.042 53.1779 322.253 54.0046C321.62 54.6527 320.883 54.9366 319.999 54.8841C319.271 54.8573 318.205 54.4973 317.644 54.0569C317.052 53.6134 316.436 52.8563 316.203 52.3077C315.966 51.8016 315.738 50.7488 315.695 49.9927C315.651 49.2367 315.858 47.8495 316.221 46.9285C316.554 45.9938 317.476 44.4388 318.274 43.5057C319.635 41.8962 319.745 41.6382 319.477 40.3452C319.36 39.5821 318.785 37.9589 318.259 36.8237C317.694 35.6419 316.618 34.0672 315.804 33.2804C314.994 32.4509 313.389 31.309 312.213 30.6592M339.162 65.8715C339.38 65.4735 339.218 65.2862 338.487 65.1839C337.924 65.0977 336.871 65.3726 336.192 65.8232C335.472 66.2697 334.892 66.8048 334.863 66.9954C334.83 67.2285 335.149 67.4309 335.567 67.4924C335.984 67.5539 336.855 67.4118 337.542 67.1985C338.188 66.9811 338.774 66.7151 338.785 66.598C338.796 66.4809 338.965 66.1534 339.162 65.8715ZM119.056 61.9823L118.507 63.0789C118.13 63.8053 118.001 64.9314 118.068 66.549C118.113 67.8528 118.372 69.231 118.625 69.5774C119.046 70.1548 119.123 70.1192 119.591 69.3263C119.866 68.7727 120.036 67.6612 119.993 66.5616C119.958 65.4949 119.748 64.0463 119.466 63.3426L119.046 61.9813L119.056 61.9823ZM82.2945 64.334C81.9171 63.9649 81.5745 63.6743 81.5431 63.6712C81.5011 63.6672 81.7095 64.3638 82.0075 65.2302C82.3465 66.1111 82.9244 67.3695 83.3311 68.0958C83.9788 69.1782 84.087 69.2638 84.1807 68.6176C84.2425 68.1939 84.0122 67.173 83.6651 66.3771C83.273 65.6092 82.6865 64.6615 82.306 64.3243M219.835 96.0327C219.415 95.7776 218.139 95.505 216.949 95.4446C215.801 95.3882 213.915 95.6264 212.736 95.9967C210.916 96.5526 210.654 96.7423 211.002 97.3126C211.219 97.6986 212.174 98.5528 213.117 99.2017C214.418 100.1 215.508 100.537 217.139 100.747C218.392 100.932 219.839 101.07 220.31 101.019C221.01 101 221.206 100.718 221.355 99.7227C221.494 99.0379 221.337 98.0347 221.061 97.482C220.824 96.976 220.275 96.3004 219.844 96.0443M362.93 121.787C362.985 121.438 362.575 121.302 361.377 121.316C360.444 121.334 359.194 121.461 358.51 121.632C357.869 121.807 357.08 122.204 356.768 122.475C356.277 122.954 356.349 123.197 357.309 124.009C357.926 124.53 358.898 124.988 359.552 125.008C360.436 125.06 360.943 124.744 361.754 123.683C362.367 122.915 362.885 122.041 362.921 121.776M197.959 116.115C196.848 115.01 195.823 114.106 195.635 114.077C195.448 114.048 195.276 114.182 195.233 114.414C195.214 114.606 195.751 115.635 196.449 116.636C197.115 117.634 198.377 119.044 199.233 119.717C200.103 120.359 200.971 120.797 201.142 120.673C201.356 120.543 201.14 119.921 200.695 119.266C200.277 118.657 199.029 117.206 197.95 116.103M159.19 117.877C159.368 116.68 159.352 115.744 159.122 115.712C158.935 115.683 158.254 115.822 157.645 116C157.031 116.22 155.976 116.849 155.307 117.419C154.604 118.017 154.01 118.916 153.951 119.534C153.863 120.116 154.023 121.431 154.754 124.293L155.663 123.639C156.188 123.249 157.106 122.285 157.723 121.474C158.579 120.385 158.961 119.38 159.179 117.876M177.16 122.198C176.359 121.058 175.654 120.132 175.572 120.113C175.498 120.106 175.432 120.798 175.423 121.667C175.418 122.493 175.714 124.143 176.049 125.293C176.428 126.414 177.135 127.652 177.571 128.07C178.233 128.563 178.675 128.702 179.243 128.52C180.053 128.243 180.056 128.211 179.344 126.253C178.96 125.174 177.961 123.339 177.16 122.198ZM389.112 316.185C388.654 315.883 387.963 315.581 387.588 315.523C387.212 315.466 386.789 315.683 386.616 316.053C386.443 316.423 386.582 317.07 386.9 317.509C387.186 317.945 388.257 318.81 389.201 319.459C390.185 320.122 391.358 320.804 391.795 320.985C392.303 321.217 392.612 321.193 392.694 320.889C392.73 320.624 392.109 319.587 391.371 318.571C390.635 317.523 389.594 316.457 389.102 316.184M469.706 493.92C469.62 493.707 469.232 493.455 468.814 493.394C468.397 493.332 467.95 493.461 467.817 493.642C467.711 493.857 468.05 494.191 468.592 494.382C469.144 494.585 469.666 494.668 469.729 494.556C469.783 494.443 469.787 494.174 469.705 493.93M431.934 513.101C431.472 512.842 430.823 512.544 430.479 512.489C430.177 512.439 429.584 512.554 429.161 512.771C428.418 513.13 428.4 513.203 429.958 515.715L432.815 513.626L431.924 513.1L431.934 513.101Z" fill="#2C2C2C"/>
</g>
<defs>
<clipPath id="clip0_31_16058">
<rect width="488" height="488" fill="white" transform="translate(46.5576) rotate(5.47462)"/>
</clipPath>
</defs>
</svg>
