<svg width="162" height="101" viewBox="0 0 162 101" fill="none" xmlns="http://www.w3.org/2000/svg">
<path d="M24.6363 79.632L16.7163 79.632L16.7163 87L13.8363 87L13.8363 70.2L16.7163 70.2L16.7163 77.088L24.6363 77.088L24.6363 70.2L27.5163 70.2L27.5163 87L24.6363 87L24.6363 79.632ZM40.0913 82.752L33.7313 82.752L32.3393 87L29.3153 87L35.3153 70.2L38.6753 70.2L44.6753 87L41.5073 87L40.0913 82.752ZM34.5713 80.208L39.2513 80.208L38.0513 76.536L36.9233 73.08L35.7953 76.536L34.5713 80.208ZM50.3487 75.96L49.3647 73.416L49.3647 87L46.4847 87L46.4847 70.2L50.8047 70.2L54.5487 79.296L58.2927 70.2L62.5647 70.2L62.5647 87L59.6847 87L59.6847 73.392L58.6767 75.96L55.9647 82.56L53.0847 82.56L50.3487 75.96ZM65.9144 70.2L76.9544 70.2L76.9544 72.744L68.7944 72.744L68.7944 76.392L71.9144 76.392C72.9224 76.392 73.8104 76.528 74.5784 76.8C75.3624 77.056 76.0184 77.416 76.5464 77.88C77.0744 78.344 77.4744 78.904 77.7464 79.56C78.0184 80.2 78.1544 80.912 78.1544 81.696C78.1544 83.376 77.6504 84.68 76.6424 85.608C75.6344 86.536 74.0584 87 71.9144 87L65.9144 87L65.9144 70.2ZM68.7944 78.936L68.7944 84.456L71.9144 84.456C72.9864 84.456 73.7864 84.208 74.3144 83.712C74.8584 83.216 75.1304 82.544 75.1304 81.696C75.1304 80.896 74.8504 80.24 74.2904 79.728C73.7304 79.2 72.9384 78.936 71.9144 78.936L68.7944 78.936ZM80.5628 70.2L91.3628 70.2L91.3628 72.744L83.4428 72.744L83.4428 77.088L89.9228 77.088L89.9228 79.632L83.4428 79.632L83.4428 84.456L91.3628 84.456L91.3628 87L80.5628 87L80.5628 70.2ZM93.9925 70.2L99.7525 70.2C102.009 70.2 103.649 70.68 104.673 71.64C105.713 72.584 106.233 73.952 106.233 75.744C106.233 77.424 105.689 78.768 104.601 79.776C103.513 80.784 101.897 81.288 99.7525 81.288L96.8725 81.288L96.8725 87L93.9925 87L93.9925 70.2ZM96.8725 72.744L96.8725 78.744L99.7525 78.744C100.905 78.744 101.769 78.472 102.345 77.928C102.921 77.384 103.209 76.656 103.209 75.744C103.209 74.784 102.929 74.048 102.369 73.536C101.825 73.008 100.953 72.744 99.7525 72.744L96.8725 72.744ZM108.383 70.2L114.023 70.2C115.127 70.2 116.063 70.304 116.831 70.512C117.615 70.72 118.247 71.016 118.727 71.4C119.223 71.784 119.583 72.264 119.807 72.84C120.031 73.4 120.143 74.04 120.143 74.76C120.143 75.496 119.967 76.168 119.615 76.776C119.263 77.384 118.719 77.88 117.983 78.264C118.895 78.632 119.559 79.16 119.975 79.848C120.407 80.52 120.623 81.288 120.623 82.152C120.623 82.952 120.511 83.656 120.287 84.264C120.063 84.856 119.703 85.36 119.207 85.776C118.727 86.176 118.095 86.48 117.311 86.688C116.543 86.896 115.607 87 114.503 87L108.383 87L108.383 70.2ZM111.263 79.536L111.263 84.552L114.503 84.552C115.655 84.552 116.455 84.352 116.903 83.952C117.367 83.536 117.599 82.896 117.599 82.032C117.599 81.184 117.367 80.56 116.903 80.16C116.455 79.744 115.655 79.536 114.503 79.536L111.263 79.536ZM111.263 72.648L111.263 77.184L114.023 77.184C115.159 77.184 115.959 76.992 116.423 76.608C116.887 76.208 117.119 75.64 117.119 74.904C117.119 74.184 116.887 73.632 116.423 73.248C115.959 72.848 115.159 72.648 114.023 72.648L111.263 72.648ZM132.248 82.752L125.888 82.752L124.496 87L121.472 87L127.472 70.2L130.832 70.2L136.832 87L133.664 87L132.248 82.752ZM126.728 80.208L131.408 80.208L130.208 76.536L129.08 73.08L127.952 76.536L126.728 80.208ZM149.441 79.632L141.521 79.632L141.521 87L138.641 87L138.641 70.2L141.521 70.2L141.521 77.088L149.441 77.088L149.441 70.2L152.321 70.2L152.321 87L149.441 87L149.441 79.632Z" fill="#F7F6CC"/>
<path d="M67.509 58.1851C67.509 55.1851 69.109 49.1851 75.509 49.1851C83.509 49.1851 83.509 58.1851 91.509 58.1851C97.909 58.1851 99.509 52.1851 99.509 49.1851" stroke="#F7F6CC" stroke-width="2"/>
<circle cx="91.509" cy="52.1851" r="2" fill="#248A2E"/>
<circle cx="75.509" cy="55.1851" r="2" fill="#43B02A"/>
<path d="M23.5946 50.2191L25.8467 56.2033L24.1354 58.4195L21.2251 50.3098L13.299 49.5464L15.0592 47.2669L20.7027 47.9102L18.7019 42.5496L20.3887 40.3651L23.0686 47.7915L31.7141 48.605L29.9294 50.9162L23.5946 50.2191Z" fill="#F7F6CC"/>
<path d="M23.2047 37.5959L31.4264 30.2881L32.8348 31.8726L29.6209 34.7293L37.5133 43.6087L35.7195 45.2031L27.827 36.3237L24.6131 39.1804L23.2047 37.5959Z" fill="#F7F6CC"/>
<path d="M47.5067 36.8301C46.7043 37.3069 45.8958 37.6168 45.0812 37.7597C44.2712 37.8843 43.4881 37.8455 42.7321 37.6434C41.9807 37.423 41.2678 37.0324 40.5933 36.4716C39.9188 35.9108 39.3126 35.1776 38.7744 34.2721L38.2431 33.378C37.7119 32.484 37.3611 31.6067 37.191 30.7462C37.0323 29.8789 37.0392 29.0683 37.2116 28.3144C37.3886 27.5423 37.7255 26.8303 38.2222 26.1784C38.7303 25.5197 39.3798 24.9553 40.1707 24.4854C40.9731 24.0085 41.7793 23.7078 42.5893 23.5832C43.4039 23.4403 44.187 23.4791 44.9383 23.6995C45.7012 23.9131 46.4198 24.3003 47.0943 24.8611C47.762 25.4104 48.3649 26.1379 48.903 27.0434L49.4343 27.9374C49.9656 28.8315 50.3106 29.7122 50.4692 30.5795C50.6394 31.44 50.6359 32.2563 50.4589 33.0285C50.2933 33.7938 49.9564 34.5058 49.4483 35.1645C48.9448 35.8049 48.2976 36.3601 47.5067 36.8301ZM46.3624 34.9045C47.3023 34.3459 47.8772 33.5778 48.0871 32.6C48.2903 31.6107 48.0172 30.4856 47.2679 29.2248L46.7366 28.3307C46.3688 27.7118 45.965 27.215 45.5253 26.8404C45.0902 26.4476 44.6374 26.1815 44.167 26.0423C43.7011 25.8849 43.2257 25.8417 42.7406 25.9128C42.2487 25.9725 41.7735 26.1385 41.3151 26.411C40.3637 26.9764 39.7865 27.7537 39.5833 28.7429C39.3848 29.7139 39.6602 30.8298 40.4095 32.0907L40.9408 32.9847C41.6832 34.2341 42.5375 35.006 43.5035 35.3005C44.481 35.5882 45.4339 35.4562 46.3624 34.9045Z" fill="#F7F6CC"/>
<path d="M69.2765 28.4086L60.8931 30.58L61.6453 33.4841L59.3994 34.0658L58.1156 29.1094L59.2386 28.8185C59.3873 28.4357 59.4924 28.0435 59.5536 27.642C59.6278 27.2371 59.6497 26.7631 59.6192 26.2201C59.5983 25.6608 59.5103 25.0018 59.3551 24.2432C59.2128 23.4812 58.998 22.5451 58.7105 21.4351L57.5571 16.982L66.7536 14.6001L69.7323 26.1006L70.9908 25.7747L72.2745 30.7311L70.0286 31.3128L69.2765 28.4086ZM61.0338 20.8333C61.2912 21.8272 61.4958 22.697 61.6477 23.4428C61.7995 24.1885 61.9086 24.849 61.9749 25.424C62.0412 25.9991 62.0616 26.5034 62.0362 26.937C62.0107 27.3705 61.9495 27.7721 61.8523 28.1416L67.409 26.7024L64.9618 17.2541L60.412 18.4326L61.0338 20.8333Z" fill="#F7F6CC"/>
<path d="M79.6107 27.609C78.6784 27.6525 77.8191 27.5459 77.033 27.2889C76.2595 27.0181 75.5866 26.6157 75.0144 26.0818C74.4549 25.534 74.0094 24.8541 73.6778 24.042C73.3462 23.2299 73.1558 22.2978 73.1066 21.2456L73.0581 20.2067C73.0096 19.1679 73.1125 18.2287 73.3669 17.3893C73.6347 16.5492 74.0219 15.837 74.5285 15.2527C75.0478 14.6545 75.6799 14.1845 76.4247 13.8427C77.1829 13.5003 78.0215 13.3076 78.9405 13.2646C79.8728 13.2211 80.7257 13.3347 81.4992 13.6056C82.2854 13.8625 82.9582 14.2649 83.5177 14.8127C84.0906 15.3599 84.5428 16.0395 84.8744 16.8516C85.2053 17.6503 85.3954 18.5758 85.4446 19.628L85.4931 20.6669C85.5417 21.7057 85.4321 22.6452 85.1643 23.4853C84.9099 24.3247 84.523 25.0436 84.0037 25.6418C83.4977 26.2394 82.8656 26.7094 82.1074 27.0518C81.3619 27.3803 80.5297 27.566 79.6107 27.609ZM79.5062 25.3714C80.5983 25.3204 81.4669 24.9127 82.1119 24.1485C82.7563 23.3709 83.0443 22.2496 82.9759 20.7845L82.9273 19.7456C82.8937 19.0264 82.7709 18.3981 82.559 17.8608C82.3597 17.3095 82.0851 16.8618 81.7354 16.5177C81.3983 16.1597 80.999 15.8981 80.5374 15.7328C80.0753 15.5542 79.5778 15.4773 79.045 15.5022C77.9396 15.5538 77.0646 15.9685 76.4202 16.7461C75.7885 17.5097 75.5069 18.6241 75.5753 20.0891L75.6239 21.128C75.6917 22.5797 76.0827 23.6627 76.7968 24.3768C77.5242 25.0903 78.4273 25.4218 79.5062 25.3714Z" fill="#F7F6CC"/>
<path d="M98.2779 22.9241L91.7659 21.8495L90.7662 27.9076L88.3983 27.5169L90.6777 13.7037L93.0457 14.0944L92.1111 19.7578L98.623 20.8324L99.5576 15.169L101.926 15.5598L99.6462 29.373L97.2782 28.9822L98.2779 22.9241Z" fill="#F7F6CC"/>
<path d="M111.394 29.9853L106.449 28.0779L104.093 30.9633L101.742 30.0564L111.445 18.7938L114.058 19.8015L113.684 34.6628L111.221 33.7128L111.394 29.9853ZM107.865 26.3519L111.504 27.7554L111.672 24.5406L111.832 21.5152L109.918 23.864L107.865 26.3519Z" fill="#F7F6CC"/>
<path d="M121.444 23.2101L130.807 28.9833L129.695 30.7878L126.035 28.531L119.8 38.6434L117.757 37.3838L123.992 27.2714L120.332 25.0147L121.444 23.2101Z" fill="#F7F6CC"/>
<path d="M139.29 40.2976L137.369 41.0842L127.517 44.5175L125.164 42.3494L134.649 32.0523L136.414 33.6783L128.839 41.9013L130.858 41.0683L140.709 37.635L143.034 39.776L133.548 50.0731L131.783 48.447L139.29 40.2976Z" fill="#F7F6CC"/>
<path d="M146.375 43.8517L147.798 45.784L143.966 48.6072L145.389 50.5395C146.449 51.9779 146.91 53.3113 146.771 54.5395C146.632 55.7677 146 56.7969 144.872 57.6273C143.67 58.513 142.49 58.8442 141.332 58.6209C140.192 58.4005 139.065 57.5334 137.95 56.0198L135.103 52.1552L146.375 43.8517ZM142.259 49.8646L138.233 52.8301L139.716 54.8429C140.278 55.6051 140.865 56.0421 141.477 56.1541C142.1 56.2581 142.734 56.0729 143.378 55.5984C143.99 55.1476 144.336 54.5946 144.416 53.9392C144.504 53.2946 144.279 52.6073 143.742 51.8774L142.259 49.8646Z" fill="#F7F6CC"/>
</svg>
