<svg width="184" height="107" viewBox="0 0 184 107" fill="none" xmlns="http://www.w3.org/2000/svg">
<path d="M11.8003 25.6844L7.76834 32.2124L4.40834 32.2124L9.97634 23.5004L4.88834 15.4124L8.34434 15.4124L11.8723 21.2444L15.4963 15.4124L18.8083 15.4124L13.7203 23.4044L19.2883 32.2124L15.7843 32.2124L11.8003 25.6844ZM20.0177 15.4124L33.2177 15.4124L33.2177 17.9564L28.0577 17.9564L28.0577 32.2124L25.1777 32.2124L25.1777 17.9564L20.0177 17.9564L20.0177 15.4124ZM41.1387 32.4284C40.0187 32.4284 38.9947 32.2524 38.0667 31.9004C37.1547 31.5324 36.3707 31.0124 35.7147 30.3404C35.0747 29.6524 34.5787 28.8124 34.2267 27.8204C33.8747 26.8284 33.6987 25.7004 33.6987 24.4364L33.6987 23.1884C33.6987 21.9404 33.8747 20.8204 34.2267 19.8284C34.5947 18.8364 35.0987 18.0044 35.7387 17.3324C36.3947 16.6444 37.1787 16.1164 38.0907 15.7484C39.0187 15.3804 40.0347 15.1964 41.1387 15.1964C42.2587 15.1964 43.2747 15.3804 44.1867 15.7484C45.1147 16.1004 45.8987 16.6204 46.5387 17.3084C47.1947 17.9964 47.6987 18.8364 48.0507 19.8284C48.4027 20.8044 48.5787 21.9244 48.5787 23.1884L48.5787 24.4364C48.5787 25.6844 48.3947 26.8044 48.0267 27.7964C47.6747 28.7884 47.1707 29.6284 46.5147 30.3164C45.8747 31.0044 45.0907 31.5324 44.1627 31.9004C43.2507 32.2524 42.2427 32.4284 41.1387 32.4284ZM41.1387 29.7404C42.4507 29.7404 43.5147 29.3004 44.3307 28.4204C45.1467 27.5244 45.5547 26.1964 45.5547 24.4364L45.5547 23.1884C45.5547 22.3244 45.4427 21.5644 45.2187 20.9084C45.0107 20.2364 44.7067 19.6844 44.3067 19.2524C43.9227 18.8044 43.4587 18.4684 42.9147 18.2444C42.3707 18.0044 41.7787 17.8844 41.1387 17.8844C39.8107 17.8844 38.7387 18.3324 37.9227 19.2284C37.1227 20.1084 36.7227 21.4284 36.7227 23.1884L36.7227 24.4364C36.7227 26.1804 37.1307 27.5004 37.9467 28.3964C38.7787 29.2924 39.8427 29.7404 41.1387 29.7404ZM69.0737 32.2124L58.6817 32.2124L58.6817 35.8124L55.8977 35.8124L55.8977 29.6684L57.2897 29.6684C57.5777 29.2684 57.8177 28.8444 58.0097 28.3964C58.2177 27.9484 58.3857 27.4044 58.5137 26.7644C58.6577 26.1084 58.7537 25.3164 58.8017 24.3884C58.8657 23.4604 58.8977 22.3084 58.8977 20.9324L58.8977 15.4124L70.2977 15.4124L70.2977 29.6684L71.8577 29.6684L71.8577 35.8124L69.0737 35.8124L69.0737 32.2124ZM61.7777 20.9324C61.7777 22.1644 61.7537 23.2364 61.7057 24.1484C61.6577 25.0604 61.5857 25.8604 61.4897 26.5484C61.3937 27.2364 61.2657 27.8284 61.1057 28.3244C60.9457 28.8204 60.7537 29.2684 60.5297 29.6684L67.4177 29.6684L67.4177 17.9564L61.7777 17.9564L61.7777 20.9324ZM80.5137 32.4284C79.3937 32.4284 78.3697 32.2524 77.4417 31.9004C76.5297 31.5324 75.7457 31.0124 75.0897 30.3404C74.4497 29.6524 73.9537 28.8124 73.6017 27.8204C73.2497 26.8284 73.0737 25.7004 73.0737 24.4364L73.0737 23.1884C73.0737 21.9404 73.2497 20.8204 73.6017 19.8284C73.9697 18.8364 74.4737 18.0044 75.1137 17.3324C75.7697 16.6444 76.5537 16.1164 77.4657 15.7484C78.3937 15.3804 79.4097 15.1964 80.5137 15.1964C81.6337 15.1964 82.6497 15.3804 83.5617 15.7484C84.4897 16.1004 85.2737 16.6204 85.9137 17.3084C86.5697 17.9964 87.0737 18.8364 87.4257 19.8284C87.7777 20.8044 87.9537 21.9244 87.9537 23.1884L87.9537 24.4364C87.9537 25.6844 87.7697 26.8044 87.4017 27.7964C87.0497 28.7884 86.5457 29.6284 85.8897 30.3164C85.2497 31.0044 84.4657 31.5324 83.5377 31.9004C82.6257 32.2524 81.6177 32.4284 80.5137 32.4284ZM80.5137 29.7404C81.8257 29.7404 82.8897 29.3004 83.7057 28.4204C84.5217 27.5244 84.9297 26.1964 84.9297 24.4364L84.9297 23.1884C84.9297 22.3244 84.8177 21.5644 84.5937 20.9084C84.3857 20.2364 84.0817 19.6844 83.6817 19.2524C83.2977 18.8044 82.8337 18.4684 82.2897 18.2444C81.7457 18.0044 81.1537 17.8844 80.5137 17.8844C79.1857 17.8844 78.1137 18.3324 77.2977 19.2284C76.4977 20.1084 76.0977 21.4284 76.0977 23.1884L76.0977 24.4364C76.0977 26.1804 76.5057 27.5004 77.3217 28.3964C78.1537 29.2924 79.2177 29.7404 80.5137 29.7404ZM101.513 24.8444L93.5927 24.8444L93.5927 32.2124L90.7127 32.2124L90.7127 15.4124L93.5927 15.4124L93.5927 22.3004L101.513 22.3004L101.513 15.4124L104.393 15.4124L104.393 32.2124L101.513 32.2124L101.513 24.8444ZM116.968 27.9644L110.608 27.9644L109.216 32.2124L106.192 32.2124L112.192 15.4124L115.552 15.4124L121.552 32.2124L118.384 32.2124L116.968 27.9644ZM111.448 25.4204L116.128 25.4204L114.928 21.7484L113.8 18.2924L112.672 21.7484L111.448 25.4204ZM120.119 15.4124L133.319 15.4124L133.319 17.9564L128.159 17.9564L128.159 32.2124L125.279 32.2124L125.279 17.9564L120.119 17.9564L120.119 15.4124ZM146.161 18.9164L145.105 21.1724L139.201 32.2124L135.361 32.2124L135.361 15.4124L138.241 15.4124L138.241 28.8284L139.345 26.4524L145.249 15.4124L149.041 15.4124L149.041 32.2124L146.161 32.2124L146.161 18.9164ZM151.08 15.4124L164.28 15.4124L164.28 17.9564L159.12 17.9564L159.12 32.2124L156.24 32.2124L156.24 17.9564L151.08 17.9564L151.08 15.4124ZM166.322 15.4124L169.202 15.4124L169.202 21.1244L172.082 21.1244C174.226 21.1244 175.842 21.6284 176.93 22.6364C178.018 23.6444 178.562 24.9884 178.562 26.6684C178.562 28.4604 178.042 29.8364 177.002 30.7964C175.978 31.7404 174.338 32.2124 172.082 32.2124L166.322 32.2124L166.322 15.4124ZM169.202 23.6684L169.202 29.6684L172.202 29.6684C173.338 29.6684 174.178 29.4124 174.722 28.9004C175.266 28.3724 175.538 27.6284 175.538 26.6684C175.538 25.7564 175.25 25.0284 174.674 24.4844C174.114 23.9404 173.29 23.6684 172.202 23.6684L169.202 23.6684Z" fill="#F7F6CC"/>
<path d="M23.0904 67.6864L16.3577 63.5154L12.4774 69.7788L10.0292 68.2621L18.8768 53.9806L21.325 55.4974L17.6975 61.3528L24.4302 65.5238L28.0577 59.6684L30.506 61.1851L21.6584 75.4666L19.2101 73.9498L23.0904 67.6864Z" fill="#F7F6CC"/>
<path d="M38.3737 78.5487L32.5143 76.0755L29.5799 79.4478L26.7939 78.2719L38.8548 65.1274L41.9503 66.4341L40.9449 84.245L38.0263 83.013L38.3737 78.5487ZM34.2774 74.0584L38.5891 75.8783L38.9115 72.0287L39.2162 68.4061L36.8331 71.1514L34.2774 74.0584Z" fill="#F7F6CC"/>
<path d="M53.9326 76.6952L53.5682 73.992L50.4044 87.2024L47.6036 86.5316L51.5164 70.1936L55.7176 71.1998L57.2401 80.9176L62.9997 72.9438L67.1542 73.9388L63.2414 90.2767L60.4406 89.606L63.61 76.3722L62.0316 78.6348L57.857 84.4217L55.0562 83.7509L53.9326 76.6952Z" fill="#F7F6CC"/>
<path d="M72.7949 74.5987L83.8036 75.4289L83.6123 77.9657L75.4754 77.352L75.2011 80.9897L78.3123 81.2243C79.3174 81.3001 80.1927 81.5025 80.938 81.8315C81.7006 82.1458 82.3276 82.5541 82.8192 83.0565C83.3108 83.5589 83.6676 84.1474 83.8895 84.8219C84.1126 85.4806 84.1947 86.2008 84.1357 86.9826C84.0094 88.6578 83.4087 89.9202 82.3338 90.7698C81.2589 91.6194 79.6524 91.9635 77.5145 91.8023L71.5315 91.3511L72.7949 74.5987ZM75.0098 83.5265L74.5947 89.0309L77.7058 89.2655C78.7748 89.3461 79.5912 89.159 80.155 88.7041C80.7347 88.2504 81.0565 87.6008 81.1203 86.7552C81.1804 85.9574 80.9506 85.2822 80.4307 84.7296C79.9119 84.161 79.142 83.8381 78.1209 83.7611L75.0098 83.5265Z" fill="#F7F6CC"/>
<path d="M88.9303 75.4166L99.7098 74.753L99.8662 77.2922L91.9611 77.7789L92.2281 82.1146L98.6958 81.7164L98.8522 84.2556L92.3844 84.6538L92.6809 89.4687L100.586 88.982L100.742 91.5212L89.9626 92.1849L88.9303 75.4166Z" fill="#F7F6CC"/>
<path d="M104.07 74.1851L109.723 73.0759C111.936 72.6414 113.638 72.7966 114.828 73.5414C116.03 74.2675 116.804 75.5097 117.149 77.2682C117.473 78.9167 117.198 80.3403 116.324 81.539C115.451 82.7376 113.962 83.5434 111.858 83.9563L109.032 84.5109L110.132 90.116L107.306 90.6707L104.07 74.1851ZM107.386 76.1269L108.542 82.0146L111.368 81.4599C112.498 81.2381 113.294 80.8048 113.754 80.16C114.215 79.5153 114.357 78.7455 114.182 77.8505C113.997 76.9085 113.58 76.2402 112.932 75.8456C112.297 75.4323 111.39 75.3411 110.213 75.5722L107.386 76.1269Z" fill="#F7F6CC"/>
<path d="M120.192 70.6234L125.523 68.7821C126.566 68.4217 127.485 68.2144 128.279 68.1603C129.088 68.101 129.782 68.1744 130.361 68.3807C130.955 68.5817 131.452 68.9179 131.852 69.3892C132.246 69.8454 132.561 70.4137 132.796 71.0943C133.036 71.7899 133.089 72.4826 132.955 73.1722C132.821 73.8618 132.469 74.5082 131.898 75.1115C132.881 75.1615 133.681 75.4438 134.298 75.9583C134.926 76.4525 135.381 77.1079 135.663 77.9245C135.924 78.6807 136.048 79.3827 136.035 80.0305C136.016 80.6632 135.841 81.2571 135.508 81.8122C135.185 82.347 134.687 82.8407 134.013 83.2933C133.355 83.7406 132.505 84.1445 131.461 84.5049L125.676 86.5029L120.192 70.6234ZM125.962 78.5077L127.599 83.2488L130.662 82.191C131.751 81.8149 132.442 81.3647 132.734 80.8404C133.037 80.2957 133.048 79.615 132.766 78.7984C132.489 77.9968 132.066 77.4828 131.497 77.2562C130.937 77.0092 130.113 77.0738 129.024 77.4499L125.962 78.5077ZM123.713 71.9971L125.194 76.2845L127.803 75.3835C128.876 75.0126 129.57 74.5699 129.883 74.0555C130.191 73.5259 130.225 72.9133 129.985 72.2176C129.75 71.5371 129.35 71.0911 128.786 70.8796C128.217 70.653 127.396 70.7251 126.322 71.096L123.713 71.9971Z" fill="#F7F6CC"/>
<path d="M149.252 71.9721L143.611 74.9102L144.339 79.3208L141.657 80.7177L139.217 63.0461L142.197 61.4939L155.28 73.622L152.47 75.0855L149.252 71.9721ZM143.181 72.2658L147.331 70.1039L144.571 67.4015L141.974 64.8575L142.57 68.4437L143.181 72.2658Z" fill="#F7F6CC"/>
<path d="M165.478 57.5872L159.105 62.2901L163.48 68.2185L161.163 69.9286L151.187 56.4111L153.504 54.7009L157.594 60.2431L163.967 55.5403L159.877 49.9981L162.194 48.288L172.17 61.8055L169.853 63.5157L165.478 57.5872Z" fill="#F7F6CC"/>
<path d="M75.5745 58.3976C75.5745 55.3976 77.1745 49.3976 83.5745 49.3976C91.5745 49.3976 91.5745 58.3976 99.5745 58.3976C105.974 58.3976 107.574 52.3976 107.574 49.3976" stroke="#F7F6CC" stroke-width="2"/>
<circle cx="99.5745" cy="52.3976" r="2" fill="#248A2E"/>
<circle cx="83.5745" cy="55.3976" r="2" fill="#43B02A"/>
</svg>
