<svg width="345" height="344" viewBox="0 0 345 344" fill="none" xmlns="http://www.w3.org/2000/svg">
<path fill-rule="evenodd" clip-rule="evenodd" d="M3.64749 194.018C5.51748 195.87 15.1139 197.475 32.3106 198.38C46.3701 199.246 57.6487 200.432 57.2729 201.379C57.0363 202.395 46.943 209.393 35.0895 217.096C15.5056 229.788 13.6637 231.51 14.2376 236.621C14.6244 239.913 16.1829 242.853 17.7118 243.312C19.0192 243.767 32.7582 241.349 47.7589 237.998C62.8313 234.286 75.6973 231.995 76.3499 232.293C77.0721 232.887 69.4852 243.127 59.8212 255.53C47.7857 270.519 42.1913 279.335 42.5075 282.404C42.8291 285.111 44.9825 287.765 47.4413 288.747C50.9228 289.965 56.2827 287.497 74.1621 276.235C86.3773 268.537 96.527 262.714 96.6617 263.587C96.7942 264.608 92.9735 276.293 87.8181 289.855C87.8181 289.855 76.5838 311.406 78.6294 314.509C80.675 317.611 89.7669 320.722 92.2698 319.23C94.0388 317.942 103.298 307.948 112.652 297.003C121.851 286.129 130.009 277.204 130.59 277.36C131.316 277.659 131.562 290.431 130.755 305.513C130.306 320.821 130.394 334.824 131.242 336.365C132.017 337.905 134.766 339.696 137.53 340.032C140.873 340.665 143.077 339.383 145.695 335.124C147.636 332.163 152.549 320.494 156.935 309.549C161.032 298.673 164.809 289.905 165.242 290.059C165.747 290.355 169.088 301.053 172.472 313.863C175.782 326.599 179.686 338.694 180.975 340.389C182.185 342.379 184.934 343.734 186.983 343.469C188.81 343.274 191.596 342.075 192.703 341.146C194.105 340.148 196.209 326.252 197.465 310.298C199.015 294.422 200.376 281.32 201.034 281.256C201.618 281.191 209.331 291.806 218.402 304.923C232.676 325.627 235.256 328.434 240.508 328.224C244.229 328.279 246.36 326.923 247.13 324.313C247.52 322.421 245.295 310.137 241.911 297.4C238.749 284.593 236.431 273.622 236.81 272.97C237.33 272.247 246.708 279.099 257.662 287.79C273.8 300.79 278.71 303.78 282.809 302.674C286.47 301.783 287.877 299.98 287.933 296.185C287.906 293.046 281.961 281.217 273.702 267.61C265.727 254.732 259.471 243.99 259.625 243.557C259.993 243.127 272.616 247.25 288.068 252.803C310.475 260.794 316.509 262.19 319.163 259.977C320.86 258.54 322.37 255.284 322.482 252.731C322.307 249.59 316.637 243.605 302.303 231.866C284.583 217.454 282.646 215.166 287.243 214.872C290.09 214.552 301.822 215.014 313.403 215.77C326.656 216.764 335.78 216.323 337.912 214.967C340.045 213.536 340.744 210.704 340.138 207.268C338.97 202.37 335.361 200.271 311.448 190.286C289.785 181.362 284.865 178.586 288.016 177.178C290.217 176.118 302.895 172.075 316.216 168.484C329.612 164.821 341.637 160.473 342.901 158.889C343.943 157.302 344.864 154.473 344.666 152.868C344.47 151.188 342.106 148.746 339.424 147.392C336.599 146.257 324.302 144.538 311.7 143.916C299.317 143.075 289.129 141.978 288.997 140.957C288.935 140.151 298.145 133.435 309.854 126.025C327.155 114.976 330.701 111.824 330.617 107.518C330.734 104.603 329.325 101.591 327.509 100.545C325.268 99.345 317.084 100.538 302.231 103.892C290.087 106.776 277.654 109.287 274.582 109.824C269.249 110.476 270.079 108.739 286.076 87.022C297.685 71.4432 302.846 62.4812 302.154 59.8421C301.526 57.8611 299.306 55.2067 297.284 54.1502C294.39 52.6525 289.03 55.1206 271.519 65.9448C259.448 73.4233 249.31 78.9589 248.949 78.3702C248.522 77.7805 252.408 66.6802 257.56 53.3391C264.922 33.9017 266.165 28.7436 264.019 26.0903C262.519 24.1702 259.404 22.6692 257.287 22.4901C254.742 22.3785 246.677 29.9903 234.001 44.3865C223.319 56.7004 214.424 66.5596 213.994 66.184C213.56 66.0298 213.682 52.8356 214.14 36.9436C214.992 13.8429 214.648 7.63478 212.348 5.41484C210.698 3.71407 207.214 2.64333 204.8 3.11703C200.858 3.56806 198.307 8.27102 190.42 28.7936C185.187 42.643 180.429 53.8042 179.918 53.4274C179.484 53.2732 176.149 42.2135 172.7 28.8186C169.038 15.4205 164.912 3.40375 163.551 2.06912C162.108 0.807108 158.842 -0.0462374 156.428 0.434848C153.581 0.75443 151.29 2.91361 150.369 5.74297C149.893 8.50507 148.374 22.2694 147.283 36.616C146.203 50.6747 144.856 62.3222 144.272 62.3874C143.612 62.5253 135.832 51.466 126.778 37.6999C114.938 20.0968 109.062 13.083 106.148 12.9659C103.816 12.8574 100.654 14.4868 99.3066 16.7264C96.9232 20.1174 97.3165 22.9663 102.622 44.0465C106.077 57.0058 108.24 68.4839 107.644 69.3538C107.194 70.2923 98.755 64.3407 89.2497 56.0989C79.7453 47.7906 70.0877 40.3588 68.133 39.739C65.7374 38.9724 62.6686 39.2961 60.3123 40.8635C58.1817 42.1463 56.6737 45.255 56.9353 47.5259C57.1969 49.7968 63.646 61.9883 71.3393 74.4272C79.0957 87.0811 84.4823 97.743 83.4582 98.0897C82.5058 98.585 69.946 94.6769 55.5897 89.435C34.4159 81.8987 28.6704 80.5064 25.5103 82.4976C23.4502 84.003 21.9422 87.1116 22.1933 89.5965C22.8048 92.6702 29.918 99.9165 42.3025 110.165C53.1774 119.151 61.8142 126.716 61.6642 127.371C61.3666 128.023 49.6288 127.923 35.5662 127.271C14.8043 126.306 9.18146 126.592 6.9619 128.892C5.26032 130.617 4.12567 133.443 4.31596 135.049C4.51253 136.728 6.51083 139.386 8.7458 141.022C11.0546 142.659 23.367 148.313 36.2702 153.46C49.2355 158.902 59.9624 163.433 60.0265 164.091C60.1655 164.677 47.6364 168.648 32.5531 173.091C17.1734 177.604 3.5399 182.364 2.27602 183.948C1.01214 185.531 0.0337788 187.777 0.306538 188.8C0.510671 189.969 2.00402 192.325 3.65476 194.026" fill="#EC672C"/>
</svg>
