<svg width="92" height="106" viewBox="0 0 92 106" fill="none" xmlns="http://www.w3.org/2000/svg">
<path d="M85.877 5.93849C65.1551 14.9551 43.3963 21.4506 21.1825 25.4009C18.2883 25.8704 15.394 26.3399 12.616 26.8046C10.8804 27.1096 8.78134 27.08 7.42369 28.0686C7.20064 28.3109 6.96795 28.3206 7.09875 28.6648C7.22474 28.8927 8.06326 29.4407 8.42677 29.7753C10.5741 30.9684 13.1627 31.5605 15.5282 32.3949C26.5222 36.1353 37.6229 39.6383 48.7235 43.1412C59.8194 46.5278 70.9297 50.2634 80.2018 57.4551C81.0452 58.1194 81.326 59.2733 81.0155 60.2186C79.9477 65.3909 74.4015 66.553 70.014 67.5506C64.1283 68.9598 58.2379 70.2527 52.3522 71.662C47.3878 72.8 42.0646 73.7197 37.633 76.4673C34.3408 78.585 32.0275 81.8276 30.8971 85.4875C29.6695 89.6175 29.8623 94.2715 31.8877 98.1503C32.6436 99.5176 32.3669 101.277 31.0044 102.15C29.7535 102.901 27.7611 102.633 27.0052 101.266C22.586 93.0577 23.7812 82.5188 29.9009 75.5055C33.3487 71.5166 38.1535 69.3363 43.1035 67.8492C48.8632 66.2121 54.8748 65.0307 60.6441 63.6263C63.9893 62.7885 67.3393 62.067 70.6846 61.2292C71.7221 60.9531 72.8759 60.6722 73.7923 60.2846C74.7086 59.897 75.1595 59.5287 75.247 58.8258C75.5182 59.7469 75.7895 60.6681 76.0607 61.5893C67.7531 55.1735 57.4765 51.8695 47.5586 48.7838C35.8714 45.1886 24.2957 41.4723 12.7103 37.5232C8.33794 36.0726 1.15869 34.3886 1.03411 28.5663C0.914342 22.8604 7.27502 21.6646 11.5607 21.0209C23.259 19.2543 34.812 16.7945 46.1034 13.6463C59.0093 10.0815 71.5275 5.60039 83.7793 0.314471C85.2678 -0.329919 86.9448 0.766119 87.4681 2.14304C88.3548 3.85455 87.3655 5.29411 85.877 5.93849Z" fill="#EB662C"/>
<path d="M50.9957 86.7529C47.5341 87.5956 44.2226 89.2479 41.643 91.6857C40.2949 92.907 39.1845 94.235 38.2 95.7909C37.2154 97.3468 36.5848 99.0046 35.7167 100.556C33.4227 104.264 29.1756 105.838 25.1185 103.559C21.1778 101.274 18.435 96.9591 15.6144 93.5795C12.0524 89.1816 8.37877 84.9049 4.81671 80.507C3.83292 79.2657 4.44909 77.2589 5.70002 76.5078C7.17401 75.5143 8.71548 76.1498 9.69928 77.3911C13.5037 82.012 17.3032 86.5166 20.9913 91.1424C22.5906 93.174 24.1947 95.322 26.017 97.1113C26.9863 98.0036 28.5712 99.6862 29.924 98.5812C31.2768 97.4762 31.8737 95.004 32.7467 93.5693C33.9494 91.6547 35.2685 89.7352 36.9511 88.1504C40.3115 84.8644 44.5201 82.3592 49.1355 81.2356C50.6336 80.8239 52.2962 81.5709 52.8242 83.0642C53.3523 84.5574 52.4938 86.3412 50.9957 86.7529Z" fill="#EB662C"/>
</svg>
