<svg width="41" height="45" viewBox="0 0 41 45" fill="none" xmlns="http://www.w3.org/2000/svg">
<path d="M10.2179 1.33701C7.74919 2.40536 5.73281 4.47911 4.5382 6.85815C3.99289 7.96196 3.58694 9.1089 3.43647 10.3349C3.28435 11.4841 3.43418 12.7267 3.66641 13.8676C3.7781 14.4113 3.94344 14.946 4.11596 15.4576C4.34544 16.114 4.57491 16.7705 4.86522 17.3948C5.437 18.5899 6.43461 19.5605 7.49693 20.322C8.62174 21.1284 9.88814 21.724 11.1672 22.1963C12.5857 22.7118 14.1098 23.1327 15.6129 23.2926C17.1697 23.4436 18.7862 23.155 20.0178 22.1364C21.0829 21.2444 21.6072 19.8796 21.2931 18.5097C21.0128 17.2776 20.1513 16.1964 19.1138 15.5189C17.9674 14.7823 16.602 14.5887 15.2698 14.8635C12.4676 15.4468 10.1664 17.8651 8.91985 20.3298C8.27056 21.6051 7.82478 23.0451 7.83302 24.4984C7.85896 26.0591 8.43572 27.4848 9.4383 28.686C10.5194 29.9624 11.9102 30.9783 13.2385 31.9495C14.6686 33.003 16.1434 33.9941 17.6775 34.8762C20.7152 36.6565 23.9464 38.1403 27.2783 39.299C28.1073 39.5811 28.9202 39.8327 29.7635 40.0683C30.514 40.2752 30.8735 39.1139 30.123 38.907C23.8087 37.1051 17.8755 34.0721 12.7127 30.0305C11.5862 29.1473 10.3812 28.1888 9.67726 26.9274C9.05349 25.818 8.91805 24.5289 9.14538 23.3012C9.39428 22.0038 9.95233 20.7767 10.6906 19.7072C11.3914 18.6769 12.2779 17.7042 13.3319 17.0124C14.3556 16.3367 15.538 15.8882 16.7856 15.969C17.8098 16.0315 18.7919 16.641 19.4627 17.434C20.087 18.2127 20.3928 19.1982 20.0588 20.1129C19.6296 21.2526 18.3969 21.8637 17.2471 22.0423C15.7756 22.2739 14.2122 21.8154 12.8042 21.4305C11.6589 21.1014 10.5264 20.649 9.45297 20.0876C8.41 19.5102 7.40298 18.8167 6.6216 17.8876C5.87948 16.9961 5.52392 15.8425 5.1468 14.7586C4.80175 13.7355 4.64805 12.6698 4.60163 11.5865C4.53365 10.5728 4.73001 9.69182 5.05522 8.7235C5.79358 6.585 7.2807 4.57649 9.18313 3.28194C9.69856 2.93245 10.2156 2.65983 10.7792 2.40159C11.0762 2.26445 11.1752 1.86241 11.0308 1.58866C10.8705 1.2845 10.5149 1.19987 10.2179 1.33701Z" fill="#EC672C"/>
<path d="M21.7826 30.1658C24.0029 32.2021 26.0423 34.4114 27.9385 36.7546C28.397 37.3292 28.8714 37.9343 29.2994 38.5249C29.4582 38.7522 29.6865 39.0011 29.7772 39.2836C29.843 39.4822 29.7822 39.5143 29.5836 39.5801C29.2939 39.694 28.9952 39.7542 28.6966 39.8145C28.3371 39.9069 27.9616 39.9688 27.5861 40.0307C26.8816 40.1689 26.1682 40.2535 25.4388 40.3077C23.8262 40.4193 22.187 40.3701 20.5982 40.1582C20.2819 40.1112 19.9738 40.4485 19.9804 40.756C19.9727 41.1099 20.2315 41.3428 20.5782 41.3737C22.1438 41.5784 23.7293 41.6365 25.3187 41.5177C26.125 41.4619 26.9385 41.3828 27.7199 41.2429C28.4477 41.1119 29.2219 40.9952 29.9088 40.7497C30.6797 40.4793 31.1813 39.8456 30.9789 39.0193C30.7782 38.27 30.1644 37.6218 29.7132 37.024C28.7161 35.7227 27.6582 34.4535 26.5555 33.2468C25.319 31.8968 24.0449 30.5861 22.6956 29.354C22.46 29.1283 22.0901 29.0901 21.8412 29.3185C21.5763 29.5165 21.5398 29.9633 21.7826 30.1658Z" fill="#EC672C"/>
</svg>
