<svg width="502" height="200" viewBox="0 0 502 200" fill="none" xmlns="http://www.w3.org/2000/svg">
<path fill-rule="evenodd" clip-rule="evenodd" d="M93.3941 102.786C98.1902 107.953 104.46 110.481 112.224 110.496C124.935 110.45 134.306 104.552 140.265 92.7483C146.352 80.925 149.32 64.6469 149.234 43.9038C149.221 34.3409 147.985 26.5318 145.537 20.5401C143.152 14.5384 138.818 9.81917 132.726 6.35246C126.707 2.93923 118.22 0.825083 107.328 0L102.943 13.5078C110.69 14.2417 116.505 15.5399 120.333 17.4756C124.268 19.2643 126.934 22.0985 128.385 25.9047C129.952 29.6274 130.752 35.0974 130.775 42.2513L130.775 44.7238C127.306 39.2831 122.446 36.5987 116.249 36.5969C110.117 36.5851 104.781 38.7254 100.169 42.9642C95.6203 47.1931 92.0664 52.7621 89.6345 59.6512C87.2562 66.4669 86.1238 73.7373 86.1101 81.4825C86.1801 90.581 88.5445 97.692 93.4042 102.849M124.514 85.5298C121.837 92.5225 118.216 96.0198 113.524 96.0419C108.44 96.0605 105.884 91.452 105.848 82.1531C105.781 73.9 106.914 66.6295 109.215 60.1513C111.59 53.7266 115.06 50.5132 119.625 50.5112C123.671 50.5257 126.91 53.2699 129.415 58.7972C128.761 69.506 127.17 78.4102 124.514 85.5298Z" fill="black"/>
<path fill-rule="evenodd" clip-rule="evenodd" d="M158.291 102.797C162.812 107.878 169.21 110.385 177.419 110.331C185.628 110.276 192.535 107.759 198.075 102.789C203.615 97.8185 207.621 91.3975 210.177 83.643C212.85 75.805 214.096 67.6057 214.116 59.0786C214.05 49.5892 211.793 42.3312 207.281 37.3145C202.75 32.1709 196.406 29.5896 188.324 29.624C180.179 29.6685 173.336 32.1759 167.668 37.1662C162.118 42.0731 158.039 48.4405 155.365 56.2785C152.746 64.043 151.436 72.2523 151.426 80.8429C151.439 90.4058 153.77 97.7173 158.291 102.797ZM187.789 89.3102C185.391 93.5263 182.333 95.6338 178.488 95.6528C173.531 95.6513 170.992 91.5608 170.999 83.3612C170.973 77.8346 171.499 72.091 172.514 66.1404C173.519 60.1262 175.247 54.9744 177.646 50.7583C180.108 46.5322 183.293 44.4047 187.074 44.3957C192.159 44.3771 194.687 48.4042 194.714 56.4033C194.74 61.9299 194.161 67.747 193.092 73.7712C192.087 79.7853 190.295 84.9472 187.853 89.3002" fill="black"/>
<path fill-rule="evenodd" clip-rule="evenodd" d="M273.357 43.1273C269.826 38.542 265.228 36.2719 259.551 36.2536C251.341 36.3081 244.462 40.6432 238.932 49.3859C240.794 40.9595 243.273 34.7788 246.304 30.8535C249.463 26.9083 253.713 24.0928 259.046 22.3435C263.825 20.8112 267.757 19.2819 270.926 17.8728C274.074 16.3367 277.099 14.4296 280.083 12.2687L274.309 0.0978457C271.06 2.23537 267.996 3.88846 265.125 5.12059C262.329 6.40621 258.376 7.80844 253.225 9.46427C240.353 13.4401 231.236 21.7708 225.927 34.3829C220.607 46.9314 217.991 61.7228 218.077 78.7569C218.104 89.2287 220.378 97.0047 224.802 102.295C229.333 107.439 235.54 109.977 243.494 109.962C251.121 109.934 257.676 107.668 262.958 103.128C268.303 98.5788 272.263 92.6858 274.835 85.4492C277.461 78.1391 278.778 70.3842 278.785 62.1845C278.728 53.9949 276.93 47.5757 273.42 43.1173M255.469 84.6551C253.205 91.7782 249.457 95.2955 244.309 95.3241C241.894 95.3134 240.028 94.2403 238.702 92.0413C237.429 89.7689 236.813 86.287 236.81 81.7327C236.824 77.6964 237.135 72.2468 237.916 65.2268C240.17 60.5129 242.616 57.0052 245.188 54.7137C247.74 52.2953 250.356 51.1032 252.898 51.0939C254.921 51.1012 256.418 51.9069 257.326 53.521C258.351 55.0516 258.89 57.6346 258.943 61.27C258.987 69.7871 257.807 77.5855 255.469 84.6551Z" fill="black"/>
<path fill-rule="evenodd" clip-rule="evenodd" d="M307.712 31.4792L290.764 31.5412L278.445 116.505C285.583 115.447 292.573 119.228 295.62 125.712L296.307 127.165L299.342 108.014C302.859 109.217 306.413 109.83 310.003 109.851C318.149 109.807 324.854 107.256 330.183 102.188C335.556 96.9841 339.448 90.2558 341.87 82.0668C344.335 73.7409 345.515 64.7063 345.472 54.9529C345.479 46.7532 343.754 40.3875 340.371 35.9091C336.989 31.4308 332.39 29.1607 326.596 29.2259C319.097 29.2337 312.733 32.7069 307.41 39.4649L307.658 31.5527L307.712 31.4792ZM318.444 89.0034C315.855 93.2495 312.596 95.3236 308.687 95.3525C306.41 95.3853 303.988 94.9201 301.486 93.9471L307.025 52.2788C308.964 49.6965 310.92 47.6322 313.02 46.0657C315.194 44.5527 317.287 43.768 319.173 43.7318C321.387 43.7091 323.031 44.6217 324.234 46.4498C325.352 48.1609 325.952 51.1248 325.968 55.3516C326.025 61.0686 325.412 67.0862 324.182 73.3308C322.933 79.4485 321.024 84.6938 318.381 89.0134" fill="black"/>
<path fill-rule="evenodd" clip-rule="evenodd" d="M354.949 102.068C359.47 107.149 365.867 109.656 374.076 109.602C382.286 109.548 389.192 107.03 394.732 102.06C400.272 97.0895 404.278 90.6686 406.834 82.9141C409.507 75.076 410.754 66.8768 410.774 58.3497C410.707 48.8602 408.45 41.6022 403.939 36.5856C399.407 31.442 393.064 28.8606 384.982 28.8951C376.836 28.9395 369.993 31.4469 364.326 36.4372C358.776 41.3441 354.696 47.7115 352.023 55.5495C349.404 63.3141 348.094 71.5233 348.083 80.1139C348.096 89.6768 350.427 96.9884 354.949 102.068ZM384.447 88.5813C382.049 92.7973 378.991 94.9048 375.145 94.9238C370.188 94.9224 367.65 90.8319 367.657 82.6322C367.63 77.1056 368.156 71.362 369.171 65.4114C370.176 59.3973 371.905 54.2454 374.303 50.0293C376.765 45.8032 379.951 43.6757 383.732 43.6668C388.816 43.6482 391.345 47.6752 391.371 55.6744C391.398 61.201 390.818 67.0181 389.75 73.0422C388.745 79.0563 386.952 84.2182 384.511 88.5712" fill="black"/>
<path fill-rule="evenodd" clip-rule="evenodd" d="M469.34 62.8706C469.317 64.3708 469.062 65.6471 468.523 66.773C467.974 67.8354 467.267 68.7273 466.309 69.2684C465.351 69.8094 464.299 70.17 463.124 70.1596C461.884 70.1592 460.859 69.8649 459.922 69.2966C458.984 68.7283 458.26 67.8661 457.698 66.7833C457.135 65.7005 456.871 64.4408 456.894 62.9405C456.918 61.4403 457.172 60.1639 457.648 59.0481C458.124 57.9322 458.914 57.1572 459.862 56.5527C460.81 55.9482 461.872 55.6511 463.111 55.6515C464.286 55.6619 465.375 55.9462 466.313 56.5145C467.251 57.0828 467.974 57.945 468.537 59.0278C469.099 60.1106 469.364 61.3703 469.34 62.8706ZM467.709 62.8668C467.709 61.6305 467.485 60.6247 467.09 59.7758C466.694 58.927 466.139 58.2987 465.422 57.8909C464.705 57.483 463.955 57.2756 463.107 57.2787C462.26 57.2818 461.453 57.5389 460.803 57.9664C460.09 58.4039 459.597 59.0019 459.145 59.8538C458.756 60.6957 458.525 61.708 458.525 62.9443C458.525 64.1806 458.75 65.1864 459.145 66.0352C459.54 66.8841 460.096 67.5124 460.813 67.9202C461.529 68.3281 462.28 68.5355 463.127 68.5324C463.974 68.5293 464.782 68.2722 465.431 67.8447C466.145 67.4072 466.701 66.7992 467.089 65.9573C467.478 65.1154 467.709 64.1031 467.709 62.8668Z" fill="black"/>
<path d="M437.508 60.7831L437.408 63.8572L438.711 63.8475L438.62 60.8035L441.159 62.4215L441.826 61.2756L439.126 59.8781L441.839 58.4755L441.129 57.2858L438.584 58.9223L438.694 55.9118L437.391 55.9215L437.482 58.9655L434.943 57.3475L434.276 58.4934L436.976 59.8909L434.263 61.2934L434.899 62.4297L437.508 60.7831Z" fill="black"/>
<path fill-rule="evenodd" clip-rule="evenodd" d="M444.562 55.9001L444.642 70.0073L449.917 69.9587C450.892 69.9356 451.783 69.7955 452.443 69.4315C453.166 69.0575 453.678 68.5865 454.034 67.945C454.389 67.3036 454.543 66.6287 454.603 65.7733C454.6 64.928 454.362 64.2496 454.071 63.6447C453.716 63.0499 453.19 62.612 452.483 62.2677C451.776 61.9233 450.972 61.7894 449.924 61.759L446.344 61.8015L446.297 57.3842L453.14 57.3494L453.163 55.8491L444.626 55.8901L444.562 55.9001ZM449.951 68.5219L446.37 68.5643L446.33 63.3652L449.911 63.3228C450.885 63.2997 451.646 63.5705 452.118 64.0819C452.654 64.5833 452.871 65.1346 452.918 65.843C452.925 66.2974 452.804 66.7719 452.536 67.1393C452.342 67.5603 452.001 67.8743 451.522 68.1448C451.106 68.4053 450.544 68.5588 449.887 68.5319" fill="black"/>
<path d="M476.891 55.7623L476.931 57.2525L481.369 57.2705L481.409 69.8874L483.103 69.8812L483.064 57.2643L487.492 57.2188L487.515 55.7185L476.891 55.7623Z" fill="black"/>
<path d="M490.121 55.6992L491.815 55.693L491.878 66.8097L492.006 66.7897L499.706 55.6886L501.338 55.6924L501.417 69.7996L499.723 69.8057L499.659 58.6891L499.532 58.7091L491.831 69.8102L490.2 69.8064L490.121 55.6992Z" fill="black"/>
<path d="M451.736 75.2686L450.041 75.2748L450.057 89.392L451.752 89.3858L459.389 78.2947L459.516 78.2747L459.569 89.3279L461.264 89.3217L461.248 75.2045L459.553 75.2107L451.863 86.3753L451.735 86.3953L451.736 75.2686Z" fill="black"/>
<path d="M458.481 71.7354L456.977 71.7115C457.028 72.029 456.887 72.3764 456.672 72.6704C456.458 72.9644 456.15 73.0779 455.631 73.0945C455.112 73.111 454.827 72.9606 454.586 72.6732C454.408 72.3757 454.295 72.0683 454.308 71.7409L452.804 71.717C452.787 72.4354 453.015 73.0503 453.615 73.5416C454.15 74.043 454.837 74.2604 455.684 74.2573C456.595 74.2442 457.275 74.0071 457.788 73.5362C458.3 73.0652 458.528 72.4437 458.545 71.7254" fill="black"/>
<path fill-rule="evenodd" clip-rule="evenodd" d="M476.641 82.219C476.618 83.7193 476.363 84.9956 475.824 86.1215C475.274 87.1838 474.568 88.0758 473.61 88.6168C472.652 89.1578 471.6 89.5184 470.424 89.508C469.249 89.4977 468.16 89.2133 467.223 88.6451C466.285 88.0768 465.561 87.2145 464.999 86.1317C464.436 85.049 464.172 83.7892 464.195 82.289C464.219 80.7887 464.473 79.5124 464.949 78.3965C465.424 77.2806 466.215 76.5057 467.163 75.9012C468.111 75.2967 469.172 74.9996 470.412 74.9999C471.587 75.0103 472.676 75.2946 473.614 75.8629C474.551 76.4312 475.275 77.2935 475.838 78.3762C476.4 79.459 476.665 80.7188 476.641 82.219ZM475.01 82.2152C475.01 80.9789 474.786 79.9731 474.391 79.1243C473.995 78.2755 473.439 77.6471 472.723 77.2393C472.006 76.8314 471.256 76.6241 470.408 76.6272C469.561 76.6303 468.754 76.8873 468.104 77.3148C467.39 77.7523 466.834 78.3603 466.446 79.2022C466.057 80.0441 465.826 81.0565 465.826 82.2928C465.826 83.5291 466.05 84.5349 466.446 85.3837C466.841 86.2325 467.397 86.8608 468.114 87.2687C468.83 87.6765 469.581 87.8839 470.428 87.8808C471.275 87.8777 472.082 87.6207 472.732 87.1931C473.446 86.7556 474.002 86.1477 474.39 85.3058C474.779 84.4639 475.01 83.4515 475.01 82.2152Z" fill="black"/>
<path d="M488.023 76.6555L487.973 75.1018L479.435 75.1428L479.515 89.25L481.21 89.2438L481.18 76.6903L488.023 76.6555Z" fill="black"/>
<path fill-rule="evenodd" clip-rule="evenodd" d="M502 82.136C501.977 83.6362 501.722 84.9126 501.183 86.0384C500.633 87.1008 499.927 87.9928 498.969 88.5338C498.021 89.1383 496.959 89.4354 495.783 89.425C494.544 89.4247 493.519 89.1303 492.581 88.562C491.644 87.9937 490.92 87.1315 490.358 86.0487C489.795 84.966 489.53 83.7062 489.554 82.2059C489.577 80.7057 489.832 79.4294 490.308 78.3135C490.857 77.2511 491.574 76.4227 492.522 75.8181C493.47 75.2136 494.531 74.9166 495.707 74.9269C496.883 74.9373 497.971 75.2216 498.909 75.7899C499.847 76.3582 500.57 77.2205 501.133 78.3032C501.695 79.386 501.96 80.6457 501.936 82.146M500.305 82.1422C500.305 80.9059 500.081 79.9001 499.686 79.0513C499.291 78.2024 498.735 77.5741 498.018 77.1663C497.301 76.7584 496.551 76.5511 495.703 76.5542C494.856 76.5573 494.049 76.8143 493.389 77.1783C492.676 77.6158 492.13 78.2873 491.741 79.1292C491.353 79.9711 491.121 80.9835 491.121 82.2197C491.121 83.456 491.346 84.4619 491.741 85.3107C492.136 86.1595 492.692 86.7878 493.409 87.1957C494.125 87.6035 494.886 87.8744 495.723 87.8078C496.57 87.8047 497.378 87.5476 498.027 87.1201C498.741 86.6826 499.297 86.0747 499.685 85.2327C500.074 84.3908 500.305 83.3785 500.305 82.1422Z" fill="black"/>
<path d="M434.664 94.7403L434.743 108.847L436.438 108.841L436.418 102.533L443.981 102.515L444.001 108.823L445.696 108.817L445.616 94.71L443.921 94.7162L443.931 100.961L436.378 101.043L436.358 94.7341L434.664 94.7403Z" fill="black"/>
<path d="M449.085 108.805L449.069 94.6877L457.606 94.6467L457.583 96.1469L450.804 96.1717L450.783 100.99L457.171 100.962L457.211 102.452L450.823 102.48L450.803 107.298L457.773 107.244L457.75 108.744L449.085 108.805Z" fill="black"/>
<path d="M470.364 99.0175L472.058 99.0113C471.948 98.3129 471.71 97.6345 471.365 97.1032C471.01 96.5083 470.612 96.0504 470.096 95.676C469.58 95.3017 469.011 95.0008 468.388 94.7734C467.765 94.546 467.098 94.4556 466.378 94.4387C465.202 94.4283 464.087 94.7989 463.193 95.3299C462.245 95.9344 461.528 96.7629 460.979 97.8253C460.43 98.8876 460.185 100.227 460.151 101.664C460.128 103.164 460.456 104.414 460.955 105.507C461.518 106.59 462.231 107.389 463.179 108.02C464.117 108.589 465.205 108.873 466.381 108.883C467.101 108.9 467.737 108.8 468.417 108.563C469.034 108.336 469.64 108.046 470.099 107.648C470.621 107.241 471.006 106.79 471.372 106.212C471.737 105.634 471.964 105.012 472.045 104.284L470.35 104.29C470.229 104.765 470.099 105.175 469.841 105.606C469.573 105.974 469.295 106.278 468.943 106.528C468.592 106.779 468.166 106.976 467.731 107.109C467.285 107.179 466.84 107.25 466.394 107.32C465.547 107.323 464.797 107.115 464.08 106.707C463.363 106.3 462.871 105.661 462.412 104.822C462.017 103.974 461.793 102.968 461.793 101.732C461.793 100.495 461.96 99.4929 462.412 98.641C462.801 97.7991 463.347 97.1276 464.06 96.6901C464.774 96.2526 465.517 96.0055 466.365 96.0024C466.82 95.9959 467.286 96.0528 467.698 96.1832C468.11 96.3137 468.532 96.5076 468.9 96.775C469.269 97.0424 469.573 97.3198 469.835 97.7342C470.086 98.0852 470.283 98.5096 470.364 99.0175Z" fill="black"/>
<path d="M474.899 108.715L474.819 94.6081L483.356 94.5671L483.333 96.0673L476.554 96.0921L476.523 100.847L482.911 100.819L482.961 102.372L476.574 102.401L476.543 107.155L483.523 107.164L483.5 108.664L474.899 108.715Z" fill="black"/>
<path d="M488.112 94.5351L486.418 94.5413L486.497 108.648L501.559 108.623L501.48 94.5155L499.785 94.5217L499.868 107.002L494.857 107.074L494.828 94.5203L493.133 94.5265L493.163 107.08L488.206 107.078L488.112 94.5351Z" fill="black"/>
<path fill-rule="evenodd" clip-rule="evenodd" d="M288.863 183.578L289.09 181.721L288.853 183.515L288.863 183.578ZM115.086 160.734C122.689 156.025 126.544 148.652 126.471 138.708C126.424 133.054 124.388 128.429 120.225 124.789C116.179 121.066 110.666 119.2 103.696 119.255C95.2859 119.276 88.1684 121.696 82.5011 126.686C76.8137 131.55 72.553 138.011 69.7728 145.996C67.036 153.844 65.6926 162.254 65.7525 171.289C65.8091 180.714 68.1098 187.836 72.7384 192.769C74.8484 194.975 77.3336 196.666 80.1939 197.843C83.2451 198.99 86.3332 199.545 89.4548 199.901C90.3758 199.951 91.2333 200.011 92.1443 199.998C101.338 199.984 109.936 196.615 117.958 190.018L110.972 178.429C107.817 180.747 105.017 182.423 102.508 183.468C100.126 184.493 97.611 185.084 94.8679 185.06C91.6057 185.052 89.0937 184.016 87.3956 181.94C85.7612 179.855 84.9642 176.466 84.9611 171.912L84.9678 169.894C97.384 168.397 107.409 165.39 115.086 160.734ZM91.7816 139.998C94.3642 135.297 97.7103 132.949 101.81 132.89C105.719 132.861 107.701 135.087 107.748 139.504C107.798 149.712 100.596 155.725 86.1239 157.414C87.3701 150.451 89.2527 144.625 91.7816 139.998ZM224.918 160.318C232.585 155.599 236.376 148.235 236.303 138.291C236.256 132.638 234.22 128.013 230.057 124.373C226.011 120.65 220.498 118.784 213.528 118.838C205.118 118.859 198 121.28 192.333 126.27C186.582 131.143 182.385 137.594 179.605 145.579C176.868 153.427 175.525 161.837 175.585 170.872C175.641 180.298 177.942 187.419 182.57 192.352C187.253 197.212 193.767 199.636 201.976 199.582C206.478 199.59 210.849 198.772 215.026 197.14C217.799 196.118 220.375 194.672 222.542 192.705C224.079 191.292 225.449 189.645 226.474 187.466L220.794 177.949C217.639 180.267 214.839 181.943 212.33 182.988C209.948 184.013 207.433 184.604 204.69 184.58C201.428 184.572 198.916 183.536 197.218 181.46C195.583 179.375 194.786 175.987 194.783 171.432L194.79 169.414C207.206 167.917 217.231 164.91 224.844 160.264M201.54 139.528C204.123 134.827 207.469 132.479 211.578 132.484C215.551 132.445 217.47 134.681 217.516 139.098C217.566 149.306 210.365 155.318 195.956 156.998C197.202 150.035 199.085 144.208 201.614 139.581" fill="black"/>
<path fill-rule="evenodd" clip-rule="evenodd" d="M328.018 135.909C328.005 137.472 327.884 139.183 327.603 141.114L324.963 159.878L319.857 196.859L300.823 196.924L307.677 143.792C307.832 141.88 307.905 140.698 307.962 140.233C307.915 137.052 306.954 135.512 304.931 135.504C303.173 135.521 301.371 136.91 299.462 139.683C297.67 142.372 295.569 146.411 293.215 151.727L287.137 196.993L267.52 197.085L272.951 158.036L274.83 143.946C275.015 142.225 275.098 141.106 275.135 140.514C275.142 137.26 274.097 135.602 272.084 135.659C270.262 135.685 268.396 137.084 266.487 139.857C264.642 142.62 262.572 146.849 260.183 152.365L258.96 161.537L259.024 161.527L254.755 197.205L235.065 197.242L239.789 161.558L245.263 121.136L261.883 121.061L261.313 133.123C264.096 128.456 266.997 124.942 270.058 122.443C273.183 119.935 276.764 118.656 280.683 118.69C284.4 118.692 287.452 119.838 289.856 122.258C292.325 124.668 293.969 128.053 294.662 132.434C297.402 127.904 300.323 124.517 303.351 122.219C306.359 119.794 309.822 118.599 313.54 118.6C317.84 118.574 321.29 120.179 323.869 123.287C326.585 126.439 327.915 130.719 327.975 136.046" fill="black"/>
<path d="M35.0075 197.92L39.3763 166.586L23.4032 166.625L19.2253 197.929L0 198.024L10.3258 121.898L29.5511 121.803L25.5005 151.851L41.2726 151.778L45.3332 121.794L64.5585 121.699L54.2328 197.826L35.0075 197.92Z" fill="black"/>
<path d="M162.558 119.044C166.922 119.009 170.824 119.762 174.2 121.313C177.576 122.864 180.607 125.121 183.303 128.145L173.901 138.798C171.945 137.154 170.207 136.061 168.602 135.402C166.978 134.616 165.223 134.241 163.274 134.288C157.215 134.329 152.84 138.01 149.96 145.36C147.216 152.754 145.863 161.1 145.889 170.336C145.899 175.344 146.716 178.86 148.243 181.092C149.75 183.198 151.998 184.211 154.868 184.215C156.891 184.222 158.717 183.805 160.492 183.07C162.193 182.282 164.354 181.097 166.963 179.45L173.906 191.177C167.046 196.875 159.734 199.717 151.97 199.701C143.825 199.746 137.471 197.101 132.866 191.904C128.251 186.643 125.92 179.332 125.873 169.969C125.834 161.061 127.261 152.768 130.071 144.974C132.892 137.243 137.119 130.982 142.635 126.276C148.269 121.486 154.931 119.072 162.685 119.024" fill="black"/>
<path fill-rule="evenodd" clip-rule="evenodd" d="M358.809 144.601C367.611 144.584 374.246 146.534 378.797 150.568C383.413 154.592 385.747 160.277 385.757 167.758C385.753 173.094 384.725 178.136 382.534 182.84C380.471 187.524 376.974 191.392 372.097 194.371C367.347 197.33 361.138 198.892 353.575 198.91C345.556 198.935 337.572 197.522 329.727 194.526L339.768 120.722L358.994 120.627L355.811 144.617L358.809 144.601ZM354.938 185.682C358.847 185.653 361.775 183.957 363.657 180.602C365.583 177.111 366.477 172.871 366.501 167.662C366.488 164.281 365.842 161.845 364.468 160.174C363.085 158.439 360.932 157.607 357.998 157.612L353.952 157.598L350.179 184.869C351.626 185.357 353.224 185.561 354.918 185.555" fill="black"/>
<path d="M425.111 118.04C429.475 118.005 433.377 118.757 436.753 120.309C440.129 121.86 443.16 124.116 445.856 127.141L436.454 137.794C434.498 136.149 432.76 135.056 431.145 134.334C429.521 133.548 427.766 133.174 425.817 133.22C419.758 133.262 415.383 136.943 412.503 144.293C409.759 151.686 408.406 160.033 408.432 169.268C408.442 174.277 409.259 177.792 410.786 180.025C412.293 182.13 414.541 183.143 417.411 183.147C419.434 183.154 421.26 182.737 423.035 182.003C424.736 181.215 426.897 180.029 429.506 178.383L436.449 190.109C429.589 195.808 422.277 198.649 414.513 198.633C406.368 198.678 400.014 196.033 395.409 190.836C390.794 185.575 388.463 178.264 388.416 168.901C388.376 159.993 389.804 151.701 392.614 143.906C395.435 136.175 399.662 129.915 405.178 125.208C410.812 120.418 417.474 118.004 425.228 117.957" fill="black"/>
<path fill-rule="evenodd" clip-rule="evenodd" d="M477.002 117.885C484.502 117.877 492.744 118.858 501.878 120.936L491.549 196.216L472.323 196.311L476.076 168.913L468.577 168.921L453.745 196.369L433.079 196.43L452.306 164.192C449.834 162.173 447.885 159.747 446.565 156.766C445.236 153.721 444.566 150.313 444.492 146.551C444.422 138.688 447.012 131.97 452.133 126.415C457.298 120.722 465.531 117.931 476.929 117.831M475.977 131.189C472.068 131.218 469.101 132.661 467.074 135.517C465.165 138.29 464.254 142.012 464.257 146.566C464.28 150.011 464.947 152.574 466.31 154.182C467.673 155.789 469.763 156.632 472.623 156.573L477.644 156.564L480.994 131.572C479.577 131.274 477.863 131.153 475.967 131.126" fill="black"/>
</svg>
