<svg width="41" height="40" viewBox="0 0 41 40" fill="none" xmlns="http://www.w3.org/2000/svg">
<path fill-rule="evenodd" clip-rule="evenodd" d="M40.8902 3.68295C40.6225 2.4595 39.8927 1.41453 38.8365 0.739109C38.0813 0.256244 37.2054 0 36.3057 0C34.6985 0 33.2218 0.805762 32.3533 2.15512L16.011 27.5788L8.3314 18.1667C7.43537 17.0699 6.10848 16.4404 4.6914 16.4404C3.61796 16.4404 2.56613 16.8129 1.73198 17.4883C-0.278479 19.1205 -0.582621 22.074 1.05065 24.0773L12.5357 38.153C13.4921 39.3261 14.9122 40 16.4314 40H16.5611L16.7765 39.9881C18.3174 39.9008 19.7911 39.0424 20.6581 37.6953L40.2558 7.2089C40.9326 6.15726 41.1578 4.90419 40.8902 3.68295Z" fill="#00FF00"/>
</svg>
