<svg width="16" height="16" viewBox="0 0 16 16" fill="none" xmlns="http://www.w3.org/2000/svg">
<path d="M13.4667 6.66663L13.1167 6.66607C13.1166 6.73496 13.0942 6.80196 13.053 6.85714L13.0528 6.857L13.0456 6.86743L7.05666 15.518C6.9896 15.6061 6.89436 15.65 6.80005 15.65C6.61936 15.65 6.48342 15.514 6.48342 15.3334L6.48351 15.3236L6.4838 15.3068L6.48416 15.2944L7.11076 9.37019L7.15168 8.98337H6.7627H3.46667C3.28624 8.98337 3.15024 8.84759 3.15005 8.667C3.15027 8.59819 3.17262 8.53127 3.2138 8.47614L3.2194 8.46864L3.22459 8.46085L8.54179 0.484421C8.61278 0.39207 8.70789 0.35 8.80005 0.35C8.98074 0.35 9.11667 0.485975 9.11667 0.666625L9.11657 0.678283L9.11621 0.697446L9.11581 0.709319L8.49385 5.95882L8.44751 6.35H8.84142H12.8C12.9807 6.35 13.1167 6.48598 13.1167 6.66663H13.4667ZM13.4667 6.66663C13.4667 6.29272 13.1741 6 12.8 6H9.19387L6.13536 15.2646C6.13402 15.2766 6.13342 15.3213 6.13342 15.3334C6.13342 15.7073 6.42602 16 6.80005 16C7.00867 16 7.20874 15.9006 7.34067 15.7227L13.3334 7.06666C13.4197 6.95114 13.4664 6.81084 13.4667 6.66663Z" fill="#FFC107" stroke="black" stroke-width="0.7"/>
</svg>
