<svg width="683" height="180" viewBox="0 0 683 180" fill="none" xmlns="http://www.w3.org/2000/svg">
<rect width="318" height="180" rx="38.1814" fill="#FF671F"/>
<path d="M70.2892 41.4784C70.2892 43.9865 69.7922 46.155 68.7983 47.9838C67.8566 49.7604 66.5488 51.1973 64.8748 52.2946C66.8627 53.3396 68.4059 54.8288 69.5045 56.7622C70.6554 58.6955 71.2308 61.0207 71.2308 63.7378V66.4027C71.2308 68.7018 70.8385 70.818 70.0538 72.7514C69.2691 74.6324 68.1967 76.2523 66.8365 77.6108C65.4764 78.9694 63.8285 80.0405 61.8929 80.8243C59.9574 81.6081 57.8649 82 55.6154 82C53.3136 82 51.195 81.6081 49.2594 80.8243C47.3761 80.0405 45.7544 78.9694 44.3943 77.6108C43.0341 76.2523 41.9617 74.6324 41.177 72.7514C40.3923 70.818 40 68.7018 40 66.4027V60.9946H51.2996V66.4027C51.2996 67.7613 51.6919 68.8847 52.4766 69.773C53.2613 70.609 54.3076 71.027 55.6154 71.027C56.9232 71.027 57.9695 70.609 58.7542 69.773C59.5389 68.8847 59.9312 67.7613 59.9312 66.4027V61.7C59.9312 58.9829 58.6757 57.6243 56.1647 57.6243H51.8489V47.5919H55.2231C57.7341 47.5919 58.9896 46.2333 58.9896 43.5162V39.3622C58.9896 38.1604 58.6757 37.1414 58.048 36.3054C57.4202 35.4171 56.4786 34.973 55.2231 34.973C53.9675 34.973 53.0259 35.4171 52.3982 36.3054C51.7704 37.1414 51.4565 38.1604 51.4565 39.3622V45.3189H40.1569V39.3622C40.1569 37.2198 40.5231 35.2081 41.2555 33.327C41.9879 31.4459 43.008 29.8261 44.3158 28.4676C45.676 27.0568 47.2715 25.9595 49.1024 25.1757C50.9857 24.3919 53.0259 24 55.2231 24C57.4202 24 59.4342 24.3919 61.2652 25.1757C63.0961 25.9595 64.6655 27.0568 65.9734 28.4676C67.3335 29.8261 68.3797 31.4459 69.1121 33.327C69.8968 35.2081 70.2892 37.2198 70.2892 39.3622V41.4784Z" fill="white"/>
<path d="M96.6684 58.0162H88.8214V80.4324H77.5218V25.5676H88.8214V47.0432H96.6684V25.5676H107.968V80.4324H96.6684V58.0162Z" fill="white"/>
<path d="M136.075 25.5676H149.414V80.4324H137.958L138.743 47.9838L139.292 43.5946H138.586L138.429 45.9459L129.483 80.4324H116.143V25.5676H127.6L126.815 58.0162L126.266 62.4054H126.972L127.129 60.0541L136.075 25.5676Z" fill="white"/>
<path d="M162.544 51.0405L154.854 25.5676H166.154L173.294 52.6081V25.5676H184.594V52.6081L191.735 25.5676H203.034L195.266 51.0405L203.583 80.4324H191.97L184.594 52.6081V80.4324H173.294V52.6081L165.918 80.4324H154.305L162.544 51.0405Z" fill="white"/>
<path d="M230.454 51.0405L239.557 80.4324H227.943L219.782 52.6081V80.4324H208.483V25.5676H219.782V52.6081L227.708 25.5676H239.007L230.454 51.0405Z" fill="white"/>
<path d="M264.66 25.5676H278V80.4324H266.543L267.328 47.9838L267.877 43.5946H267.171L267.014 45.9459L258.069 80.4324H244.729V25.5676H256.186L255.401 58.0162L254.852 62.4054H255.558L255.715 60.0541L264.66 25.5676Z" fill="white"/>
<path d="M84 135.179V120.251H106.707V135.179H84Z" fill="white"/>
<path d="M118.718 127.953V99.1918H144.753V110.315H129.005V115.877C130.429 115.294 131.854 115.003 133.278 115.003C137.604 115.003 140.954 116.512 143.328 119.532C145.702 122.551 146.889 126.603 146.889 131.688V139.315C146.889 141.858 146.494 144.162 145.702 146.227C144.964 148.293 143.909 150.041 142.537 151.471C141.218 152.901 139.635 154.014 137.789 154.808C135.995 155.603 134.017 156 131.854 156C129.691 156 127.686 155.603 125.84 154.808C124.046 154.014 122.463 152.901 121.092 151.471C119.773 150.041 118.718 148.293 117.926 146.227C117.188 144.162 116.818 141.858 116.818 139.315V135.263H128.214V139.315C128.214 140.904 128.504 142.228 129.084 143.288C129.717 144.347 130.64 144.877 131.854 144.877C133.067 144.877 133.964 144.347 134.544 143.288C135.177 142.228 135.494 140.904 135.494 139.315V131.688C135.494 130.099 135.177 128.774 134.544 127.715C133.964 126.656 133.067 126.126 131.854 126.126C130.64 126.126 129.691 126.735 129.005 127.953H118.718Z" fill="white"/>
<path d="M183.792 139.315C183.792 141.858 183.396 144.162 182.605 146.227C181.867 148.293 180.811 150.041 179.44 151.471C178.121 152.901 176.538 154.014 174.692 154.808C172.898 155.603 170.92 156 168.757 156C166.594 156 164.589 155.603 162.743 154.808C160.949 154.014 159.366 152.901 157.995 151.471C156.676 150.041 155.621 148.293 154.829 146.227C154.091 144.162 153.721 141.858 153.721 139.315V114.685C153.721 112.142 154.091 109.838 154.829 107.773C155.621 105.707 156.676 103.959 157.995 102.529C159.366 101.099 160.949 99.9863 162.743 99.1918C164.589 98.3973 166.594 98 168.757 98C170.92 98 172.898 98.3973 174.692 99.1918C176.538 99.9863 178.121 101.099 179.44 102.529C180.811 103.959 181.867 105.707 182.605 107.773C183.396 109.838 183.792 112.142 183.792 114.685V139.315ZM165.117 139.315C165.117 140.904 165.407 142.228 165.987 143.288C166.62 144.347 167.543 144.877 168.757 144.877C169.97 144.877 170.867 144.347 171.447 143.288C172.08 142.228 172.397 140.904 172.397 139.315V114.685C172.397 113.096 172.08 111.772 171.447 110.712C170.867 109.653 169.97 109.123 168.757 109.123C167.543 109.123 166.62 109.653 165.987 110.712C165.407 111.772 165.117 113.096 165.117 114.685V139.315Z" fill="white"/>
<path d="M224.267 99.1918H233.446L199.577 154.808H190.397L224.267 99.1918ZM212.159 110.792C212.159 112.328 211.843 113.758 211.209 115.082C210.629 116.406 209.811 117.572 208.756 118.578C207.754 119.584 206.567 120.379 205.195 120.962C203.876 121.491 202.452 121.756 200.922 121.756C199.392 121.756 197.941 121.491 196.57 120.962C195.251 120.379 194.064 119.584 193.009 118.578C192.006 117.572 191.215 116.406 190.635 115.082C190.054 113.758 189.764 112.328 189.764 110.792V109.521C189.764 107.984 190.054 106.554 190.635 105.23C191.215 103.853 192.006 102.661 193.009 101.655C194.064 100.648 195.251 99.8539 196.57 99.2712C197.941 98.6886 199.392 98.3973 200.922 98.3973C202.452 98.3973 203.876 98.6886 205.195 99.2712C206.567 99.8539 207.754 100.648 208.756 101.655C209.811 102.661 210.629 103.853 211.209 105.23C211.843 106.554 212.159 107.984 212.159 109.521V110.792ZM205.195 109.521C205.195 108.461 204.773 107.534 203.929 106.74C203.085 105.892 202.083 105.468 200.922 105.468C199.814 105.468 198.838 105.892 197.994 106.74C197.203 107.534 196.807 108.461 196.807 109.521V110.633C196.807 111.745 197.203 112.725 197.994 113.573C198.838 114.367 199.814 114.764 200.922 114.764C202.083 114.764 203.085 114.367 203.929 113.573C204.773 112.725 205.195 111.745 205.195 110.633V109.521ZM234 144.638C234 146.174 233.683 147.605 233.05 148.929C232.47 150.253 231.652 151.418 230.597 152.425C229.595 153.431 228.408 154.226 227.036 154.808C225.717 155.338 224.293 155.603 222.763 155.603C221.233 155.603 219.782 155.338 218.411 154.808C217.092 154.226 215.905 153.431 214.85 152.425C213.847 151.418 213.056 150.253 212.476 148.929C211.895 147.605 211.605 146.174 211.605 144.638V143.367C211.605 141.831 211.895 140.401 212.476 139.077C213.056 137.7 213.847 136.508 214.85 135.501C215.905 134.495 217.092 133.7 218.411 133.118C219.782 132.535 221.233 132.244 222.763 132.244C224.293 132.244 225.717 132.535 227.036 133.118C228.408 133.7 229.595 134.495 230.597 135.501C231.652 136.508 232.47 137.7 233.05 139.077C233.683 140.401 234 141.831 234 143.367V144.638ZM227.036 143.367C227.036 142.308 226.614 141.381 225.77 140.586C224.926 139.739 223.924 139.315 222.763 139.315C221.655 139.315 220.679 139.739 219.835 140.586C219.044 141.381 218.648 142.308 218.648 143.367V144.479C218.648 145.592 219.044 146.572 219.835 147.419C220.679 148.214 221.655 148.611 222.763 148.611C223.924 148.611 224.926 148.214 225.77 147.419C226.614 146.572 227.036 145.592 227.036 144.479V143.367Z" fill="white"/>
<path d="M94.349 121.722V130.066H95.2487L94.8203 134.06H93.2208V132.153H89.9361L89.7362 134.06H88.1367V130.066H88.4509C88.6128 130.017 88.7365 129.888 88.8222 129.679C88.9174 129.461 88.9888 129.172 89.0364 128.815C89.0936 128.457 89.1316 128.03 89.1507 127.533C89.1697 127.037 89.1888 126.48 89.2078 125.865L89.3078 121.722H94.349ZM91.15 125.865C91.131 126.769 91.0929 127.568 91.0358 128.264C90.9787 128.959 90.8692 129.56 90.7073 130.066H92.2925V123.808H91.1929L91.15 125.865Z" fill="#FF671F"/>
<path d="M101.515 129.47C101.515 129.908 101.444 130.31 101.301 130.677C101.158 131.035 100.958 131.348 100.701 131.616C100.454 131.874 100.154 132.078 99.8017 132.227C99.4494 132.376 99.0686 132.451 98.6592 132.451C98.2403 132.451 97.8547 132.376 97.5024 132.227C97.1597 132.078 96.8598 131.874 96.6027 131.616C96.3552 131.348 96.16 131.035 96.0172 130.677C95.8744 130.31 95.803 129.908 95.803 129.47V124.404C95.803 123.977 95.8744 123.58 96.0172 123.212C96.16 122.845 96.3552 122.532 96.6027 122.274C96.8598 122.005 97.1597 121.797 97.5024 121.648C97.8547 121.499 98.2403 121.424 98.6592 121.424C99.0686 121.424 99.4494 121.499 99.8017 121.648C100.154 121.797 100.454 122.005 100.701 122.274C100.958 122.532 101.158 122.845 101.301 123.212C101.444 123.58 101.515 123.977 101.515 124.404V129.47ZM97.8595 129.47C97.8595 129.729 97.9309 129.942 98.0737 130.111C98.2165 130.28 98.4117 130.364 98.6592 130.364C98.9067 130.364 99.1019 130.28 99.2447 130.111C99.3875 129.942 99.4589 129.729 99.4589 129.47V124.404C99.4589 124.146 99.3875 123.933 99.2447 123.764C99.1019 123.595 98.9067 123.51 98.6592 123.51C98.4117 123.51 98.2165 123.595 98.0737 123.764C97.9309 123.933 97.8595 124.146 97.8595 124.404V129.47Z" fill="#FF671F"/>
<path d="M352.9 85.1H362V94.9H352.9V104H343.1V94.9H334V85.1H343.1V76H352.9V85.1Z" fill="white"/>
<rect x="378" width="305" height="180" rx="38.1814" fill="#FF671F"/>
<path d="M441.353 50.9286L451.027 82H438.684L430.01 52.5857V82H418V24H430.01V52.5857L438.434 24H450.444L441.353 50.9286Z" fill="white"/>
<path d="M456.525 82V24H479.544V35.6H468.535V46.62H478.21V58.22H468.535V70.4H480.628V82H456.525Z" fill="white"/>
<path d="M516.499 70.4H521.503V24H533.513V82H487.475V24H499.485V70.4H504.489V24H516.499V70.4Z" fill="white"/>
<path d="M573.15 65.4286C573.15 67.859 572.733 70.0962 571.899 72.14C571.065 74.1286 569.898 75.8686 568.396 77.36C566.951 78.7962 565.199 79.9286 563.142 80.7571C561.085 81.5857 558.861 82 556.47 82H542.208V24H568.897V35.6H554.218V42.56H556.47C558.861 42.56 561.085 42.9743 563.142 43.8029C565.199 44.6314 566.951 45.7914 568.396 47.2829C569.898 48.719 571.065 50.459 571.899 52.5029C572.733 54.5467 573.15 56.7562 573.15 59.1314V65.4286ZM561.14 59.1314C561.14 57.6952 560.723 56.5076 559.889 55.5686C559.055 54.6295 557.915 54.16 556.47 54.16H554.218V70.4H556.47C557.915 70.4 559.055 69.9305 559.889 68.9914C560.723 68.0524 561.14 66.8648 561.14 65.4286V59.1314Z" fill="white"/>
<path d="M579.022 82V24H602.042V35.6H591.032V46.62H600.707V58.22H591.032V70.4H603.126V82H579.022Z" fill="white"/>
<path d="M633.325 50.9286L643 82H630.656L621.983 52.5857V82H609.973V24H621.983V52.5857L630.406 24H642.416L633.325 50.9286Z" fill="white"/>
<path d="M492.419 127.76V98.8H518.731V110H502.816V115.6C504.255 115.013 505.695 114.72 507.134 114.72C511.506 114.72 514.892 116.24 517.291 119.28C519.69 122.32 520.89 126.4 520.89 131.52V139.2C520.89 141.76 520.49 144.08 519.69 146.16C518.944 148.24 517.877 150 516.491 151.44C515.158 152.88 513.559 154 511.693 154.8C509.88 155.6 507.881 156 505.695 156C503.509 156 501.483 155.6 499.617 154.8C497.804 154 496.205 152.88 494.819 151.44C493.486 150 492.419 148.24 491.62 146.16C490.873 144.08 490.5 141.76 490.5 139.2V135.12H502.016V139.2C502.016 140.8 502.309 142.133 502.896 143.2C503.536 144.267 504.469 144.8 505.695 144.8C506.921 144.8 507.827 144.267 508.414 143.2C509.054 142.133 509.374 140.8 509.374 139.2V131.52C509.374 129.92 509.054 128.587 508.414 127.52C507.827 126.453 506.921 125.92 505.695 125.92C504.469 125.92 503.509 126.533 502.816 127.76H492.419Z" fill="white"/>
<path d="M560.663 98.8H569.94L535.712 154.8H526.435L560.663 98.8ZM548.427 110.48C548.427 112.027 548.108 113.467 547.468 114.8C546.881 116.133 546.055 117.307 544.989 118.32C543.976 119.333 542.776 120.133 541.39 120.72C540.057 121.253 538.617 121.52 537.071 121.52C535.525 121.52 534.059 121.253 532.673 120.72C531.34 120.133 530.14 119.333 529.074 118.32C528.061 117.307 527.261 116.133 526.675 114.8C526.088 113.467 525.795 112.027 525.795 110.48V109.2C525.795 107.653 526.088 106.213 526.675 104.88C527.261 103.493 528.061 102.293 529.074 101.28C530.14 100.267 531.34 99.4667 532.673 98.88C534.059 98.2933 535.525 98 537.071 98C538.617 98 540.057 98.2933 541.39 98.88C542.776 99.4667 543.976 100.267 544.989 101.28C546.055 102.293 546.881 103.493 547.468 104.88C548.108 106.213 548.427 107.653 548.427 109.2V110.48ZM541.39 109.2C541.39 108.133 540.963 107.2 540.11 106.4C539.257 105.547 538.244 105.12 537.071 105.12C535.952 105.12 534.965 105.547 534.112 106.4C533.312 107.2 532.913 108.133 532.913 109.2V110.32C532.913 111.44 533.312 112.427 534.112 113.28C534.965 114.08 535.952 114.48 537.071 114.48C538.244 114.48 539.257 114.08 540.11 113.28C540.963 112.427 541.39 111.44 541.39 110.32V109.2ZM570.5 144.56C570.5 146.107 570.18 147.547 569.54 148.88C568.954 150.213 568.127 151.387 567.061 152.4C566.048 153.413 564.849 154.213 563.462 154.8C562.129 155.333 560.69 155.6 559.144 155.6C557.598 155.6 556.132 155.333 554.745 154.8C553.412 154.213 552.213 153.413 551.146 152.4C550.133 151.387 549.334 150.213 548.747 148.88C548.161 147.547 547.868 146.107 547.868 144.56V143.28C547.868 141.733 548.161 140.293 548.747 138.96C549.334 137.573 550.133 136.373 551.146 135.36C552.213 134.347 553.412 133.547 554.745 132.96C556.132 132.373 557.598 132.08 559.144 132.08C560.69 132.08 562.129 132.373 563.462 132.96C564.849 133.547 566.048 134.347 567.061 135.36C568.127 136.373 568.954 137.573 569.54 138.96C570.18 140.293 570.5 141.733 570.5 143.28V144.56ZM563.462 143.28C563.462 142.213 563.036 141.28 562.183 140.48C561.33 139.627 560.317 139.2 559.144 139.2C558.024 139.2 557.038 139.627 556.185 140.48C555.385 141.28 554.985 142.213 554.985 143.28V144.4C554.985 145.52 555.385 146.507 556.185 147.36C557.038 148.16 558.024 148.56 559.144 148.56C560.317 148.56 561.33 148.16 562.183 147.36C563.036 146.507 563.462 145.52 563.462 144.4V143.28Z" fill="white"/>
</svg>
