<svg width="280" height="199" viewBox="0 0 280 199" fill="none" xmlns="http://www.w3.org/2000/svg">
<path d="M25.3521 105.902C26.8394 105.902 28.2085 106.146 29.4592 106.634C30.6761 107.121 31.7408 107.804 32.6535 108.683C33.5324 109.528 34.2254 110.552 34.7324 111.756C35.2394 112.959 35.493 114.26 35.493 115.658V124H5.605e-06L4.89577e-06 108.39H7.0986L7.0986 116.975H11.3578V115.658C11.3578 114.26 11.6113 112.959 12.1183 111.756C12.6254 110.552 13.3352 109.528 14.2479 108.683C15.1268 107.804 16.1916 107.121 17.4423 106.634C18.693 106.146 20.0451 105.902 21.4986 105.902H25.3521ZM21.4986 112.927C20.6197 112.927 19.893 113.17 19.3183 113.658C18.7437 114.146 18.4563 114.813 18.4563 115.658V116.975H28.3944V115.658C28.3944 114.813 28.107 114.146 27.5324 113.658C26.9577 113.17 26.231 112.927 25.3521 112.927H21.4986Z" fill="white"/>
<path d="M4.62669e-06 102.467L4.30753e-06 95.4428H35.493V102.467H4.62669e-06Z" fill="white"/>
<path d="M3.25244e-06 72.2204H35.493V79.2449H7.0986V82.1719L14.0958 82.3182C17.2394 82.3833 20.1465 82.5133 22.8169 82.7085C25.4873 82.8711 27.8028 83.2288 29.7634 83.7817C31.7239 84.3345 33.262 85.1313 34.3775 86.172C35.4592 87.2127 36 88.6273 36 90.416C36 91.0664 35.8986 91.7819 35.6958 92.5624H28.0901V92.0746C28.0901 91.3916 27.769 90.855 27.1268 90.4648C26.4507 90.0745 25.5042 89.7818 24.2873 89.5867C23.0366 89.3916 21.5324 89.2615 19.7747 89.1964C17.9831 89.0989 15.9549 89.0176 13.6901 88.9525L3.99714e-06 88.6111L3.25244e-06 72.2204Z" fill="white"/>
<path d="M3.02286e-06 67.1673L2.70371e-06 60.1427H10.5465V58.9231C10.5465 57.5247 10.8 56.2239 11.307 55.0206C11.8141 53.8173 12.5239 52.7929 13.4366 51.9473C14.3155 51.0693 15.3803 50.3863 16.631 49.8985C17.8817 49.4107 19.2338 49.1668 20.6873 49.1668H25.3521C26.8394 49.1668 28.2085 49.4107 29.4592 49.8985C30.6761 50.3863 31.7408 51.0692 32.6535 51.9473C33.5324 52.7929 34.2253 53.8173 34.7324 55.0206C35.2394 56.2239 35.493 57.5247 35.493 58.9231V67.1673H3.02286e-06ZM20.6873 56.1913C19.8085 56.1913 19.0817 56.4353 18.507 56.9231C17.9324 57.4109 17.6451 58.0776 17.6451 58.9231V60.1427H28.3944V58.9231C28.3944 58.0776 28.107 57.4109 27.5324 56.9231C26.9577 56.4353 26.231 56.1913 25.3521 56.1913H20.6873Z" fill="white"/>
<path d="M28.3944 29.135V26.208L1.16192e-06 26.208L8.42768e-07 19.1835L35.493 19.1835V46.111H2.06619e-06L1.74704e-06 39.0865H28.3944V36.1595H1.61406e-06L1.2949e-06 29.135H28.3944Z" fill="white"/>
<path d="M35.493 14.098L6.11713e-07 14.098L0 0.634166L7.09859 0.634166V7.07337L13.8423 7.07337V1.41467L20.9408 1.41467V7.07337H28.3944V2.98516e-07L35.493 0V14.098Z" fill="white"/>
<path d="M70.4265 50.2795L84.6069 26.3288H55.5627V2.54794H114.847V12.7397L96.908 42.6356C103.742 44.4475 108.924 48.3543 112.455 54.3562C116.1 60.358 117.922 67.9452 117.922 77.1178V88.3288C117.922 93.7644 117.068 98.6904 115.36 103.107C113.765 107.523 111.487 111.26 108.526 114.318C105.678 117.375 102.261 119.753 98.2748 121.452C94.4022 123.151 90.131 124 85.4612 124C80.7913 124 76.4632 123.151 72.4767 121.452C68.6041 119.753 65.1872 117.375 62.2258 114.318C59.3783 111.26 57.1004 107.523 55.3919 103.107C53.7973 98.6904 53 93.7644 53 88.3288V79.6658H77.6022V88.3288C77.6022 91.726 78.2286 94.5571 79.4815 96.8219C80.8483 99.0868 82.8415 100.219 85.4612 100.219C88.0809 100.219 90.0171 99.0868 91.27 96.8219C92.6368 94.5571 93.3202 91.726 93.3202 88.3288V77.1178C93.3202 73.7206 92.5229 70.8895 90.9283 68.6247C89.3337 66.3598 86.3724 65.2274 82.0442 65.2274H70.4265V50.2795Z" fill="white"/>
<path d="M197.913 88.3288C197.913 93.7644 197.058 98.6904 195.35 103.107C193.755 107.523 191.477 111.26 188.516 114.318C185.669 117.375 182.252 119.753 178.265 121.452C174.393 123.151 170.121 124 165.452 124C160.782 124 156.454 123.151 152.467 121.452C148.595 119.753 145.178 117.375 142.216 114.318C139.369 111.26 137.091 107.523 135.382 103.107C133.788 98.6904 132.99 93.7644 132.99 88.3288V35.6712C132.99 30.2356 133.788 25.3096 135.382 20.8932C137.091 16.4767 139.369 12.7397 142.216 9.68219C145.178 6.62465 148.595 4.24657 152.467 2.54794C156.454 0.849314 160.782 0 165.452 0C170.121 0 174.393 0.849314 178.265 2.54794C182.252 4.24657 185.669 6.62465 188.516 9.68219C191.477 12.7397 193.755 16.4767 195.35 20.8932C197.058 25.3096 197.913 30.2356 197.913 35.6712V88.3288ZM157.593 88.3288C157.593 91.726 158.219 94.5571 159.472 96.8219C160.839 99.0868 162.832 100.219 165.452 100.219C168.071 100.219 170.007 99.0868 171.26 96.8219C172.627 94.5571 173.311 91.726 173.311 88.3288V35.6712C173.311 32.274 172.627 29.4429 171.26 27.1781C170.007 24.9132 168.071 23.7808 165.452 23.7808C162.832 23.7808 160.839 24.9132 159.472 27.1781C158.219 29.4429 157.593 32.274 157.593 35.6712V88.3288Z" fill="white"/>
<path d="M280 88.3288C280 93.7644 279.146 98.6904 277.437 103.107C275.843 107.523 273.565 111.26 270.603 114.318C267.756 117.375 264.339 119.753 260.352 121.452C256.48 123.151 252.209 124 247.539 124C242.869 124 238.541 123.151 234.554 121.452C230.682 119.753 227.265 117.375 224.303 114.318C221.456 111.26 219.178 107.523 217.47 103.107C215.875 98.6904 215.078 93.7644 215.078 88.3288V35.6712C215.078 30.2356 215.875 25.3096 217.47 20.8932C219.178 16.4767 221.456 12.7397 224.303 9.68219C227.265 6.62465 230.682 4.24657 234.554 2.54794C238.541 0.849314 242.869 0 247.539 0C252.209 0 256.48 0.849314 260.352 2.54794C264.339 4.24657 267.756 6.62465 270.603 9.68219C273.565 12.7397 275.843 16.4767 277.437 20.8932C279.146 25.3096 280 30.2356 280 35.6712V88.3288ZM239.68 88.3288C239.68 91.726 240.306 94.5571 241.559 96.8219C242.926 99.0868 244.919 100.219 247.539 100.219C250.158 100.219 252.095 99.0868 253.348 96.8219C254.714 94.5571 255.398 91.726 255.398 88.3288V35.6712C255.398 32.274 254.714 29.4429 253.348 27.1781C252.095 24.9132 250.158 23.7808 247.539 23.7808C244.919 23.7808 242.926 24.9132 241.559 27.1781C240.306 29.4429 239.68 32.274 239.68 35.6712V88.3288Z" fill="white"/>
<path d="M8.43876 143.622V163.297H3.45851V143.622H0V138.703H11.8627V143.622H8.43876Z" fill="white"/>
<path d="M27.0963 156.973C27.0963 158.004 26.9234 158.952 26.5776 159.819C26.2317 160.662 25.7475 161.4 25.125 162.032C24.5255 162.641 23.7992 163.122 22.9461 163.473C22.093 163.824 21.1708 164 20.1793 164C19.1648 164 18.231 163.824 17.3779 163.473C16.5479 163.122 15.8216 162.641 15.1991 162.032C14.5996 161.4 14.1269 160.662 13.7811 159.819C13.4352 158.952 13.2623 158.004 13.2623 156.973V145.027C13.2623 144.02 13.4352 143.083 13.7811 142.216C14.1269 141.35 14.5996 140.612 15.1991 140.003C15.8216 139.37 16.5479 138.878 17.3779 138.527C18.231 138.176 19.1648 138 20.1793 138C21.1708 138 22.093 138.176 22.9461 138.527C23.7992 138.878 24.5255 139.37 25.125 140.003C25.7475 140.612 26.2317 141.35 26.5776 142.216C26.9234 143.083 27.0963 144.02 27.0963 145.027V156.973ZM18.2425 156.973C18.2425 157.582 18.4155 158.086 18.7613 158.484C19.1072 158.882 19.5798 159.081 20.1793 159.081C20.7788 159.081 21.2515 158.882 21.5973 158.484C21.9432 158.086 22.1161 157.582 22.1161 156.973V145.027C22.1161 144.418 21.9432 143.914 21.5973 143.516C21.2515 143.118 20.7788 142.919 20.1793 142.919C19.5798 142.919 19.1072 143.118 18.7613 143.516C18.4155 143.914 18.2425 144.418 18.2425 145.027V156.973Z" fill="white"/>
<path d="M43.0322 156.551C43.0322 157.535 42.8593 158.449 42.5134 159.292C42.1906 160.112 41.7295 160.826 41.13 161.435C40.5536 162.021 39.8619 162.477 39.0549 162.805C38.2479 163.133 37.3603 163.297 36.3919 163.297H30.0628V138.703H35.9423C36.9107 138.703 37.7983 138.878 38.6053 139.23C39.4123 139.558 40.104 140.026 40.6804 140.635C41.2799 141.221 41.741 141.923 42.0638 142.743C42.4097 143.563 42.5826 144.465 42.5826 145.449V145.73C42.5826 146.854 42.3751 147.826 41.9601 148.646C41.5681 149.442 41.0032 150.086 40.2654 150.578C41.1185 151.07 41.7872 151.75 42.2713 152.616C42.7786 153.459 43.0322 154.49 43.0322 155.708V156.551ZM38.052 154.795C38.052 153.647 37.5562 153.038 36.5648 152.968H35.0431V158.378H36.3919C37.4986 158.378 38.052 157.769 38.052 156.551V154.795ZM37.6024 145.449C37.6024 144.231 37.049 143.622 35.9423 143.622H35.0431V148.47H35.9423C37.049 148.47 37.6024 147.861 37.6024 146.643V145.449Z" fill="white"/>
<path d="M44.4875 163.297L48.2573 138.703H54.8284L58.5982 163.297H53.5834L53.1338 159.257L49.6407 159.151L49.1565 163.297H44.4875ZM50.194 154.654L52.615 154.584L51.612 145.414L51.6466 143.446H51.3008L51.3353 145.414L50.194 154.654Z" fill="white"/>
<path d="M73.4541 149.454C73.4541 150.485 73.2812 151.433 72.9353 152.3C72.5895 153.143 72.1053 153.881 71.4828 154.514C70.8833 155.123 70.157 155.603 69.3039 155.954C68.4508 156.305 67.5285 156.481 66.5371 156.481H65.8454V163.297H60.8651V138.703H66.5371C67.5285 138.703 68.4508 138.878 69.3039 139.23C70.157 139.581 70.8833 140.073 71.4828 140.705C72.1053 141.314 72.5895 142.052 72.9353 142.919C73.2812 143.786 73.4541 144.723 73.4541 145.73V149.454ZM68.4739 145.73C68.4739 145.121 68.3009 144.617 67.9551 144.219C67.6092 143.821 67.1366 143.622 66.5371 143.622H65.8454V151.562H66.5371C67.1366 151.562 67.6092 151.363 67.9551 150.965C68.3009 150.567 68.4739 150.063 68.4739 149.454V145.73Z" fill="white"/>
<path d="M75.861 138.703H80.8413V163.297H75.861V138.703Z" fill="white"/>
<path d="M97.4091 156.551C97.4091 157.535 97.2362 158.449 96.8904 159.292C96.5676 160.112 96.1064 160.826 95.507 161.435C94.9305 162.021 94.2388 162.477 93.4319 162.805C92.6249 163.133 91.7372 163.297 90.7688 163.297H84.4397V138.703H90.3192C91.2876 138.703 92.1753 138.878 92.9823 139.23C93.7892 139.558 94.4809 140.026 95.0574 140.635C95.6568 141.221 96.118 141.923 96.4408 142.743C96.7866 143.563 96.9595 144.465 96.9595 145.449V145.73C96.9595 146.854 96.752 147.826 96.337 148.646C95.945 149.442 95.3801 150.086 94.6423 150.578C95.4954 151.07 96.1641 151.75 96.6483 152.616C97.1555 153.459 97.4091 154.49 97.4091 155.708V156.551ZM92.4289 154.795C92.4289 153.647 91.9332 153.038 90.9417 152.968H89.42V158.378H90.7688C91.8755 158.378 92.4289 157.769 92.4289 156.551V154.795ZM91.9793 145.449C91.9793 144.231 91.4259 143.622 90.3192 143.622H89.42V148.47H90.3192C91.4259 148.47 91.9793 147.861 91.9793 146.643V145.449Z" fill="white"/>
<path d="M119.518 145.835C119.518 146.959 119.299 147.932 118.861 148.751C118.446 149.548 117.87 150.192 117.132 150.684C118.008 151.152 118.688 151.82 119.173 152.686C119.68 153.553 119.933 154.595 119.933 155.814V157.008C119.933 158.039 119.761 158.987 119.415 159.854C119.069 160.697 118.596 161.423 117.997 162.032C117.397 162.641 116.671 163.122 115.818 163.473C114.965 163.824 114.042 164 113.051 164C112.037 164 111.103 163.824 110.25 163.473C109.42 163.122 108.705 162.641 108.105 162.032C107.506 161.423 107.033 160.697 106.687 159.854C106.342 158.987 106.169 158.039 106.169 157.008V154.584H111.149V157.008C111.149 157.617 111.322 158.121 111.668 158.519C112.014 158.894 112.475 159.081 113.051 159.081C113.627 159.081 114.089 158.894 114.434 158.519C114.78 158.121 114.953 157.617 114.953 157.008V154.9C114.953 153.682 114.4 153.073 113.293 153.073H111.391V148.576H112.878C113.985 148.576 114.538 147.967 114.538 146.749V144.886C114.538 144.348 114.4 143.891 114.123 143.516C113.847 143.118 113.431 142.919 112.878 142.919C112.325 142.919 111.91 143.118 111.633 143.516C111.356 143.891 111.218 144.348 111.218 144.886V147.557H106.238V144.886C106.238 143.926 106.399 143.024 106.722 142.181C107.045 141.338 107.494 140.612 108.071 140.003C108.67 139.37 109.374 138.878 110.18 138.527C111.011 138.176 111.91 138 112.878 138C113.847 138 114.734 138.176 115.541 138.527C116.348 138.878 117.04 139.37 117.616 140.003C118.216 140.612 118.677 141.338 119 142.181C119.346 143.024 119.518 143.926 119.518 144.886V145.835Z" fill="white"/>
<path d="M122.706 138.703H127.686V163.297H122.706V138.703Z" fill="white"/>
<path d="M150.625 145.835C150.625 146.959 150.406 147.932 149.968 148.751C149.553 149.548 148.976 150.192 148.238 150.684C149.115 151.152 149.795 151.82 150.279 152.686C150.786 153.553 151.04 154.595 151.04 155.814V157.008C151.04 158.039 150.867 158.987 150.521 159.854C150.175 160.697 149.703 161.423 149.103 162.032C148.504 162.641 147.777 163.122 146.924 163.473C146.071 163.824 145.149 164 144.157 164C143.143 164 142.209 163.824 141.356 163.473C140.526 163.122 139.811 162.641 139.212 162.032C138.612 161.423 138.14 160.697 137.794 159.854C137.448 158.987 137.275 158.039 137.275 157.008V154.584H142.255V157.008C142.255 157.617 142.428 158.121 142.774 158.519C143.12 158.894 143.581 159.081 144.157 159.081C144.734 159.081 145.195 158.894 145.541 158.519C145.887 158.121 146.06 157.617 146.06 157.008V154.9C146.06 153.682 145.506 153.073 144.399 153.073H142.497V148.576H143.984C145.091 148.576 145.645 147.967 145.645 146.749V144.886C145.645 144.348 145.506 143.891 145.23 143.516C144.953 143.118 144.538 142.919 143.984 142.919C143.431 142.919 143.016 143.118 142.739 143.516C142.463 143.891 142.324 144.348 142.324 144.886V147.557H137.344V144.886C137.344 143.926 137.505 143.024 137.828 142.181C138.151 141.338 138.601 140.612 139.177 140.003C139.777 139.37 140.48 138.878 141.287 138.527C142.117 138.176 143.016 138 143.984 138C144.953 138 145.841 138.176 146.647 138.527C147.454 138.878 148.146 139.37 148.723 140.003C149.322 140.612 149.783 141.338 150.106 142.181C150.452 143.024 150.625 143.926 150.625 144.886V145.835Z" fill="white"/>
<path d="M162.251 153.249H158.793V163.297H153.813V138.703H158.793V148.33H162.251V138.703H167.232V163.297H162.251V153.249Z" fill="white"/>
<path d="M179.619 138.703H185.499V163.297H180.45L180.795 148.751L181.037 146.784H180.726L180.657 147.838L176.714 163.297H170.835V138.703H175.884L175.538 153.249L175.296 155.216H175.608L175.677 154.162L179.619 138.703Z" fill="white"/>
<path d="M191.286 150.122L187.896 138.703H192.877L196.024 150.824V138.703H201.004V150.824L204.151 138.703H209.132L205.708 150.122L209.374 163.297H204.255L201.004 150.824V163.297H196.024V150.824L192.773 163.297H187.654L191.286 150.122Z" fill="white"/>
<path d="M221.217 150.122L225.229 163.297H220.11L216.513 150.824V163.297H211.533V138.703H216.513V150.824L220.007 138.703H224.987L221.217 150.122Z" fill="white"/>
<path d="M226.194 163.297L229.964 138.703H236.535L240.305 163.297H235.29L234.841 159.257L231.347 159.151L230.863 163.297H226.194ZM231.901 154.654L234.322 154.584L233.319 145.414L233.353 143.446H233.008L233.042 145.414L231.901 154.654Z" fill="white"/>
<path d="M256.683 147.768L254.504 163.297H249.385L246.86 147.768L246.791 146.714H246.48L246.722 148.681L247.068 163.297H242.572V138.703H249.42L251.875 155.849L251.841 157.816H252.187L252.152 155.849L254.538 138.703H261.732V163.297H256.752L256.821 148.681L257.063 146.714H256.752L256.683 147.768Z" fill="white"/>
<path d="M274.121 138.703H280V163.297H274.951L275.296 148.751L275.539 146.784H275.227L275.158 147.838L271.215 163.297H265.336V138.703H270.385L270.039 153.249L269.797 155.216H270.109L270.178 154.162L274.121 138.703Z" fill="white"/>
<path d="M0 173.668H4.98818V183.435C4.98818 184.185 5.08055 184.735 5.2653 185.086C5.47314 185.438 5.81954 185.614 6.3045 185.614C6.41997 185.614 6.60471 185.602 6.85874 185.578C7.11277 185.555 7.30906 185.52 7.44762 185.473V173.668H12.4358V198.297H7.44762V189.689C7.1705 189.806 6.80101 189.9 6.33914 189.97C5.90037 190.017 5.51932 190.041 5.19602 190.041C4.41084 190.041 3.69494 189.888 3.04833 189.584C2.42481 189.279 1.88211 188.858 1.42024 188.319C0.98147 187.78 0.635069 187.136 0.381041 186.386C0.127014 185.614 0 184.77 0 183.857V173.668Z" fill="white"/>
<path d="M16.0492 198.297V173.703H25.6099V178.622H21.0374V183.295H25.0556V188.214H21.0374V193.378H26.0602V198.297H16.0492Z" fill="white"/>
<path d="M38.6031 185.122L42.6214 198.297H37.4947L33.8921 185.824V198.297H28.9039V173.703H33.8921V185.824L37.3907 173.703H42.3789L38.6031 185.122Z" fill="white"/>
<path d="M43.5884 198.297L47.3641 173.703H53.9457L57.7215 198.297H52.6987L52.2484 194.257L48.7497 194.151L48.2648 198.297H43.5884ZM49.304 189.654L51.7288 189.584L50.7242 180.414L50.7589 178.446H50.4125L50.4471 180.414L49.304 189.654Z" fill="white"/>
<path d="M80.3258 192.254C80.3258 193.238 80.1526 194.151 79.8062 194.995C79.4829 195.814 79.021 196.529 78.4206 197.138C77.8433 197.723 77.1505 198.18 76.3422 198.508C75.5339 198.836 74.6448 199 73.6749 199C72.705 199 71.8043 198.836 70.973 198.508C70.1647 198.18 69.4604 197.723 68.8599 197.138C68.2826 196.529 67.8323 195.814 67.509 194.995C67.1857 194.151 67.024 193.238 67.024 192.254V188.249H64.9802V198.297H59.9921V173.703H64.9802V183.33H67.024V179.746C67.024 178.762 67.1857 177.86 67.509 177.041C67.8323 176.221 68.2826 175.518 68.8599 174.932C69.4604 174.323 70.1647 173.855 70.973 173.527C71.8043 173.176 72.705 173 73.6749 173C74.6448 173 75.5339 173.176 76.3422 173.527C77.1505 173.855 77.8433 174.323 78.4206 174.932C79.021 175.518 79.4829 176.221 79.8062 177.041C80.1526 177.86 80.3258 178.762 80.3258 179.746V192.254ZM72.0122 192.254C72.0122 193.472 72.5664 194.081 73.6749 194.081C74.7834 194.081 75.3376 193.472 75.3376 192.254V179.746C75.3376 178.528 74.7834 177.919 73.6749 177.919C72.5664 177.919 72.0122 178.528 72.0122 179.746V192.254Z" fill="white"/>
<path d="M90.1585 178.622V198.297H85.1703V178.622H81.7063V173.703H93.5878V178.622H90.1585Z" fill="white"/>
<path d="M95.6132 173.703H100.601V181.011H101.467C102.46 181.011 103.384 181.186 104.239 181.538C105.093 181.889 105.82 182.381 106.421 183.014C107.044 183.623 107.529 184.36 107.876 185.227C108.222 186.094 108.395 187.031 108.395 188.038V191.27C108.395 192.301 108.222 193.25 107.876 194.116C107.529 194.959 107.044 195.697 106.421 196.33C105.82 196.939 105.093 197.419 104.239 197.77C103.384 198.122 102.46 198.297 101.467 198.297H95.6132V173.703ZM103.407 188.038C103.407 187.429 103.234 186.925 102.888 186.527C102.541 186.129 102.068 185.93 101.467 185.93H100.601V193.378H101.467C102.068 193.378 102.541 193.179 102.888 192.781C103.234 192.383 103.407 191.879 103.407 191.27V188.038Z" fill="white"/>
<path d="M130.49 191.551C130.49 192.535 130.317 193.449 129.971 194.292C129.647 195.112 129.185 195.826 128.585 196.435C128.008 197.021 127.315 197.477 126.506 197.805C125.698 198.133 124.809 198.297 123.839 198.297H117.5V173.703H123.389C124.359 173.703 125.248 173.878 126.056 174.23C126.864 174.558 127.557 175.026 128.135 175.635C128.735 176.221 129.197 176.923 129.52 177.743C129.867 178.563 130.04 179.465 130.04 180.449V180.73C130.04 181.854 129.832 182.826 129.416 183.646C129.024 184.442 128.458 185.086 127.719 185.578C128.573 186.07 129.243 186.75 129.728 187.616C130.236 188.459 130.49 189.49 130.49 190.708V191.551ZM125.502 189.795C125.502 188.647 125.005 188.038 124.012 187.968H122.488V193.378H123.839C124.948 193.378 125.502 192.769 125.502 191.551V189.795ZM125.052 180.449C125.052 179.231 124.497 178.622 123.389 178.622H122.488V183.47H123.389C124.497 183.47 125.052 182.861 125.052 181.643V180.449Z" fill="white"/>
<path d="M154.332 182.768L152.15 198.297H147.023L144.494 182.768L144.425 181.714H144.113L144.356 183.681L144.702 198.297H140.199V173.703H147.058L149.517 190.849L149.482 192.816H149.829L149.794 190.849L152.184 173.703H159.389V198.297H154.401L154.471 183.681L154.713 181.714H154.401L154.332 182.768Z" fill="white"/>
<path d="M161.683 198.297L165.458 173.703H172.04L175.816 198.297H170.793L170.343 194.257L166.844 194.151L166.359 198.297H161.683ZM167.398 189.654L169.823 189.584L168.819 180.414L168.853 178.446H168.507L168.541 180.414L167.398 189.654Z" fill="white"/>
<path d="M183.075 178.622V198.297H178.086V173.703H187.993V178.622H183.075Z" fill="white"/>
<path d="M187.629 198.297L191.405 173.703H197.986L201.762 198.297H196.739L196.289 194.257L192.79 194.151L192.305 198.297H187.629ZM193.345 189.654L195.769 189.584L194.765 180.414L194.799 178.446H194.453L194.488 180.414L193.345 189.654Z" fill="white"/>
<path d="M216.468 180.835C216.468 181.959 216.249 182.932 215.81 183.751C215.395 184.548 214.817 185.192 214.078 185.684C214.956 186.152 215.637 186.82 216.122 187.686C216.63 188.553 216.884 189.595 216.884 190.814V192.008C216.884 193.039 216.711 193.987 216.365 194.854C216.018 195.697 215.545 196.423 214.944 197.032C214.344 197.641 213.616 198.122 212.762 198.473C211.908 198.824 210.984 199 209.991 199C208.975 199 208.039 198.824 207.185 198.473C206.354 198.122 205.638 197.641 205.037 197.032C204.437 196.423 203.963 195.697 203.617 194.854C203.271 193.987 203.097 193.039 203.097 192.008V189.584H208.086V192.008C208.086 192.617 208.259 193.121 208.605 193.519C208.952 193.894 209.413 194.081 209.991 194.081C210.568 194.081 211.03 193.894 211.376 193.519C211.723 193.121 211.896 192.617 211.896 192.008V189.9C211.896 188.682 211.342 188.073 210.233 188.073H208.328V183.576H209.818C210.926 183.576 211.48 182.967 211.48 181.749V179.886C211.48 179.348 211.342 178.891 211.065 178.516C210.787 178.118 210.372 177.919 209.818 177.919C209.263 177.919 208.848 178.118 208.571 178.516C208.293 178.891 208.155 179.348 208.155 179.886V182.557H203.167V179.886C203.167 178.926 203.328 178.024 203.652 177.181C203.975 176.338 204.425 175.612 205.003 175.003C205.603 174.37 206.307 173.878 207.116 173.527C207.947 173.176 208.848 173 209.818 173C210.787 173 211.677 173.176 212.485 173.527C213.293 173.878 213.986 174.37 214.563 175.003C215.164 175.612 215.626 176.338 215.949 177.181C216.295 178.024 216.468 178.926 216.468 179.886V180.835Z" fill="white"/>
<path d="M228.46 173.703H234.349V198.297H229.291L229.638 183.751L229.88 181.784H229.568L229.499 182.838L225.55 198.297H219.661V173.703H224.719L224.372 188.249L224.13 190.216H224.442L224.511 189.162L228.46 173.703Z" fill="white"/>
<path d="M246.415 188.249H242.951V198.297H237.962V173.703H242.951V183.33H246.415V173.703H251.403V198.297H246.415V188.249Z" fill="white"/>
<path d="M255.012 173.703H260V198.297H255.012V173.703Z" fill="white"/>
</svg>
