<svg width="460" height="181" viewBox="0 0 460 181" fill="none" xmlns="http://www.w3.org/2000/svg">
<path d="M19 31.44V74H8.056V31.44H0.456V20.8H8.056H26.524V31.44H19ZM58.6316 44.056C58.6316 46.2853 58.2516 48.3373 57.4916 50.212C56.7316 52.036 55.6676 53.632 54.2996 55C52.9823 56.3173 51.3863 57.356 49.5116 58.116C47.637 58.876 45.6103 59.256 43.4316 59.256H41.9116V74H30.9676V20.8H43.4316C45.6103 20.8 47.637 21.18 49.5116 21.94C51.3863 22.7 52.9823 23.764 54.2996 25.132C55.6676 26.4493 56.7316 28.0453 57.4916 29.92C58.2516 31.7947 58.6316 33.8213 58.6316 36V44.056ZM47.6876 36C47.6876 34.6827 47.3076 33.5933 46.5476 32.732C45.7876 31.8707 44.749 31.44 43.4316 31.44H41.9116V48.616H43.4316C44.749 48.616 45.7876 48.1853 46.5476 47.324C47.3076 46.4627 47.6876 45.3733 47.6876 44.056V36ZM74.8648 63.36H81.8568V20.8H92.8008V63.36H97.5888L95.3088 83.728H86.7968V74H63.9208V20.8H74.8648V63.36ZM115.084 20.724H125.648L124.204 38.204H116.528L115.084 20.724ZM127.852 20.724H138.416L136.972 38.204H129.296L127.852 20.724ZM174.862 40.408L170.074 74H158.826L153.278 40.408L153.126 38.128H152.442L152.974 42.384L153.734 74H143.854V20.8H158.902L164.298 57.888L164.222 62.144H164.982L164.906 57.888L170.15 20.8H185.958V74H175.014L175.166 42.384L175.698 38.128H175.014L174.862 40.408ZM193.878 74V20.8H214.854V31.44H204.822V41.548H213.638V52.188H204.822V63.36H215.842V74H193.878ZM233.025 31.44V74H222.081V20.8H243.817V31.44H233.025ZM243.017 74L251.301 20.8H265.741L274.025 74H263.005L262.017 65.26L254.341 65.032L253.277 74H243.017ZM255.557 55.304L260.877 55.152L258.673 35.316L258.749 31.06H257.989L258.065 35.316L255.557 55.304ZM310.015 40.408L305.227 74H293.979L288.431 40.408L288.279 38.128H287.595L288.127 42.384L288.887 74H279.007V20.8H294.055L299.451 57.888L299.375 62.144H300.135L300.059 57.888L305.303 20.8H321.111V74H310.167L310.319 42.384L310.851 38.128H310.167L310.015 40.408ZM358.062 60.32C358.062 62.5493 357.682 64.6013 356.922 66.476C356.162 68.3 355.098 69.896 353.73 71.264C352.413 72.5813 350.817 73.62 348.942 74.38C347.067 75.14 345.041 75.52 342.862 75.52C340.633 75.52 338.581 75.14 336.706 74.38C334.882 73.62 333.286 72.5813 331.918 71.264C330.601 69.896 329.562 68.3 328.802 66.476C328.042 64.6013 327.662 62.5493 327.662 60.32V34.48C327.662 32.3013 328.042 30.2747 328.802 28.4C329.562 26.5253 330.601 24.9293 331.918 23.612C333.286 22.244 334.882 21.18 336.706 20.42C338.581 19.66 340.633 19.28 342.862 19.28C345.041 19.28 347.067 19.66 348.942 20.42C350.817 21.18 352.413 22.244 353.73 23.612C355.098 24.9293 356.162 26.5253 356.922 28.4C357.682 30.2747 358.062 32.3013 358.062 34.48V60.32ZM338.606 60.32C338.606 61.6373 338.986 62.7267 339.746 63.588C340.506 64.4493 341.545 64.88 342.862 64.88C344.179 64.88 345.218 64.4493 345.978 63.588C346.738 62.7267 347.118 61.6373 347.118 60.32V34.48C347.118 33.1627 346.738 32.0733 345.978 31.212C345.218 30.3507 344.179 29.92 342.862 29.92C341.545 29.92 340.506 30.3507 339.746 31.212C338.986 32.0733 338.606 33.1627 338.606 34.48V60.32ZM392.853 20.8V74H381.909V31.44H377.349L377.121 41.928C377.02 46.64 376.817 50.9973 376.513 55C376.26 59.0027 375.702 62.4733 374.841 65.412C373.98 68.3507 372.738 70.656 371.117 72.328C369.496 73.9493 367.292 74.76 364.505 74.76C363.492 74.76 362.377 74.608 361.161 74.304V62.904H361.921C362.985 62.904 363.821 62.4227 364.429 61.46C365.037 60.4467 365.493 59.028 365.797 57.204C366.101 55.3293 366.304 53.0747 366.405 50.44C366.557 47.7547 366.684 44.7147 366.785 41.32L367.317 20.8H392.853ZM428.997 20.8V74H418.053V31.44H413.493L413.265 41.928C413.164 46.64 412.961 50.9973 412.657 55C412.404 59.0027 411.847 62.4733 410.985 65.412C410.124 68.3507 408.883 70.656 407.261 72.328C405.64 73.9493 403.436 74.76 400.649 74.76C399.636 74.76 398.521 74.608 397.305 74.304V62.904H398.065C399.129 62.904 399.965 62.4227 400.573 61.46C401.181 60.4467 401.637 59.028 401.941 57.204C402.245 55.3293 402.448 53.0747 402.549 50.44C402.701 47.7547 402.828 44.7147 402.929 41.32L403.461 20.8H428.997ZM434.818 20.724H445.382L443.938 38.204H436.262L434.818 20.724ZM447.586 20.724H458.15L456.706 38.204H449.03L447.586 20.724Z" fill="white"/>
<path d="M63.2101 161V154.132C63.2101 151.684 63.6861 149.372 64.6381 147.196C65.5901 145.02 67.0861 143.048 69.1261 141.28L75.8581 135.364C76.9007 134.457 77.7167 133.505 78.3061 132.508C78.9407 131.511 79.2581 130.468 79.2581 129.38V126.66C79.2581 125.209 78.9861 124.053 78.4421 123.192C77.9434 122.331 77.1727 121.9 76.1301 121.9C75.0874 121.9 74.2941 122.331 73.7501 123.192C73.2514 124.053 73.0021 125.209 73.0021 126.66V129.448H63.2101V126.66C63.2101 124.484 63.5274 122.512 64.1621 120.744C64.8421 118.976 65.7487 117.48 66.8821 116.256C68.0607 115.032 69.4207 114.08 70.9621 113.4C72.5487 112.72 74.2714 112.38 76.1301 112.38C77.9887 112.38 79.6887 112.72 81.2301 113.4C82.8167 114.08 84.1767 115.032 85.3101 116.256C86.4887 117.48 87.3954 118.976 88.0301 120.744C88.7101 122.512 89.0501 124.484 89.0501 126.66V127.476C89.0501 129.924 88.5741 132.236 87.6221 134.412C86.6701 136.588 85.1741 138.56 83.1341 140.328L76.4021 146.244C75.4954 147.015 74.7474 147.853 74.1581 148.76C73.5687 149.621 73.2061 150.528 73.0701 151.48H87.9621V161H63.2101ZM103.083 113.468L103.151 113.4H109.067V161H99.2745V125.572C97.0078 126.569 94.5145 127.068 91.7945 127.068V118.5C92.7465 118.5 93.7438 118.364 94.7865 118.092C95.8745 117.82 96.9172 117.457 97.9145 117.004C98.9118 116.505 99.8412 115.939 100.703 115.304C101.609 114.669 102.403 114.012 103.083 113.332V113.468ZM120.091 142.912V132.712H138.315V142.912H120.091ZM147.48 161V154.132C147.48 151.684 147.956 149.372 148.908 147.196C149.86 145.02 151.356 143.048 153.396 141.28L160.128 135.364C161.17 134.457 161.986 133.505 162.576 132.508C163.21 131.511 163.528 130.468 163.528 129.38V126.66C163.528 125.209 163.256 124.053 162.712 123.192C162.213 122.331 161.442 121.9 160.4 121.9C159.357 121.9 158.564 122.331 158.02 123.192C157.521 124.053 157.272 125.209 157.272 126.66V129.448H147.48V126.66C147.48 124.484 147.797 122.512 148.432 120.744C149.112 118.976 150.018 117.48 151.152 116.256C152.33 115.032 153.69 114.08 155.232 113.4C156.818 112.72 158.541 112.38 160.4 112.38C162.258 112.38 163.958 112.72 165.5 113.4C167.086 114.08 168.446 115.032 169.58 116.256C170.758 117.48 171.665 118.976 172.3 120.744C172.98 122.512 173.32 124.484 173.32 126.66V127.476C173.32 129.924 172.844 132.236 171.892 134.412C170.94 136.588 169.444 138.56 167.404 140.328L160.672 146.244C159.765 147.015 159.017 147.853 158.428 148.76C157.838 149.621 157.476 150.528 157.34 151.48H172.232V161H147.48ZM178.784 138.016V113.4H201.156V122.92H187.624V127.68C188.848 127.181 190.072 126.932 191.296 126.932C195.013 126.932 197.892 128.224 199.932 130.808C201.972 133.392 202.992 136.86 202.992 141.212V147.74C202.992 149.916 202.652 151.888 201.972 153.656C201.337 155.424 200.431 156.92 199.252 158.144C198.119 159.368 196.759 160.32 195.172 161C193.631 161.68 191.931 162.02 190.072 162.02C188.213 162.02 186.491 161.68 184.904 161C183.363 160.32 182.003 159.368 180.824 158.144C179.691 156.92 178.784 155.424 178.104 153.656C177.469 151.888 177.152 149.916 177.152 147.74V144.272H186.944V147.74C186.944 149.1 187.193 150.233 187.692 151.14C188.236 152.047 189.029 152.5 190.072 152.5C191.115 152.5 191.885 152.047 192.384 151.14C192.928 150.233 193.2 149.1 193.2 147.74V141.212C193.2 139.852 192.928 138.719 192.384 137.812C191.885 136.905 191.115 136.452 190.072 136.452C189.029 136.452 188.213 136.973 187.624 138.016H178.784ZM221.388 113.332H231.18V132.236C231.18 133.687 231.362 134.752 231.724 135.432C232.132 136.112 232.812 136.452 233.764 136.452C233.991 136.452 234.354 136.429 234.852 136.384C235.351 136.339 235.736 136.271 236.008 136.18V113.332H245.8V161H236.008V144.34C235.464 144.567 234.739 144.748 233.832 144.884C232.971 144.975 232.223 145.02 231.588 145.02C230.047 145.02 228.642 144.725 227.372 144.136C226.148 143.547 225.083 142.731 224.176 141.688C223.315 140.645 222.635 139.399 222.136 137.948C221.638 136.452 221.388 134.82 221.388 133.052V113.332ZM252.893 161V113.4H271.661V122.92H262.685V131.964H270.573V141.484H262.685V151.48H272.545V161H252.893ZM302.88 134.208C302.88 136.203 302.54 138.039 301.86 139.716C301.18 141.348 300.228 142.776 299.004 144C297.825 145.179 296.397 146.108 294.72 146.788C293.042 147.468 291.229 147.808 289.28 147.808H287.92V161H278.128V113.4H289.28C291.229 113.4 293.042 113.74 294.72 114.42C296.397 115.1 297.825 116.052 299.004 117.276C300.228 118.455 301.18 119.883 301.86 121.56C302.54 123.237 302.88 125.051 302.88 127V134.208ZM293.088 127C293.088 125.821 292.748 124.847 292.068 124.076C291.388 123.305 290.458 122.92 289.28 122.92H287.92V138.288H289.28C290.458 138.288 291.388 137.903 292.068 137.132C292.748 136.361 293.088 135.387 293.088 134.208V127ZM333.112 147.944C333.112 149.848 332.772 151.616 332.092 153.248C331.458 154.835 330.551 156.217 329.372 157.396C328.239 158.529 326.879 159.413 325.292 160.048C323.706 160.683 321.96 161 320.056 161H307.612V113.4H319.172C321.076 113.4 322.822 113.74 324.408 114.42C325.995 115.055 327.355 115.961 328.488 117.14C329.667 118.273 330.574 119.633 331.208 121.22C331.888 122.807 332.228 124.552 332.228 126.456V127C332.228 129.176 331.82 131.057 331.004 132.644C330.234 134.185 329.123 135.432 327.672 136.384C329.35 137.336 330.664 138.651 331.616 140.328C332.614 141.96 333.112 143.955 333.112 146.312V147.944ZM323.32 144.544C323.32 142.323 322.346 141.144 320.396 141.008H320.328H320.056H317.404V151.48H320.056C322.232 151.48 323.32 150.301 323.32 147.944V144.544ZM322.436 126.456C322.436 124.099 321.348 122.92 319.172 122.92H317.404V132.304H319.172C321.348 132.304 322.436 131.125 322.436 128.768V126.456ZM355.149 141.552H348.349V161H338.557V113.4H348.349V132.032H355.149V113.4H364.941V161H355.149V141.552ZM379.574 161H369.238L375.494 141.28C374.044 140.101 372.933 138.651 372.162 136.928C371.392 135.205 371.006 133.256 371.006 131.08V126.456C371.006 124.552 371.324 122.807 371.958 121.22C372.593 119.633 373.477 118.273 374.61 117.14C375.789 115.961 377.172 115.055 378.758 114.42C380.39 113.74 382.158 113.4 384.062 113.4H395.622V161H385.83V143.728H384.266L379.574 161ZM380.866 131.148C380.866 133.46 381.841 134.639 383.79 134.684H385.83V122.92H384.13C381.954 122.92 380.866 124.099 380.866 126.456V131.148Z" fill="white"/>
</svg>
