<svg width="103" height="103" viewBox="0 0 103 103" fill="none" xmlns="http://www.w3.org/2000/svg">
<g filter="url(#filter0_d)">
<circle cx="47.5" cy="45.5" r="45.5" fill="#F0F0F0"/>
<circle cx="47.5" cy="45.5" r="45.5" fill="url(#paint0_linear)"/>
<circle cx="47.5" cy="45.5" r="41" stroke="#F6F6F6" stroke-width="9"/>
<circle cx="47.5" cy="45.5" r="41" stroke="url(#paint1_linear)" stroke-width="9"/>
</g>
<rect x="46" y="43" width="2" height="19" fill="#D09765"/>
<rect x="45" y="37" width="5" height="4" fill="#5FB64B"/>
<g clip-path="url(#clip0)">
<path d="M42.5 35.5C42.9 35.5 44.3333 35.8333 45 36H46L47 35.5L46 34L44.5 31.5L42.5 30L40.5 29.5C40.1667 29.8333 39.5 30.6 39.5 31C39.5 31.4 40.1667 32.8333 40.5 33.5C41 34.1667 42.1 35.5 42.5 35.5Z" stroke="#5FB64B" stroke-width="2"/>
<path d="M52 35.5C51.6 35.5 50.1667 35.8333 49.5 36H48.5L48 35.5L48.5 34L50 31.5L52 30L54 29.5C54.3333 29.8333 55 30.6 55 31C55 31.4 54.8333 32.8333 54.5 33.5C54 34.1667 52.4 35.5 52 35.5Z" stroke="#5FB64B" stroke-width="2"/>
<rect x="46" y="43" width="2" height="19" fill="#D09765"/>
<path d="M45.3256 35.9349C45.5085 35.9349 45.6809 35.8486 45.7901 35.702C45.8997 35.5554 45.9336 35.366 45.8815 35.1905C45.466 33.7716 44.7479 32.4597 43.7762 31.3456C42.9933 30.5126 41.828 30.156 40.7131 30.4082C40.5591 30.4671 40.4377 30.5888 40.3788 30.7427C40.3469 30.8294 40.3231 30.9188 40.3081 31.0099C40.2903 31.1181 40.2806 31.2273 40.2789 31.3369V31.3462C40.286 32.2706 40.6585 33.1549 41.3154 33.8056C42.4295 34.7764 43.7406 35.4942 45.1586 35.9095C45.213 35.9256 45.269 35.9344 45.3256 35.9349ZM42.1374 32.9848C41.9073 32.7544 41.7267 32.4789 41.6064 32.1761V32.1704C41.5809 32.1062 41.5589 32.0416 41.5399 31.9797C41.53 31.946 41.5229 31.9143 41.5144 31.8812C41.5057 31.848 41.498 31.8231 41.4923 31.7943C41.4864 31.7651 41.4853 31.7535 41.4813 31.7328C41.4643 31.6462 41.4524 31.5588 41.4459 31.4707C42.0177 31.514 42.5546 31.7609 42.9599 32.1665C43.5362 32.818 44.0007 33.5605 44.3344 34.364C43.53 34.0292 42.7864 33.563 42.1346 32.9848H42.1374Z" fill="black"/>
<path d="M63.1159 36.3348H54.168C54.5549 36.0705 54.9183 35.773 55.2538 35.4461C57.3274 33.3663 57.3953 30.2128 56.0706 28.8882C54.746 27.5635 51.5937 27.6303 49.5116 29.7062C48.6602 30.6329 47.9684 31.6943 47.4646 32.8474C46.9608 31.6935 46.2685 30.6315 45.4162 29.7045C43.3364 27.6309 40.1832 27.563 38.8583 28.8876C37.5331 30.2123 37.6016 33.3657 39.6755 35.4461C40.0112 35.773 40.3746 36.0705 40.7612 36.3348H31.8133C31.4932 36.3348 31.2336 36.5944 31.2336 36.9145V42.7113C31.2336 43.0314 31.4932 43.291 31.8133 43.291H32.9726V60.1016C32.9746 61.7014 34.2713 62.9981 35.871 63H59.0582C60.6582 62.9981 61.9549 61.7014 61.9566 60.1016V43.291H63.1159C63.4361 43.291 63.6956 43.0314 63.6956 42.7113V36.9145C63.6956 36.5944 63.4361 36.3348 63.1159 36.3348ZM50.3319 30.5253C51.9979 28.8644 54.4278 28.8837 55.2515 29.7073C56.0752 30.531 56.095 32.9598 54.4341 34.6264C53.6735 35.3295 52.8051 35.906 51.862 36.3348H48.3981C48.3981 36.3227 48.3981 36.3094 48.3981 36.2972C48.3981 36.165 48.3882 36.0311 48.3755 35.8964C48.3706 35.852 48.3655 35.8078 48.3605 35.7625C48.3471 35.6513 48.3307 35.5403 48.3109 35.4299C48.3047 35.3912 48.2982 35.3521 48.2914 35.3139C48.2637 35.1695 48.2334 35.0275 48.1985 34.8902C48.194 34.8704 48.1886 34.8531 48.1841 34.8321C48.1533 34.7121 48.1216 34.6003 48.089 34.4846C48.0845 34.4687 48.0802 34.4515 48.0757 34.4356C48.5507 32.9909 49.3188 31.6595 50.3319 30.5253ZM49.7833 42.1316H45.1459V37.4942H49.7833V42.1316ZM40.4957 34.6269C38.8345 32.9604 38.8541 30.5315 39.678 29.7073C40.5017 28.8831 42.9305 28.8638 44.5959 30.5236C45.6506 31.7051 46.4411 33.0982 46.9147 34.6097C46.98 34.8132 47.0304 35.0085 47.078 35.1981C47.0913 35.2525 47.1023 35.3051 47.1139 35.3586C47.1453 35.5001 47.1705 35.6352 47.1895 35.7645C47.1957 35.8084 47.2039 35.8537 47.209 35.8964C47.2274 36.041 47.2373 36.1868 47.2387 36.3326H43.0672C42.1247 35.9046 41.2566 35.3289 40.4957 34.6269ZM32.393 37.4942H43.9865V42.1316H32.393V37.4942ZM34.132 60.1016V43.291H45.1459V61.8407H35.871C34.9107 61.8407 34.132 61.062 34.132 60.1016ZM46.3053 61.8407V43.291H48.624V61.8407H46.3053ZM60.7972 60.1016C60.7972 61.062 60.0188 61.8407 59.0582 61.8407H49.7833V43.291H60.7972V60.1016ZM62.5363 42.1316H50.9427V37.4942H62.5363V42.1316Z" fill="black"/>
<path d="M49.6019 35.9366C49.6577 35.9366 49.7131 35.9287 49.7666 35.9128C51.1864 35.4979 52.4989 34.7787 53.6127 33.805C54.4375 33.0161 54.793 31.8556 54.5518 30.7402C54.4935 30.5867 54.3721 30.4656 54.2187 30.407C53.1032 30.1659 51.9427 30.5214 51.1538 31.3462C50.1804 32.4599 49.4612 33.7724 49.046 35.1922C48.9942 35.3677 49.0279 35.5573 49.1374 35.7037C49.247 35.8503 49.4191 35.9366 49.6019 35.9366ZM51.9735 32.1659C52.3794 31.7605 52.9169 31.514 53.4887 31.4701C53.4454 32.0422 53.1986 32.58 52.7932 32.9858C52.1411 33.5661 51.3964 34.0331 50.5903 34.368C50.9254 33.5618 51.393 32.8177 51.9735 32.1659Z" fill="black"/>
</g>
<defs>
<filter id="filter0_d" x="0" y="0" width="103" height="103" filterUnits="userSpaceOnUse" color-interpolation-filters="sRGB">
<feFlood flood-opacity="0" result="BackgroundImageFix"/>
<feColorMatrix in="SourceAlpha" type="matrix" values="0 0 0 0 0 0 0 0 0 0 0 0 0 0 0 0 0 0 127 0"/>
<feOffset dx="4" dy="6"/>
<feGaussianBlur stdDeviation="3"/>
<feColorMatrix type="matrix" values="0 0 0 0 0 0 0 0 0 0 0 0 0 0 0 0 0 0 0.25 0"/>
<feBlend mode="normal" in2="BackgroundImageFix" result="effect1_dropShadow"/>
<feBlend mode="normal" in="SourceGraphic" in2="effect1_dropShadow" result="shape"/>
</filter>
<linearGradient id="paint0_linear" x1="31.25" y1="23.6786" x2="79.0714" y2="97.0357" gradientUnits="userSpaceOnUse">
<stop stop-color="white" stop-opacity="0.89"/>
<stop offset="1" stop-color="white" stop-opacity="0"/>
</linearGradient>
<linearGradient id="paint1_linear" x1="28.9286" y1="37.1429" x2="47.5" y2="91" gradientUnits="userSpaceOnUse">
<stop stop-color="white"/>
<stop offset="1" stop-color="white" stop-opacity="0"/>
</linearGradient>
<clipPath id="clip0">
<rect width="35" height="35" fill="white" transform="translate(30 28)"/>
</clipPath>
</defs>
</svg>
