<svg width="103" height="103" viewBox="0 0 103 103" fill="none" xmlns="http://www.w3.org/2000/svg">
<g filter="url(#filter0_d)">
<circle cx="47.5" cy="45.5" r="45.5" fill="#F0F0F0"/>
<circle cx="47.5" cy="45.5" r="45.5" fill="url(#paint0_linear)"/>
<circle cx="47.5" cy="45.5" r="41" stroke="#F6F6F6" stroke-width="9"/>
<circle cx="47.5" cy="45.5" r="41" stroke="url(#paint1_linear)" stroke-width="9"/>
</g>
<path d="M61.2724 41C61.2724 42.6569 59.4815 44 57.2724 44C55.0633 44 53.5 40.6569 53.5 39C53.5 37.3431 60.5 35.5 60.5 35.5C60.5 35.5 61.2724 39.3431 61.2724 41Z" fill="#D09765"/>
<circle cx="45" cy="34" r="7" fill="#5FB64B"/>
<path d="M60.8332 46.6702C60.5037 46.6702 60.2366 46.9373 60.2366 47.2668C60.2366 47.6846 59.8967 48.0244 59.479 48.0244C59.0613 48.0244 58.7213 47.6846 58.7213 47.2668C58.7213 46.9372 58.4542 46.6702 58.1247 46.6702C57.7952 46.6702 57.528 46.9373 57.528 47.2668C57.528 48.3426 58.4033 49.2178 59.479 49.2178C60.5546 49.2178 61.4299 48.3425 61.4299 47.2668C61.4299 46.9371 61.1628 46.6702 60.8332 46.6702Z" fill="black"/>
<path d="M66.434 46.7676L64.7546 46.2297C64.5395 46.1607 64.37 45.989 64.3012 45.7703C63.9472 44.645 63.4131 43.5885 62.7136 42.6302C62.3949 42.1933 62.0403 41.7762 61.6531 41.3791C61.9008 40.2922 62.0355 39.0621 62.0181 37.9994C61.9931 36.4791 61.6893 35.5875 61.0893 35.2732C60.7662 35.1038 59.7829 34.589 54.4603 37.0255C54.3343 37.0832 54.2166 37.1542 54.1076 37.2355C53.7487 37.1391 53.382 37.0499 53.013 36.9698C52.9685 36.9602 52.9227 36.9516 52.878 36.9421C53.3093 35.9999 53.5611 34.9766 53.6084 33.9202C53.6232 33.5909 53.3683 33.3121 53.039 33.2975C52.7106 33.2811 52.4309 33.5375 52.4162 33.8668C52.3385 35.6038 51.6179 37.2381 50.3875 38.4687C49.6523 39.2039 48.7914 39.7379 47.874 40.0742C46.2829 39.851 44.6623 39.851 43.0712 40.0742C42.1537 39.7379 41.2929 39.2039 40.5577 38.4687C39.2449 37.1559 38.5219 35.4104 38.5219 33.5538C38.5219 31.6971 39.2449 29.9517 40.5577 28.6389C41.8705 27.326 43.6161 26.603 45.4726 26.603C47.3291 26.603 49.0747 27.326 50.3875 28.6389C50.915 29.1665 51.351 29.7685 51.6832 30.4281C51.8314 30.7225 52.1903 30.841 52.4845 30.6927C52.7789 30.5445 52.8973 30.1857 52.7491 29.8914C52.3597 29.1179 51.849 28.4127 51.2314 27.795C49.6932 26.2568 47.648 25.4096 45.4727 25.4096C43.2973 25.4096 41.2521 26.2568 39.7139 27.795C38.1757 29.3333 37.3286 31.3784 37.3286 33.5537C37.3286 35.729 38.1757 37.7742 39.7139 39.3124C40.1576 39.7562 40.6403 40.1377 41.1509 40.4574C41.1511 40.4574 41.1512 40.4573 41.1514 40.4573C40.7804 40.5537 40.4122 40.662 40.0481 40.7837C39.7355 40.8882 39.5669 41.2262 39.6714 41.5389C39.7758 41.8514 40.114 42.0201 40.4265 41.9156C43.6805 40.8278 47.2648 40.8278 50.5189 41.9156C50.5816 41.9366 50.6454 41.9465 50.7081 41.9465C50.9577 41.9465 51.1904 41.7886 51.2739 41.5389C51.3784 41.2263 51.2098 40.8882 50.8972 40.7837C50.5331 40.662 50.1649 40.5537 49.7939 40.4573C49.7941 40.4573 49.7942 40.4574 49.7944 40.4574C50.3051 40.1377 50.7877 39.7562 51.2314 39.3124C51.6239 38.9199 51.9704 38.4912 52.2713 38.0357C52.4358 38.0676 52.5991 38.1011 52.7599 38.136C52.9742 38.1825 53.1875 38.2325 53.399 38.285C53.3923 38.3109 53.3855 38.3368 53.38 38.3631C53.089 39.7441 53.1079 40.9654 53.4361 41.9931C53.7311 42.9168 54.2636 43.6651 55.0185 44.2174C55.9082 44.8683 56.9824 45.1494 57.9554 45.1494C58.6877 45.1494 59.3629 44.9901 59.8587 44.7092C60.4196 44.3916 60.8895 43.7222 61.2614 42.7172C61.4334 42.9179 61.5963 43.1234 61.7499 43.3339C62.3727 44.187 62.8481 45.1273 63.163 46.1285C63.3479 46.7165 63.8069 47.1792 64.3907 47.3663L66.0701 47.9043C66.5108 48.0454 66.8068 48.451 66.8068 48.9137V51.6985C66.8068 52.1611 66.5108 52.5667 66.0701 52.7079L63.3644 53.5746C62.9315 53.7134 62.5651 54.0109 62.3328 54.4124C61.2698 56.2495 59.5984 57.7698 57.365 58.931C57.107 59.0653 56.9282 59.3055 56.8744 59.5901L56.0078 64.1788C55.9839 64.3052 55.8731 64.3969 55.7444 64.3969H52.9267C52.798 64.3969 52.6873 64.3051 52.6634 64.1788L52.1834 61.6428C52.0889 61.1438 51.6209 60.8124 51.1172 60.8887C49.9035 61.0722 48.6528 61.1652 47.4001 61.1652C46.4682 61.1652 45.5482 61.1132 44.6655 61.0107C44.1774 60.9545 43.7227 61.2872 43.6315 61.7692L43.1754 64.1788C43.1514 64.3052 43.0407 64.3969 42.912 64.3969H40.0943C39.9656 64.3969 39.8549 64.3052 39.8306 64.1769L38.9962 59.8429C38.9425 59.5636 38.7671 59.3262 38.5148 59.1914C34.7075 57.159 32.6952 53.7633 32.6952 49.3719C32.6952 47.1531 33.1806 45.1911 34.1379 43.5402C35.0313 41.9995 36.3361 40.7257 38.016 39.754C38.3013 39.589 38.3987 39.224 38.2338 38.9386C38.0688 38.6534 37.7038 38.5561 37.4185 38.7209C34.161 40.6053 32.1963 43.5125 31.6553 47.2049V47.2048C31.5979 47.1996 31.5404 47.1946 31.4832 47.1887C31.4936 46.7903 31.4215 46.3883 31.2646 45.9982C30.9184 45.1377 30.2073 44.5166 29.4529 44.4159C28.8584 44.3363 28.2926 44.5887 27.9 45.1075C27.3307 45.8597 27.4235 46.455 27.6015 46.8219C27.9021 47.4412 28.6746 47.8792 29.9566 48.1546C29.9213 48.2074 29.8826 48.2604 29.8401 48.3136C29.0827 49.2636 28.1903 49.4736 27.6108 49.4934C27.2716 49.5049 27 49.7772 27 50.1167V50.1196C27 50.4544 27.2642 50.7274 27.5987 50.7427C27.6415 50.7447 27.6863 50.7458 27.7329 50.7458C28.4661 50.7458 29.6428 50.4753 30.7734 49.0577C30.9519 48.834 31.0973 48.5979 31.2091 48.354C31.3217 48.3667 31.4298 48.3776 31.5335 48.3872C31.5335 48.387 31.5335 48.3868 31.5335 48.3866C31.5132 48.7099 31.5019 49.038 31.5019 49.3719C31.5019 51.8565 32.0943 54.0719 33.2624 55.9567C34.3394 57.6944 35.8815 59.1172 37.8472 60.1872L38.6584 64.4006C38.7889 65.0899 39.3927 65.5902 40.0943 65.5902H42.912C43.6136 65.5902 44.2174 65.0899 44.3479 64.4006L44.7603 62.2218C45.6168 62.3126 46.5036 62.3585 47.4001 62.3585C48.6301 62.3585 49.8586 62.2728 51.056 62.1037L51.4907 64.4008C51.6212 65.0901 52.2251 65.5903 52.9266 65.5903H55.7443C56.4458 65.5903 57.0497 65.09 57.1802 64.4004L58.024 59.9328C60.4078 58.6723 62.2046 57.0164 63.3656 55.01C63.4492 54.8654 63.5781 54.7593 63.7283 54.7112L66.434 53.8445C67.3707 53.5443 68 52.6819 68 51.6983V48.9136C68 47.9301 67.3707 47.0677 66.434 46.7676ZM60.7352 39.6762C60.5055 41.6402 59.8894 43.3202 59.2704 43.6708C58.5669 44.0693 56.9425 44.1463 55.7229 43.2541C54.5019 42.3609 54.0955 40.7547 54.5475 38.6091C54.5475 38.609 54.5475 38.609 54.5475 38.609C54.5929 38.3936 54.746 38.2071 54.957 38.1106C57.9443 36.7431 59.6665 36.2959 60.3063 36.2959C60.4029 36.2959 60.4748 36.3061 60.5227 36.3248C60.7149 36.5297 60.967 37.6941 60.7352 39.6762ZM28.6753 46.3009C28.6136 46.1735 28.7593 45.9497 28.8517 45.8275C28.9982 45.6341 29.1331 45.5945 29.2351 45.5945C29.2566 45.5945 29.2767 45.5963 29.2951 45.5987C29.5695 45.6353 29.9538 45.9372 30.1575 46.4434C30.2054 46.5626 30.2677 46.76 30.2823 47.0061C29.4563 46.835 28.8146 46.5883 28.6753 46.3009Z" fill="black"/>
<path d="M46.052 32.8698V30.7346C46.7884 30.7872 47.0619 31.1238 47.3143 31.1238C47.6299 31.1238 47.7772 30.7241 47.7772 30.5243C47.7772 30.0088 46.7673 29.7879 46.052 29.7669V29.4828C46.052 29.3566 45.8942 29.2408 45.7365 29.2408C45.5576 29.2408 45.4314 29.3566 45.4314 29.4828V29.7878C44.4321 29.893 43.4328 30.419 43.4328 31.7443C43.4328 33.0908 44.4847 33.4695 45.4314 33.806V36.278C44.3584 36.1938 44.0744 35.4575 43.7273 35.4575C43.4643 35.4575 43.2435 35.8046 43.2435 36.0571C43.2435 36.5725 44.1271 37.2772 45.4314 37.2983V37.6244C45.4314 37.7506 45.5576 37.8663 45.7365 37.8663C45.8943 37.8663 46.052 37.7506 46.052 37.6244V37.2668C47.1881 37.1089 47.9665 36.3937 47.9665 35.0998C47.9665 33.6693 46.9672 33.2064 46.052 32.8698ZM45.4945 32.67C44.937 32.4597 44.4847 32.2388 44.4847 31.6393C44.4847 31.0923 44.9054 30.8293 45.4945 30.7557V32.67ZM45.9889 36.2569V34.0374C46.5042 34.2583 46.9145 34.5528 46.9145 35.2155C46.9145 35.8152 46.5569 36.1517 45.9889 36.2569Z" fill="white"/>
<defs>
<filter id="filter0_d" x="0" y="0" width="103" height="103" filterUnits="userSpaceOnUse" color-interpolation-filters="sRGB">
<feFlood flood-opacity="0" result="BackgroundImageFix"/>
<feColorMatrix in="SourceAlpha" type="matrix" values="0 0 0 0 0 0 0 0 0 0 0 0 0 0 0 0 0 0 127 0"/>
<feOffset dx="4" dy="6"/>
<feGaussianBlur stdDeviation="3"/>
<feColorMatrix type="matrix" values="0 0 0 0 0 0 0 0 0 0 0 0 0 0 0 0 0 0 0.25 0"/>
<feBlend mode="normal" in2="BackgroundImageFix" result="effect1_dropShadow"/>
<feBlend mode="normal" in="SourceGraphic" in2="effect1_dropShadow" result="shape"/>
</filter>
<linearGradient id="paint0_linear" x1="31.25" y1="23.6786" x2="79.0714" y2="97.0357" gradientUnits="userSpaceOnUse">
<stop stop-color="white" stop-opacity="0.89"/>
<stop offset="1" stop-color="white" stop-opacity="0"/>
</linearGradient>
<linearGradient id="paint1_linear" x1="28.9286" y1="37.1429" x2="47.5" y2="91" gradientUnits="userSpaceOnUse">
<stop stop-color="white"/>
<stop offset="1" stop-color="white" stop-opacity="0"/>
</linearGradient>
</defs>
</svg>
