<svg width="102" height="102" viewBox="0 0 102 102" fill="none" xmlns="http://www.w3.org/2000/svg">
<g filter="url(#filter0_d)">
<circle cx="47" cy="45" r="45" fill="#F0F0F0"/>
<circle cx="47" cy="45" r="45" fill="url(#paint0_linear)"/>
<circle cx="47" cy="45" r="40.5" stroke="#F6F6F6" stroke-width="9"/>
<circle cx="47" cy="45" r="40.5" stroke="url(#paint1_linear)" stroke-width="9"/>
</g>
<path fill-rule="evenodd" clip-rule="evenodd" d="M26.7032 32.7241V58.0106H67.2968V32.7241H26.7032ZM26.4194 31C25.6355 31 25 31.6432 25 32.4367V58.298C25 59.0914 25.6355 59.7347 26.4194 59.7347H67.5806C68.3645 59.7347 69 59.0914 69 58.298V32.4367C69 31.6432 68.3645 31 67.5806 31H26.4194Z" fill="black"/>
<path d="M26 32H29C29 34.2091 27.6569 36 26 36V32Z" fill="black"/>
<path d="M26 59L26 55C27.6569 55 29 56.7909 29 59L26 59Z" fill="black"/>
<path d="M68 59L64 59C64 56.7909 65.7909 55 68 55L68 59Z" fill="black"/>
<path d="M68 32L64 32C64 34.2091 65.7909 36 68 36L68 32Z" fill="black"/>
<path d="M58.2245 45.3673C58.2245 50.8226 53.6012 55.2449 47.898 55.2449C42.1948 55.2449 37.5714 50.8226 37.5714 45.3673C37.5714 39.9121 42.1948 35.4898 47.898 35.4898C53.6012 35.4898 58.2245 39.9121 58.2245 45.3673Z" fill="#5FB64B"/>
<path d="M47.2685 49.84C46.7584 49.8222 46.311 49.7689 45.9262 49.68C45.5414 49.5911 45.2416 49.4889 45.0268 49.3733L45.5503 47.8667C45.7114 47.9644 45.9351 48.0578 46.2215 48.1467C46.5168 48.2356 46.8658 48.2978 47.2685 48.3333V45.6C46.9911 45.4756 46.7136 45.3378 46.4362 45.1867C46.1678 45.0356 45.9262 44.8533 45.7114 44.64C45.4966 44.4267 45.3221 44.1733 45.1879 43.88C45.0626 43.5778 45 43.2222 45 42.8133C45 42.0489 45.2013 41.4578 45.604 41.04C46.0157 40.6133 46.5705 40.3378 47.2685 40.2133V39H48.6644V40.16C49.0582 40.1867 49.4027 40.24 49.698 40.32C49.9933 40.4 50.2662 40.4933 50.5168 40.6L50.0336 42.08C49.8814 42.0089 49.689 41.9378 49.4564 41.8667C49.2237 41.7956 48.9597 41.7422 48.6644 41.7067V44.2C48.9418 44.3244 49.2192 44.4667 49.4966 44.6267C49.783 44.7778 50.0336 44.96 50.2483 45.1733C50.472 45.3867 50.651 45.64 50.7852 45.9333C50.9284 46.2178 51 46.56 51 46.96C51 47.7778 50.7897 48.4178 50.3691 48.88C49.9575 49.3333 49.3893 49.6267 48.6644 49.76V51H47.2685V49.84ZM49.255 47.16C49.255 46.8756 49.1387 46.6444 48.906 46.4667C48.6823 46.28 48.4094 46.1111 48.0872 45.96V48.3333C48.481 48.2889 48.7718 48.1644 48.9597 47.96C49.1566 47.7556 49.255 47.4889 49.255 47.16ZM46.745 42.6667C46.745 42.9333 46.8479 43.1556 47.0537 43.3333C47.2685 43.5111 47.5324 43.6756 47.8456 43.8267V41.6667C47.4251 41.6844 47.1342 41.7867 46.9732 41.9733C46.821 42.16 46.745 42.3911 46.745 42.6667Z" fill="white"/>
<rect x="30" y="39" width="2" height="10" rx="1" fill="#D09765"/>
<rect x="62" y="40" width="2" height="10" rx="1" fill="#D09765"/>
<defs>
<filter id="filter0_d" x="0" y="0" width="102" height="102" filterUnits="userSpaceOnUse" color-interpolation-filters="sRGB">
<feFlood flood-opacity="0" result="BackgroundImageFix"/>
<feColorMatrix in="SourceAlpha" type="matrix" values="0 0 0 0 0 0 0 0 0 0 0 0 0 0 0 0 0 0 127 0"/>
<feOffset dx="4" dy="6"/>
<feGaussianBlur stdDeviation="3"/>
<feColorMatrix type="matrix" values="0 0 0 0 0 0 0 0 0 0 0 0 0 0 0 0 0 0 0.25 0"/>
<feBlend mode="normal" in2="BackgroundImageFix" result="effect1_dropShadow"/>
<feBlend mode="normal" in="SourceGraphic" in2="effect1_dropShadow" result="shape"/>
</filter>
<linearGradient id="paint0_linear" x1="30.9286" y1="23.4184" x2="78.2245" y2="95.9694" gradientUnits="userSpaceOnUse">
<stop stop-color="white" stop-opacity="0.89"/>
<stop offset="1" stop-color="white" stop-opacity="0"/>
</linearGradient>
<linearGradient id="paint1_linear" x1="28.6327" y1="36.7347" x2="47" y2="90" gradientUnits="userSpaceOnUse">
<stop stop-color="white"/>
<stop offset="1" stop-color="white" stop-opacity="0"/>
</linearGradient>
</defs>
</svg>
