<svg width="102" height="102" viewBox="0 0 102 102" fill="none" xmlns="http://www.w3.org/2000/svg">
<g filter="url(#filter0_d)">
<circle cx="47" cy="45" r="45" fill="#F0F0F0"/>
<circle cx="47" cy="45" r="45" fill="url(#paint0_linear)"/>
<circle cx="47" cy="45" r="40.5" stroke="#F6F6F6" stroke-width="9"/>
<circle cx="47" cy="45" r="40.5" stroke="url(#paint1_linear)" stroke-width="9"/>
</g>
<ellipse cx="47" cy="61.6555" rx="19" ry="4.5" fill="#D09765"/>
<path d="M46.7969 24C39.7407 24 34 29.7407 34 36.7969C34 39.1809 34.6604 41.5075 35.9102 43.526L46.0684 59.8959C46.263 60.2095 46.6058 60.4 46.9745 60.4C46.9774 60.4 46.9802 60.4 46.983 60.4C47.3549 60.3971 47.6984 60.2007 47.8894 59.8816L57.7888 43.3531C58.9696 41.3773 59.5938 39.1102 59.5938 36.7969C59.5938 29.7407 53.8531 24 46.7969 24ZM55.9584 42.2582L46.9584 57.2851L37.723 42.4023C36.6827 40.7222 36.1186 38.7839 36.1186 36.7969C36.1186 30.9167 40.9167 26.1186 46.7969 26.1186C52.677 26.1186 57.468 30.9167 57.468 36.7969C57.468 38.725 56.9412 40.6138 55.9584 42.2582Z" fill="black"/>
<path d="M46.7969 30.3984C43.2688 30.3984 40.3984 33.2688 40.3984 36.7969C40.3984 40.3024 43.2221 43.1953 46.7969 43.1953C50.4158 43.1953 53.1953 40.2639 53.1953 36.7969C53.1953 33.2688 50.325 30.3984 46.7969 30.3984ZM46.7969 41.0767C44.4325 41.0767 42.517 39.1548 42.517 36.7969C42.517 34.4448 44.4448 32.517 46.7969 32.517C49.1489 32.517 51.0696 34.4448 51.0696 36.7969C51.0696 39.1204 49.1987 41.0767 46.7969 41.0767Z" fill="black"/>
<defs>
<filter id="filter0_d" x="0" y="0" width="102" height="102" filterUnits="userSpaceOnUse" color-interpolation-filters="sRGB">
<feFlood flood-opacity="0" result="BackgroundImageFix"/>
<feColorMatrix in="SourceAlpha" type="matrix" values="0 0 0 0 0 0 0 0 0 0 0 0 0 0 0 0 0 0 127 0"/>
<feOffset dx="4" dy="6"/>
<feGaussianBlur stdDeviation="3"/>
<feColorMatrix type="matrix" values="0 0 0 0 0 0 0 0 0 0 0 0 0 0 0 0 0 0 0.25 0"/>
<feBlend mode="normal" in2="BackgroundImageFix" result="effect1_dropShadow"/>
<feBlend mode="normal" in="SourceGraphic" in2="effect1_dropShadow" result="shape"/>
</filter>
<linearGradient id="paint0_linear" x1="30.9286" y1="23.4184" x2="78.2245" y2="95.9694" gradientUnits="userSpaceOnUse">
<stop stop-color="white" stop-opacity="0.89"/>
<stop offset="1" stop-color="white" stop-opacity="0"/>
</linearGradient>
<linearGradient id="paint1_linear" x1="28.6327" y1="36.7347" x2="47" y2="90" gradientUnits="userSpaceOnUse">
<stop stop-color="white"/>
<stop offset="1" stop-color="white" stop-opacity="0"/>
</linearGradient>
</defs>
</svg>
