<svg width="103" height="103" viewBox="0 0 103 103" fill="none" xmlns="http://www.w3.org/2000/svg">
<g filter="url(#filter0_d)">
<circle cx="47.5" cy="45.5" r="45.5" fill="#F0F0F0"/>
<circle cx="47.5" cy="45.5" r="45.5" fill="url(#paint0_linear)"/>
<circle cx="47.5" cy="45.5" r="41" stroke="#F6F6F6" stroke-width="9"/>
<circle cx="47.5" cy="45.5" r="41" stroke="url(#paint1_linear)" stroke-width="9"/>
</g>
<path d="M42.5946 57H45.8649C45.8649 57 46.1622 59 47.3514 59C48.5405 59 49.2838 57 49.2838 57H52.7027L53 61H42L42.5946 57Z" fill="#D09765"/>
<path d="M64.5969 29H30.4031C29.078 29 28 30.0815 28 31.4108V54.6886C28 56.018 29.078 57.0994 30.4031 57.0994H41.968L41.5002 60.8537H39.5621C39.2465 60.8537 38.9908 61.1103 38.9908 61.4269C38.9908 61.7434 39.2465 62 39.5621 62H55.4379C55.7535 62 56.0092 61.7434 56.0092 61.4269C56.0092 61.1103 55.7535 60.8537 55.4379 60.8537H53.4998L53.032 57.0994H64.5969C65.9219 57.0994 67 56.018 67 54.6886V31.4108C67 30.0815 65.922 29 64.5969 29ZM42.6517 60.8537L43.1196 57.0994H45.2222L45.4284 57.927C45.6665 58.8825 46.5184 59.5497 47.5001 59.5497C48.4817 59.5497 49.3336 58.8825 49.5717 57.927L49.778 57.0994H51.8806L52.3483 60.8537H42.6517ZM46.3999 57.0994H48.6001L48.4631 57.649C48.3524 58.0932 47.9564 58.4034 47.4999 58.4034C47.0434 58.4034 46.6475 58.0932 46.5367 57.649L46.3999 57.0994ZM65.8574 54.6886C65.8574 55.3859 65.2919 55.9532 64.5969 55.9532H30.4031C29.7081 55.9532 29.1426 55.3859 29.1426 54.6886V31.4108C29.1426 30.7135 29.7081 30.1463 30.4031 30.1463H64.5969C65.2919 30.1463 65.8574 30.7135 65.8574 31.4108V54.6886Z" fill="black"/>
<path d="M60.4184 32H30.5816C30.2603 32 30 32.2543 30 32.5682V54.4318C30 54.7457 30.2603 55 30.5816 55H31.8248C32.1461 55 32.4064 54.7457 32.4064 54.4318C32.4065 54.118 32.1461 53.8636 31.8249 53.8636H31.1632V33.1364H60.4184C60.7397 33.1364 61 32.882 61 32.5682C61 32.2543 60.7397 32 60.4184 32Z" fill="black"/>
<path d="M64.4185 32H63.1752C62.8539 32 62.5936 32.2543 62.5936 32.5682C62.5936 32.882 62.8539 33.1364 63.1752 33.1364H63.8369V53.8636H34.5815C34.2603 53.8636 34 54.118 34 54.4318C34 54.7457 34.2603 55 34.5815 55H64.4184C64.7397 55 65 54.7457 65 54.4318V32.5682C65 32.2543 64.7397 32 64.4185 32Z" fill="black"/>
<g clip-path="url(#clip0)">
<rect x="37.6774" y="35.7419" width="3.06452" height="2.90322" fill="#43B02A"/>
<path d="M42.0723 34.0002C41.9658 34.0029 41.8675 34.0553 41.8097 34.1401L40.8733 35.4707H37.6843C37.5059 35.4707 37.3612 35.6078 37.3612 35.7768V38.8378C37.3612 39.0068 37.5059 39.1439 37.6843 39.1439H40.9153C41.0938 39.1439 41.2385 39.0068 41.2385 38.8378V36.4228L40.5922 37.3411V38.5317H38.0074V36.0829H40.4425L39.5337 37.3743L39.1365 36.6217C39.0587 36.4696 38.8654 36.406 38.7048 36.4798C38.5442 36.5536 38.4771 36.7367 38.555 36.8888C38.5562 36.891 38.5573 36.8932 38.5585 36.8954L39.2047 38.1198C39.2845 38.271 39.4786 38.3324 39.6382 38.2568C39.6885 38.233 39.7314 38.1972 39.7626 38.1528L42.3474 34.4796C42.4485 34.3403 42.4113 34.1497 42.2642 34.0539C42.2078 34.0173 42.1407 33.9984 42.0723 34.0002ZM43.5002 36.6953C43.3218 36.6953 43.1771 36.8323 43.1771 37.0013V37.6135C43.1771 37.7826 43.3218 37.9196 43.5002 37.9196H49.316C49.4945 37.9196 49.6392 37.7826 49.6392 37.6135V37.0013C49.6392 36.8323 49.4945 36.6953 49.316 36.6953H43.5002ZM37.6843 39.7584C37.5059 39.7584 37.3612 39.8954 37.3612 40.0645V43.1255C37.3612 43.2945 37.5059 43.4316 37.6843 43.4316H40.9153C41.0938 43.4316 41.2385 43.2945 41.2385 43.1255V40.0645C41.2385 39.8954 41.0938 39.7584 40.9153 39.7584H37.6843ZM38.0074 40.3706H40.5922V42.8194H38.0074V40.3706ZM43.5002 40.9805C43.3218 40.9805 43.1771 41.1176 43.1771 41.2866V41.8988C43.1771 42.0678 43.3218 42.2049 43.5002 42.2049H49.316C49.4945 42.2049 49.6392 42.0678 49.6392 41.8988V41.2866C49.6392 41.1176 49.4945 40.9805 49.316 40.9805H43.5002ZM37.6843 44.0415C37.5059 44.0415 37.3612 44.1786 37.3612 44.3476V47.4086C37.3612 47.5776 37.5059 47.7147 37.6843 47.7147H40.9153C41.0938 47.7147 41.2385 47.5776 41.2385 47.4086V44.3476C41.2385 44.1786 41.0938 44.0415 40.9153 44.0415H37.6843ZM38.0074 44.6537H40.5922V47.1025H38.0074V44.6537ZM43.5002 45.268C43.3218 45.268 43.1771 45.4051 43.1771 45.5741V46.1863C43.1771 46.3554 43.3218 46.4924 43.5002 46.4924H49.316C49.4945 46.4924 49.6392 46.3554 49.6392 46.1863V45.5741C49.6392 45.4051 49.4945 45.268 49.316 45.268H43.5002ZM37.6843 48.3269C37.5059 48.3269 37.3612 48.4639 37.3612 48.633V51.694C37.3612 51.863 37.5059 52.0001 37.6843 52.0001H40.9153C41.0938 52.0001 41.2385 51.863 41.2385 51.694V48.633C41.2385 48.4639 41.0938 48.3269 40.9153 48.3269H37.6843ZM38.0074 48.9391H40.5922V51.3879H38.0074V48.9391ZM43.5002 49.5513C43.3218 49.5513 43.1771 49.6883 43.1771 49.8574V50.4696C43.1771 50.6386 43.3218 50.7757 43.5002 50.7757H49.316C49.4945 50.7757 49.6392 50.6386 49.6392 50.4696V49.8574C49.6392 49.6883 49.4945 49.5513 49.316 49.5513H43.5002Z" fill="black"/>
</g>
<defs>
<filter id="filter0_d" x="0" y="0" width="103" height="103" filterUnits="userSpaceOnUse" color-interpolation-filters="sRGB">
<feFlood flood-opacity="0" result="BackgroundImageFix"/>
<feColorMatrix in="SourceAlpha" type="matrix" values="0 0 0 0 0 0 0 0 0 0 0 0 0 0 0 0 0 0 127 0"/>
<feOffset dx="4" dy="6"/>
<feGaussianBlur stdDeviation="3"/>
<feColorMatrix type="matrix" values="0 0 0 0 0 0 0 0 0 0 0 0 0 0 0 0 0 0 0.25 0"/>
<feBlend mode="normal" in2="BackgroundImageFix" result="effect1_dropShadow"/>
<feBlend mode="normal" in="SourceGraphic" in2="effect1_dropShadow" result="shape"/>
</filter>
<linearGradient id="paint0_linear" x1="31.25" y1="23.6786" x2="79.0714" y2="97.0357" gradientUnits="userSpaceOnUse">
<stop stop-color="white" stop-opacity="0.89"/>
<stop offset="1" stop-color="white" stop-opacity="0"/>
</linearGradient>
<linearGradient id="paint1_linear" x1="28.9286" y1="37.1429" x2="47.5" y2="91" gradientUnits="userSpaceOnUse">
<stop stop-color="white"/>
<stop offset="1" stop-color="white" stop-opacity="0"/>
</linearGradient>
<clipPath id="clip0">
<rect width="19" height="18" fill="white" transform="translate(34 34)"/>
</clipPath>
</defs>
</svg>
