<svg width="103" height="103" viewBox="0 0 103 103" fill="none" xmlns="http://www.w3.org/2000/svg">
<g filter="url(#filter0_d)">
<circle cx="47.5" cy="45.5" r="45.5" fill="#F0F0F0"/>
<circle cx="47.5" cy="45.5" r="45.5" fill="url(#paint0_linear)"/>
<circle cx="47.5" cy="45.5" r="41" stroke="#F6F6F6" stroke-width="9"/>
<circle cx="47.5" cy="45.5" r="41" stroke="url(#paint1_linear)" stroke-width="9"/>
</g>
<path d="M44 38.5L42.5 40L41.5 37L45 32.5L56.5 32V37.5H53.5L49.5 36.5L44 37V38.5Z" fill="#D09765"/>
<path d="M37.5 61.5V56L38.5 54.5L44 52.5L46.5 55.5L49 53.5L52 55.5L53.5 53H55L59.5 54L60.5 55.5V61.5H49H37.5Z" fill="#5FB64B"/>
<path d="M65.8197 44.3895C64.3225 43.641 61.5153 43.6323 61.3966 43.6323C61.0406 43.6323 60.752 43.9209 60.752 44.2769C60.752 44.6328 61.0406 44.9214 61.3966 44.9214C62.1209 44.9215 64.2241 45.033 65.2432 45.5426C65.3358 45.5889 65.4341 45.6107 65.5309 45.6107C65.7674 45.6107 65.995 45.4801 66.1079 45.2543C66.2672 44.9359 66.1381 44.5488 65.8197 44.3895Z" fill="black"/>
<path d="M69.0331 53.566L66.3711 52.8055C66.2562 52.7727 66.176 52.6663 66.176 52.5467V51.6582C66.3925 51.5082 66.5991 51.3402 66.7922 51.1528C67.7281 50.2446 68.2435 49.0265 68.2435 47.7226V46.4966L68.5009 45.9819C68.7833 45.4168 68.9326 44.7842 68.9326 44.1526V40.8311C68.9326 40.4752 68.644 40.1866 68.2881 40.1866H62.0857C59.8304 40.1866 57.9954 42.0215 57.9954 44.2769V44.3153C57.9954 44.8405 58.1196 45.3666 58.3545 45.8363L58.6846 46.4965V47.5492C58.6846 49.2176 59.5067 50.7145 60.752 51.6153L60.7522 52.5466C60.7522 52.6902 60.7522 52.7496 60.22 52.9017L58.9211 53.2728L55.1639 51.9066C55.1774 51.7293 55.1175 51.549 54.9882 51.4131L53.7876 50.1517V48.0342C53.9145 47.9296 54.0396 47.8222 54.1609 47.7086C55.6755 46.2889 56.5442 44.2845 56.5442 42.2094V40.5183C57.0016 39.5231 57.2333 38.4699 57.2333 37.3853V30.494C57.2333 30.138 56.9447 29.8494 56.5888 29.8494H46.9407C43.5453 29.8494 40.783 32.6118 40.783 36.0071V37.3855C40.783 38.4701 41.0148 39.5232 41.4721 40.5185V41.9735C41.4721 44.3828 42.5434 46.5534 44.2288 47.9845V50.1518L43.0281 51.4132C42.8988 51.5491 42.839 51.7294 42.8525 51.9067L38.8869 53.3486C38.5995 53.4531 38.3325 53.5946 38.0901 53.7661L37.4674 53.4547C39.321 52.6479 39.9082 51.5131 39.9364 51.4567C40.0272 51.2753 40.0272 51.0616 39.9364 50.8802C39.4718 49.9509 39.4155 48.2475 39.3703 46.8789C39.3552 46.4232 39.341 45.9928 39.3137 45.6095C39.094 42.518 36.7438 40.1866 33.8468 40.1866C30.9499 40.1866 28.5996 42.5179 28.3799 45.6095C28.3527 45.9929 28.3384 46.4233 28.3234 46.8791C28.2781 48.2476 28.2218 49.9508 27.7572 50.8801C27.6664 51.0615 27.6664 51.2752 27.7572 51.4566C27.7854 51.513 28.3714 52.6455 30.2288 53.4533L28.4991 54.3181C27.5744 54.7808 27 55.7102 27 56.7439V61.5056C27 61.8616 27.2886 62.1502 27.6445 62.1502C28.0005 62.1502 28.2891 61.8616 28.2891 61.5056V56.7439C28.2891 56.2015 28.5904 55.7138 29.0756 55.4712L31.2294 54.3943L31.9786 55.1063C32.5025 55.6041 33.1745 55.8529 33.8468 55.8529C34.5189 55.8529 35.1913 55.6039 35.715 55.1063L36.4641 54.3944L37.1664 54.7455C36.8357 55.2746 36.648 55.8951 36.648 56.545V61.5058C36.648 61.8617 36.9366 62.1503 37.2926 62.1503C37.6485 62.1503 37.9371 61.8617 37.9371 61.5058V56.545C37.9371 55.6602 38.4958 54.8626 39.3274 54.5602L43.5084 53.0398L45.2489 55.6507C45.4714 55.9845 45.828 56.1986 46.2271 56.2381C46.2717 56.2425 46.3159 56.2446 46.3601 56.2446C46.7123 56.2446 47.0496 56.106 47.3017 55.8539L48.3635 54.7921V61.5059C48.3635 61.8618 48.6521 62.1504 49.0081 62.1504C49.364 62.1504 49.6526 61.8618 49.6526 61.5059V54.7921L50.7145 55.8539C50.9665 56.1061 51.3038 56.2447 51.6561 56.2447C51.7002 56.2447 51.7445 56.2426 51.7889 56.2382C52.1882 56.1986 52.5448 55.9846 52.7672 55.6508L54.5078 53.04L58.6888 54.5603C59.5203 54.8627 60.0791 55.6604 60.0791 56.5452V61.506C60.0791 61.8619 60.3676 62.1505 60.7236 62.1505C61.0795 62.1505 61.3681 61.8619 61.3681 61.506V56.5452C61.3681 55.6491 61.0121 54.8086 60.4148 54.187L60.5741 54.1416C60.7347 54.0957 60.9538 54.0328 61.1738 53.925L62.8194 55.5706V61.506C62.8194 61.8619 63.108 62.1505 63.464 62.1505C63.8199 62.1505 64.1085 61.8619 64.1085 61.506V55.5706L65.7427 53.9364C65.8296 53.9806 65.9208 54.0179 66.0169 54.0453L68.6789 54.8058C69.2865 54.9794 69.7109 55.5421 69.7109 56.1741V61.506C69.7109 61.8619 69.9995 62.1505 70.3555 62.1505C70.7114 62.1505 71 61.8619 71 61.506V56.1741C71 54.9694 70.1912 53.897 69.0331 53.566ZM31.1349 52.4276C29.9293 51.9938 29.3245 51.4154 29.0664 51.0996C29.2424 50.6395 29.3565 50.1125 29.4337 49.5563C29.7892 50.4085 30.3845 51.1361 31.1349 51.6551V52.4276ZM34.8272 54.172C34.2774 54.6943 33.4163 54.6942 32.8667 54.1719L32.2673 53.6023C32.3684 53.4128 32.424 53.198 32.424 52.9729V52.2859C32.8737 52.4264 33.3516 52.5022 33.847 52.5022C34.3417 52.5022 34.8195 52.4261 35.2699 52.2863L35.2698 52.9728C35.2698 53.198 35.3253 53.4129 35.4265 53.6025L34.8272 54.172ZM33.8472 51.2131C31.9225 51.2131 30.3568 49.6474 30.3568 47.7228C30.3568 47.3668 30.0682 47.0783 29.7123 47.0783C29.6762 47.0783 29.6409 47.082 29.6065 47.0877C29.6084 47.0323 29.6102 46.9768 29.6121 46.9219C29.6264 46.4787 29.6403 46.0601 29.6658 45.701C29.7481 44.5429 30.2109 43.4758 30.9689 42.696C31.7336 41.9091 32.7558 41.4758 33.847 41.4758C34.9382 41.4758 35.9603 41.9091 36.7251 42.696C37.4831 43.4758 37.9459 44.5429 38.0282 45.701C38.0536 46.06 38.0675 46.4785 38.0822 46.9216C38.0834 46.9597 38.0847 46.9983 38.086 47.0366C37.3848 45.9562 36.3018 45.16 34.9025 44.7103C33.6097 44.295 32.4979 44.3207 32.4509 44.3219C32.2821 44.3266 32.122 44.3973 32.0048 44.5188L30.8419 45.7248C30.5949 45.9811 30.6022 46.3891 30.8585 46.6362C31.1148 46.8833 31.5228 46.8758 31.7699 46.6196L32.7375 45.6161C33.5709 45.6569 36.2519 45.9686 37.2945 48.2646C37.0322 49.9566 35.5779 51.2131 33.8472 51.2131ZM36.5587 52.4298L36.5588 51.661C37.3086 51.1448 37.9048 50.4187 38.2605 49.56C38.3377 50.1149 38.4518 50.6407 38.6274 51.0998C38.3707 51.4126 37.7632 51.9961 36.5587 52.4298ZM42.7612 41.9734V40.3743C42.7612 40.2773 42.7393 40.1814 42.6971 40.094C42.2824 39.2352 42.0721 38.3239 42.0721 37.3855V36.0072C42.0721 33.3226 44.2562 31.1386 46.9407 31.1386H55.9443V37.3855C55.9443 38.324 55.734 39.2353 55.3192 40.0941C55.277 40.1815 55.2551 40.2773 55.2551 40.3744V42.2096C55.2551 43.955 54.5535 45.574 53.2793 46.7683C53.1203 46.9173 52.9552 47.057 52.7845 47.1872C52.7807 47.1898 52.7771 47.1926 52.7734 47.1953C51.5798 48.1015 50.1179 48.5419 48.5911 48.443C45.322 48.2314 42.7612 45.3896 42.7612 41.9734ZM46.3903 54.9423C46.3858 54.9468 46.3754 54.9574 46.3543 54.9551C46.3334 54.9531 46.3251 54.9408 46.3216 54.9354L44.3171 51.9287L44.9621 51.2509L48.003 53.3294L46.3903 54.9423ZM49.0082 52.455L45.5178 50.0692V48.8661C46.4209 49.3543 47.4322 49.6597 48.5077 49.7293C48.6776 49.7403 48.8464 49.7457 49.0148 49.7457C50.2472 49.7457 51.4333 49.4511 52.4985 48.8919V50.0692L49.0082 52.455ZM51.6947 54.9356C51.6912 54.9409 51.683 54.9532 51.662 54.9553C51.6409 54.958 51.6306 54.9469 51.6261 54.9425L50.0133 53.3297L53.0542 51.251L53.6993 51.9288L51.6947 54.9356ZM63.464 54.3918L62.0013 52.9292C62.0268 52.8133 62.0413 52.6864 62.0412 52.5464L62.0411 52.2744C62.447 52.4076 62.8748 52.4867 63.3174 52.4999C63.3671 52.5014 63.4164 52.5021 63.4659 52.5021C63.955 52.5021 64.4325 52.4282 64.8869 52.2872V52.5467C64.8869 52.6753 64.9031 52.8013 64.9335 52.9224L63.464 54.3918ZM65.8945 50.2278C65.2114 50.8907 64.309 51.2408 63.3562 51.2114C61.491 51.1555 59.9736 49.5126 59.9736 47.5494V46.3444C59.9736 46.2443 59.9503 46.1457 59.9056 46.0562L59.5074 45.2599C59.3616 44.9682 59.2845 44.6416 59.2845 44.3154V44.277C59.2845 42.7323 60.5411 41.4757 62.0857 41.4757H67.6435V44.1527C67.6435 44.5853 67.5413 45.0185 67.3478 45.4055L67.0225 46.0562C66.9777 46.1458 66.9544 46.2443 66.9544 46.3444V47.7227C66.9544 48.6749 66.578 49.5645 65.8945 50.2278Z" fill="black"/>
<path d="M67.5988 56.7262C67.2429 56.7262 66.9543 57.0148 66.9543 57.3707V61.5056C66.9543 61.8616 67.2429 62.1501 67.5988 62.1501C67.9548 62.1501 68.2434 61.8616 68.2434 61.5056V57.3707C68.2434 57.0149 67.9548 56.7262 67.5988 56.7262Z" fill="black"/>
<path d="M30.4012 57.5782C30.0452 57.5782 29.7566 57.8668 29.7566 58.2227V61.5056C29.7566 61.8616 30.0452 62.1501 30.4012 62.1501C30.7571 62.1501 31.0457 61.8616 31.0457 61.5056V58.2227C31.0457 57.8669 30.7571 57.5782 30.4012 57.5782Z" fill="black"/>
<path d="M54.2879 37.619C51.8502 35.1813 46.7499 35.6473 44.67 35.9608C44.0149 36.0595 43.5395 36.6139 43.5395 37.279V38.7638C43.5395 39.1198 43.8281 39.4083 44.1841 39.4083C44.54 39.4083 44.8286 39.1198 44.8286 38.7638V37.2789C44.8286 37.257 44.843 37.2382 44.8623 37.2353C45.693 37.1101 47.3416 36.9169 49.0496 37.0308C51.0595 37.1646 52.5153 37.6691 53.3765 38.5304C53.6282 38.7821 54.0363 38.7821 54.2879 38.5304C54.5396 38.2787 54.5396 37.8706 54.2879 37.619Z" fill="black"/>
<path d="M41.4275 58.1046C41.0716 58.1046 40.783 58.3931 40.783 58.7491V61.5057C40.783 61.8617 41.0716 62.1502 41.4275 62.1502C41.7835 62.1502 42.0721 61.8617 42.0721 61.5057V58.7491C42.0721 58.3932 41.7835 58.1046 41.4275 58.1046Z" fill="black"/>
<path d="M56.5888 58.1046C56.2328 58.1046 55.9443 58.3931 55.9443 58.7491V61.5057C55.9443 61.8617 56.2328 62.1502 56.5888 62.1502C56.9447 62.1502 57.2333 61.8617 57.2333 61.5057V58.7491C57.2333 58.3932 56.9447 58.1046 56.5888 58.1046Z" fill="black"/>
<defs>
<filter id="filter0_d" x="0" y="0" width="103" height="103" filterUnits="userSpaceOnUse" color-interpolation-filters="sRGB">
<feFlood flood-opacity="0" result="BackgroundImageFix"/>
<feColorMatrix in="SourceAlpha" type="matrix" values="0 0 0 0 0 0 0 0 0 0 0 0 0 0 0 0 0 0 127 0"/>
<feOffset dx="4" dy="6"/>
<feGaussianBlur stdDeviation="3"/>
<feColorMatrix type="matrix" values="0 0 0 0 0 0 0 0 0 0 0 0 0 0 0 0 0 0 0.25 0"/>
<feBlend mode="normal" in2="BackgroundImageFix" result="effect1_dropShadow"/>
<feBlend mode="normal" in="SourceGraphic" in2="effect1_dropShadow" result="shape"/>
</filter>
<linearGradient id="paint0_linear" x1="31.25" y1="23.6786" x2="79.0714" y2="97.0357" gradientUnits="userSpaceOnUse">
<stop stop-color="white" stop-opacity="0.89"/>
<stop offset="1" stop-color="white" stop-opacity="0"/>
</linearGradient>
<linearGradient id="paint1_linear" x1="28.9286" y1="37.1429" x2="47.5" y2="91" gradientUnits="userSpaceOnUse">
<stop stop-color="white"/>
<stop offset="1" stop-color="white" stop-opacity="0"/>
</linearGradient>
</defs>
</svg>
