<svg width="103" height="103" viewBox="0 0 103 103" fill="none" xmlns="http://www.w3.org/2000/svg">
<g filter="url(#filter0_d)">
<circle cx="47.5" cy="45.5" r="45.5" fill="#F0F0F0"/>
<circle cx="47.5" cy="45.5" r="45.5" fill="url(#paint0_linear)"/>
<circle cx="47.5" cy="45.5" r="41" stroke="#F6F6F6" stroke-width="9"/>
<circle cx="47.5" cy="45.5" r="41" stroke="url(#paint1_linear)" stroke-width="9"/>
</g>
<ellipse cx="37.5" cy="48.5" rx="7.5" ry="6.5" fill="#5FB64B"/>
<rect x="45" y="38" width="20" height="3" fill="#D09765"/>
<path d="M47 48.5C47 43.8129 42.9629 40 38 40C33.0371 40 29 43.8129 29 48.5C29 53.1871 33.0371 57 38 57C42.9629 57 47 53.1871 47 48.5ZM30.2857 48.5C30.2857 44.4825 33.7462 41.2143 38 41.2143C42.2538 41.2143 45.7143 44.4825 45.7143 48.5C45.7143 52.5175 42.2538 55.7857 38 55.7857C33.7462 55.7857 30.2857 52.5175 30.2857 48.5Z" fill="black"/>
<path d="M38.2 54V52.872C39.7708 52.7334 41 51.6955 41 50.425C41 49.0605 39.5867 47.95 37.85 47.95H37.15C36.1847 47.95 35.4 47.3329 35.4 46.575C35.4 45.8171 36.1847 45.2 37.15 45.2H37.85C38.8153 45.2 39.6 45.8171 39.6 46.575V46.85H41V46.575C41 45.3045 39.7708 44.2667 38.2 44.1281V43H36.8V44.1281C35.2292 44.2667 34 45.3045 34 46.575C34 47.9395 35.4133 49.05 37.15 49.05H37.85C38.8153 49.05 39.6 49.6671 39.6 50.425C39.6 51.1829 38.8153 51.8 37.85 51.8H37.15C36.1847 51.8 35.4 51.1829 35.4 50.425V50.15H34V50.425C34 51.6955 35.2292 52.7334 36.8 52.872V54H38.2Z" fill="black"/>
<path d="M38.1667 31.8H56.8333V33H58V30C58 28.3458 56.6916 27 55.0833 27H39.9167C38.3084 27 37 28.3458 37 30V39H38.1667V31.8ZM38.1667 30C38.1667 29.0076 38.9518 28.2 39.9167 28.2H55.0833C56.0482 28.2 56.8333 29.0076 56.8333 30V30.6H38.1667V30Z" fill="black"/>
<path d="M37 61C37 62.6542 38.3084 64 39.9167 64H55.0833C56.6916 64 58 62.6542 58 61V58H37V61ZM38.1667 59.2H56.8333V61C56.8333 61.9924 56.0482 62.8 55.0833 62.8H39.9167C38.9518 62.8 38.1667 61.9924 38.1667 61V59.2Z" fill="black"/>
<path d="M49 60H46V61H49V60Z" fill="black"/>
<path d="M64.2632 34H45.7368C44.7793 34 44 34.7765 44 35.7308V40.9231H44.5789H45.1579H64.8421V47.2692C64.8421 47.5871 64.5827 47.8462 64.2632 47.8462H47.4737V49H64.2632C65.2207 49 66 48.2235 66 47.2692V35.7308C66 34.7765 65.2207 34 64.2632 34ZM64.8421 39.7692H45.1579V37.4615H64.8421V39.7692ZM64.8421 36.3077H45.1579V35.7308C45.1579 35.4129 45.4173 35.1538 45.7368 35.1538H64.2632C64.5827 35.1538 64.8421 35.4129 64.8421 35.7308V36.3077Z" fill="black"/>
<path d="M58.5 45.4818C58.9719 45.7968 59.6565 46 60.4286 46C61.8467 46 63 45.3273 63 44.5C63 43.6727 61.8467 43 60.4286 43C59.6565 43 58.9719 43.2032 58.5 43.5182C58.0281 43.2032 57.3435 43 56.5714 43C55.1533 43 54 43.6727 54 44.5C54 45.3273 55.1533 46 56.5714 46C57.3435 46 58.0281 45.7968 58.5 45.4818ZM60.4286 43.75C61.1376 43.75 61.7143 44.0864 61.7143 44.5C61.7143 44.9136 61.1376 45.25 60.4286 45.25C59.7195 45.25 59.1429 44.9136 59.1429 44.5C59.1429 44.0864 59.7195 43.75 60.4286 43.75ZM55.2857 44.5C55.2857 44.0864 55.8624 43.75 56.5714 43.75C57.2805 43.75 57.8571 44.0864 57.8571 44.5C57.8571 44.9136 57.2805 45.25 56.5714 45.25C55.8624 45.25 55.2857 44.9136 55.2857 44.5Z" fill="black"/>
<path d="M58 49H57V58H58V49Z" fill="black"/>
<path d="M50 51H48V52H50V51Z" fill="black"/>
<path d="M53 51H51V52H53V51Z" fill="black"/>
<defs>
<filter id="filter0_d" x="0" y="0" width="103" height="103" filterUnits="userSpaceOnUse" color-interpolation-filters="sRGB">
<feFlood flood-opacity="0" result="BackgroundImageFix"/>
<feColorMatrix in="SourceAlpha" type="matrix" values="0 0 0 0 0 0 0 0 0 0 0 0 0 0 0 0 0 0 127 0"/>
<feOffset dx="4" dy="6"/>
<feGaussianBlur stdDeviation="3"/>
<feColorMatrix type="matrix" values="0 0 0 0 0 0 0 0 0 0 0 0 0 0 0 0 0 0 0.25 0"/>
<feBlend mode="normal" in2="BackgroundImageFix" result="effect1_dropShadow"/>
<feBlend mode="normal" in="SourceGraphic" in2="effect1_dropShadow" result="shape"/>
</filter>
<linearGradient id="paint0_linear" x1="31.25" y1="23.6786" x2="79.0714" y2="97.0357" gradientUnits="userSpaceOnUse">
<stop stop-color="white" stop-opacity="0.89"/>
<stop offset="1" stop-color="white" stop-opacity="0"/>
</linearGradient>
<linearGradient id="paint1_linear" x1="28.9286" y1="37.1429" x2="47.5" y2="91" gradientUnits="userSpaceOnUse">
<stop stop-color="white"/>
<stop offset="1" stop-color="white" stop-opacity="0"/>
</linearGradient>
</defs>
</svg>
