<svg width="868" height="251" viewBox="0 0 868 251" fill="none" xmlns="http://www.w3.org/2000/svg">
<g opacity="0.3" clip-path="url(#clip0)">
<path d="M747.881 102.95L751.144 99.4485C750.951 99.2722 750.748 99.1074 750.537 98.9543C750.474 98.9088 750.405 98.8642 750.339 98.8187C750.145 98.6848 749.937 98.5525 749.715 98.4213C749.631 98.3715 749.548 98.3216 749.46 98.2723C749.156 98.1006 748.836 97.9302 748.489 97.7676C745.928 96.541 743.135 95.8752 740.296 95.8138C736.084 95.9695 733.14 99.1794 733.214 101.266C733.288 103.352 736.449 106.349 740.666 106.207C742.517 106.066 744.334 105.63 746.048 104.916L747.881 102.95ZM740.591 104.121C738.935 104.187 737.319 103.595 736.098 102.474C736.098 102.474 736.09 102.466 736.086 102.463C735.944 102.326 735.813 102.18 735.693 102.025C735.592 101.894 735.503 101.753 735.429 101.606C735.299 101.34 735.288 101.032 735.399 100.758C736.431 98.9879 738.323 97.8952 740.372 97.8867C743.021 97.9749 745.62 98.6361 747.988 99.8256C748.282 99.9721 748.489 100.248 748.547 100.571C748.606 100.894 748.509 101.225 748.285 101.465C748.216 101.537 748.138 101.6 748.052 101.652C745.775 103.003 743.232 103.844 740.598 104.118L740.591 104.121Z" fill="#F2F2F2"/>
<path d="M770.702 145.531L782.039 133.367L757.712 110.693L744.249 125.137L766.295 145.685C767.555 146.859 769.528 146.79 770.702 145.531Z" fill="#F2F2F2"/>
<path d="M734.521 120.332L748.692 105.127L754.774 110.796L740.603 126L734.521 120.332Z" fill="#F2F2F2"/>
<path d="M759.129 109.172L761.963 106.131L786.29 128.806L783.456 131.847L759.129 109.172Z" fill="#F2F2F2"/>
<path d="M737.682 101.103C737.805 101.201 737.934 101.293 738.068 101.377C738.101 101.397 738.129 101.417 738.163 101.437C738.196 101.458 738.257 101.489 738.303 101.515C738.35 101.541 738.408 101.574 738.464 101.602C738.569 101.652 738.68 101.702 738.795 101.748L738.803 101.755C739.347 101.967 739.929 102.067 740.513 102.047C742.069 101.898 743.589 101.492 745.013 100.845C743.546 100.3 742 100.002 740.435 99.9633C739.411 100.003 738.434 100.407 737.682 101.103Z" fill="#F2F2F2"/>
<path d="M776.843 90.1668L763.38 104.611L787.707 127.285L799.045 115.122C800.218 113.862 800.149 111.889 798.89 110.715L776.843 90.1668Z" fill="#F2F2F2"/>
<path d="M757.195 96.0048L771.367 80.8004L777.449 86.469L763.277 101.673L757.195 96.0048Z" fill="#F2F2F2"/>
<path d="M747.309 88.2878C747.556 91.006 748.363 93.6438 749.678 96.0361C749.704 96.0489 749.732 96.0651 749.758 96.0782C749.944 96.1715 750.133 96.27 750.33 96.3787C750.361 96.3956 750.39 96.4103 750.424 96.4307C750.646 96.5536 750.87 96.6868 751.093 96.8269C751.153 96.865 751.211 96.9042 751.269 96.9424C751.439 97.0524 751.604 97.1665 751.766 97.2847C751.832 97.3334 751.896 97.3799 751.96 97.4287C752.152 97.5763 752.338 97.7292 752.513 97.8885L752.562 97.9345L756.797 93.3914C757.387 91.6311 757.692 89.7872 757.701 87.9303C757.545 83.7153 754.336 80.7721 752.248 80.8455C750.161 80.9189 747.167 84.0727 747.309 88.2878ZM755.621 87.9938C755.536 90.6446 754.875 93.245 753.684 95.6142C753.639 95.7037 753.582 95.7861 753.514 95.8593C753.29 96.0991 752.966 96.2196 752.64 96.1837C752.315 96.1484 752.024 95.9612 751.858 95.6784C750.503 93.3987 749.661 90.8512 749.39 88.2132C749.273 86.1705 750.225 84.2136 751.905 83.0459C752.17 82.9159 752.477 82.9051 752.75 83.0162C754.507 84.0631 755.594 85.9485 755.621 87.9938Z" fill="#F2F2F2"/>
<path d="M750.11 103.607L755.778 97.5252L761.86 103.194L756.191 109.276L750.11 103.607Z" fill="#F2F2F2"/>
<path d="M752.665 92.6434C753.212 91.1773 753.509 89.6298 753.546 88.0656C753.509 87.0372 753.105 86.0565 752.408 85.3001C751.766 86.1036 751.433 87.1102 751.468 88.138C751.613 89.6961 752.018 91.2186 752.665 92.6434Z" fill="#F2F2F2"/>
</g>
<g opacity="0.15" clip-path="url(#clip1)">
<path d="M773.163 175.229L773.021 172.23C772.857 172.239 772.694 172.258 772.533 172.286C772.485 172.295 772.435 172.306 772.385 172.316C772.24 172.344 772.09 172.38 771.934 172.422C771.874 172.438 771.816 172.453 771.755 172.471C771.545 172.532 771.328 172.601 771.103 172.686C769.431 173.298 767.908 174.26 766.637 175.508C764.862 177.467 765.013 180.195 765.982 181.075C766.952 181.956 769.681 181.849 771.465 179.894C772.213 179.002 772.813 177.995 773.243 176.913L773.163 175.229ZM770.496 179.014C769.8 179.787 768.826 180.252 767.788 180.31C767.788 180.31 767.781 180.31 767.778 180.31C767.655 180.314 767.531 180.309 767.409 180.295C767.306 180.283 767.204 180.261 767.105 180.23C766.929 180.172 766.786 180.042 766.712 179.872C766.369 178.633 766.707 177.305 767.601 176.381C768.801 175.231 770.236 174.354 771.808 173.812C772.002 173.744 772.217 173.772 772.387 173.887C772.558 174.002 772.664 174.191 772.673 174.397C772.676 174.459 772.67 174.522 772.656 174.583C772.264 176.197 771.528 177.707 770.498 179.01L770.496 179.014Z" fill="#F2F2F2"/>
<path d="M802.275 183.636L801.781 173.218L780.945 174.207L781.532 186.578L800.414 185.682C801.493 185.631 802.326 184.715 802.275 183.636Z" fill="#F2F2F2"/>
<path d="M775.114 188.84L774.496 175.818L779.705 175.571L780.323 188.593L775.114 188.84Z" fill="#F2F2F2"/>
<path d="M780.884 172.905L780.76 170.3L801.595 169.312L801.719 171.916L780.884 172.905Z" fill="#F2F2F2"/>
<path d="M767.866 178.998C767.965 178.986 768.062 178.968 768.159 178.945C768.182 178.939 768.203 178.935 768.227 178.929C768.251 178.923 768.292 178.909 768.324 178.899C768.356 178.89 768.396 178.878 768.433 178.866C768.501 178.841 768.573 178.813 768.644 178.781L768.65 178.78C768.984 178.629 769.283 178.412 769.53 178.141C770.145 177.377 770.629 176.517 770.962 175.594C770.075 176.014 769.264 176.578 768.561 177.263C768.13 177.74 767.884 178.355 767.866 178.998Z" fill="#F2F2F2"/>
<path d="M780.111 156.627L780.698 168.998L801.533 168.01L801.039 157.592C800.988 156.513 800.072 155.68 798.993 155.731L780.111 156.627Z" fill="#F2F2F2"/>
<path d="M774.126 168.005L773.508 154.983L778.716 154.736L779.334 167.758L774.126 168.005Z" fill="#F2F2F2"/>
<path d="M766.331 169.063C767.659 170.142 769.197 170.936 770.847 171.393C770.864 171.387 770.883 171.382 770.901 171.376C771.024 171.333 771.151 171.291 771.286 171.251C771.307 171.244 771.327 171.237 771.351 171.231C771.503 171.185 771.661 171.143 771.822 171.104C771.865 171.094 771.908 171.085 771.951 171.076C772.074 171.048 772.198 171.024 772.322 171.003C772.372 170.995 772.421 170.986 772.471 170.979C772.622 170.957 772.772 170.941 772.92 170.932L772.962 170.93L772.778 167.039C772.246 166.003 771.552 165.058 770.722 164.241C768.762 162.465 766.035 162.616 765.153 163.586C764.272 164.555 764.376 167.28 766.331 169.063ZM769.84 165.203C770.993 166.402 771.87 167.838 772.412 169.41C772.433 169.469 772.445 169.531 772.447 169.594C772.457 169.799 772.369 169.998 772.211 170.128C772.052 170.259 771.841 170.307 771.641 170.258C770.024 169.868 768.512 169.13 767.209 168.096C766.24 167.254 765.779 165.969 765.991 164.703C766.048 164.528 766.178 164.385 766.347 164.311C767.587 163.981 768.91 164.319 769.84 165.203Z" fill="#F2F2F2"/>
<path d="M774.435 174.516L774.187 169.307L779.396 169.06L779.643 174.269L774.435 174.516Z" fill="#F2F2F2"/>
<path d="M770.632 168.566C770.213 167.679 769.649 166.867 768.963 166.166C768.485 165.732 767.868 165.483 767.223 165.465C767.303 166.105 767.608 166.696 768.085 167.13C768.848 167.747 769.709 168.233 770.632 168.566Z" fill="#F2F2F2"/>
</g>
<g opacity="0.35" clip-path="url(#clip2)">
<path d="M701.553 57.2213L695.974 57.9991C696.02 58.3032 696.083 58.6044 696.163 58.9013C696.186 58.9896 696.216 59.0814 696.242 59.1717C696.321 59.4382 696.413 59.7135 696.518 59.9979C696.558 60.1057 696.596 60.2125 696.64 60.3228C696.791 60.7057 696.957 61.0986 697.153 61.5047C698.583 64.525 700.641 67.2052 703.189 69.3672C707.152 72.3496 712.223 71.6011 713.703 69.6403C715.182 67.6788 714.517 62.5966 710.56 59.5982C708.765 58.3533 706.781 57.4034 704.685 56.7846L701.553 57.2213ZM709.081 61.5589C710.644 62.7273 711.68 64.467 711.964 66.3965C711.964 66.3965 711.966 66.4101 711.966 66.4161C711.995 66.6454 712.006 66.8765 712.001 67.1076C711.996 67.3025 711.973 67.4962 711.931 67.6865C711.853 68.0254 711.634 68.3152 711.33 68.483C709.073 69.3342 706.535 68.929 704.656 67.4165C702.302 65.371 700.418 62.8396 699.137 59.9958C698.978 59.6442 698.993 59.2381 699.179 58.9004C699.365 58.5621 699.7 58.3316 700.082 58.2784C700.198 58.2627 700.316 58.2631 700.433 58.2801C703.516 58.7353 706.463 59.8529 709.072 61.5565L709.081 61.5589Z" fill="#F2F2F2"/>
<path d="M712.292 1.39295L692.912 4.09481L698.315 42.8551L721.329 39.6466L716.432 4.52012C716.152 2.51339 714.299 1.11318 712.292 1.39295Z" fill="#F2F2F2"/>
<path d="M726.652 51.2525L702.427 54.6299L701.076 44.9398L725.301 41.5625L726.652 51.2525Z" fill="#F2F2F2"/>
<path d="M695.893 43.1928L691.048 43.8683L685.644 5.10801L690.489 4.43255L695.893 43.1928Z" fill="#F2F2F2"/>
<path d="M709.5 66.4747C709.46 66.2927 709.411 66.1134 709.35 65.9373C709.335 65.8947 709.325 65.8558 709.309 65.8122C709.293 65.7686 709.261 65.6953 709.237 65.6371C709.215 65.5781 709.186 65.5056 709.156 65.4387C709.097 65.3147 709.033 65.1862 708.961 65.0594L708.959 65.047C708.62 64.4492 708.162 63.9269 707.614 63.5119C706.082 62.4938 704.392 61.737 702.612 61.2719C703.547 62.8575 704.739 64.277 706.139 65.4727C707.104 66.1968 708.296 66.5521 709.5 66.4747Z" fill="#F2F2F2"/>
<path d="M665.611 47.4144L688.625 44.206L683.222 5.44571L663.842 8.14757C661.835 8.42734 660.435 10.2812 660.714 12.2879L665.611 47.4144Z" fill="#F2F2F2"/>
<path d="M687.892 56.6562L663.666 60.0336L662.316 50.3435L686.541 46.9662L687.892 56.6562Z" fill="#F2F2F2"/>
<path d="M691.199 71.04C692.989 68.3732 694.209 65.3651 694.782 62.2042C694.768 62.1731 694.754 62.1376 694.74 62.1064C694.64 61.8834 694.54 61.6526 694.44 61.4072C694.425 61.369 694.409 61.3338 694.393 61.2902C694.282 61.0133 694.176 60.7254 694.076 60.4318C694.05 60.3529 694.025 60.2737 694.001 60.1957C693.928 59.9696 693.861 59.7425 693.801 59.5145C693.777 59.4214 693.753 59.3313 693.73 59.2391C693.665 58.9619 693.609 58.6846 693.567 58.4089L693.556 58.3302L686.317 59.3394C684.472 60.5094 682.825 61.9678 681.44 63.6579C678.456 67.624 679.204 72.6935 681.166 74.1751C683.127 75.6562 688.201 74.9958 691.199 71.04ZM683.387 65.1428C685.431 62.7838 687.964 60.8986 690.81 59.618C690.917 59.5693 691.03 59.5366 691.147 59.5203C691.529 59.4671 691.914 59.5973 692.185 59.8718C692.457 60.1456 692.583 60.532 692.525 60.9139C692.072 64.0014 690.951 66.9534 689.242 69.5642C687.834 71.5175 685.512 72.5985 683.111 72.4194C682.773 72.3418 682.485 72.1239 682.318 71.8199C681.489 69.5599 681.894 67.0307 683.387 65.1428Z" fill="#F2F2F2"/>
<path d="M700.004 54.9676L690.314 56.3185L688.963 46.6285L698.653 45.2775L700.004 54.9676Z" fill="#F2F2F2"/>
<path d="M689.536 63.0875C687.95 64.0214 686.53 65.2147 685.336 66.6165C684.607 67.5834 684.248 68.7784 684.324 69.9869C685.506 69.7287 686.557 69.0564 687.288 68.0917C688.311 66.5605 689.071 64.8695 689.536 63.0875Z" fill="#F2F2F2"/>
</g>
<g opacity="0.18" clip-path="url(#clip3)">
<path d="M677.529 181.162L676.205 178.293C676.049 178.367 675.898 178.45 675.752 178.541C675.708 178.568 675.664 178.599 675.619 178.628C675.489 178.713 675.356 178.807 675.221 178.91C675.169 178.948 675.118 178.986 675.066 179.028C674.885 179.171 674.701 179.324 674.515 179.495C673.125 180.753 672.021 182.293 671.274 184.012C670.316 186.624 671.541 189.224 672.834 189.701C674.127 190.177 676.748 188.994 677.715 186.383C678.092 185.217 678.28 183.998 678.272 182.773L677.529 181.162ZM676.422 185.908C676.049 186.936 675.283 187.775 674.293 188.24C674.293 188.24 674.286 188.244 674.283 188.245C674.164 188.298 674.042 188.341 673.917 188.376C673.812 188.405 673.704 188.424 673.595 188.432C673.401 188.446 673.21 188.375 673.07 188.239C672.247 187.166 672.052 185.737 672.559 184.483C673.275 182.887 674.328 181.465 675.647 180.315C675.81 180.173 676.03 180.115 676.242 180.16C676.454 180.205 676.632 180.347 676.722 180.544C676.75 180.604 676.769 180.667 676.778 180.732C677.035 182.461 676.913 184.225 676.422 185.903L676.422 185.908Z" fill="#F2F2F2"/>
<path d="M709.244 177.863L704.647 167.898L684.716 177.091L690.174 188.926L708.237 180.594C709.269 180.118 709.72 178.895 709.244 177.863Z" fill="#F2F2F2"/>
<path d="M684.808 193.667L679.062 181.21L684.045 178.912L689.791 191.369L684.808 193.667Z" fill="#F2F2F2"/>
<path d="M684.141 175.846L682.992 173.354L702.923 164.161L704.072 166.652L684.141 175.846Z" fill="#F2F2F2"/>
<path d="M673.851 186.931C673.942 186.88 674.031 186.824 674.115 186.763C674.136 186.748 674.155 186.736 674.176 186.72C674.197 186.705 674.231 186.675 674.258 186.654C674.286 186.632 674.32 186.605 674.351 186.577C674.408 186.526 674.467 186.471 674.523 186.411L674.53 186.408C674.796 186.129 675.002 185.799 675.136 185.437C675.433 184.449 675.565 183.419 675.526 182.388C674.826 183.147 674.258 184.018 673.843 184.963C673.611 185.599 673.614 186.297 673.851 186.931Z" fill="#F2F2F2"/>
<path d="M676.959 160.274L682.417 172.109L702.349 162.915L697.752 152.949C697.276 151.917 696.053 151.467 695.021 151.943L676.959 160.274Z" fill="#F2F2F2"/>
<path d="M675.614 173.736L669.868 161.279L674.851 158.98L680.597 171.438L675.614 173.736Z" fill="#F2F2F2"/>
<path d="M668.429 177.846C670.151 178.375 671.964 178.541 673.754 178.336C673.769 178.323 673.786 178.31 673.8 178.298C673.904 178.207 674.011 178.116 674.127 178.023C674.145 178.008 674.161 177.994 674.182 177.979C674.312 177.874 674.45 177.77 674.591 177.669C674.629 177.642 674.668 177.616 674.706 177.59C674.815 177.514 674.926 177.442 675.039 177.372C675.085 177.344 675.13 177.317 675.175 177.29C675.314 177.21 675.453 177.134 675.595 177.067L675.635 177.048L673.918 173.326C672.99 172.526 671.94 171.878 670.808 171.409C668.194 170.451 665.594 171.676 665.117 172.969C664.64 174.263 665.819 176.88 668.429 177.846ZM670.327 172.696C671.925 173.41 673.348 174.463 674.498 175.783C674.541 175.833 674.577 175.889 674.605 175.949C674.696 176.145 674.688 176.373 674.585 176.563C674.482 176.753 674.295 176.884 674.081 176.915C672.35 177.173 670.583 177.05 668.904 176.556C667.626 176.118 666.669 175.047 666.376 173.729C666.362 173.535 666.432 173.344 666.569 173.205C667.647 172.393 669.071 172.2 670.327 172.696Z" fill="#F2F2F2"/>
<path d="M678.487 179.964L676.189 174.982L681.172 172.683L683.47 177.666L678.487 179.964Z" fill="#F2F2F2"/>
<path d="M672.428 175.663C671.669 174.963 670.798 174.394 669.852 173.981C669.215 173.747 668.515 173.748 667.878 173.985C668.209 174.578 668.74 175.033 669.377 175.269C670.365 175.569 671.396 175.703 672.428 175.663Z" fill="#F2F2F2"/>
</g>
<g opacity="0.3" clip-path="url(#clip4)">
<path d="M608.777 195.655L604.263 193.643C604.155 193.89 604.062 194.143 603.984 194.402C603.96 194.478 603.94 194.561 603.918 194.64C603.852 194.875 603.793 195.122 603.739 195.383C603.719 195.482 603.698 195.579 603.679 195.682C603.613 196.037 603.554 196.406 603.512 196.8C603.173 199.712 603.46 202.663 604.352 205.456C605.918 209.517 610.04 211.315 612.052 210.543C614.065 209.77 615.931 205.678 614.378 201.608C613.619 199.847 612.584 198.219 611.311 196.785L608.777 195.655ZM612.366 202.381C612.986 203.976 612.949 205.752 612.265 207.321C612.265 207.321 612.26 207.332 612.258 207.337C612.172 207.52 612.073 207.698 611.962 207.868C611.868 208.01 611.761 208.144 611.641 208.266C611.426 208.482 611.128 208.596 610.823 208.579C608.748 208.165 607.047 206.684 606.351 204.686C605.548 202.069 605.323 199.31 605.689 196.598C605.734 196.262 605.934 195.967 606.23 195.802C606.525 195.637 606.881 195.621 607.19 195.758C607.285 195.801 607.372 195.856 607.451 195.923C609.535 197.694 611.209 199.895 612.361 202.375L612.366 202.381Z" fill="#F2F2F2"/>
<path d="M642.703 159.084L627.022 152.094L613.04 183.457L631.662 191.758L644.333 163.335C645.057 161.712 644.327 159.808 642.703 159.084Z" fill="#F2F2F2"/>
<path d="M630.233 202.87L610.631 194.132L614.126 186.291L633.728 195.029L630.233 202.87Z" fill="#F2F2F2"/>
<path d="M611.08 182.583L607.159 180.835L621.141 149.472L625.061 151.22L611.08 182.583Z" fill="#F2F2F2"/>
<path d="M610.394 206.235C610.449 206.081 610.496 205.924 610.532 205.765C610.541 205.726 610.551 205.692 610.56 205.653C610.568 205.613 610.578 205.543 610.588 205.489C610.598 205.435 610.611 205.367 610.619 205.303C610.633 205.184 610.645 205.059 610.65 204.931L610.655 204.921C610.68 204.318 610.582 203.717 610.367 203.153C609.699 201.683 608.792 200.335 607.683 199.162C607.643 200.777 607.871 202.387 608.358 203.928C608.74 204.915 609.462 205.733 610.394 206.235Z" fill="#F2F2F2"/>
<path d="M586.577 171.66L605.199 179.961L619.181 148.598L603.499 141.607C601.875 140.883 599.972 141.613 599.248 143.237L586.577 171.66Z" fill="#F2F2F2"/>
<path d="M598.87 188.889L579.268 180.15L582.763 172.309L602.365 181.048L598.87 188.889Z" fill="#F2F2F2"/>
<path d="M594.65 201.132C597.222 199.978 599.527 198.306 601.422 196.219C601.426 196.189 601.432 196.157 601.436 196.127C601.465 195.914 601.498 195.696 601.538 195.467C601.544 195.431 601.548 195.398 601.557 195.358C601.603 195.1 601.658 194.837 601.719 194.572C601.737 194.501 601.755 194.431 601.773 194.361C601.824 194.159 601.88 193.959 601.941 193.761C601.966 193.681 601.99 193.603 602.016 193.523C602.096 193.287 602.183 193.054 602.28 192.829L602.308 192.766L596.451 190.154C594.534 190.168 592.631 190.489 590.815 191.104C586.751 192.67 584.953 196.791 585.725 198.806C586.497 200.819 590.581 202.684 594.65 201.132ZM591.575 193.114C594.192 192.307 596.953 192.08 599.666 192.449C599.769 192.462 599.868 192.491 599.963 192.533C600.272 192.671 600.498 192.946 600.572 193.277C600.647 193.607 600.562 193.953 600.341 194.21C598.57 196.298 596.364 197.975 593.879 199.125C591.924 199.925 589.693 199.651 587.989 198.402C587.774 198.187 587.66 197.891 587.677 197.587C588.11 195.52 589.586 193.826 591.575 193.114Z" fill="#F2F2F2"/>
<path d="M608.671 193.258L600.83 189.762L604.325 181.922L612.166 185.417L608.671 193.258Z" fill="#F2F2F2"/>
<path d="M597.107 194.44C595.492 194.398 593.881 194.627 592.341 195.116C591.349 195.497 590.527 196.22 590.022 197.155C591.022 197.512 592.117 197.5 593.109 197.121C594.581 196.456 595.932 195.55 597.107 194.44Z" fill="#F2F2F2"/>
</g>
<g opacity="0.2" clip-path="url(#clip5)">
<path d="M520.606 155.89L516.766 158.189C516.894 158.397 517.033 158.598 517.184 158.791C517.229 158.848 517.279 158.906 517.326 158.964C517.466 159.134 517.619 159.307 517.784 159.482C517.846 159.549 517.908 159.615 517.974 159.682C518.203 159.916 518.446 160.152 518.716 160.388C520.699 162.153 523.035 163.476 525.569 164.267C529.394 165.219 532.87 163.099 533.345 161.205C533.819 159.311 531.756 155.8 527.931 154.834C526.232 154.481 524.486 154.401 522.761 154.599L520.606 155.89ZM527.458 156.727C528.963 157.097 530.26 158.049 531.067 159.372C531.067 159.372 531.072 159.381 531.075 159.385C531.167 159.544 531.247 159.71 531.315 159.88C531.371 160.025 531.415 160.173 531.443 160.325C531.491 160.598 531.421 160.877 531.25 161.095C529.864 162.417 527.881 162.908 526.038 162.385C523.681 161.619 521.518 160.351 519.699 158.669C519.473 158.461 519.358 158.159 519.39 157.854C519.421 157.549 519.594 157.277 519.857 157.119C519.938 157.072 520.024 157.035 520.115 157.012C522.511 156.388 525.013 156.292 527.451 156.728L527.458 156.727Z" fill="#F2F2F2"/>
<path d="M511.144 111.722L497.806 119.71L513.781 146.385L529.62 136.9L515.142 112.725C514.315 111.344 512.525 110.895 511.144 111.722Z" fill="#F2F2F2"/>
<path d="M537.113 143.738L520.441 153.723L516.447 147.054L533.119 137.069L537.113 143.738Z" fill="#F2F2F2"/>
<path d="M512.114 147.384L508.779 149.381L492.804 122.705L496.138 120.708L512.114 147.384Z" fill="#F2F2F2"/>
<path d="M529.289 160.193C529.203 160.072 529.111 159.957 529.012 159.847C528.989 159.82 528.969 159.795 528.944 159.768C528.919 159.741 528.872 159.697 528.837 159.662C528.802 159.626 528.759 159.582 528.716 159.542C528.634 159.47 528.548 159.396 528.456 159.325L528.45 159.317C528.017 158.985 527.52 158.745 526.99 158.611C525.554 158.342 524.083 158.312 522.636 158.524C523.812 159.394 525.124 160.063 526.52 160.503C527.45 160.733 528.432 160.623 529.289 160.193Z" fill="#F2F2F2"/>
<path d="M491.273 159.865L507.112 150.379L491.137 123.703L477.799 131.691C476.418 132.518 475.968 134.309 476.796 135.69L491.273 159.865Z" fill="#F2F2F2"/>
<path d="M510.437 159.714L493.765 169.699L489.771 163.03L506.443 153.045L510.437 159.714Z" fill="#F2F2F2"/>
<path d="M517.318 169.209C517.8 166.703 517.76 164.125 517.199 161.635C517.178 161.616 517.158 161.595 517.138 161.576C516.995 161.444 516.85 161.307 516.701 161.158C516.678 161.135 516.656 161.114 516.631 161.087C516.463 160.919 516.296 160.741 516.132 160.557C516.089 160.508 516.046 160.457 516.004 160.408C515.88 160.265 515.761 160.12 515.646 159.972C515.6 159.911 515.555 159.853 515.51 159.792C515.375 159.61 515.248 159.424 515.132 159.236L515.1 159.182L510.118 162.165C509.131 163.593 508.379 165.171 507.89 166.837C506.937 170.663 509.057 174.139 510.952 174.615C512.846 175.09 516.353 173.033 517.318 169.209ZM509.775 167.319C510.538 164.959 511.806 162.795 513.491 160.975C513.554 160.906 513.627 160.847 513.707 160.799C513.97 160.642 514.292 160.617 514.576 160.734C514.859 160.85 515.071 161.094 515.148 161.391C515.774 163.79 515.87 166.297 515.429 168.737C515.005 170.602 513.642 172.113 511.83 172.727C511.559 172.775 511.28 172.705 511.064 172.535C509.756 171.139 509.268 169.163 509.775 167.319Z" fill="#F2F2F2"/>
<path d="M518.774 154.722L512.105 158.716L508.111 152.047L514.78 148.053L518.774 154.722Z" fill="#F2F2F2"/>
<path d="M513.635 163.908C512.764 165.083 512.096 166.397 511.658 167.792C511.424 168.726 511.532 169.711 511.963 170.571C512.747 170.016 513.308 169.198 513.543 168.266C513.817 166.828 513.848 165.356 513.635 163.908Z" fill="#F2F2F2"/>
</g>
<g opacity="0.3" clip-path="url(#clip6)">
<path d="M435.428 188.325L434.912 192.133C435.12 192.159 435.33 192.173 435.539 192.175C435.602 192.176 435.667 192.173 435.732 192.172C435.921 192.17 436.119 192.16 436.325 192.143C436.403 192.137 436.48 192.132 436.561 192.123C436.84 192.094 437.129 192.058 437.432 192.004C439.679 191.62 441.818 190.762 443.707 189.487C446.396 187.433 446.838 183.964 445.822 182.631C444.806 181.298 441.346 180.799 438.648 182.847C437.499 183.797 436.51 184.925 435.718 186.187L435.428 188.325ZM439.663 184.179C440.718 183.368 442.052 183.008 443.371 183.176C443.371 183.176 443.381 183.177 443.385 183.178C443.541 183.202 443.695 183.236 443.845 183.282C443.972 183.322 444.095 183.373 444.213 183.435C444.421 183.549 444.571 183.746 444.625 183.977C444.769 185.615 444.035 187.208 442.696 188.164C440.919 189.334 438.91 190.105 436.806 190.423C436.546 190.463 436.282 190.378 436.094 190.194C435.906 190.009 435.816 189.747 435.852 189.486C435.863 189.407 435.885 189.329 435.917 189.256C436.784 187.315 438.061 185.584 439.66 184.184L439.663 184.179Z" fill="#F2F2F2"/>
<path d="M400.735 170.994L398.942 184.221L425.396 187.807L427.525 172.1L403.551 168.85C402.182 168.664 400.921 169.624 400.735 170.994Z" fill="#F2F2F2"/>
<path d="M436.128 170.74L433.887 187.274L427.273 186.378L429.515 169.844L436.128 170.74Z" fill="#F2F2F2"/>
<path d="M425.172 189.46L424.724 192.767L398.27 189.181L398.718 185.874L425.172 189.46Z" fill="#F2F2F2"/>
<path d="M442.969 184.809C442.842 184.801 442.715 184.801 442.589 184.808C442.558 184.81 442.53 184.81 442.499 184.812C442.467 184.815 442.413 184.822 442.371 184.827C442.328 184.831 442.275 184.837 442.225 184.844C442.133 184.86 442.037 184.878 441.94 184.902L441.932 184.901C441.477 185.014 441.049 185.218 440.676 185.502C439.725 186.321 438.917 187.292 438.284 188.375C439.497 188.053 440.649 187.532 441.692 186.832C442.346 186.331 442.798 185.614 442.969 184.809Z" fill="#F2F2F2"/>
<path d="M422.37 210.127L424.499 194.42L398.045 190.834L396.252 204.061C396.067 205.431 397.027 206.692 398.396 206.877L422.37 210.127Z" fill="#F2F2F2"/>
<path d="M432.542 197.194L430.301 213.728L423.687 212.831L425.929 196.298L432.542 197.194Z" fill="#F2F2F2"/>
<path d="M442.599 197.67C441.177 196.003 439.425 194.648 437.455 193.69C437.432 193.693 437.406 193.696 437.383 193.699C437.218 193.724 437.048 193.747 436.868 193.768C436.84 193.771 436.814 193.775 436.783 193.777C436.58 193.799 436.372 193.816 436.161 193.827C436.104 193.83 436.047 193.831 435.992 193.833C435.83 193.84 435.668 193.842 435.507 193.839C435.442 193.838 435.378 193.837 435.314 193.835C435.119 193.827 434.927 193.813 434.738 193.79L434.684 193.782L434.015 198.723C434.443 200.15 435.098 201.5 435.953 202.721C438.009 205.411 441.477 205.853 442.811 204.837C444.145 203.822 444.645 200.367 442.599 197.67ZM437.287 201.715C436.114 199.939 435.342 197.928 435.025 195.823C435.012 195.744 435.012 195.663 435.023 195.583C435.058 195.323 435.214 195.093 435.445 194.966C435.675 194.838 435.952 194.826 436.192 194.935C438.136 195.801 439.869 197.08 441.269 198.684C442.293 199.968 442.575 201.692 442.016 203.236C441.903 203.444 441.706 203.593 441.476 203.647C439.839 203.775 438.252 203.044 437.287 201.715Z" fill="#F2F2F2"/>
<path d="M433.663 188.928L432.766 195.541L426.153 194.644L427.049 188.031L433.663 188.928Z" fill="#F2F2F2"/>
<path d="M437.069 197.298C437.39 198.512 437.913 199.664 438.614 200.706C439.115 201.363 439.834 201.819 440.641 201.992C440.689 201.168 440.441 200.353 439.942 199.696C439.125 198.742 438.154 197.932 437.069 197.298Z" fill="#F2F2F2"/>
</g>
<g opacity="0.3" clip-path="url(#clip7)">
<path d="M254.707 217.406L252.612 216.795C252.58 216.909 252.554 217.026 252.536 217.144C252.53 217.178 252.526 217.216 252.521 217.252C252.506 217.358 252.495 217.47 252.487 217.587C252.484 217.632 252.481 217.676 252.479 217.722C252.471 217.881 252.467 218.046 252.472 218.221C252.498 219.515 252.8 220.789 253.357 221.957C254.284 223.64 256.194 224.181 257.029 223.723C257.863 223.265 258.435 221.363 257.512 219.676C257.076 218.951 256.526 218.3 255.883 217.749L254.707 217.406ZM256.679 220.134C257.045 220.794 257.135 221.574 256.929 222.301C256.929 222.301 256.928 222.306 256.927 222.308C256.901 222.394 256.868 222.477 256.83 222.558C256.797 222.626 256.758 222.691 256.713 222.751C256.631 222.859 256.508 222.926 256.374 222.937C255.441 222.88 254.609 222.334 254.185 221.501C253.678 220.404 253.414 219.211 253.413 218.002C253.412 217.853 253.482 217.712 253.602 217.622C253.721 217.532 253.876 217.504 254.019 217.546C254.063 217.559 254.105 217.577 254.143 217.602C255.16 218.252 256.024 219.115 256.676 220.131L256.679 220.134Z" fill="#F2F2F2"/>
<path d="M267.365 199.383L260.088 197.261L255.844 211.815L264.485 214.335L268.332 201.145C268.551 200.392 268.119 199.603 267.365 199.383Z" fill="#F2F2F2"/>
<path d="M264.524 219.281L255.427 216.629L256.488 212.99L265.585 215.643L264.524 219.281Z" fill="#F2F2F2"/>
<path d="M254.934 211.55L253.115 211.019L257.359 196.465L259.178 196.995L254.934 211.55Z" fill="#F2F2F2"/>
<path d="M256.046 221.937C256.061 221.867 256.072 221.795 256.078 221.723C256.08 221.706 256.082 221.691 256.084 221.673C256.085 221.655 256.085 221.624 256.086 221.599C256.088 221.575 256.089 221.545 256.089 221.516C256.088 221.463 256.086 221.408 256.08 221.351L256.082 221.347C256.057 221.082 255.978 220.824 255.85 220.591C255.47 219.988 254.993 219.452 254.438 219.005C254.517 219.714 254.713 220.405 255.018 221.049C255.244 221.459 255.608 221.773 256.046 221.937Z" fill="#F2F2F2"/>
<path d="M243.564 208.234L252.205 210.754L256.449 196.2L249.172 194.078C248.419 193.858 247.63 194.291 247.41 195.044L243.564 208.234Z" fill="#F2F2F2"/>
<path d="M249.969 215.037L240.873 212.384L241.934 208.746L251.03 211.398L249.969 215.037Z" fill="#F2F2F2"/>
<path d="M248.854 220.645C249.91 219.987 250.819 219.117 251.523 218.092C251.523 218.078 251.524 218.064 251.524 218.05C251.524 217.956 251.525 217.858 251.529 217.756C251.53 217.74 251.53 217.725 251.531 217.707C251.536 217.591 251.544 217.473 251.555 217.353C251.558 217.321 251.562 217.289 251.566 217.258C251.576 217.166 251.589 217.075 251.604 216.985C251.61 216.949 251.616 216.913 251.622 216.877C251.643 216.768 251.667 216.661 251.696 216.557L251.705 216.528L248.987 215.735C248.149 215.856 247.336 216.11 246.578 216.487C244.894 217.415 244.353 219.325 244.811 220.16C245.269 220.995 247.167 221.567 248.854 220.645ZM247.03 217.321C248.127 216.812 249.321 216.548 250.53 216.547C250.576 216.547 250.621 216.553 250.665 216.566C250.808 216.608 250.924 216.715 250.976 216.855C251.028 216.995 251.012 217.151 250.931 217.277C250.28 218.296 249.416 219.162 248.397 219.813C247.589 220.279 246.597 220.293 245.778 219.848C245.67 219.767 245.603 219.644 245.592 219.51C245.658 218.58 246.203 217.751 247.03 217.321Z" fill="#F2F2F2"/>
<path d="M254.518 216.363L250.879 215.302L251.94 211.664L255.579 212.725L254.518 216.363Z" fill="#F2F2F2"/>
<path d="M249.529 217.571C248.82 217.649 248.129 217.845 247.485 218.151C247.074 218.377 246.757 218.742 246.592 219.181C247.051 219.278 247.529 219.207 247.941 218.982C248.545 218.604 249.082 218.127 249.529 217.571Z" fill="#F2F2F2"/>
</g>
<g opacity="0.15" clip-path="url(#clip8)">
<path d="M343.707 223.406L341.612 222.795C341.58 222.909 341.554 223.026 341.536 223.144C341.53 223.178 341.526 223.216 341.521 223.252C341.506 223.358 341.495 223.47 341.487 223.587C341.484 223.632 341.481 223.676 341.479 223.722C341.471 223.881 341.467 224.046 341.472 224.221C341.498 225.515 341.8 226.789 342.357 227.957C343.284 229.64 345.194 230.181 346.029 229.723C346.863 229.265 347.435 227.363 346.512 225.676C346.076 224.951 345.526 224.3 344.883 223.749L343.707 223.406ZM345.679 226.134C346.045 226.794 346.135 227.574 345.929 228.301C345.929 228.301 345.928 228.306 345.927 228.308C345.901 228.394 345.868 228.477 345.83 228.558C345.797 228.626 345.758 228.691 345.713 228.751C345.631 228.859 345.508 228.926 345.374 228.937C344.441 228.88 343.609 228.334 343.185 227.501C342.678 226.404 342.414 225.211 342.413 224.002C342.412 223.853 342.482 223.712 342.602 223.622C342.721 223.532 342.876 223.504 343.019 223.546C343.063 223.559 343.105 223.577 343.143 223.602C344.16 224.252 345.024 225.115 345.676 226.131L345.679 226.134Z" fill="#F2F2F2"/>
<path d="M356.365 205.383L349.088 203.261L344.844 217.815L353.485 220.335L357.332 207.145C357.551 206.392 357.119 205.603 356.365 205.383Z" fill="#F2F2F2"/>
<path d="M353.524 225.281L344.427 222.629L345.488 218.99L354.585 221.643L353.524 225.281Z" fill="#F2F2F2"/>
<path d="M343.934 217.55L342.115 217.019L346.359 202.465L348.178 202.995L343.934 217.55Z" fill="#F2F2F2"/>
<path d="M345.046 227.937C345.061 227.867 345.072 227.795 345.078 227.723C345.08 227.706 345.082 227.691 345.084 227.673C345.085 227.655 345.085 227.624 345.086 227.599C345.088 227.575 345.089 227.545 345.089 227.516C345.088 227.463 345.086 227.408 345.08 227.351L345.082 227.347C345.057 227.082 344.978 226.824 344.85 226.591C344.47 225.988 343.993 225.452 343.438 225.005C343.517 225.714 343.713 226.405 344.018 227.049C344.244 227.459 344.608 227.773 345.046 227.937Z" fill="#F2F2F2"/>
<path d="M332.564 214.234L341.205 216.754L345.449 202.2L338.172 200.078C337.419 199.858 336.63 200.291 336.41 201.044L332.564 214.234Z" fill="#F2F2F2"/>
<path d="M338.969 221.037L329.873 218.384L330.934 214.746L340.03 217.398L338.969 221.037Z" fill="#F2F2F2"/>
<path d="M337.854 226.645C338.91 225.987 339.819 225.117 340.523 224.092C340.523 224.078 340.524 224.064 340.524 224.05C340.524 223.956 340.525 223.858 340.529 223.756C340.53 223.74 340.53 223.725 340.531 223.707C340.536 223.591 340.544 223.473 340.555 223.353C340.558 223.321 340.562 223.289 340.566 223.258C340.576 223.166 340.589 223.075 340.604 222.985C340.61 222.949 340.616 222.913 340.622 222.877C340.643 222.768 340.667 222.661 340.696 222.557L340.705 222.528L337.987 221.735C337.149 221.856 336.336 222.11 335.578 222.487C333.894 223.415 333.353 225.325 333.811 226.16C334.269 226.995 336.167 227.567 337.854 226.645ZM336.03 223.321C337.127 222.812 338.321 222.548 339.53 222.547C339.576 222.547 339.621 222.553 339.665 222.566C339.808 222.608 339.924 222.715 339.976 222.855C340.028 222.995 340.012 223.151 339.931 223.277C339.28 224.296 338.416 225.162 337.397 225.813C336.589 226.279 335.597 226.293 334.778 225.848C334.67 225.767 334.603 225.644 334.592 225.51C334.658 224.58 335.203 223.751 336.03 223.321Z" fill="#F2F2F2"/>
<path d="M343.518 222.363L339.879 221.302L340.94 217.664L344.579 218.725L343.518 222.363Z" fill="#F2F2F2"/>
<path d="M338.529 223.571C337.82 223.649 337.129 223.845 336.485 224.151C336.074 224.377 335.757 224.742 335.592 225.181C336.051 225.278 336.529 225.207 336.941 224.982C337.545 224.604 338.082 224.127 338.529 223.571Z" fill="#F2F2F2"/>
</g>
<g opacity="0.2" clip-path="url(#clip9)">
<path d="M204.78 227.602L206.392 226.131C206.311 226.044 206.225 225.961 206.134 225.884C206.107 225.861 206.078 225.838 206.049 225.815C205.966 225.747 205.876 225.679 205.78 225.612C205.744 225.586 205.708 225.56 205.67 225.535C205.538 225.445 205.399 225.356 205.247 225.269C204.129 224.618 202.884 224.213 201.596 224.08C199.677 223.996 198.221 225.346 198.178 226.297C198.135 227.248 199.461 228.726 201.382 228.816C202.229 228.821 203.07 228.689 203.875 228.428L204.78 227.602ZM201.425 227.866C200.67 227.835 199.958 227.506 199.444 226.952C199.444 226.952 199.44 226.948 199.439 226.946C199.38 226.879 199.325 226.808 199.276 226.733C199.235 226.67 199.2 226.603 199.172 226.533C199.122 226.408 199.129 226.267 199.189 226.147C199.724 225.38 200.623 224.953 201.555 225.025C202.755 225.162 203.912 225.559 204.944 226.186C205.072 226.264 205.156 226.397 205.171 226.545C205.186 226.694 205.129 226.841 205.019 226.942C204.985 226.972 204.947 226.998 204.906 227.018C203.822 227.548 202.635 227.837 201.428 227.865L201.425 227.866Z" fill="#F2F2F2"/>
<path d="M213.583 247.79L219.182 242.68L208.963 231.482L202.314 237.55L211.575 247.698C212.105 248.278 213.004 248.319 213.583 247.79Z" fill="#F2F2F2"/>
<path d="M198.07 235.009L205.069 228.621L207.624 231.421L200.625 237.808L198.07 235.009Z" fill="#F2F2F2"/>
<path d="M209.663 230.843L211.062 229.566L221.282 240.764L219.882 242.041L209.663 230.843Z" fill="#F2F2F2"/>
<path d="M200.214 226.387C200.267 226.437 200.322 226.483 200.38 226.526C200.394 226.537 200.406 226.547 200.42 226.557C200.435 226.568 200.461 226.584 200.481 226.597C200.502 226.611 200.527 226.628 200.551 226.643C200.597 226.67 200.646 226.697 200.696 226.721L200.7 226.725C200.939 226.841 201.2 226.908 201.466 226.921C202.178 226.91 202.884 226.781 203.555 226.54C202.908 226.238 202.217 226.046 201.507 225.971C201.04 225.951 200.582 226.099 200.214 226.387Z" fill="#F2F2F2"/>
<path d="M218.411 222.859L211.762 228.927L221.982 240.125L227.581 235.015C228.161 234.486 228.202 233.587 227.673 233.007L218.411 222.859Z" fill="#F2F2F2"/>
<path d="M209.268 224.789L216.267 218.402L218.822 221.201L211.823 227.588L209.268 224.789Z" fill="#F2F2F2"/>
<path d="M205.06 220.919C205.073 222.163 205.342 223.391 205.851 224.526C205.863 224.533 205.875 224.542 205.886 224.549C205.967 224.598 206.05 224.65 206.135 224.706C206.149 224.715 206.161 224.723 206.176 224.733C206.272 224.797 206.369 224.866 206.466 224.938C206.491 224.957 206.516 224.977 206.541 224.997C206.614 225.053 206.685 225.111 206.754 225.171C206.782 225.195 206.81 225.219 206.837 225.243C206.919 225.317 206.998 225.394 207.072 225.473L207.092 225.495L209.184 223.587C209.517 222.809 209.723 221.982 209.795 221.138C209.879 219.217 208.53 217.762 207.578 217.718C206.627 217.675 205.151 218.998 205.06 220.919ZM208.848 221.091C208.712 222.292 208.316 223.449 207.687 224.482C207.664 224.521 207.635 224.557 207.601 224.587C207.491 224.688 207.339 224.731 207.192 224.703C207.045 224.675 206.92 224.579 206.855 224.444C206.323 223.358 206.035 222.17 206.009 220.961C206.03 220.029 206.535 219.175 207.341 218.706C207.466 218.656 207.606 218.663 207.726 218.723C208.486 219.264 208.911 220.16 208.848 221.091Z" fill="#F2F2F2"/>
<path d="M205.769 227.983L208.569 225.428L211.124 228.227L208.324 230.782L205.769 227.983Z" fill="#F2F2F2"/>
<path d="M207.334 223.095C207.636 222.449 207.828 221.756 207.902 221.047C207.923 220.578 207.776 220.118 207.487 219.749C207.166 220.09 206.977 220.535 206.955 221.003C206.964 221.717 207.092 222.423 207.334 223.095Z" fill="#F2F2F2"/>
</g>
<g opacity="0.3" clip-path="url(#clip10)">
<path d="M156.535 226.37L158.707 226.156C158.694 226.038 158.675 225.92 158.648 225.804C158.64 225.77 158.63 225.734 158.622 225.698C158.596 225.594 158.564 225.486 158.528 225.374C158.514 225.332 158.501 225.29 158.486 225.246C158.433 225.096 158.375 224.941 158.306 224.781C157.8 223.589 157.045 222.52 156.093 221.643C154.606 220.426 152.631 220.636 152.028 221.372C151.424 222.108 151.602 224.086 153.086 225.308C153.762 225.818 154.515 226.217 155.316 226.49L156.535 226.37ZM153.69 224.573C153.103 224.096 152.729 223.406 152.65 222.655C152.65 222.655 152.649 222.65 152.649 222.647C152.642 222.558 152.641 222.468 152.646 222.379C152.651 222.304 152.663 222.229 152.683 222.156C152.718 222.026 152.807 221.917 152.928 221.857C153.815 221.563 154.791 221.76 155.494 222.375C156.374 223.204 157.063 224.213 157.514 225.334C157.57 225.472 157.558 225.629 157.481 225.757C157.403 225.885 157.27 225.969 157.122 225.984C157.076 225.988 157.03 225.986 156.986 225.978C155.799 225.753 154.676 225.274 153.693 224.574L153.69 224.573Z" fill="#F2F2F2"/>
<path d="M151.503 247.811L159.046 247.069L157.563 231.981L148.605 232.862L149.949 246.535C150.026 247.317 150.721 247.888 151.503 247.811Z" fill="#F2F2F2"/>
<path d="M146.727 228.286L156.157 227.359L156.527 231.131L147.098 232.058L146.727 228.286Z" fill="#F2F2F2"/>
<path d="M158.506 231.889L160.392 231.703L161.875 246.791L159.989 246.977L158.506 231.889Z" fill="#F2F2F2"/>
<path d="M153.605 222.663C153.617 222.734 153.634 222.805 153.654 222.874C153.659 222.89 153.663 222.906 153.668 222.923C153.674 222.94 153.685 222.969 153.693 222.992C153.701 223.015 153.711 223.043 153.722 223.07C153.742 223.119 153.765 223.169 153.791 223.22L153.792 223.224C153.914 223.461 154.082 223.67 154.288 223.84C154.865 224.258 155.507 224.577 156.189 224.785C155.852 224.157 155.413 223.589 154.89 223.104C154.528 222.809 154.072 222.652 153.605 222.663Z" fill="#F2F2F2"/>
<path d="M170.294 230.73L161.335 231.611L162.818 246.698L170.362 245.957C171.144 245.88 171.715 245.184 171.638 244.403L170.294 230.73Z" fill="#F2F2F2"/>
<path d="M161.815 226.803L171.244 225.876L171.615 229.648L162.185 230.575L161.815 226.803Z" fill="#F2F2F2"/>
<path d="M160.76 221.183C160.025 222.188 159.506 223.333 159.234 224.547C159.24 224.56 159.244 224.574 159.249 224.586C159.284 224.674 159.32 224.765 159.354 224.861C159.36 224.876 159.365 224.89 159.371 224.907C159.409 225.016 159.446 225.129 159.48 225.244C159.489 225.275 159.497 225.306 159.505 225.337C159.53 225.426 159.552 225.515 159.572 225.604C159.58 225.64 159.588 225.675 159.595 225.711C159.616 225.82 159.633 225.928 159.645 226.035L159.648 226.066L162.466 225.789C163.199 225.365 163.859 224.826 164.422 224.194C165.639 222.706 165.429 220.732 164.693 220.127C163.957 219.523 161.982 219.699 160.76 221.183ZM163.691 223.589C162.863 224.47 161.853 225.16 160.732 225.611C160.689 225.628 160.645 225.639 160.599 225.643C160.451 225.658 160.304 225.601 160.203 225.491C160.102 225.381 160.059 225.229 160.088 225.082C160.312 223.894 160.792 222.769 161.494 221.785C162.07 221.051 162.986 220.669 163.912 220.776C164.042 220.812 164.15 220.901 164.21 221.021C164.495 221.909 164.299 222.881 163.691 223.589Z" fill="#F2F2F2"/>
<path d="M157.1 227.266L160.872 226.896L161.242 230.668L157.47 231.038L157.1 227.266Z" fill="#F2F2F2"/>
<path d="M161.279 224.288C161.908 223.951 162.476 223.512 162.96 222.988C163.257 222.625 163.415 222.168 163.405 221.699C162.943 221.78 162.526 222.024 162.228 222.386C161.808 222.963 161.487 223.605 161.279 224.288Z" fill="#F2F2F2"/>
</g>
<g opacity="0.2" clip-path="url(#clip11)">
<path d="M112.888 228.26L114.149 227.46C114.105 227.392 114.057 227.326 114.005 227.263C113.99 227.245 113.972 227.226 113.956 227.207C113.908 227.151 113.856 227.095 113.799 227.038C113.778 227.016 113.757 226.994 113.734 226.973C113.656 226.897 113.572 226.82 113.48 226.744C112.804 226.172 112.014 225.751 111.162 225.508C109.878 225.223 108.737 225.96 108.595 226.596C108.453 227.231 109.171 228.385 110.454 228.674C111.024 228.778 111.607 228.789 112.181 228.709L112.888 228.26ZM110.596 228.039C110.091 227.928 109.65 227.622 109.37 227.188C109.37 227.188 109.368 227.185 109.367 227.183C109.335 227.131 109.307 227.076 109.283 227.02C109.263 226.973 109.247 226.923 109.236 226.873C109.218 226.782 109.239 226.688 109.294 226.615C109.745 226.162 110.402 225.981 111.022 226.14C111.814 226.375 112.546 226.78 113.167 227.325C113.244 227.393 113.285 227.492 113.277 227.594C113.269 227.696 113.214 227.789 113.128 227.843C113.101 227.86 113.073 227.873 113.043 227.882C112.249 228.11 111.415 228.163 110.598 228.038L110.596 228.039Z" fill="#F2F2F2"/>
<path d="M116.42 242.91L120.8 240.132L115.245 231.372L110.044 234.67L115.078 242.609C115.365 243.063 115.966 243.197 116.42 242.91Z" fill="#F2F2F2"/>
<path d="M107.486 232.453L112.962 228.981L114.351 231.171L108.875 234.643L107.486 232.453Z" fill="#F2F2F2"/>
<path d="M115.793 231.024L116.888 230.33L122.443 239.091L121.348 239.785L115.793 231.024Z" fill="#F2F2F2"/>
<path d="M109.956 226.899C109.985 226.938 110.017 226.976 110.051 227.012C110.059 227.02 110.066 227.029 110.075 227.037C110.083 227.046 110.099 227.06 110.111 227.072C110.123 227.084 110.138 227.098 110.153 227.111C110.18 227.134 110.21 227.158 110.241 227.181L110.243 227.184C110.391 227.291 110.558 227.367 110.736 227.407C111.217 227.484 111.708 227.482 112.189 227.399C111.789 227.118 111.346 226.907 110.877 226.772C110.565 226.703 110.238 226.748 109.956 226.899Z" fill="#F2F2F2"/>
<path d="M122.637 226.685L117.436 229.983L122.99 238.744L127.371 235.966C127.824 235.679 127.959 235.078 127.671 234.624L122.637 226.685Z" fill="#F2F2F2"/>
<path d="M116.247 226.898L121.723 223.426L123.111 225.616L117.636 229.088L116.247 226.898Z" fill="#F2F2F2"/>
<path d="M113.872 223.79C113.732 224.63 113.768 225.489 113.976 226.315C113.983 226.321 113.99 226.328 113.997 226.334C114.045 226.377 114.095 226.421 114.146 226.47C114.154 226.477 114.161 226.484 114.17 226.493C114.227 226.547 114.284 226.605 114.341 226.665C114.356 226.681 114.37 226.698 114.385 226.714C114.427 226.76 114.468 226.808 114.508 226.856C114.524 226.876 114.539 226.895 114.555 226.915C114.601 226.975 114.645 227.036 114.686 227.097L114.697 227.115L116.333 226.078C116.65 225.593 116.887 225.061 117.036 224.501C117.321 223.216 116.585 222.075 115.949 221.933C115.313 221.79 114.161 222.506 113.872 223.79ZM116.403 224.356C116.169 225.149 115.764 225.882 115.218 226.503C115.198 226.527 115.174 226.547 115.147 226.564C115.061 226.619 114.954 226.629 114.858 226.593C114.763 226.557 114.69 226.477 114.662 226.379C114.433 225.584 114.379 224.749 114.506 223.931C114.631 223.305 115.073 222.79 115.672 222.57C115.762 222.552 115.855 222.572 115.929 222.627C116.377 223.082 116.557 223.737 116.403 224.356Z" fill="#F2F2F2"/>
<path d="M113.509 228.634L115.7 227.245L117.088 229.435L114.898 230.824L113.509 228.634Z" fill="#F2F2F2"/>
<path d="M115.145 225.526C115.425 225.127 115.637 224.683 115.771 224.214C115.841 223.901 115.797 223.573 115.646 223.29C115.389 223.482 115.209 223.759 115.139 224.072C115.06 224.554 115.062 225.045 115.145 225.526Z" fill="#F2F2F2"/>
</g>
<g opacity="0.25" clip-path="url(#clip12)">
<path d="M27.5857 200.627L30.2373 202.114C30.3171 201.969 30.3883 201.819 30.4508 201.665C30.4694 201.619 30.4866 201.57 30.5047 201.522C30.5581 201.382 30.6084 201.234 30.6559 201.077C30.674 201.018 30.6924 200.96 30.7096 200.898C30.7696 200.684 30.8267 200.461 30.8748 200.223C31.246 198.458 31.2364 196.634 30.847 194.874C30.117 192.298 27.6934 190.965 26.4174 191.325C25.1412 191.685 23.7683 194.086 24.4904 196.666C24.8557 197.787 25.3982 198.843 26.097 199.793L27.5857 200.627ZM25.7659 196.306C25.4758 195.294 25.5983 194.208 26.106 193.286C26.106 193.286 26.1096 193.28 26.1112 193.277C26.1739 193.169 26.2443 193.066 26.3219 192.968C26.3878 192.886 26.461 192.811 26.541 192.742C26.6852 192.622 26.8738 192.569 27.0595 192.596C28.307 192.967 29.2659 193.97 29.5796 195.233C29.9239 196.88 29.9071 198.583 29.5297 200.224C29.4834 200.427 29.3444 200.596 29.1541 200.681C28.9637 200.765 28.7447 200.755 28.5631 200.653C28.5079 200.622 28.4572 200.583 28.4128 200.538C27.2364 199.336 26.3344 197.894 25.7689 196.31L25.7659 196.306Z" fill="#F2F2F2"/>
<path d="M4.74893 221.117L13.9601 226.281L24.2883 207.859L13.3501 201.726L3.99011 218.421C3.45539 219.375 3.79515 220.582 4.74893 221.117Z" fill="#F2F2F2"/>
<path d="M14.8505 195.001L26.3645 201.456L23.7824 206.062L12.2685 199.607L14.8505 195.001Z" fill="#F2F2F2"/>
<path d="M25.4397 208.504L27.7425 209.795L17.4143 228.217L15.1115 226.926L25.4397 208.504Z" fill="#F2F2F2"/>
<path d="M27.1903 194.057C27.1481 194.148 27.1109 194.241 27.0795 194.337C27.0718 194.36 27.0638 194.38 27.0563 194.404C27.0488 194.428 27.0389 194.47 27.0298 194.502C27.0204 194.535 27.0091 194.576 27.0003 194.614C26.9849 194.687 26.9706 194.763 26.9601 194.841L26.9568 194.847C26.9077 195.215 26.9338 195.588 27.0339 195.946C27.3602 196.883 27.8395 197.76 28.4528 198.541C28.5685 197.554 28.5194 196.555 28.3079 195.584C28.1295 194.958 27.7331 194.416 27.1903 194.057Z" fill="#F2F2F2"/>
<path d="M39.8322 216.573L28.8939 210.441L18.5657 228.863L27.7769 234.027C28.7306 234.562 29.9375 234.222 30.4722 233.268L39.8322 216.573Z" fill="#F2F2F2"/>
<path d="M33.2728 205.329L44.7868 211.784L42.2048 216.39L30.6908 209.935L33.2728 205.329Z" fill="#F2F2F2"/>
<path d="M36.5461 198.068C34.9063 198.63 33.4002 199.524 32.122 200.696C32.1181 200.714 32.1123 200.733 32.1081 200.751C32.0785 200.88 32.0463 201.012 32.0089 201.15C32.0031 201.171 31.9984 201.192 31.9909 201.216C31.9485 201.371 31.9 201.529 31.8472 201.688C31.8326 201.73 31.8172 201.772 31.8024 201.814C31.76 201.935 31.7146 202.054 31.666 202.172C31.6458 202.22 31.6268 202.266 31.6064 202.313C31.5442 202.454 31.4778 202.592 31.4058 202.724L31.3849 202.761L34.8253 204.69C36.0003 204.789 37.1839 204.7 38.3308 204.426C40.9079 203.695 42.2409 201.272 41.8813 199.995C41.5219 198.718 39.1255 197.346 36.5461 198.068ZM37.9786 203.152C36.3303 203.499 34.6264 203.482 32.9854 203.104C32.9234 203.09 32.8639 203.067 32.8085 203.036C32.6269 202.934 32.5038 202.752 32.4769 202.546C32.4496 202.339 32.5215 202.132 32.6709 201.987C33.8735 200.808 35.3186 199.905 36.9054 199.341C38.1481 198.961 39.4988 199.254 40.4721 200.114C40.5921 200.258 40.645 200.446 40.6176 200.631C40.2362 201.873 39.2365 202.828 37.9786 203.152Z" fill="#F2F2F2"/>
<path d="M27.5159 202.102L32.1215 204.684L29.5394 209.289L24.9338 206.707L27.5159 202.102Z" fill="#F2F2F2"/>
<path d="M34.665 202.028C35.6518 202.145 36.6513 202.095 37.6219 201.882C38.2508 201.705 38.7952 201.308 39.1569 200.764C38.5647 200.489 37.8934 200.435 37.2645 200.611C36.325 200.935 35.4466 201.414 34.665 202.028Z" fill="#F2F2F2"/>
</g>
<g opacity="0.25" clip-path="url(#clip13)">
<path d="M627.586 87.6275L630.237 89.1141C630.317 88.9685 630.388 88.8185 630.451 88.6648C630.469 88.619 630.487 88.5699 630.505 88.5225C630.558 88.3824 630.608 88.234 630.656 88.0774C630.674 88.0181 630.692 87.9597 630.71 87.898C630.77 87.6842 630.827 87.4612 630.875 87.2225C631.246 85.4578 631.236 83.6343 630.847 81.8735C630.117 79.2981 627.693 77.9649 626.417 78.3246C625.141 78.6846 623.768 81.0859 624.49 83.6662C624.856 84.7872 625.398 85.8428 626.097 86.7928L627.586 87.6275ZM625.766 83.3061C625.476 82.2941 625.598 81.2082 626.106 80.2862C626.106 80.2862 626.11 80.2798 626.111 80.277C626.174 80.1691 626.244 80.066 626.322 79.9684C626.388 79.8863 626.461 79.8106 626.541 79.7424C626.685 79.6223 626.874 79.5691 627.06 79.5964C628.307 79.967 629.266 80.9697 629.58 82.2329C629.924 83.8805 629.907 85.5831 629.53 87.2236C629.483 87.4267 629.344 87.5963 629.154 87.6807C628.964 87.7653 628.745 87.7552 628.563 87.6534C628.508 87.6221 628.457 87.5833 628.413 87.5381C627.236 86.3362 626.334 84.8939 625.769 83.31L625.766 83.3061Z" fill="#F2F2F2"/>
<path d="M604.749 108.117L613.96 113.281L624.288 94.8586L613.35 88.7262L603.99 105.421C603.455 106.375 603.795 107.582 604.749 108.117Z" fill="#F2F2F2"/>
<path d="M614.851 82.0009L626.364 88.4561L623.782 93.0617L612.268 86.6065L614.851 82.0009Z" fill="#F2F2F2"/>
<path d="M625.44 95.5041L627.742 96.7951L617.414 115.217L615.111 113.926L625.44 95.5041Z" fill="#F2F2F2"/>
<path d="M627.19 81.0567C627.148 81.1479 627.111 81.2412 627.08 81.3367C627.072 81.3597 627.064 81.3799 627.056 81.4038C627.049 81.4277 627.039 81.4698 627.03 81.5024C627.02 81.5352 627.009 81.5757 627 81.6144C626.985 81.6867 626.971 81.7629 626.96 81.8409L626.957 81.8468C626.908 82.2146 626.934 82.5884 627.034 82.9456C627.36 83.8833 627.839 84.7602 628.453 85.5411C628.568 84.5545 628.519 83.5553 628.308 82.5843C628.129 81.9582 627.733 81.4164 627.19 81.0567Z" fill="#F2F2F2"/>
<path d="M639.832 103.573L628.894 97.4406L618.566 115.863L627.777 121.027C628.731 121.562 629.937 121.222 630.472 120.268L639.832 103.573Z" fill="#F2F2F2"/>
<path d="M633.273 92.3291L644.787 98.7843L642.205 103.39L630.691 96.9347L633.273 92.3291Z" fill="#F2F2F2"/>
<path d="M636.546 85.0679C634.906 85.6297 633.4 86.5243 632.122 87.6957C632.118 87.7138 632.112 87.7334 632.108 87.7514C632.079 87.88 632.046 88.012 632.009 88.1499C632.003 88.1714 631.998 88.1916 631.991 88.2155C631.948 88.3709 631.9 88.5292 631.847 88.688C631.833 88.7305 631.817 88.7724 631.802 88.814C631.76 88.9351 631.715 89.0544 631.666 89.172C631.646 89.2198 631.627 89.2664 631.606 89.3133C631.544 89.4539 631.478 89.5915 631.406 89.7237L631.385 89.7611L634.825 91.6899C636 91.7893 637.184 91.6999 638.331 91.4255C640.908 90.695 642.241 88.272 641.881 86.9949C641.522 85.7183 639.125 84.346 636.546 85.0679ZM637.979 90.1519C636.33 90.4987 634.626 90.4822 632.985 90.1038C632.923 90.0898 632.864 90.0667 632.809 90.0357C632.627 89.9339 632.504 89.7522 632.477 89.5457C632.45 89.3394 632.521 89.1322 632.671 88.9869C633.873 87.8079 635.319 86.9049 636.905 86.3407C638.148 85.9608 639.499 86.254 640.472 87.1145C640.592 87.2582 640.645 87.446 640.618 87.6313C640.236 88.8731 639.236 89.8278 637.979 90.1519Z" fill="#F2F2F2"/>
<path d="M627.516 89.1016L632.121 91.6836L629.539 96.2892L624.934 93.7072L627.516 89.1016Z" fill="#F2F2F2"/>
<path d="M634.665 89.0282C635.652 89.1448 636.651 89.0952 637.622 88.8823C638.251 88.7048 638.795 88.3084 639.157 87.7641C638.565 87.4893 637.893 87.4352 637.264 87.6113C636.325 87.9354 635.447 88.4143 634.665 89.0282Z" fill="#F2F2F2"/>
</g>
<g opacity="0.3" clip-path="url(#clip14)">
<path d="M848.888 28.7098L850.776 28.2039C850.748 28.1011 850.713 28.0001 850.673 27.9013C850.661 27.8719 850.647 27.8416 850.634 27.8116C850.595 27.7232 850.552 27.6323 850.504 27.5389C850.485 27.5034 850.467 27.4683 850.448 27.4322C850.379 27.3068 850.306 27.1786 850.221 27.0471C849.599 26.0681 848.776 25.233 847.807 24.5973C846.315 23.7394 844.601 24.2135 844.175 24.9518C843.749 25.6904 844.195 27.412 845.685 28.2756C846.357 28.6277 847.08 28.8701 847.828 28.9938L848.888 28.7098ZM846.111 27.5374C845.523 27.2017 845.092 26.6469 844.912 25.9946C844.912 25.9946 844.911 25.99 844.91 25.988C844.891 25.9102 844.877 25.8311 844.869 25.7513C844.862 25.684 844.862 25.6163 844.868 25.549C844.881 25.429 844.944 25.3199 845.041 25.2491C845.782 24.8597 846.673 24.8909 847.385 25.3316C848.283 25.9355 849.039 26.7268 849.602 27.6513C849.672 27.7656 849.684 27.9061 849.634 28.0303C849.584 28.1547 849.479 28.2484 849.35 28.283C849.31 28.2934 849.27 28.2983 849.229 28.2974C848.148 28.2722 847.085 28.0131 846.114 27.5378L846.111 27.5374Z" fill="#F2F2F2"/>
<path d="M847.572 48.3917L854.13 46.6345L850.616 33.5185L842.828 35.6052L846.013 47.4916C846.195 48.1706 846.893 48.5737 847.572 48.3917Z" fill="#F2F2F2"/>
<path d="M840.5 31.8359L848.698 29.6394L849.577 32.9184L841.379 35.1149L840.5 31.8359Z" fill="#F2F2F2"/>
<path d="M851.436 33.2988L853.075 32.8595L856.59 45.9755L854.95 46.4149L851.436 33.2988Z" fill="#F2F2F2"/>
<path d="M845.757 25.8625C845.778 25.9235 845.803 25.9831 845.832 26.0412C845.838 26.0552 845.844 26.0682 845.851 26.0825C845.858 26.0969 845.873 26.1207 845.883 26.1398C845.893 26.1591 845.906 26.1828 845.92 26.2046C845.945 26.2448 845.973 26.2863 846.003 26.3269L846.004 26.3311C846.147 26.5224 846.326 26.6828 846.533 26.8023C847.104 27.0875 847.718 27.276 848.351 27.3602C847.961 26.8541 847.49 26.4161 846.957 26.0642C846.594 25.856 846.168 25.7845 845.757 25.8625Z" fill="#F2F2F2"/>
<path d="M861.683 30.5532L853.895 32.6399L857.409 45.7559L863.967 43.9987C864.647 43.8167 865.05 43.1186 864.868 42.4396L861.683 30.5532Z" fill="#F2F2F2"/>
<path d="M853.617 28.3214L861.814 26.1249L862.693 29.4039L854.495 31.6005L853.617 28.3214Z" fill="#F2F2F2"/>
<path d="M851.864 23.5097C851.361 24.5043 851.07 25.5922 851.007 26.7051C851.013 26.7152 851.02 26.7268 851.026 26.737C851.07 26.8095 851.114 26.8847 851.159 26.9649C851.166 26.9774 851.173 26.9889 851.18 27.0032C851.23 27.0938 851.279 27.1884 851.326 27.2852C851.338 27.3113 851.35 27.3375 851.362 27.3633C851.397 27.4381 851.429 27.5134 851.46 27.5894C851.472 27.6204 851.484 27.6504 851.496 27.6812C851.53 27.7738 851.561 27.8669 851.588 27.9601L851.595 27.9867L854.044 27.3304C854.63 26.8487 855.134 26.2763 855.539 25.6353C856.398 24.1422 855.924 22.4286 855.185 22.0021C854.447 21.5758 852.727 22.0197 851.864 23.5097ZM854.805 25.207C854.202 26.1065 853.411 26.8637 852.485 27.4261C852.45 27.4474 852.413 27.4636 852.373 27.4741C852.244 27.5088 852.106 27.4804 852.001 27.3974C851.896 27.3147 851.836 27.187 851.839 27.0531C851.864 25.9706 852.124 24.9063 852.601 23.9344C853.002 23.2017 853.756 22.7304 854.59 22.6896C854.71 22.702 854.818 22.7647 854.889 22.8622C855.271 23.6051 855.239 24.4932 854.805 25.207Z" fill="#F2F2F2"/>
<path d="M849.518 29.4197L852.797 28.5411L853.675 31.8201L850.396 32.6987L849.518 29.4197Z" fill="#F2F2F2"/>
<path d="M852.776 26.1771C853.282 25.7878 853.72 25.3164 854.071 24.7827C854.281 24.4187 854.354 23.9919 854.276 23.579C853.88 23.7184 853.547 23.9947 853.336 24.3581C853.049 24.929 852.86 25.5436 852.776 26.1771Z" fill="#F2F2F2"/>
</g>
<g opacity="0.12" clip-path="url(#clip15)">
<path d="M794.293 58.0039L794.958 56.166C794.857 56.1307 794.754 56.1013 794.65 56.0777C794.619 56.0707 794.586 56.065 794.554 56.0584C794.46 56.0393 794.36 56.0229 794.256 56.0092C794.217 56.004 794.178 55.9985 794.137 55.994C793.995 55.9784 793.847 55.9656 793.691 55.9601C792.533 55.9098 791.377 56.1073 790.301 56.5391C788.744 57.2724 788.153 58.9496 788.515 59.7213C788.877 60.493 790.544 61.1118 792.105 60.383C792.778 60.0336 793.39 59.5788 793.92 59.0358L794.293 58.0039ZM791.743 59.6117C791.131 59.902 790.43 59.9382 789.792 59.7129C789.792 59.7129 789.787 59.7113 789.785 59.7106C789.71 59.6821 789.637 59.6483 789.567 59.6093C789.508 59.5761 789.453 59.5377 789.401 59.4941C789.31 59.4152 789.256 59.3011 789.254 59.1805C789.358 58.3503 789.894 57.6368 790.662 57.3053C791.671 56.914 792.753 56.746 793.833 56.8132C793.966 56.8212 794.089 56.8916 794.162 57.0035C794.236 57.1154 794.252 57.2553 794.207 57.3812C794.193 57.4195 794.173 57.4557 794.149 57.4887C793.511 58.361 792.69 59.0845 791.745 59.6094L791.743 59.6117Z" fill="#F2F2F2"/>
<path d="M809.686 70.3394L811.995 63.9547L799.226 59.3367L796.484 66.9185L808.056 71.1036C808.717 71.3427 809.447 71.0005 809.686 70.3394Z" fill="#F2F2F2"/>
<path d="M792.06 66.6724L794.947 58.6916L798.139 59.8461L795.253 67.827L792.06 66.6724Z" fill="#F2F2F2"/>
<path d="M799.514 58.5386L800.092 56.9424L812.861 61.5605L812.284 63.1567L799.514 58.5386Z" fill="#F2F2F2"/>
<path d="M790.167 58.9443C790.229 58.9615 790.292 58.9753 790.356 58.9852C790.371 58.9877 790.385 58.9906 790.401 58.9929C790.417 58.9951 790.444 58.997 790.466 58.9993C790.488 59.0019 790.515 59.0048 790.54 59.0063C790.588 59.0085 790.638 59.0095 790.688 59.008L790.692 59.0095C790.931 59.0021 791.165 58.9462 791.381 58.8453C791.942 58.5399 792.448 58.1439 792.879 57.6729C792.241 57.703 791.612 57.839 791.018 58.0751C790.64 58.254 790.338 58.5622 790.167 58.9443Z" fill="#F2F2F2"/>
<path d="M803.122 48.5626L800.38 56.1443L813.15 60.7624L815.459 54.3777C815.698 53.7166 815.356 52.9868 814.694 52.7477L803.122 48.5626Z" fill="#F2F2F2"/>
<path d="M796.678 53.9031L799.565 45.9223L802.757 47.0768L799.871 55.0577L796.678 53.9031Z" fill="#F2F2F2"/>
<path d="M791.729 52.5888C792.257 53.5701 792.983 54.4315 793.86 55.1193C793.872 55.1199 793.885 55.1215 793.897 55.1223C793.982 55.1276 794.069 55.1342 794.16 55.1434C794.174 55.1448 794.188 55.1457 794.204 55.1479C794.307 55.1585 794.412 55.1727 794.518 55.1895C794.547 55.1943 794.575 55.1997 794.603 55.2047C794.684 55.2189 794.765 55.2352 794.844 55.2537C794.877 55.2614 794.908 55.2687 794.94 55.2767C795.036 55.3014 795.13 55.3291 795.222 55.3608L795.248 55.3702L796.11 52.9855C796.05 52.2298 795.869 51.4884 795.574 50.7897C794.841 49.2316 793.164 48.6404 792.392 49.0024C791.619 49.3644 791 51.0285 791.729 52.5888ZM794.804 51.1467C795.197 52.1558 795.365 53.2384 795.297 54.319C795.295 54.3598 795.286 54.3999 795.272 54.4383C795.227 54.5642 795.125 54.6614 794.996 54.7001C794.868 54.739 794.729 54.7152 794.622 54.6357C793.748 53.9966 793.023 53.1747 792.499 52.2274C792.127 51.479 792.172 50.5914 792.615 49.8838C792.694 49.7926 792.807 49.7393 792.928 49.7373C793.755 49.8489 794.466 50.3828 794.804 51.1467Z" fill="#F2F2F2"/>
<path d="M795.235 57.8935L796.39 54.7012L799.582 55.8557L798.428 59.048L795.235 57.8935Z" fill="#F2F2F2"/>
<path d="M794.439 53.3665C794.409 52.7283 794.273 52.0995 794.036 51.5062C793.857 51.1259 793.548 50.8222 793.165 50.6499C793.053 51.0544 793.089 51.4858 793.267 51.8663C793.571 52.4282 793.967 52.9351 794.439 53.3665Z" fill="#F2F2F2"/>
</g>
<g opacity="0.15" clip-path="url(#clip16)">
<path d="M320.521 187.714L319.135 190.285C319.277 190.359 319.422 190.425 319.57 190.482C319.615 190.5 319.662 190.515 319.708 190.532C319.843 190.581 319.987 190.627 320.138 190.67C320.195 190.687 320.252 190.703 320.311 190.719C320.517 190.773 320.732 190.824 320.963 190.867C322.664 191.195 324.415 191.156 326.1 190.754C328.562 190.011 329.803 187.662 329.437 186.442C329.071 185.222 326.743 183.942 324.276 184.677C323.205 185.046 322.2 185.584 321.299 186.271L320.521 187.714ZM324.642 185.897C325.61 185.602 326.655 185.702 327.548 186.175C327.548 186.175 327.555 186.178 327.557 186.18C327.662 186.238 327.762 186.304 327.857 186.377C327.937 186.439 328.011 186.508 328.078 186.584C328.195 186.72 328.249 186.901 328.226 187.08C327.89 188.284 326.942 189.221 325.734 189.542C324.157 189.9 322.522 189.911 320.94 189.575C320.744 189.533 320.579 189.403 320.495 189.221C320.411 189.04 320.417 188.829 320.512 188.653C320.541 188.6 320.577 188.55 320.62 188.507C321.755 187.358 323.126 186.468 324.639 185.9L324.642 185.897Z" fill="#F2F2F2"/>
<path d="M300.474 166.108L295.662 175.038L313.522 184.663L319.237 174.058L303.051 165.336C302.126 164.838 300.973 165.184 300.474 166.108Z" fill="#F2F2F2"/>
<path d="M325.721 175.392L319.705 186.554L315.24 184.148L321.255 172.985L325.721 175.392Z" fill="#F2F2F2"/>
<path d="M312.921 185.779L311.718 188.012L293.857 178.387L295.061 176.155L312.921 185.779Z" fill="#F2F2F2"/>
<path d="M326.826 187.229C326.737 187.19 326.647 187.155 326.555 187.127C326.533 187.12 326.513 187.112 326.49 187.106C326.467 187.099 326.426 187.09 326.395 187.082C326.363 187.073 326.324 187.063 326.287 187.055C326.217 187.041 326.144 187.029 326.069 187.02L326.063 187.017C325.709 186.976 325.35 187.007 325.009 187.109C324.113 187.437 323.279 187.912 322.539 188.513C323.488 188.609 324.447 188.545 325.376 188.327C325.975 188.145 326.489 187.756 326.826 187.229Z" fill="#F2F2F2"/>
<path d="M305.402 199.733L311.116 189.128L293.256 179.503L288.444 188.434C287.945 189.358 288.291 190.512 289.216 191.01L305.402 199.733Z" fill="#F2F2F2"/>
<path d="M316.096 193.252L310.081 204.415L305.616 202.008L311.631 190.846L316.096 193.252Z" fill="#F2F2F2"/>
<path d="M323.123 196.279C322.557 194.713 321.674 193.281 320.528 192.072C320.511 192.069 320.492 192.063 320.474 192.06C320.35 192.033 320.223 192.004 320.09 191.971C320.069 191.966 320.05 191.961 320.027 191.955C319.877 191.916 319.724 191.872 319.571 191.824C319.529 191.811 319.489 191.797 319.449 191.783C319.332 191.744 319.216 191.703 319.103 191.658C319.056 191.639 319.011 191.622 318.966 191.603C318.83 191.545 318.697 191.484 318.569 191.417L318.532 191.397L316.735 194.733C316.658 195.863 316.763 196.998 317.045 198.095C317.788 200.559 320.137 201.8 321.358 201.435C322.578 201.069 323.858 198.745 323.123 196.279ZM318.263 197.737C317.903 196.159 317.892 194.522 318.229 192.94C318.241 192.88 318.263 192.823 318.291 192.769C318.386 192.593 318.559 192.472 318.757 192.443C318.955 192.413 319.155 192.479 319.297 192.62C320.448 193.756 321.339 195.13 321.906 196.645C322.291 197.832 322.031 199.134 321.22 200.083C321.084 200.201 320.905 200.254 320.726 200.231C319.527 199.885 318.594 198.94 318.263 197.737Z" fill="#F2F2F2"/>
<path d="M319.104 187.671L316.698 192.136L312.233 189.729L314.639 185.264L319.104 187.671Z" fill="#F2F2F2"/>
<path d="M319.289 194.536C319.193 195.486 319.257 196.445 319.477 197.374C319.657 197.975 320.047 198.492 320.575 198.83C320.83 198.257 320.871 197.611 320.692 197.01C320.365 196.113 319.891 195.277 319.289 194.536Z" fill="#F2F2F2"/>
</g>
<defs>
<clipPath id="clip0">
<rect width="58.5858" height="58.5858" fill="white" transform="translate(722 111.857) rotate(-47.0139)"/>
</clipPath>
<clipPath id="clip1">
<rect width="36.7463" height="36.7463" fill="white" transform="translate(765.825 190.749) rotate(-92.7165)"/>
</clipPath>
<clipPath id="clip2">
<rect width="68.9438" height="68.9438" fill="white" transform="translate(731.803 68.2834) rotate(172.063)"/>
</clipPath>
<clipPath id="clip3">
<rect width="38.6682" height="38.6682" fill="white" transform="translate(676.501 199.198) rotate(-114.762)"/>
</clipPath>
<clipPath id="clip4">
<rect width="60.4939" height="60.4939" fill="white" transform="translate(626.157 217.941) rotate(-155.973)"/>
</clipPath>
<clipPath id="clip5">
<rect width="54.7774" height="54.7774" fill="white" transform="translate(546.164 154.598) rotate(149.084)"/>
</clipPath>
<clipPath id="clip6">
<rect width="47.0298" height="47.0298" fill="white" transform="translate(448.263 170.492) rotate(97.7203)"/>
</clipPath>
<clipPath id="clip7">
<rect width="26.7082" height="26.7082" fill="white" transform="translate(263.64 226.117) rotate(-163.743)"/>
</clipPath>
<clipPath id="clip8">
<rect width="26.7082" height="26.7082" fill="white" transform="translate(352.64 232.117) rotate(-163.743)"/>
</clipPath>
<clipPath id="clip9">
<rect width="26.7082" height="26.7082" fill="white" transform="translate(192.693 230.697) rotate(-42.3843)"/>
</clipPath>
<clipPath id="clip10">
<rect width="26.7082" height="26.7082" fill="white" transform="translate(145 221.613) rotate(-5.61493)"/>
</clipPath>
<clipPath id="clip11">
<rect width="18.2747" height="18.2747" fill="white" transform="translate(104.375 228.908) rotate(-32.3777)"/>
</clipPath>
<clipPath id="clip12">
<rect width="37.2068" height="37.2068" fill="white" transform="translate(18.1951 186) rotate(29.2765)"/>
</clipPath>
<clipPath id="clip13">
<rect width="37.2068" height="37.2068" fill="white" transform="translate(618.195 73) rotate(29.2765)"/>
</clipPath>
<clipPath id="clip14">
<rect width="23.9215" height="23.9215" fill="white" transform="translate(838 26.1913) rotate(-15)"/>
</clipPath>
<clipPath id="clip15">
<rect width="23.9215" height="23.9215" fill="white" transform="translate(786 65.4955) rotate(-70.1173)"/>
</clipPath>
<clipPath id="clip16">
<rect width="35.742" height="35.742" fill="white" transform="translate(334.42 178.459) rotate(118.319)"/>
</clipPath>
</defs>
</svg>
