<svg width="248" height="884" viewBox="0 0 248 884" fill="none" xmlns="http://www.w3.org/2000/svg">
<rect width="248" height="884" fill="white"/>
<g filter="url(#filter0_d)">
<path d="M77.0863 579.311L163.43 665.654L139.784 689.3C139.784 689.3 134.912 655.152 111.384 632.187C87.8559 609.222 53.4405 602.957 53.4405 602.957L77.0863 579.311Z" fill="#FDBB02"/>
<path d="M77.0863 579.311L163.43 665.654L139.784 689.3C139.784 689.3 134.912 655.152 111.384 632.187C87.8559 609.222 53.4405 602.957 53.4405 602.957L77.0863 579.311Z" fill="url(#paint0_linear)"/>
<path d="M163.43 665.654L77.0861 579.311L100.732 555.665C100.732 555.665 105.604 589.813 129.132 612.778C152.66 635.743 187.075 642.009 187.075 642.009L163.43 665.654Z" fill="#FFA300"/>
</g>
<g filter="url(#filter1_d)">
<path d="M81.2392 792.818L166.792 705.842L190.318 728.984C190.318 728.984 156.422 734.311 133.669 758.003C110.916 781.695 104.765 815.959 104.765 815.959L81.2392 792.818Z" fill="#5E9400"/>
<path d="M81.2392 792.818L166.792 705.842L190.318 728.984C190.318 728.984 156.422 734.311 133.669 758.003C110.916 781.695 104.765 815.959 104.765 815.959L81.2392 792.818Z" fill="url(#paint1_linear)"/>
<path d="M166.792 705.842L81.2392 792.818L57 768.976C57 768.976 91.3368 764.082 114.082 740.382C136.826 716.681 142.552 682 142.552 682L166.792 705.842Z" fill="#568900"/>
</g>
<g filter="url(#filter2_d)">
<circle cx="180" cy="685" r="45" fill="#F0F0F0"/>
<circle cx="180" cy="685" r="45" fill="url(#paint2_linear)"/>
<circle cx="180" cy="685" r="40.5" stroke="#F6F6F6" stroke-width="9"/>
<circle cx="180" cy="685" r="40.5" stroke="url(#paint3_linear)" stroke-width="9"/>
</g>
<g filter="url(#filter3_d)">
<circle cx="60.5" cy="812.5" r="45.5" fill="#F0F0F0"/>
<circle cx="60.5" cy="812.5" r="45.5" fill="url(#paint4_linear)"/>
<circle cx="60.5" cy="812.5" r="41" stroke="#F6F6F6" stroke-width="9"/>
<circle cx="60.5" cy="812.5" r="41" stroke="url(#paint5_linear)" stroke-width="9"/>
</g>
<g filter="url(#filter4_d)">
<path d="M71.0863 74.3108L157.43 160.654L133.784 184.3C133.784 184.3 128.912 150.152 105.384 127.187C81.8559 104.222 47.4405 97.9566 47.4405 97.9566L71.0863 74.3108Z" fill="#FDBB02"/>
<path d="M71.0863 74.3108L157.43 160.654L133.784 184.3C133.784 184.3 128.912 150.152 105.384 127.187C81.8559 104.222 47.4405 97.9566 47.4405 97.9566L71.0863 74.3108Z" fill="url(#paint6_linear)"/>
<path d="M157.43 160.654L71.0861 74.3109L94.7319 50.6651C94.7319 50.6651 99.6044 84.8133 123.132 107.778C146.66 130.743 181.075 137.009 181.075 137.009L157.43 160.654Z" fill="#FFA300"/>
</g>
<g filter="url(#filter5_d)">
<path d="M75.3114 329.311L161.99 415.989L138.344 439.635C138.344 439.635 133.396 405.411 109.778 382.356C86.1598 359.301 51.6656 352.957 51.6656 352.957L75.3114 329.311Z" fill="#FDBB02"/>
<path d="M75.3114 329.311L161.99 415.989L138.344 439.635C138.344 439.635 133.396 405.411 109.778 382.356C86.1598 359.301 51.6656 352.957 51.6656 352.957L75.3114 329.311Z" fill="url(#paint7_linear)"/>
<path d="M161.99 415.989L75.3113 329.311L98.9571 305.665C98.9571 305.665 103.905 339.889 127.523 362.944C151.141 385.999 185.635 392.343 185.635 392.343L161.99 415.989Z" fill="#FFA300"/>
</g>
<g filter="url(#filter6_d)">
<path d="M75.2392 287.818L160.792 200.842L184.318 223.984C184.318 223.984 150.422 229.311 127.669 253.003C104.916 276.695 98.7654 310.959 98.7654 310.959L75.2392 287.818Z" fill="#5E9400"/>
<path d="M75.2392 287.818L160.792 200.842L184.318 223.984C184.318 223.984 150.422 229.311 127.669 253.003C104.916 276.695 98.7654 310.959 98.7654 310.959L75.2392 287.818Z" fill="url(#paint8_linear)"/>
<path d="M160.792 200.842L75.2392 287.818L51 263.976C51 263.976 85.3368 259.082 108.082 235.382C130.826 211.681 136.552 177 136.552 177L160.792 200.842Z" fill="#568900"/>
</g>
<g filter="url(#filter7_d)">
<circle cx="174" cy="180" r="45" fill="#F0F0F0"/>
<circle cx="174" cy="180" r="45" fill="url(#paint9_linear)"/>
<circle cx="174" cy="180" r="40.5" stroke="#F6F6F6" stroke-width="9"/>
<circle cx="174" cy="180" r="40.5" stroke="url(#paint10_linear)" stroke-width="9"/>
</g>
<g filter="url(#filter8_d)">
<path d="M71.0863 74.3108L157.43 160.654L133.784 184.3C133.784 184.3 128.912 150.152 105.384 127.187C81.8559 104.222 47.4405 97.9566 47.4405 97.9566L71.0863 74.3108Z" fill="#FDBB02"/>
<path d="M71.0863 74.3108L157.43 160.654L133.784 184.3C133.784 184.3 128.912 150.152 105.384 127.187C81.8559 104.222 47.4405 97.9566 47.4405 97.9566L71.0863 74.3108Z" fill="url(#paint11_linear)"/>
<path d="M157.43 160.654L71.0861 74.3109L94.7319 50.6651C94.7319 50.6651 99.6044 84.8133 123.132 107.778C146.66 130.743 181.075 137.009 181.075 137.009L157.43 160.654Z" fill="#FFA300"/>
</g>
<g filter="url(#filter9_d)">
<circle cx="174" cy="180" r="45" fill="#F0F0F0"/>
<circle cx="174" cy="180" r="45" fill="url(#paint12_linear)"/>
<circle cx="174" cy="180" r="40.5" stroke="#F6F6F6" stroke-width="9"/>
<circle cx="174" cy="180" r="40.5" stroke="url(#paint13_linear)" stroke-width="9"/>
</g>
<g filter="url(#filter10_d)">
<circle cx="54.5" cy="307.5" r="45.5" fill="#F0F0F0"/>
<circle cx="54.5" cy="307.5" r="45.5" fill="url(#paint14_linear)"/>
<circle cx="54.5" cy="307.5" r="41" stroke="#F6F6F6" stroke-width="9"/>
<circle cx="54.5" cy="307.5" r="41" stroke="url(#paint15_linear)" stroke-width="9"/>
</g>
<g filter="url(#filter11_d)">
<path d="M77.2392 539.818L162.792 452.842L186.318 475.984C186.318 475.984 152.422 481.311 129.669 505.003C106.916 528.695 100.765 562.959 100.765 562.959L77.2392 539.818Z" fill="#5E9400"/>
<path d="M77.2392 539.818L162.792 452.842L186.318 475.984C186.318 475.984 152.422 481.311 129.669 505.003C106.916 528.695 100.765 562.959 100.765 562.959L77.2392 539.818Z" fill="url(#paint16_linear)"/>
<path d="M162.792 452.842L77.2392 539.818L53 515.976C53 515.976 87.3368 511.082 110.082 487.382C132.826 463.681 138.552 429 138.552 429L162.792 452.842Z" fill="#568900"/>
</g>
<g filter="url(#filter12_d)">
<circle cx="56.5" cy="559.5" r="45.5" fill="#F0F0F0"/>
<circle cx="56.5" cy="559.5" r="45.5" fill="url(#paint17_linear)"/>
<circle cx="56.5" cy="559.5" r="41" stroke="#F6F6F6" stroke-width="9"/>
<circle cx="56.5" cy="559.5" r="41" stroke="url(#paint18_linear)" stroke-width="9"/>
</g>
<g filter="url(#filter13_d)">
<circle cx="49.5" cy="53.5" r="45.5" fill="#F0F0F0"/>
<circle cx="49.5" cy="53.5" r="45.5" fill="url(#paint19_linear)"/>
<circle cx="49.5" cy="53.5" r="41" stroke="#F6F6F6" stroke-width="9"/>
<circle cx="49.5" cy="53.5" r="41" stroke="url(#paint20_linear)" stroke-width="9"/>
</g>
<g filter="url(#filter14_d)">
<circle cx="181.5" cy="430.5" r="45.5" fill="#F0F0F0"/>
<circle cx="181.5" cy="430.5" r="45.5" fill="url(#paint21_linear)"/>
<circle cx="181.5" cy="430.5" r="41" stroke="#F6F6F6" stroke-width="9"/>
<circle cx="181.5" cy="430.5" r="41" stroke="url(#paint22_linear)" stroke-width="9"/>
</g>
<ellipse cx="44.5" cy="310.5" rx="7.5" ry="6.5" fill="#5FB64B"/>
<rect x="52" y="300" width="20" height="3" fill="#D09765"/>
<path d="M54 310.5C54 305.813 49.9629 302 45 302C40.0371 302 36 305.813 36 310.5C36 315.187 40.0371 319 45 319C49.9629 319 54 315.187 54 310.5ZM37.2857 310.5C37.2857 306.483 40.7462 303.214 45 303.214C49.2538 303.214 52.7143 306.483 52.7143 310.5C52.7143 314.517 49.2538 317.786 45 317.786C40.7462 317.786 37.2857 314.517 37.2857 310.5Z" fill="black"/>
<path d="M45.2 316V314.872C46.7708 314.733 48 313.696 48 312.425C48 311.06 46.5867 309.95 44.85 309.95H44.15C43.1847 309.95 42.4 309.333 42.4 308.575C42.4 307.817 43.1847 307.2 44.15 307.2H44.85C45.8153 307.2 46.6 307.817 46.6 308.575V308.85H48V308.575C48 307.305 46.7708 306.267 45.2 306.128V305H43.8V306.128C42.2292 306.267 41 307.305 41 308.575C41 309.94 42.4133 311.05 44.15 311.05H44.85C45.8153 311.05 46.6 311.667 46.6 312.425C46.6 313.183 45.8153 313.8 44.85 313.8H44.15C43.1847 313.8 42.4 313.183 42.4 312.425V312.15H41V312.425C41 313.696 42.2292 314.733 43.8 314.872V316H45.2Z" fill="black"/>
<path d="M45.1667 293.8H63.8333V295H65V292C65 290.346 63.6916 289 62.0833 289H46.9167C45.3084 289 44 290.346 44 292V301H45.1667V293.8ZM45.1667 292C45.1667 291.008 45.9518 290.2 46.9167 290.2H62.0833C63.0482 290.2 63.8333 291.008 63.8333 292V292.6H45.1667V292Z" fill="black"/>
<path d="M44 323C44 324.654 45.3084 326 46.9167 326H62.0833C63.6916 326 65 324.654 65 323V320H44V323ZM45.1667 321.2H63.8333V323C63.8333 323.992 63.0482 324.8 62.0833 324.8H46.9167C45.9518 324.8 45.1667 323.992 45.1667 323V321.2Z" fill="black"/>
<path d="M56 322H53V323H56V322Z" fill="black"/>
<path d="M71.2632 296H52.7368C51.7793 296 51 296.777 51 297.731V302.923H51.5789H52.1579H71.8421V309.269C71.8421 309.587 71.5827 309.846 71.2632 309.846H54.4737V311H71.2632C72.2207 311 73 310.223 73 309.269V297.731C73 296.777 72.2207 296 71.2632 296ZM71.8421 301.769H52.1579V299.462H71.8421V301.769ZM71.8421 298.308H52.1579V297.731C52.1579 297.413 52.4173 297.154 52.7368 297.154H71.2632C71.5827 297.154 71.8421 297.413 71.8421 297.731V298.308Z" fill="black"/>
<path d="M65.5 307.482C65.9719 307.797 66.6565 308 67.4286 308C68.8467 308 70 307.327 70 306.5C70 305.673 68.8467 305 67.4286 305C66.6565 305 65.9719 305.203 65.5 305.518C65.0281 305.203 64.3435 305 63.5714 305C62.1533 305 61 305.673 61 306.5C61 307.327 62.1533 308 63.5714 308C64.3435 308 65.0281 307.797 65.5 307.482ZM67.4286 305.75C68.1376 305.75 68.7143 306.086 68.7143 306.5C68.7143 306.914 68.1376 307.25 67.4286 307.25C66.7195 307.25 66.1429 306.914 66.1429 306.5C66.1429 306.086 66.7195 305.75 67.4286 305.75ZM62.2857 306.5C62.2857 306.086 62.8624 305.75 63.5714 305.75C64.2805 305.75 64.8571 306.086 64.8571 306.5C64.8571 306.914 64.2805 307.25 63.5714 307.25C62.8624 307.25 62.2857 306.914 62.2857 306.5Z" fill="black"/>
<path d="M65 311H64V320H65V311Z" fill="black"/>
<path d="M57 313H55V314H57V313Z" fill="black"/>
<path d="M60 313H58V314H60V313Z" fill="black"/>
<path d="M55.5946 824H58.8649C58.8649 824 59.1622 826 60.3514 826C61.5405 826 62.2838 824 62.2838 824H65.7027L66 828H55L55.5946 824Z" fill="#D09765"/>
<path d="M77.5969 796H43.4031C42.078 796 41 797.081 41 798.411V821.689C41 823.018 42.078 824.099 43.4031 824.099H54.968L54.5002 827.854H52.5621C52.2465 827.854 51.9908 828.11 51.9908 828.427C51.9908 828.743 52.2465 829 52.5621 829H68.4379C68.7535 829 69.0092 828.743 69.0092 828.427C69.0092 828.11 68.7535 827.854 68.4379 827.854H66.4998L66.032 824.099H77.5969C78.9219 824.099 80 823.018 80 821.689V798.411C80 797.081 78.922 796 77.5969 796ZM55.6517 827.854L56.1196 824.099H58.2222L58.4284 824.927C58.6665 825.882 59.5184 826.55 60.5001 826.55C61.4817 826.55 62.3336 825.882 62.5717 824.927L62.778 824.099H64.8806L65.3483 827.854H55.6517ZM59.3999 824.099H61.6001L61.4631 824.649C61.3524 825.093 60.9564 825.403 60.4999 825.403C60.0434 825.403 59.6475 825.093 59.5367 824.649L59.3999 824.099ZM78.8574 821.689C78.8574 822.386 78.2919 822.953 77.5969 822.953H43.4031C42.7081 822.953 42.1426 822.386 42.1426 821.689V798.411C42.1426 797.714 42.7081 797.146 43.4031 797.146H77.5969C78.2919 797.146 78.8574 797.714 78.8574 798.411V821.689Z" fill="black"/>
<path d="M73.4184 799H43.5816C43.2603 799 43 799.254 43 799.568V821.432C43 821.746 43.2603 822 43.5816 822H44.8248C45.1461 822 45.4064 821.746 45.4064 821.432C45.4065 821.118 45.1461 820.864 44.8249 820.864H44.1632V800.136H73.4184C73.7397 800.136 74 799.882 74 799.568C74 799.254 73.7397 799 73.4184 799Z" fill="black"/>
<path d="M77.4185 799H76.1752C75.8539 799 75.5936 799.254 75.5936 799.568C75.5936 799.882 75.8539 800.136 76.1752 800.136H76.8369V820.864H47.5815C47.2603 820.864 47 821.118 47 821.432C47 821.746 47.2603 822 47.5815 822H77.4184C77.7397 822 78 821.746 78 821.432V799.568C78 799.254 77.7397 799 77.4185 799Z" fill="black"/>
<g clip-path="url(#clip0)">
<rect x="50.6774" y="802.742" width="3.06452" height="2.90322" fill="#43B02A"/>
<path d="M55.0723 801C54.9658 801.003 54.8675 801.055 54.8097 801.14L53.8733 802.471H50.6843C50.5059 802.471 50.3612 802.608 50.3612 802.777V805.838C50.3612 806.007 50.5059 806.144 50.6843 806.144H53.9153C54.0938 806.144 54.2385 806.007 54.2385 805.838V803.423L53.5922 804.341V805.532H51.0074V803.083H53.4425L52.5337 804.374L52.1365 803.622C52.0587 803.47 51.8654 803.406 51.7048 803.48C51.5442 803.554 51.4771 803.737 51.555 803.889C51.5562 803.891 51.5573 803.893 51.5585 803.895L52.2047 805.12C52.2845 805.271 52.4786 805.332 52.6382 805.257C52.6885 805.233 52.7314 805.197 52.7626 805.153L55.3474 801.48C55.4485 801.34 55.4113 801.15 55.2642 801.054C55.2078 801.017 55.1407 800.998 55.0723 801ZM56.5002 803.695C56.3218 803.695 56.1771 803.832 56.1771 804.001V804.614C56.1771 804.783 56.3218 804.92 56.5002 804.92H62.316C62.4945 804.92 62.6392 804.783 62.6392 804.614V804.001C62.6392 803.832 62.4945 803.695 62.316 803.695H56.5002ZM50.6843 806.758C50.5059 806.758 50.3612 806.895 50.3612 807.064V810.125C50.3612 810.294 50.5059 810.432 50.6843 810.432H53.9153C54.0938 810.432 54.2385 810.294 54.2385 810.125V807.064C54.2385 806.895 54.0938 806.758 53.9153 806.758H50.6843ZM51.0074 807.371H53.5922V809.819H51.0074V807.371ZM56.5002 807.981C56.3218 807.981 56.1771 808.118 56.1771 808.287V808.899C56.1771 809.068 56.3218 809.205 56.5002 809.205H62.316C62.4945 809.205 62.6392 809.068 62.6392 808.899V808.287C62.6392 808.118 62.4945 807.981 62.316 807.981H56.5002ZM50.6843 811.041C50.5059 811.041 50.3612 811.179 50.3612 811.348V814.409C50.3612 814.578 50.5059 814.715 50.6843 814.715H53.9153C54.0938 814.715 54.2385 814.578 54.2385 814.409V811.348C54.2385 811.179 54.0938 811.041 53.9153 811.041H50.6843ZM51.0074 811.654H53.5922V814.102H51.0074V811.654ZM56.5002 812.268C56.3218 812.268 56.1771 812.405 56.1771 812.574V813.186C56.1771 813.355 56.3218 813.492 56.5002 813.492H62.316C62.4945 813.492 62.6392 813.355 62.6392 813.186V812.574C62.6392 812.405 62.4945 812.268 62.316 812.268H56.5002ZM50.6843 815.327C50.5059 815.327 50.3612 815.464 50.3612 815.633V818.694C50.3612 818.863 50.5059 819 50.6843 819H53.9153C54.0938 819 54.2385 818.863 54.2385 818.694V815.633C54.2385 815.464 54.0938 815.327 53.9153 815.327H50.6843ZM51.0074 815.939H53.5922V818.388H51.0074V815.939ZM56.5002 816.551C56.3218 816.551 56.1771 816.688 56.1771 816.857V817.47C56.1771 817.639 56.3218 817.776 56.5002 817.776H62.316C62.4945 817.776 62.6392 817.639 62.6392 817.47V816.857C62.6392 816.688 62.4945 816.551 62.316 816.551H56.5002Z" fill="black"/>
</g>
<path d="M70.2724 555C70.2724 556.657 68.4815 558 66.2724 558C64.0633 558 62.5 554.657 62.5 553C62.5 551.343 69.5 549.5 69.5 549.5C69.5 549.5 70.2724 553.343 70.2724 555Z" fill="#D09765"/>
<circle cx="54" cy="548" r="7" fill="#5FB64B"/>
<path d="M69.8332 560.67C69.5037 560.67 69.2366 560.937 69.2366 561.267C69.2366 561.685 68.8967 562.024 68.479 562.024C68.0613 562.024 67.7213 561.685 67.7213 561.267C67.7213 560.937 67.4542 560.67 67.1247 560.67C66.7952 560.67 66.528 560.937 66.528 561.267C66.528 562.343 67.4033 563.218 68.479 563.218C69.5546 563.218 70.4299 562.343 70.4299 561.267C70.4299 560.937 70.1628 560.67 69.8332 560.67Z" fill="black"/>
<path d="M75.434 560.768L73.7546 560.23C73.5395 560.161 73.37 559.989 73.3012 559.77C72.9472 558.645 72.4131 557.589 71.7136 556.63C71.3949 556.193 71.0403 555.776 70.6531 555.379C70.9008 554.292 71.0355 553.062 71.0181 551.999C70.9931 550.479 70.6893 549.587 70.0893 549.273C69.7662 549.104 68.7829 548.589 63.4603 551.025C63.3343 551.083 63.2166 551.154 63.1076 551.236C62.7487 551.139 62.382 551.05 62.013 550.97C61.9685 550.96 61.9227 550.952 61.878 550.942C62.3093 550 62.5611 548.977 62.6084 547.92C62.6232 547.591 62.3683 547.312 62.039 547.297C61.7106 547.281 61.4309 547.538 61.4162 547.867C61.3385 549.604 60.6179 551.238 59.3875 552.469C58.6523 553.204 57.7914 553.738 56.874 554.074C55.2829 553.851 53.6623 553.851 52.0712 554.074C51.1537 553.738 50.2929 553.204 49.5577 552.469C48.2449 551.156 47.5219 549.41 47.5219 547.554C47.5219 545.697 48.2449 543.952 49.5577 542.639C50.8705 541.326 52.6161 540.603 54.4726 540.603C56.3291 540.603 58.0747 541.326 59.3875 542.639C59.915 543.166 60.351 543.768 60.6832 544.428C60.8314 544.722 61.1903 544.841 61.4845 544.693C61.7789 544.545 61.8973 544.186 61.7491 543.891C61.3597 543.118 60.849 542.413 60.2314 541.795C58.6932 540.257 56.648 539.41 54.4727 539.41C52.2973 539.41 50.2521 540.257 48.7139 541.795C47.1757 543.333 46.3286 545.378 46.3286 547.554C46.3286 549.729 47.1757 551.774 48.7139 553.312C49.1576 553.756 49.6403 554.138 50.1509 554.457C50.1511 554.457 50.1512 554.457 50.1514 554.457C49.7804 554.554 49.4122 554.662 49.0481 554.784C48.7355 554.888 48.5669 555.226 48.6714 555.539C48.7758 555.851 49.114 556.02 49.4265 555.916C52.6805 554.828 56.2648 554.828 59.5189 555.916C59.5816 555.937 59.6454 555.947 59.7081 555.947C59.9577 555.947 60.1904 555.789 60.2739 555.539C60.3784 555.226 60.2098 554.888 59.8972 554.784C59.5331 554.662 59.1649 554.554 58.7939 554.457C58.7941 554.457 58.7942 554.457 58.7944 554.457C59.3051 554.138 59.7877 553.756 60.2314 553.312C60.6239 552.92 60.9704 552.491 61.2713 552.036C61.4358 552.068 61.5991 552.101 61.7599 552.136C61.9742 552.183 62.1875 552.233 62.399 552.285C62.3923 552.311 62.3855 552.337 62.38 552.363C62.089 553.744 62.1079 554.965 62.4361 555.993C62.7311 556.917 63.2636 557.665 64.0185 558.217C64.9082 558.868 65.9824 559.149 66.9554 559.149C67.6877 559.149 68.3629 558.99 68.8587 558.709C69.4196 558.392 69.8895 557.722 70.2614 556.717C70.4334 556.918 70.5963 557.123 70.7499 557.334C71.3727 558.187 71.8481 559.127 72.163 560.128C72.3479 560.716 72.8069 561.179 73.3907 561.366L75.0701 561.904C75.5108 562.045 75.8068 562.451 75.8068 562.914V565.698C75.8068 566.161 75.5108 566.567 75.0701 566.708L72.3644 567.575C71.9315 567.713 71.5651 568.011 71.3328 568.412C70.2698 570.25 68.5984 571.77 66.365 572.931C66.107 573.065 65.9282 573.305 65.8744 573.59L65.0078 578.179C64.9839 578.305 64.8731 578.397 64.7444 578.397H61.9267C61.798 578.397 61.6873 578.305 61.6634 578.179L61.1834 575.643C61.0889 575.144 60.6209 574.812 60.1172 574.889C58.9035 575.072 57.6528 575.165 56.4001 575.165C55.4682 575.165 54.5482 575.113 53.6655 575.011C53.1774 574.955 52.7227 575.287 52.6315 575.769L52.1754 578.179C52.1514 578.305 52.0407 578.397 51.912 578.397H49.0943C48.9656 578.397 48.8549 578.305 48.8306 578.177L47.9962 573.843C47.9425 573.564 47.7671 573.326 47.5148 573.191C43.7075 571.159 41.6952 567.763 41.6952 563.372C41.6952 561.153 42.1806 559.191 43.1379 557.54C44.0313 556 45.3361 554.726 47.016 553.754C47.3013 553.589 47.3987 553.224 47.2338 552.939C47.0688 552.653 46.7038 552.556 46.4185 552.721C43.161 554.605 41.1963 557.512 40.6553 561.205V561.205C40.5979 561.2 40.5404 561.195 40.4832 561.189C40.4936 560.79 40.4215 560.388 40.2646 559.998C39.9184 559.138 39.2073 558.517 38.4529 558.416C37.8584 558.336 37.2926 558.589 36.9 559.107C36.3307 559.86 36.4235 560.455 36.6015 560.822C36.9021 561.441 37.6746 561.879 38.9566 562.155C38.9213 562.207 38.8826 562.26 38.8401 562.314C38.0827 563.264 37.1903 563.474 36.6108 563.493C36.2716 563.505 36 563.777 36 564.117V564.12C36 564.454 36.2642 564.727 36.5987 564.743C36.6415 564.745 36.6863 564.746 36.7329 564.746C37.4661 564.746 38.6428 564.475 39.7734 563.058C39.9519 562.834 40.0973 562.598 40.2091 562.354C40.3217 562.367 40.4298 562.378 40.5335 562.387C40.5335 562.387 40.5335 562.387 40.5335 562.387C40.5132 562.71 40.5019 563.038 40.5019 563.372C40.5019 565.857 41.0943 568.072 42.2624 569.957C43.3394 571.694 44.8815 573.117 46.8472 574.187L47.6584 578.401C47.7889 579.09 48.3927 579.59 49.0943 579.59H51.912C52.6136 579.59 53.2174 579.09 53.3479 578.401L53.7603 576.222C54.6168 576.313 55.5036 576.359 56.4001 576.359C57.6301 576.359 58.8586 576.273 60.056 576.104L60.4907 578.401C60.6212 579.09 61.2251 579.59 61.9266 579.59H64.7443C65.4458 579.59 66.0497 579.09 66.1802 578.4L67.024 573.933C69.4078 572.672 71.2046 571.016 72.3656 569.01C72.4492 568.865 72.5781 568.759 72.7283 568.711L75.434 567.844C76.3707 567.544 77 566.682 77 565.698V562.914C77 561.93 76.3707 561.068 75.434 560.768ZM69.7352 553.676C69.5055 555.64 68.8894 557.32 68.2704 557.671C67.5669 558.069 65.9425 558.146 64.7229 557.254C63.5019 556.361 63.0955 554.755 63.5475 552.609C63.5475 552.609 63.5475 552.609 63.5475 552.609C63.5929 552.394 63.746 552.207 63.957 552.111C66.9443 550.743 68.6665 550.296 69.3063 550.296C69.4029 550.296 69.4748 550.306 69.5227 550.325C69.7149 550.53 69.967 551.694 69.7352 553.676ZM37.6753 560.301C37.6136 560.174 37.7593 559.95 37.8517 559.828C37.9982 559.634 38.1331 559.594 38.2351 559.594C38.2566 559.594 38.2767 559.596 38.2951 559.599C38.5695 559.635 38.9538 559.937 39.1575 560.443C39.2054 560.563 39.2677 560.76 39.2823 561.006C38.4563 560.835 37.8146 560.588 37.6753 560.301Z" fill="black"/>
<path d="M55.052 546.87V544.735C55.7884 544.787 56.0619 545.124 56.3143 545.124C56.6299 545.124 56.7772 544.724 56.7772 544.524C56.7772 544.009 55.7673 543.788 55.052 543.767V543.483C55.052 543.357 54.8942 543.241 54.7365 543.241C54.5576 543.241 54.4314 543.357 54.4314 543.483V543.788C53.4321 543.893 52.4328 544.419 52.4328 545.744C52.4328 547.091 53.4847 547.469 54.4314 547.806V550.278C53.3584 550.194 53.0744 549.457 52.7273 549.457C52.4643 549.457 52.2435 549.805 52.2435 550.057C52.2435 550.572 53.1271 551.277 54.4314 551.298V551.624C54.4314 551.751 54.5576 551.866 54.7365 551.866C54.8943 551.866 55.052 551.751 55.052 551.624V551.267C56.1881 551.109 56.9665 550.394 56.9665 549.1C56.9665 547.669 55.9672 547.206 55.052 546.87ZM54.4945 546.67C53.937 546.46 53.4847 546.239 53.4847 545.639C53.4847 545.092 53.9054 544.829 54.4945 544.756V546.67ZM54.9889 550.257V548.037C55.5042 548.258 55.9145 548.553 55.9145 549.215C55.9145 549.815 55.5569 550.152 54.9889 550.257Z" fill="white"/>
<path fill-rule="evenodd" clip-rule="evenodd" d="M153.703 167.724V193.011H194.297V167.724H153.703ZM153.419 166C152.635 166 152 166.643 152 167.437V193.298C152 194.091 152.635 194.735 153.419 194.735H194.581C195.365 194.735 196 194.091 196 193.298V167.437C196 166.643 195.365 166 194.581 166H153.419Z" fill="black"/>
<path d="M153 167H156C156 169.209 154.657 171 153 171V167Z" fill="black"/>
<path d="M153 194L153 190C154.657 190 156 191.791 156 194L153 194Z" fill="black"/>
<path d="M195 194L191 194C191 191.791 192.791 190 195 190L195 194Z" fill="black"/>
<path d="M195 167L191 167C191 169.209 192.791 171 195 171L195 167Z" fill="black"/>
<path d="M185.225 180.367C185.225 185.823 180.601 190.245 174.898 190.245C169.195 190.245 164.571 185.823 164.571 180.367C164.571 174.912 169.195 170.49 174.898 170.49C180.601 170.49 185.225 174.912 185.225 180.367Z" fill="#5FB64B"/>
<path d="M174.268 184.84C173.758 184.822 173.311 184.769 172.926 184.68C172.541 184.591 172.242 184.489 172.027 184.373L172.55 182.867C172.711 182.964 172.935 183.058 173.221 183.147C173.517 183.236 173.866 183.298 174.268 183.333V180.6C173.991 180.476 173.714 180.338 173.436 180.187C173.168 180.036 172.926 179.853 172.711 179.64C172.497 179.427 172.322 179.173 172.188 178.88C172.063 178.578 172 178.222 172 177.813C172 177.049 172.201 176.458 172.604 176.04C173.016 175.613 173.57 175.338 174.268 175.213V174H175.664V175.16C176.058 175.187 176.403 175.24 176.698 175.32C176.993 175.4 177.266 175.493 177.517 175.6L177.034 177.08C176.881 177.009 176.689 176.938 176.456 176.867C176.224 176.796 175.96 176.742 175.664 176.707V179.2C175.942 179.324 176.219 179.467 176.497 179.627C176.783 179.778 177.034 179.96 177.248 180.173C177.472 180.387 177.651 180.64 177.785 180.933C177.928 181.218 178 181.56 178 181.96C178 182.778 177.79 183.418 177.369 183.88C176.957 184.333 176.389 184.627 175.664 184.76V186H174.268V184.84ZM176.255 182.16C176.255 181.876 176.139 181.644 175.906 181.467C175.682 181.28 175.409 181.111 175.087 180.96V183.333C175.481 183.289 175.772 183.164 175.96 182.96C176.157 182.756 176.255 182.489 176.255 182.16ZM173.745 177.667C173.745 177.933 173.848 178.156 174.054 178.333C174.268 178.511 174.532 178.676 174.846 178.827V176.667C174.425 176.684 174.134 176.787 173.973 176.973C173.821 177.16 173.745 177.391 173.745 177.667Z" fill="white"/>
<rect x="157" y="174" width="2" height="10" rx="1" fill="#D09765"/>
<rect x="189" y="175" width="2" height="10" rx="1" fill="#D09765"/>
<path d="M46 46.5L44.5 48L43.5 45L47 40.5L58.5 40V45.5H55.5L51.5 44.5L46 45V46.5Z" fill="#D09765"/>
<path d="M39.5 69.5V64L40.5 62.5L46 60.5L48.5 63.5L51 61.5L54 63.5L55.5 61H57L61.5 62L62.5 63.5V69.5H51H39.5Z" fill="#5FB64B"/>
<path d="M67.8197 52.3895C66.3225 51.641 63.5153 51.6323 63.3966 51.6323C63.0406 51.6323 62.752 51.9209 62.752 52.2769C62.752 52.6328 63.0406 52.9214 63.3966 52.9214C64.1209 52.9215 66.2241 53.033 67.2432 53.5426C67.3358 53.5889 67.4341 53.6107 67.5309 53.6107C67.7674 53.6107 67.995 53.4801 68.1079 53.2543C68.2672 52.9359 68.1381 52.5488 67.8197 52.3895Z" fill="black"/>
<path d="M71.0331 61.566L68.3711 60.8055C68.2562 60.7727 68.176 60.6663 68.176 60.5467V59.6582C68.3925 59.5082 68.5991 59.3402 68.7922 59.1528C69.7281 58.2446 70.2435 57.0265 70.2435 55.7226V54.4966L70.5009 53.9819C70.7833 53.4168 70.9326 52.7842 70.9326 52.1526V48.8311C70.9326 48.4752 70.644 48.1866 70.2881 48.1866H64.0857C61.8304 48.1866 59.9954 50.0215 59.9954 52.2769V52.3153C59.9954 52.8405 60.1196 53.3666 60.3545 53.8363L60.6846 54.4965V55.5492C60.6846 57.2176 61.5067 58.7145 62.752 59.6153L62.7522 60.5466C62.7522 60.6902 62.7522 60.7496 62.22 60.9017L60.9211 61.2728L57.1639 59.9066C57.1774 59.7293 57.1175 59.549 56.9882 59.4131L55.7876 58.1517V56.0342C55.9145 55.9296 56.0396 55.8222 56.1609 55.7086C57.6755 54.2889 58.5442 52.2845 58.5442 50.2094V48.5183C59.0016 47.5231 59.2333 46.4699 59.2333 45.3853V38.494C59.2333 38.138 58.9447 37.8494 58.5888 37.8494H48.9407C45.5453 37.8494 42.783 40.6118 42.783 44.0071V45.3855C42.783 46.4701 43.0148 47.5232 43.4721 48.5185V49.9735C43.4721 52.3828 44.5434 54.5534 46.2288 55.9845V58.1518L45.0281 59.4132C44.8988 59.5491 44.839 59.7294 44.8525 59.9067L40.8869 61.3486C40.5995 61.4531 40.3325 61.5946 40.0901 61.7661L39.4674 61.4547C41.321 60.6479 41.9082 59.5131 41.9364 59.4567C42.0272 59.2753 42.0272 59.0616 41.9364 58.8802C41.4718 57.9509 41.4155 56.2475 41.3703 54.8789C41.3552 54.4232 41.341 53.9928 41.3137 53.6095C41.094 50.518 38.7438 48.1866 35.8468 48.1866C32.9499 48.1866 30.5996 50.5179 30.3799 53.6095C30.3527 53.9929 30.3384 54.4233 30.3234 54.8791C30.2781 56.2476 30.2218 57.9508 29.7572 58.8801C29.6664 59.0615 29.6664 59.2752 29.7572 59.4566C29.7854 59.513 30.3714 60.6455 32.2288 61.4533L30.4991 62.3181C29.5744 62.7808 29 63.7102 29 64.7439V69.5056C29 69.8616 29.2886 70.1502 29.6445 70.1502C30.0005 70.1502 30.2891 69.8616 30.2891 69.5056V64.7439C30.2891 64.2015 30.5904 63.7138 31.0756 63.4712L33.2294 62.3943L33.9786 63.1063C34.5025 63.6041 35.1745 63.8529 35.8468 63.8529C36.5189 63.8529 37.1913 63.6039 37.715 63.1063L38.4641 62.3944L39.1664 62.7455C38.8357 63.2746 38.648 63.8951 38.648 64.545V69.5058C38.648 69.8617 38.9366 70.1503 39.2926 70.1503C39.6485 70.1503 39.9371 69.8617 39.9371 69.5058V64.545C39.9371 63.6602 40.4958 62.8626 41.3274 62.5602L45.5084 61.0398L47.2489 63.6507C47.4714 63.9845 47.828 64.1986 48.2271 64.2381C48.2717 64.2425 48.3159 64.2446 48.3601 64.2446C48.7123 64.2446 49.0496 64.106 49.3017 63.8539L50.3635 62.7921V69.5059C50.3635 69.8618 50.6521 70.1504 51.0081 70.1504C51.364 70.1504 51.6526 69.8618 51.6526 69.5059V62.7921L52.7145 63.8539C52.9665 64.1061 53.3038 64.2447 53.6561 64.2447C53.7002 64.2447 53.7445 64.2426 53.7889 64.2382C54.1882 64.1986 54.5448 63.9846 54.7672 63.6508L56.5078 61.04L60.6888 62.5603C61.5203 62.8627 62.0791 63.6604 62.0791 64.5452V69.506C62.0791 69.8619 62.3676 70.1505 62.7236 70.1505C63.0795 70.1505 63.3681 69.8619 63.3681 69.506V64.5452C63.3681 63.6491 63.0121 62.8086 62.4148 62.187L62.5741 62.1416C62.7347 62.0957 62.9538 62.0328 63.1738 61.925L64.8194 63.5706V69.506C64.8194 69.8619 65.108 70.1505 65.464 70.1505C65.8199 70.1505 66.1085 69.8619 66.1085 69.506V63.5706L67.7427 61.9364C67.8296 61.9806 67.9208 62.0179 68.0169 62.0453L70.6789 62.8058C71.2865 62.9794 71.7109 63.5421 71.7109 64.1741V69.506C71.7109 69.8619 71.9995 70.1505 72.3555 70.1505C72.7114 70.1505 73 69.8619 73 69.506V64.1741C73 62.9694 72.1912 61.897 71.0331 61.566ZM33.1349 60.4276C31.9293 59.9938 31.3245 59.4154 31.0664 59.0996C31.2424 58.6395 31.3565 58.1125 31.4337 57.5563C31.7892 58.4085 32.3845 59.1361 33.1349 59.6551V60.4276ZM36.8272 62.172C36.2774 62.6943 35.4163 62.6942 34.8667 62.1719L34.2673 61.6023C34.3684 61.4128 34.424 61.198 34.424 60.9729V60.2859C34.8737 60.4264 35.3516 60.5022 35.847 60.5022C36.3417 60.5022 36.8195 60.4261 37.2699 60.2863L37.2698 60.9728C37.2698 61.198 37.3253 61.4129 37.4265 61.6025L36.8272 62.172ZM35.8472 59.2131C33.9225 59.2131 32.3568 57.6474 32.3568 55.7228C32.3568 55.3668 32.0682 55.0783 31.7123 55.0783C31.6762 55.0783 31.6409 55.082 31.6065 55.0877C31.6084 55.0323 31.6102 54.9768 31.6121 54.9219C31.6264 54.4787 31.6403 54.0601 31.6658 53.701C31.7481 52.5429 32.2109 51.4758 32.9689 50.696C33.7336 49.9091 34.7558 49.4758 35.847 49.4758C36.9382 49.4758 37.9603 49.9091 38.7251 50.696C39.4831 51.4758 39.9459 52.5429 40.0282 53.701C40.0536 54.06 40.0675 54.4785 40.0822 54.9216C40.0834 54.9597 40.0847 54.9983 40.086 55.0366C39.3848 53.9562 38.3018 53.16 36.9025 52.7103C35.6097 52.295 34.4979 52.3207 34.4509 52.3219C34.2821 52.3266 34.122 52.3973 34.0048 52.5188L32.8419 53.7248C32.5949 53.9811 32.6022 54.3891 32.8585 54.6362C33.1148 54.8833 33.5228 54.8758 33.7699 54.6196L34.7375 53.6161C35.5709 53.6569 38.2519 53.9686 39.2945 56.2646C39.0322 57.9566 37.5779 59.2131 35.8472 59.2131ZM38.5587 60.4298L38.5588 59.661C39.3086 59.1448 39.9048 58.4187 40.2605 57.56C40.3377 58.1149 40.4518 58.6407 40.6274 59.0998C40.3707 59.4126 39.7632 59.9961 38.5587 60.4298ZM44.7612 49.9734V48.3743C44.7612 48.2773 44.7393 48.1814 44.6971 48.094C44.2824 47.2352 44.0721 46.3239 44.0721 45.3855V44.0072C44.0721 41.3226 46.2562 39.1386 48.9407 39.1386H57.9443V45.3855C57.9443 46.324 57.734 47.2353 57.3192 48.0941C57.277 48.1815 57.2551 48.2773 57.2551 48.3744V50.2096C57.2551 51.955 56.5535 53.574 55.2793 54.7683C55.1203 54.9173 54.9552 55.057 54.7845 55.1872C54.7807 55.1898 54.7771 55.1926 54.7734 55.1953C53.5798 56.1015 52.1179 56.5419 50.5911 56.443C47.322 56.2314 44.7612 53.3896 44.7612 49.9734ZM48.3903 62.9423C48.3858 62.9468 48.3754 62.9574 48.3543 62.9551C48.3334 62.9531 48.3251 62.9408 48.3216 62.9354L46.3171 59.9287L46.9621 59.2509L50.003 61.3294L48.3903 62.9423ZM51.0082 60.455L47.5178 58.0692V56.8661C48.4209 57.3543 49.4322 57.6597 50.5077 57.7293C50.6776 57.7403 50.8464 57.7457 51.0148 57.7457C52.2472 57.7457 53.4333 57.4511 54.4985 56.8919V58.0692L51.0082 60.455ZM53.6947 62.9356C53.6912 62.9409 53.683 62.9532 53.662 62.9553C53.6409 62.958 53.6306 62.9469 53.6261 62.9425L52.0133 61.3297L55.0542 59.251L55.6993 59.9288L53.6947 62.9356ZM65.464 62.3918L64.0013 60.9292C64.0268 60.8133 64.0413 60.6864 64.0412 60.5464L64.0411 60.2744C64.447 60.4076 64.8748 60.4867 65.3174 60.4999C65.3671 60.5014 65.4164 60.5021 65.4659 60.5021C65.955 60.5021 66.4325 60.4282 66.8869 60.2872V60.5467C66.8869 60.6753 66.9031 60.8013 66.9335 60.9224L65.464 62.3918ZM67.8945 58.2278C67.2114 58.8907 66.309 59.2408 65.3562 59.2114C63.491 59.1555 61.9736 57.5126 61.9736 55.5494V54.3444C61.9736 54.2443 61.9503 54.1457 61.9056 54.0562L61.5074 53.2599C61.3616 52.9682 61.2845 52.6416 61.2845 52.3154V52.277C61.2845 50.7323 62.5411 49.4757 64.0857 49.4757H69.6435V52.1527C69.6435 52.5853 69.5413 53.0185 69.3478 53.4055L69.0225 54.0562C68.9777 54.1458 68.9544 54.2443 68.9544 54.3444V55.7227C68.9544 56.6749 68.578 57.5645 67.8945 58.2278Z" fill="black"/>
<path d="M69.5988 64.7262C69.2429 64.7262 68.9543 65.0148 68.9543 65.3707V69.5056C68.9543 69.8616 69.2429 70.1501 69.5988 70.1501C69.9548 70.1501 70.2434 69.8616 70.2434 69.5056V65.3707C70.2434 65.0149 69.9548 64.7262 69.5988 64.7262Z" fill="black"/>
<path d="M32.4012 65.5782C32.0452 65.5782 31.7566 65.8668 31.7566 66.2227V69.5056C31.7566 69.8616 32.0452 70.1501 32.4012 70.1501C32.7571 70.1501 33.0457 69.8616 33.0457 69.5056V66.2227C33.0457 65.8669 32.7571 65.5782 32.4012 65.5782Z" fill="black"/>
<path d="M56.2879 45.619C53.8502 43.1813 48.7499 43.6473 46.67 43.9608C46.0149 44.0595 45.5395 44.6139 45.5395 45.279V46.7638C45.5395 47.1198 45.8281 47.4083 46.1841 47.4083C46.54 47.4083 46.8286 47.1198 46.8286 46.7638V45.2789C46.8286 45.257 46.843 45.2382 46.8623 45.2353C47.693 45.1101 49.3416 44.9169 51.0496 45.0308C53.0595 45.1646 54.5153 45.6691 55.3765 46.5304C55.6282 46.7821 56.0363 46.7821 56.2879 46.5304C56.5396 46.2787 56.5396 45.8706 56.2879 45.619Z" fill="black"/>
<path d="M43.4275 66.1046C43.0716 66.1046 42.783 66.3931 42.783 66.7491V69.5057C42.783 69.8617 43.0716 70.1502 43.4275 70.1502C43.7835 70.1502 44.0721 69.8617 44.0721 69.5057V66.7491C44.0721 66.3932 43.7835 66.1046 43.4275 66.1046Z" fill="black"/>
<path d="M58.5888 66.1046C58.2328 66.1046 57.9443 66.3931 57.9443 66.7491V69.5057C57.9443 69.8617 58.2328 70.1502 58.5888 70.1502C58.9447 70.1502 59.2333 69.8617 59.2333 69.5057V66.7491C59.2333 66.3932 58.9447 66.1046 58.5888 66.1046Z" fill="black"/>
<ellipse cx="179" cy="680.5" rx="5" ry="4.5" fill="#5FB64B"/>
<ellipse cx="180" cy="701.656" rx="19" ry="4.5" fill="#D09765"/>
<path d="M179.797 664C172.741 664 167 669.741 167 676.797C167 679.181 167.66 681.508 168.91 683.526L179.068 699.896C179.263 700.209 179.606 700.4 179.975 700.4C179.977 700.4 179.98 700.4 179.983 700.4C180.355 700.397 180.698 700.201 180.889 699.882L190.789 683.353C191.97 681.377 192.594 679.11 192.594 676.797C192.594 669.741 186.853 664 179.797 664ZM188.958 682.258L179.958 697.285L170.723 682.402C169.683 680.722 169.119 678.784 169.119 676.797C169.119 670.917 173.917 666.119 179.797 666.119C185.677 666.119 190.468 670.917 190.468 676.797C190.468 678.725 189.941 680.614 188.958 682.258Z" fill="black"/>
<path d="M179.797 670.398C176.269 670.398 173.398 673.269 173.398 676.797C173.398 680.302 176.222 683.195 179.797 683.195C183.416 683.195 186.195 680.264 186.195 676.797C186.195 673.269 183.325 670.398 179.797 670.398ZM179.797 681.077C177.433 681.077 175.517 679.155 175.517 676.797C175.517 674.445 177.445 672.517 179.797 672.517C182.149 672.517 184.07 674.445 184.07 676.797C184.07 679.12 182.199 681.077 179.797 681.077Z" fill="black"/>
<rect x="180" y="428" width="2" height="19" fill="#D09765"/>
<rect x="179" y="422" width="5" height="4" fill="#5FB64B"/>
<g clip-path="url(#clip1)">
<path d="M176.5 420.5C176.9 420.5 178.333 420.833 179 421H180L181 420.5L180 419L178.5 416.5L176.5 415L174.5 414.5C174.167 414.833 173.5 415.6 173.5 416C173.5 416.4 174.167 417.833 174.5 418.5C175 419.167 176.1 420.5 176.5 420.5Z" stroke="#5FB64B" stroke-width="2"/>
<path d="M186 420.5C185.6 420.5 184.167 420.833 183.5 421H182.5L182 420.5L182.5 419L184 416.5L186 415L188 414.5C188.333 414.833 189 415.6 189 416C189 416.4 188.833 417.833 188.5 418.5C188 419.167 186.4 420.5 186 420.5Z" stroke="#5FB64B" stroke-width="2"/>
<rect x="180" y="428" width="2" height="19" fill="#D09765"/>
<path d="M179.326 420.935C179.508 420.935 179.681 420.849 179.79 420.702C179.9 420.555 179.934 420.366 179.882 420.191C179.466 418.772 178.748 417.46 177.776 416.346C176.993 415.513 175.828 415.156 174.713 415.408C174.559 415.467 174.438 415.589 174.379 415.743C174.347 415.829 174.323 415.919 174.308 416.01C174.29 416.118 174.281 416.227 174.279 416.337V416.346C174.286 417.271 174.658 418.155 175.315 418.806C176.43 419.776 177.741 420.494 179.159 420.909C179.213 420.926 179.269 420.934 179.326 420.935ZM176.137 417.985C175.907 417.754 175.727 417.479 175.606 417.176V417.17C175.581 417.106 175.559 417.042 175.54 416.98C175.53 416.946 175.523 416.914 175.514 416.881C175.506 416.848 175.498 416.823 175.492 416.794C175.486 416.765 175.485 416.753 175.481 416.733C175.464 416.646 175.452 416.559 175.446 416.471C176.018 416.514 176.555 416.761 176.96 417.166C177.536 417.818 178.001 418.56 178.334 419.364C177.53 419.029 176.786 418.563 176.135 417.985H176.137Z" fill="black"/>
<path d="M197.116 421.335H188.168C188.555 421.07 188.918 420.773 189.254 420.446C191.327 418.366 191.395 415.213 190.071 413.888C188.746 412.564 185.594 412.63 183.512 414.706C182.66 415.633 181.968 416.694 181.465 417.847C180.961 416.693 180.268 415.631 179.416 414.704C177.336 412.631 174.183 412.563 172.858 413.888C171.533 415.212 171.602 418.366 173.675 420.446C174.011 420.773 174.375 421.07 174.761 421.335H165.813C165.493 421.335 165.234 421.594 165.234 421.915V427.711C165.234 428.031 165.493 428.291 165.813 428.291H166.973V445.102C166.975 446.701 168.271 447.998 169.871 448H193.058C194.658 447.998 195.955 446.701 195.957 445.102V428.291H197.116C197.436 428.291 197.696 428.031 197.696 427.711V421.915C197.696 421.594 197.436 421.335 197.116 421.335ZM184.332 415.525C185.998 413.864 188.428 413.884 189.251 414.707C190.075 415.531 190.095 417.96 188.434 419.626C187.674 420.329 186.805 420.906 185.862 421.335H182.398C182.398 421.323 182.398 421.309 182.398 421.297C182.398 421.165 182.388 421.031 182.375 420.896C182.371 420.852 182.366 420.808 182.36 420.763C182.347 420.651 182.331 420.54 182.311 420.43C182.305 420.391 182.298 420.352 182.291 420.314C182.264 420.17 182.233 420.027 182.199 419.89C182.194 419.87 182.189 419.853 182.184 419.832C182.153 419.712 182.122 419.6 182.089 419.485C182.084 419.469 182.08 419.451 182.076 419.436C182.551 417.991 183.319 416.659 184.332 415.525ZM183.783 427.132H179.146V422.494H183.783V427.132ZM174.496 419.627C172.835 417.96 172.854 415.532 173.678 414.707C174.502 413.883 176.93 413.864 178.596 415.524C179.651 416.705 180.441 418.098 180.915 419.61C180.98 419.813 181.03 420.008 181.078 420.198C181.091 420.252 181.102 420.305 181.114 420.359C181.145 420.5 181.171 420.635 181.189 420.765C181.196 420.808 181.204 420.854 181.209 420.896C181.227 421.041 181.237 421.187 181.239 421.333H177.067C176.125 420.905 175.257 420.329 174.496 419.627ZM166.393 422.494H177.987V427.132H166.393V422.494ZM168.132 445.102V428.291H179.146V446.841H169.871C168.911 446.841 168.132 446.062 168.132 445.102ZM180.305 446.841V428.291H182.624V446.841H180.305ZM194.797 445.102C194.797 446.062 194.019 446.841 193.058 446.841H183.783V428.291H194.797V445.102ZM196.536 427.132H184.943V422.494H196.536V427.132Z" fill="black"/>
<path d="M183.602 420.937C183.658 420.937 183.713 420.929 183.767 420.913C185.186 420.498 186.499 419.779 187.613 418.805C188.437 418.016 188.793 416.856 188.552 415.74C188.493 415.587 188.372 415.466 188.219 415.407C187.103 415.166 185.943 415.521 185.154 416.346C184.18 417.46 183.461 418.772 183.046 420.192C182.994 420.368 183.028 420.557 183.137 420.704C183.247 420.85 183.419 420.937 183.602 420.937ZM185.974 417.166C186.379 416.761 186.917 416.514 187.489 416.47C187.445 417.042 187.199 417.58 186.793 417.986C186.141 418.566 185.396 419.033 184.59 419.368C184.925 418.562 185.393 417.818 185.974 417.166Z" fill="black"/>
</g>
<defs>
<filter id="filter0_d" x="49.4405" y="555.665" width="141.635" height="141.635" filterUnits="userSpaceOnUse" color-interpolation-filters="sRGB">
<feFlood flood-opacity="0" result="BackgroundImageFix"/>
<feColorMatrix in="SourceAlpha" type="matrix" values="0 0 0 0 0 0 0 0 0 0 0 0 0 0 0 0 0 0 127 0"/>
<feOffset dy="4"/>
<feGaussianBlur stdDeviation="2"/>
<feColorMatrix type="matrix" values="0 0 0 0 0 0 0 0 0 0 0 0 0 0 0 0 0 0 0.25 0"/>
<feBlend mode="normal" in2="BackgroundImageFix" result="effect1_dropShadow"/>
<feBlend mode="normal" in="SourceGraphic" in2="effect1_dropShadow" result="shape"/>
</filter>
<filter id="filter1_d" x="53" y="682" width="141.318" height="141.959" filterUnits="userSpaceOnUse" color-interpolation-filters="sRGB">
<feFlood flood-opacity="0" result="BackgroundImageFix"/>
<feColorMatrix in="SourceAlpha" type="matrix" values="0 0 0 0 0 0 0 0 0 0 0 0 0 0 0 0 0 0 127 0"/>
<feOffset dy="4"/>
<feGaussianBlur stdDeviation="2"/>
<feColorMatrix type="matrix" values="0 0 0 0 0 0 0 0 0 0 0 0 0 0 0 0 0 0 0.25 0"/>
<feBlend mode="normal" in2="BackgroundImageFix" result="effect1_dropShadow"/>
<feBlend mode="normal" in="SourceGraphic" in2="effect1_dropShadow" result="shape"/>
</filter>
<filter id="filter2_d" x="133" y="640" width="102" height="102" filterUnits="userSpaceOnUse" color-interpolation-filters="sRGB">
<feFlood flood-opacity="0" result="BackgroundImageFix"/>
<feColorMatrix in="SourceAlpha" type="matrix" values="0 0 0 0 0 0 0 0 0 0 0 0 0 0 0 0 0 0 127 0"/>
<feOffset dx="4" dy="6"/>
<feGaussianBlur stdDeviation="3"/>
<feColorMatrix type="matrix" values="0 0 0 0 0 0 0 0 0 0 0 0 0 0 0 0 0 0 0.25 0"/>
<feBlend mode="normal" in2="BackgroundImageFix" result="effect1_dropShadow"/>
<feBlend mode="normal" in="SourceGraphic" in2="effect1_dropShadow" result="shape"/>
</filter>
<filter id="filter3_d" x="13" y="767" width="103" height="103" filterUnits="userSpaceOnUse" color-interpolation-filters="sRGB">
<feFlood flood-opacity="0" result="BackgroundImageFix"/>
<feColorMatrix in="SourceAlpha" type="matrix" values="0 0 0 0 0 0 0 0 0 0 0 0 0 0 0 0 0 0 127 0"/>
<feOffset dx="4" dy="6"/>
<feGaussianBlur stdDeviation="3"/>
<feColorMatrix type="matrix" values="0 0 0 0 0 0 0 0 0 0 0 0 0 0 0 0 0 0 0.25 0"/>
<feBlend mode="normal" in2="BackgroundImageFix" result="effect1_dropShadow"/>
<feBlend mode="normal" in="SourceGraphic" in2="effect1_dropShadow" result="shape"/>
</filter>
<filter id="filter4_d" x="43.4405" y="50.6651" width="141.635" height="141.635" filterUnits="userSpaceOnUse" color-interpolation-filters="sRGB">
<feFlood flood-opacity="0" result="BackgroundImageFix"/>
<feColorMatrix in="SourceAlpha" type="matrix" values="0 0 0 0 0 0 0 0 0 0 0 0 0 0 0 0 0 0 127 0"/>
<feOffset dy="4"/>
<feGaussianBlur stdDeviation="2"/>
<feColorMatrix type="matrix" values="0 0 0 0 0 0 0 0 0 0 0 0 0 0 0 0 0 0 0.25 0"/>
<feBlend mode="normal" in2="BackgroundImageFix" result="effect1_dropShadow"/>
<feBlend mode="normal" in="SourceGraphic" in2="effect1_dropShadow" result="shape"/>
</filter>
<filter id="filter5_d" x="47.6656" y="305.665" width="141.97" height="141.97" filterUnits="userSpaceOnUse" color-interpolation-filters="sRGB">
<feFlood flood-opacity="0" result="BackgroundImageFix"/>
<feColorMatrix in="SourceAlpha" type="matrix" values="0 0 0 0 0 0 0 0 0 0 0 0 0 0 0 0 0 0 127 0"/>
<feOffset dy="4"/>
<feGaussianBlur stdDeviation="2"/>
<feColorMatrix type="matrix" values="0 0 0 0 0 0 0 0 0 0 0 0 0 0 0 0 0 0 0.25 0"/>
<feBlend mode="normal" in2="BackgroundImageFix" result="effect1_dropShadow"/>
<feBlend mode="normal" in="SourceGraphic" in2="effect1_dropShadow" result="shape"/>
</filter>
<filter id="filter6_d" x="47" y="177" width="141.318" height="141.959" filterUnits="userSpaceOnUse" color-interpolation-filters="sRGB">
<feFlood flood-opacity="0" result="BackgroundImageFix"/>
<feColorMatrix in="SourceAlpha" type="matrix" values="0 0 0 0 0 0 0 0 0 0 0 0 0 0 0 0 0 0 127 0"/>
<feOffset dy="4"/>
<feGaussianBlur stdDeviation="2"/>
<feColorMatrix type="matrix" values="0 0 0 0 0 0 0 0 0 0 0 0 0 0 0 0 0 0 0.25 0"/>
<feBlend mode="normal" in2="BackgroundImageFix" result="effect1_dropShadow"/>
<feBlend mode="normal" in="SourceGraphic" in2="effect1_dropShadow" result="shape"/>
</filter>
<filter id="filter7_d" x="127" y="135" width="102" height="102" filterUnits="userSpaceOnUse" color-interpolation-filters="sRGB">
<feFlood flood-opacity="0" result="BackgroundImageFix"/>
<feColorMatrix in="SourceAlpha" type="matrix" values="0 0 0 0 0 0 0 0 0 0 0 0 0 0 0 0 0 0 127 0"/>
<feOffset dx="4" dy="6"/>
<feGaussianBlur stdDeviation="3"/>
<feColorMatrix type="matrix" values="0 0 0 0 0 0 0 0 0 0 0 0 0 0 0 0 0 0 0.25 0"/>
<feBlend mode="normal" in2="BackgroundImageFix" result="effect1_dropShadow"/>
<feBlend mode="normal" in="SourceGraphic" in2="effect1_dropShadow" result="shape"/>
</filter>
<filter id="filter8_d" x="43.4405" y="50.6651" width="141.635" height="141.635" filterUnits="userSpaceOnUse" color-interpolation-filters="sRGB">
<feFlood flood-opacity="0" result="BackgroundImageFix"/>
<feColorMatrix in="SourceAlpha" type="matrix" values="0 0 0 0 0 0 0 0 0 0 0 0 0 0 0 0 0 0 127 0"/>
<feOffset dy="4"/>
<feGaussianBlur stdDeviation="2"/>
<feColorMatrix type="matrix" values="0 0 0 0 0 0 0 0 0 0 0 0 0 0 0 0 0 0 0.25 0"/>
<feBlend mode="normal" in2="BackgroundImageFix" result="effect1_dropShadow"/>
<feBlend mode="normal" in="SourceGraphic" in2="effect1_dropShadow" result="shape"/>
</filter>
<filter id="filter9_d" x="127" y="135" width="102" height="102" filterUnits="userSpaceOnUse" color-interpolation-filters="sRGB">
<feFlood flood-opacity="0" result="BackgroundImageFix"/>
<feColorMatrix in="SourceAlpha" type="matrix" values="0 0 0 0 0 0 0 0 0 0 0 0 0 0 0 0 0 0 127 0"/>
<feOffset dx="4" dy="6"/>
<feGaussianBlur stdDeviation="3"/>
<feColorMatrix type="matrix" values="0 0 0 0 0 0 0 0 0 0 0 0 0 0 0 0 0 0 0.25 0"/>
<feBlend mode="normal" in2="BackgroundImageFix" result="effect1_dropShadow"/>
<feBlend mode="normal" in="SourceGraphic" in2="effect1_dropShadow" result="shape"/>
</filter>
<filter id="filter10_d" x="7" y="262" width="103" height="103" filterUnits="userSpaceOnUse" color-interpolation-filters="sRGB">
<feFlood flood-opacity="0" result="BackgroundImageFix"/>
<feColorMatrix in="SourceAlpha" type="matrix" values="0 0 0 0 0 0 0 0 0 0 0 0 0 0 0 0 0 0 127 0"/>
<feOffset dx="4" dy="6"/>
<feGaussianBlur stdDeviation="3"/>
<feColorMatrix type="matrix" values="0 0 0 0 0 0 0 0 0 0 0 0 0 0 0 0 0 0 0.25 0"/>
<feBlend mode="normal" in2="BackgroundImageFix" result="effect1_dropShadow"/>
<feBlend mode="normal" in="SourceGraphic" in2="effect1_dropShadow" result="shape"/>
</filter>
<filter id="filter11_d" x="49" y="429" width="141.318" height="141.959" filterUnits="userSpaceOnUse" color-interpolation-filters="sRGB">
<feFlood flood-opacity="0" result="BackgroundImageFix"/>
<feColorMatrix in="SourceAlpha" type="matrix" values="0 0 0 0 0 0 0 0 0 0 0 0 0 0 0 0 0 0 127 0"/>
<feOffset dy="4"/>
<feGaussianBlur stdDeviation="2"/>
<feColorMatrix type="matrix" values="0 0 0 0 0 0 0 0 0 0 0 0 0 0 0 0 0 0 0.25 0"/>
<feBlend mode="normal" in2="BackgroundImageFix" result="effect1_dropShadow"/>
<feBlend mode="normal" in="SourceGraphic" in2="effect1_dropShadow" result="shape"/>
</filter>
<filter id="filter12_d" x="9" y="514" width="103" height="103" filterUnits="userSpaceOnUse" color-interpolation-filters="sRGB">
<feFlood flood-opacity="0" result="BackgroundImageFix"/>
<feColorMatrix in="SourceAlpha" type="matrix" values="0 0 0 0 0 0 0 0 0 0 0 0 0 0 0 0 0 0 127 0"/>
<feOffset dx="4" dy="6"/>
<feGaussianBlur stdDeviation="3"/>
<feColorMatrix type="matrix" values="0 0 0 0 0 0 0 0 0 0 0 0 0 0 0 0 0 0 0.25 0"/>
<feBlend mode="normal" in2="BackgroundImageFix" result="effect1_dropShadow"/>
<feBlend mode="normal" in="SourceGraphic" in2="effect1_dropShadow" result="shape"/>
</filter>
<filter id="filter13_d" x="2" y="8" width="103" height="103" filterUnits="userSpaceOnUse" color-interpolation-filters="sRGB">
<feFlood flood-opacity="0" result="BackgroundImageFix"/>
<feColorMatrix in="SourceAlpha" type="matrix" values="0 0 0 0 0 0 0 0 0 0 0 0 0 0 0 0 0 0 127 0"/>
<feOffset dx="4" dy="6"/>
<feGaussianBlur stdDeviation="3"/>
<feColorMatrix type="matrix" values="0 0 0 0 0 0 0 0 0 0 0 0 0 0 0 0 0 0 0.25 0"/>
<feBlend mode="normal" in2="BackgroundImageFix" result="effect1_dropShadow"/>
<feBlend mode="normal" in="SourceGraphic" in2="effect1_dropShadow" result="shape"/>
</filter>
<filter id="filter14_d" x="134" y="385" width="103" height="103" filterUnits="userSpaceOnUse" color-interpolation-filters="sRGB">
<feFlood flood-opacity="0" result="BackgroundImageFix"/>
<feColorMatrix in="SourceAlpha" type="matrix" values="0 0 0 0 0 0 0 0 0 0 0 0 0 0 0 0 0 0 127 0"/>
<feOffset dx="4" dy="6"/>
<feGaussianBlur stdDeviation="3"/>
<feColorMatrix type="matrix" values="0 0 0 0 0 0 0 0 0 0 0 0 0 0 0 0 0 0 0.25 0"/>
<feBlend mode="normal" in2="BackgroundImageFix" result="effect1_dropShadow"/>
<feBlend mode="normal" in="SourceGraphic" in2="effect1_dropShadow" result="shape"/>
</filter>
<linearGradient id="paint0_linear" x1="120.258" y1="622.483" x2="96.6122" y2="646.128" gradientUnits="userSpaceOnUse">
<stop stop-color="#FFBB00"/>
<stop offset="1" stop-color="white" stop-opacity="0"/>
</linearGradient>
<linearGradient id="paint1_linear" x1="124.015" y1="749.33" x2="147.542" y2="772.471" gradientUnits="userSpaceOnUse">
<stop stop-color="#609604"/>
<stop offset="1" stop-color="white" stop-opacity="0"/>
</linearGradient>
<linearGradient id="paint2_linear" x1="163.929" y1="663.418" x2="211.224" y2="735.969" gradientUnits="userSpaceOnUse">
<stop stop-color="white" stop-opacity="0.89"/>
<stop offset="1" stop-color="white" stop-opacity="0"/>
</linearGradient>
<linearGradient id="paint3_linear" x1="161.633" y1="676.735" x2="180" y2="730" gradientUnits="userSpaceOnUse">
<stop stop-color="white"/>
<stop offset="1" stop-color="white" stop-opacity="0"/>
</linearGradient>
<linearGradient id="paint4_linear" x1="44.25" y1="790.679" x2="92.0714" y2="864.036" gradientUnits="userSpaceOnUse">
<stop stop-color="white" stop-opacity="0.89"/>
<stop offset="1" stop-color="white" stop-opacity="0"/>
</linearGradient>
<linearGradient id="paint5_linear" x1="41.9286" y1="804.143" x2="60.5" y2="858" gradientUnits="userSpaceOnUse">
<stop stop-color="white"/>
<stop offset="1" stop-color="white" stop-opacity="0"/>
</linearGradient>
<linearGradient id="paint6_linear" x1="114.258" y1="117.483" x2="90.6122" y2="141.128" gradientUnits="userSpaceOnUse">
<stop stop-color="#FFBB00"/>
<stop offset="1" stop-color="white" stop-opacity="0"/>
</linearGradient>
<linearGradient id="paint7_linear" x1="118.65" y1="372.65" x2="95.0047" y2="396.296" gradientUnits="userSpaceOnUse">
<stop stop-color="#FFBB00"/>
<stop offset="1" stop-color="white" stop-opacity="0"/>
</linearGradient>
<linearGradient id="paint8_linear" x1="118.015" y1="244.33" x2="141.542" y2="267.471" gradientUnits="userSpaceOnUse">
<stop stop-color="#609604"/>
<stop offset="1" stop-color="white" stop-opacity="0"/>
</linearGradient>
<linearGradient id="paint9_linear" x1="157.929" y1="158.418" x2="205.224" y2="230.969" gradientUnits="userSpaceOnUse">
<stop stop-color="white" stop-opacity="0.89"/>
<stop offset="1" stop-color="white" stop-opacity="0"/>
</linearGradient>
<linearGradient id="paint10_linear" x1="155.633" y1="171.735" x2="174" y2="225" gradientUnits="userSpaceOnUse">
<stop stop-color="white"/>
<stop offset="1" stop-color="white" stop-opacity="0"/>
</linearGradient>
<linearGradient id="paint11_linear" x1="114.258" y1="117.483" x2="90.6122" y2="141.128" gradientUnits="userSpaceOnUse">
<stop stop-color="#FFBB00"/>
<stop offset="1" stop-color="white" stop-opacity="0"/>
</linearGradient>
<linearGradient id="paint12_linear" x1="157.929" y1="158.418" x2="205.224" y2="230.969" gradientUnits="userSpaceOnUse">
<stop stop-color="white" stop-opacity="0.89"/>
<stop offset="1" stop-color="white" stop-opacity="0"/>
</linearGradient>
<linearGradient id="paint13_linear" x1="155.633" y1="171.735" x2="174" y2="225" gradientUnits="userSpaceOnUse">
<stop stop-color="white"/>
<stop offset="1" stop-color="white" stop-opacity="0"/>
</linearGradient>
<linearGradient id="paint14_linear" x1="38.25" y1="285.679" x2="86.0714" y2="359.036" gradientUnits="userSpaceOnUse">
<stop stop-color="white" stop-opacity="0.89"/>
<stop offset="1" stop-color="white" stop-opacity="0"/>
</linearGradient>
<linearGradient id="paint15_linear" x1="35.9286" y1="299.143" x2="54.5" y2="353" gradientUnits="userSpaceOnUse">
<stop stop-color="white"/>
<stop offset="1" stop-color="white" stop-opacity="0"/>
</linearGradient>
<linearGradient id="paint16_linear" x1="120.015" y1="496.33" x2="143.542" y2="519.471" gradientUnits="userSpaceOnUse">
<stop stop-color="#609604"/>
<stop offset="1" stop-color="white" stop-opacity="0"/>
</linearGradient>
<linearGradient id="paint17_linear" x1="40.25" y1="537.679" x2="88.0714" y2="611.036" gradientUnits="userSpaceOnUse">
<stop stop-color="white" stop-opacity="0.89"/>
<stop offset="1" stop-color="white" stop-opacity="0"/>
</linearGradient>
<linearGradient id="paint18_linear" x1="37.9286" y1="551.143" x2="56.5" y2="605" gradientUnits="userSpaceOnUse">
<stop stop-color="white"/>
<stop offset="1" stop-color="white" stop-opacity="0"/>
</linearGradient>
<linearGradient id="paint19_linear" x1="33.25" y1="31.6786" x2="81.0714" y2="105.036" gradientUnits="userSpaceOnUse">
<stop stop-color="white" stop-opacity="0.89"/>
<stop offset="1" stop-color="white" stop-opacity="0"/>
</linearGradient>
<linearGradient id="paint20_linear" x1="30.9286" y1="45.1429" x2="49.5" y2="99" gradientUnits="userSpaceOnUse">
<stop stop-color="white"/>
<stop offset="1" stop-color="white" stop-opacity="0"/>
</linearGradient>
<linearGradient id="paint21_linear" x1="165.25" y1="408.679" x2="213.071" y2="482.036" gradientUnits="userSpaceOnUse">
<stop stop-color="white" stop-opacity="0.89"/>
<stop offset="1" stop-color="white" stop-opacity="0"/>
</linearGradient>
<linearGradient id="paint22_linear" x1="162.929" y1="422.143" x2="181.5" y2="476" gradientUnits="userSpaceOnUse">
<stop stop-color="white"/>
<stop offset="1" stop-color="white" stop-opacity="0"/>
</linearGradient>
<clipPath id="clip0">
<rect width="19" height="18" fill="white" transform="translate(47 801)"/>
</clipPath>
<clipPath id="clip1">
<rect width="35" height="35" fill="white" transform="translate(164 413)"/>
</clipPath>
</defs>
</svg>
