<svg width="30" height="20" viewBox="0 0 30 20" fill="none" xmlns="http://www.w3.org/2000/svg">
<path d="M29.9995 2.65832C29.9995 2.01789 29.7465 1.43849 29.343 0.996732C29.3362 0.987958 29.3347 0.977615 29.3275 0.968792C29.3207 0.961047 29.3114 0.95791 29.3042 0.950704C28.8453 0.470615 28.1987 0.166992 27.4786 0.166992H2.52138C1.80129 0.166992 1.15464 0.470615 0.694742 0.950704C0.688027 0.95791 0.678174 0.961047 0.671459 0.969331C0.664204 0.977615 0.662684 0.988448 0.655969 0.997272C0.252986 1.43903 0 2.01789 0 2.65832V17.3417C0 17.9977 0.263329 18.591 0.684399 19.0364C0.692684 19.0457 0.695282 19.0571 0.704595 19.0659C0.707683 19.069 0.711311 19.0695 0.714448 19.0726C1.17331 19.5403 1.81217 19.8331 2.52143 19.8331H27.4786C28.1879 19.8331 28.8273 19.5398 29.2856 19.0722C29.2887 19.0695 29.2923 19.0686 29.2954 19.066C29.3042 19.0577 29.3068 19.0463 29.3151 19.0375C29.7367 18.5921 30 17.9982 30 17.3417V2.65832H29.9995ZM20.1804 9.22404L28.8257 2.05563C28.9105 2.2398 28.9607 2.44308 28.9607 2.65827V17.3416C28.9607 17.5362 28.9204 17.7208 28.8505 17.891L20.1804 9.22404ZM27.4786 1.19379C27.6964 1.19379 27.9018 1.24344 28.0885 1.32727L15 12.1789L1.91149 1.32727C2.09825 1.24349 2.30364 1.19379 2.52138 1.19379H27.4786ZM1.14949 17.8906C1.07964 17.7209 1.0393 17.5357 1.0393 17.3412V2.65832C1.0393 2.44313 1.08949 2.2398 1.17429 2.05568L9.81963 9.22408L1.14949 17.8906ZM2.52138 18.8057C2.28138 18.8057 2.05786 18.7436 1.85717 18.6433L10.6183 9.88574L14.6663 13.2421C14.7625 13.3223 14.8815 13.3626 15 13.3626C15.1185 13.3626 15.2374 13.3223 15.3336 13.2421L19.3816 9.88574L28.1428 18.6433C27.942 18.7437 27.7186 18.8057 27.4785 18.8057H2.52138Z" fill="#43B02A"/>
</svg>
