<svg width="30" height="30" viewBox="0 0 30 30" fill="none" xmlns="http://www.w3.org/2000/svg">
<path d="M29.9794 24.6914C29.884 23.9705 29.4679 23.3489 28.8378 22.9862L21.4366 18.7249C20.5302 18.203 19.3802 18.3549 18.6403 19.0947L17.1826 20.5525C16.7946 20.9405 16.1809 20.9748 15.7553 20.6323C14.606 19.7075 13.4745 18.6898 12.3921 17.6074C11.3097 16.525 10.292 15.3935 9.36722 14.2442C9.02466 13.8185 9.05893 13.2049 9.44698 12.8169L10.9047 11.3591C11.6445 10.6193 11.7967 9.46951 11.2746 8.56285L7.01334 1.16174C6.65049 0.531561 6.02899 0.115457 5.3081 0.020081C4.58714 -0.0754895 3.87875 0.164959 3.36455 0.679161L1.16798 2.87579C-0.365097 4.40894 -0.389719 7.21333 1.09865 10.7725C2.52981 14.1948 5.20061 17.9621 8.61892 21.3806C12.0374 24.799 15.8047 27.4697 19.2271 28.9009C20.979 29.6335 22.5479 29.9996 23.8726 29.9995C25.2389 29.9995 26.3453 29.6099 27.1238 28.8315L29.3203 26.6349C29.8345 26.1207 30.0747 25.4123 29.9794 24.6914ZM20.9517 19.5671L28.3528 23.8284C28.7189 24.0391 28.9605 24.4001 29.0159 24.8188C29.0624 25.1702 28.9711 25.5162 28.7642 25.795L18.9282 20.1814L19.3276 19.782C19.7573 19.3523 20.4253 19.264 20.9517 19.5671ZM5.18058 0.983626C5.59935 1.03902 5.96031 1.2807 6.17102 1.64672L10.4323 9.04783C10.7355 9.57441 10.6472 10.2423 10.2175 10.6719L9.85058 11.0388L4.20615 1.23535C4.43688 1.06449 4.71284 0.971704 5.00052 0.971704C5.0602 0.971704 5.12039 0.975656 5.18058 0.983626ZM26.4364 28.1442C25.2185 29.3622 22.7274 29.3112 19.602 28.0042C16.2937 26.6207 12.6373 24.0243 9.30625 20.6933C5.97521 17.3623 3.3788 13.7058 1.99533 10.3975C0.688252 7.2721 0.637259 4.78105 1.85525 3.56299L3.48591 1.93227L9.13882 11.7506L8.75972 12.1297C8.0201 12.8694 7.95569 14.0403 8.60998 14.8536C9.55655 16.03 10.5978 17.1877 11.7048 18.2946C12.8118 19.4016 13.9696 20.4429 15.1459 21.3895C15.9591 22.0438 17.13 21.9795 17.8698 21.2397L18.2157 20.8938L28.0654 26.5153L26.4364 28.1442Z" fill="#43B02A"/>
</svg>
