<svg width="195" height="135" viewBox="0 0 195 135" fill="none" xmlns="http://www.w3.org/2000/svg">
<path d="M86.9908 28.1325H97.4624C97.4568 27.5608 97.418 26.9902 97.3469 26.4229C97.3258 26.2542 97.2947 26.0777 97.2692 25.9045C97.1937 25.3939 97.0949 24.8633 96.9739 24.3126C96.9284 24.1039 96.8851 23.8975 96.8329 23.6832C96.6531 22.9394 96.4488 22.1735 96.1913 21.3753C94.3341 15.4474 91.2336 9.98454 87.0973 5.34987C80.5655 -1.15867 71.0375 -1.08207 67.8093 2.14833C64.5811 5.37984 64.5012 14.9078 71.0175 21.4441C74.0037 24.1972 77.4117 26.4551 81.1117 28.1325H86.9908ZM74.2435 18.2137C71.6669 15.6616 70.206 12.1925 70.1783 8.56694C70.1783 8.56694 70.1783 8.54141 70.1783 8.53031C70.1849 8.1007 70.2227 7.6722 70.2915 7.24814C70.3514 6.89069 70.4436 6.5399 70.569 6.2002C70.7999 5.59631 71.2773 5.11896 71.8812 4.88806C76.2539 3.90007 80.8241 5.29769 83.8947 8.56472C87.7046 12.9352 90.522 18.0794 92.1516 23.6444C92.3548 24.3326 92.2227 25.0764 91.7931 25.6503C91.3635 26.2253 90.6885 26.5639 89.9714 26.5639C89.7527 26.5628 89.5351 26.5317 89.3253 26.4707C83.7659 24.841 78.6261 22.0269 74.259 18.2204L74.2435 18.2137Z" fill="#147101"/>
<path d="M52.8884 128.166H89.2643V55.4144H46.068V121.346C46.068 125.112 49.1219 128.166 52.8884 128.166Z" fill="#147101"/>
<path d="M39.2475 32.6795H84.7173V50.8674H39.2475V32.6795Z" fill="#147101"/>
<path d="M93.8112 55.4144H102.905V128.166H93.8112V55.4144Z" fill="#147101"/>
<path d="M74.7341 9.05537C74.7608 9.40062 74.8063 9.74364 74.8729 10.0833C74.8884 10.1655 74.8984 10.2399 74.9162 10.3242C74.9339 10.4086 74.975 10.5518 75.0028 10.665C75.0294 10.7794 75.0638 10.9203 75.1027 11.0513C75.1782 11.2945 75.2636 11.5476 75.3636 11.7995V11.8229C75.8354 13.0107 76.5436 14.0897 77.4461 14.9944C80.006 17.2624 82.9234 19.0896 86.0816 20.4028C84.7672 17.2435 82.9367 14.3239 80.6654 11.7629C79.0746 10.1821 76.971 9.22189 74.7341 9.05537Z" fill="#147101"/>
<path d="M150.648 55.4144H107.452V128.166H143.828C147.595 128.166 150.648 125.112 150.648 121.346V55.4144Z" fill="#147101"/>
<path d="M111.999 32.6795H157.469V50.8674H111.999V32.6795Z" fill="#147101"/>
<path d="M109.602 5.34765C105.622 9.79805 102.603 15.0233 100.736 20.6959C100.755 20.757 100.77 20.8258 100.788 20.8869C100.916 21.3231 101.041 21.7738 101.161 22.2512C101.18 22.3256 101.2 22.3944 101.218 22.4787C101.352 23.0171 101.473 23.5744 101.582 24.1406C101.61 24.2927 101.634 24.4447 101.66 24.5946C101.736 25.0298 101.801 25.4649 101.853 25.9001C101.873 26.0777 101.894 26.2498 101.912 26.4252C101.962 26.9525 101.994 27.4775 102 27.996V28.1436H115.587C119.285 26.4629 122.691 24.2005 125.675 21.4441C132.187 14.9078 132.111 5.38206 128.879 2.15055C125.649 -1.07985 116.137 -1.16643 109.602 5.34765ZM122.471 18.2104C118.102 22.0292 112.955 24.8499 107.387 26.4773C107.177 26.5395 106.959 26.5706 106.741 26.5706C106.023 26.5706 105.347 26.232 104.919 25.657C104.489 25.083 104.356 24.3393 104.56 23.651C106.188 18.0827 109.009 12.9352 112.826 8.56694C115.92 5.33211 120.473 3.93782 124.846 4.88362C125.449 5.11342 125.924 5.58854 126.154 6.19132C127.1 10.5651 125.704 15.1177 122.471 18.2104Z" fill="#147101"/>
<path d="M89.2643 32.6795H107.452V50.8674H89.2643V32.6795Z" fill="#147101"/>
<path d="M110.621 20.4162C113.783 19.104 116.703 17.2713 119.26 14.9967C120.851 13.4037 121.819 11.2956 121.989 9.05095C119.747 9.22302 117.638 10.191 116.045 11.7796C113.769 14.3361 111.936 17.2546 110.621 20.4162Z" fill="#147101"/>
<path d="M15.8621 102.769L18.2407 100.902C18.1375 100.773 18.0269 100.65 17.9096 100.534C17.8747 100.5 17.8362 100.465 17.7995 100.43C17.6913 100.328 17.5742 100.225 17.4485 100.121C17.401 100.082 17.3543 100.043 17.3042 100.004C17.1307 99.8666 16.9477 99.7291 16.7469 99.5937C15.2679 98.5784 13.5893 97.8904 11.8232 97.5753C9.17881 97.2618 7.02817 98.9784 6.87099 100.288C6.71401 101.598 8.39507 103.776 11.0409 104.099C12.2102 104.192 13.387 104.097 14.5266 103.818L15.8621 102.769ZM11.1976 102.79C10.1572 102.669 9.20668 102.142 8.55379 101.323C8.55379 101.323 8.54924 101.318 8.54726 101.315C8.47216 101.216 8.40431 101.112 8.34432 101.004C8.29419 100.912 8.25256 100.816 8.22047 100.716C8.16522 100.538 8.18852 100.344 8.28452 100.184C9.10158 99.1798 10.389 98.6822 11.6691 98.8767C13.3139 99.19 14.8713 99.8561 16.234 100.83C16.4028 100.95 16.5055 101.142 16.5102 101.349C16.5152 101.556 16.4223 101.754 16.2594 101.882C16.2095 101.92 16.1545 101.952 16.096 101.976C14.5425 102.597 12.8732 102.874 11.2023 102.788L11.1976 102.79Z" fill="#147101"/>
<path d="M25.9555 131.574L34.2183 125.087L21.2439 108.561L11.4318 116.265L23.1899 131.241C23.8616 132.097 25.0999 132.246 25.9555 131.574Z" fill="#147101"/>
<path d="M5.82803 112.317L16.1565 104.208L19.4001 108.339L9.07164 116.448L5.82803 112.317Z" fill="#147101"/>
<path d="M22.2767 107.75L24.3424 106.128L37.3169 122.654L35.2512 124.276L22.2767 107.75Z" fill="#147101"/>
<path d="M9.67575 100.622C9.74337 100.696 9.81489 100.765 9.89059 100.831C9.90878 100.846 9.92431 100.862 9.94339 100.878C9.96247 100.894 9.99734 100.919 10.0238 100.94C10.0503 100.961 10.0832 100.987 10.1154 101.009C10.1759 101.051 10.2405 101.094 10.3081 101.133L10.3123 101.138C10.6313 101.324 10.9846 101.443 11.3509 101.487C12.3369 101.546 13.3254 101.441 14.277 101.176C13.415 100.692 12.4786 100.356 11.5059 100.179C10.8626 100.104 10.2136 100.261 9.67575 100.622Z" fill="#147101"/>
<path d="M35.1874 97.6139L25.3753 105.317L38.3497 121.843L46.6125 115.356C47.4681 114.684 47.6172 113.446 46.9454 112.59L35.1874 97.6139Z" fill="#147101"/>
<path d="M22.3536 99.3423L32.6821 91.2333L35.9258 95.3647L25.5972 103.474L22.3536 99.3423Z" fill="#147101"/>
<path d="M16.9349 93.5613C16.8243 95.2821 17.0706 97.0073 17.6581 98.6289C17.6733 98.6394 17.6891 98.6522 17.704 98.6629C17.8108 98.7393 17.9197 98.8193 18.032 98.9063C18.0496 98.9198 18.0664 98.9319 18.0855 98.9479C18.212 99.0462 18.3389 99.1513 18.4645 99.2605C18.498 99.2901 18.5306 99.3202 18.5632 99.3497C18.6582 99.4349 18.7504 99.5223 18.8399 99.6118C18.8761 99.6486 18.9115 99.6839 18.9469 99.7206C19.0522 99.8315 19.1532 99.945 19.2472 100.062L19.2735 100.095L22.3597 97.6721C22.8999 96.6309 23.2701 95.5096 23.4563 94.3513C23.7701 91.7051 22.0538 89.555 20.7435 89.3972C19.4336 89.2395 17.2574 90.9163 16.9349 93.5613ZM22.1519 94.1881C21.8406 95.8346 21.1744 97.3933 20.1998 98.756C20.1633 98.8076 20.1194 98.8534 20.0697 98.8924C19.9068 99.0203 19.6929 99.064 19.493 99.0098C19.293 98.956 19.1301 98.8109 19.0538 98.6181C18.4304 97.063 18.1531 95.3907 18.2413 93.7176C18.3672 92.4311 19.1526 91.3025 20.3148 90.7373C20.4927 90.682 20.6854 90.7052 20.8451 90.8011C21.8399 91.6259 22.3349 92.9089 22.1519 94.1881Z" fill="#147101"/>
<path d="M17.1894 103.397L21.3208 100.153L24.5644 104.285L20.433 107.528L17.1894 103.397Z" fill="#147101"/>
<path d="M19.8537 96.8024C20.3378 95.9405 20.6741 95.0035 20.8495 94.0307C20.9267 93.3851 20.7707 92.7336 20.4089 92.1935C19.9303 92.6325 19.624 93.2283 19.5455 93.8732C19.4842 94.86 19.5884 95.8498 19.8537 96.8024Z" fill="#147101"/>
<path d="M177.174 99.268H179.823C179.821 99.1234 179.812 98.9791 179.794 98.8356C179.788 98.793 179.78 98.7483 179.774 98.7045C179.755 98.5754 179.73 98.4411 179.699 98.3019C179.688 98.2491 179.677 98.1969 179.664 98.1427C179.618 97.9546 179.566 97.7608 179.501 97.559C179.032 96.0596 178.247 94.6779 177.201 93.5057C175.549 91.8595 173.139 91.8789 172.323 92.696C171.506 93.5133 171.486 95.9232 173.134 97.5764C173.89 98.2727 174.751 98.8438 175.687 99.268H177.174ZM173.95 96.7593C173.298 96.1138 172.929 95.2364 172.922 94.3194C172.922 94.3194 172.922 94.3129 172.922 94.3101C172.924 94.2015 172.933 94.0931 172.951 93.9858C172.966 93.8954 172.989 93.8067 173.021 93.7208C173.079 93.568 173.2 93.4473 173.353 93.3889C174.459 93.139 175.615 93.4925 176.391 94.3188C177.355 95.4242 178.067 96.7253 178.48 98.1329C178.531 98.3069 178.498 98.4951 178.389 98.6402C178.28 98.7857 178.11 98.8713 177.928 98.8713C177.873 98.871 177.818 98.8632 177.765 98.8477C176.359 98.4355 175.059 97.7238 173.954 96.761L173.95 96.7593Z" fill="#147101"/>
<path d="M168.549 124.569H177.749V106.168H166.824V122.844C166.824 123.797 167.596 124.569 168.549 124.569Z" fill="#147101"/>
<path d="M165.099 100.418H176.599V105.018H165.099V100.418Z" fill="#147101"/>
<path d="M178.899 106.168H181.199V124.569H178.899V106.168Z" fill="#147101"/>
<path d="M174.074 94.4429C174.081 94.5302 174.092 94.617 174.109 94.7029C174.113 94.7237 174.116 94.7425 174.12 94.7638C174.125 94.7852 174.135 94.8214 174.142 94.85C174.149 94.879 174.158 94.9146 174.167 94.9477C174.187 95.0092 174.208 95.0732 174.233 95.137V95.1429C174.353 95.4433 174.532 95.7162 174.76 95.9451C175.408 96.5187 176.145 96.9808 176.944 97.313C176.612 96.5139 176.149 95.7755 175.574 95.1277C175.172 94.7279 174.64 94.485 174.074 94.4429Z" fill="#147101"/>
<path d="M193.275 106.168H182.349V124.569H191.55C192.503 124.569 193.275 123.797 193.275 122.844V106.168Z" fill="#147101"/>
<path d="M183.5 100.418H195V105.018H183.5V100.418Z" fill="#147101"/>
<path d="M182.893 93.5051C181.886 94.6308 181.123 95.9524 180.651 97.3871C180.656 97.4026 180.659 97.42 180.664 97.4354C180.696 97.5458 180.728 97.6597 180.758 97.7805C180.763 97.7993 180.768 97.8167 180.773 97.838C180.807 97.9742 180.837 98.1152 180.865 98.2584C180.872 98.2968 180.878 98.3353 180.884 98.3732C180.904 98.4833 180.92 98.5933 180.933 98.7034C180.938 98.7483 180.944 98.7918 180.948 98.8362C180.961 98.9696 180.969 99.1024 180.971 99.2335V99.2708H184.407C185.342 98.8457 186.204 98.2735 186.958 97.5764C188.606 95.9232 188.586 93.5138 187.769 92.6965C186.952 91.8795 184.546 91.8576 182.893 93.5051ZM186.148 96.7585C185.043 97.7243 183.741 98.4378 182.333 98.8494C182.28 98.8651 182.225 98.873 182.169 98.873C181.988 98.873 181.817 98.7873 181.709 98.6419C181.6 98.4967 181.566 98.3086 181.618 98.1345C182.03 96.7262 182.743 95.4242 183.709 94.3194C184.491 93.5012 185.643 93.1486 186.749 93.3878C186.901 93.4459 187.022 93.5661 187.08 93.7185C187.319 94.8248 186.966 95.9762 186.148 96.7585Z" fill="#147101"/>
<path d="M177.749 100.418H182.35V105.018H177.749V100.418Z" fill="#147101"/>
<path d="M183.151 97.3164C183.951 96.9845 184.689 96.5209 185.336 95.9456C185.738 95.5427 185.983 95.0095 186.026 94.4418C185.459 94.4853 184.926 94.7302 184.523 95.1319C183.947 95.7786 183.484 96.5167 183.151 97.3164Z" fill="#147101"/>
</svg>
