<svg viewBox="0 0 313 100" fill="none" xmlns="http://www.w3.org/2000/svg">
<path d="M41.953 29.2959H36.8457V51.6687H28.0903V29.2959H22.9829L10.2146 51.6687H0L15.4679 25.5793L1.45923 0.65588H11.6739L22.9829 21.5711H28.0903V0.65588H36.8457V21.5711H41.953L53.408 0.65588H63.4767L49.614 24.9234L64.9359 51.6687H54.2835L41.953 29.2959Z" fill="#4B4B4B"/>
<path d="M89.0047 52.3246C85.5998 52.3246 82.4868 51.7901 79.6656 50.7213C76.8931 49.6039 74.5097 48.0249 72.5154 45.9844C70.5697 43.8953 69.0619 41.3447 67.9917 38.3325C66.9216 35.3203 66.3866 31.8952 66.3866 28.057V24.2675C66.3866 20.478 66.9216 17.0771 67.9917 14.065C69.1105 11.0528 70.6427 8.52643 72.5883 6.48592C74.5826 4.39682 76.966 2.79356 79.7386 1.67614C82.5598 0.558712 85.6485 0 89.0047 0C92.4096 0 95.4983 0.558712 98.2709 1.67614C101.092 2.74498 103.475 4.32394 105.421 6.41304C107.415 8.50214 108.948 11.0528 110.018 14.065C111.088 17.0286 111.623 20.4294 111.623 24.2675V28.057C111.623 31.8466 111.063 35.2474 109.945 38.2596C108.875 41.2718 107.342 43.8224 105.348 45.9115C103.402 48.0006 101.019 49.6039 98.1979 50.7213C95.4254 51.7901 92.361 52.3246 89.0047 52.3246ZM89.0047 44.1625C92.9933 44.1625 96.2279 42.8265 98.7086 40.1544C101.189 37.4337 102.43 33.4012 102.43 28.057V24.2675C102.43 21.644 102.089 19.3363 101.408 17.3444C100.776 15.3038 99.8517 13.6277 98.6357 12.316C97.4683 10.9556 96.0577 9.93535 94.4039 9.25518C92.7501 8.52643 90.9504 8.16205 89.0047 8.16205C84.9675 8.16205 81.7085 9.52239 79.2279 12.2431C76.7958 14.9152 75.5798 18.9233 75.5798 24.2675V28.057C75.5798 33.3527 76.8201 37.3608 79.3008 40.0815C81.8302 42.8022 85.0648 44.1625 89.0047 44.1625Z" fill="#4B4B4B"/>
<path d="M153.48 51.6687H121.888V62.6H113.424V43.9439H117.656C118.531 42.7293 119.261 41.4418 119.845 40.0815C120.477 38.7211 120.988 37.0693 121.377 35.126C121.815 33.134 122.107 30.7291 122.252 27.9113C122.447 25.0934 122.544 21.5954 122.544 17.4172V0.65588H157.201V43.9439H161.944V62.6H153.48V51.6687ZM131.3 17.4172C131.3 21.1582 131.227 24.4133 131.081 27.1825C130.935 29.9518 130.716 32.381 130.424 34.4701C130.132 36.5592 129.743 38.3568 129.257 39.8629C128.77 41.369 128.187 42.7293 127.506 43.9439H148.446V8.38068H131.3V17.4172Z" fill="#4B4B4B"/>
<path d="M201.009 29.2959H176.932V51.6687H168.177V0.65588H176.932V21.5711H201.009V0.65588H209.765V51.6687H201.009V29.2959Z" fill="#4B4B4B"/>
<path d="M252.809 11.2957L249.599 18.146L231.651 51.6687H219.977V0.65588H228.732V41.3932L232.088 34.1786L250.037 0.65588H261.565V51.6687H252.809V11.2957Z" fill="#4B4B4B"/>
<path d="M290.236 31.8466L277.978 51.6687H267.764L284.691 25.2149L269.223 0.65588H279.729L290.455 18.3646L301.472 0.65588H311.541L296.073 24.9234L313 51.6687H302.348L290.236 31.8466Z" fill="#4B4B4B"/>
<path d="M8.93939 84.9621H5.64593V99.2548H0V66.6656H5.64593V80.0271H8.93939L18.2552 66.6656H24.9362L13.7384 82.2618L25.8772 99.2548H18.8198L8.93939 84.9621Z" fill="#4B4B4B"/>
<path d="M41.3906 99.6738C39.195 99.6738 37.1875 99.3324 35.3683 98.6495C33.5804 97.9357 32.0435 96.927 30.7575 95.6234C29.5028 94.2888 28.5305 92.6593 27.8404 90.735C27.1503 88.8107 26.8053 86.6226 26.8053 84.1706V81.7497C26.8053 79.3288 27.1503 77.1562 27.8404 75.2319C28.5618 73.3076 29.5499 71.6936 30.8045 70.3901C32.0905 69.0555 33.6275 68.0312 35.4153 67.3174C37.2346 66.6035 39.2264 66.2466 41.3906 66.2466C43.5863 66.2466 45.578 66.6035 47.3659 67.3174C49.1852 68.0002 50.7221 69.0089 51.9767 70.3435C53.2628 71.6781 54.2508 73.3076 54.9409 75.2319C55.6309 77.1252 55.976 79.2978 55.976 81.7497V84.1706C55.976 86.5915 55.6152 88.7642 54.8938 90.6885C54.2038 92.6128 53.2157 94.2422 51.9297 95.5768C50.675 96.9114 49.1381 97.9357 47.3189 98.6495C45.531 99.3324 43.5549 99.6738 41.3906 99.6738ZM41.3906 94.4595C43.9627 94.4595 46.0485 93.606 47.6482 91.8989C49.2479 90.1608 50.0477 87.5847 50.0477 84.1706V81.7497C50.0477 80.0737 49.8282 78.5994 49.389 77.3269C48.9813 76.0233 48.3853 74.9525 47.6012 74.1145C46.8484 73.2455 45.9387 72.5937 44.8723 72.1592C43.8058 71.6936 42.6453 71.4609 41.3906 71.4609C38.7872 71.4609 36.6857 72.3299 35.086 74.068C33.5177 75.775 32.7335 78.3356 32.7335 81.7497V84.1706C32.7335 87.5537 33.5334 90.1143 35.1331 91.8524C36.7641 93.5905 38.85 94.4595 41.3906 94.4595Z" fill="#4B4B4B"/>
<path d="M68.9598 77.839L67.0307 72.9041V99.2548H61.3848V66.6656H69.8537L77.1934 84.3103L84.5331 66.6656H92.9079V99.2548H87.262V72.8575L85.2859 77.839L79.9693 90.6419H74.3234L68.9598 77.839Z" fill="#4B4B4B"/>
<path d="M120.176 71.6005H105.121V99.2548H99.4746V66.6656H125.822V99.2548H120.176V71.6005Z" fill="#4B4B4B"/>
<path d="M132.418 66.6656H143.71C148.133 66.6656 151.348 67.5967 153.355 69.4589C155.394 71.2901 156.414 73.9438 156.414 77.42C156.414 80.6789 155.347 83.2861 153.214 85.2414C151.081 87.1968 147.913 88.1744 143.71 88.1744H138.064V99.2548H132.418V66.6656ZM138.064 71.6005V83.2395H143.71C145.969 83.2395 147.662 82.7119 148.792 81.6566C149.921 80.6013 150.485 79.1891 150.485 77.42C150.485 75.5578 149.936 74.1301 148.839 73.1369C147.772 72.1126 146.063 71.6005 143.71 71.6005H138.064Z" fill="#4B4B4B"/>
<path d="M174.039 99.6738C171.843 99.6738 169.836 99.3324 168.016 98.6495C166.229 97.9357 164.692 96.927 163.406 95.6234C162.151 94.2888 161.179 92.6593 160.489 90.735C159.798 88.8107 159.453 86.6226 159.453 84.1706V81.7497C159.453 79.3288 159.798 77.1562 160.489 75.2319C161.21 73.3076 162.198 71.6936 163.453 70.3901C164.739 69.0555 166.276 68.0312 168.063 67.3174C169.883 66.6035 171.874 66.2466 174.039 66.2466C176.234 66.2466 178.226 66.6035 180.014 67.3174C181.833 68.0002 183.37 69.0089 184.625 70.3435C185.911 71.6781 186.899 73.3076 187.589 75.2319C188.279 77.1252 188.624 79.2978 188.624 81.7497V84.1706C188.624 86.5915 188.263 88.7642 187.542 90.6885C186.852 92.6128 185.864 94.2422 184.578 95.5768C183.323 96.9114 181.786 97.9357 179.967 98.6495C178.179 99.3324 176.203 99.6738 174.039 99.6738ZM174.039 94.4595C176.611 94.4595 178.697 93.606 180.296 91.8989C181.896 90.1608 182.696 87.5847 182.696 84.1706V81.7497C182.696 80.0737 182.476 78.5994 182.037 77.3269C181.629 76.0233 181.033 74.9525 180.249 74.1145C179.496 73.2455 178.587 72.5937 177.52 72.1592C176.454 71.6936 175.293 71.4609 174.039 71.4609C171.435 71.4609 169.334 72.3299 167.734 74.068C166.166 75.775 165.382 78.3356 165.382 81.7497V84.1706C165.382 87.5537 166.182 90.1143 167.781 91.8524C169.412 93.5905 171.498 94.4595 174.039 94.4595Z" fill="#4B4B4B"/>
<path d="M201.608 77.839L199.679 72.9041V99.2548H194.033V66.6656H202.502L209.842 84.3103L217.181 66.6656H225.556V99.2548H219.91V72.8575L217.934 77.839L212.617 90.6419H206.972L201.608 77.839Z" fill="#4B4B4B"/>
<path d="M232.358 66.6656H238.004V99.2548H232.358V66.6656Z" fill="#4B4B4B"/>
<path d="M257.978 99.6738C255.814 99.6738 253.838 99.3324 252.05 98.6495C250.293 97.9667 248.788 96.958 247.533 95.6234C246.31 94.2888 245.353 92.6749 244.663 90.7816C243.973 88.8573 243.628 86.6536 243.628 84.1706V81.7497C243.628 79.2978 243.973 77.1252 244.663 75.2319C245.353 73.3076 246.325 71.6781 247.58 70.3435C248.835 69.0089 250.34 68.0002 252.097 67.3174C253.885 66.6035 255.845 66.2466 257.978 66.2466C259.891 66.2466 261.616 66.5259 263.153 67.0846C264.722 67.6433 266.07 68.4037 267.2 69.3658C268.329 70.297 269.238 71.3988 269.928 72.6713C270.65 73.9128 271.136 75.2474 271.387 76.6751H265.176C264.925 75.9613 264.596 75.294 264.188 74.6732C263.781 74.0214 263.279 73.4628 262.683 72.9972C262.087 72.5316 261.397 72.1592 260.613 71.8799C259.828 71.6005 258.95 71.4609 257.978 71.4609C255.469 71.4609 253.43 72.3144 251.861 74.0214C250.324 75.7285 249.556 78.3046 249.556 81.7497V84.1706C249.556 85.8777 249.76 87.383 250.168 88.6866C250.607 89.9591 251.187 91.0299 251.908 91.8989C252.661 92.7369 253.555 93.3732 254.59 93.8077C255.625 94.2422 256.755 94.4595 257.978 94.4595C259.891 94.4595 261.46 93.9008 262.683 92.7835C263.906 91.6661 264.737 90.1763 265.176 88.3141H271.387C271.136 89.9591 270.65 91.4799 269.928 92.8766C269.238 94.2422 268.313 95.4372 267.152 96.4614C266.023 97.4546 264.69 98.246 263.153 98.8358C261.616 99.3944 259.891 99.6738 257.978 99.6738Z" fill="#4B4B4B"/>
<path d="M276.559 66.6656H282.205V99.2548H276.559V66.6656Z" fill="#4B4B4B"/>
<path d="M289.005 66.6656H300.061C302.226 66.6656 304.061 66.8673 305.566 67.2708C307.103 67.6743 308.342 68.2485 309.283 68.9934C310.255 69.7383 310.961 70.6694 311.4 71.7867C311.839 72.873 312.059 74.1145 312.059 75.5112C312.059 76.9389 311.714 78.2425 311.024 79.4219C310.334 80.6013 309.267 81.5635 307.825 82.3084C309.612 83.0222 310.914 84.0465 311.73 85.3811C312.577 86.6847 313 88.1744 313 89.8505C313 91.4023 312.78 92.768 312.341 93.9474C311.902 95.0958 311.196 96.0734 310.224 96.8804C309.283 97.6563 308.044 98.246 306.507 98.6495C305.002 99.053 303.167 99.2548 301.002 99.2548H289.005V66.6656ZM294.651 84.7759V94.5061H301.002C303.261 94.5061 304.829 94.1181 305.707 93.3422C306.617 92.5352 307.072 91.2937 307.072 89.6177C307.072 87.9727 306.617 86.7622 305.707 85.9863C304.829 85.1793 303.261 84.7759 301.002 84.7759H294.651ZM294.651 71.4143V80.2134H300.061C302.288 80.2134 303.857 79.8409 304.766 79.096C305.676 78.3201 306.131 77.2183 306.131 75.7906C306.131 74.3939 305.676 73.3231 304.766 72.5782C303.857 71.8023 302.288 71.4143 300.061 71.4143H294.651Z" fill="#4B4B4B"/>
</svg>
