<svg width="38" height="64" viewBox="0 0 38 64" fill="none" xmlns="http://www.w3.org/2000/svg">
<path d="M30.9665 62.4987L1.98441 34.4866C1.64947 34.1629 1.38321 33.7756 1.2014 33.3476C1.01958 32.9197 0.925903 32.4598 0.925903 31.9952C0.925903 31.5306 1.01958 31.0707 1.2014 30.6428C1.38321 30.2149 1.64947 29.8275 1.98441 29.5038L30.9665 1.5004C31.6261 0.863006 32.5118 0.510216 33.4312 0.518641C34.3507 0.527066 35.2297 0.896027 35.8774 1.5454L36.9508 2.62192C37.2758 2.94801 37.5325 3.33497 37.7062 3.76043C37.88 4.18588 37.9672 4.64138 37.9628 5.10058C37.9584 5.55977 37.8626 6.01355 37.6808 6.43565C37.499 6.85776 37.2349 7.23982 36.9038 7.55973L14.1878 29.5055C13.8532 29.8293 13.5871 30.2164 13.4055 30.6442C13.2238 31.072 13.1302 31.5317 13.1302 31.9961C13.1302 32.4605 13.2238 32.9201 13.4055 33.3479C13.5871 33.7757 13.8532 34.1629 14.1878 34.4866L36.9038 56.4411C37.2347 56.761 37.4985 57.1429 37.6802 57.5649C37.8618 57.9868 37.9575 58.4404 37.9619 58.8994C37.9663 59.3584 37.8792 59.8137 37.7056 60.2389C37.5321 60.6642 37.2755 61.0511 36.9508 61.3771L35.8774 62.4537C35.23 63.1033 34.3511 63.4725 33.4316 63.4813C32.5121 63.49 31.6263 63.1358 30.9665 62.4987Z" fill="black"/>
</svg>
