<svg width="38" height="64" viewBox="0 0 38 64" fill="none" xmlns="http://www.w3.org/2000/svg">
<path d="M7.03353 62.4987L36.0156 34.4866C36.3505 34.1629 36.6168 33.7756 36.7986 33.3476C36.9804 32.9197 37.0741 32.4598 37.0741 31.9952C37.0741 31.5306 36.9804 31.0707 36.7986 30.6428C36.6168 30.2149 36.3505 29.8275 36.0156 29.5038L7.03353 1.5004C6.37394 0.863006 5.48824 0.510216 4.56876 0.518641C3.64928 0.527066 2.77026 0.896027 2.12259 1.5454L1.04924 2.62192C0.724243 2.94801 0.467464 3.33497 0.293755 3.76043C0.120045 4.18588 0.0328484 4.64138 0.0372162 5.10058C0.041584 5.55977 0.137424 6.01355 0.319199 6.43565C0.500969 6.85776 0.765068 7.23982 1.09621 7.55973L23.8122 29.5055C24.1468 29.8293 24.4129 30.2164 24.5945 30.6442C24.7762 31.072 24.8698 31.5317 24.8698 31.9961C24.8698 32.4605 24.7762 32.9201 24.5945 33.3479C24.4129 33.7757 24.1468 34.1629 23.8122 34.4866L1.09621 56.4411C0.765331 56.761 0.501457 57.1429 0.319839 57.5649C0.138222 57.9868 0.0424576 58.4404 0.0380898 58.8994C0.0337219 59.3584 0.120834 59.8137 0.294392 60.2389C0.467949 60.6642 0.724506 61.0511 1.04924 61.3771L2.12259 62.4537C2.77003 63.1033 3.64892 63.4725 4.5684 63.4813C5.48788 63.49 6.37371 63.1358 7.03353 62.4987Z" fill="black"/>
</svg>
