<svg width="318" height="237" viewBox="0 0 318 237" fill="none" xmlns="http://www.w3.org/2000/svg">
<path d="M140.033 104.279C140.033 104.279 139.796 110.33 138.824 115.693C137.848 121.055 127.188 120.102 127.479 114.465C127.77 108.829 131.261 70.2169 131.95 61.7858C132.639 53.3548 129.424 53.0071 127.21 54.5385C123.898 56.8282 122.187 72.9319 122.65 76.7265C123.072 80.1954 113.974 80.4931 112.383 76.3756C110.789 72.2529 112.911 44.1316 127.546 43.9958C138.978 43.8904 145.639 53.1462 144.802 61.0537C144.521 63.6925 141.287 92.9598 140.311 101.782C140.136 103.359 140.035 104.284 140.035 104.284L140.033 104.279Z" fill="#EADACB"/>
<path d="M140.258 102.226C140.258 102.226 133.931 118.386 127.513 113.825L128.096 106.303C128.096 106.303 138.882 108.155 140.295 95.5486C141.708 82.9423 140.256 102.23 140.256 102.23L140.258 102.226Z" fill="#891812"/>
<path d="M141.621 89.3867C141.621 89.3867 135.294 105.547 128.876 100.985L129.459 93.4632C129.459 93.4632 140.246 95.3155 141.658 82.7092C143.071 70.1029 141.62 89.3903 141.62 89.3903L141.621 89.3867Z" fill="#891812"/>
<path d="M142.908 77.2386C142.908 77.2386 136.582 93.3987 130.163 88.8371L130.747 81.3151C130.747 81.3151 141.533 83.1673 142.945 70.561C144.358 57.9547 142.907 77.2421 142.907 77.2421L142.908 77.2386Z" fill="#891812"/>
<path d="M144.509 62.1469C144.509 62.1469 138.182 78.3071 131.764 73.7455L132.347 66.2234C132.347 66.2234 144.288 67.426 143.096 54.7912C142.595 49.4696 144.508 62.1505 144.508 62.1505L144.509 62.1469Z" fill="#891812"/>
<path d="M141.56 51.3687C141.56 51.3687 139.834 48.6371 138.711 48.0974C137.587 47.5578 134.42 45.4695 134.42 45.4695C134.42 45.4695 135.685 52.9359 132.158 55.6685C132.158 55.6685 132.685 57.8909 132.546 58.8239C132.406 59.7568 132.372 62.261 132.372 62.261C132.372 62.261 140.117 59.9482 141.56 51.3687Z" fill="#891812"/>
<path d="M128.533 53.7527C128.533 53.7527 132.175 45.7919 126.183 44.5001C126.183 44.5001 123.364 44.8968 122.694 45.4693C122.024 46.0419 119.778 48.2101 119.778 48.2101C119.778 48.2101 124.794 46.8565 125.099 49.3567C125.404 51.857 125.521 56.1426 125.521 56.1426L128.537 53.7544L128.533 53.7527Z" fill="#891812"/>
<path d="M115.602 55.4107C115.602 55.4107 118.525 51.7192 120.913 53.2708C123.298 54.8208 124.206 59.0191 124.206 59.0191C124.206 59.0191 123.266 60.8924 123.28 62.1854C123.294 63.4784 122.88 65.9769 122.88 65.9769C122.88 65.9769 122.604 59.6046 119.708 58.1894C116.813 56.7741 114.05 60.5572 114.05 60.5572L115.604 55.4071L115.602 55.4107Z" fill="#891812"/>
<path d="M113.191 65.9391C113.191 65.9391 116.803 61.662 119.194 63.2101C121.578 64.76 122.299 68.7485 122.299 68.7485C122.299 68.7485 122.373 70.7433 122.387 72.0363C122.402 73.3293 122.391 77.0481 122.391 77.0481C122.391 77.0481 120.884 69.5438 117.989 68.1286C115.093 66.7134 112.736 70.2562 112.736 70.2562L113.193 65.9355L113.191 65.9391Z" fill="#891812"/>
<path d="M121.71 78.3937C121.71 78.3937 119.697 74.8332 117.47 75.251C115.242 75.6688 113.47 76.5911 113.47 76.5911L115.989 78.1818L118.725 78.7309" fill="#891812"/>
<path d="M138.169 109.114C138.047 111.241 137.854 113.404 137.549 115.477C137.44 116.223 137.032 116.856 136.341 117.34C135.645 117.808 134.726 118.095 133.77 118.167C132.815 118.248 131.821 118.128 130.916 117.816C130.012 117.502 129.206 116.969 128.714 116.251C128.463 115.893 128.315 115.484 128.247 115.045C128.222 114.937 128.213 114.824 128.213 114.71C128.211 114.591 128.198 114.497 128.206 114.348L128.234 113.521C128.278 112.416 128.329 111.303 128.387 110.187C128.855 101.268 129.447 92.2235 130.089 83.0617C130.432 78.3905 130.777 73.698 131.124 68.9893C131.304 66.6358 131.481 64.2805 131.659 61.9216C131.748 60.7466 131.816 59.5704 131.738 58.4053C131.701 57.8236 131.635 57.2462 131.503 56.6902C131.367 56.1413 131.169 55.5942 130.826 55.1985C130.489 54.7973 129.994 54.6153 129.465 54.6759C128.94 54.7293 128.411 54.9605 127.917 55.2387C127.679 55.3819 127.413 55.5384 127.216 55.709C127.117 55.7899 127.016 55.8744 126.93 55.9833C126.84 56.0817 126.753 56.1854 126.675 56.3065C126.353 56.7612 126.099 57.2816 125.885 57.8168C125.447 58.8912 125.142 60.0312 124.879 61.1736C124.618 62.3213 124.407 63.4837 124.229 64.6522C123.876 66.991 123.64 69.3496 123.5 71.7128C123.43 72.8926 123.386 74.0752 123.39 75.2584C123.393 75.8463 123.4 76.436 123.444 77.0122L123.486 77.4428C123.49 77.6239 123.516 77.8026 123.474 77.9885C123.458 78.1737 123.383 78.3445 123.317 78.5151C123.226 78.6739 123.133 78.8364 123.003 78.9643C122.744 79.2467 122.435 79.4488 122.121 79.587C121.805 79.7378 121.476 79.8302 121.149 79.9102C120.495 80.0524 119.835 80.0917 119.183 80.0775C117.879 80.0402 116.589 79.7822 115.371 79.3037C114.168 78.8195 112.971 78.097 112.222 76.9218C112.126 76.7769 112.042 76.6282 111.976 76.4666C111.895 76.3106 111.844 76.1468 111.794 75.9794C111.736 75.8122 111.702 75.6479 111.674 75.4905C111.645 75.3279 111.606 75.1655 111.589 75.0043C111.549 74.6838 111.505 74.3617 111.486 74.0424C111.459 73.7233 111.44 73.404 111.431 73.0845C111.345 70.5374 111.547 68.0145 111.881 65.5092C112.231 63.0071 112.734 60.5239 113.441 58.0955C114.166 55.6756 115.05 53.2815 116.299 51.0657C116.902 49.946 117.638 48.9009 118.433 47.9003C119.262 46.929 120.189 46.0296 121.236 45.278C122.304 44.5578 123.478 43.9875 124.727 43.6443C125.038 43.5701 125.361 43.5187 125.676 43.455C125.833 43.4277 125.992 43.3878 126.154 43.3709L126.639 43.3382C126.961 43.3259 127.284 43.2833 127.601 43.2907L128.555 43.3357C131.098 43.4494 133.634 44.059 135.918 45.2031C138.201 46.3383 140.217 48.0014 141.766 50.0165C143.332 52.0258 144.38 54.4206 144.806 56.9157C145.057 58.1614 145.039 59.4393 144.95 60.6978L144.516 64.4298C144.221 66.918 143.931 69.4043 143.638 71.8889C142.449 81.8295 141.266 91.7593 140.078 101.67C139.529 106.206 140.937 104.007 141.405 100.107C142.583 90.2275 143.77 80.3296 144.952 70.4212C145.242 67.9438 145.538 65.4644 145.828 62.987L146.046 61.1281C146.091 60.8337 146.096 60.464 146.119 60.1294C146.134 59.7861 146.165 59.4459 146.161 59.1031C146.104 57.742 145.954 56.3728 145.555 55.0761C144.811 52.4723 143.467 50.0323 141.609 48.0576C139.765 46.0718 137.46 44.5108 134.941 43.5241L133.99 43.161C133.673 43.0399 133.341 42.9779 133.016 42.8837L132.034 42.6244C131.709 42.5302 131.372 42.5092 131.039 42.4508C130.372 42.3553 129.707 42.217 129.036 42.2158L128.03 42.1686L127.527 42.145C127.358 42.1407 127.177 42.1616 127.003 42.1681L125.942 42.2397L124.892 42.4389C124.537 42.4929 124.203 42.6087 123.86 42.721C123.524 42.8403 123.17 42.921 122.856 43.0859L121.891 43.5386C121.583 43.7105 121.287 43.9015 120.983 44.0839C120.673 44.2594 120.402 44.4746 120.127 44.6882C119.858 44.9087 119.557 45.1017 119.317 45.3445L118.562 46.0526C118.318 46.2938 118.1 46.5556 117.873 46.8087L117.533 47.1893L117.225 47.5885C117.021 47.857 116.81 48.1222 116.613 48.394C115.862 49.5018 115.173 50.6434 114.605 51.8279C113.434 54.1889 112.623 56.661 111.958 59.1522C111.31 61.6517 110.863 64.1832 110.568 66.7371C110.427 68.0148 110.33 69.3001 110.282 70.5948C110.237 71.8912 110.239 73.1916 110.375 74.5541C110.425 74.9099 110.445 75.2344 110.53 75.6194C110.59 75.9625 110.707 76.4194 110.881 76.8286C111.24 77.6645 111.805 78.3384 112.408 78.8639C113.637 79.907 115.007 80.4649 116.383 80.8289C117.772 81.1766 119.185 81.3299 120.692 81.1503C121.445 81.0409 122.233 80.8862 123.083 80.3709C123.291 80.2533 123.507 80.0734 123.708 79.8955C123.913 79.6803 124.109 79.4564 124.261 79.1769C124.567 78.6409 124.697 77.9747 124.637 77.3954C124.522 76.3006 124.534 75.1686 124.561 74.0041C124.59 72.845 124.653 71.6796 124.742 70.5135C124.919 68.1848 125.184 65.8574 125.583 63.5795C125.782 62.4424 126.017 61.3132 126.314 60.2302C126.613 59.1614 126.968 58.0751 127.439 57.2699C127.494 57.1601 127.554 57.0785 127.614 56.9969L127.701 56.8666L127.784 56.7737L127.863 56.6792C127.887 56.6643 127.908 56.6478 127.931 56.6276L127.962 56.5983C127.962 56.5983 127.981 56.5765 128.012 56.5561L128.167 56.4488C128.579 56.1764 129.008 55.964 129.338 55.8768C129.504 55.8315 129.635 55.8225 129.705 55.8331C129.78 55.8417 129.795 55.8484 129.838 55.8774C129.878 55.9048 129.953 55.9702 130.032 56.1031C130.108 56.2432 130.194 56.406 130.254 56.6176C130.388 57.0297 130.474 57.5337 130.522 58.0547C130.568 58.5793 130.592 59.1241 130.578 59.6823C130.575 60.2367 130.541 60.8026 130.505 61.3721L130.373 63.1399C130.189 65.5007 130.011 67.8595 129.826 70.2151C129.475 74.9309 129.127 79.6306 128.779 84.3126C128.11 93.8162 127.477 103.193 127.02 112.458L126.951 114.202C126.929 114.8 126.99 115.481 127.223 116.075C127.674 117.299 128.699 118.174 129.783 118.686C130.878 119.212 132.072 119.43 133.249 119.43C134.424 119.425 135.604 119.172 136.633 118.622C137.143 118.338 137.607 117.972 137.969 117.523C138.335 117.076 138.592 116.552 138.724 116.001C138.935 114.887 139.047 113.757 139.166 112.631C139.386 110.38 139.516 108.134 139.578 105.892C139.624 103.874 139.289 103.802 138.968 104.654C138.639 105.513 138.273 107.312 138.165 109.095L138.169 109.114Z" fill="#891812"/>
<path d="M173.487 130.564C173.487 130.564 167.246 161.851 160.061 176.834C152.876 191.817 147.721 207.742 120.109 208.766C92.4963 209.791 60.8002 208.025 47.7844 195.497C34.7687 182.97 56.246 159.448 66.9913 157.05C88.7596 152.195 94.1008 160.483 94.1008 160.483C94.1008 160.483 103.829 142.438 106.678 134.376C109.528 126.314 115.425 107.828 115.425 107.828L173.489 130.56L173.487 130.564Z" fill="#871912"/>
<path d="M61.1742 159.712C61.1742 159.712 72.0153 171.343 70.9534 181.351C69.8916 191.359 55.9557 198.961 55.9557 198.961C55.9557 198.961 37.8188 195.225 46.3426 176.397C55.2348 162.4 61.1742 159.712 61.1742 159.712Z" fill="#247131"/>
<path d="M156.725 184.035C156.725 184.035 147.2 175.886 131.029 184.308C114.856 192.735 118.737 206.899 118.737 206.899C118.737 206.899 137.034 207.454 143.391 201.184C149.747 194.913 156.726 184.031 156.726 184.031L156.725 184.035Z" fill="#247131"/>
<path d="M157.271 181.803C153.853 180.473 150.52 179.953 146.818 179.488C143.225 179.132 139.487 179.294 135.876 180.137L134.495 180.453C134.033 180.558 133.596 180.723 133.145 180.854L131.79 181.275L131.107 181.487C130.88 181.561 130.66 181.656 130.436 181.74C128.642 182.416 126.862 183.26 125.19 184.391C123.668 185.417 122.239 186.687 121.027 188.181C119.81 189.667 118.84 191.387 118.182 193.199C117.805 194.218 117.536 195.27 117.373 196.319C117.207 197.367 117.132 198.417 117.169 199.445C117.201 200.471 117.323 201.476 117.532 202.444C117.555 202.565 117.587 202.684 117.614 202.806C117.643 202.933 117.672 203.022 117.706 203.195C117.787 203.53 117.856 203.855 117.948 204.156C118.118 204.774 118.348 205.3 118.562 205.776C118.605 205.862 118.643 205.95 118.687 206.035C118.729 206.116 118.758 206.213 118.86 206.212C119.686 206.079 120.402 205.909 120.96 205.709C120.997 205.695 121.268 205.585 121.453 205.479C121.639 205.372 121.745 205.277 121.58 205.292C120.926 205.356 120.232 205.414 119.494 205.452C119.381 205.487 119.381 205.382 119.356 205.314L119.289 205.09C119.245 204.938 119.203 204.783 119.165 204.63C119.082 204.316 119.017 203.992 118.948 203.658C118.824 202.962 118.743 202.333 118.689 201.674C118.583 200.36 118.604 199.031 118.768 197.703C119.08 195.047 119.962 192.42 121.336 190.039C121.427 189.635 121.518 189.223 121.623 188.808L121.994 187.575C121.127 189.347 120.013 191.28 119.223 193.245C118.376 195.333 117.798 197.541 117.592 199.781C117.498 200.788 117.476 201.797 117.532 202.812L117.555 203.234L117.61 203.789C117.639 204.161 117.703 204.524 117.758 204.886C117.824 205.245 117.899 205.595 117.984 205.941L118.112 206.46L118.175 206.721L118.211 206.851L118.271 206.949C119.225 206.977 120.182 207.006 121.152 206.997L122.309 206.983L123.24 206.956C124.481 206.912 125.718 206.839 126.956 206.727C129.128 206.533 131.302 206.221 133.442 205.736C135.582 205.252 137.702 204.592 139.696 203.628C140.677 203.143 141.614 202.589 142.476 201.935C143.331 201.287 144.106 200.487 144.705 199.663C145.93 198.036 146.979 196.326 147.943 194.582C149.028 192.627 150.072 190.596 151.419 188.671C152.092 187.714 152.843 186.759 153.649 185.97C154.251 185.383 155.288 184.605 155.45 185.297C155.513 185.55 156.006 184.12 156.023 184.054C156.196 183.474 156.511 182.513 156.393 182.077C156.054 180.83 154.084 183.123 153.285 184.116C151.995 185.74 150.96 187.578 150.02 189.347C149.039 191.184 148.163 193.022 147.108 194.811C146.561 195.734 145.983 196.656 145.347 197.542C145.037 197.992 144.707 198.43 144.365 198.862L143.852 199.512L143.304 200.115C142.589 200.824 141.75 201.427 140.865 201.952C139.978 202.481 139.032 202.921 138.06 203.292C137.089 203.672 136.094 203.989 135.083 204.254C134.075 204.525 133.052 204.75 132.02 204.931C129.96 205.309 127.874 205.535 125.785 205.675C124.738 205.744 123.694 205.789 122.651 205.812L121.868 205.824L120.987 205.831C120.39 205.829 119.797 205.82 119.207 205.804L119.139 205.781C119.117 205.771 119.119 205.729 119.112 205.708L119.071 205.54L118.998 205.204C118.953 204.982 118.907 204.759 118.875 204.534C118.799 204.083 118.753 203.625 118.714 203.169C118.532 200.717 118.834 198.289 119.408 195.948C119.975 193.603 120.839 191.393 121.719 189.198C121.841 188.869 121.99 188.558 122.108 188.236C122.227 187.915 122.342 187.601 122.452 187.307C122.464 187.273 122.722 186.461 122.487 186.759C120.452 189.287 118.961 192.27 118.253 195.38C117.896 196.934 117.712 198.511 117.717 200.08C117.717 200.863 117.755 201.642 117.848 202.416C117.864 202.608 117.897 202.802 117.922 202.993C117.934 203.082 117.954 203.227 117.974 203.354L118.034 203.737C118.118 204.244 118.226 204.732 118.354 205.194C118.46 205.361 118.565 205.524 118.669 205.668L118.825 205.881C118.878 205.945 118.91 206.038 119.03 206.015C119.842 205.819 120.53 205.605 121.089 205.384C120.56 205.51 119.957 205.619 119.283 205.708C119.152 205.744 119.155 205.605 119.105 205.534L118.993 205.272C118.919 205.093 118.847 204.906 118.775 204.711C118.637 204.319 118.508 203.887 118.41 203.417L118.27 202.765C118.224 202.569 118.194 202.371 118.163 202.173C118.097 201.775 118.049 201.368 118.018 200.964C117.879 199.333 118.013 197.636 118.4 195.982C118.798 194.33 119.466 192.723 120.36 191.271C121.251 189.816 122.371 188.521 123.616 187.44C125.083 186.162 126.704 185.151 128.378 184.336C130.052 183.522 131.771 182.885 133.523 182.365C136.945 181.285 140.503 180.764 143.954 180.709C144.932 180.647 145.872 180.721 146.808 180.691C147.732 180.753 148.656 180.732 149.562 180.824C151.38 180.947 153.19 181.162 155.019 181.592C155.824 181.769 156.653 181.98 157.389 182.116C157.634 182.155 157.797 182.183 157.79 182.123C157.783 182.062 157.619 181.943 157.285 181.801L157.271 181.803Z" fill="#020202"/>
<path d="M62.6305 162.335C65.421 164.288 67.8174 166.929 69.4332 170.314C70.9868 173.586 71.8175 177.215 71.6516 180.568C71.5265 184.032 69.7829 186.736 67.6118 189.14C65.6286 191.339 63.3123 193.413 60.9456 195.473C60.2026 196.107 59.4649 196.74 58.7342 197.368C58.3661 197.678 57.9979 197.989 57.6298 198.299C57.543 198.372 57.4334 198.457 57.3641 198.521L57.3117 198.615C57.2744 198.676 57.232 198.749 57.1755 198.823C57.072 198.875 56.9447 198.904 56.787 198.931C56.4368 198.891 56.0524 198.839 55.6838 198.782C54.9395 198.664 54.198 198.52 53.4659 198.338C53.1324 198.261 52.8076 198.176 52.4782 198.119C52.1572 198.045 51.8278 197.988 51.5216 197.929C51.4643 197.92 50.5574 197.783 50.8566 197.961C51.8961 198.597 52.9994 199.105 54.1249 199.519C54.6917 199.717 55.26 199.902 55.8378 200.048C56.4442 200.198 56.9159 200.308 57.3959 200.343C57.6942 200.136 57.9379 199.952 58.2339 199.73C58.5614 199.489 58.8853 199.245 59.2036 198.995C59.8438 198.496 60.471 197.978 61.0818 197.448C62.3034 196.388 63.4645 195.269 64.5383 194.092C64.8162 193.39 65.0747 192.692 65.2868 191.989C64.5587 193.471 63.1908 194.875 61.782 196.045C61.0298 196.671 60.2375 197.261 59.4245 197.82C59.0181 198.099 58.6077 198.368 58.1882 198.628L57.6096 198.985L57.3331 199.145L57.2368 199.201C57.1331 199.188 57.027 199.152 56.9264 199.123L56.7735 199.074L56.4731 198.974C56.0269 198.819 55.582 198.651 55.1488 198.459C54.2791 198.081 53.4395 197.638 52.6514 197.132C51.0788 196.122 49.7139 194.853 48.7532 193.348C48.4962 192.974 48.2987 192.568 48.0837 192.17C47.9127 191.754 47.7099 191.349 47.5845 190.91C47.4221 190.485 47.3372 190.034 47.2224 189.591C47.1728 189.367 47.1481 189.136 47.1092 188.908C47.0738 188.682 47.0277 188.45 47.0207 188.22C46.8471 186.362 47.0289 184.421 47.4194 182.493C47.4975 182.013 47.624 181.543 47.7379 181.07L47.9053 180.361L48.1084 179.659L48.308 178.955C48.3418 178.835 48.3739 178.719 48.3943 178.628C48.4163 178.533 48.4587 178.461 48.5122 178.345C48.7195 177.899 48.9341 177.456 49.1434 177.015C49.5508 176.119 49.973 175.239 50.3915 174.357C50.7973 173.465 51.2375 172.593 51.6647 171.702C52.6432 169.728 53.7286 167.695 55.3113 165.914C55.7093 165.473 56.1362 165.046 56.5745 164.641C57.0348 164.256 57.4936 163.882 57.9849 163.581C58.7099 163.117 59.93 162.656 59.8964 163.371C59.8931 163.501 60.0994 163.255 60.3191 162.981C60.5459 162.71 60.7804 162.395 60.801 162.369C61.1549 161.882 61.8246 161.121 62.003 160.661C62.0479 160.498 62.1146 160.345 62.0585 160.258C62.0358 160.213 61.9919 160.175 61.9307 160.155C61.8607 160.136 61.7943 160.118 61.7245 160.107C61.6511 160.095 61.5675 160.096 61.4732 160.1C61.3879 160.104 61.2956 160.114 61.1946 160.132C60.9892 160.168 60.7809 160.229 60.557 160.304C59.6601 160.618 58.6606 161.248 58.1175 161.661C56.3112 162.996 54.9431 164.75 53.8378 166.476C52.6904 168.284 51.7663 170.113 50.8448 171.973C49.8783 173.874 48.8948 175.802 47.9049 177.753L47.706 178.124C47.6369 178.254 47.6075 178.402 47.5615 178.529L47.3057 179.316C47.2228 179.58 47.1255 179.836 47.0552 180.101L46.8388 180.898L46.6205 181.689L46.4453 182.491C46.3875 182.758 46.3207 183.024 46.2701 183.294L46.1433 184.106C45.9586 185.184 45.9059 186.271 45.8958 187.351C45.9479 188.43 46.0393 189.51 46.3164 190.548C46.5899 191.586 46.9852 192.587 47.512 193.524C48.0458 194.454 48.7126 195.307 49.4729 196.071C50.9918 197.604 52.8756 198.777 54.8775 199.619C55.3102 199.794 55.7481 199.967 56.1941 200.113C56.4298 200.192 56.6023 200.246 56.8072 200.306C57.0028 200.357 57.2062 200.43 57.4044 200.448C57.5777 200.349 57.751 200.25 57.9207 200.149L58.4557 199.82C58.8418 199.575 59.2188 199.322 59.5902 199.061C60.3311 198.534 61.0426 197.977 61.7068 197.388C63.0333 196.206 64.1827 194.876 64.9883 193.426C65.2855 192.89 65.5358 192.333 65.6909 191.81C65.7024 191.775 65.8591 191.069 65.6743 191.316C64.4877 192.887 63.0957 194.38 61.5921 195.773C60.8422 196.47 60.0577 197.147 59.2547 197.798C58.8496 198.122 58.4461 198.442 58.0299 198.752L57.7199 198.984C57.6554 199.028 57.6434 199.045 57.6209 199.065L57.5532 199.125C57.4578 199.208 57.3571 199.292 57.2511 199.379C57.0929 199.388 56.9175 199.359 56.7388 199.338C56.6818 199.337 56.4664 199.281 56.3158 199.246C56.1526 199.21 55.9909 199.161 55.8294 199.121C55.183 198.943 54.5408 198.728 53.9083 198.482C53.0527 198.452 52.1824 198.35 51.2994 198.18C52.3406 198.576 53.3975 198.901 54.4722 199.168C55.0086 199.299 55.55 199.42 56.0944 199.524L56.4991 199.598C56.6334 199.621 56.6956 199.619 56.7904 199.633C56.9653 199.644 57.1315 199.664 57.2877 199.65L57.6542 199.343L57.741 199.269C57.7688 199.247 57.793 199.224 57.854 199.177L58.1692 198.943C58.5888 198.626 59.01 198.306 59.4296 197.989C60.2649 197.344 61.1035 196.692 61.9404 196.044C63.6032 194.734 65.2424 193.408 66.7904 192.014C68.0875 190.858 69.3004 189.627 70.3572 188.241C70.8865 187.546 71.3538 186.805 71.7753 186.021C72.1662 185.227 72.5327 184.39 72.7497 183.498C72.9709 182.625 73.1268 181.713 73.1737 180.79C73.2437 179.864 73.2119 178.93 73.1232 177.996C72.9404 176.131 72.4911 174.281 71.8184 172.524C71.0639 170.537 70.0014 168.788 68.7781 167.253C67.5494 165.719 66.1559 164.389 64.6522 163.24C63.9942 162.737 63.261 162.283 62.6072 162.036C62.3838 161.949 62.2554 161.942 62.2445 161.994C62.2316 162.041 62.3491 162.156 62.6255 162.346L62.6305 162.335Z" fill="#020202"/>
<path d="M172.375 131.88C171.479 138.111 170.316 144.375 168.82 150.733C167.317 157.088 165.469 163.55 162.958 170.062L161.983 172.406C161.817 172.792 161.663 173.189 161.486 173.57L160.944 174.719C160.233 176.257 159.461 177.74 158.715 179.241C157.214 182.236 155.72 185.235 154.02 188.099C152.337 190.966 150.426 193.688 148.207 196.092C145.973 198.48 143.422 200.52 140.609 202.066C139.197 202.876 137.688 203.505 136.177 204.081C135.409 204.345 134.648 204.622 133.864 204.826C133.472 204.932 133.087 205.06 132.695 205.149L131.508 205.425C128.344 206.138 125.096 206.445 121.84 206.534C121.02 206.542 120.221 206.569 119.386 206.562L116.889 206.548C115.222 206.535 113.556 206.509 111.888 206.478C108.551 206.411 105.204 206.3 101.847 206.141C95.7361 205.843 89.5584 205.415 83.4167 204.701C77.2835 203.978 71.1777 202.979 65.3316 201.383C62.0417 200.467 58.8493 199.36 55.8845 197.943C54.4097 197.223 52.9898 196.432 51.6578 195.546C51.32 195.328 51.0117 195.084 50.6878 194.855L50.2036 194.507L49.7507 194.131C49.4599 193.878 49.1213 193.633 48.8642 193.373L48.0733 192.599C47.0932 191.513 46.3154 190.286 45.8043 188.928C45.6977 188.581 45.554 188.247 45.4685 187.892L45.2312 186.815L45.1052 185.706C45.0765 185.522 45.0761 185.334 45.0758 185.146L45.0659 184.581C45.0773 183.073 45.2767 181.537 45.6623 180.036C46.0604 178.537 46.5586 177.049 47.1993 175.622C48.2047 173.298 49.4103 171.119 50.5519 169.238C50.6115 169.148 51.039 168.445 51.3569 167.884C51.6822 167.335 51.9089 166.941 51.4861 167.445C49.7841 169.52 48.2756 171.755 47.0059 174.11C45.7486 176.467 44.7128 178.961 44.2055 181.565L44.0196 182.542L43.9123 183.529L43.8594 184.021L43.8494 184.515L43.8311 185.5L43.907 186.48C43.9226 186.645 43.9258 186.808 43.952 186.969L44.0396 187.452C44.1062 187.771 44.1481 188.097 44.2306 188.411L44.517 189.345C44.5942 189.661 44.7437 189.954 44.8737 190.25C45.0144 190.543 45.1163 190.853 45.2867 191.129C45.6221 191.683 45.9209 192.259 46.3454 192.754C46.5489 193.006 46.7262 193.277 46.9453 193.514L47.6234 194.21L47.9616 194.56L48.3345 194.882L49.0822 195.522C51.118 197.19 53.4177 198.517 55.8075 199.64C58.2006 200.756 60.6976 201.658 63.2382 202.41C68.3266 203.917 73.5891 204.821 78.867 205.466C81.529 205.522 84.1881 205.479 86.8388 205.398C80.5276 205.323 73.0116 204.448 66.2059 202.621C64.3844 202.155 62.5987 201.575 60.831 200.946C59.0754 200.301 57.358 199.564 55.6965 198.735C54.052 197.879 52.4688 196.929 51.0044 195.847L49.9337 195.003C49.5865 194.711 49.2602 194.402 48.92 194.104L48.6693 193.878C48.5904 193.802 48.5221 193.722 48.4502 193.64L48.0121 193.165C47.8719 193.004 47.7072 192.858 47.5845 192.687L47.2092 192.171C46.1783 190.76 45.5041 189.13 45.2347 187.403C44.9565 185.677 45.0692 183.865 45.4498 182.082C46.225 178.504 47.9805 175.075 50.1499 171.965C52.3171 168.842 54.9179 165.985 57.806 163.503C59.2502 162.266 60.7719 161.118 62.3665 160.143C63.9649 159.179 65.6227 158.352 67.305 157.983C71.4993 157.066 75.76 156.46 79.9757 156.489C82.067 156.572 84.1754 156.694 86.1622 157.21C87.1561 157.453 88.1268 157.755 89.0451 158.151C89.2827 158.235 89.5016 158.35 89.7205 158.465L90.3824 158.799L91.0338 159.202C91.4202 159.439 91.7159 159.738 92.0537 160.013C92.2435 160.049 92.4706 160.08 92.6268 160.122L93.097 160.244L93.3268 160.307L93.5088 160.378C93.6278 160.425 93.7609 160.469 93.8514 160.52C93.904 160.549 93.9634 160.572 94.0054 160.605C94.0162 160.61 94.0273 160.624 94.0415 160.621L94.0835 160.597L94.1656 160.543L94.5419 160.329C94.6067 160.293 94.6643 160.254 94.738 160.219L94.9875 160.107L95.4793 159.881L96.8489 157.235L97.8032 155.342C98.4381 154.079 99.0642 152.817 99.6795 151.549C100.914 149.016 102.121 146.474 103.279 143.915C104.641 140.88 105.949 137.865 107.027 134.743C108.058 131.634 108.954 128.554 109.858 125.483C110.754 122.411 111.619 119.357 112.469 116.308C113.332 113.156 114.196 110.021 115.054 106.889C116.077 107.238 117.099 107.59 118.12 107.937C119.042 108.248 119.967 108.555 120.89 108.865C128.625 111.453 136.573 114.122 144.737 117.259C148.8 118.818 152.977 120.518 156.732 122.21C159.532 123.472 163.611 125.516 161.768 125.36C161.097 125.302 166.261 126.9 166.489 126.967C168.55 127.579 171.998 128.647 173.173 128.746C176.549 129.032 166.18 124.552 161.798 122.744C154.634 119.787 147.228 117.134 140.227 114.725C132.932 112.211 125.863 109.911 118.619 107.447C117.311 106.984 115.997 106.522 114.651 106.045C113.627 109.648 112.592 113.293 111.549 116.966C110.587 120.312 109.59 123.678 108.561 127.055C108.139 128.416 107.714 129.776 107.29 131.142C106.859 132.504 106.425 133.864 105.937 135.208C104.948 137.894 103.786 140.518 102.597 143.134C101.401 145.746 100.156 148.34 98.8823 150.921C98.2357 152.209 97.5926 153.498 96.9459 154.786L95.9624 156.714L94.8719 158.815C94.6837 159.069 94.4724 159.325 94.3037 159.575L94.0408 159.952L93.9796 160.046L93.9489 160.093C93.9489 160.093 93.9251 160.069 93.9159 160.06C93.8732 160.001 93.8129 159.951 93.7649 159.893C93.6763 159.791 93.5632 159.704 93.4572 159.61C93.3564 159.516 93.2433 159.428 93.118 159.348L92.7561 159.097C92.6361 159.015 92.4844 158.944 92.3538 158.866L91.9197 158.524C91.8503 158.466 91.7705 158.42 91.6941 158.367L91.4691 158.227C91.2008 158.068 90.9458 157.879 90.6587 157.75L89.8177 157.32C89.5291 157.195 89.2337 157.084 88.9397 156.96C87.7679 156.486 86.5351 156.171 85.2863 155.919C82.7863 155.449 80.2205 155.338 77.664 155.415C77.0252 155.428 76.3882 155.504 75.7502 155.545L74.7927 155.621C74.471 155.642 74.1549 155.67 73.8376 155.72L71.9314 155.985C71.2947 156.07 70.6597 156.151 70.0318 156.292L68.143 156.662C67.5165 156.791 66.8678 156.892 66.2821 157.075C65.0891 157.431 63.9238 157.935 62.8153 158.553C60.5908 159.778 58.5363 161.326 56.6121 163C54.6917 164.685 52.9171 166.539 51.2975 168.512C49.6815 170.488 48.2244 172.594 47.0026 174.826C45.7752 177.052 44.8268 179.434 44.3011 181.898C43.8637 183.983 43.7619 186.159 44.1971 188.247C44.634 190.331 45.6648 192.272 47.0875 193.86C47.7919 194.66 48.6025 195.383 49.4421 196.061C49.8757 196.385 50.2817 196.74 50.7306 197.041C51.1795 197.341 51.6165 197.658 52.072 197.944C53.8913 199.104 55.8359 200.052 57.809 200.881C59.7838 201.706 61.806 202.392 63.8422 202.953C64.8538 203.253 65.883 203.486 66.8985 203.739C67.9235 203.952 68.9368 204.191 69.9588 204.364C74.0308 205.118 78.0693 205.529 81.9755 205.685C84.2722 205.79 86.5476 205.779 88.5023 205.703C88.6285 205.696 91.1876 205.529 89.9428 205.467C84.6429 205.209 79.3607 204.716 74.147 203.895C68.9467 203.045 63.7901 201.874 58.9415 199.994C56.5215 199.049 54.1851 197.924 52.042 196.534L51.2408 196.009C50.9772 195.83 50.7308 195.632 50.4759 195.443C50.2225 195.251 49.9606 195.068 49.7159 194.867L48.9974 194.249L48.6356 193.941C48.522 193.836 48.4243 193.725 48.316 193.617L47.682 192.968C47.4654 192.754 47.3081 192.497 47.1177 192.264L46.8398 191.908L46.7027 191.73L46.59 191.538L46.1322 190.765L46.0159 190.571L45.9261 190.367L45.7445 189.955C45.4701 189.42 45.326 188.833 45.1412 188.257C44.8743 187.083 44.6897 185.863 44.7642 184.616L44.7697 184.15C44.7757 183.996 44.7995 183.84 44.8145 183.685L44.9145 182.752C44.9621 182.441 45.0311 182.132 45.0876 181.821C45.1477 181.512 45.197 181.198 45.291 180.892C45.4541 180.277 45.6099 179.658 45.8338 179.053C45.9404 178.748 46.0308 178.44 46.1518 178.142L46.5164 177.243C46.6158 176.878 46.7457 176.523 46.8757 176.168C47.0056 175.812 47.1264 175.448 47.2672 175.098C47.5665 174.397 47.8423 173.681 48.1883 172.992C48.8299 171.593 49.5976 170.243 50.403 168.906C48.7621 171.294 47.3172 173.865 46.1902 176.584C45.1116 179.312 44.3393 182.222 44.4075 185.129C44.4581 186.57 44.6742 188.005 45.1756 189.336C45.6892 190.66 46.4295 191.883 47.3529 192.977L48.1062 193.747C48.2364 193.874 48.3491 194.009 48.4899 194.131L48.914 194.495C49.2026 194.734 49.4756 194.987 49.7692 195.216L50.6691 195.888C50.961 196.12 51.2841 196.322 51.5966 196.529C51.9144 196.733 52.2219 196.95 52.543 197.148C53.2042 197.521 53.8365 197.937 54.5269 198.275C59.9321 201.132 66.0224 202.855 72.1529 204.141C78.3027 205.414 84.5525 206.226 90.7478 206.825C97.4642 207.465 104.14 207.832 110.804 208.018C117.462 208.122 124.156 208.516 130.804 207.176C134.067 206.553 137.273 205.495 140.315 203.995C141.819 203.214 143.279 202.331 144.667 201.33C146.039 200.314 147.337 199.184 148.55 197.962C150.969 195.516 152.996 192.703 154.761 189.773C156.528 186.84 158.048 183.787 159.527 180.755C159.941 179.902 160.353 179.052 160.764 178.206C160.968 177.785 161.173 177.363 161.376 176.946C161.578 176.51 161.773 176.071 161.972 175.634C162.796 173.899 163.448 172.137 164.122 170.393C165.38 166.891 166.452 163.403 167.385 159.938C168.308 156.468 169.125 153.027 169.828 149.604C170.547 146.184 171.164 142.777 171.717 139.385C172.202 136.421 172.593 133.377 172.751 131.005C172.854 129.403 172.718 129.423 172.37 131.882L172.375 131.88Z" fill="#020202"/>
<path d="M162.35 100.242C162.35 100.242 162.78 84.7027 166.53 68.0105C170.277 51.3165 187.211 35.3897 196.143 39.0886C205.076 42.7928 195.201 66.6945 186.972 75.7183C178.744 84.7421 170.145 107.115 170.145 107.115L168.668 106.428C168.668 106.428 175.987 88.2656 179.711 82.1769C183.436 76.0882 187.265 73.3954 189.43 69.7103C191.591 66.0236 202.115 44.0994 195.387 41.1967C188.663 38.2957 175.29 51.633 171.245 62.2679C167.2 72.9028 164.629 100.64 164.629 100.64L162.348 100.237L162.35 100.242Z" fill="#F5E7EE"/>
<path d="M163.193 97.794C163.146 92.6875 163.419 87.5154 163.985 82.243C164.286 79.609 164.635 76.9399 165.115 74.253C165.332 72.9057 165.621 71.5565 165.884 70.1955C166.036 69.5181 166.187 68.8353 166.337 68.1525C166.412 67.8111 166.493 67.4678 166.568 67.1265C166.657 66.7829 166.75 66.4411 166.841 66.0939C167.556 63.4202 168.621 60.8737 169.874 58.45C171.126 56.021 172.613 53.7366 174.258 51.5954C175.897 49.4472 177.714 47.4559 179.677 45.6506C180.16 45.188 180.676 44.7671 181.174 44.3289C181.696 43.9149 182.199 43.4837 182.738 43.0995C183.791 42.298 184.898 41.5785 186.029 40.9312C187.179 40.2709 188.382 39.7141 189.61 39.3004C190.837 38.8903 192.103 38.6249 193.331 38.6269L193.792 38.6268L194.243 38.6785C194.391 38.6993 194.541 38.7077 194.688 38.7321L195.118 38.8358C195.41 38.8883 195.674 39.0108 195.944 39.11L196.146 39.1863L196.327 39.279C196.449 39.3361 196.562 39.4148 196.675 39.4845C197.575 40.0694 198.142 41.024 198.45 42.1384C198.751 43.2583 198.808 44.5057 198.727 45.7587C198.647 47.0169 198.438 48.2894 198.156 49.5584C197.582 52.0969 196.716 54.6042 195.705 57.0746C193.845 61.5579 191.516 65.967 188.728 69.9835C188.029 70.985 187.295 71.952 186.526 72.8594C186.334 73.085 186.137 73.3088 185.939 73.5274L185.291 74.2984L184.64 75.0765C184.419 75.333 184.205 75.5965 184.019 75.8645L182.849 77.474C182.463 78.0122 182.126 78.5686 181.766 79.1149C181.032 80.2044 180.409 81.3371 179.743 82.4497C177.553 86.3024 175.695 90.2349 174.006 94.154C172.323 98.08 170.818 101.98 169.496 105.885L171.002 105.281C170.495 105.076 169.994 104.87 169.491 104.667L170.015 105.987C170.689 104.064 171.356 102.164 172.012 100.29C172.717 98.2984 173.35 96.3607 173.893 94.6527C173.941 94.4826 174.668 92.0768 174.258 93.0545C172.511 97.231 170.836 101.441 169.22 105.665L169.13 105.444L170.62 106.102L170.341 106.212C171.407 103.312 172.56 100.452 173.762 97.6108C174.97 94.7726 176.222 91.9457 177.583 89.1691C178.943 86.3925 180.368 83.6372 181.965 80.966C182.783 79.6397 183.598 78.3117 184.526 77.041C184.757 76.7238 184.971 76.3946 185.213 76.0824L185.96 75.156L186.705 74.2332C186.949 73.9529 187.188 73.6657 187.42 73.3752C188.574 71.6097 189.562 69.7369 190.455 67.824C189.878 68.943 189.218 70.0803 188.476 71.2056C188.105 71.7682 187.71 72.3244 187.294 72.8705C187.087 73.1462 186.871 73.4132 186.656 73.6767C186.443 73.9277 186.204 74.2238 185.967 74.5251C185.729 74.8212 185.494 75.119 185.255 75.4151C185.017 75.7112 184.775 76.0056 184.563 76.3187C184.128 76.9346 183.691 77.5541 183.253 78.1736C182.845 78.8066 182.442 79.4376 182.036 80.0669C181.618 80.6912 181.267 81.3421 180.882 81.9727C179.285 84.6829 177.798 87.4488 176.408 90.2599C175.015 93.0694 173.689 95.9055 172.431 98.7646C171.396 101.115 170.407 103.469 169.461 105.874L171.018 105.245L169.541 104.559L170.127 106.03C171.959 101.547 173.852 97.0754 175.827 92.6546C176.818 90.446 177.827 88.2457 178.891 86.0883C179.427 85.0113 179.971 83.9429 180.549 82.9163C181.12 81.8951 181.76 80.897 182.43 79.9265C183.313 78.6606 184.268 77.446 185.286 76.2652C186.299 75.0775 187.372 73.9219 188.428 72.6797C188.956 72.063 189.469 71.413 189.954 70.7282C190.439 70.0523 190.886 69.2887 191.256 68.5768C192.012 67.1385 192.692 65.6951 193.349 64.2328C194.654 61.312 195.835 58.3431 196.824 55.2977C197.316 53.7759 197.756 52.2343 198.109 50.6612C198.457 49.0901 198.731 47.489 198.781 45.8407C198.804 45.0246 198.77 44.1994 198.613 43.3651C198.458 42.5361 198.164 41.6772 197.593 40.9394C197.307 40.5706 196.945 40.2535 196.541 40.0176C196.131 39.7658 195.708 39.6566 195.294 39.5257C194.446 39.3285 193.595 39.3357 192.788 39.4465C191.172 39.702 189.715 40.3422 188.387 41.1121C187.053 41.884 185.829 42.7897 184.675 43.7591C182.378 45.7067 180.358 47.9097 178.553 50.2436C176.758 52.5861 175.17 55.0687 173.879 57.6764C173.163 59.1421 172.526 60.6447 172.066 62.2206C171.585 63.7865 171.208 65.41 170.857 67.054C170.161 70.3491 169.61 73.7468 169.049 77.2229C168.491 80.683 167.921 84.273 167.337 87.5419C166.9 89.9771 166.161 93.5896 165.941 92.1175C165.855 91.5833 165.65 95.9469 165.652 96.1405C165.618 97.3584 165.565 99.0707 165.527 100.475C164.608 100.403 163.733 100.338 163.233 100.355C162.447 100.374 162.333 100.497 162.908 100.715C163.47 100.933 164.712 101.256 166.413 101.64C166.569 100.596 166.735 99.3302 166.916 97.9573C167.031 97.2186 167.148 96.4373 167.268 95.6701C167.487 94.1486 167.698 92.6629 167.851 91.5964C168.707 85.4171 169.42 79.128 170.3 73.2625C170.407 72.4938 170.53 71.7372 170.659 70.9875C170.789 70.2342 170.891 69.4764 171.042 68.7368C171.185 67.9938 171.324 67.2491 171.466 66.5098C171.634 65.7785 171.797 65.0492 171.964 64.3216C172.341 62.8865 172.725 61.4636 173.293 60.0997C173.848 58.7254 174.515 57.3766 175.26 56.0558C176.807 53.3221 178.683 50.7109 180.829 48.2948C182.982 45.891 185.393 43.633 188.199 41.9132C189.621 41.0731 191.152 40.3403 192.806 40.0892C193.628 39.9726 194.48 39.9832 195.29 40.2151C195.692 40.3321 196.091 40.4865 196.428 40.7438C196.768 40.9939 197.054 41.3148 197.275 41.6801C197.719 42.407 197.912 43.2581 198.01 44.0958C198.098 44.9373 198.088 45.7903 198.018 46.6326C197.874 48.3207 197.531 49.9859 197.112 51.6247C196.257 54.9027 195.087 58.0917 193.787 61.2202C193.131 62.7837 192.437 64.3341 191.703 65.8659C190.957 67.3875 190.227 68.9388 189.214 70.3451C188.205 71.7406 187.047 72.9962 185.92 74.2581C184.79 75.5184 183.691 76.7973 182.676 78.1414C181.66 79.4855 180.712 80.8829 179.884 82.3446C179.054 83.8098 178.291 85.3194 177.557 86.8424C174.629 92.9467 171.986 99.1924 169.422 105.44L169.314 105.7L169.173 105.342C169.664 105.57 170.155 105.798 170.65 106.028L170.274 106.177C172.774 99.8781 175.588 93.6419 178.608 87.6807C180.122 84.7045 181.691 81.7925 183.422 79.0396C183.828 78.3356 184.312 77.6811 184.753 77.0064C185.185 76.3231 185.689 75.6911 186.177 75.0471C186.666 74.3817 187.143 73.8109 187.582 73.1966C188.023 72.5877 188.436 71.9617 188.831 71.3309C189.795 69.775 190.629 68.1586 191.248 66.7222C191.299 66.632 192.052 64.7372 191.589 65.6115C190.711 67.2557 189.767 68.8608 188.742 70.3971C188.227 71.1644 187.691 71.9127 187.13 72.628C186.849 72.9874 186.562 73.3399 186.268 73.6802L185.325 74.8393C182.82 77.9811 180.869 81.3583 179.037 84.7821C177.221 88.2089 175.579 91.7038 174.035 95.2352C172.49 98.7701 171.048 102.327 169.706 105.952L170.906 105.468L169.415 104.811L169.847 105.904L171.496 101.656C172.215 99.2377 172.954 96.8245 173.718 94.4141C172.372 98.1071 170.987 101.909 169.571 105.789L169.288 105.075C169.787 105.286 170.287 105.496 170.79 105.708L169.953 106.045C171.212 102.456 172.631 98.8711 174.192 95.2948C175.754 91.7239 177.461 88.1632 179.378 84.691C181.312 81.2272 183.412 77.814 186.079 74.7477L186.575 74.1728L187.05 73.6499C187.364 73.2967 187.672 72.9366 187.968 72.5625C188.566 71.8249 189.145 71.0612 189.696 70.2804C190.799 68.7189 191.824 67.0992 192.781 65.4475C194.134 63.101 195.363 60.6922 196.432 58.222C197.504 55.7535 198.428 53.2251 199.093 50.6326C199.424 49.3338 199.683 48.0191 199.828 46.6863C199.968 45.3553 200 44.0007 199.775 42.6708C199.55 41.3498 199.032 40.0155 198.02 39.0464C197.516 38.5715 196.906 38.1831 196.247 37.9558L195.757 37.772C195.592 37.7214 195.418 37.6888 195.248 37.6491C195.076 37.6129 194.905 37.5642 194.734 37.537L194.21 37.4819C192.835 37.3506 191.445 37.5448 190.124 37.9113C188.798 38.2796 187.521 38.8066 186.301 39.4385C185.086 40.0775 183.915 40.8022 182.79 41.5968C181.68 42.407 180.588 43.2469 179.565 44.172C175.45 47.8391 171.973 52.2706 169.321 57.2214C168.589 58.6271 167.909 60.0439 167.353 61.5052C167.052 62.2276 166.822 62.9694 166.564 63.703C166.35 64.4479 166.105 65.183 165.939 65.9373C165.849 66.311 165.752 66.6903 165.674 67.0567C165.599 67.4247 165.527 67.7891 165.449 68.1554C165.303 68.8842 165.149 69.6133 165.018 70.34C164.763 71.7966 164.505 73.2392 164.303 74.6855C163.874 77.5664 163.556 80.4248 163.321 83.256C163.086 86.0872 162.935 88.8966 162.868 91.6877C162.807 94.1269 162.848 96.6184 163.006 98.5382C163.125 99.8319 163.216 99.7956 163.184 97.7854L163.193 97.794Z" fill="#020202"/>
<path d="M170.238 80.9923C170.18 74.7083 165.945 69.6164 165.945 69.6164C165.945 69.6164 170.283 63.3227 174.866 57.6761C179.448 52.0295 175.149 51.7433 171.612 51.0669C168.075 50.3904 169.497 50.7141 161.379 48.8371C153.261 46.9602 154.878 51.912 155.619 53.9846C156.36 56.0573 159.468 68.5759 159.468 68.5759C159.468 68.5759 157.15 68.6675 152.976 73.4271C151.105 75.5638 149.822 78.6172 148.98 81.3371C147.375 86.5206 147.599 92.1072 149.665 97.1321C150.201 98.4357 150.627 99.2769 150.627 99.2769C150.627 99.2769 145.638 105.071 140.481 110.197C135.324 115.323 139.565 116.064 143.014 117.11C146.463 118.157 145.079 117.685 152.955 120.412C160.832 123.139 159.75 118.047 159.233 115.908C158.713 113.767 156.962 100.995 156.962 100.995C156.962 100.995 159.278 101.152 163.936 96.8622C168.595 92.5727 170.256 82.8253 170.238 80.9835L170.238 80.9923Z" fill="#E94E1B"/>
<mask id="mask0_508_33828" style="mask-type:luminance" maskUnits="userSpaceOnUse" x="138" y="48" width="39" height="74">
<path d="M170.238 80.9923C170.18 74.7083 165.945 69.6164 165.945 69.6164C165.945 69.6164 170.283 63.3227 174.866 57.6761C179.448 52.0295 175.149 51.7433 171.612 51.0669C168.075 50.3904 169.497 50.7141 161.379 48.8371C153.261 46.9602 154.878 51.912 155.619 53.9846C156.364 56.059 159.468 68.5759 159.468 68.5759C159.468 68.5759 157.15 68.6675 152.976 73.4271C151.105 75.5638 149.822 78.6172 148.98 81.3371C147.375 86.5206 147.599 92.1072 149.665 97.1321C150.201 98.4357 150.627 99.2769 150.627 99.2769C150.627 99.2769 145.638 105.071 140.481 110.197C135.324 115.323 139.565 116.064 143.014 117.11C146.463 118.157 145.079 117.685 152.955 120.412C160.832 123.139 159.75 118.047 159.233 115.908C158.716 113.769 156.962 100.995 156.962 100.995C156.962 100.995 159.278 101.152 163.936 96.8622C168.595 92.5727 170.256 82.8253 170.238 80.9835L170.238 80.9923Z" fill="white"/>
</mask>
<g mask="url(#mask0_508_33828)">
<path d="M180.975 120.059L180.912 125.534C180.912 125.534 165.996 117.108 151.893 116.808C137.789 116.508 122.686 124.705 122.686 124.705L122.748 119.229C122.748 119.229 136.081 110.363 151.955 111.332C171.507 112.523 180.975 120.059 180.975 120.059Z" fill="#F5ADA4"/>
<path d="M183.051 110.25L182.989 115.726C182.989 115.726 168.072 107.299 153.969 106.999C139.693 106.694 124.762 114.896 124.762 114.896L124.824 109.421C124.824 109.421 138.158 100.555 154.031 101.524C173.584 102.714 183.051 110.25 183.051 110.25Z" fill="#F5ADA4"/>
<path d="M185.127 100.442L185.065 105.918C185.065 105.918 170.148 97.4907 156.045 97.1909C141.769 96.8853 126.838 105.088 126.838 105.088L126.901 99.6125C126.901 99.6125 140.234 90.7463 156.108 91.7155C175.66 92.906 185.127 100.442 185.127 100.442Z" fill="#F5ADA4"/>
<path d="M187.207 90.6354L187.145 96.1109C187.145 96.1109 172.228 87.684 158.125 87.3843C144.022 87.0846 128.918 95.2813 128.918 95.2813L128.981 89.8058C128.981 89.8058 142.314 80.9396 158.188 81.9088C177.74 83.0994 187.207 90.6354 187.207 90.6354Z" fill="#F5ADA4"/>
<path d="M189.282 80.8268L189.219 86.3023C189.219 86.3023 174.302 77.8754 160.199 77.5757C145.923 77.2701 130.992 85.4727 130.992 85.4727L131.055 79.9972C131.055 79.9972 144.388 71.131 160.262 72.1003C179.814 73.2908 189.282 80.8268 189.282 80.8268Z" fill="#F5ADA4"/>
<path d="M191.358 71.0185L191.295 76.494C191.295 76.494 176.379 68.0671 162.275 67.7674C147.999 67.4617 133.068 75.6643 133.068 75.6643L133.131 70.1889C133.131 70.1889 146.464 61.3227 162.338 62.2919C181.89 63.4825 191.358 71.0185 191.358 71.0185Z" fill="#F5ADA4"/>
<path d="M193.434 61.2101L193.371 66.6856C193.371 66.6856 178.455 58.2587 164.352 57.959C150.076 57.6534 135.145 65.856 135.145 65.856L135.207 60.3805C135.207 60.3805 148.54 51.5143 164.414 52.4836C183.966 53.6741 193.434 61.2101 193.434 61.2101Z" fill="#F5ADA4"/>
</g>
<path d="M175.188 106.583C180.179 102.767 181.691 96.3376 181.691 96.3376C181.691 96.3376 189.351 96.0151 196.64 96.2731C203.929 96.5311 201.557 92.9394 199.959 89.7158C198.36 86.4922 198.963 87.8224 195.552 80.2297C192.144 72.6387 189.16 76.8968 187.951 78.7331C186.742 80.5693 178.607 90.5552 178.607 90.5552C178.607 90.5552 177.134 88.7637 170.802 88.2984C167.961 88.0898 164.741 88.9042 162.058 89.8673C156.942 91.6999 152.609 95.2308 149.837 99.8936C149.117 101.104 148.702 101.948 148.702 101.948C148.702 101.948 141.048 101.455 133.829 100.424C126.609 99.393 128.583 103.216 129.827 106.589C131.07 109.963 130.615 108.579 133.195 116.486C135.776 124.392 139.197 120.478 140.597 118.778C141.996 117.083 151.156 108.019 151.156 108.019C151.156 108.019 152.431 109.955 158.68 111.09C164.928 112.226 173.729 107.699 175.195 106.577L175.188 106.583Z" fill="#E94E1B"/>
<mask id="mask1_508_33828" style="mask-type:luminance" maskUnits="userSpaceOnUse" x="128" y="75" width="74" height="47">
<path d="M175.188 106.583C180.179 102.767 181.691 96.3376 181.691 96.3376C181.691 96.3376 189.351 96.0151 196.64 96.2731C203.929 96.5311 201.557 92.9394 199.959 89.7158C198.36 86.4922 198.963 87.8224 195.552 80.2297C192.144 72.6387 189.16 76.8968 187.951 78.7331C186.742 80.5693 178.607 90.5552 178.607 90.5552C178.607 90.5552 177.134 88.7637 170.802 88.2984C167.961 88.0898 164.741 88.9042 162.058 89.8673C156.942 91.6999 152.609 95.2308 149.837 99.8936C149.117 101.104 148.702 101.948 148.702 101.948C148.702 101.948 141.048 101.455 133.829 100.424C126.609 99.393 128.583 103.216 129.827 106.589C131.07 109.963 130.615 108.579 133.195 116.486C135.776 124.392 139.197 120.478 140.597 118.778C141.996 117.083 151.156 108.019 151.156 108.019C151.156 108.019 152.431 109.955 158.68 111.09C164.928 112.226 173.729 107.699 175.195 106.577L175.188 106.583Z" fill="white"/>
</mask>
<g mask="url(#mask1_508_33828)">
<path d="M150.422 138.58L146.003 141.816C146.003 141.816 143.725 124.883 135.439 113.472C127.05 101.922 111.455 94.9559 111.455 94.9559L115.875 91.7193C115.875 91.7193 131.03 97.0146 139.858 110.235C150.73 126.519 150.422 138.58 150.422 138.58Z" fill="#E8E66B"/>
<path d="M159.526 134.346L155.106 137.583C155.106 137.583 152.828 120.65 144.542 109.239C136.154 97.6885 120.558 90.7228 120.558 90.7228L124.978 87.4861C124.978 87.4861 140.133 92.7815 148.962 106.002C159.833 122.285 159.526 134.346 159.526 134.346Z" fill="#E8E66B"/>
<path d="M168.629 130.113L164.21 133.35C164.21 133.35 161.932 116.417 153.646 105.006C145.257 93.4556 129.662 86.4898 129.662 86.4898L134.082 83.2532C134.082 83.2532 149.237 88.5485 158.066 101.769C168.937 118.053 168.629 130.113 168.629 130.113Z" fill="#E8E66B"/>
<path d="M177.733 125.88L173.313 129.117C173.313 129.117 171.035 112.184 162.749 100.773C154.361 89.2225 138.765 82.2567 138.765 82.2567L143.185 79.0201C143.185 79.0201 158.34 84.3154 167.169 97.5362C178.04 113.819 177.733 125.88 177.733 125.88Z" fill="#E8E66B"/>
<path d="M186.837 121.647L182.417 124.884C182.417 124.884 180.139 107.951 171.853 96.5399C163.464 84.9896 147.869 78.0238 147.869 78.0238L152.289 74.7872C152.289 74.7872 167.444 80.0825 176.273 93.3033C187.144 109.586 186.837 121.647 186.837 121.647Z" fill="#E8E66B"/>
<path d="M195.936 117.413L191.516 120.649C191.516 120.649 189.239 103.716 180.952 92.3053C172.564 80.7549 156.968 73.7892 156.968 73.7892L161.388 70.5525C161.388 70.5525 176.543 75.8479 185.372 89.0687C196.243 105.352 195.936 117.413 195.936 117.413Z" fill="#E8E66B"/>
<path d="M205.038 113.18L200.618 116.416C200.618 116.416 198.34 99.4832 190.054 88.0722C181.665 76.5218 166.07 69.556 166.07 69.556L170.49 66.3194C170.49 66.3194 185.645 71.6147 194.474 84.8356C205.345 101.119 205.038 113.18 205.038 113.18Z" fill="#E8E66B"/>
</g>
<path d="M178.511 119.478C178.511 119.478 184.202 118.324 182.054 111.852C179.905 105.379 171.343 108.599 171.343 108.599C171.343 108.599 171.791 103.286 165.468 98.558C159.144 93.8304 151.874 99.5538 151.874 99.5538L151.891 99.5924C150.928 97.4299 149.235 95.0811 146.296 93.0026C138.028 87.1483 129.97 95.8051 129.97 95.8051C129.97 95.8051 129.918 92.5428 122.041 90.6682C114.163 88.7935 112.306 93.5184 112.306 93.5184C112.306 93.5184 109.803 90.4562 104.975 94.5798C101.91 97.1986 103.64 100.961 105.313 103.361L104.631 103.044C104.631 103.044 100.937 100.86 104.099 112.157C107.259 123.457 116.793 114.033 116.793 114.033C116.793 114.033 112.362 118.827 119.345 124.714C127.357 131.469 131.736 120.976 131.736 120.976C131.736 120.976 135.005 129.868 140.332 131.673C145.659 133.479 149.393 127.617 149.393 127.617C149.393 127.617 148.314 134.043 158.514 137.666C168.715 141.29 168.179 132.574 168.179 132.574L167.879 132.435L167.919 132.405C168.007 132.463 168.09 132.519 168.179 132.574C170.496 133.987 173.541 134.693 177.294 133.212C186.907 129.413 178.518 119.481 178.518 119.481L178.511 119.478Z" fill="#F5E7EE"/>
<path d="M107.312 103.515C106.384 102.62 105.534 101.612 104.906 100.507C104.276 99.4047 103.89 98.1751 104.116 96.9804C104.226 96.384 104.506 95.8096 104.918 95.301L105.249 94.9295L105.633 94.5744L106.023 94.2173C106.155 94.1036 106.298 94.0037 106.437 93.8934C106.578 93.7882 106.714 93.6762 106.86 93.578L107.308 93.3047L107.535 93.1652L107.772 93.0522C107.932 92.9821 108.09 92.8978 108.255 92.8347C108.916 92.5858 109.633 92.4596 110.357 92.5465C110.756 92.6049 111.158 92.7041 111.523 92.9002C111.804 93.0436 112.062 93.216 112.271 93.427L112.291 93.4496C112.291 93.4496 112.3 93.4316 112.303 93.4244L112.33 93.3668L112.382 93.2553L112.494 93.0408C112.579 92.9052 112.655 92.761 112.748 92.6377C112.835 92.5163 112.91 92.4023 113.016 92.2857C113.12 92.1674 113.217 92.0421 113.337 91.9358C113.453 91.8279 113.56 91.7112 113.685 91.6119L114.059 91.3174C114.583 90.9567 115.148 90.6464 115.755 90.4469C116.967 90.0212 118.267 89.9165 119.543 89.9795L120.498 90.0689C120.816 90.094 121.126 90.1726 121.441 90.2227C122.076 90.3208 122.681 90.4927 123.299 90.6482C124.522 90.9933 125.731 91.4063 126.878 92.0004C127.419 92.2912 127.954 92.6053 128.444 92.9952C128.565 93.095 128.692 93.1892 128.808 93.2909L129.152 93.6173C129.269 93.7243 129.366 93.8566 129.471 93.971L129.548 94.0595C129.548 94.0595 129.583 94.0977 129.571 94.0874L129.595 94.1205L129.693 94.2581C129.855 94.4953 129.99 94.7546 130.055 95.0389C130.086 95.0967 130.055 95.2752 130.135 95.1504L130.312 94.9786C130.431 94.8634 130.552 94.7535 130.679 94.6417L130.971 94.3921C131.071 94.3076 131.155 94.2414 131.306 94.1236C131.576 93.9119 131.853 93.7036 132.133 93.5059C132.695 93.1104 133.282 92.7444 133.885 92.4117C135.095 91.7534 136.39 91.226 137.754 90.9454C139.109 90.6473 140.529 90.6157 141.894 90.8646C143.257 91.1259 144.567 91.6516 145.715 92.4038C145.995 92.604 146.293 92.7772 146.556 92.9956L147.35 93.6402C147.898 94.0481 148.352 94.5652 148.843 95.0297C149.097 95.2573 149.289 95.5434 149.514 95.7967C149.724 96.0646 149.964 96.3032 150.151 96.5913L150.723 97.4302C150.922 97.702 151.061 98.0162 151.228 98.3083C152.525 100.67 153.106 103.408 152.852 106.033C152.774 106.732 152.987 106.953 153.306 106.843C153.621 106.723 153.988 106.207 154.027 105.529C154.153 102.704 153.449 99.8343 152.003 97.3598C151.84 97.0391 151.632 96.7499 151.431 96.4551C151.222 96.1659 151.039 95.8529 150.809 95.5802C150.344 95.0403 149.917 94.4568 149.392 93.9808L148.628 93.2323C148.365 92.9961 148.082 92.7817 147.81 92.5546C147.531 92.333 147.264 92.104 146.976 91.8915C146.671 91.6884 146.378 91.469 146.057 91.2806C144.793 90.5138 143.358 89.9524 141.857 89.7055C140.356 89.4674 138.809 89.5362 137.359 89.8689C135.903 90.1946 134.534 90.7578 133.268 91.4514C132.636 91.8008 132.028 92.1834 131.444 92.599C131.151 92.8042 130.862 93.02 130.583 93.2408L130.479 93.3235C130.479 93.3235 130.432 93.3586 130.453 93.342C130.453 93.342 130.453 93.342 130.449 93.3403L130.453 93.3331L130.501 93.3905L130.486 93.3749L130.436 93.3123L130.331 93.189C130.192 93.024 130.048 92.8609 129.896 92.7247C129.601 92.4254 129.287 92.1835 128.972 91.9362C128.335 91.4828 127.678 91.0903 127.012 90.7762C126.404 90.4765 125.787 90.2464 125.172 90.0091C124.554 89.8181 123.933 89.5951 123.311 89.4504L122.376 89.213L121.401 89.0316L120.916 88.9418C120.752 88.9179 120.582 88.9047 120.414 88.888C120.078 88.8545 119.748 88.8191 119.411 88.7981C118.056 88.7462 116.646 88.8787 115.282 89.3654C114.938 89.4636 114.614 89.6501 114.284 89.7941C113.965 89.9698 113.647 90.1543 113.347 90.3739L112.908 90.7128C112.768 90.8356 112.638 90.9635 112.5 91.0917C112.363 91.2162 112.246 91.3633 112.12 91.5017L112.074 91.5545L112.053 91.58L112.077 91.5562L112.071 91.5706L112.056 91.603C112.034 91.6498 112.008 91.7251 111.983 91.7791C111.946 91.7534 111.896 91.7299 111.835 91.7103L111.788 91.6973L111.615 91.6346C111.44 91.5753 111.267 91.5037 111.086 91.4677C110.731 91.3726 110.369 91.3398 110.012 91.314C109.03 91.291 108.122 91.5432 107.346 91.9179L107.051 92.052L106.775 92.2124L106.234 92.5345C105.901 92.778 105.568 93.0127 105.259 93.2717C104.961 93.5445 104.668 93.7888 104.372 94.0847C104.075 94.3841 103.805 94.7184 103.576 95.0799C103.117 95.8031 102.856 96.6488 102.818 97.467C102.777 98.2925 102.952 99.0783 103.207 99.7962C103.469 100.518 103.824 101.181 104.231 101.799C105.046 103.031 106.039 104.1 107.103 105.032C107.589 105.451 107.817 105.207 107.852 104.838C107.876 104.455 107.704 103.89 107.319 103.518L107.312 103.515Z" fill="#020202"/>
<path d="M154.118 99.896C155.24 99.0784 156.5 98.3992 157.846 97.9699C159.192 97.5406 160.641 97.3785 162.075 97.629C162.791 97.7516 163.498 97.9793 164.181 98.2965C164.347 98.3825 164.519 98.4578 164.685 98.5528L165.175 98.8415C165.498 99.053 165.813 99.2824 166.135 99.5064C167.39 100.435 168.545 101.541 169.48 102.846C169.96 103.533 170.397 104.265 170.722 105.051C170.812 105.245 170.887 105.442 170.955 105.645C171.029 105.845 171.103 106.046 171.155 106.254C171.213 106.46 171.277 106.665 171.319 106.877C171.365 107.069 171.401 107.256 171.43 107.44C171.48 107.739 171.507 108.032 171.505 108.32C171.508 108.33 171.492 108.375 171.518 108.357L171.573 108.334L171.685 108.29L171.911 108.211C172.057 108.161 172.207 108.112 172.355 108.067C172.579 108.001 172.795 107.943 173.025 107.884C173.286 107.822 173.55 107.765 173.814 107.717C174.341 107.62 174.879 107.551 175.425 107.52C176.506 107.462 177.623 107.543 178.688 107.898C179.742 108.257 180.741 108.914 181.417 109.831C181.767 110.278 182.033 110.783 182.245 111.301L182.397 111.691C182.442 111.822 182.473 111.954 182.511 112.09L182.729 112.887C182.793 113.249 182.84 113.612 182.894 113.979C182.898 114.348 182.918 114.721 182.89 115.093C182.816 115.837 182.611 116.582 182.228 117.244C181.837 117.898 181.302 118.455 180.686 118.882C180.531 118.989 180.368 119.102 180.251 119.157C180.121 119.228 179.995 119.3 179.876 119.35C179.633 119.465 179.378 119.552 179.114 119.618C179.104 119.621 179.065 119.621 179.081 119.633L179.111 119.673L179.172 119.749L179.296 119.908L179.532 120.232L179.759 120.565L180.009 120.952C180.391 121.558 180.739 122.188 181.046 122.834C181.656 124.128 182.122 125.526 182.188 126.992C182.264 128.445 181.831 129.972 180.853 131.076C179.891 132.182 178.597 132.907 177.269 133.392C175.935 133.88 174.516 134.165 173.097 134.11C171.68 134.069 170.283 133.682 169.04 133.03C166.551 131.703 164.667 129.493 163.342 127.088C162.972 126.4 162.659 126.329 162.475 126.62C162.297 126.909 162.304 127.573 162.678 128.197C163.419 129.438 164.289 130.608 165.337 131.651C166.377 132.694 167.596 133.615 168.99 134.263C170.382 134.914 171.947 135.261 173.507 135.25C175.068 135.236 176.589 134.892 177.993 134.328C178.346 134.173 178.702 134.05 179.049 133.852L179.568 133.577C179.739 133.472 179.905 133.361 180.074 133.252C180.415 133.047 180.727 132.763 181.047 132.509C181.348 132.212 181.655 131.93 181.911 131.576C182.439 130.903 182.857 130.108 183.09 129.266C183.317 128.427 183.379 127.567 183.327 126.751C183.214 125.106 182.7 123.62 182.052 122.265C181.727 121.584 181.362 120.933 180.966 120.303C180.824 120.079 180.872 120.154 180.863 120.137L180.866 120.129C180.866 120.129 180.858 120.117 180.862 120.119L180.88 120.118C180.88 120.118 180.943 120.087 180.985 120.062C181.004 120.049 180.994 120.062 181.039 120.031L181.186 119.932L181.479 119.736C182.244 119.186 182.925 118.43 183.377 117.551C183.624 117.114 183.759 116.643 183.898 116.174C183.955 115.938 183.98 115.704 184.016 115.467C184.052 115.23 184.085 114.996 184.073 114.767C184.075 114.309 184.081 113.843 183.993 113.417L183.897 112.765C183.857 112.549 183.79 112.352 183.741 112.145C183.489 111.035 182.953 109.797 182.091 108.797C181.225 107.786 180.03 107.06 178.825 106.715C177.615 106.35 176.411 106.285 175.268 106.353C174.694 106.389 174.134 106.461 173.581 106.563C173.307 106.615 173.034 106.672 172.764 106.734C172.73 106.749 172.709 106.757 172.686 106.768C172.658 106.782 172.613 106.813 172.578 106.823C172.572 106.798 172.56 106.766 172.546 106.73L172.529 106.691L172.521 106.67L172.516 106.654L172.499 106.576C172.448 106.316 172.366 106.068 172.298 105.818C172.146 105.323 171.967 104.837 171.756 104.367C171.327 103.437 170.825 102.552 170.206 101.765C169.121 100.32 167.796 99.1271 166.376 98.1567C164.975 97.1165 163.236 96.4355 161.529 96.2901C159.81 96.1344 158.139 96.4606 156.641 97.0557C155.14 97.6492 153.778 98.4911 152.592 99.4757C152.063 99.9343 152.288 100.188 152.658 100.259C153.049 100.327 153.667 100.216 154.132 99.8761L154.118 99.896Z" fill="#020202"/>
<path d="M166.433 134.441C166.301 135.189 166.029 135.868 165.574 136.374C165.345 136.631 165.074 136.846 164.756 137.03C164.435 137.21 164.063 137.33 163.671 137.428C162.869 137.602 161.964 137.593 161.051 137.48C160.134 137.364 159.198 137.148 158.281 136.844C156.418 136.298 154.616 135.479 153.028 134.321C152.267 133.709 151.507 133.058 150.932 132.244C150.341 131.445 149.863 130.575 149.601 129.504C149.553 129.35 149.486 129.192 149.465 129.029C149.374 128.611 149.345 128.182 149.378 127.733L149.387 127.619L149.317 127.722L149.173 127.939C149.072 128.081 148.976 128.22 148.872 128.351C148.671 128.621 148.46 128.877 148.247 129.119C147.093 130.43 145.472 131.707 143.578 132.087L143.226 132.165C143.109 132.189 142.986 132.189 142.867 132.199C142.626 132.209 142.383 132.25 142.14 132.233L141.412 132.175C141.168 132.162 140.935 132.076 140.699 132.027C139.745 131.821 138.859 131.356 138.074 130.795C137.285 130.235 136.581 129.567 135.943 128.851C135.305 128.134 134.73 127.368 134.205 126.569C133.679 125.773 133.197 124.949 132.755 124.105L132.469 123.548L132.237 123.064C132.085 122.739 131.941 122.415 131.809 122.086L131.726 121.886L131.686 121.784C131.674 121.8 131.657 121.845 131.644 121.874C131.467 122.255 131.269 122.623 131.05 122.981C130.942 123.158 130.826 123.332 130.706 123.504L130.491 123.806L130.229 124.144C129.515 125.028 128.687 125.847 127.679 126.438C126.687 127.04 125.496 127.384 124.315 127.325C123.127 127.294 122.004 126.864 121.01 126.301C120.011 125.728 119.124 125.01 118.32 124.216C117.494 123.443 116.781 122.547 116.184 121.574C115.609 120.589 115.226 119.457 115.152 118.32C115.146 118.182 115.129 118.03 115.131 117.904L115.154 117.56C115.16 117.331 115.212 117.105 115.257 116.877C115.292 116.648 115.386 116.429 115.446 116.204C115.541 115.99 115.62 115.764 115.738 115.556C115.851 115.333 115.982 115.118 116.129 114.915C116.195 114.819 116.291 114.697 116.35 114.628L116.09 114.866C115.734 115.178 115.36 115.472 114.965 115.757C114.163 116.329 113.355 116.811 112.213 117.274C111.132 117.691 109.943 117.952 108.778 117.757C108.197 117.675 107.637 117.454 107.146 117.139C106.889 116.993 106.673 116.796 106.452 116.61C106.248 116.406 106.041 116.2 105.866 115.971C105.153 115.057 104.69 113.985 104.347 112.898C104.008 111.804 103.764 110.684 103.522 109.569C103.294 108.453 103.095 107.323 103.021 106.195C102.985 105.631 102.975 105.066 103.045 104.517C103.076 104.243 103.138 103.978 103.232 103.738C103.33 103.499 103.471 103.289 103.657 103.191C103.822 103.102 103.987 103.086 104.127 103.077C104.271 103.07 104.389 103.072 104.481 103.053C104.662 103.024 104.766 102.923 104.695 102.724C104.624 102.547 104.412 102.247 103.849 102.165C103.572 102.128 103.193 102.197 102.881 102.415C102.566 102.628 102.351 102.93 102.221 103.229C101.911 103.973 101.891 104.602 101.865 105.225C101.855 105.841 101.892 106.432 101.956 107.013C102.084 108.175 102.296 109.297 102.54 110.408C102.794 111.515 103.042 112.597 103.437 113.761C103.836 114.896 104.385 116.048 105.297 117.054C105.731 117.566 106.314 117.995 106.939 118.342C107.576 118.681 108.288 118.868 108.987 118.943C110.399 119.07 111.708 118.729 112.855 118.255C113.147 118.137 113.424 118.003 113.702 117.87L113.881 117.787C113.948 117.756 114 117.728 114.049 117.698C114.096 117.672 114.137 117.643 114.168 117.622C114.175 117.617 114.187 117.609 114.187 117.609L114.153 117.655C114.131 117.684 114.112 117.715 114.097 117.747C114.065 117.806 114.043 117.862 114.022 117.909C114.012 117.93 114.007 117.959 114.002 117.979L113.996 118.011L114.024 118.444L114.054 118.917C114.075 119.08 114.116 119.248 114.145 119.41C114.212 119.739 114.276 120.075 114.397 120.381C114.513 120.688 114.603 121.015 114.751 121.302L115.197 122.166C115.859 123.256 116.649 124.231 117.526 125.055C118.383 125.895 119.335 126.674 120.444 127.312C121.549 127.939 122.848 128.442 124.268 128.485C125.679 128.558 127.121 128.139 128.263 127.44C129.43 126.752 130.346 125.839 131.127 124.876L131.412 124.509L131.548 124.319C131.548 124.319 131.543 124.312 131.552 124.321L131.635 124.482L131.971 125.12C132.431 125.963 132.928 126.794 133.481 127.598C134.587 129.197 135.893 130.744 137.648 131.94C138.093 132.23 138.553 132.505 139.062 132.724C139.304 132.845 139.577 132.928 139.835 133.026C140.103 133.102 140.373 133.163 140.644 133.232L141.048 133.327L141.468 133.369C141.748 133.39 142.029 133.428 142.308 133.423L143.147 133.366C143.426 133.351 143.694 133.266 143.967 133.217C145.042 132.964 146.034 132.502 146.889 131.919C147.312 131.622 147.72 131.312 148.094 130.97L148.235 130.847L148.214 130.863L148.217 130.856L148.226 130.847L148.26 130.802L148.339 130.698C148.378 130.642 148.419 130.582 148.463 130.515L148.53 130.41L148.565 130.353L148.58 130.32L148.581 130.338C148.582 130.43 148.608 130.543 148.66 130.677L148.672 130.7C148.693 130.758 148.731 130.828 148.761 130.894L149.123 131.675C149.267 131.943 149.429 132.198 149.585 132.459C149.735 132.721 149.936 132.941 150.113 133.185C150.203 133.302 150.291 133.425 150.389 133.536L150.692 133.857C150.898 134.066 151.088 134.29 151.307 134.48C151.755 134.849 152.175 135.25 152.654 135.552C154.526 136.854 156.589 137.66 158.651 138.259C159.691 138.545 160.759 138.761 161.839 138.808C162.912 138.852 164.017 138.744 164.994 138.314C165.979 137.905 166.747 137.12 167.183 136.22C167.629 135.316 167.797 134.313 167.792 133.339C167.786 132.899 167.678 132.678 167.548 132.626C167.423 132.594 167.274 132.639 167.13 132.817C166.845 133.157 166.542 133.818 166.43 134.448L166.433 134.441Z" fill="#020202"/>
<path d="M118.994 159.32C121.322 158.402 123.734 157.597 126.24 156.985C128.798 156.357 131.424 155.95 134.06 155.617C139.625 154.916 145.222 154.458 150.804 154.203C151.441 154.175 150.977 153.067 150.429 153.092C144.863 153.342 139.289 153.806 133.74 154.492C131.102 154.82 128.471 155.217 125.906 155.832C123.306 156.457 120.8 157.284 118.391 158.235C117.849 158.447 118.508 159.514 118.994 159.32Z" fill="#F6E7EE"/>
<path d="M148.453 166.163C146.328 164.83 144.241 163.357 142.252 161.703C140.223 160.011 138.328 158.134 136.491 156.208C132.611 152.139 128.907 147.898 125.38 143.55C124.975 143.052 124.362 144.079 124.708 144.507C128.224 148.84 131.918 153.064 135.775 157.127C137.608 159.059 139.498 160.948 141.522 162.65C143.574 164.378 145.736 165.907 147.935 167.288C148.433 167.598 148.9 166.441 148.455 166.16L148.453 166.163Z" fill="#F6E7EE"/>
<path d="M138.93 139.362L132.298 161.454L129.518 170.716" fill="#F5E7EE"/>
<path d="M137.275 139.595C137.197 142.061 136.98 144.56 136.557 147.067C136.123 149.627 135.457 152.157 134.723 154.665C133.166 159.962 131.374 165.19 129.397 170.323C129.173 170.91 130.372 170.938 130.567 170.433C132.535 165.318 134.319 160.108 135.88 154.83C136.623 152.323 137.3 149.789 137.75 147.232C138.206 144.635 138.437 142.047 138.517 139.494C138.533 138.919 137.297 139.085 137.281 139.602L137.275 139.595Z" fill="#F6E7EE"/>
<path d="M132.191 163.583C132.191 163.583 128.592 165.893 128.311 164.966C128.031 164.039 132.61 162.18 132.61 162.18C132.61 162.18 135.501 166.46 134.54 166.958C133.579 167.457 132.187 163.581 132.187 163.581L132.191 163.583Z" fill="#F5E7EE"/>
<path fill-rule="evenodd" clip-rule="evenodd" d="M133.025 161.9L132.611 162.18L132.423 161.717L132.798 161.565L133.025 161.9ZM131.94 164.324C131.92 164.336 131.9 164.348 131.88 164.36C131.532 164.565 131.062 164.832 130.579 165.07C130.104 165.305 129.585 165.528 129.149 165.628C128.936 165.677 128.689 165.709 128.46 165.662C128.199 165.609 127.934 165.442 127.834 165.111C127.733 164.776 127.875 164.481 128.008 164.292C128.147 164.094 128.347 163.91 128.558 163.746C128.984 163.413 129.562 163.077 130.124 162.783C130.692 162.486 131.266 162.219 131.697 162.028C131.912 161.932 132.093 161.855 132.22 161.801C132.283 161.775 132.334 161.754 132.368 161.739L132.408 161.723L132.419 161.719L132.423 161.717C132.423 161.717 132.423 161.717 132.611 162.18C133.025 161.9 133.025 161.9 133.025 161.9L133.027 161.904L133.034 161.914L133.059 161.951C133.081 161.984 133.112 162.031 133.151 162.091C133.23 162.212 133.341 162.384 133.471 162.591C133.731 163.006 134.069 163.567 134.377 164.147C134.683 164.721 134.974 165.34 135.125 165.863C135.199 166.12 135.252 166.396 135.232 166.649C135.212 166.911 135.101 167.231 134.771 167.402C134.488 167.549 134.197 167.519 133.96 167.413C133.739 167.314 133.551 167.147 133.397 166.977C133.087 166.634 132.799 166.149 132.56 165.686C132.317 165.215 132.107 164.731 131.958 164.368C131.952 164.353 131.946 164.339 131.94 164.324ZM132.801 163.786C132.826 163.848 132.853 163.916 132.883 163.99C133.026 164.338 133.224 164.792 133.449 165.227C133.678 165.671 133.918 166.062 134.139 166.305C134.169 166.339 134.197 166.368 134.223 166.392C134.212 166.323 134.193 166.239 134.164 166.14C134.043 165.72 133.792 165.176 133.495 164.617C133.322 164.292 133.138 163.972 132.965 163.681L132.801 163.786ZM132.72 163.277C132.687 163.223 132.655 163.172 132.624 163.122C132.548 163.002 132.48 162.895 132.421 162.803C132.328 162.843 132.221 162.89 132.103 162.942C132.085 162.95 132.068 162.958 132.05 162.966L132.72 163.277ZM131.522 163.207C131.227 163.346 130.905 163.503 130.588 163.669C130.041 163.955 129.527 164.257 129.173 164.534C129.138 164.562 129.105 164.588 129.074 164.614C129.372 164.526 129.744 164.367 130.136 164.174C130.588 163.95 131.035 163.697 131.371 163.499C131.448 163.453 131.518 163.411 131.582 163.372L131.522 163.207Z" fill="#F6E7EE"/>
<path d="M130.546 168.209C130.546 168.209 126.948 170.519 126.667 169.593C126.386 168.666 130.965 166.807 130.965 166.807C130.965 166.807 133.856 171.086 132.895 171.585C131.935 172.084 130.543 168.208 130.543 168.208L130.546 168.209Z" fill="#F5E7EE"/>
<path fill-rule="evenodd" clip-rule="evenodd" d="M131.38 166.527L130.966 166.807L130.778 166.344L131.154 166.191L131.38 166.527ZM130.295 168.951C130.276 168.962 130.256 168.974 130.235 168.986C129.887 169.192 129.417 169.459 128.934 169.697C128.46 169.931 127.941 170.155 127.504 170.255C127.291 170.304 127.045 170.336 126.815 170.289C126.555 170.236 126.29 170.069 126.189 169.738C126.088 169.403 126.23 169.107 126.363 168.919C126.503 168.721 126.702 168.537 126.913 168.372C127.339 168.039 127.918 167.703 128.48 167.409C129.048 167.112 129.622 166.846 130.052 166.655C130.268 166.559 130.448 166.482 130.575 166.428C130.639 166.401 130.689 166.38 130.724 166.366L130.763 166.35L130.774 166.345L130.778 166.344C130.778 166.344 130.778 166.344 130.966 166.807C131.38 166.527 131.38 166.527 131.38 166.527L131.383 166.531L131.39 166.541L131.415 166.578C131.436 166.611 131.468 166.658 131.507 166.718C131.586 166.838 131.697 167.01 131.827 167.218C132.086 167.633 132.424 168.194 132.733 168.774C133.038 169.347 133.33 169.966 133.48 170.49C133.555 170.747 133.608 171.023 133.588 171.276C133.567 171.537 133.457 171.857 133.127 172.029C132.843 172.176 132.553 172.146 132.315 172.039C132.095 171.941 131.907 171.773 131.753 171.603C131.442 171.261 131.154 170.776 130.915 170.313C130.672 169.842 130.462 169.358 130.313 168.995C130.307 168.98 130.301 168.965 130.295 168.951ZM131.157 168.412C131.181 168.475 131.209 168.543 131.239 168.616C131.381 168.964 131.579 169.419 131.804 169.854C132.033 170.298 132.273 170.688 132.494 170.932C132.525 170.966 132.553 170.994 132.578 171.018C132.567 170.95 132.548 170.866 132.52 170.767C132.399 170.347 132.148 169.803 131.85 169.244C131.677 168.919 131.494 168.598 131.32 168.307L131.157 168.412ZM131.075 167.903C131.042 167.85 131.01 167.798 130.979 167.749C130.904 167.629 130.835 167.521 130.776 167.43C130.683 167.47 130.576 167.516 130.458 167.569C130.441 167.577 130.423 167.584 130.405 167.592L131.075 167.903ZM129.878 167.834C129.582 167.972 129.261 168.129 128.943 168.295C128.396 168.582 127.882 168.884 127.529 169.16C127.493 169.188 127.46 169.215 127.43 169.241C127.727 169.153 128.099 168.994 128.491 168.8C128.943 168.577 129.39 168.324 129.726 168.126C129.803 168.08 129.874 168.038 129.937 167.999L129.878 167.834Z" fill="#F6E7EE"/>
<path d="M141.108 161.49C141.108 161.49 142.341 165.586 141.371 165.594C140.401 165.603 139.875 160.694 139.875 160.694C139.875 160.694 144.789 159.127 145.008 160.187C145.223 161.245 141.108 161.49 141.108 161.49Z" fill="#F5E7EE"/>
<path fill-rule="evenodd" clip-rule="evenodd" d="M139.875 160.694C139.378 160.748 139.378 160.748 139.378 160.748L139.378 160.752L139.379 160.763L139.384 160.806C139.388 160.843 139.395 160.897 139.403 160.965C139.42 161.102 139.444 161.297 139.477 161.53C139.542 161.997 139.64 162.621 139.769 163.248C139.897 163.87 140.061 164.518 140.264 165.02C140.365 165.268 140.486 165.511 140.638 165.699C140.783 165.879 141.027 166.097 141.375 166.094C141.721 166.091 141.957 165.885 142.081 165.648C142.19 165.44 142.226 165.194 142.238 164.976C142.262 164.53 142.19 163.969 142.095 163.449C141.998 162.92 141.871 162.395 141.769 162.004C141.763 161.981 141.757 161.959 141.752 161.938C141.767 161.936 141.783 161.934 141.799 161.933C142.189 161.892 142.713 161.827 143.233 161.726C143.745 161.627 144.291 161.488 144.707 161.287C144.913 161.187 145.126 161.054 145.283 160.871C145.452 160.672 145.561 160.4 145.497 160.087L145.497 160.086C145.422 159.723 145.145 159.529 144.9 159.436C144.663 159.347 144.384 159.32 144.115 159.319C143.57 159.316 142.894 159.422 142.258 159.553C141.614 159.686 140.981 159.852 140.511 159.985C140.275 160.051 140.079 160.109 139.942 160.15C139.873 160.171 139.819 160.188 139.781 160.2L139.739 160.213L139.727 160.217L139.723 160.218C139.723 160.218 139.723 160.218 139.875 160.694ZM140.421 161.051C140.434 161.15 140.45 161.265 140.467 161.392C140.531 161.846 140.625 162.448 140.749 163.047C140.873 163.651 141.023 164.229 141.191 164.645C141.209 164.688 141.226 164.728 141.243 164.766C141.24 164.457 141.189 164.057 141.111 163.629C141.021 163.133 140.9 162.634 140.802 162.257C140.753 162.069 140.709 161.912 140.678 161.803C140.663 161.748 140.65 161.706 140.642 161.677L140.632 161.645L140.63 161.637L140.629 161.635L140.451 161.042C140.441 161.045 140.431 161.048 140.421 161.051ZM140.509 161.025L141.078 160.991L141.08 160.991L141.088 160.991L141.12 160.988C141.149 160.987 141.191 160.984 141.245 160.979C141.354 160.971 141.51 160.957 141.696 160.938C142.07 160.899 142.562 160.837 143.044 160.744C143.534 160.65 143.976 160.529 144.271 160.387C144.31 160.368 144.343 160.35 144.372 160.334C144.302 160.325 144.216 160.319 144.111 160.319C143.673 160.317 143.08 160.405 142.46 160.533C141.848 160.659 141.239 160.819 140.781 160.947C140.683 160.975 140.591 161.001 140.509 161.025ZM139.723 160.218L139.875 160.694L139.378 160.748L139.334 160.342L139.723 160.218Z" fill="#F6E7EE"/>
<path d="M144.769 164.333C144.769 164.333 146.002 168.428 145.031 168.437C144.061 168.445 143.535 163.537 143.535 163.537C143.535 163.537 148.449 161.969 148.668 163.029C148.887 164.089 144.769 164.333 144.769 164.333Z" fill="#F5E7EE"/>
<path fill-rule="evenodd" clip-rule="evenodd" d="M143.535 163.537C143.038 163.59 143.038 163.59 143.038 163.59L143.038 163.594L143.04 163.606L143.044 163.648C143.049 163.685 143.055 163.739 143.063 163.808C143.08 163.945 143.104 164.139 143.137 164.373C143.202 164.839 143.3 165.464 143.429 166.091C143.557 166.712 143.721 167.361 143.924 167.862C144.025 168.111 144.147 168.353 144.298 168.542C144.443 168.722 144.687 168.94 145.035 168.937C145.381 168.934 145.617 168.727 145.741 168.49C145.85 168.282 145.887 168.036 145.898 167.819C145.923 167.372 145.85 166.812 145.755 166.292C145.659 165.762 145.531 165.237 145.429 164.846C145.423 164.824 145.418 164.802 145.412 164.78C145.428 164.779 145.443 164.777 145.459 164.776C145.85 164.735 146.374 164.67 146.895 164.569C147.406 164.471 147.953 164.331 148.368 164.13C148.574 164.031 148.788 163.897 148.944 163.713C149.114 163.513 149.222 163.241 149.157 162.928C149.082 162.565 148.806 162.371 148.561 162.279C148.323 162.189 148.044 162.162 147.775 162.161C147.23 162.159 146.554 162.264 145.918 162.396C145.275 162.529 144.641 162.695 144.171 162.827C143.935 162.893 143.739 162.951 143.602 162.993C143.533 163.014 143.479 163.03 143.442 163.042L143.399 163.055L143.387 163.059L143.383 163.06C143.383 163.06 143.383 163.06 143.535 163.537ZM144.082 163.893C144.094 163.993 144.11 164.108 144.127 164.234C144.191 164.688 144.285 165.29 144.409 165.889C144.533 166.494 144.683 167.071 144.851 167.487C144.869 167.531 144.886 167.571 144.903 167.608C144.9 167.299 144.85 166.9 144.771 166.471C144.681 165.976 144.561 165.477 144.462 165.099C144.413 164.911 144.369 164.755 144.338 164.646C144.323 164.591 144.31 164.548 144.302 164.52L144.292 164.487L144.29 164.479L144.289 164.477L144.111 163.885C144.101 163.888 144.091 163.89 144.082 163.893ZM144.17 163.867L144.738 163.834L144.741 163.834L144.748 163.833L144.78 163.831C144.809 163.829 144.851 163.826 144.906 163.822C145.015 163.813 145.17 163.8 145.357 163.781C145.732 163.742 146.224 163.681 146.705 163.588C147.196 163.493 147.638 163.373 147.933 163.23C147.972 163.211 148.005 163.193 148.034 163.176C147.964 163.168 147.877 163.162 147.771 163.161C147.333 163.159 146.74 163.247 146.12 163.375C145.508 163.502 144.899 163.661 144.441 163.79C144.343 163.817 144.252 163.843 144.17 163.867ZM143.383 163.06L143.535 163.537L143.038 163.59L142.994 163.184L143.383 163.06Z" fill="#F6E7EE"/>
<path d="M143.271 153.678C143.271 153.678 146.971 155.848 146.268 156.51C145.565 157.173 141.828 153.931 141.828 153.931C141.828 153.931 144.345 149.439 145.226 150.067C146.107 150.695 143.273 153.675 143.273 153.675L143.271 153.678Z" fill="#F5E7EE"/>
<path fill-rule="evenodd" clip-rule="evenodd" d="M142.47 153.819C142.548 153.884 142.638 153.958 142.738 154.039C143.094 154.329 143.575 154.706 144.074 155.062C144.578 155.421 145.082 155.743 145.49 155.934C145.528 155.952 145.565 155.968 145.599 155.983C145.386 155.76 145.079 155.504 144.734 155.247C144.329 154.944 143.9 154.66 143.57 154.45C143.405 154.345 143.267 154.259 143.169 154.2C143.121 154.171 143.082 154.148 143.057 154.132L143.027 154.115L143.02 154.111L143.019 154.11L142.626 153.88L142.854 153.39L142.91 153.33L142.912 153.329L142.917 153.323L142.939 153.3C142.959 153.279 142.988 153.248 143.024 153.208C143.098 153.128 143.202 153.012 143.325 152.871C143.571 152.588 143.888 152.208 144.175 151.812C144.468 151.409 144.708 151.02 144.826 150.715C144.842 150.674 144.854 150.638 144.864 150.605C144.807 150.646 144.74 150.701 144.663 150.772C144.342 151.069 143.969 151.537 143.605 152.052C143.244 152.561 142.908 153.092 142.662 153.498C142.59 153.618 142.525 153.726 142.47 153.819ZM144.045 153.567C144.065 153.579 144.086 153.592 144.107 153.606C144.448 153.823 144.9 154.123 145.332 154.445C145.757 154.763 146.193 155.124 146.48 155.468C146.62 155.635 146.761 155.84 146.823 156.065C146.894 156.323 146.864 156.636 146.611 156.874C146.357 157.113 146.029 157.118 145.802 157.084C145.562 157.048 145.308 156.953 145.065 156.839C144.575 156.609 144.012 156.245 143.494 155.876C142.971 155.504 142.473 155.112 142.107 154.815C141.924 154.666 141.773 154.54 141.667 154.451C141.614 154.407 141.573 154.371 141.545 154.347L141.512 154.319L141.503 154.311L141.5 154.309C141.5 154.309 141.5 154.309 141.828 153.931C141.391 153.686 141.391 153.686 141.391 153.686L141.394 153.682L141.399 153.672L141.422 153.633C141.441 153.599 141.469 153.55 141.505 153.488C141.577 153.364 141.68 153.188 141.807 152.979C142.06 152.562 142.409 152.01 142.788 151.474C143.163 150.945 143.584 150.408 143.984 150.038C144.181 149.856 144.403 149.686 144.637 149.59C144.88 149.49 145.214 149.444 145.516 149.659C145.776 149.845 145.882 150.117 145.894 150.378C145.906 150.619 145.841 150.862 145.759 151.075C145.593 151.505 145.29 151.979 144.984 152.4C144.673 152.828 144.336 153.232 144.079 153.528C144.067 153.541 144.056 153.554 144.045 153.567ZM141.828 153.931L141.5 154.309L141.192 154.042L141.391 153.686L141.828 153.931Z" fill="#F6E7EE"/>
<path d="M148.156 153.069C148.156 153.069 151.856 155.239 151.153 155.901C150.448 156.567 146.713 153.322 146.713 153.322C146.713 153.322 149.23 148.829 150.111 149.457C150.992 150.085 148.158 153.065 148.158 153.065L148.156 153.069Z" fill="#F5E7EE"/>
<path fill-rule="evenodd" clip-rule="evenodd" d="M147.355 153.21C147.432 153.275 147.522 153.349 147.623 153.431C147.979 153.721 148.459 154.098 148.958 154.454C149.463 154.813 149.966 155.135 150.374 155.326C150.414 155.345 150.451 155.362 150.487 155.377C150.274 155.153 149.966 154.896 149.619 154.637C149.214 154.335 148.785 154.051 148.455 153.84C148.29 153.736 148.151 153.65 148.054 153.591C148.005 153.561 147.967 153.539 147.941 153.523L147.912 153.506L147.905 153.502L147.903 153.501L147.511 153.271L147.739 152.78L147.795 152.721L147.797 152.72L147.802 152.714L147.824 152.691C147.843 152.67 147.872 152.639 147.909 152.599C147.982 152.518 148.087 152.403 148.21 152.262C148.456 151.979 148.773 151.599 149.06 151.203C149.353 150.8 149.593 150.411 149.711 150.106C149.726 150.065 149.739 150.029 149.749 149.996C149.692 150.037 149.625 150.092 149.548 150.163C149.227 150.46 148.854 150.927 148.489 151.443C148.129 151.952 147.793 152.483 147.547 152.889C147.474 153.009 147.41 153.117 147.355 153.21ZM148.93 152.957C148.941 152.945 148.952 152.932 148.964 152.919C149.221 152.623 149.558 152.219 149.869 151.791C150.175 151.37 150.478 150.896 150.644 150.466C150.726 150.253 150.791 150.01 150.779 149.769C150.767 149.508 150.661 149.236 150.401 149.05C150.099 148.835 149.765 148.881 149.522 148.98C149.288 149.077 149.065 149.247 148.869 149.429C148.469 149.798 148.048 150.336 147.673 150.865C147.294 151.4 146.945 151.953 146.692 152.37C146.565 152.579 146.462 152.755 146.39 152.879C146.354 152.941 146.326 152.99 146.306 153.024L146.284 153.063L146.278 153.073L146.276 153.077C146.276 153.077 146.276 153.077 146.712 153.322L146.276 153.077L146.077 153.432L146.384 153.699L146.712 153.322C146.384 153.699 146.384 153.699 146.384 153.699L146.388 153.702L146.396 153.709L146.429 153.738C146.457 153.762 146.499 153.797 146.552 153.842C146.657 153.931 146.808 154.057 146.992 154.206C147.357 154.504 147.855 154.896 148.378 155.268C148.896 155.637 149.459 156.002 149.95 156.232C150.192 156.346 150.447 156.441 150.687 156.476C150.915 156.51 151.242 156.504 151.496 156.265C151.496 156.265 151.496 156.265 151.496 156.265L151.153 155.901" fill="#F6E7EE"/>
<path d="M137.205 145.92C137.205 145.92 140.435 143.119 140.844 143.996C141.253 144.873 136.991 147.365 136.991 147.365C136.991 147.365 133.519 143.542 134.397 142.909C135.274 142.279 137.207 145.916 137.207 145.916L137.205 145.92Z" fill="#F5E7EE"/>
<path fill-rule="evenodd" clip-rule="evenodd" d="M137.532 146.298L137.069 146.699C137.076 146.707 137.082 146.714 137.088 146.721C137.175 146.669 137.274 146.607 137.383 146.538C137.771 146.294 138.281 145.962 138.777 145.604C139.277 145.243 139.742 144.87 140.052 144.547C140.083 144.514 140.112 144.484 140.138 144.454C139.856 144.584 139.512 144.794 139.153 145.041C138.738 145.326 138.333 145.641 138.029 145.885C137.877 146.007 137.752 146.111 137.665 146.184C137.622 146.22 137.588 146.249 137.565 146.269L137.54 146.291L137.533 146.296L137.532 146.298ZM136.99 147.365C137.242 147.796 137.242 147.796 137.242 147.796L137.243 147.796L137.246 147.794L137.255 147.788L137.292 147.767C137.325 147.748 137.371 147.72 137.43 147.684C137.548 147.613 137.716 147.511 137.915 147.385C138.314 147.134 138.843 146.789 139.362 146.415C139.876 146.044 140.4 145.629 140.774 145.238C140.959 145.045 141.131 144.835 141.24 144.619C141.345 144.414 141.444 144.101 141.296 143.785C141.149 143.471 140.864 143.343 140.598 143.328C140.364 143.314 140.125 143.382 139.921 143.46C139.504 143.622 139.022 143.917 138.587 144.217C138.143 144.522 137.716 144.853 137.402 145.106C137.383 145.121 137.365 145.136 137.348 145.15C137.339 145.135 137.33 145.12 137.321 145.104C137.122 144.766 136.845 144.317 136.537 143.886C136.234 143.462 135.88 143.023 135.524 142.728C135.348 142.582 135.138 142.443 134.906 142.376C134.656 142.305 134.364 142.316 134.104 142.502C133.803 142.72 133.739 143.053 133.756 143.315C133.773 143.568 133.865 143.833 133.975 144.078C134.199 144.574 134.576 145.145 134.96 145.67C135.349 146.2 135.763 146.707 136.079 147.081C136.087 147.089 136.094 147.098 136.101 147.107L135.766 147.829L136.313 147.354C136.372 147.422 136.424 147.481 136.467 147.53C136.515 147.584 136.552 147.626 136.578 147.655L136.608 147.689L136.616 147.698L136.619 147.7L136.619 147.701C136.619 147.701 136.619 147.701 136.99 147.365ZM136.99 147.365L136.619 147.701L136.892 148.001L137.242 147.796L136.99 147.365ZM136.567 146.104L136.646 145.935C136.596 145.848 136.533 145.737 136.459 145.611C136.268 145.287 136.007 144.866 135.723 144.467C135.433 144.06 135.139 143.708 134.886 143.498C134.852 143.47 134.821 143.446 134.793 143.426C134.813 143.492 134.844 143.572 134.886 143.666C135.066 144.065 135.393 144.568 135.767 145.079C136.033 145.443 136.315 145.798 136.567 146.104Z" fill="#F6E7EE"/>
<path d="M138.17 141.1C138.17 141.1 141.399 138.299 141.809 139.176C142.218 140.054 137.956 142.545 137.956 142.545C137.956 142.545 134.484 138.722 135.362 138.089C136.24 137.456 138.172 141.097 138.172 141.097L138.17 141.1Z" fill="#F5E7EE"/>
<path fill-rule="evenodd" clip-rule="evenodd" d="M138.499 141.478L138.036 141.88C138.043 141.887 138.049 141.895 138.055 141.902C138.142 141.849 138.241 141.788 138.35 141.719C138.738 141.475 139.248 141.142 139.744 140.785C140.244 140.423 140.709 140.051 141.019 139.727C141.05 139.695 141.079 139.664 141.105 139.635C140.823 139.765 140.479 139.975 140.12 140.222C139.705 140.507 139.3 140.821 138.996 141.066C138.844 141.188 138.719 141.292 138.632 141.365C138.589 141.401 138.555 141.43 138.532 141.449L138.507 141.471L138.5 141.477L138.499 141.478ZM137.957 142.545C138.209 142.977 138.209 142.977 138.209 142.977L138.213 142.975L138.222 142.969L138.259 142.947C138.292 142.928 138.338 142.9 138.397 142.865C138.515 142.793 138.683 142.691 138.882 142.566C139.281 142.315 139.81 141.97 140.329 141.595C140.843 141.224 141.367 140.809 141.741 140.419C141.926 140.226 142.098 140.016 142.207 139.8C142.312 139.595 142.411 139.282 142.263 138.965C142.117 138.652 141.831 138.524 141.565 138.508C141.331 138.495 141.092 138.562 140.888 138.641C140.471 138.802 139.989 139.098 139.554 139.398C139.11 139.703 138.683 140.034 138.369 140.287C138.35 140.302 138.333 140.316 138.315 140.33C138.306 140.315 138.297 140.3 138.288 140.284C138.089 139.946 137.812 139.497 137.504 139.065C137.202 138.641 136.848 138.202 136.491 137.907C136.315 137.761 136.105 137.622 135.873 137.556C135.622 137.484 135.33 137.497 135.071 137.684C134.769 137.901 134.706 138.233 134.723 138.495C134.74 138.749 134.832 139.014 134.942 139.258C135.166 139.755 135.543 140.326 135.927 140.85C136.316 141.38 136.73 141.888 137.046 142.261C137.054 142.27 137.061 142.279 137.068 142.287L136.733 143.01L137.281 142.535C137.339 142.602 137.391 142.661 137.434 142.71C137.482 142.764 137.519 142.807 137.545 142.836L137.575 142.869L137.583 142.878L137.586 142.881C137.586 142.881 137.586 142.881 137.957 142.545ZM137.957 142.545L137.586 142.881L137.859 143.181L138.209 142.977L137.957 142.545ZM137.534 141.285L137.613 141.116C137.563 141.028 137.5 140.917 137.426 140.791C137.236 140.467 136.975 140.045 136.69 139.646C136.4 139.239 136.107 138.887 135.854 138.677C135.819 138.648 135.787 138.624 135.759 138.604C135.78 138.671 135.81 138.752 135.853 138.847C136.033 139.245 136.36 139.748 136.734 140.259C137.001 140.623 137.282 140.979 137.534 141.285Z" fill="#F6E7EE"/>
<path d="M129.132 149.249C129.132 149.249 129.014 144.976 129.954 145.22C130.895 145.465 130.116 150.336 130.116 150.336C130.116 150.336 124.959 150.566 125.024 149.489C125.09 148.412 129.132 149.249 129.132 149.249Z" fill="#F5E7EE"/>
<path fill-rule="evenodd" clip-rule="evenodd" d="M129.862 146.049C129.868 146.09 129.875 146.135 129.88 146.183C129.934 146.628 129.927 147.223 129.889 147.839C129.852 148.449 129.785 149.054 129.727 149.508C129.711 149.635 129.696 149.75 129.682 149.849C129.672 149.849 129.661 149.85 129.649 149.85L129.632 149.235L129.632 149.233L129.632 149.225L129.631 149.191C129.631 149.161 129.63 149.117 129.629 149.06C129.628 148.946 129.627 148.784 129.629 148.59C129.632 148.2 129.647 147.687 129.689 147.185C129.726 146.749 129.783 146.348 129.862 146.049ZM128.628 148.649C128.629 148.627 128.629 148.604 128.629 148.581C128.633 148.177 128.647 147.637 128.693 147.101C128.738 146.574 128.814 146.014 128.955 145.59C129.023 145.383 129.123 145.155 129.283 144.983C129.465 144.787 129.746 144.65 130.081 144.736C130.418 144.824 130.597 145.098 130.69 145.309C130.787 145.531 130.841 145.797 130.873 146.063C130.938 146.6 130.926 147.268 130.887 147.901C130.848 148.539 130.779 149.167 130.719 149.634C130.69 149.868 130.663 150.062 130.643 150.198C130.633 150.267 130.625 150.32 130.619 150.357L130.613 150.4L130.611 150.411L130.61 150.415C130.61 150.415 130.61 150.415 130.116 150.336C130.139 150.836 130.139 150.836 130.138 150.836L130.134 150.836L130.122 150.836L130.077 150.838C130.038 150.84 129.982 150.842 129.91 150.844C129.766 150.848 129.561 150.853 129.316 150.855C128.828 150.86 128.172 150.855 127.516 150.815C126.867 150.776 126.186 150.702 125.661 150.558C125.402 150.487 125.139 150.388 124.933 150.241C124.721 150.088 124.503 149.829 124.526 149.459C124.545 149.139 124.722 148.905 124.937 148.757C125.136 148.621 125.377 148.548 125.602 148.506C126.056 148.421 126.62 148.428 127.14 148.467C127.669 148.505 128.192 148.579 128.58 148.642C128.596 148.644 128.612 148.647 128.628 148.649ZM130.116 150.336L130.138 150.836L130.546 150.818L130.61 150.415L130.116 150.336ZM129.031 149.739L129.029 149.738L129.022 149.737L128.99 149.73C128.962 149.725 128.92 149.717 128.867 149.707C128.759 149.686 128.605 149.659 128.42 149.629C128.048 149.568 127.556 149.5 127.067 149.464C126.568 149.427 126.109 149.428 125.787 149.489C125.746 149.496 125.711 149.504 125.68 149.512C125.744 149.539 125.825 149.566 125.925 149.593C126.348 149.709 126.944 149.779 127.576 149.817C128.201 149.855 128.831 149.86 129.307 149.855C129.404 149.854 129.494 149.853 129.576 149.851L129.031 149.739Z" fill="#F6E7EE"/>
<path d="M126.298 145.688C126.298 145.688 126.18 141.414 127.12 141.659C128.061 141.903 127.282 146.775 127.282 146.775C127.282 146.775 122.125 147.004 122.19 145.927C122.256 144.851 126.298 145.688 126.298 145.688Z" fill="#F5E7EE"/>
<path fill-rule="evenodd" clip-rule="evenodd" d="M127.028 142.487C127.034 142.529 127.041 142.574 127.046 142.621C127.1 143.067 127.093 143.662 127.055 144.278C127.018 144.888 126.951 145.493 126.893 145.947C126.877 146.074 126.862 146.189 126.848 146.288C126.838 146.288 126.827 146.288 126.816 146.289L126.798 145.674L126.798 145.672L126.798 145.663L126.797 145.63C126.797 145.6 126.796 145.555 126.795 145.499C126.794 145.385 126.793 145.223 126.795 145.028C126.798 144.638 126.813 144.126 126.855 143.624C126.892 143.188 126.949 142.787 127.028 142.487ZM125.794 145.088C125.795 145.066 125.795 145.043 125.795 145.019C125.799 144.616 125.813 144.076 125.859 143.54C125.904 143.013 125.98 142.453 126.121 142.028C126.189 141.821 126.289 141.594 126.449 141.422C126.631 141.226 126.912 141.088 127.247 141.175C127.584 141.263 127.763 141.537 127.856 141.748C127.953 141.97 128.007 142.236 128.039 142.502C128.104 143.039 128.092 143.707 128.053 144.339C128.014 144.978 127.945 145.606 127.885 146.073C127.856 146.307 127.829 146.501 127.809 146.637C127.799 146.705 127.791 146.759 127.785 146.796L127.779 146.838L127.777 146.85L127.776 146.854C127.776 146.854 127.776 146.854 127.282 146.775C127.305 147.274 127.305 147.274 127.304 147.274L127.3 147.275L127.288 147.275L127.243 147.277C127.204 147.278 127.148 147.28 127.076 147.282C126.932 147.287 126.728 147.291 126.482 147.294C125.994 147.299 125.338 147.294 124.682 147.254C124.033 147.215 123.352 147.14 122.827 146.996C122.568 146.926 122.305 146.827 122.099 146.679C121.887 146.527 121.669 146.268 121.692 145.897C121.711 145.577 121.888 145.344 122.103 145.196C122.302 145.059 122.543 144.987 122.768 144.945C123.222 144.859 123.786 144.867 124.306 144.905C124.835 144.944 125.358 145.017 125.746 145.08C125.762 145.083 125.779 145.086 125.794 145.088ZM127.282 146.775L127.304 147.274L127.712 147.256L127.776 146.854L127.282 146.775ZM126.197 146.177L126.195 146.177L126.188 146.175L126.156 146.169C126.128 146.164 126.086 146.155 126.033 146.145C125.925 146.125 125.771 146.097 125.586 146.067C125.214 146.007 124.722 145.938 124.233 145.903C123.734 145.866 123.275 145.867 122.953 145.927C122.912 145.935 122.877 145.943 122.846 145.951C122.91 145.977 122.991 146.005 123.091 146.032C123.514 146.148 124.11 146.218 124.742 146.256C125.367 146.294 125.997 146.299 126.473 146.294C126.57 146.293 126.66 146.292 126.742 146.29L126.197 146.177Z" fill="#F6E7EE"/>
<path d="M125.693 156.227C125.693 156.227 121.834 154.364 122.481 153.641C123.129 152.918 127.112 155.858 127.112 155.858C127.112 155.858 124.963 160.539 124.037 159.982C123.11 159.424 125.693 156.227 125.693 156.227Z" fill="#F5E7EE"/>
<path fill-rule="evenodd" clip-rule="evenodd" d="M123.178 154.107C123.217 154.12 123.258 154.134 123.302 154.151C123.723 154.308 124.251 154.589 124.782 154.907C125.308 155.222 125.816 155.561 126.195 155.822C126.301 155.895 126.397 155.962 126.48 156.02C126.476 156.029 126.472 156.037 126.468 156.046L125.91 155.777L125.908 155.776L125.9 155.772L125.87 155.757C125.843 155.744 125.803 155.724 125.752 155.699C125.651 155.648 125.505 155.574 125.333 155.483C124.987 155.3 124.537 155.051 124.11 154.782C123.739 154.549 123.409 154.315 123.178 154.107ZM124.929 156.4C124.909 156.389 124.887 156.378 124.866 156.367C124.508 156.178 124.034 155.916 123.577 155.628C123.129 155.346 122.665 155.02 122.352 154.7C122.199 154.544 122.042 154.35 121.962 154.13C121.871 153.879 121.877 153.565 122.108 153.307C122.341 153.047 122.668 153.014 122.898 153.03C123.14 153.045 123.401 153.12 123.653 153.214C124.16 153.404 124.75 153.723 125.295 154.049C125.846 154.379 126.374 154.73 126.762 154.998C126.957 155.132 127.118 155.246 127.23 155.327C127.286 155.367 127.33 155.399 127.361 155.421L127.395 155.446L127.405 155.453L127.408 155.456C127.408 155.456 127.408 155.456 127.111 155.858C127.566 156.067 127.566 156.067 127.566 156.067L127.564 156.071L127.559 156.082L127.54 156.122C127.523 156.157 127.499 156.209 127.468 156.273C127.407 156.403 127.317 156.587 127.208 156.805C126.989 157.241 126.686 157.82 126.351 158.384C126.02 158.942 125.643 159.511 125.275 159.911C125.094 160.108 124.886 160.296 124.66 160.411C124.426 160.529 124.096 160.602 123.778 160.41C123.505 160.246 123.378 159.983 123.345 159.724C123.314 159.485 123.359 159.237 123.424 159.018C123.555 158.576 123.819 158.079 124.09 157.635C124.365 157.183 124.668 156.753 124.901 156.438C124.911 156.425 124.92 156.413 124.929 156.4ZM127.111 155.858L127.566 156.067L127.735 155.697L127.408 155.456L127.111 155.858ZM126.081 156.542L126.08 156.543L126.075 156.549L126.055 156.574C126.038 156.596 126.011 156.63 125.978 156.673C125.911 156.758 125.816 156.882 125.705 157.032C125.483 157.334 125.198 157.738 124.943 158.156C124.684 158.581 124.476 158.988 124.383 159.302C124.371 159.344 124.361 159.382 124.354 159.416C124.407 159.37 124.469 159.311 124.539 159.234C124.835 158.913 125.169 158.417 125.491 157.874C125.809 157.337 126.101 156.781 126.314 156.356C126.363 156.26 126.407 156.17 126.446 156.089L126.081 156.542Z" fill="#F6E7EE"/>
<path d="M120.871 157.229C120.871 157.229 117.011 155.366 117.659 154.643C118.307 153.92 122.29 156.86 122.29 156.86C122.29 156.86 120.141 161.541 119.214 160.984C118.288 160.426 120.871 157.229 120.871 157.229Z" fill="#F5E7EE"/>
<path fill-rule="evenodd" clip-rule="evenodd" d="M118.356 155.109C118.394 155.122 118.436 155.136 118.48 155.152C118.901 155.31 119.428 155.591 119.96 155.909C120.486 156.224 120.994 156.563 121.373 156.824C121.479 156.897 121.575 156.964 121.658 157.022C121.654 157.031 121.65 157.039 121.645 157.048L121.088 156.779L121.085 156.778L121.078 156.774L121.048 156.759C121.021 156.746 120.981 156.726 120.93 156.701C120.828 156.65 120.683 156.576 120.511 156.485C120.165 156.302 119.715 156.053 119.287 155.784C118.917 155.551 118.586 155.317 118.356 155.109ZM120.107 157.402C120.086 157.391 120.065 157.38 120.043 157.369C119.686 157.179 119.211 156.918 118.755 156.63C118.306 156.348 117.843 156.022 117.53 155.702C117.377 155.546 117.22 155.352 117.14 155.132C117.049 154.881 117.054 154.567 117.286 154.309C117.519 154.049 117.845 154.016 118.076 154.032C118.318 154.047 118.579 154.122 118.83 154.216C119.338 154.406 119.928 154.725 120.473 155.051C121.024 155.381 121.552 155.732 121.94 156C122.135 156.134 122.295 156.248 122.408 156.329C122.464 156.369 122.508 156.401 122.538 156.423L122.573 156.448L122.582 156.455L122.586 156.458C122.586 156.458 122.586 156.458 122.289 156.86C122.743 157.069 122.743 157.069 122.743 157.069L122.741 157.073L122.736 157.083L122.717 157.124C122.701 157.159 122.677 157.211 122.646 157.275C122.584 157.405 122.495 157.589 122.386 157.807C122.167 158.243 121.863 158.822 121.529 159.386C121.198 159.944 120.821 160.513 120.453 160.913C120.272 161.11 120.064 161.298 119.838 161.413C119.604 161.531 119.274 161.603 118.956 161.412C118.682 161.248 118.556 160.985 118.523 160.726C118.492 160.487 118.537 160.239 118.602 160.02C118.733 159.578 118.997 159.081 119.267 158.637C119.543 158.185 119.846 157.755 120.079 157.44C120.088 157.427 120.098 157.415 120.107 157.402ZM122.289 156.86L122.743 157.069L122.913 156.699L122.586 156.458L122.289 156.86ZM121.259 157.544L121.258 157.545L121.253 157.551L121.233 157.576C121.215 157.598 121.189 157.632 121.156 157.674C121.089 157.76 120.994 157.884 120.883 158.034C120.66 158.336 120.376 158.74 120.121 159.158C119.862 159.583 119.654 159.99 119.561 160.304C119.548 160.346 119.539 160.384 119.532 160.417C119.585 160.372 119.647 160.313 119.717 160.236C120.012 159.915 120.346 159.419 120.669 158.876C120.987 158.339 121.279 157.783 121.492 157.358C121.54 157.262 121.585 157.172 121.624 157.091L121.259 157.544Z" fill="#F6E7EE"/>
<path fill-rule="evenodd" clip-rule="evenodd" d="M281.69 -5.06638C301.603 -27.9532 312.991 -53.8278 317.383 -70.7139L315.447 -71.2173C311.126 -54.603 299.874 -29.0123 280.182 -6.37917C260.501 16.2404 232.426 35.8701 194.436 40.6918C156.324 45.5291 112.898 39.5154 74.0517 29.9998C35.2162 20.487 1.04037 7.49503 -18.5366 -1.55933L-19.3762 0.25592C0.314606 9.36291 34.612 22.3981 73.5758 31.9424C112.529 41.484 156.228 47.5574 194.688 42.6759C233.271 37.7789 261.766 17.834 281.69 -5.06638Z" fill="black"/>
</svg>
