<svg width="333" height="231" viewBox="0 0 333 231" fill="none" xmlns="http://www.w3.org/2000/svg">
<path d="M1.41211 -89.9199C10.1246 -56.4196 46.6928 13.0108 123.265 22.7295C199.837 32.4483 297.516 -1.44469 336.784 -19.606" stroke="black" stroke-width="2"/>
<path d="M163.212 102.486L163.095 101.559C163.058 100.999 163.014 100.44 162.977 99.8727C162.528 99.7107 162.086 99.5487 161.674 99.3868L160.967 99.0996C160.532 98.9156 160.105 98.7094 159.693 98.4811C158.861 98.0173 158.066 97.4651 157.352 96.8025C156.637 96.1472 156.019 95.3667 155.577 94.4758C155.128 93.5923 154.848 92.5836 154.826 91.5602C154.811 90.3306 155.393 89.1305 156.225 88.1955C157.064 87.2457 158.125 86.5241 159.236 85.9425C161.482 84.7939 163.949 84.1018 166.481 83.8662C168.933 83.7484 171.355 84.1901 173.601 85.1252C175.832 86.0382 177.916 87.5475 179.16 89.6827C179.764 90.7429 180.117 91.9725 180.088 93.1947C180.08 94.4169 179.675 95.6318 178.961 96.5963C178.254 97.5755 177.29 98.3265 176.266 98.9156C175.751 99.2101 175.221 99.4604 174.669 99.6886C174.131 99.9021 173.557 100.101 172.916 100.256C172.857 100.734 172.887 101.36 172.865 101.831L172.835 103.341C172.813 104.541 173.874 103.907 173.888 102.877L173.91 101.596C173.91 101.323 173.918 101.308 173.925 101.227C173.932 101.161 173.925 101.08 173.955 101.029C174.065 101.007 174.153 100.992 174.249 100.962C174.249 100.962 174.359 100.926 174.426 100.903L174.654 100.822C174.801 100.764 174.956 100.712 175.103 100.653C175.699 100.41 176.281 100.13 176.848 99.8064C177.975 99.1585 179.057 98.2971 179.874 97.1338C180.699 95.9778 181.155 94.4906 181.126 93.0548C181.126 91.6338 180.699 90.1981 179.97 88.998C178.49 86.583 176.149 85.0442 173.748 84.0576C172.526 83.579 171.267 83.2403 169.986 83.0195C169.338 82.9385 168.698 82.8428 168.042 82.8207C167.726 82.7986 167.394 82.7839 167.034 82.7912C166.688 82.7986 166.356 82.8207 166.032 82.8575C163.352 83.1594 160.812 83.8809 158.419 85.1694C157.234 85.8173 156.085 86.6493 155.158 87.7758C154.222 88.8802 153.611 90.4484 153.714 91.9431C153.869 94.2991 155.091 96.3165 156.608 97.7154C158.147 99.1143 159.936 100.079 161.777 100.668C161.865 101.058 161.894 101.588 161.961 102.03L162.13 103.392C162.27 104.452 163.323 103.466 163.198 102.516L163.212 102.486Z" fill="black"/>
<path d="M160.041 78.7196C161.219 79.154 162.338 79.6842 163.339 80.3689C164.355 81.0683 165.254 81.9003 166.056 82.8207C166.895 83.7778 167.698 84.7644 168.456 85.7805C169.215 86.7892 169.877 87.9304 170.231 89.1231L170.319 89.0348C170.319 89.0348 170.29 89.0127 170.29 88.9906C170.29 88.9759 170.29 89.0127 170.29 89.0274C170.275 89.0495 170.29 89.0348 170.268 89.0569C170.187 89.1084 170.039 89.1011 169.958 89.2336C169.855 89.3514 169.958 89.6754 170.231 89.8005C170.363 89.8594 170.518 89.8962 170.702 89.8447C170.879 89.8005 171.158 89.6091 171.247 89.2483C171.262 89.1968 171.269 89.1452 171.269 89.0937V88.9685L171.195 88.6961C170.768 87.3414 170.032 86.1192 169.266 85.1031C168.493 84.0576 167.669 83.0415 166.814 82.0623C165.997 81.1272 165.121 80.2953 164.105 79.5811C163.074 78.8669 161.918 78.3073 160.696 77.8582C160.424 77.7551 159.798 78.6387 160.048 78.7344L160.041 78.7196Z" fill="black"/>
<path d="M168.071 76.2532C167.924 77.468 167.924 78.543 167.799 79.559C167.673 80.5898 167.401 81.569 166.989 82.5188C166.127 84.5288 164.699 86.2959 162.954 87.5402C162.755 87.6801 163.602 88.3427 163.786 88.2102C165.604 86.8702 167.092 85.0001 167.99 82.887C168.417 81.893 168.697 80.9211 168.829 79.9271C168.962 78.9185 168.932 77.8803 169.043 76.717C169.065 76.452 168.108 75.9807 168.064 76.2458L168.071 76.2532Z" fill="black"/>
<path d="M168.433 81.5911C167.844 77.2986 167.373 72.8662 167.086 68.3235C166.791 63.6849 166.703 58.9655 166.695 54.2533C166.666 44.2989 166.865 34.3445 167.248 24.4564C167.292 23.3226 166.224 23.9042 166.187 24.8761C165.804 34.7348 165.613 44.6523 165.628 54.5699C165.635 59.282 165.709 64.0089 165.996 68.6621C166.283 73.3816 166.769 77.9686 167.373 82.4157C167.513 83.417 168.565 82.4893 168.44 81.5911H168.433Z" fill="black"/>
<path d="M147.972 119.479H189.468C189.468 119.479 207.036 124.162 217.079 136.885C227.121 149.6 241.339 181.731 217.079 209.334C192.818 236.944 141.618 236.775 120.531 209.334C99.4519 181.893 104.967 142.407 131.575 126.842C145.299 119.855 147.972 119.479 147.972 119.479Z" fill="#247131"/>
<path d="M180.802 183.13C182.982 185.899 186.42 187.408 189.844 187.857C191.589 188.085 193.797 187.717 194.291 185.707C194.526 184.757 194.276 183.646 194.062 182.71C193.849 181.775 193.496 180.796 193.076 179.883C192.87 179.427 192.214 179.324 191.817 179.552C191.353 179.817 191.279 180.362 191.486 180.811C191.802 181.51 192.052 182.239 192.237 182.99C192.398 183.66 192.649 184.522 192.516 185.214C192.251 186.605 189.88 186.038 188.982 185.847C186.31 185.273 183.821 183.999 182.105 181.82C181.796 181.429 181.126 181.503 180.802 181.82C180.412 182.202 180.493 182.733 180.802 183.123V183.13Z" fill="#F4F2F2"/>
<path d="M183.069 183.557C185.462 183.432 187.863 183.3 190.255 183.174V181.334C189.254 181.444 188.268 181.614 187.296 181.879C186.824 182.004 186.28 182.114 185.948 182.504C185.595 182.924 185.61 183.572 186 183.97C186.309 184.286 186.699 184.367 187.119 184.426C187.649 184.5 188.172 184.559 188.702 184.603C189.747 184.684 190.8 184.691 191.846 184.632C193.031 184.566 193.031 182.858 191.846 182.792C190.903 182.74 189.998 182.961 189.173 183.403C188.496 183.763 188.621 184.927 189.394 185.081C190.322 185.265 191.257 185.361 192.207 185.324L191.964 183.513C191.308 183.786 190.646 184.058 189.99 184.33C189.644 184.478 189.379 184.698 189.328 185.096C189.291 185.427 189.431 185.862 189.769 186.016C190.16 186.186 190.535 186.333 190.962 186.407C191.154 186.436 191.352 186.458 191.544 186.473C192.03 186.502 191.669 186.524 191.544 186.281C191.757 186.731 192.398 186.848 192.803 186.613C193.259 186.348 193.348 185.803 193.134 185.354C192.685 184.404 191.492 184.787 190.697 184.433L190.476 186.112C191.132 185.84 191.794 185.567 192.45 185.295C192.869 185.118 193.186 184.772 193.112 184.286C193.046 183.852 192.67 183.469 192.207 183.491C191.426 183.52 190.653 183.469 189.887 183.314L190.108 184.993C190.66 184.698 191.235 184.603 191.853 184.64V182.799C191.014 182.843 190.174 182.85 189.335 182.806C188.915 182.784 188.496 182.755 188.076 182.711C187.899 182.688 187.715 182.674 187.539 182.644C187.443 182.63 187.347 182.615 187.251 182.6C187.053 182.541 187.104 182.6 187.406 182.777L187.531 183.241V183.152C187.494 183.307 187.45 183.462 187.406 183.616L187.465 183.528L187.134 183.859C187.48 183.638 188.172 183.55 188.621 183.454C189.158 183.336 189.703 183.241 190.248 183.182C190.741 183.123 191.168 182.799 191.168 182.261C191.168 181.783 190.749 181.312 190.248 181.341C187.855 181.466 185.455 181.599 183.062 181.724C181.884 181.79 181.877 183.631 183.062 183.565L183.069 183.557Z" fill="#F4F2F2"/>
<path d="M147.471 180.774C146.064 182.637 143.605 183.594 141.308 183.145C140.263 182.939 139.07 182.504 138.393 181.621C138.142 181.297 137.988 180.907 138.076 180.502C138.135 180.237 138.326 179.832 138.643 179.802C139.136 179.751 139.563 179.412 139.563 178.882C139.563 178.425 139.144 177.91 138.643 177.962C137.008 178.131 135.978 179.692 136.265 181.282C136.574 182.998 138.223 184.065 139.74 184.617C143.164 185.862 146.911 184.551 149.061 181.702C149.363 181.304 149.127 180.671 148.73 180.443C148.259 180.17 147.773 180.377 147.471 180.774Z" fill="#F4F2F2"/>
<path d="M137.612 181.341C139.393 182.895 141.396 184.087 143.605 184.934C143.98 185.074 144.452 184.838 144.643 184.514C144.864 184.139 144.761 183.719 144.496 183.403C143.31 181.938 141.882 180.693 140.292 179.699L139.585 181.378C141.322 182.041 143.067 182.696 144.805 183.359C145.644 183.675 146.403 182.394 145.703 181.82C144.938 181.194 144.061 180.863 143.178 180.443C142.294 180.023 141.455 179.493 140.697 178.86L139.798 180.399C141.661 180.951 143.428 181.709 145.107 182.689C146.012 183.211 146.962 181.989 146.219 181.245C145.718 180.745 145.122 180.384 144.51 180.038C143.48 179.456 142.545 181.047 143.583 181.628C144.621 182.21 145.784 182.74 146.948 183.16C147.662 183.417 148.472 182.446 147.986 181.805C147.367 181.002 146.601 180.553 145.585 180.45C145.092 180.399 144.665 180.914 144.665 181.371C144.665 181.915 145.092 182.239 145.585 182.291C145.88 182.32 146.219 182.504 146.395 182.733L147.433 181.378C146.417 181.01 145.446 180.561 144.503 180.031L143.575 181.621C144.054 181.886 144.518 182.151 144.908 182.541L146.02 181.098C144.209 180.045 142.28 179.213 140.27 178.624C139.43 178.374 138.657 179.559 139.371 180.163C140.166 180.826 141.013 181.422 141.934 181.893C142.729 182.298 143.671 182.549 144.371 183.123L145.269 181.584C143.531 180.921 141.786 180.266 140.049 179.604C139.04 179.221 138.488 180.752 139.342 181.282C140.807 182.203 142.088 183.351 143.17 184.699L144.069 183.16C142.176 182.438 140.417 181.371 138.893 180.045C138.517 179.721 137.958 179.677 137.59 180.045C137.258 180.377 137.214 181.017 137.59 181.348L137.612 181.341Z" fill="#F4F2F2"/>
<path d="M149.982 119.966C162.498 119.2 175.287 118.854 189.129 119.075H189.498C189.615 119.104 189.733 119.141 189.851 119.178L190.469 119.377C190.867 119.509 191.272 119.642 191.67 119.789C192.465 120.069 193.245 120.378 194.033 120.687C195.586 121.335 197.125 122.005 198.613 122.771C201.602 124.273 204.466 125.988 207.139 127.939C209.796 129.905 212.322 132.048 214.457 134.514C215.024 135.103 215.488 135.773 216.011 136.392C216.533 137.01 217.005 137.673 217.468 138.343C218.381 139.683 219.258 141.052 220.045 142.459C223.3 148.172 225.656 154.32 227.084 160.63C228.498 166.947 228.932 173.463 228.108 179.869C227.732 182.777 227.099 185.663 226.223 188.483C225.803 189.897 225.258 191.273 224.728 192.658L223.822 194.69C223.535 195.374 223.16 196.015 222.836 196.685C221.459 199.313 219.898 201.868 218.08 204.246C217.225 205.476 216.209 206.588 215.282 207.758L213.772 209.4L213.014 210.218L212.211 210.991C209.841 213.369 207.212 215.467 204.473 217.359C203.781 217.816 203.119 218.324 202.397 218.744C201.69 219.178 200.976 219.605 200.269 220.039C199.555 220.459 198.819 220.835 198.097 221.232L197.007 221.821L195.896 222.351C189.983 225.252 183.732 227.189 177.533 228.448C176.274 228.661 175.037 228.941 173.837 229.118C172.637 229.287 171.488 229.53 170.399 229.655C170.185 229.685 167.137 230.134 168.44 230.075C179.101 229.729 189.711 227.189 199.091 222.27C203.766 219.819 208.169 216.829 211.991 213.222C215.812 209.629 219.103 205.476 221.798 201.014C222.873 198.636 223.859 196.251 224.544 193.777C223.565 196.656 222.122 199.711 220.222 202.612C218.345 205.52 216.077 208.325 213.677 210.821C211.063 213.442 208.155 215.791 205.04 217.845C204.245 218.339 203.494 218.884 202.669 219.333L200.232 220.709L197.729 221.954C196.897 222.373 196.021 222.705 195.174 223.088C191.633 224.575 187.951 225.753 184.204 226.636C180.456 227.513 176.627 228.05 172.784 228.323C165.097 228.875 157.33 228.175 149.893 226.239C142.523 224.347 135.492 221.078 129.499 216.469C126.502 214.164 123.785 211.513 121.437 208.568C119.088 205.586 117.012 202.391 115.23 199.048C111.718 192.444 109.413 185.376 108.346 178.182C107.315 170.982 107.499 163.649 109.038 156.529C109.899 152.538 111.217 148.562 113.087 144.734C114.943 140.898 117.417 137.246 120.457 133.984C123.491 130.722 127.143 127.888 130.905 125.907C133.732 124.597 137.944 122.999 136.574 124.199C136.066 124.626 140.734 121.99 140.955 121.895C142.818 120.842 146.006 119.237 147.088 118.611C147.471 118.375 147.685 118.228 147.758 118.125C147.626 118.044 147.361 118.014 146.97 118.051C146.183 118.118 144.924 118.441 143.466 118.935C140.558 119.914 136.891 121.556 134.748 122.565C133.872 122.984 133.011 123.389 132.113 123.838C131.222 124.287 130.331 124.692 129.455 125.289C128.578 125.841 127.688 126.386 126.892 127.004C126.075 127.608 125.258 128.197 124.507 128.867C121.415 131.451 118.749 134.433 116.555 137.57C111.99 144.123 109.296 151.404 107.97 158.995C106.608 166.859 106.792 175.083 108.5 183.042C110.223 191.082 113.507 198.798 118.138 205.609C120.45 209.025 123.093 212.213 126.163 214.959C129.219 217.72 132.635 220.084 136.272 222.035C143.547 225.952 151.653 228.278 159.87 229.147C168.094 230.023 176.466 229.537 184.506 227.675C192.892 225.716 201.094 222.175 207.904 217.05C214.722 211.963 220.023 205.263 223.175 198.305C223.616 197.274 224.043 196.243 224.411 195.242C224.735 194.218 225.074 193.261 225.295 192.341C225.324 192.216 225.855 189.816 225.464 190.949C224.706 193.379 223.631 195.706 222.497 198.003C221.864 199.115 221.304 200.271 220.59 201.338L219.567 202.973L218.448 204.548C217.726 205.623 216.887 206.603 216.084 207.619C215.274 208.627 214.376 209.548 213.529 210.52C212.609 211.418 211.703 212.345 210.746 213.214L209.281 214.481L208.545 215.114L207.772 215.703C203.685 218.891 199.143 221.527 194.342 223.603C189.527 225.657 184.461 227.137 179.285 228.08C177.813 228.521 176.311 228.808 174.809 229.162C174.058 229.324 173.292 229.442 172.534 229.582C171.775 229.714 171.01 229.861 170.244 229.95C175.987 229.442 181.826 228.219 187.561 226.416C190.41 225.451 193.267 224.413 196.021 223.088C197.42 222.477 198.752 221.726 200.115 221.026C200.792 220.665 201.44 220.253 202.102 219.87C202.765 219.48 203.428 219.097 204.061 218.655L205.983 217.382L207.838 216.005L208.766 215.313L209.649 214.569L211.416 213.082C212.521 212.007 213.699 211.005 214.715 209.849C215.238 209.283 215.782 208.745 216.283 208.156L217.77 206.382C219.685 203.967 221.518 201.478 223.02 198.798C224.544 196.14 225.862 193.372 226.907 190.522C229.153 184.323 230.132 177.733 229.904 171.158C229.676 164.584 228.292 158.031 225.972 151.772C224.831 148.687 223.447 145.676 221.857 142.76C221.061 141.295 220.207 139.867 219.28 138.468C218.823 137.761 218.337 137.076 217.844 136.392L216.254 134.404C211.836 129.22 206.189 125.134 200.085 122.042C198.347 121.188 196.617 120.37 194.843 119.686C193.959 119.34 193.076 119.001 192.178 118.707C191.728 118.552 191.279 118.412 190.823 118.265L190.079 118.044C189.895 118.007 189.726 117.911 189.534 117.933H189.034C185.382 117.956 181.781 118.014 178.233 118.11C171.135 118.294 164.229 118.618 157.411 119.038C154.429 119.222 151.395 119.465 149.047 119.767C147.456 119.973 147.508 120.098 149.982 119.943V119.966Z" fill="#030406"/>
<path d="M165.562 119.067H150.94C143.916 119.067 144.041 103.407 152.317 103.031C160.6 102.656 175.406 103.031 183.881 103.031C192.355 103.031 195.617 118.846 183.881 118.846C172.144 118.846 165.555 119.067 165.555 119.067H165.562Z" fill="#441E18"/>
<path d="M163.19 116.682C159.155 117.271 155.032 117.801 150.902 118.25C150.143 118.338 149.356 118.198 148.671 117.676C147.979 117.168 147.397 116.38 146.999 115.481C146.197 113.67 145.969 111.506 146.3 109.415C146.484 108.347 146.823 107.294 147.368 106.322C147.912 105.358 148.678 104.482 149.679 103.9C149.922 103.753 150.18 103.613 150.453 103.517C150.718 103.392 150.997 103.326 151.277 103.245C151.844 103.105 152.433 103.061 152.971 103.024C154.075 102.935 155.179 102.877 156.284 102.825C160.709 102.626 165.149 102.611 169.581 102.634L183.614 102.796C184.203 102.796 184.881 102.854 185.499 103.002C186.118 103.164 186.721 103.385 187.281 103.701C188.393 104.32 189.335 105.196 190.057 106.204C191.47 108.229 192.192 110.733 191.897 113.184C191.75 114.399 191.345 115.614 190.601 116.615C189.873 117.617 188.849 118.39 187.723 118.832C186.589 119.281 185.381 119.443 184.203 119.428C183.025 119.428 181.869 119.391 180.699 119.376C176.038 119.288 171.377 119.178 166.717 119.038C164.582 118.979 165.752 121.099 167.571 121.151C172.195 121.291 176.826 121.401 181.45 121.489L183.187 121.519C183.489 121.519 183.732 121.534 184.085 121.526L185.124 121.504C186.522 121.408 188.01 121.085 189.423 120.341C190.837 119.612 192.074 118.382 192.862 116.969C193.672 115.548 194.01 113.979 194.062 112.485C194.143 109.474 193.149 106.609 191.22 104.246C190.248 103.075 188.96 102.067 187.45 101.419C186.699 101.087 185.882 100.881 185.065 100.756C184.66 100.712 184.225 100.69 183.85 100.668H182.981L169.007 100.476C164.567 100.447 160.105 100.469 155.629 100.66C154.509 100.712 153.383 100.778 152.256 100.867C150.769 100.94 149.135 101.5 147.89 102.427C146.617 103.348 145.718 104.57 145.115 105.814C144.511 107.059 144.165 108.347 144.003 109.628C143.701 112.212 144.047 114.804 145.299 117.145C145.954 118.287 146.882 119.413 148.2 120.024C148.833 120.356 149.554 120.495 150.232 120.54C150.968 120.554 151.439 120.466 151.991 120.415C156.306 119.951 160.554 119.398 164.736 118.795C166.621 118.522 164.869 116.417 163.183 116.66L163.19 116.682Z" fill="#030406"/>
<path d="M143.914 205.41C143.914 205.41 149.061 195.492 166.186 195.934C183.312 196.376 191.904 205.77 191.904 205.77C191.904 205.77 181.059 215.953 167.004 213.943C152.948 211.933 143.914 205.41 143.914 205.41Z" fill="#E84B27"/>
<path d="M111.313 169.362C115.341 170.179 119.294 171.247 123.44 172.859C127.46 174.42 131.399 176.128 135.367 177.623C139.402 179.147 143.422 180.649 147.663 181.805C151.528 182.858 155.607 183.55 159.679 183.785C164.273 184.036 168.809 183.712 172.932 182.725C173.764 182.534 174.559 182.283 175.251 182.018C175.325 182.004 176.274 181.547 175.855 181.606L170.73 182.151C169.869 182.217 169.015 182.247 168.153 182.298C167.292 182.357 166.43 182.379 165.569 182.379C162.116 182.467 158.655 182.313 155.195 182.085L152.508 182.615C153.568 182.534 154.702 182.556 155.865 182.622C157.028 182.666 158.221 182.755 159.377 182.858C160.614 182.946 161.851 183.042 163.095 183.13C164.339 183.196 165.584 183.263 166.821 183.322C171.945 183.528 177.106 183.167 182.172 182.467L185.927 181.842C187.171 181.606 188.401 181.297 189.63 181.017C190.241 180.87 190.86 180.73 191.471 180.575L193.282 180.052C194.482 179.684 195.697 179.36 196.868 178.933C201.543 177.343 205.784 175.304 209.863 173.043C212.145 171.762 214.457 170.415 216.961 169.244C218.212 168.677 219.523 168.125 220.789 167.742C221.724 167.462 223.19 167.16 222.902 167.852C222.799 168.103 224.176 167.013 224.228 166.962C224.758 166.505 225.663 165.754 225.818 165.32C226.275 164.068 223.035 165.386 221.643 165.946C219.412 166.895 217.248 168.095 215.223 169.288C214.163 169.892 213.125 170.51 212.094 171.129C211.041 171.725 209.988 172.314 208.935 172.911C206.704 174.081 204.37 175.193 201.941 176.158C197.045 178.109 191.898 179.64 186.634 180.664C181.362 181.658 175.995 182.202 170.642 182.291C165.031 182.335 159.355 181.702 154.186 182.092C153.428 182.144 152.662 182.247 152 182.364C151.955 182.372 151.087 182.556 151.491 182.6C154.967 182.924 158.442 183.182 161.932 183.211C165.414 183.263 168.897 183.204 172.357 182.814L175.295 181.702C174.382 181.915 173.447 182.107 172.497 182.291C171.54 182.46 170.568 182.659 169.582 182.74C168.595 182.828 167.594 182.931 166.585 182.968C165.576 182.998 164.56 183.005 163.537 183.005C159.451 182.917 155.32 182.335 151.403 181.37C147.155 180.318 143.135 178.904 139.093 177.461C135.117 176.04 131.17 174.405 127.15 172.918C122.615 171.232 118.264 170.201 113.883 169.391C112.926 169.215 111.932 169.082 111.114 169.067C110.562 169.053 110.525 169.178 111.328 169.347L111.313 169.362Z" fill="black"/>
<path d="M119.617 172.925C122.157 176.968 124.668 180.966 127.23 185.435C128.474 187.599 129.748 189.742 131.103 191.826C132.443 193.917 133.856 195.963 135.41 197.9C138.517 201.861 142.029 205.557 146.307 208.635C150.216 211.388 154.877 213.465 159.722 214.37C165.2 215.349 170.699 214.9 175.39 213.361C176.332 213.015 177.215 212.603 177.966 212.213C178.047 212.198 179.049 211.506 178.592 211.668C171.016 214.098 162.564 214.112 154.722 211.69C153.655 211.639 152.617 211.477 151.527 211.366C153.979 211.955 156.762 212.824 159.464 213.398C160.178 213.575 160.914 213.656 161.636 213.796L162.726 213.987C163.086 214.046 163.462 214.068 163.823 214.112L166.024 214.348L168.233 214.422C168.991 214.466 169.75 214.436 170.508 214.392C171.266 214.348 172.032 214.355 172.783 214.26L175.051 213.98C175.809 213.899 176.545 213.7 177.296 213.56L178.416 213.332C178.784 213.251 179.152 213.133 179.513 213.03C180.242 212.817 180.978 212.625 181.699 212.39C183.128 211.867 184.556 211.366 185.926 210.696C188.65 209.445 191.256 207.928 193.642 206.153C196.042 204.401 198.288 202.465 200.298 200.344C204.31 196.192 207.381 191.634 209.943 186.885C211.371 184.212 212.718 181.437 214.287 178.654C215.06 177.262 215.914 175.856 216.783 174.604C217.438 173.684 218.52 172.351 218.668 173.154C218.726 173.448 219.271 171.497 219.286 171.409C219.477 170.628 219.794 169.31 219.661 168.817C219.463 168.132 218.925 168.633 218.277 169.546C217.637 170.444 216.908 171.696 216.488 172.447C215.111 174.891 213.919 177.476 212.763 179.92C211.563 182.468 210.392 184.949 209 187.401C207.565 189.933 205.908 192.429 204.038 194.815C200.231 199.586 195.652 203.945 190.292 207.184C184.976 210.49 178.879 212.581 172.658 213.185C169.404 213.465 166.09 213.347 162.866 213.001C159.648 212.618 156.541 211.977 153.537 211.396C152.661 211.197 151.763 211.064 150.982 210.932C150.931 210.924 149.9 210.777 150.349 210.969C154.207 212.596 158.301 213.685 162.424 214.105C166.547 214.532 170.707 214.326 174.712 213.516C175.279 213.295 175.824 213.015 176.361 212.728L177.952 211.889C173.946 213.568 169.161 214.363 164.331 214.009C161.908 213.884 159.501 213.347 157.167 212.669C156.585 212.493 156.018 212.264 155.444 212.058C154.877 211.837 154.303 211.653 153.758 211.381C152.668 210.866 151.571 210.372 150.555 209.739C146.071 207.155 142.405 203.724 139.077 200.064C135.822 196.42 133.039 192.363 130.374 188.225C127.385 183.542 124.462 179.324 121.553 175.09C120.92 174.162 120.235 173.227 119.632 172.521C119.219 172.035 119.109 172.101 119.602 172.911L119.617 172.925Z" fill="black"/>
<path d="M187.436 120.849C184.181 125.745 180.066 130.421 174.868 134.058C172.217 135.898 169.301 137.452 166.216 138.593C163.131 139.749 159.914 140.537 156.682 141.148C149.842 142.4 142.943 143.158 136.044 143.762L130.868 144.174C129.145 144.299 127.407 144.417 125.677 144.27C122.202 143.983 119.066 142.333 115.546 142.076C114.736 142.032 114.56 142.304 114.736 142.569C114.92 142.834 115.421 143.099 116.047 143.173C119.242 143.541 122.438 145.19 126.193 145.36C128.019 145.455 129.786 145.308 131.494 145.183L136.662 144.771C143.561 144.159 150.445 143.408 157.322 142.12C160.591 141.487 163.86 140.655 167.011 139.455C170.163 138.255 173.159 136.642 175.854 134.72C181.347 130.818 185.639 125.834 188.974 120.628C189.725 119.458 188.098 119.818 187.436 120.849Z" fill="black"/>
<path d="M186.206 122.999C186.891 124.796 187.59 126.651 188.467 128.455C189.335 130.259 190.432 131.967 191.728 133.491C193.031 135.067 194.467 136.517 195.888 138.012C197.309 139.499 198.723 141.001 200.217 142.4C201.8 143.88 203.464 145.264 205.29 146.405C207.109 147.561 209.09 148.445 211.122 149.196C213.154 149.947 215.237 150.602 217.306 151.257C219.375 151.876 221.555 152.391 223.771 152.03C224.772 151.817 223.947 150.955 223.226 151.051C221.282 151.272 219.272 150.771 217.255 150.145C215.215 149.49 213.139 148.842 211.173 148.099C209.2 147.348 207.322 146.479 205.607 145.36C203.884 144.24 202.279 142.9 200.755 141.443C199.304 140.058 197.906 138.579 196.499 137.084C195.086 135.589 193.687 134.146 192.457 132.622C191.191 131.091 190.175 129.427 189.335 127.615C188.489 125.812 187.804 123.919 187.104 122.071C186.795 121.239 185.926 122.248 186.214 123.006L186.206 122.999Z" fill="black"/>
<path d="M193.318 140.809C191.831 140.066 190.41 139.219 189.187 138.048C187.951 136.87 186.971 135.346 186.434 133.66C185.852 131.886 185.668 130.023 185.742 128.19C185.83 126.356 186.25 124.53 187.096 122.955C187.288 122.601 186.235 122.358 186.051 122.712C185.167 124.449 184.748 126.408 184.681 128.344C184.615 130.273 184.829 132.217 185.455 134.117C186.058 135.928 187.096 137.57 188.385 138.807C189.695 140.08 191.197 140.986 192.744 141.759C193.09 141.936 193.635 140.964 193.318 140.809Z" fill="black"/>
<path d="M185.713 140.773C184.741 139.595 183.88 138.343 183.343 136.907C182.79 135.449 182.636 133.793 182.96 132.202C183.689 128.838 185.677 126.114 187.444 123.33C187.65 123.014 186.604 122.719 186.428 122.992C185.515 124.369 184.631 125.775 183.799 127.211C183.019 128.668 182.253 130.273 181.892 132.107C181.546 133.859 181.723 135.663 182.282 137.209C182.849 138.792 183.762 140.117 184.771 141.354C184.999 141.634 185.912 141.03 185.713 140.78V140.773Z" fill="black"/>
<path d="M174.654 170.989C178.063 172.123 181.958 171.652 185.021 169.782C185.846 169.281 186.228 168.11 185.684 167.263C185.139 166.417 184.042 166.063 183.165 166.601C182.827 166.807 182.488 166.998 182.127 167.16C182.039 167.205 181.951 167.241 181.855 167.286C182.046 167.205 182.076 167.19 181.951 167.241C181.789 167.3 181.627 167.367 181.465 167.418C181.089 167.543 180.714 167.646 180.323 167.735C180.176 167.764 180.036 167.794 179.889 167.823C179.793 167.838 179.698 167.853 179.595 167.867C179.838 167.838 179.86 167.83 179.646 167.86C178.902 167.919 178.181 167.919 177.437 167.867C177.003 167.838 177.732 167.926 177.342 167.86C177.15 167.823 176.951 167.794 176.76 167.749C176.377 167.668 175.994 167.558 175.619 167.433C174.706 167.131 173.564 167.786 173.351 168.721C173.123 169.737 173.66 170.658 174.639 170.989H174.654Z" fill="black"/>
<path d="M148.686 169.053C150.512 170.061 152.507 170.79 154.568 171.122C156.63 171.453 159.126 171.681 161.121 170.636C161.975 170.187 162.307 168.928 161.784 168.118C161.224 167.249 160.179 166.976 159.266 167.455C159.074 167.551 159.06 167.558 159.236 167.484C159.126 167.521 159.016 167.558 158.905 167.588C158.736 167.632 158.566 167.669 158.397 167.691C158.787 167.632 158.088 167.691 158.014 167.698C157.838 167.698 157.653 167.698 157.477 167.698C157.042 167.698 156.608 167.669 156.174 167.632C156.048 167.617 155.923 167.61 155.805 167.595C155.599 167.573 155.555 167.565 155.68 167.58C155.798 167.595 155.761 167.588 155.555 167.558C155.43 167.536 155.312 167.514 155.187 167.492C154.333 167.337 153.486 167.109 152.662 166.822C152.485 166.763 152.308 166.689 152.139 166.63C151.933 166.549 151.911 166.535 152.058 166.601C151.94 166.549 151.83 166.498 151.719 166.446C151.322 166.262 150.939 166.063 150.556 165.857C149.709 165.393 148.509 165.622 148.038 166.52C147.567 167.418 147.795 168.545 148.7 169.038L148.686 169.053Z" fill="black"/>
<path d="M135.624 221.431C138.26 222.381 141.08 222.741 143.871 222.418C146.057 222.167 148.84 221.6 149.893 219.399C150.298 218.552 150.416 217.529 150.004 216.66C149.68 215.983 148.951 215.548 148.281 216.078C146.506 217.485 148.266 219.877 149.753 220.555C150.924 221.085 152.249 221.328 153.501 221.6C154.893 221.902 156.291 222.152 157.698 222.322C160.613 222.668 163.603 222.638 166.467 221.939C167.299 221.733 168.241 221.424 168.02 220.363C167.829 219.45 167.129 218.353 166.312 217.904C164.405 216.866 162.933 219.075 164.089 220.68C164.81 221.674 166.172 221.983 167.299 222.233C168.742 222.557 170.222 222.727 171.694 222.741C174.772 222.778 177.805 222.13 180.625 220.908C180.861 220.805 180.89 220.481 180.787 220.275C180.316 219.362 179.145 218.059 178.1 219.038C177.157 219.922 177.791 221.586 178.438 222.432C180.419 225.009 184.483 224.781 187.222 223.765C188.702 223.213 190.101 222.373 191.22 221.254C191.89 220.584 192.523 219.053 191.043 218.906C189.895 218.788 189.1 220.039 189.291 221.085C189.556 222.499 191.051 223.117 192.339 223.191C194.106 223.294 195.748 222.822 197.324 222.071C199.083 221.239 200.777 220.157 202.765 219.988C203.354 219.936 203.354 219.016 202.765 219.067C200.497 219.259 198.634 220.474 196.61 221.401C195.351 221.976 194.062 222.314 192.678 222.285C191.927 222.27 191.11 222.16 190.572 221.586C190.285 221.284 190.108 220.864 190.234 220.452C190.322 220.01 190.58 219.892 191.007 220.106C190.918 220.253 190.808 220.385 190.683 220.503C188.945 222.388 186.221 223.463 183.688 223.537C182.282 223.581 180.714 223.353 179.631 222.381C179.167 221.961 178.799 221.424 178.637 220.82C178.578 220.606 178.549 220.385 178.564 220.165L179.153 219.686C179.491 219.686 179.867 220.481 179.999 220.746L180.161 220.113C176.804 221.563 173.093 222.116 169.463 221.674C168.175 221.519 164.552 221.225 164.574 219.377C164.582 218.611 165.37 218.375 165.966 218.758C166.356 219.009 166.599 219.436 166.805 219.833C166.886 219.988 167.1 220.349 167.107 220.466C167.122 220.805 167.004 220.776 166.717 220.916C166.334 221.1 165.804 221.144 165.384 221.232C161.475 222.005 157.425 221.534 153.567 220.673C152.051 220.334 149.606 220.084 148.759 218.582C148.575 218.25 148.399 217.698 148.538 217.323C148.619 217.102 148.7 216.667 149.142 217.006C149.267 217.102 149.334 217.676 149.334 217.772C149.378 218.721 148.818 219.59 148.082 220.15C146.499 221.343 144.128 221.571 142.214 221.615C140.042 221.667 137.899 221.284 135.86 220.547C135.3 220.349 135.065 221.232 135.617 221.438L135.624 221.431Z" fill="black"/>
<path d="M148.303 224.214C148.892 224.214 148.899 223.294 148.303 223.294C147.706 223.294 147.706 224.214 148.303 224.214Z" fill="#F4F2F2"/>
<path d="M165.959 225.053C166.548 225.053 166.555 224.133 165.959 224.133C165.363 224.133 165.363 225.053 165.959 225.053Z" fill="#F4F2F2"/>
<path d="M178.756 225.385C179.345 225.385 179.352 224.464 178.756 224.464C178.159 224.464 178.159 225.385 178.756 225.385Z" fill="#F4F2F2"/>
<path d="M188.629 225.635C189.218 225.635 189.225 224.715 188.629 224.715C188.033 224.715 188.033 225.635 188.629 225.635Z" fill="#F4F2F2"/>
<path d="M143.032 218.228C144.217 218.228 144.217 216.387 143.032 216.387C141.846 216.387 141.846 218.228 143.032 218.228Z" fill="#F4F2F2"/>
<path d="M158.994 217.624L159.075 217.543C159.163 217.462 159.23 217.359 159.266 217.249C159.325 217.138 159.347 217.021 159.347 216.895C159.347 216.77 159.325 216.652 159.266 216.542C159.23 216.432 159.163 216.329 159.075 216.248L158.891 216.1C158.751 216.019 158.589 215.975 158.427 215.975L158.184 216.005C158.03 216.049 157.89 216.13 157.779 216.24L157.698 216.321C157.61 216.402 157.544 216.505 157.507 216.616C157.448 216.726 157.426 216.844 157.426 216.969C157.426 217.094 157.448 217.212 157.507 217.322C157.544 217.433 157.61 217.536 157.698 217.617L157.882 217.764C158.022 217.845 158.184 217.889 158.346 217.889L158.589 217.86C158.744 217.816 158.884 217.735 158.994 217.624Z" fill="#F4F2F2"/>
<path d="M175.493 219.487C176.678 219.487 176.678 217.646 175.493 217.646C174.307 217.646 174.307 219.487 175.493 219.487Z" fill="#F4F2F2"/>
<path d="M187.636 219.797L188.056 219.878C188.181 219.914 188.299 219.922 188.424 219.892C188.549 219.892 188.66 219.848 188.763 219.782C188.873 219.723 188.954 219.642 189.021 219.546C189.102 219.458 189.16 219.355 189.183 219.23L189.212 218.987C189.212 218.817 189.168 218.663 189.087 218.523L188.94 218.339C188.822 218.228 188.689 218.147 188.535 218.103L188.115 218.022C187.99 217.985 187.872 217.978 187.747 218.007C187.622 218.007 187.511 218.052 187.408 218.118C187.298 218.177 187.217 218.258 187.15 218.353C187.069 218.442 187.011 218.545 186.988 218.67L186.959 218.913C186.959 219.082 187.003 219.237 187.084 219.377L187.231 219.561C187.349 219.671 187.482 219.752 187.636 219.797Z" fill="#F4F2F2"/>
<path d="M195.911 218.987C197.096 218.987 197.096 217.146 195.911 217.146C194.725 217.146 194.725 218.987 195.911 218.987Z" fill="#F4F2F2"/>
<path d="M194.304 126.209C195.085 129.765 197.625 132.688 200.253 135.074C201.557 136.259 203.051 137.371 204.796 137.776C205.606 137.967 206.74 138.159 207.403 137.503C208.109 136.804 207.837 135.736 207.277 135.044C206.548 134.131 205.223 134.757 205.164 135.847C205.098 137.076 206.335 137.459 207.336 137.297C207.83 137.216 208.102 136.605 207.977 136.163C207.837 135.641 207.336 135.442 206.843 135.523C206.541 135.501 206.563 135.722 206.917 136.2L206.512 136.436H206.482C206.217 136.281 205.952 136.127 205.687 135.972C205.79 136.104 206.018 136.325 205.959 136.48L206.195 136.075C206.276 136.112 206.261 136.119 206.151 136.104C206.092 136.104 206.026 136.104 205.967 136.104C205.827 136.104 205.694 136.082 205.554 136.06C205.245 136.009 204.943 135.92 204.656 135.817C204.075 135.611 203.537 135.302 203.029 134.956C201.939 134.22 200.997 133.277 200.084 132.335C198.265 130.45 196.646 128.315 196.071 125.716C195.821 124.56 194.039 125.046 194.297 126.202L194.304 126.209Z" fill="#F4F2F2"/>
<path d="M180.831 122.815C180.529 123.389 179.697 123.625 179.13 123.875C178.379 124.214 177.613 124.508 176.848 124.803C175.39 125.362 173.925 125.929 172.43 126.4C170.936 126.872 169.345 127.232 167.755 127.416C166.952 127.512 166.15 127.571 165.34 127.623C164.994 127.645 164.648 127.667 164.302 127.681C164.073 127.696 163.838 127.704 163.61 127.718C163.19 127.696 163.153 127.726 163.484 127.807L163.904 128.359C163.919 128.543 163.97 128.484 164.066 128.19C164.154 128.042 164.258 127.91 164.375 127.792C164.486 127.674 165.185 127.284 165.163 127.115L166.326 126.224L166.349 126.305C166.879 125.252 165.288 124.317 164.758 125.377C164.228 126.437 164.685 127.623 165.833 128.005C166.356 128.182 167.063 127.704 166.996 127.115C166.879 126.003 165.988 125.237 164.832 125.443C163.742 125.642 162.814 126.562 162.321 127.512C161.857 128.403 162.019 129.478 163.19 129.566C164.545 129.669 166.047 129.426 167.394 129.287C170.288 128.977 172.99 128.189 175.714 127.173C176.958 126.71 178.203 126.238 179.425 125.723C180.507 125.267 181.825 124.832 182.407 123.735C182.988 122.638 181.368 121.754 180.816 122.807L180.831 122.815Z" fill="#F4F2F2"/>
<path d="M115.045 176.025C116.231 176.025 116.231 174.184 115.045 174.184C113.86 174.184 113.86 176.025 115.045 176.025Z" fill="#F4F2F2"/>
<path d="M110.157 167.993C111.342 167.993 111.342 166.152 110.157 166.152C108.971 166.152 108.971 167.993 110.157 167.993Z" fill="#F4F2F2"/>
<path d="M115.68 161.845C116.865 161.845 116.865 160.004 115.68 160.004C114.495 160.004 114.495 161.845 115.68 161.845Z" fill="#F4F2F2"/>
<path d="M213.942 160.21C215.127 160.21 215.127 158.369 213.942 158.369C212.756 158.369 212.756 160.21 213.942 160.21Z" fill="#F4F2F2"/>
<path d="M222.975 163.847C224.16 163.847 224.16 162.007 222.975 162.007C221.79 162.007 221.79 163.847 222.975 163.847Z" fill="#F4F2F2"/>
<path d="M223.977 173.89C225.162 173.89 225.162 172.049 223.977 172.049C222.792 172.049 222.792 173.89 223.977 173.89Z" fill="#F4F2F2"/>
<path d="M144.35 181.724C144.416 181.724 144.483 181.731 144.549 181.739L144.306 181.709C144.483 181.731 144.652 181.783 144.814 181.849L144.593 181.753C144.718 181.805 144.836 181.871 144.939 181.945C145.042 182.011 145.16 182.048 145.278 182.055C145.403 182.085 145.521 182.077 145.646 182.041C145.764 182.011 145.867 181.96 145.962 181.879C146.066 181.812 146.139 181.724 146.198 181.621C146.309 181.407 146.367 181.15 146.294 180.914L146.198 180.693C146.117 180.553 146.007 180.443 145.867 180.362C145.646 180.215 145.396 180.104 145.145 180.023C144.895 179.942 144.615 179.905 144.35 179.891C144.225 179.891 144.107 179.913 143.997 179.972C143.886 180.008 143.783 180.075 143.702 180.163C143.614 180.244 143.547 180.347 143.511 180.458C143.452 180.568 143.43 180.686 143.43 180.811C143.437 181.047 143.518 181.297 143.702 181.459L143.886 181.606C144.026 181.687 144.188 181.731 144.35 181.731V181.724Z" fill="#F4F2F2"/>
<path d="M308.985 60.8817C316.754 81.6849 311.201 101.713 309.257 109.799C307.317 117.888 301.212 137.823 302.32 142.158C303.428 146.493 304.747 149.74 307.832 152.919C310.917 156.097 308.596 156.276 304.435 156.276H257.917C253.756 156.276 251.435 156.097 254.52 152.919C257.605 149.74 258.924 146.489 260.032 142.158C261.14 137.823 255.039 117.888 253.095 109.799C251.155 101.709 246.702 83.5602 254.471 62.7571C262.24 41.9539 301.212 40.0786 308.981 60.8777L308.985 60.8817Z" fill="#F5E7EE"/>
<path d="M309.163 62.6758C311.278 67.5305 312.662 72.8074 313.267 78.3278C313.6 81.0881 313.653 83.9051 313.608 86.7668C313.478 89.6244 313.267 92.5267 312.772 95.4453C312.317 98.2785 311.745 101.079 311.035 103.836C310.324 106.588 309.549 109.311 308.745 112.015C307.097 117.409 305.327 122.727 303.769 128.089C302.981 130.817 302.21 133.544 301.593 136.353C301.297 137.77 301.012 139.17 300.927 140.745C300.907 141.139 300.907 141.553 300.956 142.016C301.029 142.56 301.11 142.852 301.183 143.217C301.341 143.924 301.508 144.634 301.711 145.348C302.1 146.773 302.612 148.21 303.294 149.602C303.631 150.301 304.024 150.974 304.442 151.632C304.662 151.953 304.873 152.285 305.108 152.594L305.567 153.223C305.628 153.304 305.632 153.321 305.66 153.361L305.725 153.463C305.766 153.528 305.802 153.588 305.831 153.649C305.859 153.71 305.879 153.771 305.883 153.832C305.892 153.893 305.867 153.966 305.79 154.003C305.64 154.067 305.469 154.039 305.34 154.027C305.271 154.019 305.21 154.007 305.153 153.998C305.092 153.986 305.063 153.974 304.958 153.962C303.667 153.921 302.368 153.881 301.069 153.84C299.758 153.808 298.443 153.775 297.128 153.747C294.493 153.69 291.847 153.653 289.196 153.633C283.895 153.593 278.574 153.617 273.289 153.71C270.305 153.763 267.342 153.84 264.403 153.933C262.934 153.986 261.472 154.039 260.019 154.092C259.293 154.12 258.57 154.153 257.848 154.181C257.616 154.189 257.64 154.197 257.559 154.205L257.429 154.23C257.34 154.246 257.243 154.258 257.141 154.27C256.938 154.287 256.695 154.315 256.459 154.238C256.338 154.201 256.269 154.088 256.277 153.99C256.277 153.893 256.313 153.8 256.354 153.706C256.439 153.519 256.573 153.337 256.719 153.118L257.145 152.513C257.369 152.204 257.584 151.888 257.787 151.567C258.603 150.284 259.252 148.912 259.731 147.532C260.218 146.152 260.551 144.768 260.823 143.404C260.88 143.128 260.924 142.852 260.973 142.58L261.01 142.377L261.038 142.125C261.058 141.959 261.079 141.793 261.07 141.642C261.087 141.021 261.001 140.477 260.924 139.938C260.746 138.87 260.478 137.896 260.206 136.987C260.165 136.8 259.272 134.32 259.508 135.404C259.743 136.512 259.958 137.624 260.117 138.744C260.259 139.865 260.417 141.001 260.218 142.134C259.719 144.346 259.09 146.55 258.075 148.612C257.571 149.643 256.959 150.625 256.269 151.547L256.009 151.892L255.761 152.196C255.599 152.399 255.436 152.59 255.274 152.769C254.953 153.134 254.629 153.479 254.365 153.869C254.235 154.063 254.109 154.262 254.028 154.477C253.951 154.688 253.902 154.944 254.028 155.151C254.154 155.358 254.389 155.472 254.616 155.541C254.848 155.61 255.087 155.651 255.323 155.675C255.798 155.724 256.264 155.732 256.727 155.728C257.198 155.728 257.588 155.711 258.201 155.695L285.405 154.981L292.159 153.986C286.773 154.486 280.36 154.619 274.295 154.68C271.06 154.713 267.813 154.725 264.565 154.729H259.694L257.47 154.721C257.129 154.717 256.792 154.709 256.455 154.664C256.285 154.64 256.11 154.607 255.956 154.518C255.883 154.473 255.818 154.404 255.798 154.319C255.777 154.234 255.798 154.145 255.826 154.063C255.964 153.739 256.224 153.487 256.459 153.235L256.646 153.036L256.89 152.756L257.283 152.265C257.425 152.091 257.559 151.908 257.693 151.725C258.229 150.995 258.724 150.227 259.151 149.432C260.011 147.841 260.648 146.16 261.148 144.496C261.277 144.078 261.391 143.664 261.505 143.25L261.671 142.629C261.724 142.414 261.797 142.048 261.825 141.797C261.931 140.737 261.862 139.848 261.781 138.959C261.598 137.202 261.298 135.521 260.961 133.857C260.624 132.193 260.251 130.549 259.857 128.909C259.069 125.637 258.209 122.394 257.336 119.167C256.476 115.972 255.57 112.778 254.771 109.616C253.971 106.417 253.232 103.247 252.684 100.04C252.132 96.8376 251.759 93.6146 251.564 90.3835C251.349 87.1524 251.422 83.9173 251.609 80.7024C251.674 79.9069 251.738 79.1153 251.803 78.3278C251.86 77.5363 251.998 76.761 252.088 75.9776C252.254 74.4067 252.571 72.8724 252.843 71.3299C252.96 70.5546 253.171 69.8036 253.342 69.0446C253.52 68.2855 253.699 67.5265 253.878 66.7715C254.097 66.0246 254.316 65.2817 254.531 64.5389L254.856 63.4227C254.913 63.2359 254.961 63.0492 255.022 62.8666L255.225 62.3307C256.248 59.4528 257.925 56.8103 260.048 54.5656C262.162 52.3047 264.728 50.474 267.476 48.9965C273.654 45.7004 281.11 44.1295 288.746 45.0591C289.687 45.2174 290.649 45.3229 291.587 45.5665C292.058 45.6761 292.533 45.7816 293 45.9034C293.462 46.0455 293.925 46.1916 294.384 46.3337L295.07 46.5529L295.74 46.8208C296.182 46.9994 296.625 47.182 297.059 47.3566C297.481 47.5676 297.899 47.7787 298.317 47.9898C298.524 48.0953 298.727 48.2009 298.934 48.3064C299.133 48.4201 299.328 48.5459 299.519 48.6677C300.091 49.037 300.745 49.4145 301.305 49.8976C301.873 50.3644 302.429 50.7947 302.803 51.2452C303.582 52.1017 303.878 52.6456 303.115 52.3818C302.977 52.3331 303.115 52.4589 303.399 52.6659C303.671 52.8932 304.077 53.2301 304.499 53.5833C304.706 53.766 304.946 53.9243 305.133 54.1191C305.327 54.3058 305.51 54.4885 305.672 54.6468C306.001 54.9634 306.237 55.1907 306.273 55.2272C306.61 55.5439 306.939 55.9741 307.32 56.4003C307.503 56.6195 307.714 56.8265 307.881 57.066C308.051 57.3055 308.226 57.541 308.392 57.7723C309.115 58.6816 309.602 59.6111 309.979 60.0008C310.495 60.5772 310.661 60.4351 310.58 59.7978C310.539 59.4812 310.438 59.0388 310.284 58.507C310.243 58.3731 310.202 58.2351 310.162 58.093C310.109 57.955 310.048 57.8129 309.983 57.6668C309.853 57.3745 309.715 57.066 309.569 56.7413C309.297 56.0797 308.879 55.4343 308.457 54.7645C308.059 54.0744 307.523 53.4656 307.032 52.8405C306.013 51.6268 304.901 50.5958 304.024 49.9138C303.334 49.309 302.555 48.8463 301.804 48.3267C301.431 48.0669 301.021 47.8761 300.631 47.6488C300.233 47.4377 299.843 47.2023 299.433 47.0115C297.806 46.2525 296.133 45.5949 294.433 45.1565C291.035 44.231 287.581 43.8941 284.285 43.9753C280.843 44.0605 277.51 44.6248 274.315 45.5502C271.121 46.4879 268.06 47.8112 265.215 49.5647C262.264 51.3589 259.605 53.7132 257.511 56.5099L257.113 57.0295C256.991 57.2122 256.877 57.3989 256.76 57.5815L256.061 58.6897C255.838 59.0672 255.66 59.465 255.457 59.8547C255.266 60.2484 255.039 60.6219 254.897 61.0399C254.198 62.6555 253.78 64.3238 253.257 65.9759L253.066 66.605L252.908 67.2423L252.595 68.5169L252.278 69.7915L252.124 70.4287L252.002 71.0742L251.507 73.6517C251.414 74.0779 251.361 74.5163 251.3 74.9466L251.117 76.2455L250.935 77.5444C250.874 77.9788 250.85 78.4171 250.805 78.8515C250.732 79.7242 250.638 80.5969 250.578 81.4696L250.46 84.0959C250.431 84.5343 250.431 84.9727 250.436 85.4111V86.7262C250.452 90.2333 250.695 93.7404 251.158 97.2232C251.617 100.706 252.307 104.16 253.119 107.59C253.914 111.028 254.856 114.426 255.773 117.848C256.695 121.265 257.608 124.687 258.448 128.13C259.276 131.576 260.092 135.026 260.535 138.574C260.632 139.463 260.717 140.356 260.669 141.285C260.648 141.74 260.547 142.259 260.429 142.665C260.315 143.096 260.194 143.522 260.072 143.952C259.569 145.661 258.939 147.35 258.079 148.929C257.628 149.753 257.117 150.548 256.545 151.295C255.94 152.087 255.424 152.639 254.868 153.219C254.6 153.511 254.336 153.816 254.121 154.153C254.016 154.319 253.922 154.502 253.87 154.693C253.821 154.883 253.817 155.103 253.939 155.265C254.186 155.594 254.616 155.679 254.998 155.756C255.392 155.825 255.79 155.853 256.187 155.874C256.585 155.89 256.983 155.898 257.385 155.898H258.732C259.658 155.89 260.579 155.886 261.501 155.882C263.344 155.862 265.178 155.837 267.001 155.817C274.295 155.695 281.407 155.419 288.052 154.802C290.004 154.619 291.936 154.408 293.592 154.157C293.698 154.141 295.865 153.779 294.806 153.808L267.602 154.522L260.799 154.701L257.531 154.79C257.011 154.806 256.471 154.855 255.903 154.733C255.765 154.697 255.623 154.64 255.534 154.53C255.449 154.417 255.457 154.266 255.497 154.141C255.583 153.885 255.745 153.666 255.919 153.45L256.191 153.126L256.333 152.959L256.504 152.748L256.683 152.525L256.955 152.164C257.141 151.924 257.312 151.677 257.486 151.429C258.874 149.44 259.8 147.179 260.445 144.942C260.563 144.273 260.661 143.603 260.746 142.937L260.807 142.438C260.831 142.284 260.839 142.056 260.851 141.874C260.851 141.5 260.831 141.147 260.782 140.802C260.6 139.434 260.226 138.168 259.845 136.901C260.129 138.095 260.389 139.304 260.51 140.567C260.531 140.883 260.555 141.204 260.543 141.533C260.543 141.695 260.527 141.862 260.506 142.032C260.49 142.207 260.458 142.361 260.425 142.515C260.307 143.136 260.173 143.757 260.023 144.378C259.727 145.624 259.345 146.871 258.842 148.096C258.343 149.322 257.689 150.512 256.918 151.628L256.618 152.038L256.346 152.407C256.195 152.602 256.041 152.805 255.923 152.947C255.668 153.264 255.412 153.552 255.225 153.877C255.132 154.039 255.051 154.205 255.026 154.392C254.998 154.579 255.104 154.778 255.29 154.863C255.66 155.038 256.074 155.038 256.451 155.054C258.777 154.997 261.119 154.944 263.473 154.887C274.149 154.688 285.015 154.77 295.573 155.131C298.435 155.241 301.276 155.35 304.11 155.46L305.896 155.537C306.423 155.549 306.983 155.561 307.548 155.464C307.824 155.411 308.128 155.338 308.323 155.123C308.522 154.904 308.477 154.595 308.38 154.356C308.177 153.86 307.824 153.434 307.454 152.996C306.752 152.18 305.802 150.909 305.145 149.675C304.451 148.429 303.927 147.102 303.509 145.758C303.298 145.085 303.119 144.403 302.953 143.721C302.876 143.376 302.79 143.035 302.717 142.69L302.608 142.174C302.575 142.004 302.559 141.837 302.535 141.671C302.486 140.989 302.555 140.291 302.636 139.601C302.717 138.907 302.847 138.216 302.973 137.53C303.505 134.819 304.248 132.136 305.011 129.449C305.782 126.766 306.61 124.083 307.442 121.395C308.278 118.704 309.127 116.009 309.943 113.277L310.543 111.215L311.112 109.145C311.485 107.777 311.859 106.385 312.204 104.984C313.77 98.6601 314.627 92.3441 314.578 86.1904C314.521 80.0367 313.636 74.0536 311.879 68.4601C311.457 67.2464 311.01 66.0327 310.572 64.8961C310.077 63.7758 309.557 62.7448 309.086 61.8599C308.449 60.6665 308.335 60.7558 309.151 62.6717L309.163 62.6758Z" fill="#030406"/>
<path d="M250.067 89.726C251.296 92.953 252.884 96.0299 254.779 98.9403C255.733 100.389 256.78 101.786 257.909 103.117C258.465 103.791 259.07 104.42 259.67 105.057C260.3 105.666 260.913 106.291 261.586 106.86C262.244 107.464 262.966 108 263.669 108.556C264.403 109.072 265.122 109.604 265.897 110.054C266.644 110.549 267.452 110.939 268.235 111.373C269.055 111.735 269.847 112.157 270.695 112.449C272.351 113.135 274.097 113.578 275.838 113.975C277.6 114.292 279.382 114.548 281.176 114.6C284.955 114.755 288.787 114.414 292.391 113.261C293.305 113.009 294.173 112.636 295.058 112.295C295.492 112.104 295.915 111.893 296.341 111.694C296.775 111.503 297.185 111.268 297.595 111.037C298.435 110.598 299.215 110.058 300.006 109.543L301.147 108.694C301.532 108.414 301.877 108.09 302.243 107.789C305.121 105.317 307.516 102.289 309.415 98.9849C311.319 95.6808 312.793 92.125 313.771 88.419C313.99 87.5625 313.73 87.3027 313.414 87.4407C313.093 87.5706 312.679 88.0739 312.484 88.7721C311.477 92.332 309.992 95.7741 308.1 98.9362C307.15 100.515 306.091 102.021 304.918 103.422C304.617 103.763 304.333 104.124 304.021 104.453L303.079 105.443L302.089 106.381C301.76 106.697 301.398 106.969 301.058 107.27C299.653 108.41 298.167 109.449 296.564 110.282C296.174 110.509 295.752 110.675 295.35 110.874L294.741 111.162C294.534 111.252 294.323 111.329 294.112 111.41C293.69 111.568 293.276 111.743 292.85 111.893L291.555 112.295C291.129 112.445 290.682 112.53 290.244 112.636C289.802 112.729 289.367 112.859 288.921 112.928C288.024 113.062 287.135 113.249 286.225 113.302L284.866 113.423L283.498 113.456C282.584 113.509 281.671 113.431 280.758 113.407C277.287 113.241 273.886 112.461 270.703 111.175C267.533 109.859 264.615 107.964 262.061 105.638C260.771 104.457 259.569 103.182 258.453 101.83C257.345 100.479 256.334 99.0417 255.404 97.5642C253.553 94.597 252.015 91.4552 250.882 88.1673C250.639 87.4285 250.314 87.4204 250.099 87.8507C249.884 88.2647 249.807 89.0481 250.067 89.726Z" fill="#030406"/>
<path d="M287.282 80.0003C291.199 80.0003 291.207 73.9116 287.282 73.9116C283.357 73.9116 283.357 80.0003 287.282 80.0003Z" fill="#1B140D"/>
<path d="M275.145 80.3697C279.062 80.3697 279.07 74.281 275.145 74.281C271.22 74.281 271.22 80.3697 275.145 80.3697Z" fill="#1B140D"/>
<path d="M300.111 98.043C304.889 98.043 309.464 93.8418 309.244 88.9099C309.025 83.9781 305.23 79.7769 300.111 79.7769C295.334 79.7769 290.759 83.9781 290.978 88.9099C291.202 93.858 294.993 98.043 300.111 98.043Z" fill="#F2907B"/>
<path d="M262.475 97.8565C267.252 97.8565 271.827 93.6553 271.608 88.7234C271.384 83.7753 267.593 79.5903 262.475 79.5903C257.697 79.5903 253.122 83.7915 253.342 88.7234C253.561 93.6553 257.356 97.8565 262.475 97.8565Z" fill="#F2907B"/>
<path d="M264.124 52.8849C265.739 53.7333 267.355 54.6222 268.966 55.5559C269.368 55.7913 269.77 56.0308 270.176 56.2662C270.586 56.4854 271.146 57.0293 271.71 56.7533C271.844 56.7046 271.974 56.6396 272.1 56.5747L272.449 56.392L273.074 56.047C273.488 55.8156 273.902 55.5762 274.312 55.3326C275.1 54.8658 275.879 54.3868 276.646 53.8875C277.032 53.6399 277.413 53.3842 277.791 53.1285L279.09 52.2274C279.313 52.41 279.54 52.617 279.772 52.8159L280.417 53.3842L281.586 54.4193L283.717 56.3433L283.859 56.4732L283.928 56.5382C283.949 56.5219 283.969 56.4895 283.989 56.4692C284.111 56.319 284.241 56.1769 284.391 56.0551C284.468 55.9942 284.533 55.9374 284.622 55.8765C284.732 55.7953 284.85 55.7223 284.968 55.6533C285.434 55.3732 285.93 55.1621 286.433 54.9957C287.44 54.6588 288.45 54.4964 289.4 54.2163C289.64 54.1473 289.871 54.0702 290.098 53.989L290.269 53.9241L290.476 53.8348C290.618 53.7739 290.756 53.713 290.906 53.6765C291.052 53.6399 291.21 53.6359 291.353 53.6805C291.499 53.7252 291.629 53.8023 291.754 53.8875L292.432 54.3746L294.896 56.1769L297.295 57.9508C297.49 58.0766 297.734 58.1415 297.961 58.0847C298.188 58.0279 298.379 57.8736 298.529 57.695C298.838 57.3378 299.016 56.8751 299.211 56.4002C299.994 54.5248 300.928 52.7185 302.004 51.0177C302.511 50.2262 301.253 50.0435 300.806 50.7579C299.735 52.4993 298.801 54.3381 298.022 56.25C297.969 56.3839 297.936 56.4529 297.896 56.5422C297.863 56.6031 297.859 56.6072 297.839 56.6315C297.807 56.6721 297.774 56.7046 297.738 56.7289C297.66 56.7858 297.555 56.7533 297.502 56.6843L297.462 56.6396L297.453 56.6275L297.384 56.5747L297.234 56.461L296.634 56.0105L295.424 55.1175L292.997 53.3396L292.623 53.0717C292.424 52.9296 292.225 52.7835 292.01 52.686C291.592 52.479 291.093 52.4263 290.638 52.5359C290.407 52.5846 290.184 52.686 289.956 52.7875C289.814 52.8484 289.81 52.8484 289.749 52.8728L289.603 52.9255C289.408 52.9945 289.205 53.0595 288.99 53.1163C288.13 53.3599 287.123 53.5263 286.011 53.8997C285.459 54.0864 284.899 54.3259 284.342 54.6588C284.204 54.744 284.066 54.8333 283.932 54.9307C282.366 53.5222 280.795 52.1137 279.228 50.7092L277.109 52.1381C276.719 52.3978 276.334 52.6576 275.936 52.9052C275.148 53.4086 274.353 53.8916 273.541 54.3584C273.127 54.602 272.709 54.8333 272.287 55.0647L271.97 55.2392C271.921 55.2636 271.852 55.3001 271.824 55.3204L271.767 55.3651C271.686 55.4219 271.593 55.5031 271.479 55.5071C271.369 55.5071 271.28 55.4463 271.17 55.3975C271.154 55.3935 271.093 55.357 271.041 55.3245L270.886 55.2311L270.574 55.0444C270.156 54.7968 269.738 54.5492 269.324 54.3056C267.655 53.3314 265.979 52.41 264.306 51.5332C263.556 51.1395 263.454 52.5318 264.128 52.8849H264.124Z" fill="#030406"/>
<path d="M274.124 62.2632L262.898 64.6636C262.365 64.7775 262.026 65.3017 262.14 65.8344L262.254 66.3663C262.368 66.8991 262.892 67.2386 263.424 67.1246L274.65 64.7243C275.183 64.6103 275.522 64.0862 275.408 63.5534L275.294 63.0215C275.181 62.4888 274.656 62.1493 274.124 62.2632Z" fill="#247131"/>
<path d="M274.755 65.2122L263.529 67.6126C262.996 67.7265 262.657 68.2507 262.771 68.7834L262.884 69.3153C262.998 69.848 263.523 70.1875 264.055 70.0736L275.281 67.6732C275.813 67.5593 276.153 67.0351 276.039 66.5024L275.925 65.9705C275.811 65.4378 275.287 65.0983 274.755 65.2122Z" fill="#247131"/>
<path d="M286.349 65.7037L297.574 68.104C298.107 68.218 298.631 67.8784 298.745 67.3457L298.859 66.8138C298.973 66.2811 298.633 65.7569 298.101 65.643L286.875 63.2426C286.343 63.1287 285.818 63.4682 285.704 64.0009L285.591 64.5328C285.477 65.0655 285.816 65.5897 286.349 65.7037Z" fill="#247131"/>
<path d="M285.72 68.6526L296.946 71.053C297.478 71.1669 298.003 70.8274 298.116 70.2947L298.23 69.7628C298.344 69.2301 298.005 68.7059 297.472 68.592L286.246 66.1916C285.714 66.0777 285.189 66.4172 285.076 66.9499L284.962 67.4818C284.848 68.0145 285.187 68.5387 285.72 68.6526Z" fill="#247131"/>
<path d="M279.978 80.9824C280.627 82.8862 281.147 84.8467 281.464 86.8601C281.788 88.914 281.882 91.0085 281.898 93.0949C281.91 94.7754 281.886 96.4599 281.829 98.1404C281.801 98.9807 281.764 99.8209 281.715 100.657L281.553 103.125C282.04 103.024 282.527 102.922 283.014 102.821L284.577 102.504C285.072 102.407 284.488 101.351 284.061 101.432L283.339 101.574C283.185 101.611 283.185 101.595 283.136 101.599H283.022C282.88 101.599 282.779 101.587 282.706 101.57C282.738 101.428 282.767 101.315 282.795 101.225L282.836 101.108L282.844 101.083L282.852 100.937L282.868 100.617C282.917 99.7641 282.953 98.9157 282.986 98.0633C283.047 96.3585 283.075 94.6536 283.063 92.9488C283.051 90.8583 282.97 88.7679 282.661 86.7058C282.344 84.6153 281.813 82.5817 281.143 80.609C280.993 80.1665 279.832 80.5765 279.966 80.9743L279.978 80.9824Z" fill="#030406"/>
<path d="M270.869 51.2736C270.849 51.4116 270.812 51.5699 270.812 51.7201C270.812 51.7363 270.812 51.7526 270.812 51.7648C270.825 51.8744 270.837 52.0692 270.877 52.2113C270.898 52.2884 270.942 52.3777 270.971 52.4386C270.999 52.4995 271.028 52.5928 271.068 52.6578C271.068 52.6659 271.076 52.67 271.08 52.6781C271.08 52.6781 271.084 52.6862 271.089 52.6902C271.089 52.6902 271.089 52.6943 271.093 52.6984L271.332 53.0069C271.332 53.0069 271.352 53.0312 271.365 53.0393C271.47 53.1408 271.592 53.222 271.71 53.3072L272.075 53.4615C272.278 53.5264 272.481 53.5346 272.684 53.4899C272.822 53.4899 272.948 53.4534 273.069 53.3844C273.256 53.3235 273.423 53.2179 273.561 53.0677C273.646 52.9622 273.735 52.8567 273.812 52.743C273.816 52.7349 273.82 52.7268 273.824 52.7187C273.885 52.5928 273.938 52.4629 273.987 52.333C273.987 52.3249 273.991 52.3168 273.995 52.3087C273.999 52.3006 273.995 52.2925 273.999 52.2843L274.052 51.8784C274.052 51.8784 274.052 51.8744 274.052 51.8703C274.052 51.8703 274.052 51.8622 274.052 51.8581C274.056 51.7769 274.031 51.6633 274.023 51.6065C274.015 51.5496 274.011 51.4319 273.987 51.3548C273.987 51.3507 273.987 51.3467 273.983 51.3426C273.958 51.2817 273.93 51.2168 273.906 51.1559C273.881 51.095 273.853 51.0301 273.828 50.9692C273.828 50.9611 273.82 50.9529 273.816 50.9448C273.743 50.819 273.646 50.7053 273.548 50.5957C273.544 50.5917 273.536 50.5836 273.532 50.5795C273.431 50.4861 273.317 50.4049 273.203 50.3278C272.968 50.1898 272.708 50.1208 272.436 50.1208C272.225 50.1127 272.03 50.1573 271.852 50.2507C271.665 50.3116 271.498 50.4171 271.36 50.5673C271.174 50.7581 271.04 50.9814 270.971 51.2371C270.963 51.2817 270.955 51.3264 270.946 51.371C270.882 51.574 270.873 51.7769 270.918 51.9799C270.926 52.1829 270.987 52.3696 271.101 52.5441C271.198 52.7227 271.328 52.8648 271.494 52.9703C271.641 53.1043 271.815 53.1976 272.014 53.2423L272.42 53.2951C272.696 53.2951 272.952 53.2261 273.187 53.088L273.496 52.8486C273.682 52.6578 273.816 52.4345 273.885 52.1788C273.893 52.1341 273.902 52.0895 273.91 52.0448L271.673 52.9541C271.673 52.9541 271.677 52.9541 271.681 52.9582L271.373 52.7187C271.373 52.7187 271.401 52.743 271.413 52.7593L271.174 52.4508C271.174 52.4508 271.198 52.4832 271.206 52.5035L271.052 52.1382C271.06 52.1585 271.064 52.1788 271.068 52.2032L271.015 51.7972C271.015 51.8216 271.015 51.8459 271.015 51.8662L271.068 51.4603C271.068 51.4806 271.06 51.5009 271.052 51.5212L271.206 51.1559C271.206 51.1559 271.19 51.1884 271.178 51.2046L271.417 50.8961C272.03 50.819 272.647 50.7419 273.26 50.6607C273.26 50.6607 273.256 50.6607 273.252 50.6566L273.561 50.8961C273.54 50.8799 273.52 50.8596 273.504 50.8393L273.743 51.1478C273.727 51.1234 273.711 51.0991 273.699 51.0747L273.853 51.44C273.841 51.4116 273.833 51.3832 273.828 51.3548L273.881 51.7607C273.881 51.7323 273.877 51.7039 273.881 51.6755L273.828 52.0814C273.893 51.8744 273.902 51.6714 273.857 51.4684C273.849 51.2655 273.788 51.0788 273.674 50.9042C273.577 50.7256 273.447 50.5836 273.28 50.478C273.134 50.3441 272.96 50.2507 272.761 50.2061L272.355 50.1533C272.079 50.1533 271.823 50.2223 271.588 50.3603L271.279 50.5998C271.093 50.7906 270.959 51.0138 270.89 51.2695L270.869 51.2736Z" fill="#494193"/>
<path d="M284.436 53.3764C285.231 53.3764 285.994 52.6782 285.958 51.8542C285.921 51.0302 285.288 50.332 284.436 50.332C283.64 50.332 282.877 51.0302 282.913 51.8542C282.95 52.6782 283.583 53.3764 284.436 53.3764Z" fill="#494193"/>
<path d="M297.197 54.4155C297.993 54.4155 298.756 53.7173 298.719 52.8933C298.683 52.0693 298.05 51.3711 297.197 51.3711C296.402 51.3711 295.639 52.0693 295.675 52.8933C295.712 53.7173 296.345 54.4155 297.197 54.4155Z" fill="#494193"/>
<path d="M264.74 56.3355C266.047 56.3355 266.047 54.3059 264.74 54.3059C263.433 54.3059 263.433 56.3355 264.74 56.3355Z" fill="#F2907B"/>
<path d="M278.611 57.3055C279.918 57.3055 279.918 55.2759 278.611 55.2759C277.304 55.2759 277.304 57.3055 278.611 57.3055Z" fill="#F2907B"/>
<path d="M290.053 58.6248C291.36 58.6248 291.36 56.5952 290.053 56.5952C288.746 56.5952 288.746 58.6248 290.053 58.6248Z" fill="#F2907B"/>
<path d="M302.816 57.0296C304.123 57.0296 304.123 55 302.816 55C301.509 55 301.509 57.0296 302.816 57.0296Z" fill="#F2907B"/>
<path d="M283.628 46.8573C283.628 46.8573 278.656 47.4053 277.71 47.3891C276.764 47.3728 276.922 41.7956 278.104 41.7469C279.285 41.6982 287.237 41.4018 287.927 41.4221C288.617 41.4424 289.477 46.9913 286.932 46.9913C284.387 46.9913 283.628 46.8533 283.628 46.8533V46.8573Z" fill="#441E18"/>
<path d="M282.694 46.1633C281.561 46.4474 280.405 46.7113 279.231 46.9426L278.347 47.105L277.904 47.174C277.782 47.1902 277.673 47.2227 277.547 47.2105C277.425 47.1821 277.352 47.0685 277.291 46.9629C277.234 46.8574 277.182 46.7275 277.141 46.5773C277.056 46.2891 277.003 45.9887 276.966 45.6843C276.893 45.0632 276.881 44.43 276.93 43.7927C276.954 43.4761 276.999 43.1595 277.068 42.8429C277.145 42.5222 277.226 42.2218 277.433 41.9052C277.543 41.7591 277.697 41.6211 277.888 41.6048C278.087 41.5845 278.237 41.5845 278.395 41.5724L279.349 41.5277L281.257 41.4506L285.292 41.3288L287.309 41.2842C287.48 41.2842 287.691 41.2598 287.873 41.3085C288.048 41.4019 288.137 41.5927 288.218 41.7713C288.36 42.1285 288.421 42.4451 288.478 42.7861C288.58 43.4599 288.6 44.1459 288.515 44.8197C288.425 45.4813 288.239 46.1876 287.723 46.6585C287.463 46.8817 287.126 46.9954 286.794 46.9873C286.461 46.9792 286.124 46.9629 285.791 46.9467C285.125 46.9102 284.456 46.8655 283.798 46.7803C283.502 46.7397 283.408 46.8614 283.453 47.0197C283.502 47.1781 283.709 47.3567 283.977 47.3851C284.659 47.4622 285.328 47.5028 286.002 47.5353L286.505 47.5556L286.757 47.5637C286.871 47.5596 286.984 47.5596 287.098 47.5434C287.565 47.4865 288.028 47.2186 288.324 46.8696C288.9 46.1551 289.034 45.3758 289.115 44.6492C289.18 43.9145 289.144 43.196 289.01 42.4654C288.977 42.2827 288.933 42.1001 288.88 41.9093L288.835 41.7672L288.811 41.6941L288.766 41.5845C288.71 41.4344 288.632 41.2964 288.551 41.1624C288.381 40.9026 288.105 40.72 287.804 40.6956C287.666 40.6834 287.5 40.6956 287.386 40.6956H287.135L285.117 40.7443L281.078 40.862L279.158 40.9351L278.2 40.9797H278.083C278.018 40.9919 277.932 40.9879 277.859 41C277.713 41.0366 277.555 41.0487 277.425 41.134C277.157 41.2761 276.95 41.5318 276.808 41.7834C276.605 42.1812 276.52 42.5344 276.447 42.8835C276.378 43.2285 276.341 43.5695 276.317 43.9064C276.272 44.5802 276.289 45.2418 276.378 45.9116C276.427 46.2526 276.491 46.5895 276.613 46.9467C276.699 47.1781 276.804 47.4297 276.979 47.5961C277.068 47.6773 277.165 47.7585 277.283 47.7869C277.393 47.8356 277.523 47.8072 277.64 47.8194C277.746 47.8235 277.912 47.8032 277.973 47.795L278.213 47.7585L278.683 47.6814L279.609 47.5109C280.835 47.2714 282.032 46.9954 283.209 46.6991C283.737 46.5651 283.177 46.0415 282.702 46.1633H282.694Z" fill="black"/>
<path d="M281.825 40.996C281.821 40.9676 281.812 40.9595 281.808 40.9189L281.792 40.7849L281.76 40.5251C281.735 40.3587 281.719 40.1923 281.695 40.0421C281.423 39.9528 281.147 39.8757 280.932 39.7864C280.806 39.7498 280.68 39.7052 280.558 39.6565C280.315 39.555 280.075 39.4211 279.86 39.2546C279.645 39.0923 279.45 38.8893 279.308 38.6458C279.166 38.4063 279.056 38.1262 279.048 37.8299C279.028 37.4808 279.174 37.1155 279.409 36.8313C279.645 36.5431 279.953 36.3199 280.278 36.1413C280.932 35.7881 281.65 35.577 282.401 35.508C283.128 35.4674 283.838 35.6055 284.5 35.8815C285.153 36.1534 285.77 36.604 286.131 37.2413C286.497 37.8705 286.493 38.7229 286.05 39.2912C285.839 39.5753 285.555 39.7904 285.255 39.9528C284.95 40.1152 284.642 40.2329 284.256 40.3222C284.203 40.5942 284.219 40.9635 284.195 41.2396C284.175 41.5846 284.763 41.3979 284.78 41.1015L284.788 40.9189L284.8 40.8499C284.812 40.8093 284.808 40.7606 284.828 40.7362L284.922 40.724L284.962 40.7159C284.962 40.7159 284.979 40.7159 285.035 40.6916C285.206 40.6307 285.397 40.5414 285.571 40.444C285.924 40.2491 286.273 39.9812 286.549 39.5956C286.825 39.2181 286.984 38.7148 286.98 38.2358C286.98 37.7649 286.842 37.29 286.606 36.8963C286.127 36.1047 285.393 35.6217 284.646 35.3132C284.268 35.163 283.878 35.0575 283.481 34.9885C283.282 34.9601 283.083 34.9316 282.88 34.9276C282.693 34.9113 282.437 34.9195 282.243 34.9398C281.411 35.0372 280.651 35.2523 279.913 35.6704C279.547 35.8815 279.186 36.1453 278.886 36.5228C278.585 36.8882 278.382 37.4402 278.439 37.9395C278.508 38.7066 278.939 39.3196 279.426 39.7133C279.921 40.1071 280.477 40.3425 281.033 40.4643C281.122 40.6713 281.163 41.0082 281.236 41.2558C281.313 41.5602 281.894 41.2761 281.825 41.0041V40.996Z" fill="black"/>
<path d="M280.267 34.3551C280.722 34.3754 281.14 34.4485 281.485 34.5946C281.838 34.7448 282.114 34.9721 282.35 35.2359C282.597 35.512 282.825 35.8042 283.023 36.1168C283.226 36.4212 283.393 36.7825 283.446 37.1437L283.515 37.0991C283.515 37.0991 283.506 37.091 283.506 37.0869C283.506 37.0869 283.502 37.1113 283.502 37.1031C283.486 37.1234 283.385 37.1316 283.344 37.1924C283.287 37.2533 283.332 37.4238 283.474 37.4928C283.539 37.5253 283.616 37.5456 283.718 37.5212C283.811 37.5009 283.957 37.4035 284.006 37.2087C284.014 37.1843 284.018 37.1559 284.018 37.1275V37.1153L283.977 36.9083C283.884 36.4618 283.681 36.0599 283.478 35.7514C283.267 35.4308 283.036 35.1223 282.78 34.8381C282.536 34.5621 282.272 34.3389 281.923 34.1806C281.57 34.0223 281.14 33.9451 280.669 33.9248C280.564 33.9208 280.178 34.3592 280.275 34.3632L280.267 34.3551Z" fill="black"/>
<path d="M282.572 33.1821C282.633 33.6529 282.747 34.0223 282.779 34.347C282.811 34.6758 282.755 34.964 282.641 35.2482C282.397 35.8449 281.923 36.3401 281.35 36.6283C281.285 36.6607 281.732 37.0504 281.793 37.0139C282.41 36.677 282.913 36.1209 283.189 35.4674C283.319 35.1629 283.38 34.8747 283.343 34.5703C283.311 34.2577 283.177 33.9208 283.083 33.4784C283.063 33.3769 282.564 33.0765 282.572 33.1821Z" fill="black"/>
<path d="M283.34 34.6068C283.015 32.216 282.755 29.7561 282.597 27.2273C282.435 24.6457 282.386 22.0194 282.382 19.4012C282.366 13.8646 282.475 8.32789 282.686 2.82775C282.711 2.19858 282.122 2.51925 282.102 3.06318C281.891 8.54709 281.785 14.0635 281.793 19.5798C281.797 22.2021 281.838 24.8283 281.996 27.4181C282.155 30.0403 282.423 32.5975 282.755 35.0695C282.833 35.6256 283.413 35.1101 283.344 34.6109L283.34 34.6068Z" fill="black"/>
<path d="M261.956 135.643C262.763 134.746 263.583 133.853 264.416 132.96C264.834 132.513 265.252 132.067 265.674 131.62L266.311 130.951L266.632 130.618C266.664 130.585 266.681 130.565 266.689 130.553L266.729 130.504L266.814 130.398L267.005 130.179C267.07 130.106 267.139 130.013 267.241 129.989C267.342 129.968 267.423 130.029 267.496 130.078L267.736 130.248C267.821 130.309 267.902 130.374 267.992 130.443L268.341 130.744L269.035 131.365C269.96 132.205 270.878 133.082 271.864 133.885C272.871 134.697 273.955 135.444 275.152 135.895C275.424 136.008 275.704 136.081 275.972 136.162C276.106 136.199 276.248 136.24 276.382 136.195C276.52 136.146 276.585 135.996 276.638 135.866C276.743 135.598 276.837 135.334 276.926 135.075L277.234 134.153C277.441 133.532 277.652 132.903 277.928 132.29C277.993 132.144 278.075 131.969 278.172 131.791C278.261 131.612 278.363 131.442 278.468 131.279C278.675 130.942 278.919 130.646 279.175 130.366C279.309 130.232 279.438 130.09 279.581 129.96L279.796 129.761L279.848 129.713C279.848 129.713 279.885 129.668 279.897 129.704L279.978 129.818L280.616 130.735L281.785 132.635L283.189 134.937L283.786 135.919C283.879 136.061 283.952 136.215 284.058 136.349C284.111 136.414 284.18 136.475 284.261 136.499C284.342 136.524 284.435 136.499 284.5 136.447C284.703 136.26 284.89 136.049 285.085 135.85L285.771 135.136L287.297 133.552L288.921 131.876L289.375 131.409L289.603 131.178L289.716 131.064L289.773 131.007L289.801 130.979L289.814 130.963C289.814 130.963 289.822 130.971 289.826 130.975C290.114 131.312 290.394 131.645 290.666 131.982C291.238 132.692 291.632 133.228 292.058 133.849C292.476 134.458 292.874 135.079 293.248 135.712C293.434 136.029 293.613 136.349 293.788 136.674L294.043 137.161L294.266 137.603C294.413 137.9 294.559 138.208 294.697 138.521L294.908 139L295.013 139.243L295.038 139.304L295.05 139.337C295.05 139.337 295.058 139.32 295.066 139.312L295.127 139.207C295.846 137.879 297.226 136.694 298.557 135.671C299.231 135.152 299.913 134.648 300.578 134.109C300.911 133.849 301.236 133.54 301.553 133.305C301.715 133.191 301.881 133.106 302.048 133.078C302.21 133.045 302.352 133.09 302.482 133.179C302.661 133.321 302.71 133.378 302.807 133.479C302.888 133.573 303.002 133.69 303.18 133.609C303.27 133.573 303.367 133.467 303.416 133.297C303.465 133.13 303.452 132.903 303.367 132.7C303.193 132.298 302.807 131.929 302.149 131.913C302.088 131.913 302.019 131.917 301.967 131.925L301.825 131.945C301.731 131.965 301.638 131.986 301.553 132.018C301.378 132.075 301.224 132.152 301.09 132.233C300.822 132.396 300.627 132.566 300.461 132.708C300.156 132.972 299.868 133.207 299.556 133.455L297.632 134.933C296.978 135.444 296.316 135.988 295.687 136.617L295.569 136.739C295.529 136.784 295.541 136.767 295.525 136.784L295.472 136.828C295.44 136.857 295.407 136.885 295.383 136.913C295.326 136.97 295.281 137.023 295.249 137.068C295.233 137.116 295.22 137.031 295.208 137.007L295.172 136.897L295.107 136.706L295.091 136.666L295.082 136.646V136.637L295.066 136.605L294.798 136.102C294.616 135.765 294.429 135.436 294.238 135.103C293.852 134.445 293.438 133.8 293.008 133.171C292.793 132.854 292.57 132.546 292.342 132.237L292.172 132.006L292.071 131.872L291.912 131.673C291.697 131.405 291.49 131.137 291.263 130.873L289.891 129.262C289.891 129.262 289.875 129.242 289.87 129.238L289.846 129.262L289.801 129.307L289.708 129.4L289.525 129.583L289.156 129.952C288.912 130.2 288.665 130.443 288.417 130.703L286.449 132.741L284.922 134.324L284.541 134.721C284.447 134.819 284.492 134.77 284.48 134.782H284.472C284.472 134.782 284.472 134.774 284.472 134.77L284.106 134.165L282.613 131.714L281.837 130.447L281.326 129.611L281.196 129.404C281.151 129.343 281.107 129.303 281.066 129.25L280.802 128.949L280.279 128.349L280.019 128.048L279.986 128.012C279.986 128.012 279.958 128.032 279.946 128.044L279.865 128.117L279.702 128.267C279.256 128.669 278.862 129.027 278.452 129.416C278.253 129.619 278.058 129.855 277.868 130.082C277.693 130.346 277.498 130.581 277.344 130.865L277.108 131.287C277.027 131.417 276.95 131.596 276.922 131.657C276.841 131.827 276.763 131.998 276.699 132.164C276.418 132.838 276.207 133.492 276 134.1L275.846 134.551L275.814 134.644C275.814 134.644 275.814 134.652 275.814 134.657V134.677C275.814 134.705 275.814 134.738 275.797 134.774C275.777 134.803 275.745 134.795 275.712 134.799C275.696 134.799 275.672 134.799 275.655 134.799H275.643L275.55 134.762C275.485 134.738 275.42 134.717 275.359 134.685C274.852 134.458 274.356 134.178 273.865 133.857C273.382 133.524 272.899 133.163 272.432 132.765C271.474 131.961 270.549 131.056 269.571 130.171L268.795 129.485C268.617 129.315 268.43 129.181 268.247 129.051C268.065 128.925 267.89 128.767 267.712 128.677C267.541 128.596 267.306 128.548 267.107 128.625C266.912 128.694 266.75 128.815 266.575 128.949C266.405 129.087 266.242 129.258 266.084 129.408L265.852 129.635L265.686 129.81C263.904 131.653 262.179 133.508 260.503 135.363C259.752 136.199 261.29 136.414 261.964 135.667L261.956 135.643Z" fill="#1B140D"/>
<path d="M267.286 139.109C271.203 139.109 271.211 133.021 267.286 133.021C263.36 133.021 263.36 139.109 267.286 139.109Z" fill="#494193"/>
<path d="M280.323 140.315C284.24 140.315 284.248 134.226 280.323 134.226C276.398 134.226 276.398 140.315 280.323 140.315Z" fill="#494193"/>
<path d="M289.196 140.774C293.113 140.774 293.121 134.685 289.196 134.685C285.271 134.685 285.271 140.774 289.196 140.774Z" fill="#494193"/>
<path d="M298.497 142.373C301.438 142.373 301.444 137.219 298.497 137.219C295.55 137.219 295.55 142.373 298.497 142.373Z" fill="#494193"/>
<path d="M262.475 130.768C265.414 130.768 265.418 126.201 262.475 126.201C259.532 126.201 259.532 130.768 262.475 130.768Z" fill="#F2907B"/>
<path d="M273.387 131.413C276.326 131.413 276.33 126.847 273.387 126.847C270.444 126.847 270.444 131.413 273.387 131.413Z" fill="#F2907B"/>
<path d="M284.854 131.044C287.792 131.044 287.797 126.478 284.854 126.478C281.911 126.478 281.911 131.044 284.854 131.044Z" fill="#F2907B"/>
<path d="M295.578 132.339C298.517 132.339 298.521 127.772 295.578 127.772C292.635 127.772 292.635 132.339 295.578 132.339Z" fill="#F2907B"/>
</svg>
