<svg width="405" height="333" viewBox="0 0 405 333" fill="none" xmlns="http://www.w3.org/2000/svg">
<g clip-path="url(#clip0_508_17855)">
<path d="M301.559 391.888C301.559 391.888 327.211 406.025 351.854 415.395C376.497 424.765 399.237 378.407 375.155 365.54C351.072 352.674 182.449 270.643 145.81 252.446C109.171 234.248 115.779 220.109 127.657 214.797C145.437 206.859 216.395 240.007 230.967 251.397C244.272 261.783 268.284 225.035 255.198 208.167C242.113 191.298 120.341 129.806 83.1469 189.826C54.0977 236.709 75.7483 287.314 110.609 303.607C122.233 309.04 251.549 368.784 290.506 386.786C297.477 390.012 301.559 391.888 301.559 391.888Z" fill="#EADACB"/>
<path d="M292.495 387.7C292.495 387.7 375.241 401.945 372.416 364.102L339.806 347.724C339.806 347.724 320.485 396.834 264.732 371.187C208.979 345.54 292.495 387.7 292.495 387.7Z" fill="#891812"/>
<path d="M235.915 361.255C235.915 361.255 318.661 375.501 315.836 337.658L283.226 321.28C283.226 321.28 263.905 370.39 208.152 344.743C152.399 319.096 235.915 361.255 235.915 361.255Z" fill="#891812"/>
<path d="M182.38 336.235C182.38 336.235 265.126 350.48 262.301 312.638L229.691 296.26C229.691 296.26 210.37 345.369 154.617 319.722C98.8638 294.075 182.38 336.235 182.38 336.235Z" fill="#891812"/>
<path d="M115.873 305.151C115.873 305.151 198.618 319.397 195.794 281.554L163.183 265.176C163.183 265.176 138.289 317.428 88.9369 280.956C68.1611 265.609 115.873 305.151 115.873 305.151Z" fill="#891812"/>
<path d="M78.6234 266.062C78.6234 266.062 71.6436 252.11 72.2088 246.137C72.774 240.164 72.0535 221.874 72.0535 221.874C72.0535 221.874 99.8121 245.727 119.952 238.007C119.952 238.007 127.842 245.721 132.049 247.498C136.256 249.275 146.72 255.365 146.72 255.365C146.72 255.365 117.75 281.538 78.6173 266.075L78.6234 266.062Z" fill="#891812"/>
<path d="M121.112 218.292C121.112 218.292 79.0283 213.434 88.6629 185.488C88.6629 185.488 97.3663 174.839 101.414 173.51C105.462 172.181 120.072 168.319 120.072 168.319C120.072 168.319 101.907 185.63 111.488 193.14C121.068 200.649 138.534 211.828 138.534 211.828L121.093 218.298L121.112 218.292Z" fill="#891812"/>
<path d="M160.34 169.091C160.34 169.091 137.742 171.935 138.187 185.644C138.633 199.353 153.754 213.589 153.754 213.589C153.754 213.589 163.867 214.383 169.183 217.673C174.498 220.963 185.888 225.48 185.888 225.48C185.888 225.48 160.19 208.433 161.579 192.961C162.968 177.488 185.546 175.534 185.546 175.534L160.34 169.091Z" fill="#891812"/>
<path d="M209.972 185.435C209.972 185.435 183.205 189.662 183.651 203.371C184.097 217.08 198.819 230.008 198.819 230.008C198.819 230.008 206.894 235.298 212.21 238.588C217.525 241.878 232.962 251.114 232.962 251.114C232.962 251.114 205.654 226.161 207.049 210.675C208.444 195.19 228.996 194.326 228.996 194.326L209.959 185.429L209.972 185.435Z" fill="#891812"/>
<path d="M240.229 251.683C240.229 251.683 230.533 234.488 237.831 226.34C245.128 218.192 253.392 213.18 253.392 213.18L253.67 227.553L249.102 240.198" fill="#891812"/>
<path d="M320.736 407.783C330.444 412.115 340.201 416.17 350.498 419.782C353.56 420.866 356.961 421.224 360.21 420.895C363.472 420.572 366.593 419.536 369.344 418.074C372.115 416.606 374.509 414.693 376.649 412.614C378.769 410.511 380.635 408.209 382.188 405.729C385.328 400.802 387.474 395.299 388.395 389.476C389.279 383.7 388.823 377.376 385.886 371.803C384.449 369.032 382.274 366.625 379.8 364.79C379.493 364.568 379.186 364.314 378.873 364.104L377.885 363.516C377.235 363.149 376.532 362.694 375.956 362.441L372.312 360.643C367.442 358.257 362.588 355.94 357.701 353.625C318.611 335.166 278.976 316.452 238.797 297.484C218.342 287.735 197.802 277.93 177.192 268.107C166.911 263.144 156.617 258.175 146.31 253.2C141.163 250.7 136.006 248.084 131.191 244.839C128.787 243.226 126.443 241.483 124.322 239.434C122.239 237.371 120.226 235.056 119.212 232.056C118.718 230.578 118.528 228.926 118.812 227.337C119.083 225.743 119.8 224.278 120.72 223.018C122.586 220.512 125.087 218.775 127.653 217.306C128.965 216.593 130.202 215.907 131.686 215.401L132.796 215.02C133.177 214.913 133.547 214.865 133.929 214.791L135.056 214.576C135.426 214.528 135.809 214.517 136.186 214.488C139.182 214.262 142.132 214.504 145.011 214.965C150.8 215.823 156.384 217.423 161.896 219.178C167.395 220.958 172.812 222.985 178.161 225.153C188.849 229.517 199.301 234.418 209.534 239.753C214.648 242.427 219.713 245.205 224.681 248.19C227.153 249.693 229.612 251.221 232.006 252.924L233.781 254.228C234.301 254.534 234.773 254.944 235.347 255.101C236.421 255.572 237.621 255.675 238.81 255.394C240.07 255.13 241.323 254.578 242.46 253.768C243.636 253.007 244.679 252.026 245.695 251.001C247.687 248.9 249.377 246.468 250.845 243.902C253.749 238.769 255.793 233.077 256.785 227.272C257.74 221.513 257.641 215.34 255.068 210.269L254.576 209.328C254.402 209.026 254.183 208.75 253.99 208.454C253.603 207.863 253.192 207.324 252.705 206.812C251.743 205.762 250.63 204.8 249.491 203.857C247.195 201.979 244.737 200.245 242.223 198.597C232.111 192.055 221.285 186.569 210.214 181.742C199.118 176.935 187.715 172.853 176.055 169.693C164.408 166.571 152.471 164.339 140.44 163.864C128.473 163.387 116.225 164.626 105.248 169.396C102.535 170.607 99.8836 171.989 97.3921 173.603C94.9143 175.256 92.5756 177.084 90.4088 179.119C88.2877 181.191 86.2859 183.413 84.5448 185.821C83.6679 187.022 82.8496 188.265 82.0642 189.541L79.7736 193.428C73.9592 203.943 70.1587 215.588 69.0802 227.558C66.8021 251.521 76.133 276.457 94.219 292.457C98.746 296.42 103.782 299.801 109.189 302.422L125.635 310.14C136.606 315.283 147.576 320.426 158.528 325.576C202.353 346.202 246.115 366.796 289.811 387.361C309.803 396.784 301.264 388.261 284.085 380.153C240.544 359.661 196.925 339.133 153.255 318.58C142.336 313.462 131.405 308.337 120.479 303.199L112.276 299.365C110.863 298.705 109.72 298.076 108.436 297.444C107.209 296.76 106.006 296.056 104.816 295.325C100.09 292.295 95.7561 288.628 91.9215 284.467C84.3275 276.086 78.6565 265.888 75.6538 254.947C72.6 244.015 72.0753 232.4 74.1091 221.224C76.092 210.056 80.6888 199.24 86.8698 189.765C87.5878 188.601 88.469 187.56 89.2846 186.457C90.1856 185.441 91.0211 184.363 92.0007 183.416C93.8685 181.446 95.9471 179.702 98.1517 178.127C100.349 176.533 102.72 175.178 105.203 173.986C107.661 172.781 110.259 171.817 112.932 170.997C123.61 167.746 135.317 167.359 146.872 168.449C158.458 169.537 170.026 172.118 181.335 175.524C192.65 178.949 203.752 183.238 214.513 188.22C219.885 190.714 225.19 193.384 230.329 196.275C235.46 199.147 240.502 202.245 245.026 205.607C247.214 207.277 249.471 209.137 250.483 210.621C251.659 212.26 252.463 214.357 252.877 216.714C253.694 221.453 252.988 226.95 251.423 232.124C249.857 237.298 247.4 242.387 244.229 246.4C242.675 248.373 240.828 250.131 239.266 250.87C238.864 251.124 238.545 251.164 238.222 251.313C237.947 251.327 237.681 251.424 237.527 251.383C237.167 251.341 236.911 251.348 236.415 250.958L236.324 250.916L236.089 250.743L235.612 250.378L234.639 249.655L232.729 248.336C231.466 247.492 230.209 246.668 228.94 245.902C226.409 244.324 223.868 242.836 221.321 241.393C216.214 238.501 211.048 235.771 205.833 233.144C195.392 227.917 184.756 223.104 173.785 218.908C168.29 216.813 162.717 214.887 156.946 213.28C154.046 212.493 151.14 211.751 148.098 211.197C145.057 210.644 141.973 210.182 138.594 210.182C137.774 210.146 136.898 210.195 136.011 210.269L134.688 210.362L133.28 210.604L131.873 210.878L130.376 211.378C129.92 211.544 129.304 211.746 128.976 211.908L127.882 212.423C124.989 213.85 122.078 215.553 119.35 218.178C118.003 219.506 116.702 221.109 115.745 223.156C114.787 225.172 114.289 227.655 114.504 229.966C114.7 232.284 115.446 234.37 116.381 236.086C117.328 237.776 118.405 239.29 119.571 240.545C121.866 243.134 124.351 245.148 126.882 246.963C129.413 248.777 131.984 250.405 134.602 251.865C137.201 253.364 139.855 254.715 142.494 256.028L150.235 259.803C160.568 264.79 170.875 269.766 181.188 274.728C201.831 284.581 222.403 294.417 242.891 304.198C284.481 323.999 325.685 343.241 366.078 362.561C368.612 363.761 371.09 365.014 373.592 366.247C376.012 367.457 378.09 368.854 379.799 370.806C383.241 374.657 384.519 380.133 384.263 385.445C384.033 390.801 382.343 396.107 379.795 400.884C377.207 405.643 373.609 409.93 369.068 412.956C366.784 414.43 364.247 415.534 361.58 416.072C358.913 416.61 356.108 416.53 353.44 415.852C352.1 415.51 350.801 415.045 349.528 414.56C348.229 414.096 346.944 413.637 345.663 413.133C343.097 412.171 340.542 411.15 338 410.136C327.837 406.002 317.87 401.517 308.068 396.778C299.277 392.48 298.407 393.226 301.731 396.216C305.06 399.162 312.647 404.145 320.754 407.744L320.736 407.783Z" fill="#891812"/>
</g>
<g clip-path="url(#clip1_508_17855)">
<path d="M257.426 383.362C257.426 383.362 242.74 408.704 226.461 429.442C210.182 450.18 166.789 422.193 180.785 398.749C194.781 375.305 296.931 218.054 318.934 183.566C340.937 149.077 327.983 140.373 315.068 141.948C295.741 144.318 252.047 209.316 245.438 226.59C239.397 242.351 199.872 223.253 202.381 202.052C204.891 180.851 277.498 65.3614 340.32 97.5969C389.389 122.78 396.942 177.301 375.48 209.24C368.324 219.89 288.352 337.773 264.263 373.289C259.954 379.649 257.426 383.362 257.426 383.362Z" fill="#EADACB"/>
<path d="M263.03 375.098C263.03 375.098 199.489 429.982 182.39 396.105L201.88 365.253C201.88 365.253 243.762 397.361 278.298 346.632C312.834 295.903 263.03 375.098 263.03 375.098Z" fill="#891812"/>
<path d="M297.864 323.259C297.864 323.259 234.323 378.143 217.224 344.266L236.714 313.414C236.714 313.414 278.596 345.522 313.132 294.793C347.668 244.064 297.864 323.259 297.864 323.259Z" fill="#891812"/>
<path d="M330.823 274.211C330.823 274.211 267.282 329.095 250.183 295.217L269.673 264.366C269.673 264.366 311.555 296.473 346.091 245.744C380.627 195.015 330.823 274.211 330.823 274.211Z" fill="#891812"/>
<path d="M371.769 213.277C371.769 213.277 308.227 268.161 291.128 234.283L310.618 203.432C310.618 203.432 358.897 235.357 382.366 178.656C392.249 154.792 371.769 213.277 371.769 213.277Z" fill="#891812"/>
<path d="M383.518 160.576C383.518 160.576 382.302 145.023 378.737 140.198C375.172 135.372 366.355 119.331 366.355 119.331C366.355 119.331 354.877 154.084 333.641 157.859C333.641 157.859 330.861 168.537 328.173 172.229C325.485 175.92 319.662 186.536 319.662 186.536C319.662 186.536 357.98 194.016 383.53 160.584L383.518 160.576Z" fill="#891812"/>
<path d="M322.477 141.567C322.477 141.567 356.026 115.698 333.357 96.7263C333.357 96.7263 320.408 92.0925 316.255 93.0415C312.102 93.9904 297.593 98.2182 297.593 98.2182C297.593 98.2182 322.084 103.68 317.75 115.055C313.415 126.429 304.218 145.015 304.218 145.015L322.497 141.563L322.477 141.567Z" fill="#891812"/>
<path d="M263.492 119.649C263.492 119.649 284.32 110.429 291.009 122.404C297.698 134.378 292.086 154.374 292.086 154.374C292.086 154.374 283.832 160.271 280.975 165.831C278.118 171.391 270.691 181.136 270.691 181.136C270.691 181.136 283.913 153.277 274.743 140.738C265.572 128.199 245.222 138.17 245.222 138.17L263.492 119.649Z" fill="#891812"/>
<path d="M229.401 159.251C229.401 159.251 254.513 149.067 261.202 161.041C267.891 173.016 261.947 191.685 261.947 191.685C261.947 191.685 257.757 200.382 254.9 205.942C252.043 211.502 243.582 227.377 243.582 227.377C243.582 227.377 254.106 191.914 244.924 179.367C235.741 166.82 217.689 176.681 217.689 176.681L229.409 159.239L229.401 159.251Z" fill="#891812"/>
<path d="M237.652 231.612C237.652 231.612 237.089 211.88 226.635 208.664C216.18 205.447 206.515 205.416 206.515 205.416L213.691 217.872L224.126 226.349" fill="#891812"/>
<path d="M249.194 406.871C243.112 415.589 236.844 424.096 229.886 432.501C227.821 435.009 225.092 437.07 222.139 438.464C219.178 439.87 215.97 440.592 212.859 440.759C209.728 440.93 206.69 440.526 203.784 439.849C200.883 439.14 198.097 438.13 195.488 436.807C190.256 434.205 185.58 430.598 181.788 426.085C178.051 421.592 175.179 415.939 174.821 409.65C174.622 406.534 175.245 403.351 176.418 400.502C176.566 400.154 176.698 399.777 176.858 399.437L177.401 398.423C177.769 397.774 178.137 397.021 178.5 396.507L180.694 393.087C183.635 388.531 186.599 384.043 189.591 379.539C213.559 343.562 237.863 307.086 262.501 270.112C274.997 251.209 287.536 232.215 300.127 213.17C306.375 203.615 312.631 194.048 318.895 184.47C322.015 179.673 325.084 174.772 327.535 169.508C328.763 166.886 329.872 164.185 330.632 161.335C331.353 158.493 331.884 155.472 331.205 152.378C330.865 150.858 330.176 149.343 329.113 148.129C328.059 146.904 326.689 146.018 325.251 145.413C322.359 144.229 319.321 144.031 316.365 144.096C314.873 144.161 313.46 144.212 311.927 144.543L310.78 144.789C310.399 144.895 310.057 145.044 309.691 145.178L308.615 145.575C308.273 145.724 307.939 145.914 307.601 146.083C304.918 147.434 302.516 149.163 300.287 151.043C295.77 154.764 291.811 159.015 287.994 163.361C284.201 167.723 280.606 172.253 277.141 176.87C270.236 186.121 263.809 195.711 257.794 205.56C254.792 210.488 251.886 215.481 249.169 220.601C247.827 223.163 246.508 225.741 245.336 228.435L244.487 230.467C244.2 230.997 244.007 231.592 243.597 232.023C242.919 232.98 241.944 233.687 240.78 234.06C239.565 234.484 238.207 234.657 236.815 234.549C235.415 234.504 234.015 234.202 232.616 233.847C229.826 233.075 227.124 231.863 224.543 230.422C219.408 227.522 214.72 223.7 210.876 219.239C207.087 214.797 203.988 209.458 203.577 203.786L203.513 202.727C203.507 202.378 203.551 202.029 203.565 201.676C203.591 200.97 203.665 200.295 203.818 199.606C204.101 198.21 204.558 196.811 205.048 195.416C206.046 192.623 207.258 189.87 208.561 187.161C213.85 176.341 220.295 166.057 227.29 156.212C234.317 146.37 241.98 136.991 250.34 128.27C258.708 119.588 267.783 111.519 277.845 104.907C287.851 98.3254 298.983 93.0695 310.848 91.4942C313.797 91.132 316.781 90.9485 319.749 91.0467C322.724 91.1845 325.67 91.5444 328.576 92.17C331.462 92.8511 334.323 93.7225 337.057 94.887C338.427 95.4634 339.77 96.107 341.1 96.7943L345.068 98.9433C355.473 104.952 364.735 112.969 371.833 122.668C386.145 142.022 391.012 168.197 383.771 191.234C381.936 196.964 379.365 202.458 376.086 207.492L365.977 222.587C359.231 232.652 352.485 242.717 345.759 252.777C318.851 293.052 291.983 333.268 265.155 373.424C252.887 391.808 255.807 380.102 266.343 364.295C293.075 324.281 319.855 284.196 346.668 244.064C353.382 234.047 360.104 224.018 366.814 213.981L371.864 206.465C372.734 205.171 373.388 204.043 374.163 202.839C374.861 201.62 375.528 200.396 376.172 199.157C378.658 194.123 380.479 188.746 381.618 183.204C383.801 172.107 383.399 160.445 380.329 149.523C377.306 138.581 371.765 128.361 364.258 119.835C356.798 111.289 347.282 104.395 337.099 99.4657C335.884 98.8383 334.592 98.4012 333.324 97.8768C332.028 97.4713 330.757 96.9787 329.429 96.6723C326.813 95.9486 324.132 95.5261 321.431 95.3139C318.726 95.0818 315.996 95.1433 313.254 95.403C310.527 95.639 307.804 96.1528 305.091 96.8292C294.266 99.551 284.037 105.259 274.7 112.152C265.335 119.06 256.755 127.238 248.824 135.989C240.897 144.76 233.598 154.16 226.948 163.979C223.633 168.886 220.465 173.91 217.554 179.037C214.639 184.144 211.917 189.399 209.776 194.612C208.763 197.172 207.788 199.93 207.687 201.723C207.525 203.733 207.917 205.945 208.778 208.178C210.523 212.659 213.963 217.004 217.973 220.63C221.982 224.255 226.712 227.347 231.498 229.15C233.848 230.039 236.337 230.592 238.056 230.419C238.532 230.429 238.826 230.299 239.179 230.261C239.422 230.131 239.7 230.076 239.811 229.962C240.098 229.74 240.32 229.614 240.545 229.024L240.601 228.941L240.713 228.672L240.933 228.113L241.393 226.992L242.349 224.877C242.997 223.502 243.649 222.148 244.34 220.837C245.695 218.18 247.105 215.594 248.542 213.044C251.425 207.933 254.443 202.929 257.556 197.989C263.805 188.125 270.434 178.516 277.669 169.263C281.296 164.634 285.078 160.109 289.192 155.756C291.271 153.585 293.378 151.45 295.698 149.408C298.019 147.365 300.423 145.378 303.317 143.635C304.001 143.181 304.777 142.772 305.575 142.378L306.756 141.775L308.087 141.256L309.434 140.765L310.974 140.422C311.451 140.328 312.082 140.184 312.447 140.153L313.65 140.031C316.865 139.761 320.237 139.718 323.928 140.56C325.767 141.004 327.709 141.705 329.585 142.966C331.445 144.198 333.152 146.069 334.16 148.16C335.188 150.247 335.624 152.418 335.708 154.371C335.769 156.307 335.627 158.159 335.276 159.836C334.644 163.238 333.554 166.245 332.322 169.105C331.089 171.965 329.726 174.686 328.237 177.287C326.783 179.912 325.207 182.438 323.623 184.924L318.938 192.151C312.658 201.753 306.394 211.332 300.119 220.902C287.515 239.991 274.964 259.029 262.457 277.976C237.039 316.391 211.664 354.128 187.024 391.515C185.472 393.85 183.996 396.202 182.487 398.549C181.039 400.833 179.979 403.102 179.521 405.656C178.559 410.731 180.289 416.081 183.248 420.5C186.207 424.97 190.392 428.643 195.039 431.422C199.711 434.165 205.005 435.981 210.455 436.231C213.173 436.317 215.915 435.954 218.478 435.039C221.04 434.124 223.402 432.609 225.338 430.652C226.309 429.667 227.182 428.599 228.023 427.527C228.896 426.459 229.761 425.403 230.598 424.311C232.3 422.163 233.963 419.971 235.617 417.791C242.192 409.007 248.418 400.024 254.37 390.909C259.685 382.691 260.815 382.882 259.51 387.158C258.177 391.399 254.248 399.581 249.158 406.847L249.194 406.871Z" fill="#891812"/>
</g>
<defs>
<clipPath id="clip0_508_17855">
<rect width="160.086" height="366.091" fill="white" transform="translate(39.0586 276.151) rotate(-64.9499)"/>
</clipPath>
<clipPath id="clip1_508_17855">
<rect width="160.086" height="366.091" fill="white" transform="matrix(-0.830016 -0.55774 -0.55774 0.830016 422.617 148.813)"/>
</clipPath>
</defs>
</svg>
