<svg width="88" height="32" viewBox="0 0 88 32" fill="none" xmlns="http://www.w3.org/2000/svg">
<g clip-path="url(#clip0_511_17823)">
<path d="M7.51999 12.9379C8.98119 15.0777 10.338 16.9118 11.5905 18.7459C16.0784 24.9616 21.9232 29.2412 29.5423 31.2791C35.074 32.7057 40.2925 32.0943 44.7805 28.7317C49.2684 25.3692 53.5476 21.599 57.8269 18.0327C60.0187 16.1985 62.0017 14.2625 64.1935 12.5303C68.1596 9.57531 70.9776 9.57531 75.2568 12.1227C80.371 15.1796 83.6065 20.1725 84.859 27.1014C88.0945 26.5919 88.3032 24.1464 87.7814 22.0066C87.1552 19.3573 86.2158 16.6061 84.7546 14.3644C83.0847 11.817 80.8929 9.37152 78.4923 7.53739C72.4388 2.85018 66.6984 2.74828 60.5405 7.2317C56.8875 9.881 53.7564 13.0398 50.3121 15.8929C47.181 18.5421 43.9455 21.1914 40.6056 23.7388C38.1007 25.6749 35.1783 26.0824 32.0472 25.573C27.2461 24.7578 23.28 22.618 19.8358 19.1535C19.1052 18.4403 18.479 17.727 17.8528 16.9118C15.1391 13.4474 12.4255 9.98289 9.50307 6.21274C16.1828 7.84308 22.3407 9.37152 28.603 10.9C28.7073 10.9 29.0205 10.3905 29.3336 9.98289C28.9161 9.57531 28.603 8.86204 28.1855 8.65824C22.3407 5.90705 16.4959 2.95207 10.4424 0.710363C5.7457 -1.02187 2.92769 0.404675 1.67524 5.09189C0.527153 9.16772 0.214035 13.4474 0.0052948 17.6251C-0.0990753 18.644 1.36211 20.2744 2.40582 20.682C3.03204 20.9876 4.91071 19.7649 5.43257 18.8478C6.47628 17.2175 6.78939 15.2815 7.51999 12.9379Z" fill="#871912"/>
</g>
<defs>
<clipPath id="clip0_511_17823">
<rect width="88" height="32" fill="white" transform="matrix(-1 0 0 1 88 0)"/>
</clipPath>
</defs>
</svg>
