<svg width="88" height="32" viewBox="0 0 88 32" fill="none" xmlns="http://www.w3.org/2000/svg">
<g clip-path="url(#clip0_511_17832)">
<path d="M80.48 12.9379C79.0188 15.0777 77.662 16.9118 76.4095 18.7459C71.9216 24.9616 66.0768 29.2412 58.4577 31.2791C52.926 32.7057 47.7075 32.0943 43.2195 28.7317C38.7316 25.3692 34.4524 21.599 30.1731 18.0327C27.9813 16.1985 25.9983 14.2625 23.8065 12.5303C19.8404 9.57531 17.0224 9.57531 12.7432 12.1227C7.62897 15.1796 4.39348 20.1725 3.14103 27.1014C-0.0944726 26.5919 -0.303234 24.1464 0.218621 22.0066C0.844848 19.3573 1.78421 16.6061 3.24541 14.3644C4.91535 11.817 7.10714 9.37152 9.50767 7.53739C15.5612 2.85018 21.3016 2.74828 27.4595 7.2317C31.1125 9.881 34.2436 13.0398 37.6879 15.8929C40.819 18.5421 44.0545 21.1914 47.3944 23.7388C49.8993 25.6749 52.8217 26.0824 55.9528 25.573C60.7539 24.7578 64.72 22.618 68.1642 19.1535C68.8948 18.4403 69.521 17.727 70.1472 16.9118C72.8609 13.4474 75.5745 9.98289 78.4969 6.21274C71.8172 7.84308 65.6593 9.37152 59.397 10.9C59.2927 10.9 58.9795 10.3905 58.6664 9.98289C59.0839 9.57531 59.397 8.86204 59.8145 8.65824C65.6593 5.90705 71.5041 2.95207 77.5576 0.710363C82.2543 -1.02187 85.0723 0.404675 86.3248 5.09189C87.4728 9.16772 87.786 13.4474 87.9947 17.6251C88.0991 18.644 86.6379 20.2744 85.5942 20.682C84.968 20.9876 83.0893 19.7649 82.5674 18.8478C81.5237 17.2175 81.2106 15.2815 80.48 12.9379Z" fill="#871912"/>
</g>
<defs>
<clipPath id="clip0_511_17832">
<rect width="88" height="32" fill="white"/>
</clipPath>
</defs>
</svg>
