<svg width="432" height="300" viewBox="0 0 432 300" fill="none" xmlns="http://www.w3.org/2000/svg">
<g filter="url(#filter0_d_508_17880)">
<path d="M56.0826 145.187C106.36 121.125 212.551 192.254 192.333 274.961C190.653 281.844 161.985 283.411 157.529 288.081C149.593 296.379 159.28 299.374 153.559 307.087C151.91 309.318 133.012 302.989 126.642 312.525C113.335 332.411 137.918 344.646 131.004 345.41C103.394 348.426 86.5331 360.848 58.5681 336.346C25.4458 307.33 -19.9415 223.465 5.89237 189.266C15.7605 176.215 23.5047 163.695 32.1872 158.243C35.7764 155.981 41.8248 159.269 44.6063 157.35C52.707 151.755 52.2954 147.021 56.0959 145.201L56.0826 145.187Z" fill="#AF894C"/>
<path d="M67.9994 149.493C70.7111 147.346 76.1601 147.059 80.8211 147.367C87.5641 147.658 94.2646 148.876 100.796 150.584C107.263 152.193 113.434 154.614 119.517 157.244C122.474 158.7 125.528 160.043 128.368 161.708L132.69 164.149L136.865 166.8C148.135 174.033 158.133 183.052 166.67 193.29C175.224 203.486 181.938 215.292 186.408 227.887C188.508 234.422 190.28 241.065 190.912 247.962C191.417 251.23 191.402 255.195 191.501 258.824L191.505 259.527L191.453 260.384L191.336 262.084L191.092 265.441L190.854 268.715C190.819 268.981 190.827 269.263 190.778 269.515L190.565 270.202L190.139 271.575L188.486 276.968C188.378 277.431 188.229 277.851 188 278.186C187.9 278.353 187.784 278.535 187.639 278.716C187.405 278.924 187.29 278.712 187.223 278.641C186.895 278.173 186.583 277.691 186.057 277.347C185.082 276.591 183.297 276.345 181.074 276.487C179.938 276.502 178.641 276.346 177.377 276.134C176.753 275.93 176.141 275.557 175.55 275.297L175.326 275.182L175.208 275.209L174.957 275.248L174.441 275.34C168.831 276.582 162.785 280.278 157.351 283.954C156.058 284.867 154.723 285.765 153.59 286.694C152.425 287.65 151.35 288.762 150.55 290.075C149.724 291.358 149.271 292.886 149.405 294.364C149.493 295.855 150.161 297.199 150.969 298.417C151.806 299.636 152.855 300.746 153.965 301.827C154.503 302.396 155.117 302.924 155.582 303.688C155.631 303.801 155.665 303.928 155.699 304.055C155.686 304.224 155.673 304.392 155.533 304.517C155.296 304.754 155.046 304.793 154.824 304.832C154.382 304.911 153.946 304.906 153.523 304.915C150.16 304.946 146.763 305.032 143.367 305.302C139.971 305.571 136.546 306.023 133.121 307.051C129.728 308.023 126.12 310.103 124.165 313.385C122.142 316.412 120.842 319.869 120.437 323.422C119.992 326.932 120.495 330.593 121.516 333.769C122.634 337.199 124.385 339.961 126.547 342.49L127.146 343.214L127.469 343.555C127.469 343.555 127.167 343.692 127.047 343.747L125.094 344.357C123.798 344.749 122.499 345.17 121.206 345.534C118.629 346.305 116.057 347.02 113.418 347.664C107.281 349.138 100.847 350.116 94.6652 349.72C88.4742 349.253 82.4809 347.354 76.7721 344.784C71.0499 342.2 65.5524 339.154 60.1083 335.982C60.5818 337.577 61.078 339.256 61.6253 340.837C66.7345 340.616 73.3181 344.294 79.0182 346.976C83.1757 348.909 87.5228 350.648 92.161 351.631C96.7835 352.627 101.67 352.84 106.486 352.461C108.802 352.235 111.134 351.995 113.436 351.573C115.938 351.208 118.519 350.564 121.165 350.019C123.776 349.375 126.46 348.718 129.206 348.005L133.381 346.887L134.435 346.604L134.97 346.47L135.238 346.389L135.22 346.248C135.19 345.882 135.175 345.502 135.174 345.137C134.169 343.831 133.153 342.483 132.165 340.953L130.637 338.7L129.233 336.335L128.51 335.145C128.308 334.749 128.179 334.34 128.006 333.944L127.03 331.514C126.792 330.26 126.458 329.117 126.437 327.88C126.243 325.487 126.499 323.114 127.251 320.901C127.642 319.795 128.076 318.703 128.69 317.712C128.962 317.209 129.305 316.721 129.617 316.261C129.891 315.913 130.168 315.536 130.498 315.217C131.093 314.662 131.756 314.177 132.482 313.82C133.175 313.519 133.988 313.163 135.029 312.866C136.996 312.271 139.323 311.904 141.701 311.623C144.093 311.356 146.566 311.174 149.077 311.064L152.885 310.926L153.833 310.895C153.833 310.895 154.403 310.859 154.667 310.834L155.137 310.784L155.935 310.624C156.245 310.558 156.393 310.531 156.826 310.382C157.409 310.178 157.983 309.903 158.501 309.6C158.653 309.518 158.729 309.476 158.93 309.324C159.194 309.116 159.472 308.894 159.725 308.644C160.242 308.158 160.695 307.573 161.031 306.987C161.712 305.884 162.026 304.271 161.853 302.933C161.811 302.525 161.782 302.524 161.739 302.327L161.615 301.861C161.523 301.551 161.401 301.24 161.264 300.943L161.062 300.547L160.945 300.363L160.712 299.995C160.305 299.413 160.144 299.243 159.902 298.987C159.068 298.105 158.537 297.635 158.268 297.351L157.622 296.668C157.191 296.213 156.806 295.745 156.496 295.235C155.86 294.229 155.671 292.905 156.212 291.744C156.723 290.583 157.68 289.681 158.656 288.919L161.037 287.091C162.069 286.358 163.062 285.554 164.089 284.877C166.12 283.439 168.208 282.212 170.222 281.182C172.221 280.165 174.243 279.415 175.759 279.194L176.054 279.141C176.054 279.141 176.276 279.285 176.412 279.399L176.892 279.784C177.537 280.284 178.172 280.924 178.812 281.297L180.842 281.771C181.515 281.906 182.101 281.856 182.752 281.906C183.959 281.906 184.983 281.651 185.816 281.408C186.248 281.287 186.599 281.263 187.012 281.183C187.318 281.173 187.714 281.135 187.962 281.124C189.087 281.067 189.488 281.339 189.701 281.777C189.755 281.834 189.763 282.115 190.2 281.727C190.497 281.463 190.72 281.213 190.943 280.962C191.301 280.278 191.585 279.423 191.921 278.654C192.568 277.059 193.228 275.478 193.875 273.882C194.186 273.057 194.578 272.316 194.821 271.419L195.035 268.272L195.442 261.865L195.552 260.25L195.599 259.449C195.603 259.21 195.587 259.041 195.588 258.83L195.48 256.466C195.329 253.329 195.119 250.008 194.592 247.415L193.893 243.273C193.65 241.892 193.228 240.566 192.896 239.212C189.686 227.068 184.329 215.784 177.437 205.734C170.576 195.656 162.382 186.631 153.355 178.608L150.448 181.583C160.269 189.32 167.673 200.093 173.544 211.13C179.435 222.279 184.116 233.273 190.341 244.047C191.833 246.961 194.711 245.111 193.652 241.105C191.697 233.63 188.672 226.634 185.261 219.929C181.713 213.293 177.61 207.072 173.132 201.184C168.594 195.506 164.562 190.059 160.208 184.454C158.159 181.59 155.811 179.017 153.501 176.332C151.048 173.8 148.602 171.184 145.828 168.86C140.617 164.172 134.75 160.068 128.66 156.214C122.457 152.513 115.993 149.174 109.203 146.465C97.1132 141.556 83.2115 139.198 71.5953 142.295C66.4354 143.738 61.7738 145.891 57.2719 148.425C52.7382 150.804 48.4537 153.537 43.7891 156.294C45.1169 156.999 46.2746 157.645 47.4845 158.559C53.9197 153.784 63.0513 150.644 72.3372 149.277C81.6742 147.813 91.3499 147.618 100.837 147.983C103.127 148.094 103.735 147.005 103.155 145.845C102.575 144.685 100.796 143.413 98.3657 143.426C88.6019 143.255 78.6026 143.685 68.8976 145.581C67.6706 145.834 66.4925 146.017 65.2902 146.326L61.7236 147.296C59.368 147.845 57.0762 148.886 54.8621 149.676C50.4751 151.663 46.3211 153.835 43.0927 156.834C41.8475 157.888 42.0138 159.127 42.9676 159.588C44.0468 160.121 45.493 159.857 46.8258 158.987C54.6583 154.96 62.1518 150.423 70.7046 147.43C72.845 146.654 75.0509 146.16 77.4469 145.654C79.8385 145.204 82.307 145.079 84.9725 145.04C91.0824 145.238 97.5438 146.538 103.444 148.703C106.611 149.71 109.559 151.095 112.572 152.396C115.503 153.823 118.434 155.249 121.249 156.857C127.673 160.336 133.672 164.428 139.327 168.825C141.976 171.078 144.66 173.247 147.015 175.735C148.216 176.945 149.418 178.154 150.559 179.391C151.638 180.683 152.732 181.961 153.825 183.268C154.96 184.589 156.001 185.993 157.057 187.384C158.13 188.76 159.189 190.122 160.247 191.485C162.269 194.321 164.51 196.962 166.659 199.842C169.133 202.852 171.404 206.042 173.738 209.177C175.886 212.451 178.17 215.655 179.997 219.136C183.993 226.368 187.447 234.029 189.565 242.224C190.659 241.252 191.725 240.253 192.794 239.225C187.209 230.132 182.572 219.335 177.276 209.514C175.8 206.587 174.047 203.852 172.45 200.979C170.636 198.272 168.963 195.44 166.951 192.857C164.97 190.247 162.944 187.65 160.637 185.303C158.41 182.858 155.916 180.677 153.312 178.594C151.712 177.267 149.808 176.682 148.998 177.559C148.235 178.393 148.913 180.173 150.406 181.568C166.471 195.875 179.95 213.525 187.07 234.391L187.739 236.283L188.258 238.229L189.297 242.122C189.999 244.717 190.298 247.435 190.792 250.084C191.193 252.816 191.292 255.869 191.449 258.739C191.515 259.386 191.39 260.439 191.368 261.297L191.22 263.967L190.889 269.207C190.506 270.777 189.975 272.191 189.543 273.648C189.083 275.077 188.689 276.605 188.18 277.921C188.013 278.2 187.889 278.494 187.592 278.758C187.252 278.824 187.233 278.5 187.07 278.358C186.807 277.989 186.516 277.62 186.101 277.334C185.315 276.776 184.006 276.395 182.385 276.474C180.797 276.498 178.59 276.626 176.6 275.83L175.857 275.469L175.492 275.296C175.367 275.225 175.239 275.181 175.192 275.223L174.394 275.382C173.862 275.488 173.281 275.664 172.716 275.826C170.432 276.572 168.092 277.684 165.834 279.035C161.516 281.641 156.781 285.115 153.897 287.808C152.415 289.281 151.19 291.207 151.148 293.259C151.12 295.326 152.247 297.125 153.617 298.603C153.967 298.973 154.33 299.357 154.693 299.741L155.94 300.937C156.182 301.193 156.455 301.421 156.747 301.79C156.881 301.932 157.081 302.173 157.247 302.471C157.314 302.542 157.465 302.853 157.56 303.135C157.607 303.276 157.641 303.403 157.67 303.586C157.693 303.854 157.699 304.163 157.632 304.458C157.542 305.061 157.217 305.507 156.791 305.938C156.681 306.035 156.572 306.132 156.478 306.216L156.295 306.326C156.159 306.395 156.052 306.464 155.902 306.518C155.766 306.587 155.632 306.628 155.511 306.682L155.274 306.736L154.816 306.829C154.302 306.893 153.819 306.93 153.513 306.94C150.816 307.007 148.115 307.129 145.452 307.323C140.167 307.753 134.642 308.264 130.126 310.601C127.326 312.016 125.514 314.75 124.157 317.631C122.814 320.525 122.117 323.709 122.163 326.887C122.182 330.037 123.022 333.295 124.04 335.95C124.667 337.251 125.162 338.565 125.918 339.698L126.949 341.426L128.109 342.986L128.82 343.951C128.82 343.951 128.968 344.107 128.977 344.178L128.607 344.272L127.865 344.46L124.986 345.185C123.1 345.683 121.238 346.055 119.461 346.455C117.685 346.856 115.916 347.145 114.247 347.477L111.479 347.894C110.476 348.079 109.476 348.208 108.482 348.28C102.595 348.956 96.8433 348.832 91.5356 347.475C87.528 346.43 83.7758 344.712 79.9585 342.896C76.166 341.136 72.3482 339.136 68.5566 337.741C64.7849 336.277 61.1131 335.404 57.6535 335.363C54.9946 335.318 56.4477 338.737 59.1081 340.273C64.5744 343.347 70.0606 346.35 75.9729 348.923C81.8604 351.439 88.2655 353.469 94.9837 353.703C96.6521 353.765 98.3205 353.827 99.9749 353.691C101.636 353.655 103.297 353.435 104.927 353.244C106.582 353.109 108.184 352.706 109.82 352.43C111.488 352.126 112.929 351.735 114.748 351.349C118.266 350.449 121.759 349.492 125.202 348.421C126.943 347.922 128.675 347.352 130.417 346.824L133.041 346.011L133.369 345.903C133.488 345.876 133.622 345.835 133.525 345.764L133.339 345.354L132.981 344.52C130.389 341.537 127.942 337.979 126.182 334.387C125.843 333.511 125.324 332.506 125.138 331.703C124.953 330.899 124.723 330.109 124.58 329.32C124.497 328.503 124.355 327.714 124.301 326.898C124.335 326.083 124.237 325.281 124.342 324.48C124.605 321.264 125.695 318.071 127.502 315.392C128.324 314.165 129.368 313.08 130.647 312.336C131.882 311.606 133.321 311.06 134.957 310.602C138.181 309.726 141.729 309.374 145.282 309.149C147.08 309.043 148.86 308.98 150.666 308.945L153.39 308.907C153.623 308.91 153.797 308.912 154.235 308.889L154.805 308.853C155.056 308.814 155.38 308.762 155.661 308.695C155.84 308.641 155.883 308.655 156.167 308.56C156.466 308.451 156.752 308.328 157.024 308.191L157.435 307.956C157.435 307.956 157.788 307.722 158.053 307.486C158.569 307.028 158.992 306.442 159.284 305.869C159.562 305.282 159.721 304.539 159.715 303.864C159.691 303.048 159.596 302.948 159.508 302.582C159.416 302.271 159.281 301.946 159.126 301.691L158.881 301.281C158.174 300.26 157.816 300.003 157.441 299.576L156.634 298.723C156.244 298.311 155.867 297.913 155.522 297.487C154.847 296.621 154.292 295.701 154.066 294.672C153.824 293.656 153.998 292.534 154.537 291.584C155.062 290.62 155.836 289.828 156.657 289.177C157.017 288.857 157.443 288.609 157.814 288.333L159.441 287.227L161.281 286.011C161.955 285.569 162.616 285.113 163.301 284.714C165.992 283.03 168.727 281.516 171.312 280.449C172.588 279.944 173.859 279.495 174.923 279.283C175.204 279.216 175.424 279.204 175.689 279.151L175.866 279.125C175.866 279.125 175.886 279.055 175.994 279.169L176.294 279.426L177.511 280.438L178.127 280.938C178.331 281.123 178.535 281.308 178.754 281.297L180.054 281.607C180.949 281.885 181.723 281.852 182.519 281.903C183.358 281.97 183.941 281.766 184.645 281.689C185.193 281.569 185.807 281.338 186.274 281.315C187.305 281.158 188.076 281.154 188.551 281.229C189.041 281.291 189.301 281.505 189.455 281.76C189.509 281.817 189.532 281.902 189.586 281.959C189.626 282.001 189.705 282.115 189.986 281.865C190.361 281.532 190.657 281.268 190.909 280.835L193.352 274.818L194.621 271.754L194.929 267.765L195.543 259.603C195.525 257.578 195.491 255.567 195.414 253.541L195.286 250.488L194.982 247.827L194.331 242.491L193.252 237.248L192.697 234.626L191.948 232.072L190.422 226.964L188.549 222.007L187.59 219.535L186.48 217.145L184.229 212.366C180.891 206.225 177.284 200.164 172.977 194.7C164.584 183.55 154.249 173.993 142.822 165.956C130.033 157.087 115.662 150.253 100.352 146.346C92.9546 144.544 85.2656 143.314 77.631 143.266C76.0143 143.289 74.4089 143.354 72.8438 143.462C71.2765 143.599 69.7388 143.918 68.3308 144.253C65.5057 144.852 63.0221 146.116 61.3687 147.559C60.0879 148.697 61.1437 149.722 62.7527 150.177C63.5494 150.411 64.5179 150.493 65.4278 150.391C66.3468 150.36 67.2384 150.117 67.9192 149.591L67.9994 149.493Z" fill="#0A0907"/>
<path d="M106.306 351.969C108.665 351.83 111.026 351.662 113.373 351.322C116.157 350.979 119.046 350.276 122.084 349.702C125.076 348.985 128.185 348.266 131.42 347.432L136.401 346.145L137.669 345.808L138.31 345.647C138.31 345.647 138.548 345.589 138.609 345.56L138.736 345.444C138.986 345.082 139.292 344.75 139.614 344.403L137.483 341.284L135.196 337.776C134.383 336.583 133.704 335.346 132.896 334.095L131.721 332.198C131.44 331.579 131.247 330.96 130.982 330.327C130.658 329.536 130.35 328.73 130.041 327.924C129.928 327.391 129.934 326.988 129.858 326.527C129.674 325.634 129.768 324.726 129.669 323.861C129.706 322.103 129.882 320.43 130.201 318.786C130.359 317.978 130.534 317.156 130.75 316.348C130.873 315.944 130.937 315.541 131.074 315.151C131.165 314.776 131.324 314.285 131.326 314.098C131.507 312.872 131.959 311.53 132.645 310.029C133.099 309.004 133.037 308.211 132.238 307.854C131.526 307.496 130.13 307.632 128.883 308.559C126.407 310.37 124.842 313.258 123.627 316.145C122.494 319.09 122.028 322.248 122.195 325.331C122.33 328.444 123.294 331.409 124.445 334.071C125.09 335.365 125.702 336.689 126.548 337.853C126.948 338.442 127.316 339.06 127.732 339.635L129.072 341.302C131.462 342.964 127.991 343.165 126.504 343.834C124.686 344.461 122.875 345.001 121.062 345.57C117.406 346.708 113.93 347.63 110.034 348.51C106.226 349.231 102.377 349.909 98.5733 349.909C94.7829 349.924 90.9778 349.607 87.4109 348.569C80.8857 346.865 75.0401 343.558 69.4189 340.021C63.816 336.439 58.4426 332.569 53.557 328.12C48.7196 323.787 44.1325 319.092 40.3199 313.875C36.5205 308.673 33.1946 303.224 30.067 297.673C22.9654 285.09 17.0456 271.825 13.2745 258.322L8.82499 258.541C13.4441 272.012 19.4932 285.133 26.6449 297.643C30.17 303.812 33.9544 309.85 38.0771 315.685C42.0427 321.32 46.3549 326.823 51.4916 331.731C54.297 334.473 57.5043 336.954 60.8585 339.088C64.1912 341.136 67.674 342.967 71.3323 344.293C75.0622 345.634 76.5141 342.371 72.8158 340.339C67.3899 337.233 61.9931 334.126 56.3865 330.92C53.5059 329.201 51.1447 331.199 53.6377 334.015C54.5564 335.005 55.5068 335.967 56.5047 336.886C57.5343 337.775 58.5956 338.636 59.7044 339.453C61.9163 340.987 64.1808 342.419 66.6721 343.591C66.607 342.006 66.5686 340.45 66.5618 338.864C62.3711 337.627 58.0504 335.712 54.1636 333.004C50.2901 330.309 46.6978 327.066 43.6925 323.446C37.6051 316.249 33.7016 307.747 32.6138 300.041C32.0728 296.238 26.6978 293.881 27.1438 297.771C28.2484 306.947 32.8159 317.017 39.9565 325.666C43.5293 329.961 47.7898 333.893 52.5242 337.074C54.8477 338.665 57.4487 340.082 59.9476 341.167C62.4465 342.253 64.9872 343.194 67.5506 343.876C71.4782 344.956 70.9891 340.894 67.4113 339.149C65.6394 338.248 63.9252 337.188 62.3061 336.042C60.737 334.823 59.1996 333.575 57.8866 332.096L55.1935 335.219C60.3189 338.096 65.3269 340.815 70.4264 343.821L71.9548 339.852C66.0366 337.54 60.477 334.132 55.7537 329.827C51.0013 325.522 46.906 320.537 43.2264 315.464C35.0621 304.197 28.1032 292.146 22.1393 279.718C18.8041 272.712 15.8023 265.561 13.2745 258.322C11.8492 254.133 7.62651 254.092 8.82499 258.541C12.1273 270.908 17.2919 282.979 23.414 294.6C29.602 306.135 36.4651 317.45 46.1172 327.04C50.9592 331.82 56.2587 336.368 61.9795 340.266C67.6154 344.135 73.4972 347.859 80.2071 350.615C86.8696 353.413 94.6967 354.565 102.253 353.815C104.137 353.606 106.018 353.425 107.859 353.044C109.721 352.748 111.535 352.338 113.351 351.898C117.699 350.844 122.147 349.486 126.453 348.071L132.531 346.073L135.593 345.052C135.805 344.965 136.189 344.906 136.273 344.776L136.295 344.358L136.369 343.522L134.474 341.194L132.624 338.694C131.342 337.027 130.256 335.288 129.143 333.519C128.505 332.643 128.276 331.764 127.843 330.887C127.508 330.052 126.974 329.002 126.932 328.484L126.515 326.583L126.319 324.667C126.194 322.102 126.607 319.549 127.544 317.182C128.056 315.999 128.607 314.858 129.324 313.832C129.943 312.921 130.618 312.198 131.456 311.619C130.275 311.133 128.94 310.893 127.541 310.899C127.268 314.013 126.23 317.375 125.826 320.979C125.566 322.782 125.564 324.641 125.635 326.485C125.655 327.422 125.855 328.3 125.951 329.194C125.945 329.597 126.253 330.245 126.369 330.748C126.527 331.267 126.686 331.785 126.847 332.274C128.393 336.087 130.239 339.626 131.976 342.256C132.063 342.602 132.178 342.947 132.309 343.278C132.318 343.35 132.424 343.465 132.361 343.523L131.884 343.64L130.947 343.86L127.285 344.739C124.901 345.325 122.618 345.766 120.423 346.207C116.008 347.031 112.302 347.579 108.035 347.869C105.672 348.066 104.054 349.066 103.557 350.077C103.061 351.088 103.781 352.18 106.323 352.113L106.306 351.969Z" fill="#0A0907"/>
<path d="M15.9468 256.526C10.4409 245.34 5.8459 233.638 3.90926 221.993C3.03582 216.66 2.96065 211.354 3.4122 206.601C3.56899 204.272 4.06018 202.144 4.37494 200.041C4.4606 199.47 4.6273 198.984 4.72647 198.427C4.87026 197.857 4.84703 197.382 5.08621 196.702C5.23735 196.23 5.40403 195.744 5.54166 195.258C5.81077 194.368 5.88802 194.9 5.50523 195.159L2.51641 193.464C2.36647 194.118 2.15632 194.799 1.96176 195.466C1.84293 196.092 1.69504 196.718 1.51808 197.343C1.11015 198.537 0.951493 199.903 0.611092 201.168C0.369334 202.476 0.18162 203.841 -0.00405431 205.178C-0.0329568 206.56 -0.261214 207.882 -0.17181 209.238C-0.0639667 215.089 1.082 221.068 2.65246 227.012C5.85034 238.719 10.5927 250.396 14.9884 262.038C17.4863 268.625 19.9168 275.142 22.0005 281.624L26.2776 281.036C17.6276 266.31 9.88729 250.887 4.59423 235.028C1.96019 227.127 0.0380566 219.041 -0.255274 211.163C-0.444511 207.209 -0.00252224 203.378 1.09152 199.779C1.24061 199.335 1.3201 198.848 1.49621 198.432L2.05561 197.156L2.60358 195.839L3.39432 194.386C4.48152 192.463 5.44304 190.468 6.5728 188.559C11.4813 179.983 16.798 171.594 22.9651 163.707C21.1987 163.986 19.4417 164.335 17.6805 164.74C17.6409 166.861 17.6168 168.968 17.3323 171.253C17.1765 172.382 16.9315 173.536 16.5506 174.759C16.2122 175.996 15.7245 177.286 15.0717 178.644C12.7395 183.646 9.07764 188.725 5.91813 193.7L4.29583 196.173C3.76925 197.002 3.52065 197.613 3.11853 198.332C2.69145 198.995 2.45961 199.773 2.17169 200.523C1.88379 201.272 1.56679 202.021 1.40454 202.842C0.459575 205.995 0.216627 209.495 0.219684 213.013C0.337946 220.107 1.82343 227.404 4.11007 234.49C6.76617 242.685 10.2193 250.725 14.2898 258.482C16.1301 261.945 19.6991 261.094 18.3693 257.416C15.9459 250.607 13.6407 243.771 11.6647 237.011C9.68874 230.251 8.06156 223.497 7.30661 217.147C6.46857 210.74 6.66897 204.852 8.17863 200.549C8.35679 200.105 8.53696 199.633 8.67459 199.147L9.8208 197.015C10.5804 195.589 11.3421 194.136 12.1172 192.696C13.6926 189.873 15.1983 187.008 16.6688 184.225C19.704 178.369 22.3532 172.618 22.6717 167.695C22.847 165.115 18.6537 166.542 16.9903 169.573C14.5071 174.056 12.0002 178.665 9.2919 183.242C7.98604 185.567 6.62412 187.862 5.21756 190.171C4.55009 191.333 3.85355 192.495 3.12796 193.656L2.0416 195.369L1.21157 196.961C0.267309 198.524 0.833208 199.929 1.60068 200.374C2.43773 200.862 3.52832 200.474 4.43446 199.232C4.76938 198.833 5.06172 198.419 5.35407 198.005L5.7947 197.356L6.40639 196.556C7.21302 195.48 7.97708 194.389 8.71413 193.27C10.1457 191.017 11.6136 188.863 12.8748 186.552C15.5885 182.1 17.894 177.46 20.3534 173.102C22.6085 168.95 24.9197 164.827 27.7728 160.852C30.6394 156.891 33.967 152.994 38.5189 149.66C37.0133 149.162 35.4611 148.704 33.8913 148.288C28.3459 153.854 22.4042 159.664 16.269 164.94L18.3811 168.269C19.6725 167.131 20.9233 165.95 22.2126 164.84C23.8089 163.511 24.404 161.552 23.7308 160.816C22.9474 159.993 21.0921 160.69 19.418 162.087C14.8365 166.02 10.517 170.349 6.93586 175.122C5.11744 177.689 3.49509 180.162 2.25795 182.739C1.62485 184.027 1.02289 185.288 0.492541 186.564C-0.0107942 187.868 -0.456013 189.173 -0.887715 190.493C-1.7253 192.978 -2.6157 195.588 -3.05049 198.136C-3.27669 199.431 -3.54341 200.683 -3.59728 202.008C-3.72277 203.318 -3.8462 204.601 -3.82842 205.941C-3.92643 211.426 -3.04565 216.856 -1.59827 222.1C0.166582 228.368 2.70765 234.37 5.6544 240.196C6.50598 241.871 8.10072 242.343 8.88888 241.518C9.78595 240.597 9.60783 238.668 8.76565 237.063C5.61185 230.689 3.0558 224.101 1.52722 217.39C0.793786 214.307 0.498381 211.203 0.317175 208.129C0.383351 206.636 0.238713 205.043 0.461668 203.594C0.544076 202.87 0.558918 202.074 0.670393 201.35L1.04947 199.165C1.13393 198.412 1.40014 197.76 1.55419 197.051C1.78192 196.328 1.83117 195.659 2.16576 194.869C2.74569 193.314 3.28097 191.773 3.77371 190.218C4.23738 188.662 4.82469 187.205 5.42959 185.707C6.06354 184.21 6.71508 182.671 7.65524 181.164C11.2206 175.023 16.6125 169.567 22.1524 164.867L19.3578 162.114C18.0063 163.279 16.7243 164.487 15.3863 165.666C12.1608 168.77 14.3454 171.904 17.5431 168.981C25.1448 162.36 31.968 155.642 39.221 149.015C40.839 147.589 41.1016 146.393 39.725 146.12C38.5134 145.779 36.417 146.193 34.5975 147.588C30.0604 151.117 26.599 155.054 23.6971 159.098C20.8067 163.184 18.3948 167.292 16.2364 171.515C12.0103 179.516 7.70222 188.633 1.63129 196.2C2.66068 197.04 3.70768 197.839 4.78785 198.582C5.07285 198.07 5.24894 197.654 5.61379 197.046L6.79964 195.166C7.57601 193.908 8.32537 192.622 9.07267 191.363C10.6659 188.89 12.0484 186.315 13.568 183.855C16.3488 179.083 19.1824 174.186 22.1622 169.083C20.2725 169.653 18.3922 170.293 16.5213 171.003C16.4928 172.775 15.9848 174.736 15.2632 176.832C14.881 177.873 14.4408 178.913 13.9538 179.994C13.496 181.076 12.9644 182.17 12.4194 183.25C11.0038 185.88 9.66303 188.678 8.1426 191.348C7.42965 192.733 6.70321 194.104 6.00583 195.474C5.6815 196.125 5.17252 196.913 5.00377 197.427L4.36164 199.036C3.54902 201.578 2.87348 204.233 2.77225 207.191C2.56691 208.598 2.74267 210.164 2.66299 211.642C2.79616 213.194 2.8016 214.702 3.00641 216.269C3.68033 222.533 5.12461 229.006 6.89066 235.455C8.92428 242.817 11.3067 250.184 13.8811 257.512L17.9584 256.474C14.2591 249.407 11.0391 242.153 8.58307 234.798C6.13845 227.486 4.3632 219.976 4.25434 212.952C4.1923 209.643 4.44381 206.422 5.2708 203.685C5.36911 203.338 5.42485 202.976 5.53666 202.642L5.92611 201.699C6.19026 201.075 6.35783 200.38 6.71652 199.855L7.17148 199.011C7.35493 198.693 7.38281 198.512 7.70833 198.042L9.31506 195.583C12.9598 189.946 16.7613 184.352 19.6909 178.745C23.1479 172.1 23.7006 166.762 24.023 161.393C24.1727 159.357 20.8835 159.57 18.6863 162.341C13.2193 169.61 8.3617 177.099 3.95479 184.79C2.82503 186.699 1.75134 188.636 0.733733 190.602L-0.847715 193.508C-1.32848 194.506 -1.72204 195.505 -2.18724 196.488C-3.73453 200.512 -4.33501 204.718 -4.43933 208.905C-4.54726 217.293 -2.66858 225.573 -0.234738 233.625C2.24167 241.691 5.50574 249.533 9.02813 257.225C13.1193 266.085 17.7501 274.73 22.7305 283.171C24.5258 286.257 28.0534 285.574 26.9941 282.569C22.9186 270.331 17.8779 258.162 13.2773 245.943C11.006 239.835 8.83751 233.714 7.10086 227.655C5.34865 221.611 4.14867 215.575 3.93517 209.974C3.802 208.422 3.99793 206.945 4.03914 205.396C4.29116 203.949 4.38845 202.429 4.77758 201.095C4.91607 200.399 5.04106 199.689 5.27614 199.064L5.53787 198.077C5.63618 197.73 5.64321 197.437 5.86598 196.98C6.54337 195.288 7.10241 193.621 7.48504 191.98C8.05284 189.602 6.63626 188.686 4.54498 190.216C2.1892 191.979 0.78738 195.014 0.454151 197.368C0.168628 198.48 0.179072 199.723 -0.108503 200.863C-0.310936 202.033 -0.358635 203.274 -0.592183 204.471C-1.21864 209.822 -1.27171 215.684 -0.454011 221.379C1.44929 234.07 6.32624 246.489 12.1358 258.294C14.2507 262.376 17.9037 260.382 15.8544 256.399L15.9468 256.526Z" fill="#0A0907"/>
<path d="M9.19939 247.796C9.91803 249.42 10.5759 251.072 11.3528 252.695C11.7467 253.529 12.3654 254.289 12.9717 254.69C13.5646 255.077 14.2966 255.205 14.743 254.93C15.2052 254.642 15.6025 254.094 15.6433 253.289C15.6842 252.483 15.5551 251.62 15.1346 250.758C14.3685 249.178 13.7215 247.569 13.0295 245.974C12.6623 245.17 12.0885 244.394 11.5139 243.964C10.9526 243.549 10.2389 243.378 9.7792 243.638C9.29034 243.898 8.89554 244.417 8.7964 245.223C8.69727 246.028 8.808 246.934 9.18355 247.811L9.19939 247.796Z" fill="#0A0907"/>
<path d="M107.66 187.743C108.625 187.054 109.435 186.109 110.088 185.145L100.995 181.18C100.856 181.667 100.702 182.168 100.563 182.656L100.424 183.143C100.236 183.699 100.252 183.686 100.457 183.088L102.521 181.28L104.196 180.934L106.657 181.65L106.423 181.489L108.198 183.407L108.114 183.194L108.589 185.65L108.622 185.412L107.769 187.83L107.915 187.624L105.852 189.432L106.05 189.311L103.489 189.884L103.704 189.904L100.21 188.345C101.686 189.819 103.148 191.306 104.547 192.848C104.707 193.021 104.867 193.194 105.027 193.367C104.613 191.25 104.356 190.639 104.242 191.548C104.212 191.758 104.166 191.981 104.135 192.191C104.225 191.772 104.227 191.744 104.144 192.079C103.779 193.051 103.546 194.013 103.11 194.969L111.826 192.971C111.625 192.755 111.456 192.511 111.272 192.282C111.338 192.354 111.668 192.953 111.39 192.439C111.136 191.983 110.851 191.554 110.612 191.084C110.374 190.614 110.209 190.132 109.986 189.648C109.765 189.136 110.01 189.705 110.033 189.79C109.93 189.436 109.827 189.082 109.755 188.701C109.532 187.67 109.452 186.643 109.372 185.616C109.238 183.984 108.565 182.406 107.475 181.168C105.204 178.563 100.659 177.296 97.487 179.424C93.7802 181.915 94.8137 186.128 96.5864 189.196C97.847 191.408 99.5022 193.378 101.284 195.212C103.428 197.406 105.691 199.548 109.184 198.707C111.289 198.22 112.878 196.567 113.536 194.606C113.873 193.605 113.832 192.649 113.721 191.649C113.676 191.297 113.562 189.778 113.569 191.182C113.561 190.353 113.262 191.973 113.556 191.168C113.7 190.807 113.816 190.417 113.931 190.055C114.289 188.984 114.591 187.884 114.604 186.776C114.647 184.91 114.001 183.361 112.928 181.899C112.601 181.454 112.196 181.078 111.807 180.688C111.687 180.558 111.516 180.343 111.364 180.24C110.938 179.961 111.82 180.702 111.594 181.005C111.676 180.881 111.508 180.062 111.477 179.906C111.311 178.877 110.778 177.725 110.071 176.961C108.75 175.533 106.89 174.891 104.88 175.086C101.164 175.444 98.5552 178.514 98.1844 181.998C98.0974 182.936 98.2124 183.88 98.1254 184.818C98.1015 185.126 97.8969 186.089 98.104 185.281C97.9387 185.922 97.7446 186.562 97.5371 187.188C95.9606 191.677 93.627 196.046 95.2297 200.752C97.0177 206.053 104.679 210.02 110.033 206.424C113.146 204.323 113.838 200.609 113.663 197.263C113.488 193.917 111.649 190.959 108.755 189.108C106.373 187.566 103.326 186.946 100.427 187.032C98.8621 187.071 97.2709 187.265 95.7197 187.501C95.5 187.537 95.2803 187.573 95.0318 187.608L94.6368 187.667C95.5531 187.412 96.2442 187.825 96.6946 188.919C98.2799 190.297 98.1855 189.649 98.2564 190.788C98.0977 191.345 98.089 191.457 98.1882 191.109C98.3207 190.705 98.25 190.872 97.9938 191.566L95.9305 193.375L96.2011 193.242L93.6406 193.815L93.8981 193.85L91.4373 193.134C91.8149 193.3 92.1616 193.492 92.506 193.712C92.6438 193.8 93.6755 194.672 92.9883 194.021C93.5799 194.599 94.1094 195.232 94.6699 195.837C96.6249 197.858 98.9263 198.766 101.853 198.316C104.78 197.866 106.402 194.852 105.958 192.369C105.257 188.334 101.07 186.39 97.0822 187.273C93.4788 188.055 89.363 190.226 88.8442 194.127C88.389 197.582 91.5611 199.946 93.9067 201.964C96.2524 203.982 98.5599 205.746 100.965 207.556C103.535 209.482 106.899 210.293 109.99 208.472C113.278 206.531 114.85 203.038 114.331 199.472C113.456 193.579 107.677 189.4 102.25 187.575C99.3896 186.609 96.2811 186.226 93.2398 186.097C92.0144 186.048 92.2958 185.775 94.2501 187.431C95.7561 187.965 96.2596 188.934 95.7606 190.338L94.8175 191.687C94.3788 192.123 93.4805 192.519 92.7901 192.471L92.2483 192.371C92.6858 192.51 92.7435 192.512 92.3658 192.347C91.7151 192.16 92.4726 192.462 92.6259 192.537C93.1281 192.775 92.1411 192.074 92.8304 192.697C93.6153 193.393 94.4157 194.076 95.2493 194.703L98.4907 185.516C97.2433 185.565 96.0023 185.53 94.7856 185.369C95.6871 185.493 94.3325 185.244 94.0616 185.194C93.2089 185.001 92.3117 184.821 91.4348 184.754C87.5652 184.489 83.559 187.113 83.3068 191.12C83.1107 194.217 84.9462 196.473 86.8926 198.606C88.8389 200.739 90.6694 202.686 92.6287 204.651C94.9239 206.948 97.3338 208.884 100.419 210.123C102.93 211.135 105.865 211.696 108.594 211.942C112.801 212.328 116.713 209.057 116.661 204.872C116.641 201.573 114.478 198.872 112.392 196.497C110.305 194.121 107.973 192.117 105.388 190.387C104.179 189.567 102.903 188.857 101.595 188.202C100.968 187.889 100.359 187.535 99.7192 187.208C99.2037 186.955 99.5075 186.767 99.646 187.22L99.339 186.888C99.6106 187.303 99.6506 187.346 99.5168 187.02L99.9921 189.476L99.9939 189.265L99.1416 191.683L99.3032 191.463L95.9756 193.727C94.2639 193.608 93.8577 193.624 94.7415 193.79L96.0272 193.995C96.6599 194.041 97.4167 193.979 98.0625 193.857C99.4138 193.586 100.782 192.909 101.833 192.041C103.794 190.426 104.727 188.277 105.197 185.932C105.362 185.109 105.441 184.283 105.475 183.469C105.543 182.966 105.534 182.896 105.463 183.245C105.379 183.579 105.399 183.509 105.565 183.051C105.326 183.521 105.291 183.605 105.503 183.288C105.729 182.985 105.667 183.04 105.286 183.478C105.585 183.164 105.953 182.893 106.252 182.579C106.884 181.895 105.746 182.761 106.241 182.537C106.858 182.231 106.447 182.304 104.978 182.782C104.688 182.801 104.432 182.738 104.166 182.632C103.868 182.553 103.648 182.407 103.45 182.162C103.797 182.537 103.837 182.581 103.583 182.307C103.249 181.764 103.791 182.986 103.512 182.108C103.639 182.519 103.72 182.97 103.759 183.407C103.766 183.505 103.83 184.911 103.82 183.928C103.814 184.377 103.837 184.827 103.847 185.262C103.859 186.975 103.84 188.715 103.592 190.42C103.551 190.77 103.414 191.412 103.584 190.715C103.491 191.162 103.357 191.593 103.222 192.024C102.96 192.803 102.628 193.537 102.323 194.301C101.459 196.312 101.116 198.309 101.387 200.422C101.709 202.986 104.778 204.815 107.347 204.13C110.196 203.383 111.79 200.915 111.451 198.182C111.62 199.549 111.705 197.516 111.368 198.882C111.454 198.519 111.598 198.159 111.713 197.797C112 197.075 112.343 196.383 112.601 195.66C113.359 193.717 113.752 191.622 113.953 189.593C114.109 187.941 114.106 186.298 114.061 184.64C114.01 182.309 113.917 179.962 112.909 177.842C111.902 175.721 110.076 173.901 107.744 173.203C104.945 172.365 102.155 173.296 99.874 175.112C98.1784 176.468 96.608 178.262 95.8748 180.262C95.4728 181.346 95.3107 182.506 95.2241 183.627C95.2024 183.907 95.1962 184.173 95.1591 184.467C95.124 184.733 95.089 184.998 95.054 185.264C95.1861 184.678 95.1594 184.65 94.9873 185.192L95.224 184.75C94.8808 185.259 94.9274 185.218 95.4079 184.615L95.9401 184.279C95.4144 184.53 95.4877 184.519 96.1619 184.215C96.3971 184.165 98.2469 184.555 97.3383 184.15C96.654 183.836 95.1313 183.891 94.3969 184.038C90.3739 184.822 88.7282 189.085 90.5211 192.266C92.6079 195.947 97.3316 197.135 100.63 199.545C100.67 199.588 101.94 200.565 101.137 199.91C101.504 200.215 101.869 200.549 102.22 200.867C102.814 201.418 103.392 201.982 103.939 202.573C104.593 203.279 105.216 204.013 105.792 204.787C105.899 204.903 106.694 206.217 106.106 205.217C106.262 205.446 106.389 205.675 106.5 205.916C106.387 205.703 106.362 205.463 106.379 205.239C106.32 203.385 108.09 202.382 109.674 202.09L109.272 202.051C109.83 202.137 109.816 202.122 109.201 202.035C108.26 201.868 107.303 201.714 106.365 201.491C105.599 201.3 104.835 201.082 104.091 200.794C102.838 200.352 104.676 201.274 103.562 200.527C103.013 200.146 102.416 199.834 101.884 199.412C102.498 199.893 101.844 199.369 101.751 199.268C101.266 198.805 100.781 198.342 100.299 197.851C99.4402 196.984 98.6105 196.118 97.7676 195.238C96.2552 193.665 94.8557 191.94 93.2967 190.408C92.7319 189.858 93.6766 190.545 93.4637 190.679C93.3479 190.494 93.2477 190.294 93.1608 190.109C93.3746 190.523 93.4576 190.946 93.4229 191.394C93.3264 193.202 91.857 194.438 90.1947 194.615C91.1135 194.515 89.4729 194.412 90.6388 194.67C92.9283 195.17 95.2464 195.489 97.6258 195.388C99.8321 195.283 102.183 194.058 102.847 191.831C103.511 189.604 102.683 187.587 100.867 186.202C101.754 186.887 100.313 185.695 100.165 185.564C99.4864 184.983 98.8259 184.361 98.0504 183.918C96.7103 183.108 95.0889 182.57 93.4573 182.538C89.5747 182.441 86.0439 185.274 85.6338 189.081C85.4352 190.9 86.0158 192.741 87.288 194.055C88.7225 195.514 90.59 195.862 92.6079 195.947C93.7313 196.007 94.8391 196.081 95.9537 196.253C95.0256 196.1 96.8487 196.461 97.0042 196.508C97.6149 196.651 98.2234 196.823 98.8298 197.023C99.1252 197.129 99.4206 197.236 99.7161 197.343C99.2562 197.119 99.2829 197.148 99.8272 197.402C100.383 197.699 100.938 197.995 101.463 198.319C101.725 198.481 101.985 198.671 102.232 198.846C101.88 198.527 101.825 198.498 102.109 198.745C102.485 199.12 102.892 199.469 103.25 199.886C103.464 200.117 103.649 200.347 103.831 200.604C103.533 200.161 103.517 200.174 103.8 200.632C103.927 200.86 104.038 201.102 104.15 201.343C103.978 200.763 103.98 200.735 104.112 201.272C104.2 201.822 104.202 201.794 104.147 201.189C104.089 201.763 104.093 201.707 104.187 201.05C104.322 200.618 104.565 200.274 104.933 200.004C104.499 200.385 104.59 200.331 105.235 199.844C105.641 199.645 106.067 199.559 106.499 199.571C108.003 200.134 108.374 200.2 107.625 199.786C107.283 199.538 106.941 199.289 106.598 199.041C105.505 198.224 104.427 197.393 103.335 196.548C103.199 196.431 101.73 195.238 102.368 195.776C101.852 195.34 101.323 194.89 100.807 194.454C100.291 194.018 99.7933 193.541 99.3085 193.078C99.0661 192.846 98.8104 192.6 98.568 192.369C97.676 191.375 97.826 192.053 98.9624 194.373L98.1101 196.792C97.9243 197.137 96.5138 197.799 97.574 197.366C97.6339 197.34 99.0802 196.777 98.1307 197.087C98.4568 196.984 98.9225 196.759 99.2512 196.81L98.6941 196.907C97.2267 196.809 96.2885 196.038 95.8374 194.579L99.9417 188.632C101.448 188.408 101.382 188.701 102.38 189.08C102.971 189.294 102.478 189.125 102.251 188.88C101.837 188.433 101.454 187.959 101.025 187.526C99.882 186.412 98.5459 185.364 97.0972 184.649C94.4066 183.351 91.0225 183.914 89.263 186.657C88.1918 188.353 87.7587 190.587 88.133 192.479C88.579 194.752 90.3807 196.698 92.7081 197.27C94.5402 197.701 96.3486 197.317 98.1905 197.061C98.1462 197.073 99.6198 196.905 98.8918 196.968C98.2948 197.022 99.2403 196.95 99.3713 196.94C100.053 196.917 100.716 196.936 101.407 196.984C101.68 197.006 102.198 197.231 101.449 196.999C101.718 197.077 102.002 197.141 102.271 197.219C103.135 197.454 102.469 197.281 102.244 197.19C102.62 197.383 102.964 197.604 103.322 197.839C102.415 197.223 103.124 197.777 103.355 197.966C103.873 198.374 103.092 197.256 103.275 197.879L103.378 198.051C103.599 198.562 103.585 198.548 103.364 198.036C103.436 198.052 103.455 199.106 103.418 198.094C103.43 198.684 103.342 199.257 103.312 199.832C103.364 198.977 103.452 199.527 103.286 199.803C103.735 199.044 104.353 198.345 105.24 198.09C105.507 198.013 106.532 198.211 106.141 198.031C105.988 197.957 105.184 197.695 105.828 197.966C106.615 198.269 105.288 197.656 105.246 197.641C104.997 197.493 104.706 197.331 104.475 197.141C104.679 197.302 105.124 197.721 104.526 197.045C105.189 197.822 104.826 197.46 104.706 197.148C105.078 198.127 104.833 197.559 104.782 197.291C104.602 196.247 104.652 198.031 104.757 197.051C104.776 196.799 104.811 196.533 104.817 196.267C104.882 195.061 104.599 196.85 104.828 196.127C105.018 195.543 105.163 194.971 105.382 194.388C105.839 193.152 106.396 191.932 106.869 190.682C107.434 189.168 107.858 187.622 108.11 186.043C108.198 185.47 108.257 184.896 108.273 184.307C108.275 183.914 108.49 182.629 108.278 182.37C108.528 182.7 107.442 184.017 107.225 184.207C105.227 186.115 101.279 179.939 101.351 182.566C101.366 183.493 101.712 184.443 102.113 185.241C102.565 186.124 103.232 186.845 103.931 187.538C104.158 187.784 104.411 188.057 104.669 188.275C105.049 188.595 104.391 187.762 104.326 187.479L104.289 186.833C104.228 187.252 104.257 187.253 104.318 186.834C104.408 186.415 104.408 186.415 104.302 186.847C104.247 187 104.205 187.167 104.15 187.32C103.965 187.848 103.779 188.376 103.636 188.92C103.352 189.978 103.227 190.845 103.289 191.914C103.303 192.293 103.334 192.631 103.377 193.011C103.703 195.337 103.244 191.562 104.797 190.357L107.206 189.134C108.539 188.905 109.588 189.188 110.408 189.983L110.088 189.637C109.768 189.291 109.401 188.986 109.065 188.653C108.355 187.917 107.646 187.181 106.983 186.404C106.678 186.044 106.404 185.658 106.1 185.298C105.891 185.011 105.917 185.04 106.191 185.427C106.062 185.227 105.946 185.041 105.817 184.841C105.588 184.441 105.358 184.042 105.16 183.615C105.06 183.415 104.961 183.188 104.877 182.975C104.569 182.096 104.603 182.406 104.992 183.919L104.139 186.337L104.365 186.035L102.302 187.843L102.659 187.713L100.099 188.286C99.7213 188.303 99.4702 188.183 100.056 188.27C99.6123 188.216 99.5875 187.976 99.9943 188.325C99.7231 188.092 99.4425 187.607 99.1802 187.445C99.0843 187.19 99.0555 187.189 99.1204 187.472C99.1384 187.612 99.1564 187.753 99.1589 187.908C99.2634 189.174 99.3701 190.413 99.7076 191.657C100.541 194.713 101.94 197.378 103.934 199.835C105.004 201.143 107.034 201.636 108.74 201.264C110.653 200.841 111.911 199.529 112.649 197.838C113.914 194.954 115.22 190.962 113.663 188.096C112.864 186.656 111.596 185.469 110.473 184.286C109.243 182.987 107.888 181.25 106.224 180.515C103.805 179.449 100.583 180.34 99.1691 182.728C97.6401 185.296 98.1744 188.483 100.728 190.058C102.895 191.397 105.946 191.021 107.932 189.281C109.545 187.867 110.017 185.887 110.555 183.979C111.247 181.57 110.323 179.116 107.973 178.094C105.622 177.073 102.898 177.893 101.462 180.014C101.105 180.509 101.149 180.497 101.55 179.989C101.333 180.179 101.116 180.369 100.872 180.531C98.6663 182.124 98.5556 185.799 100.33 187.534C102.401 189.558 105.186 189.441 107.545 187.74L107.66 187.743Z" fill="black"/>
<path d="M62.9345 229.112C62.9345 229.112 63.4321 228.674 64.0584 228.436C64.6868 228.171 65.3707 228.118 65.7413 228.367C66.0808 228.644 66.4621 229.669 66.8547 230.37C67.2028 231.084 67.5 231.712 66.563 231.857C65.5882 231.931 65.4599 231.18 65.4979 230.702C65.5204 230.237 65.5894 229.914 64.6256 230.397C63.6883 230.908 62.9956 230.891 62.6651 230.501C62.3322 230.14 62.4148 229.465 62.9345 229.112Z" fill="black"/>
<path d="M113.371 248.802C113.266 249.075 113.133 249.319 112.971 249.562C112.842 249.751 113.27 249.434 112.91 249.615C112.7 249.718 112.646 249.661 113.012 249.605C112.559 249.657 112.941 249.796 113.081 249.649C113.05 249.675 112.792 249.638 112.75 249.623C112.363 249.567 113.445 249.828 112.837 249.626C112.723 249.594 112.596 249.548 112.482 249.516C111.8 249.325 113.018 249.729 112.567 249.547C112.44 249.501 112.313 249.455 112.185 249.409C111.889 249.301 111.594 249.166 111.297 249.058C110.351 248.706 109.445 248.396 108.442 248.249C106.908 248.013 105.42 248.388 104.587 249.754C103.817 251.04 103.146 252.37 102.236 253.596C101.836 254.148 101.38 254.671 100.868 255.164C100.62 255.404 100.373 255.616 100.098 255.827C99.9288 255.973 99.7478 256.077 99.5669 256.181C99.2376 256.335 99.3089 256.352 99.7653 256.244L101.116 256.611C101.44 256.747 101.478 256.818 101.116 256.611C100.879 256.478 100.628 256.331 100.391 256.198C99.9596 255.947 99.5279 255.696 99.0962 255.445C98.3446 255.003 96.3945 254.088 95.6847 255.141C94.9748 256.194 96.6633 257.541 97.3744 257.941C98.8082 258.781 100.402 260.029 102.128 260.202C103.639 260.354 104.686 259.452 105.723 258.48C106.76 257.508 107.497 256.484 108.226 255.363C108.844 254.39 109.307 253.342 109.965 252.412C110.077 252.264 110.225 252.214 110.011 252.372C110.088 252.305 110.208 252.254 110.298 252.202C110.674 252.009 110.252 252.242 110.24 252.2C110.25 252.27 110.862 252.002 110.389 252.15C110.092 252.25 110.402 252.165 110.56 252.184C110.951 252.185 110.005 252.04 110.389 252.15C110.658 252.229 110.928 252.308 111.198 252.387C111.369 252.421 110.506 252.127 110.999 252.325C111.127 252.371 111.254 252.417 111.381 252.463C111.649 252.57 111.917 252.676 112.2 252.77C113.075 253.106 113.924 253.386 114.87 253.531C116.332 253.75 117.879 253.378 118.43 251.89C118.859 250.717 117.702 249.637 116.741 249.091C116.114 248.722 115.426 248.407 114.677 248.352C114.288 248.324 113.49 248.336 113.315 248.772L113.371 248.802Z" fill="black"/>
<path d="M65.7596 272.884C65.7596 272.884 65.5372 273.57 65.0527 274.482C64.5683 275.395 63.7524 276.49 62.7192 277.383C60.649 279.225 57.8296 279.793 56.207 279.403C55.3948 279.222 54.3829 278.59 53.3475 278.29C53.078 278.212 52.822 278.147 52.593 278.112L52.4062 278.091C52.4062 278.091 52.335 278.075 52.3196 278.088L54.1762 276.197C55.0207 275.311 55.3871 274.838 55.6591 274.473C55.931 274.108 56.0507 273.849 56.1337 273.699C56.2554 273.412 56.1108 273.615 56.2123 274.021C56.2964 274.468 56.5246 275.128 57.197 276.261C57.3641 276.558 57.5735 276.871 57.8194 277.281L58.8148 278.759L59.105 279.157C59.105 279.157 59.105 279.157 59.0895 279.171C59.0895 279.171 59.0587 279.197 58.997 279.251L58.4688 279.759C57.0577 281.083 55.7624 282.203 54.6182 282.621C53.4894 283.026 52.4271 282.697 51.8596 280.902C50.7862 277.258 53.6684 275.805 55.6215 275.207C56.157 275.004 56.4458 275.014 56.5305 275.045L56.544 275.059L56.4077 274.735C56.3213 274.524 56.2734 274.384 56.2409 274.23C56.1739 273.95 56.1548 273.811 56.1472 273.714C56.1455 273.533 56.159 273.547 56.159 273.547C56.1822 273.423 56.2075 273.272 56.2193 273.106C56.2448 272.746 56.2473 272.302 56.0785 271.825C55.2878 269.91 54.0765 268.62 54.7312 267.144C55.0402 266.462 55.8305 265.726 57.3 265.417C58.7714 265.08 60.7693 265.483 61.9469 266.023C62.5646 266.294 63.0667 266.562 63.4264 266.796C63.8016 267.017 64.0363 267.178 64.3094 267.41C64.8286 267.844 65.2669 268.4 65.5857 269.008C66.2233 270.223 66.2945 271.668 65.7307 272.883L65.7596 272.884Z" fill="black"/>
<path d="M119.122 295.013C119.122 295.013 119.916 294.66 120.819 294.185C121.707 293.724 122.723 293.098 123.4 293.524C123.745 293.745 124.161 294.554 124.308 295.677C124.456 296.799 124.276 298.233 123.764 299.461C123.252 300.689 122.44 301.684 121.758 302.096C121.063 302.494 120.669 302.342 120.601 301.515C120.447 299.903 121.299 299.161 121.937 298.37C122.559 297.593 122.843 297.085 121.178 297.103C119.535 297.024 118.683 296.439 118.364 296.066C118.047 295.664 118.303 295.337 119.12 295.041L119.122 295.013Z" fill="black"/>
<path d="M149.596 237.022C149.596 237.022 148.712 236.492 147.644 235.521C146.548 234.549 145.389 233.085 144.475 231.43C143.932 230.601 143.473 229.619 143.531 228.681C143.552 228.218 143.731 227.774 144.017 227.446C144.048 227.418 143.97 227.486 143.986 227.473C144.001 227.459 144.001 227.459 143.986 227.473C143.959 227.444 144.019 227.6 144.366 226.852C144.545 226.408 144.777 225.839 144.937 223.767C144.961 223.459 144.971 223.136 144.997 222.8L145.056 221.104L145.087 221.076L145.134 221.036C145.196 220.981 145.26 220.899 145.324 220.817C145.464 220.694 145.577 220.543 145.718 220.393C146.27 219.805 146.881 219.191 147.38 218.546C147.492 218.394 147.621 218.23 147.736 218.051L148.258 219.343L148.479 219.854C148.653 220.224 148.853 220.623 149.096 221.037C149.994 222.704 151.47 223.996 151.957 224.066C152.083 224.111 152.099 224.098 152.054 224.111C152.112 224.112 151.939 224.107 152.154 224.128L152.097 224.126L151.952 224.122C151.952 224.122 151.69 224.142 151.544 224.166C151.207 224.227 150.779 224.341 150.197 224.563C149.9 224.667 149.601 224.798 149.226 224.97L148.641 225.248L147.601 225.794C146.951 226.154 146.042 226.689 144.417 227.878L143.588 228.5C143.588 228.5 143.559 228.499 143.53 228.498C143.475 228.469 143.419 228.439 143.324 228.366C143.146 228.235 142.901 228.031 142.577 227.741L142.036 227.249C141.836 227.032 141.418 226.641 140.995 226.124C140.192 225.105 138.843 223.466 138.166 220.247C137.841 218.652 137.831 216.729 138.258 214.945C138.67 213.174 139.335 211.86 139.851 210.99C140.366 210.121 140.782 209.599 140.99 209.339C141.199 209.078 141.258 209.052 141.387 208.887C141.624 208.627 141.859 208.395 142.107 208.178C142.386 207.933 142.446 207.907 143.106 207.224C143.733 206.596 144.739 205.558 146.364 204.552C147.169 204.056 148.087 203.591 149.083 203.241C150.391 202.773 151.667 202.543 152.755 202.504C154.946 202.412 156.747 202.87 158.391 203.675C160.006 204.479 161.414 205.727 162.309 207.057C163.204 208.388 163.524 209.674 163.581 210.434C163.636 211.221 163.466 211.553 163.226 211.476C162.97 211.413 162.65 210.885 162.015 210.109C161.397 209.319 160.391 208.294 159.056 207.61C157.72 206.926 156.253 206.646 154.768 206.772C154.027 206.82 153.334 206.983 152.622 207.215C152.281 207.332 151.921 207.49 151.575 207.663C151.185 207.848 150.881 208.036 150.68 208.212C149.758 208.916 149.178 209.685 148.857 210.279C148.209 211.552 148.392 211.992 148.309 212.509C148.254 213.027 148.144 213.515 147.965 213.959C147.829 214.418 147.076 215.365 146.937 216.975C146.845 218.544 147.502 219.588 147.916 220.217C148.37 220.89 148.701 221.278 148.933 221.65C149.425 222.393 149.735 223.062 149.867 223.599C149.986 224.122 149.969 224.528 149.929 224.667L149.898 224.695C150.047 224.643 150.211 224.577 150.346 224.511C150.659 224.394 150.909 224.331 151.102 224.266C151.515 224.165 151.764 224.13 151.924 224.121L152.097 224.126C151.895 224.12 152.054 224.111 152.01 224.123C152.01 224.123 152.01 224.123 152.023 224.138C152.023 224.138 151.995 224.137 152.052 224.139C152.281 224.173 152.525 224.194 152.798 224.216C153.344 224.26 154.013 224.223 154.753 223.991C156.253 223.487 157.472 222.68 158.619 222.249C159.768 221.791 160.838 221.611 161.891 222.02C162.901 222.414 163.914 223.538 164.253 225.512C164.627 227.403 164.091 230.041 162.969 232.016C160.629 236.103 157.365 237.736 155.082 238.274C153.085 238.666 151.033 238.27 149.532 237.105L149.596 237.022Z" fill="black"/>
<path d="M31.4654 191.687C31.4654 191.687 31.6913 191.362 31.9639 190.788C32.2653 190.215 32.598 189.408 32.9789 188.532C33.7253 186.795 34.6319 184.841 36.1532 184.616C36.8945 184.572 38.4474 184.917 40.3805 186.83C41.295 187.806 42.4084 189.441 42.5713 191.82C42.6635 192.962 42.4859 194.233 42.0891 195.33C41.7058 196.441 41.1631 197.353 40.6208 198.056C40.092 198.774 39.575 199.325 39.1391 199.754C38.9077 199.955 38.7051 200.156 38.5046 200.329C38.2732 200.53 38.0438 200.702 37.8143 200.875C36.9718 201.526 36.1759 201.929 35.2551 202.258C34.3497 202.574 33.2595 202.842 31.8332 202.751C30.4183 202.702 28.7043 201.977 27.8302 201.044C26.9695 200.126 26.8014 199.44 26.8117 199.093C26.8374 198.733 27.0724 198.686 27.5051 198.909C27.9263 199.09 28.6126 199.613 29.821 199.919C31.018 200.182 31.9368 199.881 32.4918 199.608C33.0622 199.323 33.4324 199.002 33.741 198.735C34.0649 198.455 34.3157 198.186 34.5665 197.917C34.7864 197.674 35.0198 197.446 35.2243 197.217C35.9284 196.478 36.9228 195.929 37.7618 195.125C38.5988 194.349 39.1379 193.285 38.9465 192.723C38.7725 192.12 38.0716 192.207 36.4771 192.443C35.6741 192.54 34.9716 192.447 34.3577 192.328C33.8016 192.212 33.3301 192.126 32.8875 192.042C32.8875 192.042 32.9298 192.057 32.9741 192.045C32.9163 192.043 32.9452 192.044 32.7411 192.064C32.4349 192.095 31.6703 192.263 30.5276 192.863C30.6759 192.812 30.9983 192.351 31.45 191.701L31.4654 191.687Z" fill="black"/>
<path d="M155.149 289.506C155.149 289.506 153.349 289.579 151.417 289.662C149.445 289.702 147.201 289.691 146.452 288.39C146.092 287.74 146.117 286.135 146.658 284.189C147.198 282.243 148.325 279.999 149.769 278.182C150.12 277.724 150.497 277.295 150.886 276.907C151.073 276.72 151.275 276.52 151.446 276.346C151.693 276.133 151.693 276.133 152.232 275.668C153.089 275.007 153.902 274.565 154.868 274.198C155.833 273.859 156.981 273.596 158.393 273.702C159.806 273.781 161.44 274.448 162.279 275.282C163.148 276.116 163.348 276.774 163.339 277.119C163.343 277.479 163.092 277.54 162.642 277.357C162.202 277.217 161.496 276.762 160.338 276.541C159.179 276.347 158.291 276.619 157.721 276.904C157.136 277.201 156.766 277.52 156.427 277.812C155.838 278.373 155.275 278.961 154.911 279.405C154.22 280.183 153.313 280.732 152.539 281.244C151.004 282.283 150.145 282.972 153.171 284.022C156.16 285.181 157.308 286.787 157.526 287.819C157.712 288.878 156.84 289.552 155.118 289.532L155.149 289.506Z" fill="black"/>
<path d="M125.445 306.12C80.4484 251.019 141.99 106.581 253.854 111.936C263.163 112.378 273.216 146.593 280.461 150.894C293.341 158.555 294.47 146.183 305.978 151.309C309.306 152.784 306.48 177.033 320.511 182.52C349.776 193.995 358.591 161.531 361.511 169.694C373.128 202.299 393.806 219.777 370.191 259.142C342.226 305.765 247.277 379.801 196.12 356.512C176.595 347.613 158.347 341.153 148.911 331.936C145.001 328.128 147.526 320.076 144.282 317.163C134.826 308.68 128.863 310.266 125.46 306.101L125.445 306.12Z" fill="#AF894C"/>
<path d="M125.407 292.626C121.956 289.933 120.237 283.503 119.484 277.863C118.194 269.744 118.115 261.44 118.713 253.215C119.198 245.092 120.808 237.117 122.712 229.195C123.865 225.298 124.85 221.315 126.304 217.506L128.397 211.732L130.798 206.081C137.38 190.806 146.588 176.598 157.737 163.827C168.827 151.045 182.457 140.053 197.663 131.539C205.606 127.383 213.772 123.591 222.547 121.095C226.655 119.668 231.793 118.685 236.468 117.651L237.378 117.469L238.5 117.314L240.731 117.024L245.139 116.468L249.437 115.925C249.791 115.9 250.153 115.82 250.492 115.814L251.434 115.895L253.317 116.057L260.711 116.667C261.337 116.679 261.918 116.751 262.408 116.94C262.65 117.017 262.913 117.11 263.183 117.237C263.511 117.464 263.264 117.654 263.189 117.753C262.664 118.262 262.117 118.756 261.802 119.471C261.063 120.825 261.186 123.017 261.92 125.633C262.219 126.985 262.338 128.572 262.376 130.134C262.266 130.931 261.934 131.754 261.744 132.525L261.65 132.822L261.714 132.956L261.827 133.245L262.074 133.838C265.068 140.219 271.35 146.5 277.453 152.056C278.955 153.368 280.448 154.735 281.931 155.853C283.457 157.002 285.163 158.004 287.06 158.627C288.927 159.289 291.017 159.443 292.898 158.911C294.807 158.428 296.382 157.292 297.761 156.02C299.133 154.714 300.31 153.182 301.436 151.584C302.04 150.799 302.571 149.933 303.447 149.185C303.581 149.097 303.737 149.025 303.893 148.953C304.114 148.925 304.336 148.898 304.532 149.035C304.897 149.257 305.01 149.546 305.115 149.8C305.327 150.308 305.428 150.83 305.545 151.332C306.415 155.337 307.367 159.369 308.555 163.353C309.743 167.338 311.174 171.311 313.353 175.139C315.45 178.941 319.036 182.722 323.769 184.227C328.189 185.876 332.988 186.554 337.689 186.14C342.344 185.785 346.962 184.26 350.822 182.24C354.987 180.041 358.132 177.254 360.872 174.035L361.662 173.138L362.024 172.667C362.024 172.667 362.276 172.992 362.377 173.122L363.649 175.298C364.478 176.746 365.343 178.189 366.135 179.641C367.77 182.521 369.331 185.409 370.817 188.396C374.243 195.347 377.101 202.777 378.115 210.254C379.041 217.76 378.064 225.391 376.146 232.852C374.213 240.332 371.628 247.661 368.866 254.959C370.814 253.991 372.866 252.975 374.778 251.923C373.229 245.882 376.364 237.097 378.429 229.618C379.905 224.169 381.082 218.543 381.209 212.76C381.357 206.992 380.424 201.108 378.743 195.456C377.878 192.75 376.992 190.028 375.875 187.387C374.785 184.494 373.313 181.577 371.953 178.557C370.473 175.604 368.959 172.567 367.357 169.47L364.878 164.771L364.251 163.584L363.945 162.98L363.773 162.681L363.595 162.738C363.129 162.866 362.641 162.979 362.167 163.072C360.725 164.601 359.231 166.154 357.494 167.719L354.953 170.112L352.237 172.384L350.876 173.547C350.413 173.889 349.914 174.145 349.445 174.452L346.539 176.231C344.974 176.831 343.576 177.518 341.979 177.856C338.928 178.691 335.792 178.985 332.74 178.645C331.211 178.458 329.69 178.217 328.255 177.733C327.536 177.536 326.82 177.25 326.146 176.994C325.628 176.755 325.072 176.52 324.576 176.207C323.71 175.636 322.919 174.967 322.277 174.191C321.716 173.441 321.054 172.561 320.412 171.393C319.155 169.197 318.105 166.513 317.153 163.745C316.216 160.958 315.37 158.053 314.606 155.085L313.486 150.576L313.211 149.452C313.211 149.452 313.025 148.781 312.927 148.472L312.745 147.925L312.342 147.013C312.179 146.659 312.108 146.49 311.807 146.01C311.399 145.366 310.902 144.75 310.381 144.209C310.237 144.048 310.164 143.968 309.917 143.767C309.583 143.505 309.227 143.228 308.841 142.99C308.084 142.495 307.214 142.103 306.371 141.85C304.775 141.315 302.608 141.348 300.918 141.893C300.4 142.045 300.407 142.08 300.162 142.181L299.59 142.447C299.21 142.636 298.838 142.859 298.487 143.098L298.024 143.439L297.815 143.625L297.396 143.996C296.743 144.628 296.562 144.864 296.291 145.217C295.355 146.435 294.877 147.188 294.575 147.58L293.851 148.523C293.368 149.152 292.857 149.731 292.273 150.229C291.128 151.241 289.46 151.801 287.823 151.449C286.193 151.132 284.788 150.217 283.56 149.246L280.604 146.866C279.4 145.82 278.114 144.838 276.984 143.783C274.619 141.722 272.514 139.541 270.681 137.397C268.87 135.269 267.4 133.045 266.739 131.292L266.598 130.954C266.598 130.954 266.729 130.653 266.843 130.461L267.223 129.791C267.711 128.895 268.383 127.977 268.708 127.118L268.82 124.577C268.828 123.739 268.619 123.053 268.523 122.263C268.225 120.822 267.641 119.665 267.12 118.732C266.856 118.248 266.739 117.835 266.533 117.362C266.444 116.999 266.298 116.536 266.222 116.243C265.87 114.915 266.123 114.368 266.638 114.003C266.699 113.924 267.061 113.844 266.45 113.421C266.035 113.133 265.656 112.93 265.276 112.727C264.301 112.473 263.124 112.349 262.045 112.143C259.819 111.774 257.608 111.385 255.383 111.016C254.236 110.853 253.18 110.573 251.958 110.509L247.83 111.048L239.433 112.181L237.313 112.457L236.264 112.603C235.954 112.659 235.739 112.721 235.466 112.772L232.432 113.498C228.406 114.47 224.157 115.559 220.929 116.843L215.738 118.723C214.01 119.361 212.396 120.199 210.725 120.937C195.792 127.834 182.503 137.075 171.191 147.837C159.836 158.569 150.173 170.625 142.015 183.422L146.585 186.14C154.177 172.468 166.299 160.912 179.141 151.12C192.123 141.276 205.204 132.914 217.618 122.765C221.023 120.249 217.915 117.282 212.99 119.557C203.792 123.777 195.481 129.153 187.641 134.917C179.923 140.825 172.881 147.292 166.363 154.123C160.131 160.971 154.074 167.158 147.891 173.769C144.688 176.937 141.937 180.388 139.031 183.822C136.359 187.388 133.575 190.968 131.251 194.865C126.468 202.267 122.603 210.304 119.117 218.544C115.857 226.881 113.132 235.437 111.301 244.223C107.931 259.889 108.314 277.073 115.196 290.153C118.34 295.946 122.28 300.965 126.674 305.697C130.876 310.506 135.474 314.929 140.198 319.799C140.782 318.037 141.333 316.492 142.218 314.818C134.444 308.344 128.12 298.24 124.055 287.505C119.851 276.733 117.207 265.236 115.335 253.823C114.913 251.062 113.352 250.612 111.993 251.597C110.634 252.582 109.426 255.025 110.044 257.922C112.235 269.617 115.264 281.44 120.118 292.542C120.749 293.943 121.277 295.302 121.974 296.659L124.112 300.67C125.405 303.342 127.32 305.814 128.89 308.257C132.547 312.99 136.388 317.399 141.069 320.494C142.742 321.714 144.306 321.202 144.667 319.948C145.091 318.525 144.391 316.866 142.935 315.495C135.784 307.166 128.055 299.37 122.066 289.919C120.532 287.561 119.347 285.053 118.1 282.322C116.926 279.582 116.153 276.668 115.444 273.497C114.191 266.156 114.277 258.118 115.622 250.531C116.145 246.497 117.209 242.629 118.149 238.705C119.272 234.848 120.395 230.99 121.782 227.225C124.699 218.681 128.516 210.49 132.813 202.631C135.075 198.902 137.221 195.151 139.861 191.713C141.13 189.974 142.4 188.235 143.719 186.561C145.126 184.947 146.511 183.318 147.933 181.685C149.363 179.997 150.924 178.401 152.464 176.789C153.982 175.161 155.484 173.554 156.987 171.946C160.159 168.818 163.027 165.477 166.225 162.185C169.511 158.473 173.082 154.958 176.565 151.382C180.273 147.992 183.858 144.457 187.914 141.398C196.292 134.804 205.361 128.748 215.449 124.152C213.921 123.092 212.362 122.072 210.767 121.057C200.372 130.016 187.536 138.276 176.127 147.074C172.7 149.575 169.592 152.358 166.266 154.989C163.209 157.836 159.955 160.548 157.107 163.601C154.216 166.624 151.354 169.697 148.884 173.043C146.269 176.317 144.061 179.844 142.006 183.477C140.684 185.721 140.397 188.141 141.732 188.886C143.002 189.585 145.139 188.328 146.577 186.194C161.134 163.412 180.66 142.871 205.921 129.107L208.206 127.831L210.599 126.72L215.384 124.498C218.571 123.005 222.016 121.961 225.325 120.703C228.764 119.535 232.693 118.646 236.371 117.734C237.193 117.491 238.588 117.375 239.703 117.185L243.197 116.687L250.066 115.759C252.194 115.82 254.156 116.096 256.15 116.245C258.114 116.432 260.19 116.517 262.02 116.792C262.423 116.921 262.834 116.995 263.249 117.282C263.419 117.671 263.004 117.775 262.86 118.006C262.448 118.413 262.042 118.854 261.774 119.421C261.246 120.5 261.076 122.158 261.579 124.072C262.002 125.961 262.714 128.562 262.174 131.138L261.891 132.116L261.757 132.595C261.695 132.763 261.67 132.926 261.736 132.971L262.139 133.883C262.408 134.491 262.78 135.14 263.129 135.774C264.66 138.31 266.678 140.823 268.986 143.176C273.429 147.671 279.097 152.443 283.298 155.205C285.572 156.601 288.368 157.577 291.037 157.109C293.72 156.621 295.771 154.822 297.347 152.813C297.739 152.303 298.147 151.772 298.554 151.242L299.795 149.453C300.066 149.099 300.294 148.716 300.7 148.274C300.851 148.078 301.114 147.779 301.458 147.505C301.534 147.407 301.899 147.149 302.242 146.965C302.413 146.873 302.569 146.8 302.799 146.719C303.139 146.624 303.539 146.539 303.936 146.544C304.74 146.499 305.398 146.775 306.062 147.175C306.214 147.281 306.367 147.387 306.498 147.477L306.686 147.668C306.809 147.813 306.925 147.924 307.032 148.089C307.155 148.234 307.241 148.384 307.342 148.514L307.469 148.783L307.703 149.306C307.913 149.903 308.08 150.47 308.169 150.833C308.922 154.035 309.748 157.227 310.657 160.355C312.52 166.554 314.548 173.017 318.69 177.816C321.215 180.8 325.204 182.271 329.27 183.163C333.35 184.036 337.645 184.063 341.75 183.206C345.824 182.388 349.835 180.563 353.023 178.679C354.553 177.602 356.131 176.679 357.412 175.49L359.395 173.824L361.129 172.046L362.202 170.954C362.202 170.954 362.368 170.738 362.457 170.709L362.671 171.128L363.098 171.966L364.748 175.218C365.859 177.343 366.801 179.47 367.759 181.489C368.717 183.508 369.528 185.546 370.37 187.454L371.595 190.651C372.082 191.802 372.496 192.962 372.836 194.131C375.166 200.984 376.427 207.879 375.982 214.555C375.619 219.601 374.322 224.513 372.913 229.526C371.571 234.496 369.925 239.557 369.056 244.433C368.091 249.304 367.868 253.906 368.671 258.044C369.269 261.229 373.338 258.631 374.67 255.069C377.299 247.77 379.833 240.465 381.703 232.761C383.506 225.1 384.552 216.944 383.195 208.868C382.862 206.862 382.53 204.855 381.946 202.915C381.488 200.942 380.793 199.015 380.142 197.119C379.559 195.179 378.641 193.369 377.879 191.486C377.074 189.573 376.211 187.951 375.261 185.878C373.226 181.908 371.123 177.981 368.886 174.143C367.809 172.192 366.643 170.269 365.528 168.323L363.827 165.397L363.606 165.033C363.542 164.898 363.456 164.749 363.387 164.882L362.903 165.208L361.911 165.845C358.688 169.692 354.685 173.509 350.468 176.516C349.418 177.143 348.246 178.016 347.251 178.44C346.256 178.864 345.29 179.338 344.303 179.708C343.266 180.012 342.279 180.382 341.236 180.652C340.172 180.817 339.157 181.137 338.094 181.214C333.864 181.712 329.459 181.218 325.544 179.738C323.751 179.067 322.089 178.095 320.809 176.756C319.558 175.467 318.496 173.888 317.497 172.052C315.566 168.425 314.234 164.28 313.064 160.097C312.483 157.979 311.961 155.871 311.469 153.723L310.747 150.483C310.693 150.205 310.652 149.996 310.514 149.479L310.328 148.808C310.215 148.519 310.067 148.145 309.911 147.826C309.796 147.626 309.805 147.572 309.611 147.257C309.396 146.928 309.166 146.618 308.921 146.327L308.516 145.896C308.516 145.896 308.125 145.534 307.754 145.277C307.033 144.778 306.17 144.42 305.356 144.217C304.527 144.033 303.525 144.031 302.652 144.209C301.602 144.444 301.496 144.582 301.043 144.779C300.664 144.968 300.277 145.211 299.985 145.46L299.513 145.856C298.366 146.957 298.122 147.45 297.662 148.005L296.757 149.183C296.319 149.753 295.897 150.303 295.431 150.822C294.476 151.847 293.421 152.741 292.145 153.271C290.89 153.816 289.393 153.892 288.03 153.488C286.651 153.105 285.434 152.381 284.388 151.566C283.886 151.218 283.459 150.771 283.009 150.399L281.175 148.736L279.146 146.848C278.407 146.155 277.653 145.482 276.966 144.764C274.121 141.979 271.483 139.097 269.464 136.282C268.494 134.887 267.599 133.484 267.06 132.268C266.904 131.949 266.835 131.69 266.701 131.386L266.623 131.182C266.623 131.182 266.528 131.176 266.648 131.019L266.906 130.595L267.917 128.888L268.412 128.026C268.601 127.736 268.79 127.446 268.721 127.188L268.802 125.558C268.941 124.42 268.707 123.505 268.577 122.542C268.455 121.524 268.047 120.88 267.774 120.059C267.483 119.435 267.031 118.761 266.887 118.209C266.429 117.019 266.232 116.099 266.213 115.514C266.172 114.914 266.385 114.55 266.677 114.301C266.737 114.222 266.841 114.174 266.902 114.095C266.947 114.036 267.075 113.914 266.682 113.641C266.158 113.278 265.743 112.991 265.12 112.8L256.724 111.404L252.442 110.663L247.199 111.303L236.477 112.63C233.86 113.164 231.264 113.712 228.659 114.315L224.738 115.239L221.367 116.273L214.617 118.397L208.093 121.009L204.835 122.333L201.713 123.871L195.475 126.982L189.518 130.469L186.554 132.237L183.734 134.165L178.102 138.057C170.973 143.591 164.016 149.425 158.004 155.944C145.638 168.775 135.817 183.521 128.233 199.185C119.909 216.685 114.61 235.56 113.335 254.815C112.829 264.097 113.137 273.583 114.961 282.705C115.391 284.629 115.872 286.528 116.399 288.368C116.963 290.204 117.756 291.958 118.538 293.554C120.013 296.774 122.264 299.418 124.541 301.027C126.331 302.268 127.397 300.749 127.588 298.715C127.695 297.705 127.561 296.528 127.205 295.468C126.937 294.38 126.403 293.377 125.553 292.697L125.407 292.626Z" fill="#0A0907"/>
<path d="M377.802 199.784C377.082 197.039 376.325 194.3 375.355 191.62C374.281 188.426 372.731 185.199 371.308 181.765C369.716 178.42 368.096 174.939 366.301 171.337L363.535 165.794L362.82 164.385L362.469 163.671C362.469 163.671 362.341 163.405 362.29 163.34L362.116 163.22C361.605 163.017 361.118 162.74 360.608 162.449L357.195 165.751L353.331 169.333C352.025 170.594 350.633 171.707 349.254 172.977L347.149 174.841C346.439 175.329 345.708 175.714 344.977 176.187C344.06 176.769 343.122 177.336 342.184 177.904C341.543 178.173 341.036 178.268 340.477 178.474C339.401 178.917 338.241 179.036 337.182 179.372C334.97 179.773 332.835 179.989 330.701 180.03C329.653 180.048 328.582 180.051 327.52 180.001C326.986 179.958 326.465 179.984 325.945 179.923C325.454 179.91 324.803 179.846 324.568 179.892C322.991 179.989 321.205 179.796 319.165 179.368C317.776 179.093 316.797 179.366 316.535 180.399C316.252 181.328 316.745 182.939 318.195 184.174C321.038 186.633 325.018 187.746 328.916 188.446C332.867 189.035 336.931 188.785 340.755 187.807C344.622 186.859 348.113 184.972 351.18 182.941C352.653 181.854 354.169 180.797 355.431 179.506C356.077 178.885 356.766 178.294 357.389 177.659L359.166 175.657C360.695 172.419 361.751 176.46 362.933 178.042C364.14 180.026 365.236 182.023 366.369 184.016C368.642 188.036 370.601 191.899 372.606 196.267C374.391 200.572 376.132 204.936 377.014 209.418C377.911 213.881 378.395 218.445 377.921 222.911C377.298 231.033 374.511 238.759 371.382 246.279C368.194 253.789 364.591 261.101 360.15 267.985C355.842 274.783 351.024 281.378 345.373 287.192C339.736 292.987 333.681 298.287 327.452 303.379C313.336 314.935 298.092 325.27 282.05 333.135L283.356 338.323C299.16 329.467 314.194 319.016 328.208 307.419C335.119 301.702 341.806 295.713 348.16 289.377C354.298 283.277 360.193 276.801 365.152 269.505C367.936 265.504 370.301 261.096 372.197 256.603C373.99 252.157 375.477 247.589 376.291 242.942C377.105 238.207 372.682 237.322 370.993 242.195C368.359 249.376 365.718 256.523 363.001 263.942C361.516 267.772 364.566 270.048 367.514 266.397C368.543 265.064 369.527 263.7 370.447 262.291C371.322 260.853 372.155 259.384 372.921 257.871C374.33 254.876 375.599 251.844 376.49 248.611C374.52 249.09 372.579 249.529 370.595 249.939C370.016 255.191 368.619 260.767 366.126 266.034C363.649 271.281 360.418 276.335 356.58 280.794C348.976 289.79 339.23 296.544 329.829 299.778C325.191 301.378 323.484 308.309 328.252 306.799C339.491 303.173 351.047 295.239 360.226 284.634C364.778 279.336 368.717 273.319 371.605 266.934C373.059 263.793 374.231 260.369 375.012 257.15C375.793 253.93 376.383 250.698 376.644 247.504C377.087 242.602 372.111 244.207 370.755 248.865C370.037 251.182 369.107 253.47 368.045 255.669C366.882 257.826 365.675 259.954 364.126 261.876L368.663 264.259C371.079 257.49 373.324 250.9 375.909 244.129L370.583 243.333C369.059 250.893 366.077 258.308 361.779 264.964C357.487 271.655 352.191 277.744 346.689 283.365C334.467 295.84 320.985 307.093 306.798 317.269C298.795 322.974 290.533 328.322 282.05 333.135C277.134 335.875 278.061 340.862 283.356 338.323C298.082 331.299 312.006 322.155 325.145 311.997C338.159 301.783 350.744 290.83 360.52 277.026C365.386 270.11 369.855 262.713 373.412 254.984C376.953 247.362 380.256 239.488 382.153 230.882C384.115 222.322 383.744 212.807 381.054 204.092C380.355 201.925 379.694 199.754 378.789 197.682C377.988 195.562 377.053 193.529 376.082 191.499C373.753 186.643 371.023 181.746 368.253 177.029L364.342 170.373L362.354 167.023C362.195 166.796 362.032 166.358 361.85 166.291L361.321 166.371L360.257 166.497L357.78 169.319L355.077 172.133C353.286 174.066 351.359 175.786 349.401 177.546C348.451 178.519 347.404 179.011 346.405 179.744C345.437 180.35 344.246 181.246 343.606 181.426L341.321 182.398L338.967 183.115C335.783 183.912 332.49 184.071 329.308 183.568C327.706 183.264 326.15 182.903 324.698 182.319C323.415 181.82 322.352 181.207 321.432 180.366C321.098 181.882 321.106 183.515 321.437 185.163C325.401 184.696 329.853 185.067 334.462 184.63C336.78 184.48 339.109 184.012 341.403 183.461C342.572 183.2 343.626 182.742 344.722 182.402C345.229 182.307 345.969 181.781 346.573 181.516C347.186 181.198 347.798 180.88 348.374 180.566C352.792 177.779 356.796 174.706 359.689 171.993C360.102 171.804 360.508 171.581 360.892 171.342C360.98 171.314 361.1 171.159 361.187 171.219L361.444 171.751L361.936 172.8L363.886 176.893C365.172 179.553 366.253 182.132 367.314 184.607C369.37 189.602 370.914 193.83 372.266 198.784C373.06 201.52 374.689 203.173 376.07 203.502C377.451 203.831 378.652 202.706 377.979 199.728L377.802 199.784Z" fill="#0A0907"/>
<path d="M285.857 328.623C272.591 338.091 258.42 346.599 243.655 351.903C236.891 354.316 229.961 355.764 223.622 356.439C220.533 356.847 217.623 356.802 214.79 356.963C214.02 357.006 213.342 356.931 212.588 356.954C211.805 356.928 211.189 357.077 210.238 356.964C209.581 356.904 208.903 356.828 208.232 356.788C206.999 356.692 207.676 356.464 208.112 356.857L206.643 360.876C207.537 360.888 208.481 360.966 209.404 361.029C210.254 361.011 211.111 361.028 211.974 361.081C213.64 361.264 215.469 361.105 217.211 361.19C218.985 361.145 220.82 361.021 222.618 360.901C224.434 360.582 226.224 360.517 227.977 360.063C235.612 358.436 243.155 355.531 250.545 352.126C265.074 345.293 279.174 336.615 293.318 328.362C301.317 323.679 309.24 319.095 317.207 314.936L315.362 309.956C298.25 324.102 279.995 337.335 260.555 347.744C250.869 352.927 240.763 357.302 230.519 359.671C225.389 360.91 220.259 361.36 215.272 360.969C214.652 360.904 213.994 360.933 213.405 360.828L211.594 360.484L209.731 360.163L207.629 359.587C204.838 358.775 201.983 358.132 199.2 357.265C186.734 353.572 174.412 349.341 162.533 343.962C163.342 346.009 164.241 348.028 165.213 350.037C168.001 349.542 170.768 349.031 173.831 348.788C175.348 348.686 176.922 348.684 178.619 348.828C180.324 348.917 182.137 349.172 184.079 349.608C191.216 351.125 198.788 354.218 206.097 356.735L209.744 358.048C210.962 358.467 211.823 358.609 212.867 358.908C213.843 359.25 214.92 359.329 215.974 359.483C217.027 359.636 218.087 359.825 219.204 359.809C223.571 360.136 228.216 359.531 232.823 358.627C242.083 356.67 251.266 353.02 259.972 348.463C270.037 343.179 279.699 336.979 288.835 330.11C292.909 327.016 290.898 322.952 286.415 325.489C278.106 330.139 269.733 334.654 261.376 338.755C253.019 342.856 244.582 346.537 236.455 349.068C228.275 351.713 220.514 352.979 214.498 352.27C213.872 352.17 213.209 352.074 212.538 352.034L209.458 351.204C207.4 350.658 205.305 350.117 203.225 349.555C199.132 348.388 195.001 347.315 190.987 346.263C182.554 344.121 174.357 342.415 167.83 343.293C164.407 343.743 167.329 348.408 171.716 349.628C178.212 351.459 184.878 353.287 191.553 355.364C194.925 356.336 198.274 357.382 201.651 358.478C203.341 358.982 205.037 359.52 206.74 360.093L209.257 360.958L211.551 361.546C213.834 362.279 215.532 361.24 215.922 360.206C216.351 359.077 215.57 357.868 213.715 357.098C213.108 356.799 212.492 356.554 211.876 356.31L210.916 355.947L209.714 355.418C208.102 354.726 206.482 354.088 204.831 353.491C201.522 352.35 198.331 351.14 194.988 350.219C188.475 348.103 181.82 346.525 175.494 344.69C169.49 343.048 163.509 341.33 157.586 338.925C151.679 336.5 145.738 333.506 140.229 328.899C139.954 330.832 139.745 332.812 139.594 334.801C148.276 340.029 157.379 345.67 165.831 351.679L169.659 348.293C167.844 347.035 165.984 345.837 164.206 344.575C162.065 343 159.35 342.787 158.554 343.783C157.674 344.934 159.052 346.981 161.303 348.632C167.605 353.121 174.36 357.195 181.51 360.269C185.33 361.793 188.976 363.107 192.662 363.931C194.508 364.361 196.31 364.76 198.114 365.07C199.949 365.34 201.77 365.54 203.606 365.72C207.072 366.089 210.714 366.489 214.16 366.358C215.912 366.298 217.619 366.298 219.369 366.023C221.116 365.838 222.826 365.658 224.578 365.294C231.785 364.007 238.676 361.561 245.18 358.482C252.946 354.761 260.167 350.176 267.057 345.15C269.037 343.7 269.254 341.666 267.976 340.931C266.544 340.091 264.062 340.798 262.172 342.219C254.617 347.634 246.631 352.387 238.226 355.938C234.373 357.607 230.382 358.756 226.401 359.76C224.43 360.063 222.379 360.645 220.426 360.748C219.457 360.834 218.411 361.02 217.435 361.072L214.477 361.177C213.47 361.268 212.55 361.115 211.582 361.112C210.579 361.024 209.69 361.136 208.571 360.937C206.389 360.639 204.237 360.391 202.075 360.199C199.921 360.041 197.866 359.709 195.752 359.367C193.631 358.989 191.452 358.602 189.243 357.86C180.304 355.154 171.803 350.083 164.256 344.64L161.353 348.697C163.219 350.02 165.123 351.249 167.003 352.552C171.878 355.627 175.434 352.204 170.803 349.116C160.221 341.692 149.709 335.226 139.208 328.221C136.933 326.645 135.301 326.637 135.289 328.358C135.147 329.899 136.215 332.308 138.499 334.133C144.261 338.673 150.288 341.817 156.313 344.263C162.391 346.685 168.376 348.527 174.45 350.035C185.991 353.057 199.013 355.891 210.449 361.237C211.29 359.787 212.073 358.327 212.775 356.841C212.033 356.63 211.444 356.525 210.555 356.243L207.796 355.302C205.953 354.693 204.08 354.123 202.244 353.549C198.604 352.27 194.885 351.271 191.281 350.078C184.333 347.963 177.208 345.817 169.775 343.549C170.997 345.67 172.308 347.762 173.708 349.824C176.036 349.405 178.731 349.513 181.658 349.842C183.117 350.034 184.59 350.296 186.128 350.603C187.659 350.876 189.226 351.233 190.778 351.61C194.578 352.636 198.58 353.528 202.458 354.668C204.451 355.169 206.428 355.69 208.399 356.175C209.333 356.398 210.492 356.807 211.208 356.878L213.476 357.236C217.009 357.56 220.657 357.691 224.556 357.055C226.45 356.942 228.457 356.33 230.413 356.047C232.412 355.49 234.385 355.098 236.386 354.451C244.421 352.039 252.535 348.65 260.538 344.88C269.668 340.556 278.717 335.813 287.668 330.849L285.284 326.223C276.959 332.47 268.267 338.189 259.252 343.018C250.29 347.822 240.9 351.874 231.729 353.803C227.41 354.724 223.129 355.247 219.337 354.955C218.857 354.926 218.369 354.952 217.904 354.903L216.571 354.678C215.688 354.52 214.735 354.497 213.958 354.201L212.738 353.872C212.275 353.733 212.031 353.746 211.334 353.476L207.71 352.178C199.411 349.248 191.13 346.12 183.051 344.04C173.479 341.594 166.349 342.298 159.236 343.285C156.533 343.627 157.638 347.518 161.819 349.445C172.713 354.142 183.741 358.053 194.922 361.371C197.705 362.237 200.512 363.03 203.343 363.747L207.546 364.9C208.973 365.222 210.38 365.438 211.786 365.744C217.444 366.571 223.104 366.214 228.612 365.268C239.625 363.25 249.997 358.877 259.931 353.897C269.873 348.861 279.323 342.938 288.512 336.744C299.087 329.568 309.246 321.8 319.05 313.665C322.64 310.721 320.858 306.664 317.19 308.704C302.186 316.726 287.515 325.887 272.669 334.534C265.239 338.822 257.768 342.991 250.27 346.625C242.794 350.274 235.19 353.258 227.908 354.948C225.909 355.505 223.926 355.648 221.887 355.995C219.928 356.063 217.913 356.336 216.068 356.21C215.122 356.222 214.161 356.254 213.284 356.132L211.926 356.07C211.446 356.041 211.06 356.108 210.406 355.958C208.019 355.578 205.696 355.334 203.451 355.295C200.194 355.223 199.35 357.157 201.879 359.274C204.781 361.648 209.107 362.553 212.274 362.351C213.802 362.408 215.427 362.078 216.993 362.131C218.575 362.074 220.213 361.814 221.839 361.788C229.004 361.17 236.695 359.733 243.948 357.294C260.091 351.762 275.13 342.733 289.13 332.742C293.945 329.16 290.416 325.288 285.714 328.766L285.857 328.623Z" fill="#0A0907"/>
<path d="M165.386 232.67C164.229 231.665 162.785 230.904 161.362 230.338L158.819 242.224C159.485 242.28 160.172 242.351 160.838 242.406L161.504 242.462C162.272 242.56 162.25 242.544 161.424 242.434L158.518 240.361L157.603 238.418L157.832 235.284L157.69 235.603L159.657 233.019L159.407 233.171L162.432 232.032L162.117 232.047L165.467 232.519L165.161 232.39L168.067 234.464L167.856 234.253L169.312 237.211L169.278 236.947L168.255 241.523C169.735 239.402 171.237 237.296 172.827 235.253C173.005 235.02 173.182 234.786 173.36 234.553C170.753 235.541 170.039 235.991 171.241 235.919C171.519 235.908 171.819 235.912 172.097 235.901C171.534 235.889 171.497 235.892 171.951 235.916C173.304 236.132 174.607 236.193 175.959 236.498L170.939 226.44C170.717 226.732 170.452 226.992 170.208 227.268C170.282 227.17 170.959 226.635 170.378 227.089C169.862 227.5 169.39 227.943 168.852 228.339C168.315 228.735 167.742 229.045 167.182 229.425C166.586 229.81 167.248 229.383 167.351 229.336C166.925 229.542 166.499 229.747 166.029 229.922C164.766 230.429 163.467 230.762 162.169 231.094C160.107 231.631 158.268 232.807 156.982 234.408C154.269 237.748 153.918 243.523 157.546 246.862C161.793 250.762 166.92 248.545 170.368 245.7C172.858 243.669 174.927 241.218 176.784 238.646C179.004 235.554 181.123 232.329 179.059 228.308C177.84 225.879 175.267 224.343 172.561 224C171.178 223.823 169.961 224.093 168.706 224.457C168.266 224.593 166.344 225.08 168.148 224.748C167.084 224.949 169.252 224.936 168.133 224.767C167.628 224.677 167.094 224.626 166.597 224.571C165.119 224.386 163.619 224.274 162.189 224.513C159.778 224.891 157.968 226.027 156.388 227.659C155.909 228.156 155.538 228.731 155.146 229.29C155.013 229.465 154.784 229.721 154.695 229.927C154.456 230.506 155.161 229.271 155.613 229.474C155.431 229.403 154.425 229.795 154.234 229.868C152.956 230.306 151.624 231.214 150.84 232.243C149.376 234.166 149.072 236.558 149.889 238.939C151.393 243.341 156.075 245.783 160.661 245.428C161.892 245.317 163.074 244.961 164.305 244.85C164.708 244.808 166.004 244.833 164.906 244.769C165.777 244.821 166.655 244.908 167.518 245.015C173.735 245.884 180.011 247.694 185.613 244.677C191.928 241.299 194.875 231.141 188.746 225.507C185.168 222.235 180.196 222.254 175.942 223.235C171.688 224.217 168.4 227.117 166.833 231.035C165.52 234.265 165.579 238.085 166.504 241.563C166.995 243.442 167.691 245.318 168.432 247.136C168.54 247.393 168.647 247.649 168.762 247.941L168.949 248.404C168.364 247.357 168.701 246.428 169.981 245.633C171.308 243.402 170.501 243.666 171.946 243.318C172.707 243.381 172.853 243.366 172.378 243.326C171.822 243.259 172.056 243.306 173.021 243.456L175.927 245.529L175.68 245.233L177.137 248.192L177.11 247.873L176.881 251.007C176.987 250.513 177.137 250.051 177.324 249.584C177.399 249.398 178.23 247.952 177.585 248.931C178.163 248.084 178.828 247.3 179.449 246.484C181.498 243.659 182.019 240.673 180.617 237.244C179.215 233.816 174.883 232.553 171.814 233.66C166.822 235.434 165.499 240.935 167.755 245.544C169.774 249.713 173.723 254.18 178.887 253.908C183.458 253.662 185.607 249.29 187.543 245.995C189.479 242.699 191.1 239.509 192.75 236.19C194.505 232.645 194.603 228.398 191.392 225.087C187.97 221.566 183.036 220.473 178.595 221.921C171.262 224.333 167.512 232.269 166.69 239.238C166.252 242.912 166.633 246.752 167.323 250.452C167.604 251.942 167.175 251.665 168.755 248.925C169.019 246.985 170.123 246.154 172.069 246.433L174.069 247.261C174.754 247.69 175.515 248.683 175.648 249.527L175.672 250.204C175.727 249.644 175.713 249.574 175.607 250.068C175.549 250.896 175.725 249.912 175.778 249.71C175.944 249.049 175.319 250.402 175.927 249.426C176.601 248.319 177.254 247.196 177.827 246.046L165.1 244.249C165.513 245.743 165.817 247.248 165.952 248.754C165.858 247.637 165.918 249.329 165.93 249.668C165.922 250.741 165.943 251.865 166.103 252.939C166.851 257.67 171.351 261.9 176.576 261.282C180.614 260.806 183 258.072 185.196 255.232C187.392 252.392 189.382 249.735 191.358 246.918C193.668 243.62 195.48 240.266 196.206 236.257C196.802 232.995 196.698 229.323 196.247 225.974C195.561 220.808 190.254 216.84 184.886 217.866C180.648 218.649 177.783 221.881 175.314 224.946C172.845 228.011 170.924 231.286 169.426 234.804C168.71 236.452 168.156 238.155 167.681 239.885C167.455 240.713 167.171 241.529 166.93 242.377C166.749 243.057 166.422 242.734 166.966 242.462L166.626 242.909C167.083 242.486 167.127 242.428 166.745 242.664L169.77 241.525L169.499 241.572L172.849 242.044L172.52 241.899L176.367 245.394C176.695 247.487 176.831 247.973 176.795 246.869L176.698 245.27C176.579 244.496 176.286 243.597 175.947 242.846C175.22 241.277 173.964 239.782 172.552 238.714C169.924 236.718 166.897 236.088 163.749 236.059C162.644 236.05 161.559 236.145 160.504 236.292C159.837 236.326 159.749 236.353 160.218 236.357C160.671 236.381 160.576 236.373 159.94 236.279C160.612 236.459 160.729 236.482 160.262 236.299C159.81 236.096 159.897 236.158 160.568 236.517C160.08 236.229 159.629 235.847 159.14 235.558C158.083 234.954 159.517 236.127 159.089 235.581C158.523 234.908 158.731 235.386 159.759 237.049C159.866 237.395 159.856 237.718 159.795 238.064C159.777 238.441 159.65 238.741 159.392 239.036C159.777 238.531 159.821 238.472 159.54 238.842C158.935 239.37 160.356 238.434 159.305 238.973C159.797 238.725 160.355 238.524 160.905 238.377C161.03 238.346 162.82 237.944 161.558 238.183C162.138 238.087 162.71 237.956 163.267 237.844C165.467 237.435 167.71 237.057 169.973 236.963C170.435 236.933 171.299 236.95 170.354 236.906C170.955 236.914 171.547 236.978 172.14 237.041C173.215 237.179 174.253 237.41 175.321 237.602C178.15 238.182 180.815 238.135 183.457 237.323C186.665 236.344 188.153 232.219 186.55 229.276C184.788 226.01 181.167 224.655 177.747 225.692C179.457 225.174 176.818 225.539 178.67 225.632C178.179 225.611 177.675 225.521 177.177 225.466C176.168 225.285 175.182 225.031 174.18 224.886C171.467 224.419 168.662 224.426 165.996 224.651C163.827 224.842 161.715 225.224 159.596 225.66C156.611 226.259 153.619 226.911 151.175 228.615C148.731 230.319 146.903 232.941 146.661 235.916C146.37 239.486 148.352 242.64 151.329 244.974C153.549 246.708 156.299 248.19 159.078 248.615C160.584 248.85 162.122 248.779 163.588 248.626C163.954 248.587 164.299 248.533 164.687 248.511C165.039 248.492 165.39 248.473 165.742 248.454C164.951 248.429 164.922 248.468 165.668 248.551L165.032 248.367C165.784 248.664 165.719 248.617 164.807 248.176L164.225 247.612C164.697 248.188 164.661 248.102 164.081 247.358C163.951 247.086 163.932 244.764 163.667 245.954C163.455 246.852 163.954 248.677 164.35 249.529C166.489 254.204 172.434 255.208 176.022 252.313C180.17 248.947 180.369 242.973 182.541 238.438C182.585 238.379 183.485 236.623 182.869 237.742C183.158 237.229 183.484 236.712 183.795 236.215C184.336 235.372 184.899 234.544 185.505 233.748C186.23 232.796 186.999 231.875 187.833 231.001C187.951 230.846 189.418 229.584 188.298 230.524C188.548 230.283 188.806 230.077 189.086 229.887C188.843 230.073 188.542 230.159 188.249 230.189C185.88 230.687 184.093 228.783 183.273 226.938L183.335 227.432C183.289 226.739 183.274 226.759 183.334 227.521C183.384 228.696 183.455 229.886 183.432 231.069C183.402 232.037 183.336 233.009 183.175 233.973C182.958 235.587 183.628 233.157 182.98 234.673C182.644 235.423 182.411 236.216 182.018 236.955C182.464 236.104 181.973 237.013 181.87 237.149C181.411 237.841 180.951 238.532 180.456 239.228C179.582 240.463 178.702 241.664 177.807 242.884C176.209 245.071 174.384 247.157 172.852 249.391C172.304 250.199 172.921 248.901 173.154 249.127C172.947 249.309 172.719 249.476 172.506 249.623C172.977 249.27 173.498 249.073 174.085 249.011C176.437 248.712 178.439 250.2 179.135 252.166C178.748 251.08 179.077 253.083 179.08 251.617C179.08 248.739 178.838 245.868 178.04 243.02C177.284 240.382 175.048 237.827 171.997 237.538C168.946 237.25 166.585 238.712 165.313 241.223C165.945 239.995 164.817 242.008 164.691 242.218C164.135 243.17 163.52 244.11 163.168 245.148C162.502 246.952 162.267 249.032 162.684 251.008C163.651 255.716 168.288 259.325 173.299 258.944C175.695 258.765 177.9 257.64 179.232 255.802C180.704 253.735 180.627 251.402 180.17 248.947C179.931 247.577 179.714 246.224 179.622 244.839C179.687 245.994 179.638 243.711 179.654 243.513C179.668 242.742 179.717 241.969 179.804 241.191C179.858 240.81 179.912 240.429 179.966 240.048C179.808 240.654 179.837 240.615 180.011 239.9C180.237 239.161 180.462 238.423 180.731 237.715C180.865 237.361 181.036 237.004 181.193 236.666C180.881 237.163 180.859 237.237 181.096 236.837C181.474 236.297 181.808 235.725 182.244 235.197C182.48 234.886 182.724 234.611 183.004 234.331C182.517 234.793 182.539 234.809 183.048 234.362C183.306 234.156 183.585 233.966 183.865 233.776C183.167 234.117 183.13 234.121 183.784 233.838C184.467 233.606 184.43 233.61 183.667 233.815C184.422 233.754 184.348 233.761 183.477 233.799C182.884 233.736 182.373 233.521 181.922 233.139C182.534 233.576 182.44 233.478 181.632 232.812C181.262 232.368 181.031 231.874 180.925 231.349C181.226 229.404 181.207 228.941 180.885 229.941C180.662 230.411 180.438 230.881 180.215 231.351C179.472 232.859 178.706 234.352 177.926 235.863C177.815 236.054 176.693 238.102 177.205 237.208C176.79 237.931 176.36 238.673 175.944 239.396C175.529 240.119 175.055 240.83 174.595 241.521C174.366 241.867 174.121 242.232 173.892 242.578C172.864 243.883 173.694 243.546 176.359 241.641L179.709 242.112C180.206 242.257 181.453 243.807 180.598 242.627C180.548 242.561 179.418 240.945 180.083 242.02C179.859 241.65 179.438 241.14 179.412 240.731L179.692 241.381C179.979 243.175 179.252 244.484 177.502 245.364L168.699 241.78C167.988 240.014 168.383 240.026 168.591 238.735C168.699 237.973 168.621 238.607 168.369 238.937C167.911 239.539 167.409 240.11 166.972 240.728C165.861 242.363 164.888 244.217 164.376 246.13C163.463 249.676 165.139 253.63 169.162 255.122C171.644 256.024 174.639 256.033 176.967 255.145C179.765 254.084 181.761 251.462 181.842 248.522C181.882 246.211 180.88 244.117 180.032 241.954C180.061 242.004 179.43 240.265 179.716 241.128C179.953 241.837 179.595 240.712 179.545 240.556C179.324 239.739 179.162 238.934 179.029 238.09C178.98 237.755 179.125 237.079 179.037 238.035C179.061 237.693 179.064 237.335 179.089 236.993C179.148 235.896 179.113 236.74 179.059 237.032C179.202 236.534 179.389 236.068 179.59 235.582C179.053 236.818 179.566 235.835 179.744 235.512C180.123 234.793 178.906 235.993 179.656 235.629L179.847 235.466C180.443 235.082 180.428 235.101 179.832 235.485C179.833 235.396 181.182 235.129 179.892 235.407C180.647 235.257 181.409 235.231 182.156 235.135C181.042 235.269 181.725 235.037 182.127 235.174C181.024 234.806 179.952 234.221 179.374 233.209C179.2 232.906 179.166 231.622 179.045 232.135C178.992 232.337 178.882 233.368 179.049 232.528C179.218 231.509 178.802 233.251 178.795 233.306C178.675 233.64 178.547 234.029 178.369 234.351C178.518 234.067 178.933 233.434 178.23 234.312C179.043 233.333 178.681 233.854 178.313 234.071C179.467 233.396 178.805 233.823 178.475 233.947C177.183 234.404 179.463 233.933 178.174 234.032C177.844 234.066 177.493 234.085 177.148 234.139C175.58 234.339 177.96 234.269 176.965 234.158C176.16 234.064 175.384 234.02 174.573 233.89C172.854 233.623 171.129 233.231 169.389 232.949C167.282 232.615 165.175 232.46 163.073 232.519C162.311 232.545 161.557 232.606 160.794 232.722C160.289 232.81 158.575 232.846 158.302 233.161C158.656 232.784 160.655 233.791 160.96 234.009C163.977 235.982 157.142 242.167 160.501 241.476C161.689 241.245 162.814 240.608 163.727 239.941C164.736 239.192 165.475 238.221 166.171 237.218C166.423 236.888 166.704 236.519 166.911 236.158C167.216 235.625 166.33 236.612 165.984 236.755L165.163 236.948C165.719 236.926 165.712 236.891 165.156 236.913C164.592 236.901 164.592 236.901 165.178 236.929C165.39 236.96 165.617 236.972 165.829 237.004C166.56 237.106 167.292 237.208 168.031 237.256C169.472 237.356 170.622 237.307 171.979 236.986C172.463 236.882 172.889 236.766 173.366 236.626C176.265 235.697 171.539 237.121 169.552 235.524L167.302 232.899C166.633 231.342 166.702 230.012 167.494 228.839L167.139 229.305C166.784 229.771 166.495 230.284 166.162 230.766C165.414 231.791 164.667 232.817 163.854 233.796C163.477 234.246 163.057 234.666 162.68 235.116C162.37 235.435 162.4 235.396 162.82 234.977C162.599 235.179 162.393 235.361 162.171 235.563C161.722 235.932 161.272 236.301 160.779 236.638C160.551 236.805 160.286 236.976 160.036 237.127C158.992 237.701 159.381 237.589 161.218 236.771L164.568 237.243L164.115 237.04L167.021 239.114L166.753 238.713L168.21 241.671C168.338 242.122 168.255 242.453 168.202 241.725C168.256 242.274 167.955 242.359 168.289 241.788C168.067 242.168 167.521 242.619 167.387 242.972C167.085 243.147 167.092 243.182 167.438 243.039C167.614 242.984 167.79 242.93 167.988 242.892C169.587 242.474 171.15 242.06 172.656 241.366C176.352 239.657 179.386 237.355 181.986 234.384C183.367 232.791 183.431 230.228 182.472 228.255C181.39 226.044 179.349 224.828 176.966 224.326C172.902 223.464 167.401 222.806 164.153 225.345C162.525 226.641 161.354 228.444 160.148 230.072C158.824 231.855 156.971 233.89 156.493 236.068C155.803 239.232 157.854 242.915 161.323 244.072C165.055 245.326 169.005 243.947 170.312 240.503C171.426 237.58 170.084 233.984 167.287 231.989C165.015 230.367 162.336 230.254 159.731 230.044C156.438 229.763 153.541 231.442 152.888 234.514C152.235 237.586 154.056 240.684 157.188 241.93C157.925 242.246 157.896 242.195 157.13 241.829C157.436 242.047 157.742 242.265 158.018 242.522C160.688 244.817 165.445 244.105 167.178 241.564C169.199 238.6 168.265 235.265 165.414 232.81L165.386 232.67Z" fill="black"/>
<path d="M233.866 278.994C233.866 278.994 233.167 278.496 232.688 277.796C232.173 277.1 231.915 276.289 232.13 275.785C232.389 275.312 233.594 274.617 234.381 273.983C235.197 273.4 235.918 272.897 236.364 273.993C236.73 275.15 235.806 275.477 235.183 275.541C234.583 275.621 234.151 275.612 235.037 276.662C235.953 277.673 236.123 278.512 235.717 278.999C235.348 279.483 234.462 279.539 233.866 278.994Z" fill="black"/>
<path d="M240.925 213.129C241.314 213.193 241.673 213.297 242.038 213.437C242.323 213.549 241.785 213.103 242.126 213.499C242.321 213.731 242.261 213.81 242.083 213.377C242.282 213.916 242.354 213.419 242.121 213.282C242.165 213.314 242.19 213.637 242.182 213.692C242.22 214.177 242.252 212.796 242.161 213.586C242.152 213.732 242.128 213.897 242.118 214.043C242.063 214.919 242.245 213.341 242.135 213.933C242.11 214.099 242.086 214.265 242.062 214.43C242.006 214.817 241.912 215.208 241.856 215.595C241.663 216.831 241.516 218.007 241.61 219.265C241.739 221.189 242.657 222.914 244.691 223.606C246.601 224.24 248.541 224.743 250.412 225.563C251.252 225.92 252.069 226.352 252.864 226.859C253.25 227.105 253.599 227.355 253.956 227.641C254.196 227.813 254.385 228.008 254.573 228.204C254.87 228.569 254.871 228.478 254.598 227.948L254.694 226.216C254.781 225.789 254.862 225.726 254.694 226.216C254.587 226.536 254.465 226.876 254.358 227.196C254.152 227.781 253.946 228.366 253.74 228.952C253.374 229.972 252.731 232.563 254.317 233.179C255.904 233.796 257.191 231.421 257.512 230.46C258.206 228.515 259.389 226.279 259.123 224.135C258.89 222.259 257.405 221.196 255.831 220.162C254.257 219.128 252.701 218.472 251.019 217.848C249.563 217.326 248.054 217.008 246.643 216.426C246.417 216.325 246.309 216.157 246.578 216.38C246.469 216.301 246.367 216.168 246.273 216.07C245.911 215.658 246.339 216.117 246.287 216.141C246.375 216.113 245.848 215.43 246.179 215.972C246.395 216.31 246.194 215.952 246.174 215.755C246.063 215.279 246.143 216.465 246.179 215.972C246.205 215.625 246.232 215.278 246.259 214.93C246.254 214.713 246.115 215.834 246.233 215.187C246.257 215.021 246.282 214.855 246.306 214.689C246.369 214.338 246.432 213.987 246.474 213.619C246.665 212.474 246.79 211.373 246.71 210.187C246.579 208.354 245.647 206.558 243.535 206.237C241.87 205.992 240.783 207.655 240.34 208.956C240.035 209.806 239.818 210.719 239.96 211.644C240.035 212.125 240.279 213.094 240.902 213.204L240.925 213.129Z" fill="black"/>
<path d="M289.203 266.704C289.203 266.704 290.164 266.813 291.495 267.189C292.827 267.564 294.492 268.299 295.956 269.346C298.956 271.431 300.503 274.724 300.457 276.787C300.453 277.817 299.916 279.194 299.82 280.522C299.794 280.868 299.782 281.194 299.801 281.481L299.828 281.713C299.828 281.713 299.827 281.803 299.849 281.819L296.845 280.005C295.445 279.186 294.723 278.851 294.168 278.606C293.612 278.361 293.239 278.276 293.02 278.21C292.609 278.129 292.916 278.258 293.418 278.04C293.978 277.833 294.776 277.401 296.066 276.319C296.407 276.046 296.755 275.719 297.222 275.324L298.87 273.769L299.308 273.323C299.308 273.323 299.308 273.323 299.33 273.339C299.33 273.339 299.374 273.37 299.461 273.432L300.277 273.955C302.412 275.36 304.246 276.673 305.12 277.965C305.971 279.242 305.845 280.61 303.66 281.72C299.201 283.876 296.477 280.714 295.138 278.48C294.719 277.877 294.65 277.523 294.666 277.413L294.681 277.394L294.296 277.635C294.045 277.789 293.875 277.88 293.683 277.956C293.336 278.103 293.16 278.159 293.035 278.191C292.799 278.235 292.814 278.215 292.814 278.215C292.645 278.216 292.44 278.221 292.219 278.245C291.741 278.298 291.16 278.399 290.584 278.716C288.307 280.124 286.965 281.898 284.849 281.448C283.868 281.232 282.68 280.443 281.856 278.73C280.995 277.021 280.951 274.499 281.321 272.941C281.499 272.127 281.705 271.455 281.909 270.963C282.091 270.455 282.234 270.132 282.459 269.746C282.879 269.014 283.481 268.351 284.184 267.822C285.591 266.763 287.461 266.338 289.21 266.739L289.203 266.704Z" fill="black"/>
<path d="M296.917 196.336C296.917 196.336 296.236 195.458 295.366 194.475C294.517 193.507 293.42 192.423 293.78 191.506C293.968 191.038 294.897 190.347 296.308 189.91C297.718 189.473 299.624 189.36 301.358 189.695C303.092 190.03 304.609 190.783 305.335 191.513C306.047 192.261 305.962 192.773 304.911 193.046C302.869 193.604 301.668 192.746 300.464 192.157C299.282 191.583 298.544 191.357 299.039 193.366C299.403 195.372 298.887 196.538 298.494 197.01C298.065 197.486 297.569 197.252 296.954 196.332L296.917 196.336Z" fill="black"/>
<path d="M212.512 170.206C212.512 170.206 212.078 171.396 211.13 172.908C210.188 174.454 208.63 176.191 206.758 177.674C205.844 178.521 204.71 179.301 203.486 179.447C202.885 179.528 202.264 179.414 201.761 179.145C201.717 179.114 201.826 179.192 201.804 179.176C201.783 179.161 201.783 179.161 201.804 179.176C201.775 179.215 201.959 179.106 200.899 178.86C200.277 178.746 199.48 178.597 196.769 178.881C196.366 178.923 195.948 178.985 195.509 179.031L193.309 179.35L193.266 179.319L193.2 179.272C193.113 179.21 192.989 179.151 192.865 179.093C192.668 178.953 192.442 178.851 192.209 178.715C191.297 178.184 190.336 177.588 189.365 177.135C189.139 177.034 188.891 176.916 188.628 176.819L190.143 175.891L190.739 175.507C191.166 175.212 191.623 174.878 192.087 174.49C193.98 173.022 195.226 170.943 195.18 170.34C195.203 170.177 195.181 170.161 195.21 170.212C195.196 170.142 195.238 170.352 195.203 170.087L195.218 170.157L195.253 170.332C195.253 170.332 195.353 170.644 195.425 170.815C195.598 171.208 195.865 171.699 196.314 172.349C196.531 172.684 196.785 173.015 197.111 173.428L197.633 174.07L198.628 175.2C199.274 175.901 200.218 176.875 202.205 178.562L203.238 179.419C203.238 179.419 203.245 179.454 203.252 179.489C203.229 179.563 203.207 179.637 203.14 179.769C203.021 180.014 202.828 180.356 202.546 180.815L202.064 181.58C201.842 181.872 201.457 182.466 200.911 183.096C199.825 184.3 198.096 186.305 194.145 187.863C192.184 188.622 189.713 189.077 187.298 188.973C184.904 188.884 183.026 188.383 181.763 187.961C180.499 187.539 179.711 187.157 179.317 186.965C178.923 186.774 178.873 186.708 178.625 186.591C178.224 186.365 177.859 186.135 177.51 185.885C177.116 185.605 177.066 185.538 176.002 184.899C175.018 184.287 173.4 183.312 171.648 181.582C170.783 180.725 169.927 179.724 169.196 178.603C168.226 177.131 167.571 175.644 167.215 174.34C166.481 171.718 166.564 169.438 167.137 167.269C167.717 165.134 168.926 163.148 170.386 161.761C171.847 160.375 173.412 159.693 174.373 159.449C175.37 159.201 175.845 159.33 175.814 159.638C175.804 159.961 175.214 160.469 174.394 161.413C173.553 162.342 172.516 163.791 172.012 165.56C171.508 167.329 171.56 169.166 172.14 170.929C172.411 171.812 172.815 172.61 173.314 173.416C173.56 173.801 173.865 174.199 174.184 174.576C174.532 175.005 174.859 175.328 175.143 175.531C176.307 176.482 177.46 177.005 178.315 177.255C180.135 177.744 180.65 177.422 181.338 177.403C182.019 177.35 182.678 177.37 183.3 177.484C183.929 177.543 185.359 178.234 187.469 178.031C189.514 177.781 190.671 176.748 191.365 176.103C192.102 175.4 192.509 174.911 192.922 174.546C193.74 173.781 194.513 173.253 195.167 172.97C195.806 172.706 196.334 172.633 196.524 172.649L196.568 172.68C196.459 172.513 196.329 172.33 196.205 172.182C195.966 171.831 195.815 171.543 195.677 171.325C195.432 170.85 195.317 170.558 195.26 170.368L195.218 170.157C195.267 170.403 195.21 170.212 195.239 170.262C195.239 170.262 195.239 170.262 195.254 170.243C195.254 170.243 195.261 170.278 195.246 170.208C195.227 169.924 195.185 169.624 195.136 169.29C195.039 168.621 194.803 167.823 194.297 166.982C193.227 165.288 191.845 164.003 190.969 162.718C190.056 161.436 189.524 160.187 189.754 158.822C189.976 157.511 191.137 156.031 193.582 155.167C195.91 154.28 199.454 154.32 202.31 155.219C208.226 157.103 211.245 160.666 212.579 163.298C213.645 165.618 213.714 168.185 212.636 170.265L212.512 170.206Z" fill="black"/>
<path d="M352.527 227.952C352.527 227.952 352.554 235.081 349.711 235.814C348.997 236.002 347.525 235.678 345.829 235.073C344.981 234.77 344.06 234.386 343.133 233.965L341.783 233.303L341.111 232.945C340.922 232.84 340.652 232.707 340.186 232.344C339.727 232.016 339.102 231.508 338.48 230.728C337.814 229.918 337.34 229.032 336.992 228.023C336.333 226.002 336.677 224.212 337.064 223.122C337.949 220.928 338.94 220.24 339.666 219.725C341.203 218.85 342.005 219.302 342.052 220.976C342.164 222.697 341.74 223.792 341.493 225.408C341.388 226.215 341.553 227.244 342.05 228.055C342.547 228.866 343.07 229.332 343.323 229.665C344.409 230.988 345.045 231.838 346.172 228.967C348.427 223.226 352.825 224.487 352.505 227.936L352.527 227.952Z" fill="black"/>
<path d="M277.419 152.911C277.419 152.911 278.031 155.085 278.693 157.417C279.309 159.808 279.936 162.541 278.445 163.759C277.695 164.35 275.583 164.698 272.875 164.497C270.167 164.296 266.902 163.453 264.105 162.123C263.404 161.804 262.733 161.445 262.113 161.063C261.814 160.88 261.493 160.681 261.216 160.513C260.867 160.263 260.867 160.263 260.102 159.716C258.99 158.829 258.178 157.944 257.42 156.853C256.7 155.759 256.026 154.423 255.761 152.68C255.459 150.941 255.868 148.796 256.721 147.578C257.566 146.325 258.372 145.926 258.828 145.856C259.299 145.767 259.45 146.058 259.34 146.649C259.281 147.216 258.887 148.184 258.928 149.645C259.005 151.101 259.617 152.118 260.153 152.745C260.71 153.387 261.234 153.762 261.715 154.106C262.618 154.692 263.552 155.238 264.238 155.576C265.456 156.235 266.436 157.209 267.329 158.031C269.131 159.655 270.28 160.538 270.792 156.609C271.458 152.698 273.235 150.923 274.527 150.415C275.862 149.939 276.997 150.842 277.463 152.942L277.419 152.911Z" fill="black"/>
</g>
<defs>
<filter id="filter0_d_508_17880" x="-14.1243" y="110.509" width="407.618" height="275.237" filterUnits="userSpaceOnUse" color-interpolation-filters="sRGB">
<feFlood flood-opacity="0" result="BackgroundImageFix"/>
<feColorMatrix in="SourceAlpha" type="matrix" values="0 0 0 0 0 0 0 0 0 0 0 0 0 0 0 0 0 0 127 0" result="hardAlpha"/>
<feOffset dy="9.68097"/>
<feGaussianBlur stdDeviation="4.84049"/>
<feComposite in2="hardAlpha" operator="out"/>
<feColorMatrix type="matrix" values="0 0 0 0 0 0 0 0 0 0 0 0 0 0 0 0 0 0 0.25 0"/>
<feBlend mode="normal" in2="BackgroundImageFix" result="effect1_dropShadow_508_17880"/>
<feBlend mode="normal" in="SourceGraphic" in2="effect1_dropShadow_508_17880" result="shape"/>
</filter>
</defs>
</svg>
