<svg width="193" height="197" viewBox="0 0 193 197" fill="none" xmlns="http://www.w3.org/2000/svg">
<g clip-path="url(#clip0_511_17778)">
<path d="M133.592 32.9352L130.229 42.812L130.833 47.5225L120.346 68.6436L122.085 76.564L115.018 91.1892L119.364 92.9936L111.182 111.551H117.021L107.818 129.956L112.882 127.372L124.843 129.006L131.608 128.626L134.386 127.98L142.473 129.956H151.467L158.912 129.006L153.867 113.925L155.643 108.018L148.954 90.9233L152.355 88.2451L144.381 69.4413L146.044 64.218L139.261 49.1369L137.56 37.2658L133.592 32.9352Z" fill="#18351C"/>
<path d="M131.627 28.6616C130.172 34.7586 128.301 40.7227 126.015 46.5538C125.202 48.6241 129.34 49.4598 130.531 48.7191C132.25 47.6554 133.365 46.1739 134.064 44.2745L128.981 42.85C125.24 53.0307 120.724 62.8884 115.395 72.3284C114.205 74.4557 118.211 75.9942 119.685 74.9115C122.462 72.8412 124.956 70.467 127.148 67.7698L122.273 65.9274C121.669 70.7519 119.061 75.3674 117.153 79.7739C115.15 84.4274 113.109 89.0619 111.068 93.6964C110.237 95.5957 114.432 96.8303 115.584 95.8617C117.795 93.9813 119.949 92.0629 122.065 90.0686L117.153 88.682C117.153 98.3498 110.388 106.118 106.911 114.685C106.136 116.622 110.256 117.78 111.427 116.85C114.11 114.666 116.812 112.5 119.496 110.316L114.961 108.606C114.734 112.557 111.786 116.109 110.01 119.509C108.064 123.251 106.363 127.106 104.927 131.076C104.19 133.09 108.801 134.533 109.802 132.919C110.804 131.304 111.956 130.202 113.6 129.367C114.753 128.797 114.035 127.429 113.317 126.86C112.315 126.062 110.804 125.891 109.67 126.48C107.78 127.429 106.25 128.873 105.135 130.658L110.01 132.501C111.559 128.208 113.392 124.029 115.584 120.022C117.512 116.489 119.836 113.26 120.081 109.119C120.176 107.391 116.661 106.517 115.546 107.41C112.863 109.594 110.161 111.759 107.478 113.944L111.994 116.109C115.641 107.106 122.273 99.3565 122.292 89.1948C122.292 87.0865 118.551 86.7256 117.379 87.8083C115.509 89.5747 113.581 91.2842 111.635 92.9556L116.151 95.1209C118.192 90.4864 120.233 85.8519 122.235 81.1985C124.144 76.7919 126.77 72.1764 127.356 67.352C127.621 65.2057 123.766 63.9331 122.481 65.5096C120.497 67.9598 118.286 70.1251 115.754 72.0055L120.044 74.5886C125.523 64.8828 130.209 54.7591 134.064 44.2935C134.839 42.1662 129.794 40.6657 128.981 42.869C128.509 44.1606 127.772 45.1103 126.6 45.851L131.116 48.0163C133.403 42.1852 135.273 36.2212 136.728 30.1241C137.257 27.8639 132.175 26.4583 131.645 28.6996L131.627 28.6616Z" fill="#070F0B"/>
<path d="M131.815 28.9275C133.308 35.1765 135.216 41.3115 137.578 47.2755L141.679 46.003C140.507 45.2812 139.94 44.4265 139.468 43.1349C138.731 41.1406 133.629 40.8746 134.612 43.5528C138.41 53.8664 143.001 63.8761 148.406 73.449L152.506 72.1764C150.012 70.315 147.82 68.1877 145.855 65.7565C144.986 64.6928 140.866 63.7622 141.15 66.1554C141.754 71.0368 144.362 75.6903 146.289 80.1538C148.349 84.9022 150.427 89.6507 152.506 94.3991L156.606 93.1265C154.679 91.4931 152.771 89.8026 150.938 88.0552C149.879 87.0675 146.233 85.9659 146.233 88.4541C146.252 98.5398 153.035 106.441 156.644 115.368L160.744 114.096C158.061 111.911 155.359 109.746 152.676 107.562C151.637 106.707 148.292 106.251 148.425 108.36C148.67 112.5 151.259 115.9 153.148 119.433C155.284 123.403 157.098 127.524 158.628 131.741L163.484 131.323C162.105 129.12 160.329 127.448 158.005 126.271C157.06 125.796 155.303 125.549 154.547 126.537C153.791 127.524 154.925 128.626 155.756 129.063C156.965 129.671 157.891 130.601 158.609 131.741C159.29 132.824 160.65 133.45 161.935 133.317C163.069 133.203 163.9 132.501 163.465 131.323C162.01 127.296 160.291 123.365 158.288 119.585C156.493 116.185 153.791 112.842 153.545 108.853L149.294 109.651C151.977 111.835 154.679 114.001 157.362 116.185C158.496 117.116 162.445 117.344 161.463 114.912C157.967 106.27 151.353 98.6727 151.334 88.9099L146.629 89.3088C148.765 91.3221 150.957 93.2785 153.186 95.1779C154.282 96.1086 158.345 96.2985 157.287 93.9053C155.284 89.3848 153.3 84.8453 151.334 80.2868C149.369 75.7282 146.799 71.3407 146.214 66.5922L141.509 66.9911C143.72 69.7072 146.233 72.1194 149.048 74.2087C149.879 74.8165 151.202 75.1584 152.204 74.8165C152.978 74.5506 153.621 73.7719 153.148 72.9362C147.744 63.3633 143.153 53.3726 139.355 43.0399L134.498 43.4578C135.198 45.3572 136.482 46.9527 138.202 48.0163C139.355 48.7191 143.323 49.3079 142.302 46.7437C140.073 41.0646 138.24 35.2525 136.841 29.3264C136.331 27.1991 131.135 26.4584 131.683 28.8136L131.815 28.9275Z" fill="#070F0B"/>
<path d="M111.634 129.747C113.448 128.626 115.338 127.771 117.417 127.277L113.448 126.328C113.524 127.695 113.619 129.063 113.694 130.43C113.77 131.798 118.399 131.931 118.871 130.791C119.797 128.588 120.931 126.556 122.348 124.637L117.171 124.276C117.662 126.328 118.135 128.36 118.645 130.411C119.117 132.33 119.949 132.938 121.989 133.052C125.863 133.26 127.658 129.234 129.132 126.195L124.295 126.366C125.334 127.163 125.409 128.721 126.203 129.728C127.11 130.886 128.527 131.304 129.944 131.361C133.232 131.475 134.744 129.633 134.007 126.461L129.491 127.125C131.173 127.752 132.609 128.892 134.234 129.652C135.972 130.468 137.918 130.715 139.827 130.506C140.375 130.449 142.132 130.202 141.697 129.272C141.376 128.607 141.017 128.037 140.583 127.467L138.712 128.702C137.465 128.759 138.353 129.006 138.844 129.386C139.128 129.595 139.392 129.842 139.676 130.05C140.431 130.639 141.206 131.19 142.094 131.589C143.965 132.406 146.119 132.596 148.141 132.33C148.405 132.292 150.314 132.026 150.087 131.361C149.69 130.164 149.482 128.968 149.445 127.714L148.122 128.588C146.761 128.417 146.516 128.645 147.423 129.291L147.763 129.747C148.103 130.221 148.386 130.753 148.708 131.247C149.275 132.102 149.917 132.843 150.805 133.355C151.58 133.811 156.228 134.438 155.642 132.634C155.227 131.361 154.981 130.069 154.83 128.74L149.898 129.177C151.712 130.316 152.846 131.95 153.507 133.963C153.923 135.217 158.004 135.027 158.609 134.039C159.327 132.881 159.233 131.817 159.554 130.563L159.176 131.076L159.403 130.867L155.246 131.019C155.246 131.019 155.812 132.425 155.888 132.615C156.398 133.754 160.933 133.868 161.084 132.425C161.217 131.171 161.198 129.956 161.065 128.702C160.876 127.125 155.624 127.296 155.775 128.626C155.926 129.88 155.926 131.095 155.794 132.349L160.99 132.159C160.48 131 160.253 130.088 159.006 129.633C157.985 129.253 155.775 128.949 154.849 129.785C153.81 130.715 154.244 132.235 153.507 133.431L158.609 133.507C157.853 131.266 156.455 129.462 154.471 128.208C153.81 127.79 149.369 127.087 149.539 128.645C149.709 130.202 150.068 131.627 150.541 133.108L155.378 132.387C153.677 131.38 153.148 129.234 151.674 127.961C150.011 126.518 147.574 126.233 145.477 126.765C145.099 126.86 144.135 127.068 144.154 127.638C144.192 128.911 144.399 130.088 144.796 131.285L146.743 130.316C145.212 130.525 143.776 128.588 142.548 127.828C140.923 126.822 139.184 126.594 137.295 126.689C136.936 126.689 134.782 127.106 135.424 127.923C135.878 128.493 136.237 129.082 136.539 129.728L138.41 128.493C138.939 128.436 137.975 128.284 137.729 128.151C137.181 127.866 136.652 127.524 136.123 127.201C135.178 126.632 134.234 126.119 133.194 125.72C132.646 125.511 128.357 125.017 128.678 126.385C128.811 126.917 128.962 127.486 128.962 128.056C128.962 128.569 128.414 129.367 129.226 129.329L131.796 129.633C130.889 129.31 130.625 127.999 130.266 127.239C129.907 126.48 129.51 125.929 128.829 125.397C127.979 124.751 124.597 124.333 123.992 125.568C123.123 127.372 121.819 130.449 120.024 131.475L123.01 131.038L122.556 130.981L124.389 131.741C123.652 130.829 123.558 129.215 123.293 128.094C122.991 126.841 122.688 125.606 122.405 124.352C122.046 122.833 118.002 122.928 117.228 123.991C115.829 125.91 114.677 127.942 113.751 130.145L118.928 130.506L118.683 126.404C118.607 125.074 115.489 125.264 114.714 125.454C111.975 126.119 109.424 127.163 107.024 128.645C106.004 129.272 107.383 129.918 107.95 130.069C109.027 130.373 110.576 130.373 111.578 129.747H111.634Z" fill="#070F0B"/>
<path d="M58.5016 44.6164L55.3271 53.9234L55.9129 58.3489L46.0305 78.2544L47.6555 85.719L41.0042 99.4895L45.1046 101.199L37.3952 118.654H42.8938L34.2207 135.996L38.9824 133.564L50.2631 135.103L56.6309 134.761L59.2574 134.153L66.8724 135.996H75.3376L82.3479 135.103L77.5862 120.914L79.2679 115.33L72.9567 99.2426L76.169 96.7164L68.6674 78.9952L70.2169 74.0948L63.8491 59.8874L62.224 48.7001L58.5016 44.6164Z" fill="#18351C"/>
<path d="M56.65 40.6087C55.2895 46.3448 53.5322 51.967 51.3592 57.4562C50.5845 59.3936 54.4959 60.1913 55.6108 59.4886C57.2169 58.4819 58.2939 57.0953 58.9364 55.3099L54.1369 53.9614C50.6223 63.5532 46.3519 72.8412 41.3445 81.7303C40.2108 83.7246 44.0088 85.1872 45.3882 84.1615C47.9958 82.2241 50.3578 79.9639 52.4174 77.4377L47.8258 75.7093C47.2589 80.2488 44.8025 84.5983 42.9885 88.739C41.0989 93.1266 39.1904 97.4951 37.2631 101.864C36.4695 103.649 40.4376 104.808 41.5146 103.896C43.5931 102.13 45.6339 100.306 47.6179 98.4448L42.9885 97.1532C42.9885 106.251 36.6017 113.564 33.3517 121.636C32.6148 123.46 36.5073 124.561 37.6032 123.669C40.1352 121.617 42.6672 119.566 45.1993 117.515L40.9288 115.919C40.7021 119.642 37.9244 122.985 36.2805 126.176C34.4476 129.709 32.8604 133.336 31.4999 137.078C30.8197 138.978 35.1468 140.345 36.0916 138.807C37.0363 137.268 38.1323 136.242 39.6817 135.464C40.7588 134.913 40.0974 133.64 39.4172 133.108C38.4724 132.368 37.0552 132.197 35.9782 132.748C34.202 133.64 32.7659 135.008 31.7078 136.698L36.2994 138.427C37.7733 134.381 39.4928 130.449 41.5524 126.67C43.3664 123.346 45.5583 120.307 45.8039 116.394C45.8984 114.779 42.5728 113.944 41.5335 114.798C39.0015 116.85 36.4695 118.901 33.9375 120.952L38.189 122.985C41.628 114.495 47.8824 107.22 47.9013 97.6281C47.9013 95.6527 44.3679 95.2919 43.2719 96.3365C41.5146 98.008 39.7006 99.6224 37.8489 101.18L42.1004 103.212C44.0277 98.8437 45.9362 94.4751 47.8258 90.0876C49.6208 85.9279 52.0962 81.5973 52.663 77.0578C52.9087 75.0445 49.2807 73.8289 48.0714 75.3294C46.2007 77.6276 44.1222 79.679 41.7414 81.4454L45.785 83.8766C50.9435 74.7406 55.3651 65.2057 58.9742 55.3479C59.7111 53.3536 54.9494 51.929 54.1747 53.9993C53.7212 55.215 53.0409 56.1267 51.9261 56.7914L56.1776 58.8238C58.3317 53.3346 60.1079 47.7124 61.4684 41.9763C61.9786 39.849 57.1791 38.5194 56.6689 40.6277L56.65 40.6087Z" fill="#070F0B"/>
<path d="M56.8197 40.8367C58.218 46.7247 60.032 52.4988 62.2428 58.121L66.1164 56.9244C65.0204 56.2406 64.4725 55.4429 64.0379 54.2273C63.3387 52.3469 58.5392 52.1 59.4651 54.6262C63.0364 64.351 67.3824 73.7529 72.4653 82.775L76.3389 81.5783C73.977 79.8309 71.9362 77.8176 70.0845 75.5383C69.272 74.5316 65.3795 73.6579 65.6629 75.9182C66.2298 80.5147 68.6862 84.8833 70.5002 89.0999C72.4275 93.5824 74.3927 98.046 76.3578 102.51L80.2314 101.313C78.4174 99.7744 76.6224 98.1789 74.884 96.5455C73.8825 95.6148 70.4624 94.5891 70.4624 96.9253C70.4624 106.422 76.868 113.868 80.2692 122.282L84.1428 121.085C81.6108 119.034 79.0788 116.983 76.5468 114.931C75.5642 114.134 72.4275 113.697 72.5409 115.691C72.7676 119.585 75.2052 122.795 76.9814 126.119C78.9843 129.861 80.6849 133.735 82.1399 137.724L86.7126 137.325C85.4088 135.236 83.746 133.678 81.5541 132.577C80.6471 132.121 79.0032 131.912 78.3041 132.824C77.6049 133.735 78.6442 134.799 79.4567 135.198C80.5904 135.768 81.4785 136.641 82.1588 137.724C82.8012 138.75 84.0861 139.319 85.2766 139.206C86.3347 139.092 87.1283 138.427 86.7315 137.325C85.3521 133.526 83.746 129.842 81.8564 126.271C80.1558 123.061 77.6238 119.908 77.3971 116.166L73.3912 116.926C75.9232 118.977 78.4552 121.028 80.9872 123.08C82.0643 123.954 85.7867 124.162 84.8609 121.883C81.573 113.754 75.3375 106.574 75.3186 97.4002L70.897 97.78C72.9188 99.6794 74.9595 101.522 77.0759 103.307C78.1151 104.181 81.932 104.352 80.9495 102.111C79.0599 97.837 77.1892 93.5634 75.3375 89.2898C73.4857 85.0162 71.067 80.8756 70.5191 76.393L66.0975 76.7729C68.176 79.3371 70.5569 81.5973 73.2022 83.5727C73.977 84.1425 75.2241 84.4654 76.1689 84.1425C76.8869 83.8956 77.5104 83.1548 77.057 82.3761C71.974 73.354 67.628 63.9521 64.0568 54.2273L59.484 54.6262C60.1454 56.4116 61.3547 57.9121 62.9797 58.9188C64.0568 59.5835 67.7981 60.1344 66.8533 57.7221C64.737 52.3849 63.0364 46.8957 61.6948 41.3115C61.2224 39.2982 56.3095 38.6144 56.8386 40.8367H56.8197Z" fill="#070F0B"/>
<path d="M37.8294 135.787C39.53 134.742 41.3251 133.925 43.2713 133.45L39.5489 132.558C39.6245 133.849 39.7 135.141 39.7945 136.432C39.889 137.724 44.235 137.857 44.6696 136.774C45.5388 134.704 46.6158 132.786 47.9385 130.981L43.0635 130.639C43.517 132.558 43.9705 134.495 44.4428 136.413C44.8963 138.237 45.6711 138.788 47.5795 138.902C51.2264 139.111 52.9081 135.293 54.3064 132.444L49.7525 132.596C50.7351 133.355 50.8107 134.818 51.5476 135.768C52.3979 136.869 53.7395 137.268 55.0622 137.306C58.1611 137.42 59.5783 135.673 58.8791 132.691L54.6276 133.317C56.2148 133.925 57.5564 134.989 59.1059 135.692C60.7498 136.451 62.5827 136.698 64.3588 136.489C64.869 136.432 66.5318 136.204 66.1161 135.312C65.8138 134.685 65.4926 134.153 65.058 133.602L63.3007 134.78C62.1292 134.837 62.9606 135.065 63.433 135.426C63.6975 135.635 63.962 135.844 64.2077 136.053C64.9257 136.622 65.6437 137.135 66.4752 137.496C68.2513 138.275 70.2732 138.446 72.1627 138.199C72.4273 138.161 74.2035 137.914 73.9956 137.287C73.6177 136.147 73.4287 135.046 73.391 133.849L72.1438 134.666C70.8589 134.495 70.6322 134.723 71.4825 135.331L71.8037 135.768C72.125 136.223 72.3895 136.717 72.6918 137.173C73.2209 137.971 73.8256 138.674 74.6759 139.168C75.3939 139.604 79.7966 140.193 79.2297 138.484C78.8329 137.287 78.6062 136.053 78.455 134.799L73.8067 135.217C75.5073 136.28 76.5843 137.838 77.2079 139.718C77.6047 140.896 81.4405 140.725 82.0074 139.794C82.6876 138.693 82.5931 137.705 82.8955 136.508L82.5553 137.002L82.7632 136.812L78.8518 136.945C78.8518 136.945 79.3809 138.275 79.4565 138.446C79.9288 139.509 84.2182 139.623 84.3504 138.256C84.4638 137.078 84.4638 135.939 84.3315 134.761C84.1615 133.279 79.2108 133.431 79.362 134.685C79.4942 135.863 79.5131 137.002 79.3809 138.18L84.2748 137.99C83.7836 136.907 83.5757 136.053 82.4042 135.616C81.4405 135.274 79.362 134.97 78.4928 135.749C77.5102 136.622 77.9259 138.066 77.2268 139.187L82.0263 139.262C81.3271 137.154 80.0044 135.464 78.1338 134.286C77.5102 133.887 73.3154 133.222 73.4854 134.704C73.6555 136.185 73.9767 137.515 74.4302 138.902L78.9841 138.218C77.3779 137.268 76.8867 135.255 75.4884 134.039C73.92 132.672 71.6148 132.406 69.6685 132.919C69.3095 133.014 68.4025 133.203 68.4214 133.735C68.4592 134.932 68.6482 136.034 69.0261 137.173L70.8589 136.261C69.4229 136.451 68.0624 134.628 66.9098 133.906C65.3792 132.957 63.7353 132.748 61.9591 132.843C61.619 132.843 59.5971 133.241 60.2018 134.02C60.6364 134.552 60.9576 135.103 61.26 135.73L63.0173 134.552C63.5274 134.495 62.6204 134.343 62.3748 134.229C61.8646 133.963 61.3733 133.64 60.8632 133.336C59.9751 132.805 59.087 132.311 58.1044 131.95C57.5753 131.76 53.5505 131.285 53.8529 132.577C53.9662 133.09 54.1174 133.621 54.1174 134.134C54.1174 134.609 53.6072 135.369 54.3631 135.331L56.7817 135.616C55.9125 135.312 55.6858 134.077 55.3456 133.355C55.0055 132.634 54.6276 132.121 54.004 131.627C53.2104 131.019 50.0171 130.62 49.4502 131.779C48.6188 133.469 47.4095 136.375 45.7089 137.344L48.5243 136.945L48.1086 136.888L49.8281 137.591C49.129 136.736 49.0534 135.198 48.7888 134.153C48.5054 132.976 48.222 131.798 47.9385 130.62C47.5984 129.196 43.8004 129.272 43.0635 130.278C41.7408 132.083 40.6637 134.001 39.7945 136.072L44.6696 136.413C44.594 135.122 44.5184 133.83 44.424 132.539C44.3295 131.247 41.4195 131.456 40.7015 131.646C38.1317 132.273 35.732 133.241 33.4645 134.647C32.5008 135.236 33.8046 135.844 34.3337 135.996C35.354 136.28 36.809 136.28 37.7349 135.692L37.8294 135.787Z" fill="#070F0B"/>
<path d="M91.7958 66.5163L86.8262 77.6276L75.7723 86.0419L83.784 87.7513L86.8829 90.1445L84.8422 97.6851L73.9016 107.771L63.7358 113.26L58.0293 114.59L78.3043 115.102L77.8319 118.464L66.5701 127.391L59.1064 130.202L62.3375 132.691L78.6444 131.627L92.7973 130.696L107.536 132.235L125.789 131.475V128.835L113.299 123.878L104.021 113.184L112.732 116.223C112.732 116.223 120.725 114.969 120.801 114.95C120.876 114.931 113.507 109.404 113.507 109.404L97.8424 89.0239C97.8424 89.0239 104.229 88.777 104.494 88.853C104.758 88.9289 110.314 87.9223 110.314 87.9223L100.941 81.2554L91.7769 66.5352L91.7958 66.5163Z" fill="#1B4922"/>
<path d="M90.5294 62.0526C88.6399 67.3329 86.8448 72.8221 83.9915 77.6845C81.4595 82.0151 77.6615 85.1491 72.503 85.301C71.3881 85.339 70.3489 86.2507 70.3678 87.3904C70.3678 88.606 71.3504 89.4227 72.4841 89.6506C76.1121 90.4104 79.6644 90.4294 83.3302 90.6003C86.2779 90.7333 88.9044 90.6383 90.8884 88.0931L86.6558 85.6999C84.3694 91.9299 80.9682 97.4761 76.3577 102.225C74.0146 104.637 71.4826 106.954 68.7617 108.91C67.25 109.993 65.6817 110.81 63.811 111.019C61.5813 111.285 59.2949 111.247 57.0464 111.304C55.9315 111.342 54.8923 112.253 54.9112 113.393C54.9112 114.646 55.8937 115.387 57.0275 115.653C65.8517 117.799 79.9479 120.383 84.8607 110.069L80.1179 108.701C80.0612 111.759 78.0394 114.438 76.1876 116.698C74.3359 118.958 72.2196 120.971 69.8576 122.662C65.1337 126.062 59.654 128.246 53.8719 128.835C51.0187 129.139 51.2265 132.615 53.8341 133.184C59.9374 134.514 66.0029 135.635 72.2762 135.464C77.2836 135.312 82.7633 134.761 87.2038 132.235C88.2997 131.608 88.4698 130.107 87.6951 129.177C86.8637 128.151 85.3331 127.98 84.2183 128.607C80.458 130.753 75.5263 131 71.2937 131.095C65.6061 131.228 60.0697 130.088 54.5332 128.873L54.4954 133.222C61.2034 132.52 67.7035 130.05 73.1454 126.062C75.8475 124.067 78.3417 121.769 80.4203 119.129C82.4988 116.489 84.9552 113.127 85.0119 109.499C85.0308 108.303 84.4072 107.353 83.2168 107.03C82.1398 106.745 80.7982 107.03 80.2691 108.132C78.6441 111.531 75.035 112.956 71.4826 113.165C66.891 113.45 62.1104 112.386 57.6888 111.304L57.651 115.653C62.3371 115.501 66.9288 115.653 71.0102 112.994C74.1658 110.943 77.0568 108.265 79.7211 105.586C84.8229 100.458 88.6965 94.3611 91.2097 87.5803C92.0789 85.2061 88.5832 83.1357 86.977 85.1871C86.7125 85.548 86.4291 85.9088 86.0323 86.1368C85.8811 86.2127 85.6543 86.2507 85.4276 86.2697C84.4072 86.3267 83.4625 86.1937 82.3098 86.1748C79.2109 86.0988 76.2254 85.9278 73.1643 85.301L73.1265 89.6506C86.7692 89.2707 91.2475 74.6265 95.0833 63.952C95.5179 62.7364 95.0077 61.5208 93.7984 61.008C92.778 60.5711 90.964 60.799 90.5294 62.0336V62.0526Z" fill="#0D0A07"/>
<path d="M90.378 63.7622C92.4943 69.6692 94.5162 75.8042 97.9741 81.0845C101.432 86.3648 106.704 89.5177 112.996 89.6887L111.73 85.4341C108.763 86.0609 105.759 86.2128 102.736 86.2128C101.791 86.2128 100.865 86.2698 100.204 86.1748C100.053 86.1558 99.788 86.0799 99.7125 86.0229C99.3345 85.776 99.07 85.4341 98.7866 85.0732C97.2749 83.1168 93.5336 84.4464 94.4973 87.0675C97.0293 93.9433 100.808 100.268 105.91 105.549C108.575 108.303 111.541 111.133 114.81 113.146C116.737 114.343 118.797 115.14 121.046 115.406C123.502 115.691 126.015 115.653 128.491 115.729L127.225 111.475C122.935 112.519 118.249 113.545 113.827 113.241C110.407 113.013 106.817 111.684 105.249 108.398C104.153 106.118 100.43 106.669 100.487 109.328C100.563 112.956 102.887 116.242 105.06 118.977C107.233 121.712 109.633 123.972 112.335 125.967C117.777 129.975 124.277 132.558 131.004 133.241L130.418 129.006C122.009 130.848 112.127 133.052 104.172 128.455C103.076 127.828 101.621 127.657 100.676 128.683C99.8825 129.557 99.9959 131.171 101.073 131.779C110.823 137.401 121.858 135.407 132.27 133.127C134.745 132.577 133.857 129.12 131.684 128.892C125.921 128.284 120.422 126.214 115.717 122.833C113.412 121.18 111.314 119.243 109.5 117.059C107.686 114.874 105.476 112.044 105.419 108.929L100.657 109.86C105.721 120.478 120.025 117.762 129.114 115.577C130.191 115.311 130.871 114.096 130.55 113.032C130.172 111.816 129.038 111.342 127.848 111.304C125.826 111.247 123.767 111.285 121.745 111.038C119.874 110.829 118.344 110.145 116.813 109.043C114.035 107.049 111.447 104.694 109.122 102.187C104.644 97.3432 101.394 91.721 99.1078 85.529L94.8185 87.5234C96.7836 90.0686 99.2968 90.6194 102.339 90.5814C106.175 90.5244 109.859 90.3345 113.62 89.5367C114.716 89.3088 115.377 88.0172 115.056 86.9916C114.678 85.776 113.544 85.3011 112.354 85.2631C107.479 85.1302 103.756 81.7303 101.413 77.6846C98.6354 72.8602 96.8403 67.4659 94.9697 62.2237C94.0249 59.6025 89.3388 60.8181 90.378 63.7242V63.7622Z" fill="#0D0A07"/>
<path d="M84.5777 132.9H83.803C83.6708 132.862 83.5385 132.786 83.4062 132.729C83.3684 132.729 83.444 132.634 83.5574 132.919C83.6897 133.241 83.8786 133.583 84.0298 133.906C84.4455 134.818 84.8045 135.768 85.1068 136.717C85.3903 137.591 85.5225 138.617 85.9949 139.395C86.7885 140.706 88.149 140.972 89.5662 140.972C94.1011 140.972 98.6361 140.972 103.171 140.972C104.343 140.972 105.533 140.193 105.457 138.902L104.966 131.228C104.872 129.709 104.21 128.417 102.604 128.037C101.338 127.733 99.8832 127.809 98.5794 127.771C93.4209 127.619 88.2813 127.942 83.1606 128.607C81.2899 128.854 81.1387 131 82.3292 132.083C84.7478 134.343 87.4877 136.28 90.3976 137.838C91.1345 138.237 91.9281 138.674 92.7407 138.883C93.761 139.13 94.7625 139.016 95.8018 138.883C97.4268 138.693 99.1463 138.636 100.752 138.313C102.888 137.876 102.982 135.787 102.963 133.982C102.944 131.969 102.302 130.032 100.11 129.595C98.3527 129.234 96.3686 129.481 94.5924 129.481C92.8162 129.481 91.0023 129.481 89.2072 129.519C87.4121 129.557 85.9949 131.741 87.7333 133.071C89.3583 134.286 91.0212 135.939 92.9674 136.622C94.0256 137.002 95.1215 137.021 96.1986 136.793C96.5954 136.717 96.9733 136.584 97.3701 136.489C97.559 136.432 97.748 136.375 97.9559 136.356C99.0896 136.622 100.563 136.185 100.866 134.932C101.168 133.678 100.053 132.596 98.9384 132.33C98.0125 132.121 97.1244 132.121 96.2175 132.311C95.8206 132.387 95.4427 132.52 95.0459 132.615C95.0459 132.615 94.2334 132.729 94.5357 132.786C94.309 132.748 93.6099 132.14 93.2697 131.874C92.5328 131.304 91.777 130.753 91.0401 130.183L89.5662 133.735C91.3046 133.716 93.0241 133.697 94.7625 133.697C95.5939 133.697 96.4253 133.697 97.2567 133.697C97.6346 133.697 98.0314 133.697 98.4094 133.697C98.6739 133.697 98.9195 133.697 99.1841 133.697C99.7698 133.735 99.6942 133.697 98.9573 133.526L98.0125 132.748L97.937 132.444C97.9748 132.634 97.9936 132.805 98.0125 132.995C98.0503 133.298 98.0692 133.602 98.0692 133.925C98.0692 134.172 98.0692 134.419 98.0692 134.666C98.0692 134.818 97.8614 135.369 98.0692 135.065L98.9006 134.324C99.4486 134.039 98.5416 134.324 98.3716 134.324C97.9936 134.362 97.6157 134.419 97.2567 134.457C96.5009 134.552 95.764 134.628 95.0081 134.723C94.6869 134.761 94.2145 134.875 93.8933 134.856C93.6476 134.837 93.8177 134.856 93.8933 134.856C93.2886 134.685 92.6651 134.229 92.1171 133.925C89.7929 132.615 87.6577 131 85.7115 129.177L84.8801 132.653C87.6955 132.292 90.5299 132.064 93.3831 131.969C94.8192 131.931 96.2363 131.912 97.6724 131.931C98.3904 131.931 99.1085 131.95 99.8076 131.988C100.204 131.988 100.582 132.026 100.979 132.045H101.376C101.905 132.121 101.905 132.083 101.338 131.95L100.11 130.677C100.11 130.506 100.11 130.525 100.11 130.772L100.148 131.361L100.204 132.349L100.337 134.514L100.62 138.845L102.907 136.774C100.469 136.774 98.0314 136.774 95.6128 136.774C94.4224 136.774 93.2508 136.774 92.0604 136.774C91.4747 136.774 90.87 136.774 90.2842 136.774H89.4906C89.3017 136.774 89.0938 136.774 88.9048 136.774C88.6403 136.774 88.6403 136.774 88.9048 136.774L90.0575 137.344L89.9252 137.192L90.6243 138.123C90.1708 137.154 90.0008 136.015 89.6418 135.008C89.2828 134.001 88.8671 132.957 88.3758 131.988C87.1476 129.595 84.5966 127.885 81.9135 129.196C80.8175 129.728 80.5152 131.076 81.2332 132.045C81.9513 133.014 83.5196 133.431 84.6533 132.881L84.5777 132.9Z" fill="#0D0A07"/>
<path opacity="0.27" d="M29.0616 141.314C29.0616 141.314 -2.43745 102.585 0.151247 74.3987C2.73995 46.2119 32.5761 5.86908 101.564 4.14064C170.552 2.41221 197.743 60.5142 180.491 103.459C163.239 146.385 138.977 139.452 138.977 139.452L29.0616 141.314Z" fill="#B8E2FA"/>
<path d="M27.1161 129.443C25.0376 128.379 22.6756 125.055 20.8049 122.016C19.4067 119.87 18.1784 117.572 16.8746 115.311C15.722 112.975 14.456 110.658 13.4356 108.208C12.4153 105.814 11.376 103.402 10.5824 100.857C10.1856 99.5845 9.6943 98.3499 9.37307 97.0583L8.4094 93.1266C8.05038 91.816 7.88032 90.4484 7.69136 89.0809C7.5213 87.7133 7.27566 86.3458 7.20008 84.9403C7.18118 82.1292 7.01112 79.2231 7.44572 76.488C7.9559 70.8279 9.58093 65.4526 11.4705 60.2103C13.6057 55.082 16.0999 50.0866 19.2555 45.5661C25.4533 36.4301 33.5217 28.7376 42.5727 22.8305C51.8316 16.8285 61.9974 12.4979 72.4656 9.97174C75.0543 9.26897 77.7375 8.90808 80.364 8.37626C81.6867 8.14833 82.9905 7.84443 84.3132 7.67349L88.3001 7.27462C90.9644 7.06569 93.5909 6.66682 96.2363 6.59084L104.172 6.47688C114.754 6.34392 125.354 7.99638 135.237 11.4912C145.1 15.0241 154.17 20.5703 161.596 27.8639C170.005 36.0692 176.278 46.3069 180.227 57.3992C184.195 68.4916 185.896 80.3817 185.348 92.2719L187.408 89.0239C185.896 85.681 185.707 79.603 185.14 74.5317C184.328 67.1621 183.024 59.6975 180.568 52.6698C175.163 37.0189 164.336 22.8875 149.616 14.1314C142.323 9.81979 134.235 6.81877 125.902 5.14731C117.418 3.43787 108.613 3.09598 100.167 3.83674C98.0503 3.98869 95.9151 3.9697 93.8177 4.19762C91.7203 4.44454 89.6039 4.67247 87.5065 4.91939C83.2739 5.22329 79.1358 6.22996 74.9031 6.97072C72.7679 7.29361 70.7272 8.01538 68.6487 8.60418C66.5891 9.24997 64.4916 9.80079 62.4698 10.5795C58.4828 12.308 54.3636 13.8085 50.6034 16.1257C33.1249 25.5466 18.7075 41.1216 11.2815 59.9254L13.4734 60.7991C16.8746 51.0173 23.6582 42.4511 31.122 35.4614C38.6613 28.4147 46.7486 22.6596 54.3069 16.3726C56.3098 14.7012 54.7037 13.5236 51.9072 15.176C41.3067 21.1021 31.8211 29.1365 24.2817 38.7093C23.3747 39.906 22.3733 40.9886 21.5419 42.1852C20.6916 43.3818 19.8602 44.5404 19.0098 45.7371L17.7249 47.4845C17.3092 48.0733 16.9502 48.7001 16.5534 49.3079C15.7598 50.5045 14.9662 51.7201 14.1348 52.9737C13.2656 54.1513 12.6798 55.4999 11.9429 56.7724C11.2626 58.064 10.4879 59.3366 9.90215 60.7042C8.78731 63.4583 7.50241 66.1744 6.76548 69.1944C6.38756 70.6379 5.89628 72.0435 5.65063 73.544L4.9137 78.0645C4.63027 79.565 4.70585 81.1985 4.61137 82.775L4.55469 85.1682C4.55469 85.9659 4.64917 86.7067 4.70585 87.4854L5.14045 92.1009L5.99076 96.5265C6.2364 98.027 6.61431 99.4515 7.03002 100.857C7.42682 102.263 7.80474 103.687 8.23934 105.074C11.4894 114.969 16.5156 123.84 22.43 129.785C27.7585 135.103 33.5973 138.598 39.266 145.606L39.7573 142.51C29.7048 132.387 20.4459 121.256 12.4342 109.404C11.5083 107.942 10.8091 108.113 10.5824 109.043C10.3368 109.974 10.6202 111.665 11.6783 113.089C15.8165 119.034 20.2759 124.751 24.9809 130.259C29.667 135.768 34.6176 141.143 39.7761 146.119C40.7398 147.05 41.5523 146.917 41.6657 146.214C41.7791 145.417 41.1744 144.163 40.2674 143.023C35.1656 136.622 30.0071 132.805 25.1698 128.398C22.7512 126.195 20.3703 123.688 18.1407 120.421C15.5897 116.603 13.3223 112.139 11.6217 107.448C9.73209 102.604 8.52277 97.4002 7.61578 92.1389C6.78437 86.1748 6.74658 79.679 8.05038 73.7909C9.39197 68.0928 11.3004 62.6415 14.1537 57.8361C16.9313 52.6888 20.3136 48.2062 23.696 43.3628C27.6263 38.2915 31.7266 33.2771 36.6017 29.0605L40.4186 25.7176L44.519 22.7356C47.1832 20.6273 50.1688 19.0318 53.0598 17.2843L50.6222 16.1067C49.0917 17.5503 47.3155 18.7469 45.6338 20.2284C43.9521 21.6909 42.1759 23.0965 40.343 24.464C36.8662 27.446 33.1249 30.2951 29.8748 33.4861C22.0898 40.7227 15.0229 49.3839 11.3004 59.9254C10.7336 61.5589 10.6958 63.1354 11.3193 63.3633C11.9429 63.5722 12.8688 62.3756 13.4923 60.7991C19.9357 44.0086 32.5391 30.2571 47.3533 20.6462L52.9842 17.4553C53.929 16.9425 54.836 16.3537 55.8374 15.9358L58.7852 14.6442C60.7692 13.8275 62.7155 12.8968 64.7373 12.194C66.778 11.5862 68.8187 10.9594 70.8595 10.3516C71.8987 10.0667 72.938 9.72482 73.9961 9.49689L77.1895 8.88909L83.5384 7.71148C85.6737 7.42657 87.8089 7.25562 89.9441 7.00871C92.0793 6.81877 94.1956 6.4199 96.3686 6.36292L102.68 6.04002C104.777 5.94505 106.875 5.73612 108.991 5.83109C111.107 5.86908 113.223 5.85008 115.321 6.07801L118.476 6.32493C119.535 6.43889 120.574 6.60984 121.613 6.76179C130.135 8.03437 138.449 10.6175 145.932 14.7392C149.673 16.6765 153.112 19.1267 156.4 21.7099C159.631 24.369 162.617 27.2751 165.319 30.4471C170.647 36.81 174.88 44.0276 177.714 51.7201C179.377 56.1077 180.662 60.6092 181.475 65.2057C181.852 66.9151 182.004 68.6816 182.306 70.41C182.495 72.1574 182.703 73.9049 182.892 75.6523C183.61 82.585 183.893 89.4798 185.65 94.0953C186.274 95.8617 187.805 93.3165 187.786 90.8663C188.107 79.8309 186.557 68.8335 183.1 58.4819C179.642 48.1303 174.332 38.3865 167.095 30.1621C159.858 21.9758 150.769 15.366 140.66 11.0354C135.596 8.88909 130.324 7.21764 124.939 6.07801C119.554 5.03335 114.074 4.25461 108.594 4.12165C97.8991 4.00769 87.053 4.29259 76.3392 6.7048C65.6443 8.94607 55.0249 12.6309 45.2559 18.291C35.5057 23.9322 26.6437 31.5487 19.7279 40.7987C12.8121 50.0296 7.74805 60.8561 5.59395 72.5943C5.17824 75.9182 4.68696 79.2041 4.85702 82.699L4.89481 85.2821C4.9515 86.1179 5.08377 86.9346 5.17824 87.7703C5.42389 89.4038 5.55616 91.0942 5.91517 92.6707C7.21897 99.0526 9.41087 104.941 11.8673 110.544C14.3804 115.862 17.1581 121.028 20.2948 125.701C22.9023 129.652 25.9445 133.222 28.6844 134.514C30.7818 135.502 29.2324 130.449 27.135 129.424L27.1161 129.443Z" fill="#0A0907"/>
<path d="M181.059 52.2519C178.055 42.4511 173.066 33.0302 166.056 24.9958C163.392 22.0138 160.179 18.9178 156.589 16.6955C154.851 15.5179 152.999 14.6252 151.204 13.9225C149.447 13.1627 147.633 12.8588 146.008 12.6879C143.835 12.4979 144.912 14.2643 147.047 15.4609C156.495 20.9312 164.828 28.3197 171.063 37.2658C177.337 46.1739 181.645 56.4496 183.723 67.1431C185.821 77.7796 185.707 88.853 183.402 99.4515C182.306 104.675 180.549 109.784 178.187 114.533C175.92 119.3 173.104 123.707 170.081 127.828C166.509 132.406 162.428 136.546 157.78 139.224C155.493 140.63 153.018 141.485 150.637 141.96C148.275 142.434 145.819 142.32 143.948 141.713C143.778 141.96 143.627 142.207 143.514 142.472C143.154 142.662 142.795 142.947 142.493 143.175C142.266 143.327 142.04 143.536 141.832 143.726C142.021 143.745 142.229 143.764 142.418 143.821C142.682 143.897 142.947 143.916 143.211 144.011C145.365 144.581 148.048 144.6 150.562 144.087C151.846 143.897 153.075 143.422 154.36 143.023C155.569 142.472 156.835 141.979 158.006 141.276C162.711 138.541 166.925 134.59 170.402 130.088C171.385 129.006 172.103 127.752 172.953 126.575C173.747 125.359 174.691 124.219 175.372 122.928C176.789 120.402 178.414 117.913 179.623 115.254C182.212 110.24 184.479 104.884 185.764 99.1856C187.257 92.8796 187.616 86.1748 186.633 80.0968C186.425 78.5393 185.707 77.8935 185.216 78.0645C184.687 78.2354 184.309 79.2231 184.328 80.9515C184.498 86.1179 184.479 91.2842 184.177 96.3365C183.969 99.0526 185.556 99.6984 186.425 96.7354C187.578 92.4618 187.956 87.9792 187.71 83.5537C186.973 84.3324 186.218 85.0922 185.462 85.8329C186.123 89.2518 186.161 92.9936 185.802 96.8493C185.33 100.667 184.479 104.58 183.005 108.189C182.344 110.031 181.456 111.721 180.568 113.374C179.661 115.007 178.811 116.641 177.771 118.084C175.655 120.952 173.595 123.536 171.196 125.302C170.024 126.195 169.382 127.79 169.098 128.835C168.853 129.899 169.193 130.582 170.44 129.747C176.146 125.644 181.437 118.198 184.952 109.708C188.504 101.009 189.317 90.9803 187.559 82.8319C186.803 79.698 185.197 81.9392 185.348 85.1302C185.424 86.7447 185.424 88.3781 185.235 89.9926C185.159 90.8093 185.046 91.6071 184.933 92.4048C184.782 93.2025 184.593 93.9813 184.404 94.76L186.652 95.1019C186.86 90.4105 186.879 85.7 186.671 80.8946L184.366 81.7303C185.84 91.854 183.27 102.87 178.565 111.949C177.318 114.514 176.108 117.078 174.597 119.471C173.879 120.687 173.199 121.921 172.443 123.099L170.043 126.537C166.755 130.981 163.07 135.122 158.762 137.99C156.325 139.547 153.812 140.839 151.242 141.523C148.71 142.15 146.008 142.301 143.929 141.751C143.797 141.713 143.702 141.713 143.665 141.713C143.325 141.618 142.984 141.618 142.663 141.58C142.323 141.523 141.964 141.523 141.662 141.523C141.416 141.542 141.189 141.58 140.963 141.618C140.811 141.656 140.698 141.694 140.585 141.732C140.358 141.808 140.15 141.903 139.98 141.998C139.64 142.188 139.451 142.434 139.432 142.662C139.394 142.89 139.527 143.118 139.848 143.308C139.999 143.403 140.207 143.498 140.471 143.574C140.717 143.65 141.019 143.707 141.567 143.745C141.643 143.745 141.718 143.764 141.794 143.783C141.983 143.821 142.191 143.84 142.38 143.897C142.644 143.973 142.909 144.011 143.173 144.106C145.044 144.714 147.463 144.866 149.749 144.619C150.902 144.429 152.092 144.277 153.226 143.878C153.793 143.688 154.397 143.574 154.964 143.327L156.646 142.586C161.143 140.516 165.13 137.116 168.645 133.317L171.252 130.24C172.121 129.215 172.821 128.075 173.633 126.973C175.258 124.808 176.581 122.453 177.922 120.098C179.359 117.762 180.379 115.254 181.532 112.766C182.703 110.297 183.648 107.657 184.441 104.96C190.771 83.2118 187.37 58.9377 175.466 39.716C168.739 28.8706 159.216 19.7725 148.105 13.4286C148.464 14.3593 148.785 15.271 149.069 16.2397C150.335 16.4296 151.752 16.8665 153.188 17.5313C154.586 18.272 156.06 19.1457 157.44 20.1904C160.198 22.3177 162.73 24.9199 164.658 27.1991C167.813 30.7889 170.44 34.7966 172.745 38.8993C175.05 43.0019 176.883 47.3325 178.3 51.7391C178.905 53.4865 179.793 54.5692 180.454 54.7401C181.116 54.93 181.588 54.1703 181.021 52.3279L181.059 52.2519Z" fill="#0A0907"/>
<path d="M144.59 141.96L143.664 141.846C143.343 141.751 143.003 141.751 142.682 141.694C142.36 141.637 142.02 141.599 141.699 141.561L112.014 141.884C107.101 141.941 102.132 141.903 97.2187 142.15C94.8379 142.264 92.4381 142.453 90.1706 142.776C88.9613 142.947 87.7709 143.175 86.6372 143.422C86.2403 143.517 85.8246 143.593 85.4278 143.688C84.6909 143.859 85.031 143.65 85.39 143.726L85.4278 145.777C89.5849 144.562 95.1213 144.315 100.015 143.954C105.382 143.555 110.767 143.251 116.19 143.042C120.404 142.871 124.636 142.776 128.85 142.776C130.947 142.776 133.064 142.814 135.161 142.814C137.315 142.871 139.469 142.947 141.642 143.004C141.926 143.042 142.228 143.061 142.512 143.137C142.795 143.213 143.078 143.232 143.362 143.327C144.552 143.669 146.158 143.783 147.632 143.783C152.734 143.707 157.911 141.523 162.522 138.693C162.39 137.819 162.239 136.945 162.069 136.11C159.329 138.617 156.268 140.611 153.036 141.922C152.224 142.207 151.43 142.586 150.58 142.738L149.352 143.042C148.936 143.118 148.52 143.156 148.105 143.213C146.499 143.441 144.703 143.422 143.381 143.137C143.097 143.061 142.795 143.042 142.512 142.985C142.228 142.909 141.926 142.909 141.642 142.871L133.763 142.909L126.091 143.023C120.971 143.118 115.869 143.27 110.767 143.479C100.563 143.897 90.4163 144.543 80.3638 145.511C72.4465 146.271 64.6426 147.24 57.0277 148.399L60.4289 150.07C62.772 148.209 65.1906 146.366 69.9334 145.322C74.2605 144.353 79.4001 144.144 84.1807 144.011C97.0298 143.669 109.917 143.517 122.766 143.27L141.642 142.909C141.926 142.947 142.228 142.947 142.512 143.004C142.795 143.061 143.097 143.061 143.381 143.156C143.853 143.213 144.533 143.308 145.157 143.308C146.499 143.308 147.311 142.719 147.387 142.15C147.462 141.599 146.914 141.086 145.762 140.991C145.081 140.896 144.269 140.725 143.891 140.592C143.551 140.459 143.173 140.459 142.814 140.383C142.455 140.326 142.096 140.25 141.737 140.193C138.846 140.06 135.974 139.908 133.12 139.775C130.362 139.661 127.584 139.585 124.787 139.528C119.213 139.433 113.62 139.452 108.027 139.604C101.659 139.775 95.2914 140.136 88.9991 140.611C83.5383 141.029 77.9641 141.523 72.7867 142.377C67.3636 143.27 62.3374 144.6 59.3897 146.689C57.878 147.772 60.9202 148.835 63.5089 148.228C71.2183 146.442 79.8158 145.435 88.5834 145.265C91.8901 145.189 92.6838 143.175 89.3392 142.909C80.4772 142.245 71.6907 143.536 63.8301 145.265C56.423 146.898 49.4505 148.911 41.2498 149.823L43.5929 151.95C49.0159 150.792 55.3082 150.26 61.317 150.507L62.0728 148.152L58.1047 148.095C56.4986 148.076 55.1381 148.74 55.1381 149.329C55.1381 150.013 56.5364 150.431 58.1425 150.469C62.6397 150.545 67.1935 150.602 71.6907 150.317C76.4524 150.032 80.6095 149.348 84.8043 148.38C88.8291 147.449 92.9105 146.765 97.3699 146.271C101.962 145.758 106.629 145.36 111.258 144.923L127.867 143.346C129.455 143.194 130.343 142.415 129.927 141.846C129.455 141.2 127.83 140.934 126.242 141.086L107.592 142.852C101.886 143.384 96.085 143.859 90.5485 144.676C87.8276 145.075 85.22 145.587 82.7069 146.176C80.2126 146.746 77.8129 147.316 75.0541 147.639C69.5555 148.304 63.6979 148.19 58.1047 148.095L58.1425 150.469L62.1106 150.526C65.4174 150.564 66.211 148.323 62.8664 148.171C55.157 147.848 47.5421 148.436 40.5507 149.937C37.414 150.602 39.7193 152.425 42.8938 152.064C50.8866 151.172 57.8591 149.291 65.0205 147.658C71.8986 146.081 79.8725 144.619 87.8087 145.208L88.5645 142.852C78.7388 143.061 69.1209 144.201 60.4856 146.195L64.6048 147.734C66.7023 146.233 70.3491 145.265 74.2416 144.6C79.06 143.802 84.1996 143.327 89.2637 142.909C100.847 141.96 112.732 141.618 124.428 141.808C127.282 141.865 130.135 141.941 132.969 142.055C135.841 142.207 138.732 142.358 141.642 142.51C141.945 142.567 142.247 142.586 142.53 142.662C142.833 142.738 143.116 142.757 143.4 142.852C143.664 142.928 144.137 143.042 144.514 143.118C144.779 142.339 145.025 141.58 145.214 140.801C144.703 140.801 144.099 140.706 143.834 140.706C143.494 140.592 143.116 140.611 142.776 140.554C142.436 140.497 142.077 140.459 141.718 140.421L103.719 141.143L84.124 141.523C78.512 141.675 72.8056 141.998 67.6659 143.042C61.5815 144.277 58.1803 146.518 55.2326 148.854C54.1178 149.728 56.0262 150.944 58.6338 150.526C85.2389 146.423 113.431 145.132 141.51 145.113C141.737 145.132 141.982 145.113 142.209 145.189L142.398 145.227C142.568 145.265 142.738 145.284 142.908 145.322C146.48 146.024 150.429 145.359 153.962 143.954C157.515 142.491 160.821 140.307 163.712 137.648C165.848 135.635 165.13 133.526 163.164 135.065C159.952 137.23 156.645 139.187 153.244 140.25C152.375 140.44 151.544 140.706 150.712 140.896C149.862 140.972 149.049 141.238 148.218 141.2C147.802 141.2 147.406 141.257 147.009 141.257L145.837 141.2C145.1 141.143 144.25 140.972 143.834 140.858C143.494 140.744 143.135 140.744 142.795 140.668C142.455 140.592 142.096 140.554 141.737 140.497C139.942 140.44 138.147 140.402 136.352 140.345C134.651 140.326 132.969 140.307 131.269 140.288C127.867 140.288 124.466 140.307 121.065 140.402C114.244 140.573 107.441 140.934 100.733 141.409C94.5922 141.846 87.6008 142.131 82.3667 143.669C80.4583 144.22 80.4772 145.227 82.4045 145.72C84.6342 146.29 87.0907 145.853 89.2259 145.397C91.2666 144.942 93.4774 144.657 95.7449 144.505C100.714 144.144 105.873 144.201 110.861 144.163L141.586 143.821C141.85 143.84 142.134 143.821 142.379 143.916C142.644 143.973 142.908 143.992 143.173 144.068L144.382 144.239C146.026 144.353 146.839 143.612 146.782 143.061C146.725 142.453 145.932 141.979 144.571 141.884L144.59 141.96Z" fill="#0A0907"/>
<path d="M136.049 143.365L140.527 143.289C140.678 143.289 140.829 143.289 140.999 143.27C141.207 143.251 141.434 143.232 141.661 143.213C141.963 143.213 142.265 143.175 142.53 143.213C142.832 143.213 143.153 143.194 143.361 143.156C143.361 143.156 143.38 143.156 143.418 143.156C143.72 142.985 144.117 142.7 144.098 142.396C144.155 142.093 143.89 141.751 143.739 141.523L143.664 141.485C143.437 141.371 143.078 141.295 142.757 141.2C142.454 141.105 142.095 141.029 141.736 140.953C141.472 140.953 141.226 140.934 140.962 140.915H140.489L136.011 140.991C135.255 140.991 134.443 141.162 133.913 141.371C133.403 141.58 133.025 141.941 133.063 142.226C133.101 142.529 133.365 142.852 133.951 143.042C134.537 143.251 135.255 143.365 136.068 143.346L136.049 143.365Z" fill="#0A0907"/>
<path d="M10.9397 190.926C10.9397 190.926 2.30438 133.678 18.7058 131.95C35.1072 130.221 52.3589 136.28 72.1993 136.28C92.0397 136.28 171.42 122.396 179.186 127.6C186.953 132.805 174.009 160.555 179.186 165.759C184.364 170.963 189.541 207.393 161.066 203.063C132.59 198.732 93.7593 199.587 73.9188 199.587C54.0784 199.587 31.6304 202.911 23.8643 203.405C16.0982 203.917 5.74339 210.85 10.9208 190.907L10.9397 190.926Z" fill="#E74926"/>
<path d="M33.0478 146.86C33.2934 146.727 33.1989 146.765 32.7643 146.955C32.4431 147.069 32.1219 147.164 31.8007 147.221L31.3661 147.259C31.6117 147.259 31.5361 147.259 31.1582 147.259C31.5739 147.297 30.7803 147.126 31.1771 147.259C31.3283 147.316 31.4794 147.354 31.6117 147.411C31.7062 147.449 31.6873 147.449 31.5739 147.373C31.6495 147.411 31.7251 147.468 31.8007 147.506C31.914 147.582 32.0274 147.658 32.1219 147.753C32.3675 147.962 32.5754 148.209 32.7643 148.474L32.5943 148.228C34.2193 150.754 33.0667 153.907 33.6524 156.68C33.728 157.06 34.3705 157.174 34.6539 157.212C35.2964 157.288 36.0522 157.174 36.6757 157.003C37.2993 156.832 37.9984 156.585 38.5275 156.167C38.8109 155.939 39.2266 155.616 39.1322 155.198C38.5842 152.634 39.529 149.823 38.3952 147.354C36.8836 144.068 32.5376 144.125 29.7788 145.758C29.4387 145.967 28.8152 146.29 28.6829 146.727C28.5695 147.107 28.834 147.354 29.1742 147.468C29.7221 147.639 30.3835 147.62 30.9315 147.506C31.6306 147.392 32.3864 147.202 33.01 146.822L33.0478 146.86Z" fill="#7AC5EE"/>
<path d="M27.6438 184.734C27.7383 184.696 27.8328 184.677 27.9462 184.639C28.4563 184.487 27.4171 184.696 27.7194 184.677C27.8139 184.677 28.1729 184.62 27.7383 184.677C27.3037 184.734 27.7383 184.677 27.8328 184.677C28.154 184.677 27.7761 184.696 27.6816 184.677C27.7572 184.715 27.8895 184.696 27.984 184.715C28.2107 184.753 28.4186 184.791 28.6453 184.848C28.8721 184.905 28.3241 184.753 28.6642 184.848C28.7587 184.886 28.8532 184.905 28.9665 184.943C29.1933 185.019 29.42 185.095 29.6279 185.17C30.0814 185.341 30.516 185.531 30.9695 185.721C32.9724 186.576 34.9564 187.317 37.1672 187.336C38.3577 187.336 40.0583 186.899 40.7952 185.911C41.5321 184.924 40.1338 184.563 39.378 184.563C39.3024 184.563 38.83 184.563 39.208 184.563C39.5859 184.563 39.0946 184.544 39.0379 184.544C38.8112 184.506 38.5844 184.468 38.3388 184.411C38.0553 184.354 38.7734 184.544 38.301 184.411C38.2065 184.373 38.0931 184.354 37.9986 184.316C37.7719 184.24 37.5451 184.164 37.3184 184.088C36.3547 183.727 35.4288 183.29 34.4652 182.91C32.0654 181.961 29.4956 181.581 26.9825 182.397C26.34 182.606 25.6787 182.834 25.1307 183.271C24.8662 183.499 24.4505 183.917 24.545 184.316C24.8095 185.322 26.9825 184.962 27.606 184.753L27.6438 184.734Z" fill="#7AC5EE"/>
<path d="M39.2265 168.57V169.444C39.1887 169.729 39.2265 169.994 39.3777 170.222C39.4722 170.488 39.6422 170.697 39.8879 170.849C40.1524 171.039 40.4358 171.153 40.7382 171.21C41.0783 171.305 41.4184 171.343 41.7585 171.305L42.4955 171.172C42.9679 171.039 43.4025 170.83 43.7993 170.526L44.2717 170.07C44.5362 169.767 44.6874 169.425 44.744 169.026V168.152C44.7818 167.867 44.744 167.601 44.5929 167.373C44.4984 167.107 44.3283 166.898 44.0827 166.746C43.8182 166.557 43.5347 166.443 43.2324 166.386C42.8923 166.291 42.5522 166.253 42.212 166.291L41.4751 166.424C41.0027 166.557 40.5681 166.765 40.1713 167.069L39.6989 167.525C39.4344 167.829 39.2832 168.171 39.2265 168.57Z" fill="#7AC5EE"/>
<path d="M61.6754 149.158C61.8832 153.242 61.5998 157.345 60.9762 161.39C60.7684 162.682 62.4879 163.043 63.4327 162.929C64.5475 162.796 66.2859 162.169 66.4938 160.858C67.174 156.49 67.3819 152.102 67.1551 147.696C67.1362 147.221 66.3993 146.841 66.0403 146.727C65.4167 146.537 64.5853 146.575 63.9807 146.765C62.828 147.107 61.6187 147.829 61.6943 149.158H61.6754Z" fill="#7AC5EE"/>
<path d="M69.5925 185.569C70.0838 186.12 70.8396 186.329 71.5577 186.424C72.8048 186.576 74.1653 186.291 75.3179 185.854C77.0374 185.208 78.2089 184.05 79.1537 182.53C79.834 181.448 80.3441 180.27 81.1189 179.282C81.2889 179.073 81.4779 178.865 81.6668 178.694C81.3645 178.978 81.7424 178.656 81.7991 178.599C81.9692 178.485 81.9692 178.466 81.7991 178.58C81.6291 178.675 81.6479 178.675 81.818 178.58L81.9692 178.504C81.6102 178.656 81.5157 178.694 81.7046 178.618C81.9125 178.542 81.7991 178.58 81.3645 178.732L80.9299 178.827C80.5331 178.865 80.4386 178.865 80.6276 178.846C80.7976 178.846 80.7221 178.846 80.4197 178.846C80.8165 178.865 80.1363 178.751 80.552 178.865C81.7613 179.225 83.3297 178.846 84.4067 178.238C84.9358 177.934 86.2585 176.889 85.0114 176.528C82.9706 175.92 80.741 176.471 78.8703 177.364C77.5476 177.991 76.4139 178.979 75.6013 180.194C74.8833 181.277 74.3164 182.53 73.5984 183.556C73.4094 183.822 73.2205 184.05 73.0126 184.297C72.8993 184.43 72.8615 184.449 73.0126 184.316C72.8993 184.411 72.4647 184.658 72.9748 184.373C73.4472 184.126 73.9952 183.974 74.5054 183.936C74.6944 183.936 75.0345 183.841 75.1856 183.974C75.1856 183.974 74.7699 183.746 74.9967 183.917C74.8833 183.841 74.7699 183.727 74.6755 183.632C74.392 183.328 73.5795 183.328 73.2583 183.347C72.5591 183.366 71.7655 183.537 71.1231 183.803C70.5751 184.031 68.8178 184.791 69.5547 185.607L69.5925 185.569Z" fill="#7AC5EE"/>
<path d="M106.552 155.578C105.758 155.464 106.684 155.635 106.892 155.692C106.968 155.711 107.402 155.882 107.062 155.749C106.722 155.616 107.213 155.825 107.27 155.844C107.742 156.072 108.158 156.376 108.574 156.661C108.914 156.908 108.309 156.433 108.611 156.68C108.706 156.775 108.819 156.851 108.914 156.946C109.122 157.136 109.348 157.345 109.537 157.554C109.934 157.952 110.331 158.37 110.709 158.807C112.296 160.555 113.921 162.454 116.132 163.442C117.36 163.992 118.947 163.802 120.024 163.005C120.44 162.701 120.969 162.264 121.026 161.713C121.064 161.238 120.875 160.763 120.421 160.555C119.892 160.327 119.382 160.023 118.91 159.681C118.777 159.586 118.664 159.491 118.532 159.396C118.418 159.301 118.456 159.339 118.645 159.491C118.569 159.434 118.513 159.377 118.437 159.32C118.229 159.149 118.021 158.959 117.832 158.769C116.963 157.933 116.189 157.022 115.376 156.129C114.507 155.198 113.581 154.287 112.542 153.565C111.351 152.729 110.01 152.292 108.574 152.083C107.912 151.988 107.005 152.216 106.42 152.482C105.928 152.71 105.229 153.147 104.983 153.66C104.379 154.894 105.513 155.426 106.552 155.578Z" fill="#7AC5EE"/>
<path d="M103.981 185.873C107.93 187.83 112.05 189.349 116.339 190.318C117.643 190.603 119.305 190.394 120.212 189.273C120.534 188.874 120.855 188.323 120.685 187.792C120.515 187.279 120.08 186.861 119.551 186.747C117.548 186.291 115.564 185.721 113.618 185.038C112.654 184.696 111.691 184.316 110.727 183.917C110.254 183.708 109.782 183.518 109.31 183.29C109.234 183.252 108.686 182.986 109.026 183.157C108.762 183.024 108.497 182.91 108.233 182.777C107.004 182.169 105.417 182.283 104.321 183.138C103.887 183.48 103.376 183.955 103.339 184.544C103.301 185.038 103.49 185.607 103.981 185.854V185.873Z" fill="#7AC5EE"/>
<path d="M90.4527 151.153C90.1692 150.032 90.0748 148.892 90.1692 147.753V148.038C90.1692 148.038 90.1503 148 90.1503 147.981C90.2259 147.81 90.207 147.677 90.0937 147.563C89.9992 147.411 89.8669 147.316 89.6779 147.278C89.4134 147.202 89.1678 147.183 88.9032 147.183C88.582 147.183 88.2419 147.183 87.9207 147.259C87.2026 147.392 86.4846 147.582 85.8421 147.924L85.332 148.228C85.0863 148.38 84.8785 148.588 84.7462 148.854C84.6139 150.127 84.6706 151.381 84.9918 152.615C85.0863 152.976 85.7099 153.071 85.9744 153.109C86.6169 153.166 87.3727 153.052 87.9962 152.881C88.6198 152.71 89.3189 152.482 89.848 152.064C90.1125 151.855 90.566 151.551 90.4716 151.153H90.4527Z" fill="#7AC5EE"/>
<path d="M140.885 158.807C143.134 160.27 145.628 161.865 147.045 164.239C147.801 165.512 148.16 166.936 148.311 168.399C148.463 169.861 148.67 171.609 148.085 172.976C147.858 173.527 147.499 173.888 146.97 174.116C146.762 174.211 145.968 174.439 145.515 174.553C144.495 174.819 143.021 174.914 141.755 174.743C139.109 174.363 136.539 172.844 135.085 170.545C134.178 169.102 129.076 171.153 129.605 172.027C133.1 177.611 140.243 177.972 146.025 176.49C148.841 175.769 153.092 174.534 153.735 171.21C153.999 169.823 153.905 168.323 153.772 166.936C153.621 165.474 153.281 164.049 152.506 162.777C150.976 160.213 148.463 158.484 146.025 156.889C145.08 156.262 143.436 156.756 142.473 157.117C142.151 157.231 139.997 158.237 140.885 158.807Z" fill="#7AC5EE"/>
<path d="M159.459 132.501V140.877C159.459 141.428 159.61 141.808 160.083 142.112C160.555 142.415 161.349 142.529 161.934 142.453C162.652 142.358 163.408 142.15 163.994 141.713C164.391 141.409 164.977 140.915 164.977 140.345V131.969C164.977 131.418 164.825 131.038 164.353 130.734C163.881 130.43 163.087 130.316 162.501 130.392C161.783 130.487 161.027 130.696 160.442 131.133C160.045 131.437 159.459 131.931 159.459 132.501Z" fill="#7AC5EE"/>
<path d="M155.718 189.539L161.179 191.856C161.708 192.084 162.426 192.046 162.955 191.97C163.636 191.875 164.429 191.647 165.034 191.286C165.412 191.059 166.016 190.717 166.111 190.242C166.186 189.824 165.979 189.558 165.582 189.387L160.121 187.07C159.592 186.842 158.874 186.88 158.345 186.956C157.665 187.051 156.871 187.279 156.266 187.64C155.888 187.868 155.284 188.209 155.189 188.684C155.114 189.102 155.321 189.368 155.718 189.539Z" fill="#7AC5EE"/>
<path d="M170.079 174.249C169.946 174.135 169.814 174.021 169.701 173.888L170.098 174.287C169.531 173.717 169.058 173.052 168.718 172.312L168.964 172.806C168.869 172.616 168.794 172.426 168.718 172.236C168.643 171.951 168.51 171.704 168.284 171.533C168.095 171.305 167.849 171.134 167.547 171.039C167.225 170.906 166.904 170.849 166.564 170.868C166.186 170.83 165.827 170.868 165.468 170.982C164.807 171.191 164.108 171.514 163.692 172.084C163.371 172.521 163.05 173.147 163.257 173.698C163.522 174.42 163.881 175.142 164.316 175.769C164.75 176.395 165.317 176.984 165.903 177.497C166.167 177.687 166.451 177.82 166.753 177.858C167.093 177.972 167.433 178.01 167.773 177.972C168.151 177.972 168.529 177.877 168.869 177.706C169.228 177.592 169.531 177.44 169.833 177.193C170.287 176.813 170.759 176.281 170.778 175.674L170.74 175.123C170.627 174.743 170.419 174.439 170.098 174.211L170.079 174.249Z" fill="#7AC5EE"/>
<path d="M46.4074 195.617C48.108 196.111 49.7519 196.795 51.3014 197.63C51.5659 197.725 51.8305 197.763 52.095 197.763C52.4162 197.801 52.7563 197.763 53.0776 197.725C53.7578 197.63 54.5514 197.402 55.1561 197.042L55.6663 196.719C55.9308 196.548 56.1198 196.301 56.2331 196.016C56.3087 195.579 56.082 195.389 55.723 195.199C54.1546 194.363 52.5296 193.699 50.829 193.186C50.2432 193.015 49.6575 193.015 49.0528 193.091C48.3725 193.186 47.5789 193.414 46.9743 193.775L46.4641 194.098C46.1996 194.269 46.0106 194.515 45.8972 194.8C45.8216 195.18 46.0106 195.503 46.4074 195.617Z" fill="#7AC5EE"/>
<path d="M137.37 139.281C136.198 138.75 134.857 138.598 133.591 138.636C132.929 138.655 132.268 138.769 131.626 138.94C130.983 139.111 130.322 139.357 129.736 139.68C129.188 139.984 128.602 140.383 128.338 140.991C128.13 141.447 128.111 142.093 128.451 142.51C128.829 142.966 129.415 143.251 130.001 143.289C130.719 143.365 131.512 143.251 132.155 142.909C132.382 142.776 132.627 142.681 132.873 142.586L132.155 142.852C132.457 142.738 132.759 142.662 133.081 142.605L132.344 142.738C132.684 142.681 133.024 142.662 133.383 142.662H132.684C133.081 142.662 133.477 142.7 133.874 142.795L133.251 142.643C133.591 142.719 133.912 142.833 134.233 142.985C134.819 143.251 135.726 143.175 136.312 143.023C136.898 142.871 137.691 142.472 138.107 141.941C138.428 141.523 138.749 140.953 138.56 140.383C138.371 139.813 137.937 139.509 137.408 139.262L137.37 139.281Z" fill="#7AC5EE"/>
<path d="M36.7338 55.9747C40.6641 45.3762 47.2208 35.8033 55.5916 28.5097C58.9172 25.5467 63.5467 21.8998 58.8794 24.7679C54.4957 27.598 50.0741 31.2828 46.0871 35.7843C41.9678 40.3428 37.6407 46.9906 35.43 53.0877C34.1262 56.6585 33.8427 58.4819 33.9561 58.9567C34.0884 59.4316 34.5986 58.5958 35.4489 57.0194C36.696 54.5882 38.7367 50.4665 41.1553 46.7247C43.6496 42.812 46.7296 38.7473 50.2819 35.1005C53.0974 32.1755 57.4056 28.6616 59.2951 27.7309C60.9391 26.8382 57.1788 30.0672 55.875 31.6247C53.3052 34.5307 52.0581 36.696 53.2296 36.2402C56.5931 32.4414 60.4667 29.0605 64.6804 26.1355C62.4129 27.2561 60.3722 28.4147 58.5771 29.4594C57.8213 29.9152 57.0655 30.3521 56.3663 30.7699C55.8939 31.0549 54.4579 32.0615 54.4201 31.9476C54.1177 32.3274 53.8532 32.7263 53.5887 33.1252L53.7965 32.8593C53.0785 33.657 52.3605 34.4547 51.6991 35.2905C51.1889 35.8223 49.1104 38.3105 50.8488 36.2781C51.718 35.3285 52.5872 34.3408 53.4942 33.4671C54.6279 32.3084 55.7617 31.2258 56.9332 30.1621C58.1047 29.0985 59.2952 28.1108 60.5801 27.1231C60.6745 27.0472 61.7894 26.2114 61.5437 26.3824C62.2051 25.9265 62.2996 25.9835 62.6586 25.7556C63.0932 25.5087 61.8461 26.4204 63.0554 25.4137C63.3766 25.1288 64.3025 24.464 64.8316 24.1411C65.0583 23.9702 66.9101 22.8875 66.8723 22.9445C66.8723 22.9445 66.1165 23.3244 66.022 23.3624C65.2473 23.7422 64.5103 24.0841 64.2458 24.1221C63.9435 24.464 63.66 24.8059 63.3766 25.1668L63.66 24.9199C62.8097 25.5656 61.9405 26.2114 61.128 26.9142C60.6745 27.2371 59.4463 28.1868 59.3896 28.2438C61.0335 26.5913 62.7719 24.9958 64.6048 23.5143C61.0902 25.7176 58.5582 27.446 55.7995 29.5923C52.0959 32.5174 48.6002 35.9173 45.3313 40.4948C42.9693 43.6857 39.9082 49.4788 38.5099 53.7714C37.773 55.8987 37.3762 57.6272 37.3384 58.3489C37.3006 59.0707 37.603 58.8048 38.4344 57.0384C39.7382 54.3033 42.0434 49.4029 44.4621 45.6231C47.4665 40.7227 51.2078 36.2781 54.1744 32.9732C56.9332 29.9532 57.9536 28.6616 55.4404 30.2191C52.9651 31.7956 48.6191 35.9363 45.4446 40.2289C46.6351 38.9373 47.8822 37.7027 49.1671 36.5441C49.6206 35.5564 50.2441 34.4547 51.0378 33.2201C51.7369 32.1375 50.7165 32.9352 49.1482 34.4737C47.5988 36.0312 45.6336 38.4244 44.3487 40.3238C39.587 47.2566 37.2061 54.5882 36.9605 57.3992C36.866 58.5389 37.4518 57.2093 38.6422 54.5692C40.305 50.9413 42.5536 46.5728 44.7644 43.0969C45.7659 41.5204 46.7296 40.0769 47.7499 38.6714C48.2034 38.0826 48.6191 37.4558 49.1104 36.867C49.6395 36.2212 49.8662 35.9932 49.3371 36.582C47.5421 38.4434 45.8037 40.3808 44.2353 42.4701C44.2353 42.4701 43.9519 43.0209 44.0842 42.812C43.8007 43.3248 43.7251 43.4198 43.9519 43.0399C44.0275 42.926 44.5566 42.1092 44.651 41.9763C44.5566 42.0523 42.7993 44.7684 42.9504 44.5594C40.6074 48.2632 38.7934 52.3849 37.603 55.9937C35.3166 63.0784 35.2221 67.7698 35.4678 70.372C36.0346 65.7185 37.1306 61.122 38.68 56.6775C37.8486 58.5958 37.2628 59.7735 37.0739 59.6215C37.0361 59.6025 37.055 59.3366 37.0172 59.3746C37.1306 58.6338 37.0172 58.9757 36.7149 60.4003C36.5259 61.198 36.2992 62.1477 35.9968 63.2683C35.9968 63.2683 36.2803 62.2617 36.5826 61.236C36.9227 60.2103 37.2628 59.1657 37.3195 58.9947C39.6437 52.6318 42.5347 48.2822 44.7266 45.7181C45.1801 44.5215 45.6525 43.3438 46.1816 42.1852C43.6307 45.984 41.0987 51.0743 40.1917 54.1703C39.6437 55.8987 39.6815 56.4685 40.0216 56.0317C40.3806 55.5948 41.0987 54.2083 42.1946 52.119C43.4795 49.6498 45.6147 45.7371 47.1264 43.2869C48.638 40.8367 49.2238 39.64 46.8807 42.4131C45.747 43.8377 44.6699 45.2812 43.744 46.5728C42.9882 48.3962 42.2891 50.2386 41.7033 52.1C44.2353 46.2499 47.372 41.4065 49.4127 38.1965C50.3386 36.772 51.17 35.4994 50.7921 35.5184C50.5654 35.5184 49.9418 36.0312 48.8648 37.0949C48.3357 37.6457 47.7877 38.2725 47.2019 38.9373C46.9185 39.2602 46.4461 39.811 46.8429 39.3551C47.2964 38.8803 47.7688 38.4434 48.2223 37.9686C47.9767 38.1585 47.561 38.2725 46.7484 39.1082C45.6525 40.2668 43.9708 42.3562 42.6292 44.4455C42.3458 44.8443 41.5899 46.041 41.3632 46.4588C41.401 46.3828 41.4955 46.2689 41.4766 46.3069H41.4955C41.7033 46.0599 41.5144 46.4588 40.9853 47.5415C40.6074 48.5291 40.7207 48.3582 40.1539 49.4978C40.0972 49.6118 39.6059 50.6564 39.587 50.6944C39.587 50.6944 39.8326 50.2196 40.0594 49.7447C40.3239 49.2699 40.5696 48.814 40.5696 48.7951C44.7077 41.4255 49.4127 36.4681 55.2893 31.4917C59.0306 28.2818 64.208 24.7109 68.9508 22.1468C73.6747 19.5256 77.9262 17.8352 79.1545 16.9045C80.1181 16.2017 78.0018 16.3347 74.2605 17.5123C72.4843 18.1201 70.3302 18.9368 68.2517 19.9815C67.5147 20.3234 66.1165 21.0641 65.3795 21.501C64.6048 21.9758 65.0772 21.6719 65.474 21.482C65.0583 21.6909 64.5859 21.9188 64.2269 22.0898C61.9216 23.2484 59.0306 25.0908 56.3096 27.3131C53.5698 29.5164 51 32.1185 49.0726 34.4168C45.2935 39.0322 43.7818 42.2042 42.667 44.8633C41.949 46.6488 43.9897 43.6287 46.0493 40.8936C48.4868 37.5697 51.5857 34.0179 52.795 32.4604C53.343 31.6816 53.9099 30.9789 54.8169 29.9912C55.0436 29.7443 55.3838 29.4404 55.1003 29.6683C55.2137 29.5733 53.0218 31.5487 53.3052 31.2638C53.532 31.0359 54.9492 29.9912 55.2137 29.7823C56.1207 29.1175 57.1221 28.3007 58.237 27.503C59.3329 26.6673 60.3911 25.9265 61.5437 25.1288C62.224 24.6919 62.2618 24.6539 62.6019 24.445C63.4711 23.9322 64.0946 23.6473 64.1135 23.7612C64.1135 23.7612 63.9813 24.0082 63.7734 24.1221C63.66 24.1981 65.8897 22.5456 66.3432 22.4317C66.2298 22.3937 62.2429 24.7679 61.7327 25.1288C60.2777 26.0405 58.9361 26.9332 57.6134 27.8639C51.1133 32.5364 44.7455 38.6714 39.8704 47.7504C37.1684 52.6318 35.2032 59.0897 35.0709 61.3499C34.9387 63.7052 36.4125 59.1467 38.3777 54.7401C38.4155 54.6451 38.7367 53.9424 39.0579 53.2586C39.3791 52.5748 39.7004 51.929 39.7004 51.91C39.5681 52.2899 39.3036 52.3089 39.4169 52.4419C39.5303 52.5558 40.0216 51.872 40.7774 50.5425C40.8719 50.3146 42.3836 47.8454 42.5158 47.5794C42.5158 47.5225 41.3065 49.4218 41.401 49.2509C41.4388 49.1749 41.1931 49.9157 41.1931 49.9157C41.042 50.3146 40.8719 50.7894 40.7018 51.2832C40.5318 51.7201 40.2672 52.4419 39.9838 53.1826C39.7004 53.9234 39.8704 53.4865 39.9271 53.3346C39.9271 53.3346 39.7004 53.9044 39.5303 54.3222C39.3603 54.7401 39.2658 55.044 39.4547 54.5312C38.3021 57.2093 36.7527 63.8951 38.2076 60.3053C39.1146 58.14 40.135 55.8987 41.401 53.5055C42.5914 50.1246 44.0653 46.8197 45.8415 43.6667L45.5202 44.0846L47.2397 41.9003C47.9767 41.0266 45.4258 45.1482 46.7295 43.2299C47.1453 42.5841 47.731 41.7104 48.1467 41.1406C49.1482 39.716 50.2252 38.3295 51.3401 36.9809C53.5887 34.3218 54.9492 32.6693 53.3808 33.752C50.9811 35.4994 47.6365 38.5764 44.4432 42.85C41.2498 47.1236 38.2265 52.5748 36.2425 58.5199C33.3892 66.7442 33.2948 74.8545 33.9939 75.9752C34.5041 76.7919 35.052 73.7339 36.1291 68.8905C36.5826 66.9721 37.2439 63.9901 37.9998 61.312C38.7178 58.6148 39.5492 56.2596 39.6437 55.4049C39.7949 54.3602 39.9649 53.1636 40.7396 51.1123C41.042 50.2196 41.4199 49.3839 41.9301 48.3582C41.5521 49.1559 42.478 47.2755 42.1568 47.8833C41.8545 48.4342 42.7426 46.8387 42.7993 46.7817C45.4258 42.2422 48.2034 38.5574 50.9811 35.1385C53.3052 32.3084 54.7791 30.694 55.3082 29.7063C55.5727 29.2314 54.5901 29.9532 53.2485 31.0738C51.9447 32.2135 50.3575 33.771 49.3749 34.8916C46.9563 37.5887 44.9723 40.3998 43.3283 43.1539C43.2528 43.2679 42.7993 44.0656 42.3647 44.8254C41.949 45.6041 41.571 46.3449 41.571 46.3449C41.4955 46.4018 43.3472 43.4768 41.949 45.6421C42.6481 44.7874 43.4228 43.9896 44.1409 43.1729C44.3487 42.6031 44.7077 41.8243 45.2557 40.8746C45.8792 39.906 46.3705 39.1272 47.013 38.3105C44.8589 40.7227 42.8748 43.2869 41.0987 46.022C40.6074 47.3895 40.3239 48.6431 40.0783 49.7068C39.8704 50.9413 41.0042 48.871 43.1205 45.4711C44.0653 44.0086 44.7266 43.0399 45.5202 42.0712C46.5406 40.7987 44.9912 42.983 45.8415 41.6534C45.7659 41.7484 46.6162 40.4188 46.6729 40.3998C46.6729 40.4188 46.2005 41.0456 45.7092 41.7104C45.2368 42.3751 44.7644 43.0589 44.7644 43.0589C44.4432 43.4958 44.1597 43.9516 43.8763 44.4075C43.9897 44.2365 44.1031 44.0656 44.2164 43.9137C44.1786 43.9137 45.0667 42.907 44.6888 43.4198C44.5566 43.5908 45.6336 41.8433 45.3502 42.2802C45.7281 41.6344 46.7296 40.2668 45.8981 41.3875C45.558 41.9003 45.5013 41.8813 46.1816 41.0266C47.4665 39.4311 48.7136 37.9876 50.1119 36.5631C54.0422 32.5174 58.6149 28.5667 64.0002 25.0908C66.5133 23.4383 69.5366 21.7289 70.8404 20.8552C71.8796 20.1904 71.8796 19.8485 69.5933 20.8552C66.7589 22.0898 63.2254 24.0841 60.0699 26.4014C56.9143 28.6996 54.1555 31.3398 52.5494 33.3341C49.8095 36.8669 53.8343 33.1822 57.6701 30.3521C60.0321 28.5477 62.8286 26.5723 65.663 24.8249C68.4973 23.0585 71.3506 21.52 73.6936 20.3234C77.9829 18.234 78.6821 17.4553 74.4872 18.5949C69.65 19.9625 62.5074 23.8372 57.3867 28.2818C55.1948 30.1431 53.2485 32.1185 51.2456 34.2648C49.5261 36.0882 47.6743 38.2915 46.2383 40.4568C44.1975 43.5148 43.3661 45.5471 44.2731 44.7304C44.8967 44.1606 46.0304 42.945 46.9752 41.9953C48.8459 40.1529 51.0944 38.0256 53.7776 35.8033C55.3837 34.4737 58.4071 31.6816 61.0902 29.5543C63.7734 27.408 66.0409 25.7936 65.304 25.8505C64.6615 25.9455 65.9464 24.7679 67.7982 23.4953C69.6122 22.1847 71.993 20.8362 73.1645 20.0764C76.6035 18.0061 71.1238 19.2027 65.1717 22.2987C59.7486 25.0718 54.0422 29.4594 49.5828 33.9229C47.8822 35.5754 45.6147 38.0826 43.9141 40.1149C42.2135 42.1472 41.042 43.6477 41.1553 42.983C40.9664 43.4578 40.7585 43.9137 40.5885 44.3885L40.7774 43.9516C40.2672 44.9583 39.7382 45.965 39.2847 46.9906L39.5681 46.4018C38.869 47.7694 38.1887 49.1179 37.5841 50.5235C36.2425 53.5245 37.3573 50.9793 37.8864 50.0107C38.3777 49.023 38.9257 48.0543 39.4547 47.1236C40.4562 45.3952 41.5332 43.7427 42.6292 42.1662C44.8589 39.0702 47.2019 36.3921 49.6395 34.0369C50.5276 32.6313 51.4724 31.2638 52.4549 29.9152C45.4446 36.696 39.8704 45.0533 36.2425 54.3033C34.7686 57.8741 33.6538 62.8884 33.8994 63.3633C34.1451 63.8381 35.43 59.2036 36.7149 55.9557L36.7338 55.9747Z" fill="black"/>
</g>
<defs>
<clipPath id="clip0_511_17778">
<rect width="193" height="205" fill="white"/>
</clipPath>
</defs>
</svg>
