<svg width="172" height="193" viewBox="0 0 172 193" fill="none" xmlns="http://www.w3.org/2000/svg">
<g clip-path="url(#clip0_523_4406)">
<path d="M172 177.809V189.536C172 189.536 147.659 198.986 116.993 198.986C86.3271 198.986 62 187.973 62 187.973V177.823" fill="#E64926"/>
<path d="M172 167.66V179.387C172 179.387 147.659 188.837 116.993 188.837C86.3271 188.837 62 177.809 62 177.809V167.66" fill="#EADACB"/>
<path d="M172 156.632V168.359C172 168.359 147.659 177.809 116.993 177.809C86.3271 177.809 62 166.782 62 166.782V156.632" fill="#E64926"/>
<path d="M172 146.469V158.196C172 158.196 147.659 167.646 116.993 167.646C86.3271 167.646 62 156.633 62 156.633V146.483" fill="#EADACB"/>
<path d="M172 135.442V147.169C172 147.169 147.659 156.619 116.993 156.619C86.3271 156.619 62 145.591 62 145.591V135.442" fill="#E64926"/>
<path d="M172 125.292V137.019C172 137.019 147.659 146.469 116.993 146.469C86.3271 146.469 62 135.442 62 135.442V125.292" fill="#EADACB"/>
<path d="M172 114.251V125.978C172 125.978 147.659 135.428 116.993 135.428C86.3271 135.428 62 124.414 62 124.414V114.265" fill="#E64926"/>
<path d="M172 104.102V115.828C172 115.828 147.659 125.278 116.993 125.278C86.3271 125.278 62 114.251 62 114.251V104.102" fill="#EADACB"/>
<path d="M172 93.0742V104.801C172 104.801 147.659 114.251 116.993 114.251C86.3271 114.251 62 103.224 62 103.224V93.0742" fill="#E64926"/>
<path d="M172 82.9109V94.6377C172 94.6377 147.659 104.088 116.993 104.088C86.3271 104.088 62 93.0742 62 93.0742V82.9246" fill="#EADACB"/>
<path d="M172 71.8835V83.6104C172 83.6104 147.659 93.0605 116.993 93.0605C86.3271 93.0605 62 82.0331 62 82.0331V71.8835" fill="#E64926"/>
<path d="M114.044 8.88775C114.552 12.5087 112.589 16.4451 111.382 19.778C110.051 23.4675 108.693 27.1707 107.842 30.9973C106.058 39.0073 105.702 47.4835 105.921 55.658C105.99 58.4286 108.844 59.2652 111.272 58.9772C113.234 58.7303 118.009 57.2765 117.941 54.4922C117.707 46.1257 118.064 37.3888 119.999 29.2143C120.904 25.3876 122.276 21.6981 123.607 18.0086C125.075 13.9625 126.571 10.0673 125.967 5.69201C125.816 4.62219 124.417 3.88155 123.539 3.60724C122.18 3.19577 120.383 3.27806 119.038 3.67582C116.719 4.3616 113.646 6.02119 114.044 8.87404V8.88775Z" fill="#FFCF02"/>
<path d="M114.853 5.80182C116.623 10.8903 118.284 16.0337 119.82 21.2045C121.357 26.3753 122.537 31.162 122.812 36.4151C122.949 39.0211 122.949 41.627 122.921 44.233C122.894 46.839 122.77 48.8003 121.686 51.0634C119.45 55.713 116.665 60.1431 113.756 64.395C113.097 65.3688 114.524 66.1506 115.142 66.3426C116.623 66.8364 118.764 66.6306 120.246 66.37C123.539 65.7803 127.518 64.683 129.507 61.789C132.416 57.5372 135.201 53.0933 137.438 48.4574C138.604 46.0435 138.796 43.6021 138.837 40.955C138.879 38.3079 138.892 35.5236 138.769 32.8079C138.522 27.4314 137.356 22.3977 135.833 17.2544C134.31 12.111 132.581 6.73449 130.77 1.53626C129.85 -1.09714 123.868 0.343005 122.057 0.850483C120.246 1.35796 118.215 2.01631 116.651 3.18214C115.951 3.71705 114.483 4.71829 114.853 5.80182Z" fill="#FFCF02"/>
<path d="M115.566 22.3565C115.84 29.0909 114.77 35.4824 113.426 42.0522C112.767 45.289 112.301 48.5396 111.985 51.8314C111.82 53.4636 111.683 55.1094 111.546 56.7416C111.464 57.6194 111.395 58.4835 111.313 59.3613C111.271 59.8002 111.23 60.2391 111.189 60.6643C111.052 61.4598 111.079 61.5283 111.271 60.8837L114.372 58.2229L114.07 58.3326L121.26 58.2366L121.013 58.0857C118.585 56.5633 114.688 57.2765 112.493 58.9361C110.654 60.3351 109.186 62.9959 111.711 64.6006C114.729 66.5071 119.435 65.3961 121.836 62.8862C123.36 61.2952 123.277 59.0047 123.456 56.9473C123.812 52.9012 124.1 48.8551 124.732 44.8501C125.363 40.8452 126.364 37.0871 126.954 33.1644C127.544 29.2418 127.736 25.2368 127.572 21.2593C127.462 18.4613 124.704 17.5012 122.18 17.8029C120.176 18.0361 115.429 19.5448 115.539 22.3702L115.566 22.3565Z" fill="#FFCF02"/>
<path d="M172 61.7202V73.4471C172 73.4471 147.659 82.8971 116.993 82.8971C86.3271 82.8971 62 71.8835 62 71.8835V61.7339" fill="#EADACB"/>
<path d="M117.007 71.8699C147.386 71.8699 172.014 67.3258 172.014 61.7204C172.014 56.1149 147.386 51.5708 117.007 51.5708C86.6274 51.5708 62 56.1149 62 61.7204C62 67.3258 86.6274 71.8699 117.007 71.8699Z" fill="#E64926"/>
<path d="M123.523 16.3765C125.87 30.0647 118.186 42.4225 115.277 55.37C115.003 56.577 118.968 55.9598 119.229 54.7803C122.193 41.6544 129.89 29.2006 127.503 15.3067C127.31 14.1957 123.318 15.1147 123.523 16.3765Z" fill="black"/>
</g>
<g clip-path="url(#clip1_523_4406)">
<path d="M90 187.297V196.902C90 196.902 70.0848 204.643 44.9944 204.643C19.904 204.643 0 195.61 0 195.61V187.297" fill="#639621"/>
<path d="M90 178.972V188.578C90 188.578 70.0848 196.318 44.9944 196.318C19.904 196.318 0 187.297 0 187.297V178.983" fill="#EADACB"/>
<path d="M90 169.94V179.545C90 179.545 70.0848 187.286 44.9944 187.286C19.904 187.286 0 178.253 0 178.253V169.94" fill="#639621"/>
<path d="M90 161.626V171.232C90 171.232 70.0848 178.972 44.9944 178.972C19.904 178.972 0 169.94 0 169.94V161.626" fill="#EADACB"/>
<path d="M90 152.583V162.188C90 162.188 70.0848 169.928 44.9944 169.928C19.904 169.928 0 160.907 0 160.907V152.594" fill="#639621"/>
<path d="M90 144.269V153.874C90 153.874 70.0848 161.615 44.9944 161.615C19.904 161.615 0 152.583 0 152.583V144.269" fill="#EADACB"/>
<path d="M90 135.237V144.842C90 144.842 70.0848 152.582 44.9944 152.582C19.904 152.582 0 143.55 0 143.55V135.237" fill="#639621"/>
<path d="M90 126.912V136.518C90 136.518 70.0848 144.258 44.9944 144.258C19.904 144.258 0 135.237 0 135.237V126.923" fill="#EADACB"/>
<path d="M90 117.88V127.485C90 127.485 70.0848 135.226 44.9944 135.226C19.904 135.226 0 126.193 0 126.193V117.88" fill="#639621"/>
<path d="M42.5799 66.2798C42.9953 69.2457 41.3899 72.47 40.402 75.1999C39.3131 78.222 38.2017 81.2553 37.5057 84.3897C36.0463 90.9506 35.7544 97.8934 35.934 104.589C35.9902 106.858 38.3252 107.544 40.3122 107.308C41.9176 107.106 45.8243 105.915 45.7681 103.634C45.5773 96.7812 45.8692 89.6249 47.4521 82.9292C48.193 79.7948 49.3156 76.7727 50.4045 73.7507C51.6057 70.4365 52.8294 67.246 52.3354 63.6622C52.2119 62.7859 51.0669 62.1792 50.3484 61.9546C49.237 61.6175 47.7664 61.6849 46.6662 62.0107C44.769 62.5724 42.2543 63.9318 42.5799 66.2686V66.2798Z" fill="#FFCF02"/>
<path d="M43.2441 63.7522C44.6922 67.9201 46.0506 72.133 47.3079 76.3684C48.5653 80.6038 49.5307 84.5246 49.7552 88.8274C49.8675 90.9619 49.8675 93.0964 49.845 95.231C49.8226 97.3655 49.7215 98.972 48.8347 100.826C47.0048 104.634 44.7259 108.263 42.346 111.746C41.8071 112.543 42.9746 113.184 43.4798 113.341C44.6922 113.745 46.4435 113.577 47.6559 113.363C50.3502 112.88 53.6058 111.981 55.2336 109.611C57.6135 106.128 59.8924 102.488 61.7223 98.6912C62.6765 96.7139 62.8337 94.7142 62.8674 92.5459C62.901 90.3777 62.9123 88.0971 62.8112 85.8727C62.6092 81.4688 61.6549 77.3458 60.4088 73.1329C59.1627 68.92 57.7482 64.5161 56.2664 60.2583C55.5142 58.1013 50.6196 59.2809 49.1378 59.6965C47.6559 60.1122 45.9945 60.6515 44.7147 61.6064C44.1422 62.0445 42.941 62.8646 43.2441 63.7522Z" fill="#FFCF02"/>
<path d="M43.8271 77.3122C44.0517 82.8283 43.176 88.0635 42.0759 93.4448C41.537 96.0961 41.1553 98.7587 40.8971 101.455C40.7624 102.792 40.6501 104.14 40.5379 105.477C40.4705 106.196 40.4144 106.904 40.347 107.623C40.3134 107.982 40.2797 108.342 40.246 108.69C40.1337 109.341 40.1562 109.398 40.3134 108.87L42.8505 106.69L42.6035 106.78L48.486 106.701L48.2839 106.578C46.2969 105.331 43.1087 105.915 41.3125 107.274C39.8082 108.42 38.607 110.6 40.6726 111.914C43.1423 113.476 46.9929 112.566 48.9575 110.51C50.2036 109.207 50.1362 107.331 50.2822 105.645C50.5741 102.331 50.8098 99.0171 51.3262 95.7366C51.8426 92.4562 52.6621 89.3779 53.1448 86.1649C53.6276 82.9519 53.7847 79.6714 53.65 76.4134C53.5602 74.1216 51.3038 73.3352 49.2381 73.5824C47.5991 73.7734 43.7149 75.0091 43.8047 77.3234L43.8271 77.3122Z" fill="#FFCF02"/>
<path d="M90 109.555V119.16C90 119.16 70.0848 126.901 44.9944 126.901C19.904 126.901 0 117.88 0 117.88V109.566" fill="#EADACB"/>
<path d="M45.0056 117.868C69.8615 117.868 90.0112 114.146 90.0112 109.555C90.0112 104.964 69.8615 101.241 45.0056 101.241C20.1497 101.241 0 104.964 0 109.555C0 114.146 20.1497 117.868 45.0056 117.868Z" fill="#639621"/>
<path d="M50.3381 72.4139C52.2578 83.6258 45.9712 93.748 43.5912 104.353C43.3667 105.342 46.611 104.836 46.8243 103.87C49.2492 93.1189 55.5471 82.918 53.5937 71.5376C53.4365 70.6276 50.1697 71.3803 50.3381 72.4139Z" fill="black"/>
</g>
<defs>
<clipPath id="clip0_523_4406">
<rect width="110" height="199" fill="white" transform="translate(62)"/>
</clipPath>
<clipPath id="clip1_523_4406">
<rect width="90" height="163" fill="white" transform="translate(0 59)"/>
</clipPath>
</defs>
</svg>
