<svg width="266" height="173" viewBox="0 0 266 173" fill="none" xmlns="http://www.w3.org/2000/svg">
<path d="M27.5974 19.1233C27.5974 19.1233 -8.41981 15.8234 16.4269 35.8463C41.2737 55.8692 95.6423 76.8226 100.617 79.2045C105.591 81.5864 99.0832 85.916 119.903 81.5244C140.723 77.1327 226.608 61.2037 233.889 60.5338C241.17 59.8639 261.553 59.1443 242.454 51.1674C223.354 43.1905 171.155 20.7112 167.016 13.429C162.877 6.14684 167.141 -2.16503 134.19 5.6258C101.24 13.4166 27.5974 19.1233 27.5974 19.1233Z" fill="#247131"/>
<path d="M8.17537 29.2588L5.79417 32.4223C5.79417 32.4223 15.3439 114.462 6.991 130.292C-1.36189 146.121 -4.86512 177.483 23.1482 193.003C51.1616 208.522 108.772 264.584 108.136 205.036C107.5 145.489 126.487 81.3135 89.0364 73.7956C51.5855 66.2777 8.17537 29.2588 8.17537 29.2588Z" fill="#247131" stroke="black" stroke-width="1.50676" stroke-miterlimit="10"/>
<path d="M103.946 84.8493C106.552 105.108 107.711 125.801 106.976 148.193C106.253 169.928 104.532 191.378 103.074 212.542C102.887 215.234 102.687 217.914 102.5 220.593L102.425 221.598L102.351 222.764L102.201 225.618C102.151 226.585 102.089 227.565 102.164 228.483C102.238 229.389 102.363 230.257 102.55 231.039C102.887 232.639 104.395 234.227 105.991 234.736C107.474 235.17 109.257 235.393 111.302 235.158L114.356 234.86L115.827 234.723L116.837 234.649L120.877 234.364C131.648 233.582 142.444 232.763 153.353 231.746C173.213 229.898 193.497 227.156 213.407 223.608C220.239 222.392 226.996 221.09 233.653 219.712C236.982 219.018 240.285 218.311 243.564 217.579C245.197 217.206 246.831 216.834 248.451 216.475L250.882 215.916C252.229 215.643 253.563 215.383 254.897 215.11C255.77 214.924 256.567 214.651 257.303 214.328C258.026 213.993 258.662 213.658 259.273 213.15C260.507 212.157 261.405 210.619 261.641 209.18C261.779 208.436 261.891 207.654 261.891 206.81C261.891 205.979 261.816 205.123 261.766 204.292L261.604 201.947L261.442 200.384C261.006 196.216 260.532 192.11 260.021 188.053C259.497 183.86 258.762 179.828 257.964 176.292C257.889 175.945 256.592 170.995 256.68 173.104L257.527 193.077L257.951 203.163C257.989 204.081 258.038 205.024 258.038 205.954C258.001 206.872 258.126 207.803 257.714 208.659C257.328 209.503 256.567 210.172 255.72 210.433C254.872 210.681 253.974 210.904 253.027 211.078L189.881 223.161L177.552 228.062C187.513 225.035 199.581 222.839 211.013 220.941C223.218 218.919 235.548 217.157 247.803 215.358L254.548 214.366C255.707 214.192 256.779 213.857 257.714 213.448C258.637 213.063 259.547 212.405 260.233 211.537C260.931 210.669 261.342 209.689 261.542 208.696C261.791 207.691 261.903 206.538 261.878 205.359L261.903 195.31L261.953 177.595V142.164C261.841 116.98 261.479 91.7593 260.432 66.8485L260.332 63.7346C260.295 62.6801 260.295 61.6008 260.145 60.6208C259.996 59.6531 259.784 58.7723 259.522 57.9535C259.223 57.1348 258.612 56.316 257.814 55.7825C257.016 55.2243 256.056 54.9637 255.196 54.9886C254.298 54.9886 253.363 54.9886 252.366 55.1374C251.369 55.2739 250.359 55.4972 249.374 55.6709L246.656 56.2043C240.722 57.4325 234.862 58.6855 229.04 59.9881C217.396 62.5809 205.939 65.2978 194.519 68.1263C181.703 71.3022 168.538 74.5277 154.6 76.7359C147.668 77.84 140.45 78.7084 133.792 79.031C128.83 79.2667 121.388 79.0558 123.981 77.0088C124.928 76.2645 116.501 78.7456 116.127 78.8573C114.456 79.3907 112.224 80.0606 110.192 80.7802C109.694 80.9663 109.195 81.1399 108.721 81.3136L108.372 81.4501L108.198 81.5121V81.5617C108.222 81.6486 108.198 81.5617 108.198 81.5865C108.21 81.599 108.222 81.6114 108.198 81.5865C108.222 81.5865 108.235 81.5865 108.247 81.5865C108.247 81.5865 108.173 81.5865 108.198 81.5865C108.222 81.5865 108.222 81.599 108.198 81.5865C108.41 82.8023 108.609 84.0181 108.833 85.2587C109.095 85.2587 109.369 85.2835 109.644 85.2959C110.205 85.3207 110.791 85.3207 111.402 85.3207C116.301 85.3207 122.759 84.7624 126.549 84.3406C138.979 82.9636 151.421 80.4204 163.09 77.7408C175.245 74.9495 186.889 71.8852 198.92 69.0195C211.362 66.0669 224.128 63.3128 237.081 60.7696C240.36 60.137 243.639 59.5043 246.918 58.8716L251.817 57.9535C252.653 57.8047 253.488 57.6186 254.348 57.5193C255.208 57.4697 256.056 57.8543 256.605 58.4994C256.879 58.8219 257.066 59.2065 257.153 59.6159C257.241 60.0253 257.228 60.4347 257.253 60.8441L257.353 63.3625L257.502 68.486C257.59 71.8232 257.677 75.1728 257.764 78.5099C258.076 91.8957 258.238 105.319 258.313 118.779C258.462 145.675 258.275 172.657 258.225 199.479V202.965C258.213 204.242 258.225 205.557 258.138 206.798C258.101 207.418 258.063 208.026 257.789 208.597C257.527 209.168 257.091 209.664 256.555 209.999C256.019 210.359 255.42 210.47 254.81 210.594C254.199 210.718 253.575 210.842 252.927 210.942C249.885 211.401 246.831 211.847 243.789 212.306C240.859 212.765 237.929 213.224 235.012 213.671C229.177 214.601 223.38 215.594 217.683 216.673C206.275 218.819 195.242 221.325 184.92 224.451C181.304 225.543 177.751 226.734 174.734 227.95C174.534 228.024 170.607 229.724 172.602 229.352L254.236 213.758C255.595 213.497 256.804 213.075 257.851 212.53C258.924 211.934 259.846 210.867 260.283 209.701C260.681 208.56 260.819 207.332 260.831 205.979L260.719 202.022L260.245 190.993L256.904 176.032C257.652 181.962 258.3 188.041 258.874 194.219C259.011 195.769 259.148 197.32 259.285 198.871L259.472 201.215L259.559 202.456L259.647 204.007C259.709 205.049 259.784 206.128 259.709 207.145C259.647 208.15 259.572 209.13 259.023 210.036C258.512 210.929 257.677 211.649 256.792 212.021C255.907 212.393 254.922 212.74 253.837 212.951L250.396 213.621L247.878 214.142C246.195 214.477 244.512 214.812 242.829 215.16C239.45 215.817 236.047 216.462 232.631 217.082C225.799 218.323 218.905 219.464 211.998 220.506C198.172 222.603 184.246 224.315 170.533 225.593C159.624 226.61 148.828 227.429 138.056 228.21C132.67 228.595 127.297 228.98 121.911 229.364C119.243 229.563 116.575 229.749 113.895 229.947L110.28 230.195C109.694 230.208 109.133 230.332 108.572 230.22C108.011 230.109 107.487 229.749 107.163 229.253C106.826 228.769 106.689 228.148 106.764 227.553L106.901 225.791L107.188 222.467C107.375 219.837 107.562 217.194 107.761 214.552C108.123 209.23 108.497 203.883 108.871 198.523C109.569 187.792 110.18 176.999 110.541 166.132C111.352 141.631 109.818 118.978 106.988 96.9201C106.365 92.0942 105.53 87.1815 104.507 83.3854C103.822 80.8174 103.398 80.8918 103.909 84.8989L103.946 84.8493Z" fill="black"/>
<path d="M112.385 80.8916C112.385 80.8916 102.399 78.3608 105.578 95.1458C108.757 111.931 106.214 212.653 106.538 219.625C106.862 226.597 97.3123 234.252 126.597 231.845C155.882 229.438 242.927 215.184 251.766 212.653C260.605 210.123 262.513 210.755 261.565 196.811C260.618 182.867 260.293 70.111 259.658 65.3595C259.022 60.6081 257.75 53.0778 241.194 59.8514C224.638 66.6249 112.397 80.8792 112.397 80.8792L112.385 80.8916Z" fill="#247131" stroke="black" stroke-width="1.50676" stroke-miterlimit="10"/>
<path d="M4.94879 32.1247C7.5544 49.6541 8.71383 67.5556 7.97828 86.9334C7.25519 105.741 5.53474 124.3 4.0761 142.611C3.32808 151.915 2.48033 161.17 1.66997 170.437L1.52037 172.174L1.44557 173.042L1.40816 173.476L1.37076 174.134C1.33336 175.089 1.24609 176.057 1.24609 177.012C1.27103 177.979 1.3583 178.873 1.6201 179.754C1.88191 180.634 2.34319 181.503 2.91667 182.222C3.49015 182.942 4.17584 183.537 4.97373 184.108C5.77162 184.666 6.65677 185.15 7.517 185.671L8.11541 186.031L8.48942 186.267L9.22498 186.738C13.1645 189.281 17.1415 191.8 21.1684 194.305C35.8046 203.411 51.2762 212.021 66.9347 219.787C71.5849 222.094 76.2351 224.315 80.8728 226.449C83.2042 227.503 85.5106 228.545 87.817 229.588L89.5499 230.357L90.4101 230.741L91.8812 231.448C93.8385 232.379 95.7834 233.297 97.7158 234.215C99.4362 234.996 101.057 235.232 102.353 235.232C103.002 235.22 103.588 235.232 104.186 235.133C104.809 235.034 105.52 234.81 106.206 234.475C107.577 233.781 108.737 232.503 109.136 231.337C109.534 230.171 109.884 228.843 110.021 227.255C110.17 225.667 109.921 223.819 109.809 222.144L109.609 219.65C109.534 218.881 109.472 217.901 109.397 217.479C109.098 215.321 108.799 213.187 108.512 211.053C107.989 207.431 107.253 203.945 106.455 200.881C106.38 200.57 105.084 196.29 105.171 198.114L106.131 217.703C106.268 221.09 106.58 225.022 106.281 228.322C106.156 229.166 105.62 229.972 104.872 230.456C104.124 230.952 103.189 231.101 102.403 230.903C100.92 230.406 99.3365 229.86 97.616 229.054L51.139 206.873L39.8564 204.255C48.4212 207.121 57.9585 211.785 66.8724 216.363C71.6348 218.807 76.3723 221.313 81.0973 223.844C86.6077 226.809 92.1181 229.786 97.6036 232.739L97.6784 232.776C99.6108 233.781 101.431 234.14 102.902 234.314C103.638 234.426 104.398 234.438 105.283 234.178C106.143 233.942 107.016 233.458 107.689 232.85C108.375 232.242 108.849 231.535 109.111 230.865C109.248 230.506 109.397 230.183 109.534 229.811C109.659 229.401 109.809 229.042 109.908 228.607C110.12 227.739 110.332 226.809 110.357 225.729C110.407 224.675 110.37 223.558 110.382 222.479L110.445 204.317C110.482 193.325 110.494 182.334 110.445 171.342C110.345 149.558 109.971 127.724 108.936 106.175C108.674 100.853 108.375 95.5927 108.014 90.3947C107.826 87.6778 107.639 84.9733 107.452 82.2813C107.403 81.4997 107.315 80.7306 107.191 80.011C107.041 79.2915 106.655 78.5844 106.094 78.0633C104.922 77.1081 103.426 76.587 102.092 75.9295C92.6168 71.724 83.2665 67.7541 73.8165 63.8587C63.2445 59.5043 52.3982 55.001 41.6267 49.2819C36.2659 46.4286 30.8552 43.2403 26.1427 39.9155C22.6395 37.4344 17.715 33.2412 20.6822 32.9931C21.7668 32.9063 14.5733 30.3631 14.2616 30.2514C13.5386 30.0157 12.7033 29.7304 11.8181 29.4451C11.3693 29.3086 10.9205 29.1597 10.4717 29.0109C10.0603 28.8868 9.39951 28.6387 9.41198 28.7751C9.15017 28.8868 9.21251 29.2714 9.27484 29.321C9.26238 29.2838 9.15017 29.2342 9.21251 29.259C9.27484 29.2838 9.46185 29.2838 9.42445 29.2838C9.44938 29.2838 9.27484 29.2838 9.21251 29.259C9.15017 29.2342 9.27484 29.2962 9.27484 29.3334C9.27484 29.3334 9.24991 29.2838 9.24991 29.2466C9.24991 29.2218 9.24991 29.2342 9.24991 29.2466C9.24991 29.2714 9.23744 29.2962 9.22498 29.321L9.20004 29.3954C8.55176 30.574 7.90347 31.7525 7.25519 32.9435C10.5839 35.5983 15.2964 38.6129 18.1139 40.3249C27.3645 45.9199 37.3131 50.5721 46.813 54.7032C56.7118 59.008 66.4361 62.8166 76.2975 66.9974C81.3965 69.156 86.5204 71.4138 91.6443 73.7337C94.2001 74.9122 96.7807 76.0908 99.3614 77.2818L102.952 78.9441C103.538 79.1922 104.149 79.5148 104.473 80.0731C104.847 80.6189 104.834 81.2764 104.872 81.8967L105.109 85.9906L105.333 90.2954C105.458 93.1736 105.595 96.0517 105.72 98.9298C105.956 104.699 106.143 110.48 106.293 116.261C106.605 127.835 106.767 139.46 106.842 151.096C106.916 162.733 106.904 174.394 106.879 186.031C106.842 197.816 106.804 209.602 106.754 221.338C106.754 222.888 106.754 224.464 106.63 225.891L106.43 227.975C106.393 228.645 106.094 229.352 105.582 229.873C105.084 230.406 104.373 230.766 103.65 230.865C102.915 230.977 102.229 230.754 101.605 230.468C100.334 229.935 98.9874 229.352 97.616 228.62C92.5918 225.928 88.752 223.893 84.4758 221.697C80.2869 219.551 76.098 217.455 71.9215 215.482C63.5686 211.525 55.2407 208.014 47.0374 205.26C43.9331 204.218 40.8164 203.275 38.0238 202.655C37.8492 202.617 34.159 201.885 35.7548 202.655L65.6382 216.896L80.5861 224.017L88.0538 227.578L92.0433 229.488L97.7033 232.304C99.0497 232.974 100.321 233.284 101.443 233.483C102.603 233.644 103.476 233.88 104.685 233.595C105.869 233.334 107.066 232.528 107.764 231.548C108.126 231.051 108.325 230.555 108.462 230.034C108.612 229.525 108.749 229.004 108.874 228.409C109.111 227.255 109.285 225.928 109.235 224.476L109.086 220.172L109.011 218.063L108.936 216.549L108.786 213.584L105.445 200.645C105.869 203.573 106.268 206.538 106.63 209.54C106.804 211.041 106.979 212.542 107.153 214.068L107.403 216.351C107.49 217.157 107.565 217.765 107.64 218.807C107.789 220.73 107.964 222.764 108.063 224.836C108.063 225.841 108.026 226.821 107.914 227.702C107.864 228.161 107.802 228.583 107.727 228.992C107.652 229.414 107.602 229.811 107.428 230.22C107.091 231.039 106.405 231.796 105.57 232.267C104.735 232.751 103.775 232.937 103.002 232.838C101.506 232.639 99.698 232.329 97.6784 231.399C94.5741 229.898 91.4573 228.397 88.3406 226.883C85.8222 225.68 83.3039 224.439 80.7856 223.186C75.7489 220.68 70.7372 218.075 65.7628 215.395C55.8142 210.036 46.0151 204.367 36.5776 198.499C28.5364 193.499 20.6822 188.388 12.8653 183.277L9.87326 181.329L8.26502 180.275C7.75387 179.902 7.21779 179.617 6.81884 179.133C6.4199 178.662 6.17056 178.054 6.12069 177.434C6.09576 176.813 6.17056 176.181 6.20796 175.56L6.51964 171.987C6.90611 167.348 7.30506 162.708 7.704 158.056C9.17511 139.745 10.8956 121.186 11.6062 102.379C12.4165 81.1772 10.8831 61.576 8.05308 42.4959C7.42973 38.3276 6.59444 34.0724 5.57214 30.7849C4.88646 28.5643 4.46258 28.6263 4.97373 32.0875L4.94879 32.1247Z" fill="black"/>
<path d="M155.784 0.638803C139.103 5.7748 121.823 9.55856 102.836 11.6799C84.41 13.7393 66.071 14.7814 48.0063 16.022C43.593 16.3073 39.2046 16.5926 34.8162 16.878L31.5249 17.0765L29.8793 17.1757L27.4357 17.399L16.9011 18.3915C14.9064 18.6024 13.4478 19.1234 12.1138 19.6321C11.5403 19.8926 10.892 20.1779 10.3933 20.4384C9.90712 20.6989 9.40844 20.9719 8.95963 21.2448C8.53575 21.5177 8.14928 21.7038 7.73786 22.1256C7.33892 22.5474 6.92751 23.1553 6.65323 23.8624C6.05482 25.2643 6.05482 27.0135 6.32909 27.9687C6.45376 28.4153 6.60337 28.7627 6.76544 29.1845L7.35139 30.5243C7.66306 31.033 7.875 31.5292 8.27395 32.075C8.69782 32.6333 9.07183 33.1916 9.73259 33.7746C10.917 34.9408 12.9615 36.0077 14.7443 37.1242C16.6268 38.2531 18.4969 39.3821 20.3794 40.4986L22.9102 42.0121L24.1694 42.7564L24.8426 43.1782L27.5479 44.8654C29.3556 45.9695 31.1758 47.086 32.996 48.2026C36.6488 50.4108 40.3516 52.5818 44.0792 54.7032C51.5469 58.9584 59.1269 63.0399 66.7816 66.9229C72.5912 69.8631 78.4008 72.6792 84.198 75.3464C87.0904 76.6862 89.9827 77.9764 92.8626 79.2418C94.3087 79.8621 95.7425 80.4824 97.1762 81.1027L99.3205 82.0207L100.393 82.4673C100.53 82.5169 100.841 82.6658 101.128 82.8023L101.976 83.1993C103.086 83.7079 104.22 84.0677 105.429 84.0553C106.614 84.0553 107.786 83.7327 108.933 83.4846C110.391 83.0876 111.837 82.6906 113.271 82.2936C116.138 81.4997 118.968 80.6809 121.761 79.8373C125.214 78.8076 128.518 77.5794 131.386 76.3637C131.672 76.2396 135.662 74.3539 133.891 74.7013L118.931 77.6539L111.451 79.1302L107.636 79.8745C106.938 79.9862 106.24 80.1971 105.529 80.1226C104.806 80.0606 104.183 79.7008 103.547 79.4031L51.4597 54.0085L40.3889 51.3909C48.7792 54.2566 58.0796 58.9212 66.7816 63.4865C76.0695 68.362 85.2826 73.5104 94.4708 78.5843L102.113 82.8147C102.936 83.2613 103.771 83.6335 104.694 83.8072C105.616 83.9808 106.526 83.9312 107.449 83.8072L111.538 83.2241L118.57 82.2192L132.632 80.2095L160.745 76.0783C181.977 72.8652 203.196 69.3916 224.065 65.2977C230.822 63.9331 237.48 62.5933 244.05 61.2659C246.157 60.782 247.715 60.0997 249.186 59.5539L251.318 58.7723C252.016 58.5118 252.702 57.7922 252.926 56.8618C253.176 55.9562 253.039 54.8893 252.478 54.1325C252.216 53.7355 251.842 53.4626 251.443 53.2269L250.246 52.5198C248.638 51.5769 246.867 50.6217 245.047 49.7533C243.202 48.8725 241.407 48.0661 239.736 47.3218L234.899 45.2004C231.645 43.7985 228.391 42.3967 225.15 40.9948C214.827 36.6032 204.243 32.0626 193.771 26.294C188.559 23.4282 183.286 20.2275 178.735 16.878C175.332 14.3844 170.582 10.1913 173.512 9.95554C174.571 9.8687 167.552 7.30071 167.241 7.18905C165.832 6.70523 163.949 6.04772 162.192 5.51428C161.306 5.25375 160.459 5.01804 159.723 4.85677C159.536 4.81955 159.362 4.78233 159.187 4.75752L159.062 4.73271H159H158.988L159.175 4.39775C158.651 5.32819 158.115 6.28343 157.566 7.2759L157.753 7.48679C157.89 7.62326 158.028 7.77213 158.165 7.921C158.751 8.51647 159.474 9.14917 160.272 9.81908C163.488 12.4739 168.064 15.5133 170.806 17.2253C179.795 22.8451 189.494 27.5345 198.757 31.7029C208.407 36.0449 217.907 39.8907 227.519 44.1087C230 45.2128 232.493 46.3293 234.986 47.4458L237.829 48.6492C238.851 49.0958 239.874 49.5548 240.908 50.0138C243.053 50.9939 245.384 52.0608 247.84 53.2765C249.087 53.9216 249.548 55.4972 249.024 56.5517C248.775 57.0851 248.301 57.4573 247.778 57.5937L246.144 57.9659C244.474 58.3257 242.791 58.673 241.108 59.0328C236.345 60.0129 230.785 61.0674 225.474 62.0474C220.126 63.0275 214.752 63.9827 209.367 64.9007C198.608 66.7368 187.786 68.4488 176.94 70.0988C155.26 73.3863 133.48 76.4009 111.85 79.5147L107.835 80.0854C107.087 80.1723 106.339 80.3459 105.591 80.2715C104.831 80.1971 104.17 79.7877 103.509 79.4403L96.3907 75.5077C94.0469 74.2299 91.7031 72.9645 89.3718 71.6867C84.6842 69.1683 79.9966 66.712 75.3215 64.3797C65.9588 59.7151 56.6335 55.5592 47.4203 52.4081C44.3784 51.366 41.324 50.4232 38.5937 49.8029C38.4192 49.7657 34.8037 49.0338 36.3496 49.7905L102.437 82.0207C103.273 82.4301 104.108 82.8023 105.043 82.9015C105.965 83.0132 106.863 82.8643 107.786 82.703L109.98 82.2812L111.85 81.9091L119.318 80.4328L131.448 75.2968C127.097 76.5994 122.634 77.8524 118.096 79.0433C115.827 79.614 113.533 80.1971 111.226 80.7801L109.494 81.2019L108.608 81.4128L107.449 81.6609C106.664 81.8098 105.878 81.9711 105.08 81.8718C104.282 81.785 103.559 81.4624 102.811 81.1151C99.9563 79.7877 97.0889 78.4603 94.209 77.1204C91.4413 75.8054 88.6737 74.4656 85.8935 73.0886C80.3582 70.3469 74.8228 67.4811 69.3498 64.5162C58.3788 58.5862 47.5949 52.2468 37.2348 45.6346C34.1056 43.6372 31.0138 41.6275 27.9344 39.6178C26.6129 38.7245 24.294 37.2855 22.4365 36.0945C20.5415 34.8663 18.6465 33.7002 17.0382 32.5465C15.5173 31.3803 14.3329 30.2886 13.1361 29.3334L12.226 28.6138C11.9143 28.3905 11.6276 28.1176 11.4156 27.7454C10.9793 27.0135 10.9668 25.959 11.3658 25.0906C11.7398 24.1974 12.6125 23.5523 13.56 23.4034C14.5074 23.2545 15.4799 23.1305 16.4772 23.0188C18.447 22.7831 20.5165 22.6218 22.4863 22.4978C26.1142 22.2621 29.7671 22.0264 33.4324 21.7907C51.4971 20.5377 69.836 19.4956 88.2622 17.4486C109.045 15.1288 127.907 10.7371 146.072 5.1421C150.049 3.91393 154.063 2.47486 157.105 0.986165C159.162 -0.0187028 159.037 -0.428094 155.746 0.58918L155.784 0.638803Z" fill="black"/>
<path d="M258.736 208.349C256.13 203.25 254.97 198.052 255.706 192.42C256.429 186.949 258.15 181.552 259.608 176.23C261.104 170.821 263.012 165.487 264.209 160.004C265.306 155.016 265.567 149.893 264.981 144.831C264.321 139.112 262.6 133.567 260.007 128.356C259.484 127.302 258.748 126.285 257.95 125.391C257.875 125.305 256.579 124.064 256.666 124.585C258.125 133.269 259.596 141.941 261.054 150.625C262.077 151.704 263.087 152.783 264.109 153.863C262.575 151.282 262.164 148.218 261.977 145.315C261.777 142.214 261.827 139.1 261.852 135.998C261.89 129.609 262.064 123.208 261.952 116.819C261.852 110.48 261.478 104.14 260.443 97.8755C259.421 91.685 257.564 85.8046 255.257 79.9367C253.961 76.6492 252.677 73.2624 252.502 69.7391C252.415 67.9775 252.602 66.1663 253.25 64.5039C253.736 63.2633 255.033 61.4273 256.691 62.1468C257.289 62.4073 256.055 60.2363 255.993 60.1371C255.419 59.2687 254.596 57.8172 253.537 57.3582C250.507 56.0432 249.273 60.6085 249.011 62.519C248.562 65.6452 249.286 68.8211 250.258 71.8109C251.255 74.9248 252.627 77.9146 253.711 81.0036C254.833 84.1919 255.706 87.4546 256.367 90.7545C259.01 104.091 258.349 117.737 258.249 131.235C258.199 138.293 257.825 145.538 261.603 151.903C262.164 152.833 262.812 153.763 263.585 154.557C263.635 154.607 264.745 155.649 264.657 155.141C263.199 146.456 261.728 137.785 260.269 129.101C259.159 127.848 258.037 126.595 256.928 125.342C261.59 134.708 262.812 145.402 260.606 155.513C259.409 160.996 257.489 166.331 256.005 171.739C254.534 177.062 252.814 182.458 252.103 187.929C251.293 194.095 252.826 199.789 255.656 205.334C256.28 206.55 257.115 207.778 258.137 208.734C258.823 209.379 259.247 209.354 258.736 208.349Z" fill="black"/>
<path d="M49.9668 203.498C47.5981 193.524 46.6755 183.364 47.6853 172.422C48.6578 161.802 50.6276 151.344 52.3355 141.01C54.0809 130.515 56.2377 120.169 57.6839 109.537C59.0054 99.8604 59.5041 89.8985 59.155 80.0359C59.0178 76.2149 58.756 72.4312 58.382 68.697C58.2823 67.7666 58.1826 66.8362 58.0703 65.9057L57.8958 64.5163C57.8709 64.2186 57.8335 64.2062 57.7961 64.1441L57.6963 63.958C57.4221 63.437 57.1104 62.7175 56.7863 61.7498C57.0979 61.3652 57.5592 60.931 58.2324 60.4348C58.594 60.0006 60.5762 59.219 61.9725 58.5367C63.8924 57.6311 65.7002 56.5394 67.2585 55.4353C67.4081 55.3236 69.5525 53.5992 68.5551 53.8845C63.1444 55.4229 57.0979 57.0976 52.8217 58.4251L53.096 62.1964L53.2332 63.9456L53.3703 65.9926L53.8939 74.4037L54.9536 91.2383L57.8584 97.6025C56.4372 92.5534 56.1754 86.5614 56.113 80.9167C56.0881 77.9021 56.113 74.8751 56.1878 71.8481C56.2626 69.1064 56.3374 66.3648 56.3998 63.6231L56.4746 61.5017L68.605 59.2562C73.9034 58.2514 79.2019 57.2341 84.5004 56.1672C96.6433 53.7109 108.761 51.0064 120.592 47.6692C132.286 44.3693 143.22 40.3746 154.054 35.9458C160.125 33.4646 166.371 30.9462 173.116 29.47C176.469 28.738 179.998 28.2294 183.314 28.2542C185.782 28.279 189.56 28.8621 188.488 30.7354C188.101 31.4177 192.041 29.3955 192.215 29.3087C193.761 28.4279 196.404 27.0881 197.077 25.8847C199.022 22.4359 190.034 22.9321 186.306 23.3787C180.21 24.1107 174.263 25.9963 168.703 28.0433C162.918 30.1771 157.42 32.621 151.71 34.8293C145.801 37.1119 139.704 39.1713 133.483 41.0446C120.929 44.8159 108.063 47.7933 95.0974 50.4605C88.6145 51.788 82.1067 53.0409 75.599 54.2567C69.2034 55.4477 62.8078 56.651 56.4372 57.842C55.2653 58.0653 54.0809 58.2886 52.8965 58.4995L52.7843 62.4942C52.7594 63.958 52.7345 65.4219 52.7095 66.8734C52.6846 69.9624 52.7095 73.0391 52.8591 76.0909C53.1459 82.1697 53.8565 88.1121 55.4398 93.7195C55.951 95.5556 56.5618 97.3668 57.2974 98.9299C57.3473 99.0292 58.407 101.076 58.3446 100.084L57.0107 78.8698L56.3499 68.2628L56.1878 65.608L56.1006 64.2806L56.0008 63.6355C55.8637 62.7795 55.739 61.8366 55.6144 60.7822L57.5841 60.0378L58.7062 59.6408C58.8433 59.5912 59.2672 59.4671 59.5789 59.3803L60.5887 59.095L67.1713 54.4428C64.8025 55.5593 62.3839 56.6138 59.903 57.6063C59.3171 57.8544 58.569 58.1149 58.1701 58.3134L56.8611 58.9213C56.1255 59.2686 55.3775 59.6284 54.6295 59.9882C54.8165 61.1543 55.0159 62.3329 55.2154 63.5114L55.3401 64.293L55.4398 65.6328L55.6019 68.3249C55.7889 71.9101 55.8637 75.5326 55.8263 79.1427C55.7515 86.3877 55.2279 93.6327 54.2554 100.729C52.7968 111.361 50.64 121.707 48.9071 132.202C47.1991 142.524 45.2293 152.994 44.2569 163.614C43.1598 175.585 44.4315 186.713 46.9997 197.581C47.5607 199.963 48.3461 202.382 49.3185 204.267C49.9793 205.545 50.4031 205.508 49.9294 203.548L49.9668 203.498Z" fill="#E02D14"/>
<path d="M176.478 75.4209C178.947 76.649 181.029 78.5968 182.55 80.8918C184.071 83.1993 185.056 85.8417 185.505 88.6702C186.34 94.1412 186.215 99.8354 186.016 105.282C185.804 110.815 184.794 116.186 183.859 121.111C183.011 125.565 182.425 130.13 182.5 135.117C182.537 137.909 182.812 140.837 183.335 143.591C183.859 146.37 184.582 149.074 185.43 151.791C185.766 152.883 186.315 153.999 186.913 155.016C186.976 155.116 187.986 156.604 188.01 156.058C188.21 151.63 188.048 147.263 187.811 142.883C187.562 138.492 187.35 134.075 186.901 129.845C185.953 128.741 184.993 127.662 184.009 126.644C185.467 129.076 185.642 132.09 185.542 134.931C185.43 137.971 185.031 141.109 184.657 144.136C184.258 147.263 183.784 150.315 183.173 153.28C182.874 154.756 182.525 156.22 182.151 157.659C181.777 159.085 181.253 160.673 180.829 162.174C180.393 163.688 179.969 165.201 179.57 166.727C179.171 168.241 178.81 169.965 178.536 171.59C177.975 174.878 177.75 178.203 177.8 181.478C177.975 187.966 179.52 194.033 181.814 199.851C183.074 203.126 184.457 206.413 184.757 209.887C184.906 211.624 184.806 213.423 184.233 215.11C183.797 216.363 182.612 218.261 180.917 217.628C180.306 217.405 181.652 219.514 181.727 219.601C182.338 220.432 183.248 221.846 184.333 222.231C187.425 223.372 188.397 218.745 188.571 216.847C188.846 213.72 187.986 210.656 186.938 207.766C185.829 204.751 184.457 201.848 183.373 198.796C182.288 195.645 181.528 192.383 181.116 189.058C180.717 185.696 180.642 182.297 180.892 178.885C181.166 175.486 181.727 172.087 182.612 168.762C183.51 165.499 184.545 162.261 185.554 159.036C186.452 155.835 187.125 152.548 187.636 149.248C188.173 145.786 188.659 142.251 188.671 138.728C188.671 135.229 188.173 131.743 186.452 128.58C185.941 127.662 185.33 126.756 184.582 126.012C184.532 125.962 183.448 124.994 183.522 125.453C184.183 129.398 184.507 133.641 184.757 138.008C185.006 142.412 185.293 146.729 185.33 151.009C186.228 152.399 187.1 153.801 187.936 155.264C186.602 150.203 185.704 145.253 185.654 140.092C185.604 134.919 186.415 129.969 187.587 125.18C188.871 120.02 190.167 114.561 190.541 108.879C190.928 103.321 191.102 97.5032 190.279 92.0198C189.818 88.9556 188.821 86.0526 187.213 83.3358C185.617 80.6437 183.41 78.175 180.742 76.3389C179.57 75.5449 178.186 74.9122 176.803 74.7758C175.88 74.6765 175.556 74.9495 176.528 75.4209H176.478Z" fill="#E02D14"/>
<path d="M170.797 68.4489C166.633 68.1015 163.629 67.4316 161.11 64.9877C158.704 62.643 156.597 59.5167 154.665 56.589C153.68 55.1127 152.832 53.5372 152.109 52.0112C151.374 50.4977 150.75 48.9718 149.99 47.5203C148.631 44.9027 146.649 42.6077 143.918 40.846C140.877 38.8859 137.174 37.8066 133.06 37.5585C132.224 37.5089 131.264 37.6329 130.329 37.8438C130.242 37.8687 128.796 38.3029 129.095 38.4641C134.02 40.9453 138.944 43.5133 143.806 46.1309C144.978 45.8456 146.15 45.5602 147.31 45.2501C145.153 45.3369 143.507 44.3197 142.061 43.2279C140.527 42.0618 139.169 40.7096 137.772 39.3946C134.905 36.6901 132.087 33.9112 129.083 31.368C126.103 28.8496 122.937 26.5298 119.358 24.7681C115.83 23.0313 111.891 22.0513 107.664 21.4186C105.296 21.0588 102.89 20.6742 101.144 19.384C100.272 18.7389 99.5484 17.8705 99.2243 16.7168C98.9749 15.8484 98.9749 14.1488 100.396 13.1936C100.907 12.8462 99.0871 12.9082 98.9999 12.9082C98.2269 12.9827 97.0052 13.0199 96.1075 13.6278C93.5144 15.3646 94.7985 18.1186 95.5091 19.0987C96.6685 20.6866 98.6009 21.4186 100.621 21.9024C102.715 22.3986 104.997 22.5847 107.141 23.0065C109.36 23.4407 111.442 24.0982 113.387 24.9418C121.278 28.341 127.138 34.3702 133.172 40.0397C136.326 42.9922 139.331 46.3294 144.741 46.255C145.539 46.2426 146.387 46.1433 147.247 45.8952C147.31 45.8828 148.494 45.4734 148.22 45.3369C145.888 44.1832 143.407 42.8062 140.951 41.5035L133.558 37.6578L129.594 38.5634C133.284 38.7743 136.563 39.7791 139.293 41.4787C142.024 43.1783 144.18 45.6099 145.626 48.4384C147.197 51.515 148.369 54.9886 150.389 58.1025C152.334 61.1543 154.466 64.3426 156.909 66.6253C159.677 69.2305 163.018 69.5158 167.332 69.4662C168.291 69.4414 169.376 69.3421 170.536 69.0196C171.321 68.8087 171.608 68.4985 170.772 68.4241L170.797 68.4489Z" fill="#E02D14"/>
<path d="M135.404 36.7519C135.404 36.7519 127.338 6.3453 146.014 15.2154C164.689 24.0856 161.772 31.529 147.074 36.7519C132.375 41.9747 135.404 36.7519 135.404 36.7519Z" fill="#E73923"/>
<path d="M135.691 36.2308C134.431 33.7496 133.634 31.008 133.521 27.9809C133.434 25.0532 133.796 22.0758 134.743 19.4706C135.229 18.168 135.915 16.9522 136.825 16.2327C137.735 15.5007 138.72 15.3022 139.817 15.4015C140.814 15.5007 141.912 15.7613 143.034 16.2079C144.156 16.6048 145.29 17.1383 146.537 17.6717C149.267 18.8751 151.96 19.9172 154.453 21.1205C154.977 21.3563 155.463 21.592 155.962 21.7532C156.012 21.7656 156.697 22.0138 156.486 21.8277C154.703 20.3018 152.658 19.1604 150.601 18.1432C148.532 17.1507 146.35 16.2203 144.23 15.5379C143.632 15.5504 143.034 15.662 142.473 15.7364C143.769 15.7364 145.24 16.2327 146.637 16.8902C148.12 17.5725 149.566 18.3541 150.925 19.2101C152.334 20.0909 153.693 21.0461 154.877 22.1254C156.074 23.1923 157.084 24.4205 157.583 25.7107C158.056 26.9885 157.869 28.2663 157.084 29.4944C156.311 30.7102 155.077 31.7771 153.793 32.7448C151.212 34.6428 148.407 36.1936 145.589 37.7319C144.019 38.6003 142.323 39.4315 140.391 39.8781C139.418 40.0766 138.383 40.213 137.361 40.0145C137.174 39.9773 136.962 39.9401 136.763 39.8657C136.551 39.7788 136.364 39.6796 136.214 39.5679C135.915 39.3819 135.84 39.0841 136.102 38.9849C136.189 38.9352 135.94 38.8856 135.641 38.8112C135.504 38.7368 135.354 38.6623 135.229 38.5879C135.117 38.501 135.055 38.4142 135.042 38.4018C134.793 38.2033 134.668 37.7939 134.593 37.4093C134.544 37.0372 134.544 36.6898 134.506 36.4789C134.456 36.1439 134.319 36.0695 134.07 36.2556C133.845 36.4169 133.571 36.7642 133.409 37.4093C133.384 37.583 133.347 37.7567 133.347 37.9552C133.347 38.1661 133.384 38.4018 133.434 38.6251C133.546 39.0469 133.821 39.6052 134.132 39.8781C134.294 40.0394 134.456 40.1882 134.631 40.3247C134.793 40.4363 134.93 40.4984 135.067 40.5728C135.354 40.7093 135.653 40.8457 135.815 40.8705C136.127 40.945 136.464 41.0194 136.75 41.0566L137.573 41.0814C138.122 41.0814 138.57 40.9822 139.057 40.9202C139.979 40.7217 140.839 40.4736 141.625 40.1386C143.283 39.4935 144.729 38.6747 146.225 37.8808C147.771 37.0744 149.354 36.2432 150.9 35.3624C152.459 34.4692 154.005 33.5139 155.388 32.385C156.76 31.2685 158.031 29.9162 158.493 28.2663C158.979 26.6163 158.368 24.8547 157.321 23.4652C156.286 22.0386 154.902 20.8724 153.456 19.8179C151.948 18.7262 150.302 17.7214 148.619 16.9274C146.948 16.1334 145.165 15.5131 143.507 15.4015C143.021 15.4015 142.535 15.3767 142.124 15.4883C142.099 15.4883 141.563 15.662 141.799 15.6868C143.769 15.9473 145.889 16.8281 148.008 17.7214C150.102 18.627 152.159 19.6319 154.042 20.8848C154.728 21.0585 155.401 21.2942 156.087 21.5423C153.855 20.2397 151.474 19.148 149.055 17.9695C147.846 17.3864 146.624 16.7909 145.415 16.183C144.23 15.6248 143.059 15.0293 141.849 14.6695C140.553 14.2353 139.206 13.9748 137.872 14.3098C136.538 14.6199 135.329 15.6372 134.556 16.915C133.01 19.4706 132.474 22.572 132.387 25.5618C132.337 28.9734 133.21 32.0252 134.519 34.7917C134.805 35.3996 135.154 35.9951 135.528 36.4293C135.778 36.7146 135.878 36.6774 135.628 36.1936L135.691 36.2308Z" fill="black"/>
<path d="M133.666 37.5957C133.666 37.5957 96.3521 18.59 108.445 37.5957C120.538 56.6014 133.267 49.3192 135.823 40.4987C138.378 31.6781 133.666 37.5957 133.666 37.5957Z" fill="#E73923"/>
<path d="M133.456 37.0374C130.7 36.3923 128.057 35.4866 125.352 34.1344C122.722 32.8194 120.178 31.3679 117.535 30.1274C116.189 29.5071 114.83 28.8992 113.396 28.3781C111.95 27.8819 110.467 27.4105 108.609 27.4229C107.774 27.4601 106.776 27.5594 105.717 28.2789C105.181 28.6263 104.732 29.1845 104.445 29.7676C104.146 30.3755 104.046 30.9709 104.009 31.5168C103.959 32.6085 104.196 33.4521 104.47 34.2337C104.744 35.0028 105.081 35.6975 105.455 36.3426C106.29 37.8189 107.312 39.0223 108.36 40.1512C108.896 40.7095 109.394 41.2801 109.955 41.7764C110.541 42.2602 111.127 42.7316 111.713 43.1658C112.187 43.5132 112.661 43.8357 113.172 44.0094C113.222 44.0342 113.932 44.2575 113.708 44.0839C111.938 42.5704 110.317 40.8459 108.871 38.9851C108.11 38.0795 107.387 37.1366 106.739 36.1193C106.103 35.1021 105.492 34.0352 105.131 32.7202C104.769 32.1123 104.408 31.3555 104.47 30.2886C104.295 31.5168 104.595 32.4969 104.894 33.3653C105.205 34.2337 105.592 35.0152 105.978 35.7472C106.402 36.5287 106.839 37.2731 107.3 38.005C107.774 38.7246 108.272 39.4193 108.746 40.1264C109.694 41.6151 110.903 42.9301 112.037 44.2948L113.982 46.1556C114.606 46.8007 115.416 47.2721 116.139 47.818C117.623 48.8477 119.306 49.6416 121.101 50.1131C121.525 50.2743 122.011 50.2743 122.472 50.3488C122.934 50.3984 123.395 50.4852 123.856 50.4852C124.779 50.3984 125.714 50.448 126.586 50.1379C128.357 49.7657 129.853 48.7484 131.087 47.6939C131.648 47.0736 132.246 46.5278 132.658 45.8331C132.87 45.4981 133.119 45.188 133.294 44.8282C133.456 44.4808 133.618 44.1211 133.792 43.7613C134.453 42.1237 134.752 40.5358 135.114 38.7122C135.288 37.8686 135.525 36.8761 135.613 36.3675C135.613 36.3178 135.637 36.293 135.65 36.293C135.737 36.2558 135.824 36.2062 135.912 36.169C135.974 36.1318 136.049 36.0573 136.049 36.0573C136.074 36.0325 136.086 35.9953 136.074 36.0325V36.1318C136.074 36.1318 136.074 36.231 136.074 36.3178L136.049 36.2682C135.887 36.169 135.625 36.1069 135.7 35.834C135.725 35.7348 135.513 35.8712 135.326 36.0945C135.139 36.3054 134.977 36.566 134.964 36.5908C134.727 36.9878 134.378 37.6949 134.441 38.0422C134.553 38.5137 134.977 38.3896 135.5 38.0919C135.762 37.9306 136.024 37.7941 136.248 37.6577C136.361 37.608 136.448 37.5584 136.498 37.546H136.523L136.435 37.3847C136.311 37.087 136.211 36.9133 136.149 36.7148C136.049 36.4171 136.024 36.2062 136.061 36.0945C136.061 36.0201 136.099 36.0449 135.962 36.1566C135.849 36.231 135.563 36.3923 135.251 36.4419C135.051 36.5039 134.852 36.5411 134.653 36.566C134.615 36.566 134.528 36.5784 134.528 36.566V36.5908C134.528 36.7024 134.553 37.0374 134.528 37.3723C134.49 38.0671 134.391 38.8486 134.303 39.6178C134.104 41.1189 133.892 42.5952 133.156 44.0094C132.845 44.7786 132.321 45.4113 131.835 46.1184C131.249 46.7139 130.676 47.3962 129.928 47.8552C127.085 50.0883 122.846 50.1751 119.455 48.7112C116.052 47.1729 113.272 44.5677 111.052 41.6895C110.404 40.9824 109.918 40.1512 109.357 39.3821C108.821 38.5881 108.222 37.8437 107.711 37.0498C107.188 36.2558 106.664 35.4742 106.178 34.6555C105.692 33.8367 105.218 33.0055 104.919 31.9262C104.744 31.3059 104.682 30.5243 104.869 29.7428C104.869 29.718 104.944 29.4698 105.006 29.2465C105.068 29.0481 105.118 28.8992 104.956 29.1101C104.308 30.0653 104.208 31.1694 104.295 31.9634C104.383 32.7822 104.607 33.4769 104.869 34.0972C105.392 35.3502 106.066 36.3923 106.764 37.4095C107.45 38.4144 108.26 39.3076 108.995 40.2505C109.382 40.7095 109.731 41.1933 110.142 41.6151L111.402 42.8929C112.075 43.2154 112.661 43.6124 113.384 43.8481C112.287 43.1658 111.302 42.2602 110.267 41.3546C109.332 40.3745 108.447 39.2952 107.574 38.1911C106.751 37.0498 106.003 35.7968 105.492 34.3825C105.243 33.663 105.031 32.9062 105.006 32.0627C104.981 31.2439 105.205 30.177 105.953 29.4947C106.751 28.7503 107.699 28.6138 108.484 28.589C109.295 28.589 110.043 28.7007 110.778 28.8744C112.237 29.2093 113.596 29.7428 114.942 30.2886C117.598 31.3927 120.141 32.7822 122.771 34.0228C125.739 35.437 128.656 36.3426 131.648 36.9878C132.296 37.1366 132.994 37.2359 133.568 37.2359C133.954 37.2359 133.992 37.1366 133.456 37.0126V37.0374Z" fill="black"/>
<path d="M135.499 33.7252C133.779 34.4819 132.345 35.8342 131.485 37.4965C131.398 37.6702 131.31 37.8687 131.373 38.0548C131.41 38.1913 131.522 38.2905 131.622 38.3898C132.732 39.4318 133.841 40.4863 134.951 41.5284C135.001 41.578 135.063 41.6277 135.125 41.6401C135.225 41.6525 135.312 41.6029 135.387 41.5532C136.945 40.5236 137.93 38.8488 138.865 37.236C138.903 37.174 138.94 37.112 138.928 37.0375C138.928 36.9507 138.865 36.8887 138.815 36.8266C137.756 35.6109 136.634 34.4571 135.437 33.3654" fill="#931914"/>
<path d="M135.158 33.4274C133.724 34.0725 132.44 34.9905 131.48 36.2311C131.256 36.5164 131.056 36.8142 130.869 37.1243C130.682 37.4345 130.396 37.8315 130.458 38.216C130.508 38.5634 130.894 38.8239 131.131 39.0472C131.493 39.3822 131.842 39.7171 132.203 40.0521C132.515 40.3498 132.839 40.6476 133.151 40.9453C133.462 41.243 133.812 41.6524 134.186 41.913C134.609 42.1983 135.27 42.0494 135.707 41.8633C136.143 41.6773 136.504 41.3671 136.841 41.0694C138.013 40.0397 138.823 38.7123 139.609 37.3724C139.708 37.2112 139.846 37.0251 139.846 36.839C139.846 36.6529 139.696 36.504 139.571 36.3552C139.235 35.9582 138.886 35.5736 138.524 35.2014C137.813 34.4447 137.065 33.7127 136.305 33.018C135.894 32.6458 134.21 33.3158 134.622 33.6879C135.308 34.3206 135.981 34.9781 136.629 35.648C136.953 35.983 137.265 36.3304 137.577 36.6777C137.689 36.8018 138.038 37.0871 138.025 37.2608C138.025 37.3973 137.801 37.6454 137.739 37.757C137.327 38.4517 136.903 39.1341 136.417 39.7792C135.956 40.3746 135.395 41.0322 134.722 41.4043L135.407 41.181H135.27C135.47 41.2058 135.657 41.2182 135.856 41.2306C135.669 41.1438 135.47 40.8709 135.32 40.7344C135.146 40.5607 134.959 40.3995 134.784 40.2258C134.422 39.8908 134.073 39.5559 133.712 39.2209C133.338 38.8611 132.951 38.5138 132.577 38.154C132.44 38.0175 132.278 37.9183 132.266 37.7198C132.253 37.5213 132.428 37.2608 132.527 37.0871C133.275 35.7845 134.447 34.6432 135.831 34.0353C136.031 33.9484 136.579 33.7003 136.342 33.4026C136.13 33.1421 135.395 33.3282 135.158 33.4398V33.4274Z" fill="black"/>
<path d="M134.988 41.3672C135.948 41.9379 136.596 42.583 136.908 43.5383C137.207 44.4563 137.307 45.486 137.456 46.466C137.606 47.4709 137.656 48.5006 137.805 49.4434C137.943 50.2994 138.242 51.0562 138.666 51.7509C139.152 52.52 139.813 53.2148 140.636 53.9343C140.798 54.0832 141.022 54.2072 141.246 54.3189C141.271 54.3189 141.633 54.4801 141.583 54.3933C140.922 52.9666 140.137 51.664 139.189 50.4979L138.279 50.3366C138.803 50.5475 139.115 50.9817 139.326 51.4035C139.563 51.8625 139.725 52.334 139.863 52.8302C140.149 53.835 140.324 54.8895 140.511 55.944C140.685 56.9861 140.922 58.0778 141.209 59.0703C141.496 60.0503 141.807 61.0428 141.895 62.2834C141.957 62.9657 141.945 63.6728 141.708 64.2311C141.583 64.5164 141.408 64.7521 141.147 64.9258C140.947 65.0499 140.536 65.1987 140.199 64.9258C140.074 64.8266 140.212 65.298 140.237 65.3104C140.311 65.4965 140.436 65.7942 140.66 65.9307C141.334 66.3153 141.807 65.8438 141.982 65.6329C142.256 65.2732 142.343 64.7397 142.368 64.1567C142.406 63.5488 142.368 62.8789 142.331 62.2462C142.306 61.5763 142.256 60.9187 142.169 60.3109C141.994 59.0951 141.72 57.991 141.546 56.8124C141.359 55.6587 141.221 54.4926 140.947 53.3636C140.673 52.1975 140.299 50.9445 138.99 50.3738C138.803 50.287 138.591 50.225 138.354 50.1877C138.342 50.1877 138.017 50.1505 138.067 50.2126C139.027 51.3291 139.85 52.4828 140.548 53.835C140.872 53.9715 141.184 54.1328 141.508 54.2817C140.037 52.8922 139.239 51.4904 138.965 49.7163C138.828 48.7487 138.79 47.7066 138.641 46.7017C138.491 45.7093 138.379 44.6796 138.08 43.774C137.731 42.7567 136.958 42.1116 135.911 41.5409C135.686 41.4169 135.412 41.3052 135.1 41.2432C134.901 41.206 134.801 41.2432 134.988 41.3672Z" fill="black"/>
<path d="M136.182 41.0569C137.416 41.0941 138.463 41.4414 139.324 42.2354C140.159 43.0046 140.845 43.9722 141.543 44.8778C142.253 45.7959 142.902 46.8007 143.675 47.6691C144.373 48.4507 145.221 49.1082 146.255 49.5548C147.402 50.0511 148.761 50.2619 150.058 50.0262C150.32 49.9766 150.581 49.8774 150.818 49.7409C150.843 49.7285 151.18 49.4928 151.068 49.4804C149.26 49.3563 147.452 48.7484 145.732 48.0785L144.747 48.3515C145.408 48.3266 146.006 48.5872 146.554 48.8725C147.178 49.1951 147.739 49.5052 148.337 49.8153C149.584 50.448 150.993 50.9443 152.402 51.1304C153.798 51.3164 155.182 51.2544 156.478 50.9567C157.762 50.6589 158.959 50.1379 160.069 49.4432C160.692 49.0462 161.278 48.6244 161.914 48.4383C162.226 48.3391 162.562 48.2894 162.899 48.3391C163.148 48.3887 163.597 48.5499 163.622 48.9842C163.622 49.1454 163.921 48.6864 163.921 48.6616C164.021 48.4631 164.183 48.153 164.133 47.88C163.971 47.1233 163.161 47.1853 162.849 47.2225C162.338 47.297 161.889 47.6195 161.403 47.9669C160.904 48.3266 160.38 48.7484 159.807 49.071C159.208 49.4184 158.56 49.6789 157.887 49.8774C155.232 50.6837 152.227 50.5473 149.621 49.4059C148.25 48.8353 147.041 47.9793 145.408 48.0537C145.171 48.0537 144.921 48.0909 144.672 48.1654C144.66 48.1654 144.323 48.277 144.423 48.3266C146.118 49.009 147.951 49.7409 149.858 50.051C150.207 49.8898 150.556 49.7037 150.881 49.5176C149.796 49.8029 148.612 49.6913 147.577 49.2943C146.53 48.8973 145.644 48.2398 144.921 47.4458C144.148 46.5774 143.513 45.585 142.789 44.6545C142.079 43.7489 141.406 42.7813 140.57 42.0121C139.635 41.1437 138.451 40.8212 137.105 40.7839C136.818 40.7839 136.481 40.8087 136.182 40.908C135.97 40.9824 135.92 41.0693 136.169 41.0693L136.182 41.0569Z" fill="black"/>
</svg>
