<svg width="40" height="40" viewBox="0 0 40 40" fill="none" xmlns="http://www.w3.org/2000/svg">
<path d="M19.8605 37.6475L20.2236 22.6396" stroke="white" stroke-width="1.13529" stroke-miterlimit="10"/>
<path d="M17.2465 31.6239L20.0711 28.9695L22.7709 31.7859" stroke="white" stroke-width="1.13529" stroke-miterlimit="10"/>
<path d="M18.4834 34.9196L19.9681 33.5324L21.372 34.9969" stroke="white" stroke-width="1.13529" stroke-miterlimit="10"/>
<path d="M16.0449 28.3332L20.1924 24.4581L24.1575 28.5783" stroke="white" stroke-width="1.13529" stroke-miterlimit="10"/>
<path d="M19.8314 38.8405C20.5477 38.8636 21.1415 38.3072 21.1576 37.5979C21.1737 36.8885 20.6061 36.2948 19.8898 36.2717C19.1735 36.2486 18.5797 36.8049 18.5636 37.5143C18.5474 38.2236 19.1151 38.8174 19.8314 38.8405Z" fill="white"/>
<path d="M7.47952 32.0997L18.3651 21.8704" stroke="white" stroke-width="1.13529" stroke-miterlimit="10"/>
<path d="M9.86279 26.0618L13.7855 26.1883L13.6976 30.057" stroke="white" stroke-width="1.13529" stroke-miterlimit="10"/>
<path d="M8.43164 29.2529L10.472 29.3188L10.442 31.3397" stroke="white" stroke-width="1.13529" stroke-miterlimit="10"/>
<path d="M11.3286 22.8872L17.0704 23.0725L16.9412 28.7582" stroke="white" stroke-width="1.13529" stroke-miterlimit="10"/>
<path d="M7.51407 33.3804C8.23041 33.4035 8.82418 32.8472 8.84029 32.1378C8.85641 31.4285 8.28877 30.8347 7.57243 30.8116C6.8561 30.7885 6.26233 31.3448 6.24621 32.0541C6.2301 32.7635 6.79774 33.3573 7.51407 33.3804Z" fill="white"/>
<path d="M2.62087 19.5119L17.613 19.8962" stroke="white" stroke-width="1.13529" stroke-miterlimit="10"/>
<path d="M8.59375 16.9073L11.3266 19.7456L8.4844 22.4044" stroke="white" stroke-width="1.13529" stroke-miterlimit="10"/>
<path d="M5.32568 18.1396L6.7544 19.6158L5.27609 21.0141" stroke="white" stroke-width="1.13529" stroke-miterlimit="10"/>
<path d="M11.8618 15.7019L15.8524 19.8536L11.6941 23.7589" stroke="white" stroke-width="1.13529" stroke-miterlimit="10"/>
<path d="M2.6707 20.8058C3.38701 20.8289 3.98078 20.2726 3.99692 19.5632C4.01306 18.8538 3.44545 18.2601 2.72913 18.237C2.01282 18.2139 1.41905 18.7702 1.40291 19.4796C1.38678 20.189 1.95438 20.7828 2.6707 20.8058Z" fill="white"/>
<path d="M8.05664 7.14502L18.4939 18.0306" stroke="white" stroke-width="1.13529" stroke-miterlimit="10"/>
<path d="M14.1995 9.56905L14.1112 13.4536L10.2042 13.3275" stroke="white" stroke-width="1.13529" stroke-miterlimit="10"/>
<path d="M11.0063 8.11454L10.9604 10.1351L8.91992 10.0692" stroke="white" stroke-width="1.13529" stroke-miterlimit="10"/>
<path d="M17.3726 11.0489L17.2435 16.7346L11.5017 16.5494" stroke="white" stroke-width="1.13529" stroke-miterlimit="10"/>
<path d="M8.13565 8.49268C8.85199 8.51579 9.44576 7.95949 9.46188 7.25015C9.47799 6.54081 8.91035 5.94704 8.19401 5.92393C7.47768 5.90082 6.88391 6.45711 6.86779 7.16645C6.85168 7.8758 7.41932 8.46956 8.13565 8.49268Z" fill="white"/>
<path d="M20.7407 2.2854L20.378 17.2775" stroke="white" stroke-width="1.13529" stroke-miterlimit="10"/>
<path d="M23.356 8.30854L20.5315 10.9629L17.8317 8.14657" stroke="white" stroke-width="1.13529" stroke-miterlimit="10"/>
<path d="M22.1251 5.01716L20.6561 6.4049L19.2365 4.9399" stroke="white" stroke-width="1.13529" stroke-miterlimit="10"/>
<path d="M24.5643 11.6011L20.4326 15.4767L16.4674 11.3564" stroke="white" stroke-width="1.13529" stroke-miterlimit="10"/>
<path d="M20.7142 3.64933C21.4305 3.67242 22.0243 3.11609 22.0404 2.40672C22.0565 1.69736 21.4889 1.10359 20.7726 1.0805C20.0563 1.05741 19.4625 1.61375 19.4464 2.32311C19.4302 3.03247 19.9979 3.62624 20.7142 3.64933Z" fill="white"/>
<path d="M33.1278 7.82014L22.2422 18.0494" stroke="white" stroke-width="1.13529" stroke-miterlimit="10"/>
<path d="M30.741 13.8629L26.8184 13.7364L26.9062 9.86768" stroke="white" stroke-width="1.13529" stroke-miterlimit="10"/>
<path d="M32.1772 10.6691L30.1367 10.6033L30.1826 8.58276" stroke="white" stroke-width="1.13529" stroke-miterlimit="10"/>
<path d="M29.2776 17.0354L23.5359 16.8501L23.665 11.1644" stroke="white" stroke-width="1.13529" stroke-miterlimit="10"/>
<path d="M33.038 9.10901C33.7543 9.13212 34.3481 8.57582 34.3642 7.86648C34.3803 7.15714 33.8127 6.56337 33.0964 6.54026C32.38 6.51715 31.7863 7.07345 31.7701 7.78279C31.754 8.49213 32.3217 9.0859 33.038 9.10901Z" fill="white"/>
<path d="M37.9905 20.4179L22.9827 20.0331" stroke="white" stroke-width="1.13529" stroke-miterlimit="10"/>
<path d="M32.0203 23.0206L29.2875 20.1824L32.1297 17.5235" stroke="white" stroke-width="1.13529" stroke-miterlimit="10"/>
<path d="M35.2908 21.7857L33.8621 20.3096L35.3404 18.9112" stroke="white" stroke-width="1.13529" stroke-miterlimit="10"/>
<path d="M28.7511 24.2247L24.7606 20.073L28.9188 16.1677" stroke="white" stroke-width="1.13529" stroke-miterlimit="10"/>
<path d="M37.8685 21.6913C38.5848 21.7144 39.1785 21.1581 39.1947 20.4487C39.2108 19.7393 38.6432 19.1456 37.9269 19.1225C37.2106 19.0994 36.6168 19.6557 36.6007 20.3651C36.5845 21.0745 37.1521 21.6683 37.8685 21.6913Z" fill="white"/>
<path d="M32.5486 32.7982L22.1113 21.9126" stroke="white" stroke-width="1.13529" stroke-miterlimit="10"/>
<path d="M26.4064 30.3738L26.4946 26.4893L30.4016 26.6153" stroke="white" stroke-width="1.13529" stroke-miterlimit="10"/>
<path d="M29.5968 31.8268L29.6427 29.8062L31.6836 29.8564" stroke="white" stroke-width="1.13529" stroke-miterlimit="10"/>
<path d="M23.2446 28.8914L23.3579 23.2052L29.0997 23.3904" stroke="white" stroke-width="1.13529" stroke-miterlimit="10"/>
<path d="M32.4115 34.0179C33.1279 34.0411 33.7216 33.4848 33.7378 32.7754C33.7539 32.0661 33.1862 31.4723 32.4699 31.4492C31.7536 31.4261 31.1598 31.9824 31.1437 32.6917C31.1276 33.4011 31.6952 33.9948 32.4115 34.0179Z" fill="white"/>
</svg>
