<svg width="64" height="64" viewBox="0 0 64 64" fill="none" xmlns="http://www.w3.org/2000/svg">
<g clip-path="url(#clip0_199_149813)">
<path d="M43.9908 19.981L31.8843 32.1296" stroke="white" stroke-miterlimit="10"/>
<path d="M42.9281 24.7457L39.2467 24.7457L39.2467 21.0643" stroke="white" stroke-miterlimit="10"/>
<path d="M41.6226 27.7751L36.2267 27.7856L36.2057 22.3792" stroke="white" stroke-miterlimit="10"/>
<path d="M46.0092 21.6218L40.5607 23.4309L42.3804 17.993L47.8183 16.1733L46.0092 21.6218Z" fill="white"/>
<path d="M48.3779 36.1054L31.8116 31.6982" stroke="white" stroke-miterlimit="10"/>
<path d="M43.7163 37.5674L41.8756 34.3803L45.0626 32.5396" stroke="white" stroke-miterlimit="10"/>
<path d="M40.4585 37.946L37.7448 33.2759L42.4149 30.5622" stroke="white" stroke-miterlimit="10"/>
<path d="M47.9784 38.6718L43.6869 34.8641L49.3037 33.7071L53.5951 37.5147L47.9784 38.6718Z" fill="white"/>
<path d="M36.6069 47.9596L32.1472 31.4038" stroke="white" stroke-miterlimit="10"/>
<path d="M33.0228 44.6674L34.853 41.4698L38.0401 43.3105" stroke="white" stroke-miterlimit="10"/>
<path d="M31.0537 42.0272L33.7358 37.3465L38.4165 40.0287" stroke="white" stroke-miterlimit="10"/>
<path d="M34.1782 48.8957L35.3352 43.2789L39.1429 47.5704L37.9858 53.1871L34.1782 48.8957Z" fill="white"/>
<path d="M20.4507 43.7101L32.5572 31.5615" stroke="white" stroke-miterlimit="10"/>
<path d="M21.5115 38.9453L25.1824 38.9348L25.2034 42.6162" stroke="white" stroke-miterlimit="10"/>
<path d="M22.8165 35.9161L28.2124 35.9056L28.2229 41.3015" stroke="white" stroke-miterlimit="10"/>
<path d="M18.4312 42.0693L23.8796 40.2601L22.06 45.6981L16.622 47.5178L18.4312 42.0693Z" fill="white"/>
<path d="M16.0616 27.5856L32.6279 31.9928" stroke="white" stroke-miterlimit="10"/>
<path d="M20.7137 26.113L22.5544 29.3001L19.3779 31.1513" stroke="white" stroke-miterlimit="10"/>
<path d="M23.9953 25.7344L26.6985 30.415L22.0284 33.1077" stroke="white" stroke-miterlimit="10"/>
<path d="M16.4638 25.0191L20.7553 28.8268L15.149 29.9732L10.847 26.1761L16.4638 25.0191Z" fill="white"/>
<path d="M27.8359 15.7105L32.3062 32.2769" stroke="white" stroke-miterlimit="10"/>
<path d="M31.4321 19.0133L29.5914 22.2003L26.4044 20.3807" stroke="white" stroke-miterlimit="10"/>
<path d="M33.3899 21.6639L30.7077 26.3445L26.0166 23.6518" stroke="white" stroke-miterlimit="10"/>
<path d="M30.2534 14.7849L29.1069 20.4122L25.2993 16.1208L26.4458 10.4935L30.2534 14.7849Z" fill="white"/>
</g>
<defs>
<clipPath id="clip0_199_149813">
<rect width="44.2237" height="44.2237" fill="white" transform="translate(32.2202 63.1165) rotate(-135)"/>
</clipPath>
</defs>
</svg>
