<svg width="21" height="22" viewBox="0 0 21 22" fill="none" xmlns="http://www.w3.org/2000/svg">
<path d="M12.5419 3.03689L11.0283 8.38489" stroke="white" stroke-miterlimit="10"/>
<path d="M13.0884 6.1544L11.4476 6.92341L10.4349 5.34681" stroke="white" stroke-miterlimit="10"/>
<path d="M13.6987 4.02537L12.0579 4.79439L11.0452 3.21779" stroke="white" stroke-miterlimit="10"/>
<path d="M17.0322 6.08659L12.5016 9.23767" stroke="white" stroke-miterlimit="10"/>
<path d="M15.6525 8.7043L13.7142 8.39059L13.8566 6.63348" stroke="white" stroke-miterlimit="10"/>
<path d="M17.467 7.35838L15.5288 7.0447L15.6635 5.2854" stroke="white" stroke-miterlimit="10"/>
<path d="M18.9511 10.936L13.1346 10.8437" stroke="white" stroke-miterlimit="10"/>
<path d="M16.1719 12.1833L14.6651 10.8779L15.9381 9.62312" stroke="white" stroke-miterlimit="10"/>
<path d="M18.4834 12.14L16.9841 10.8368L18.2591 9.57487" stroke="white" stroke-miterlimit="10"/>
<path d="M17.6045 15.7526L12.621 12.5819" stroke="white" stroke-miterlimit="10"/>
<path d="M14.4029 15.2057L13.9337 13.4042L15.8454 13.1561" stroke="white" stroke-miterlimit="10"/>
<path d="M16.3414 16.468L15.8704 14.6735L17.7839 14.4185" stroke="white" stroke-miterlimit="10"/>
<path d="M13.4873 18.8705L11.1609 13.6061" stroke="white" stroke-miterlimit="10"/>
<path d="M11.0626 16.6007L11.7963 15.0194L13.594 15.8653" stroke="white" stroke-miterlimit="10"/>
<path d="M11.8813 18.7014L12.615 17.1202L14.4219 17.9617" stroke="white" stroke-miterlimit="10"/>
<path d="M7.99805 18.9917L9.51161 13.6437" stroke="white" stroke-miterlimit="10"/>
<path d="M7.4489 15.8742L9.08966 15.1052L10.1006 16.6885" stroke="white" stroke-miterlimit="10"/>
<path d="M6.83855 18.0031L8.47931 17.2341L9.49023 18.8174" stroke="white" stroke-miterlimit="10"/>
<path d="M3.50876 15.9488L8.04676 12.8003" stroke="white" stroke-miterlimit="10"/>
<path d="M4.88864 13.3314L6.82694 13.6451L6.68457 15.4022" stroke="white" stroke-miterlimit="10"/>
<path d="M3.07432 14.677L5.02211 14.9863L4.87793 16.7502" stroke="white" stroke-miterlimit="10"/>
<path d="M1.59944 11.0996L7.41593 11.1919" stroke="white" stroke-miterlimit="10"/>
<path d="M4.37834 9.84504L5.88528 11.1505L4.61035 12.4123" stroke="white" stroke-miterlimit="10"/>
<path d="M2.06486 9.89546L3.5718 11.201L2.29687 12.4628" stroke="white" stroke-miterlimit="10"/>
<path d="M2.9397 6.28314L7.93066 9.45593" stroke="white" stroke-miterlimit="10"/>
<path d="M6.14804 6.8325L6.61133 8.62466L4.69779 8.87965" stroke="white" stroke-miterlimit="10"/>
<path d="M4.20377 5.56056L4.67481 7.35513L2.76127 7.61012" stroke="white" stroke-miterlimit="10"/>
<path d="M7.05543 3.15833L9.38184 8.42273" stroke="white" stroke-miterlimit="10"/>
<path d="M9.48486 5.43749L8.7454 7.00926L6.94624 6.1703" stroke="white" stroke-miterlimit="10"/>
<path d="M8.65872 3.33429L7.92686 4.9086L6.12756 4.06955" stroke="white" stroke-miterlimit="10"/>
<path d="M10.9335 8.76528C9.46738 8.32566 7.97974 9.06009 7.61077 10.4057C7.24179 11.7513 8.1312 13.1985 9.59732 13.6381C11.0634 14.0777 12.5511 13.3433 12.92 11.9977C13.289 10.6521 12.3996 9.2049 10.9335 8.76528Z" stroke="white" stroke-miterlimit="10"/>
</svg>
