<svg width="44" height="45" viewBox="0 0 44 45" fill="none" xmlns="http://www.w3.org/2000/svg">
<path d="M26.72 6.11765L23.5752 17.2295" stroke="white" stroke-miterlimit="10"/>
<path d="M27.8574 12.595L24.4483 14.1929L22.3441 10.9171" stroke="white" stroke-miterlimit="10"/>
<path d="M29.124 8.17169L25.7149 9.76951L23.6107 6.49372" stroke="white" stroke-miterlimit="10"/>
<path d="M36.0554 12.4545L26.642 19.0016" stroke="white" stroke-miterlimit="10"/>
<path d="M33.1865 17.8934L29.1591 17.2416L29.455 13.5907" stroke="white" stroke-miterlimit="10"/>
<path d="M36.9604 15.097L32.9334 14.4452L33.2133 10.7898" stroke="white" stroke-miterlimit="10"/>
<path d="M40.0417 22.53L27.9564 22.3384" stroke="white" stroke-miterlimit="10"/>
<path d="M34.2598 25.1217L31.129 22.4094L33.774 19.8022" stroke="white" stroke-miterlimit="10"/>
<path d="M39.0649 25.0317L35.9497 22.324L38.599 19.702" stroke="white" stroke-miterlimit="10"/>
<path d="M37.2441 32.5377L26.8897 25.9499" stroke="white" stroke-miterlimit="10"/>
<path d="M30.5866 31.4012L29.6117 27.6581L33.5837 27.1427" stroke="white" stroke-miterlimit="10"/>
<path d="M34.6119 34.0244L33.6332 30.2957L37.6091 29.7659" stroke="white" stroke-miterlimit="10"/>
<path d="M28.6797 39.016L23.846 28.0779" stroke="white" stroke-miterlimit="10"/>
<path d="M23.6419 34.3L25.1664 31.0144L28.9015 32.7722" stroke="white" stroke-miterlimit="10"/>
<path d="M25.347 38.6647L26.8714 35.3795L30.6259 37.1278" stroke="white" stroke-miterlimit="10"/>
<path d="M17.2744 39.2678L20.4192 28.156" stroke="white" stroke-miterlimit="10"/>
<path d="M16.1315 32.7902L19.5407 31.1924L21.6411 34.4822" stroke="white" stroke-miterlimit="10"/>
<path d="M14.8654 37.2137L18.2745 35.6159L20.375 38.9056" stroke="white" stroke-miterlimit="10"/>
<path d="M7.96035 32.9459L17.3892 26.404" stroke="white" stroke-miterlimit="10"/>
<path d="M10.829 27.5075L14.8564 28.1593L14.5605 31.8102" stroke="white" stroke-miterlimit="10"/>
<path d="M7.05577 30.3033L11.1028 30.9459L10.8032 34.611" stroke="white" stroke-miterlimit="10"/>
<path d="M3.98669 22.8702L16.0719 23.062" stroke="white" stroke-miterlimit="10"/>
<path d="M9.76586 20.2636L12.8969 22.9762L10.2479 25.5979" stroke="white" stroke-miterlimit="10"/>
<path d="M4.95287 20.3684L8.08392 23.0809L5.43493 25.7026" stroke="white" stroke-miterlimit="10"/>
<path d="M6.7711 12.8625L17.1411 19.4548" stroke="white" stroke-miterlimit="10"/>
<path d="M13.4379 14.004L14.4005 17.7277L10.4246 18.2575" stroke="white" stroke-miterlimit="10"/>
<path d="M9.39636 11.3612L10.3751 15.0898L6.3992 15.6196" stroke="white" stroke-miterlimit="10"/>
<path d="M15.322 6.36996L20.1558 17.3081" stroke="white" stroke-miterlimit="10"/>
<path d="M20.3736 11.1055L18.8372 14.3713L15.099 12.6281" stroke="white" stroke-miterlimit="10"/>
<path d="M18.653 6.73556L17.1324 10.0066L13.3939 8.26325" stroke="white" stroke-miterlimit="10"/>
<path d="M23.3768 18.0198C20.3305 17.1064 17.2396 18.6324 16.473 21.4282C15.7063 24.224 17.5543 27.2309 20.6005 28.1443C23.6468 29.0577 26.7377 27.5318 27.5043 24.736C28.271 21.9402 26.423 18.9332 23.3768 18.0198Z" stroke="white" stroke-miterlimit="10"/>
</svg>
