<svg width="27" height="27" viewBox="0 0 27 27" fill="none" xmlns="http://www.w3.org/2000/svg">
<path d="M12.9885 25.574L13.2329 15.4739" stroke="white" stroke-width="0.764042" stroke-miterlimit="10"/>
<path d="M11.2274 21.5203L13.1283 19.7339L14.9453 21.6293" stroke="white" stroke-width="0.764042" stroke-miterlimit="10"/>
<path d="M12.0586 23.7383L13.0578 22.8047L14.0026 23.7903" stroke="white" stroke-width="0.764042" stroke-miterlimit="10"/>
<path d="M10.4175 19.3056L13.2087 16.6977L15.8773 19.4706" stroke="white" stroke-width="0.764042" stroke-miterlimit="10"/>
<path d="M12.9669 26.3769C13.4489 26.3925 13.8486 26.0181 13.8594 25.5407C13.8703 25.0633 13.4883 24.6637 13.0062 24.6481C12.5241 24.6326 12.1245 25.007 12.1136 25.4844C12.1028 25.9618 12.4848 26.3614 12.9669 26.3769Z" fill="white"/>
<path d="M4.6528 21.8405L11.9787 14.9562" stroke="white" stroke-width="0.764042" stroke-miterlimit="10"/>
<path d="M6.2583 17.777L8.89825 17.8622L8.83909 20.4658" stroke="white" stroke-width="0.764042" stroke-miterlimit="10"/>
<path d="M5.29395 19.9244L6.66712 19.9687L6.64687 21.3288" stroke="white" stroke-width="0.764042" stroke-miterlimit="10"/>
<path d="M7.24414 15.6405L11.1083 15.7652L11.0214 19.5916" stroke="white" stroke-width="0.764042" stroke-miterlimit="10"/>
<path d="M4.67689 22.7022C5.15898 22.7178 5.55858 22.3434 5.56942 21.866C5.58027 21.3886 5.19825 20.989 4.71616 20.9735C4.23407 20.9579 3.83447 21.3323 3.82362 21.8097C3.81278 22.2871 4.1948 22.6867 4.67689 22.7022Z" fill="white"/>
<path d="M1.3838 13.3689L11.4734 13.6276" stroke="white" stroke-width="0.764042" stroke-miterlimit="10"/>
<path d="M5.40332 11.6162L7.24252 13.5263L5.32973 15.3157" stroke="white" stroke-width="0.764042" stroke-miterlimit="10"/>
<path d="M3.20361 12.4454L4.16513 13.4389L3.17024 14.3799" stroke="white" stroke-width="0.764042" stroke-miterlimit="10"/>
<path d="M7.60205 10.8048L10.2877 13.5989L7.48921 16.2271" stroke="white" stroke-width="0.764042" stroke-miterlimit="10"/>
<path d="M1.41753 14.2399C1.89961 14.2554 2.29921 13.881 2.31007 13.4036C2.32093 12.9262 1.93893 12.5266 1.45686 12.511C0.974784 12.4955 0.575181 12.8699 0.564321 13.3473C0.553462 13.8247 0.935458 14.2243 1.41753 14.2399Z" fill="white"/>
<path d="M5.04541 5.04602L12.0696 12.3719" stroke="white" stroke-width="0.764042" stroke-miterlimit="10"/>
<path d="M9.18066 6.67748L9.12127 9.29175L6.49188 9.20691" stroke="white" stroke-width="0.764042" stroke-miterlimit="10"/>
<path d="M7.0324 5.69848L7.00151 7.05829L5.62829 7.01398" stroke="white" stroke-width="0.764042" stroke-miterlimit="10"/>
<path d="M11.3173 7.67326L11.2304 11.4997L7.36619 11.375" stroke="white" stroke-width="0.764042" stroke-miterlimit="10"/>
<path d="M5.09925 5.95308C5.58134 5.96863 5.98094 5.59425 5.99179 5.11687C6.00263 4.63949 5.62061 4.23988 5.13853 4.22433C4.65644 4.20878 4.25683 4.58316 4.24599 5.06054C4.23514 5.53792 4.61716 5.93753 5.09925 5.95308Z" fill="white"/>
<path d="M13.5825 1.77563L13.3384 11.8652" stroke="white" stroke-width="0.764042" stroke-miterlimit="10"/>
<path d="M15.3441 5.82921L13.4432 7.61558L11.6262 5.72021" stroke="white" stroke-width="0.764042" stroke-miterlimit="10"/>
<path d="M14.5131 3.61399L13.5245 4.54794L12.5691 3.562" stroke="white" stroke-width="0.764042" stroke-miterlimit="10"/>
<path d="M16.154 8.04502L13.3734 10.6533L10.7048 7.88036" stroke="white" stroke-width="0.764042" stroke-miterlimit="10"/>
<path d="M13.5655 2.69346C14.0476 2.709 14.4472 2.33459 14.458 1.8572C14.4689 1.3798 14.0869 0.980198 13.6048 0.964659C13.1227 0.94912 12.7231 1.32353 12.7123 1.80093C12.7014 2.27832 13.0834 2.67792 13.5655 2.69346Z" fill="white"/>
<path d="M21.9182 5.50055L14.5923 12.3848" stroke="white" stroke-width="0.764042" stroke-miterlimit="10"/>
<path d="M20.3127 9.5672L17.6728 9.48203L17.7319 6.87842" stroke="white" stroke-width="0.764042" stroke-miterlimit="10"/>
<path d="M21.2774 7.41791L19.9042 7.3736L19.9351 6.01379" stroke="white" stroke-width="0.764042" stroke-miterlimit="10"/>
<path d="M19.3271 11.7023L15.4629 11.5777L15.5498 7.75122" stroke="white" stroke-width="0.764042" stroke-miterlimit="10"/>
<path d="M21.8546 6.36787C22.3367 6.38343 22.7363 6.00904 22.7472 5.53166C22.758 5.05428 22.376 4.65468 21.8939 4.63912C21.4118 4.62357 21.0122 4.99796 21.0014 5.47534C20.9905 5.95272 21.3725 6.35232 21.8546 6.36787Z" fill="white"/>
<path d="M25.1876 13.9787L15.0874 13.7198" stroke="white" stroke-width="0.764042" stroke-miterlimit="10"/>
<path d="M21.1686 15.7303L19.3294 13.8202L21.2422 12.0308" stroke="white" stroke-width="0.764042" stroke-miterlimit="10"/>
<path d="M23.3681 14.8992L22.4066 13.9058L23.4014 12.9648" stroke="white" stroke-width="0.764042" stroke-miterlimit="10"/>
<path d="M18.9694 16.5406L16.2838 13.7465L19.0823 11.1183" stroke="white" stroke-width="0.764042" stroke-miterlimit="10"/>
<path d="M25.1045 14.8357C25.5866 14.8512 25.9862 14.4768 25.9971 13.9994C26.0079 13.522 25.6259 13.1224 25.1439 13.1069C24.6618 13.0913 24.2622 13.4657 24.2513 13.9431C24.2405 14.4205 24.6225 14.8202 25.1045 14.8357Z" fill="white"/>
<path d="M21.5261 22.3105L14.502 14.9846" stroke="white" stroke-width="0.764042" stroke-miterlimit="10"/>
<path d="M17.3913 20.679L17.4507 18.0647L20.0801 18.1495" stroke="white" stroke-width="0.764042" stroke-miterlimit="10"/>
<path d="M19.5392 21.6568L19.5701 20.2969L20.9436 20.3307" stroke="white" stroke-width="0.764042" stroke-miterlimit="10"/>
<path d="M15.265 19.6813L15.3413 15.8545L19.2055 15.9792" stroke="white" stroke-width="0.764042" stroke-miterlimit="10"/>
<path d="M21.4332 23.1314C21.9153 23.147 22.3149 22.7726 22.3258 22.2952C22.3366 21.8178 21.9546 21.4182 21.4725 21.4027C20.9904 21.3871 20.5908 21.7615 20.58 22.2389C20.5691 22.7163 20.9511 23.1159 21.4332 23.1314Z" fill="white"/>
</svg>
