<svg width="36" height="36" viewBox="0 0 36 36" fill="none" xmlns="http://www.w3.org/2000/svg">
<rect width="36" height="36" rx="18" fill="#FF671F"/>
<path d="M26.3952 21.1277C25.1707 21.1277 23.9684 20.9362 22.8291 20.5597C22.2708 20.3693 21.5845 20.544 21.2438 20.8939L18.995 22.5915C16.387 21.1994 14.7806 19.5934 13.4074 17.0051L15.0551 14.8148C15.4832 14.3873 15.6367 13.7629 15.4528 13.1769C15.0746 12.0316 14.8826 10.8299 14.8826 9.6049C14.8826 8.71995 14.1627 8 13.2778 8H9.60484C8.71995 8 8 8.71995 8 9.60484C8 19.7481 16.252 28 26.3952 28C27.2801 28 28.0001 27.2801 28.0001 26.3952V22.7325C28 21.8477 27.2801 21.1277 26.3952 21.1277Z" fill="white"/>
</svg>
