<svg width="36" height="36" viewBox="0 0 36 36" fill="none" xmlns="http://www.w3.org/2000/svg">
<rect width="36" height="36" rx="18" fill="#7C42AD"/>
<path d="M19.1544 9.61629C19.0919 9.60672 19.0169 9.60125 18.9376 9.59554C18.6092 9.57159 17.9264 9.52177 17.9668 8.81687C17.9844 8.5118 18.1214 8 18.8424 8C18.9235 8 19.0035 8.00549 19.0742 8.01034L19.084 8.011C19.14 8.01479 19.1926 8.01836 19.2357 8.01836C19.264 8.01836 19.2805 8.01672 19.2893 8.01543C19.3074 8.01289 19.3254 8.01187 19.3441 8.0125C23.8712 8.16508 27.7935 12.2689 27.7376 16.7944C27.7368 16.854 27.7398 16.9218 27.743 16.9939L27.7432 16.9982C27.7568 17.2985 27.7736 17.6721 27.5329 17.9236C27.3949 18.0678 27.202 18.1408 26.9594 18.1408L26.9354 18.1406C26.1622 18.1257 26.1506 17.4068 26.145 17.061C26.1434 16.9638 26.1419 16.8719 26.1324 16.7967C25.5722 12.3717 23.5505 10.2915 19.1544 9.61629Z" fill="white"/>
<path d="M19.757 10.6305C22.7366 10.988 25.1412 13.573 25.1171 16.3927C25.1171 16.4057 25.1161 16.4187 25.1143 16.4316C25.1074 16.4829 25.1101 16.5601 25.1129 16.6416C25.1228 16.9312 25.1435 17.5339 24.4827 17.6342C24.4166 17.6442 24.3531 17.6493 24.294 17.6493C23.5843 17.6493 23.5441 16.99 23.5249 16.6731C23.5198 16.5888 23.5149 16.5084 23.5042 16.4439C23.0636 13.7928 22.1622 12.8535 19.4851 12.2561C19.4208 12.2416 19.3443 12.2311 19.2631 12.2199L19.2561 12.2189C18.9703 12.1798 18.6145 12.1311 18.4122 11.8564C18.292 11.6931 18.2522 11.4845 18.294 11.236C18.3369 10.9805 18.5002 10.552 19.1109 10.552C19.2648 10.552 19.4173 10.5771 19.5648 10.6015C19.6332 10.6129 19.6977 10.6235 19.757 10.6305Z" fill="white"/>
<path d="M25.9203 22.5157C25.8268 22.4444 25.7302 22.3706 25.6397 22.2978C25.1598 21.9121 24.6493 21.5565 24.1555 21.2127C24.053 21.1414 23.9503 21.0699 23.8482 20.9983C23.2156 20.5545 22.6469 20.3388 22.1096 20.3388C21.3859 20.3388 20.755 20.7382 20.2342 21.5257C20.0035 21.8749 19.7236 22.0446 19.3786 22.0446C19.1747 22.0446 18.9428 21.9865 18.6898 21.8717C16.6479 20.947 15.1899 19.5291 14.3562 17.6574C13.9532 16.7528 14.0838 16.1615 14.7932 15.6803C15.196 15.4073 15.9457 14.8989 15.8926 13.9255C15.8324 12.8201 13.3905 9.4941 12.3615 9.11636C11.9259 8.95636 11.4682 8.95488 10.9987 9.11265C9.81581 9.5098 8.96699 10.2073 8.54373 11.1295C8.13471 12.0206 8.15317 13.0669 8.59716 14.1554C9.88062 17.3023 11.6851 20.0461 13.9606 22.3102C16.188 24.5266 18.9256 26.3421 22.0973 27.7062C22.3832 27.829 22.683 27.8961 22.902 27.9449L22.9162 27.9481C22.9847 27.9635 23.0441 27.9768 23.088 27.9888C23.1138 27.9959 23.1404 27.9996 23.1671 27.9999L23.1922 28C24.684 28 26.4753 26.6385 27.0254 25.0863C27.5074 23.7272 26.6274 23.0554 25.9203 22.5157Z" fill="white"/>
<path d="M19.5975 13.1903C20.2745 13.174 21.0189 13.5267 21.6364 14.153C22.2518 14.7774 22.6136 15.5614 22.6056 16.2519C22.6274 16.9135 22.3859 17.279 21.8878 17.3382C21.8567 17.342 21.8254 17.3438 21.7948 17.3438C21.3806 17.3438 21.0579 17.0097 21.0102 16.5312C20.9074 15.5051 20.3935 14.9525 19.3928 14.7921C19.1169 14.7477 18.8135 14.6667 18.6552 14.4026C18.5473 14.2226 18.5368 14.0033 18.6241 13.7506C18.8105 13.2102 19.342 13.1968 19.5975 13.1903Z" fill="white"/>
</svg>
