<svg width="24" height="24" viewBox="0 0 24 24" fill="none" xmlns="http://www.w3.org/2000/svg">
<rect x="0.75" y="0.75" width="22.5" height="22.5" rx="11.25" fill="white"/>
<g clip-path="url(#clip0_532_5987)">
<path d="M11.2408 16.4378C10.0506 17.7368 7.96943 17.6221 6.92908 16.2002L5.16108 13.7838C4.85758 13.369 4.94781 12.7867 5.36262 12.4832C5.77743 12.1797 6.35974 12.2699 6.66324 12.6847L8.43124 15.1012C8.77802 15.5751 9.47173 15.6133 9.86848 15.1803L17.4022 6.95831C17.7494 6.57935 18.3381 6.55363 18.7171 6.90086C19.0961 7.2481 19.1218 7.83679 18.7745 8.21575L11.2408 16.4378Z" fill="#43B02A"/>
</g>
<rect x="0.75" y="0.75" width="22.5" height="22.5" rx="11.25" stroke="#43B02A" stroke-width="1.5"/>
<defs>
<clipPath id="clip0_532_5987">
<rect width="15.2727" height="15.2727" fill="white" transform="translate(4.36377 4.36365)"/>
</clipPath>
</defs>
</svg>
