<svg width="36" height="36" viewBox="0 0 36 36" fill="none" xmlns="http://www.w3.org/2000/svg">
<rect width="36" height="36" rx="18" fill="#FF671F"/>
<path d="M25.3817 12.9794V17.4251C25.3817 19.0706 24.0848 20.4046 22.485 20.4045H15.1185L11.7829 23.7798C11.664 23.9001 11.5063 23.9638 11.3459 23.9638C11.2648 23.9638 11.1831 23.9476 11.1053 23.914C10.8738 23.8142 10.7231 23.5812 10.7231 23.323V20.3987C9.20421 20.3064 8 19.0107 8 17.4251V12.9794C8 11.3339 9.29688 10 10.8967 10H22.485C24.0848 10 25.3817 11.3339 25.3817 12.9794Z" fill="white"/>
<path d="M26.4318 17.5031V17.2662C27.3174 17.3903 28 18.1708 27.9999 19.1157V21.902C27.9999 22.8956 27.2452 23.7077 26.2933 23.7656V25.5984C26.2933 25.7601 26.1989 25.9062 26.0537 25.9688C26.005 25.9897 25.9538 26 25.9029 26C25.8024 26 25.7036 25.9599 25.6291 25.8846L23.5386 23.7692H18.9218C17.9192 23.7692 17.1064 22.9333 17.1064 21.902V21.4142H22.6294C24.7261 21.4142 26.4318 19.6596 26.4318 17.5031Z" fill="white"/>
</svg>
