<svg width="20" height="20" viewBox="0 0 20 20" fill="none" xmlns="http://www.w3.org/2000/svg">
<path d="M3.63618 14.9499C3.24566 15.3404 3.24566 15.9736 3.63618 16.3641C4.02671 16.7546 4.65987 16.7546 5.0504 16.3641L10.0001 11.4144L14.9499 16.3641C15.3404 16.7546 15.9736 16.7546 16.3641 16.3641C16.7546 15.9736 16.7546 15.3404 16.3641 14.9499L11.4143 10.0001L16.3641 5.05037C16.7546 4.65984 16.7546 4.02668 16.3641 3.63615C15.9736 3.24563 15.3404 3.24563 14.9499 3.63615L10.0001 8.58593L5.05037 3.63617C4.65984 3.24565 4.02668 3.24565 3.63615 3.63617C3.24563 4.0267 3.24563 4.65986 3.63616 5.05039L8.58591 10.0001L3.63618 14.9499Z" fill="white"/>
</svg>
