<svg width="49" height="48" viewBox="0 0 49 48" fill="none" xmlns="http://www.w3.org/2000/svg">
<g clip-path="url(#clip0_2953_27617)">
<rect x="0.5" width="48" height="48" rx="14" fill="#E9F4FB"/>
<path fill-rule="evenodd" clip-rule="evenodd" d="M16.5 18H26.5005C28.1505 18 29.5005 19.35 29.502 21V23.0005H27.7505C27.6665 23.0005 27.5833 23.0037 27.501 23.01V21C27.501 20.985 27.5007 20.97 27.5 20.9551V23.01C25.825 23.138 24.501 24.5384 24.501 26.25V29.499C24.501 30.7566 24.9926 31.9463 25.8823 32.8487L25.9013 32.868L26.0387 33H26.0346L26.7562 33.6892L27.2578 34.1711C26.4676 34.6894 25.5188 34.9995 24.4995 34.9995H18.4995C15.7395 34.9995 13.5 32.76 13.5 30V21C13.5 19.35 14.85 18 16.5 18ZM15.5 30.055V20.9683C15.4997 20.9788 15.4995 20.9894 15.4995 21V30C15.4995 30.0184 15.4997 30.0367 15.5 30.055ZM16.4683 20H18.5C17.9477 20 17.5 20.4477 17.5 21C17.5 21.5523 17.9477 22 18.5 22C19.0523 22 19.5 21.5523 19.5 21C19.5 20.4477 19.0523 20 18.5 20H24.5C23.9477 20 23.5 20.4477 23.5 21C23.5 21.5523 23.9477 22 24.5 22C25.0523 22 25.5 21.5523 25.5 21C25.5 20.4477 25.0523 20 24.5 20H26.5322C26.5217 19.9997 26.5111 19.9995 26.5005 19.9995H16.5C16.4894 19.9995 16.4788 19.9997 16.4683 20Z" fill="#268EDA"/>
<path d="M24.4995 19C23.9475 19 23.499 18.5515 23.499 17.9995V15.999C23.499 14.8965 22.602 13.9995 21.4995 13.9995C20.397 13.9995 19.5 14.8965 19.5 16.0005V18.001C19.5 18.553 19.053 19.0015 18.4995 19.0015C17.946 19.0015 17.499 18.553 17.499 18.001V16.0005C17.499 13.7955 19.293 12 21.4995 12C23.706 12 25.5 13.794 25.5 16.0005V18.001C25.5 18.553 25.053 19 24.4995 19Z" fill="#268EDA"/>
<path d="M32.75 36C32.276 36 31.8335 35.814 31.5035 35.4765L27.3065 31.4445C26.7815 30.912 26.501 30.225 26.501 29.499V26.25C26.501 25.56 27.062 25.0005 27.7505 25.0005H31.001C31.7285 25.0005 32.414 25.2825 32.93 25.7925L36.9935 30.0195C37.3145 30.336 37.5005 30.7785 37.5005 31.2495C37.5005 31.7175 37.319 32.1555 36.9875 32.487L33.9875 35.487C33.659 35.8185 33.218 36 32.75 36Z" fill="#268EDA" fill-opacity="0.6"/>
</g>
<defs>
<clipPath id="clip0_2953_27617">
<rect width="48" height="48" fill="white" transform="translate(0.5)"/>
</clipPath>
</defs>
</svg>
