<svg width="49" height="48" viewBox="0 0 49 48" fill="none" xmlns="http://www.w3.org/2000/svg">
<g clip-path="url(#clip0_2953_30059)">
<rect x="0.399902" width="48" height="48" rx="14" fill="#FFF0E9"/>
<path fill-rule="evenodd" clip-rule="evenodd" d="M22.3989 19.0005C22.3989 15.141 25.5399 12 29.3994 12C33.2604 12 36.3999 15.141 36.3999 19.0005C36.3999 22.86 33.2604 26.001 29.3994 26.001C25.5384 26.001 22.3989 22.86 22.3989 19.0005ZM26.9279 19.112C26.6363 19.112 26.3999 19.3484 26.3999 19.64C26.3999 19.9316 26.6363 20.168 26.9279 20.168H27.1439C26.9359 20.496 26.8319 20.844 26.8319 21.212C26.8319 21.788 27.0319 22.248 27.4319 22.592C27.8319 22.936 28.4479 23.108 29.2799 23.108C29.6959 23.108 30.0639 23.06 30.3839 22.964C30.7039 22.86 30.9719 22.724 31.1879 22.556C31.4039 22.38 31.5719 22.176 31.6919 21.944C31.8199 21.704 31.8178 21.3737 31.5448 21.14C31.2311 20.8715 30.803 21.0713 30.6226 21.2617C30.6043 21.281 30.586 21.3004 30.5678 21.3198C30.4056 21.492 30.242 21.6658 30.0479 21.788C29.8399 21.924 29.5839 21.992 29.2799 21.992C28.9439 21.992 28.6919 21.92 28.5239 21.776C28.3559 21.624 28.2719 21.412 28.2719 21.14C28.2719 20.812 28.4079 20.488 28.6799 20.168H31.8719C32.1635 20.168 32.3999 19.9316 32.3999 19.64C32.3999 19.3484 32.1635 19.112 31.8719 19.112H26.9279ZM26.9279 17.432C26.6363 17.432 26.3999 17.6684 26.3999 17.96C26.3999 18.2516 26.6363 18.488 26.9279 18.488H31.8719C32.1635 18.488 32.3999 18.2516 32.3999 17.96C32.3999 17.6684 32.1635 17.432 31.8719 17.432H31.6199C31.8599 17.08 31.9799 16.716 31.9799 16.34C31.9799 15.788 31.7759 15.344 31.3679 15.008C30.9679 14.664 30.3519 14.492 29.5199 14.492C28.8319 14.492 28.2759 14.66 27.8519 14.996C27.4359 15.324 27.0057 15.764 27.3094 16.1655C27.5838 16.5283 28.0488 16.5261 28.4742 16.1655C28.5574 16.095 28.6058 16.0479 28.6504 16.0046C28.7083 15.9483 28.7595 15.8985 28.8719 15.812C29.0953 15.64 29.2879 15.62 29.5679 15.62C29.8879 15.62 30.1279 15.692 30.2879 15.836C30.4559 15.972 30.5399 16.168 30.5399 16.424C30.5399 16.592 30.4919 16.76 30.3959 16.928C30.3079 17.096 30.1839 17.264 30.0239 17.432H26.9279Z" fill="#FF671F" fill-opacity="0.6"/>
<path d="M12.8919 24.0015C12.6189 24.0075 12.3999 24.2295 12.3999 24.5025V33.501C12.3999 33.777 12.6234 34.0005 12.8994 34.0005H15.0219C15.2454 34.0005 15.4419 33.852 15.5034 33.6375L17.7159 25.839C17.8584 25.335 17.5884 24.8055 17.0964 24.627C16.1904 24.2955 14.7999 23.97 12.8919 24.0015Z" fill="#FF671F" fill-opacity="0.6"/>
<path d="M34.4004 29.5005C32.4009 29.5005 28.4004 32.0325 26.4009 32.0325C24.4014 32.0325 22.1499 30.4995 22.1499 30.4995C22.1499 30.4995 24.8439 30.999 26.3994 30.999C27.9549 30.999 28.3989 30.468 28.3989 29.7495C28.3989 27.999 25.4259 27.7275 23.9229 27.4995C22.4469 26.6775 21.6804 26.028 19.2354 25.821C19.2204 25.9635 19.1979 26.1045 19.1589 26.247L17.1504 33.327C19.4259 34.3605 23.3439 36 25.4004 36C28.4004 36 36.3999 31.9995 36.3999 31.0005C36.3999 30 35.3994 29.5005 34.4004 29.5005Z" fill="#FF671F"/>
</g>
<defs>
<clipPath id="clip0_2953_30059">
<rect width="48" height="48" fill="white" transform="translate(0.399902)"/>
</clipPath>
</defs>
</svg>
