<svg width="49" height="48" viewBox="0 0 49 48" fill="none" xmlns="http://www.w3.org/2000/svg">
<g clip-path="url(#clip0_2953_30075)">
<rect x="0.200195" width="48" height="48" rx="14" fill="#ECF7EA"/>
<path d="M31.2002 17.7495C31.2002 16.233 30.0288 15 28.5881 15H14.8123C13.3716 14.9985 12.2002 16.233 12.2002 17.7495V21H31.2002V17.7495Z" fill="#43B02A"/>
<path d="M17.2002 17C16.6486 17 16.2002 16.5513 16.2002 15.9994V12.9991C16.2017 12.4472 16.6486 12 17.2002 12C17.7518 12 18.2002 12.4472 18.2002 13.0006V16.0009C18.2002 16.5528 17.7533 17 17.2002 17Z" fill="#43B02A" fill-opacity="0.6"/>
<path d="M26.2002 17C25.6486 17 25.2002 16.5513 25.2002 15.9994V12.9991C25.2002 12.4472 25.6486 12 26.2002 12C26.7518 12 27.2002 12.4487 27.2002 13.0006V16.0009C27.2002 16.5528 26.7533 17 26.2002 17Z" fill="#43B02A" fill-opacity="0.6"/>
<path d="M19.1997 33H15.2002C13.5457 33 12.2002 31.6546 12.2002 30.0002V19.0004C12.2002 18.4486 12.6473 18 13.2007 18C13.754 18 14.1997 18.4486 14.1997 19.0004V30.0002C14.1997 30.5521 14.6483 31.0006 15.2002 31.0006H19.1997C19.7531 30.9992 20.2002 31.4477 20.2002 31.9996C20.2002 32.5514 19.7531 33 19.1997 33Z" fill="#43B02A"/>
<path d="M30.2002 24C29.6471 24 29.2002 23.5514 29.2002 22.9996V21.0004C29.2002 20.4486 29.6471 20 30.2002 20C30.7518 20 31.2002 20.4486 31.2002 21.0004V22.9996C31.1987 23.5514 30.7518 24 30.2002 24Z" fill="#43B02A"/>
<path fill-rule="evenodd" clip-rule="evenodd" d="M24.6002 26C23.2747 26 22.2002 27.0745 22.2002 28.4V29H36.2006V28.4C36.2006 27.0745 35.1261 26 33.8006 26H24.6002ZM36.2006 31H22.2002V33.6C22.2002 34.9255 23.2747 36 24.6002 36H33.8006C35.1261 36 36.2006 34.9255 36.2006 33.6V31Z" fill="#43B02A" fill-opacity="0.6"/>
<g clip-path="url(#clip1_2953_30075)">
<rect x="-1" y="-1" width="48" height="48" rx="14" fill="#F0ECFF"/>
<path d="M26.4994 12.5C24.1294 12.5 21.9844 13.478 20.4409 15.047C25.5139 15.524 29.4994 19.8035 29.4994 24.9995C29.4994 26.5175 29.1499 27.9515 28.5424 29.2415C32.2444 28.3235 34.9999 24.9815 34.9999 21.0005C34.9999 16.313 31.1869 12.5 26.4994 12.5Z" fill="#6D44FD" fill-opacity="0.6"/>
<path fill-rule="evenodd" clip-rule="evenodd" d="M11 24.9995C11 20.3135 14.813 16.5005 19.5005 16.5005C24.1865 16.5005 28.001 20.312 28.001 24.9995C28.001 29.687 24.188 33.5 19.5005 33.5C14.813 33.5 11 29.6855 11 24.9995ZM20.8438 23.0307C20.4298 23.0307 20.0938 22.6947 20.0938 22.2807C20.0938 21.8667 20.4298 21.5307 20.8438 21.5307C21.2578 21.5307 21.5938 21.8667 21.5938 22.2807C21.5938 22.6947 21.2578 23.0307 20.8438 23.0307ZM20.8437 28.5312C20.7402 28.5312 20.6352 28.5102 20.5332 28.4637C20.1567 28.2927 19.9902 27.8487 20.1612 27.4707L22.6617 21.9702C22.8342 21.5937 23.2767 21.4272 23.6547 21.5982C24.0312 21.7692 24.1977 22.2132 24.0267 22.5912L21.5262 28.0917C21.4017 28.3677 21.1287 28.5312 20.8437 28.5312ZM22.5942 27.7812C22.5942 28.1952 22.9302 28.5312 23.3442 28.5312C23.7582 28.5312 24.0942 28.1952 24.0942 27.7812C24.0942 27.3672 23.7582 27.0312 23.3442 27.0312C22.9302 27.0312 22.5942 27.3672 22.5942 27.7812ZM18.2818 21.5307H15.7813C15.3673 21.5307 15.0313 21.8667 15.0313 22.2807C15.0313 22.6947 15.3673 23.0307 15.7813 23.0307H17.5318V23.2797C17.5318 23.6937 17.1958 24.0308 16.7818 24.0308C16.3678 24.0308 16.0318 24.3668 16.0318 24.7808C16.0318 25.1948 16.3678 25.5308 16.7818 25.5308V25.5312L16.7979 25.5312L16.7979 25.5312H17.2813C17.4193 25.5312 17.5318 25.6437 17.5318 25.7817V26.7807C17.5318 26.9187 17.4193 27.0312 17.2813 27.0312H15.7813C15.3673 27.0312 15.0313 27.3672 15.0313 27.7812C15.0313 28.1952 15.3673 28.5312 15.7813 28.5312H17.2813C18.2458 28.5312 19.0318 27.7467 19.0318 26.7807V25.7802C19.0318 25.3352 18.8647 24.9281 18.5899 24.6188C18.8674 24.2446 19.0318 23.7817 19.0318 23.2812V22.2807C19.0318 21.8667 18.6958 21.5307 18.2818 21.5307Z" fill="#6D44FD"/>
</g>
</g>
<defs>
<clipPath id="clip0_2953_30075">
<rect width="48" height="48" fill="white" transform="translate(0.200195)"/>
</clipPath>
<clipPath id="clip1_2953_30075">
<rect width="48" height="48" fill="white" transform="translate(-1 -1)"/>
</clipPath>
</defs>
</svg>
