<svg width="49" height="48" viewBox="0 0 49 48" fill="none" xmlns="http://www.w3.org/2000/svg">
<g clip-path="url(#clip0_2953_28216)">
<rect x="0.5" width="48" height="48" rx="14" fill="#EAF2F7"/>
<path d="M36.8749 26.8315C36.8732 26.8298 36.8698 26.8263 36.8681 26.8228L35.271 25.316C35.3221 24.875 35.3459 24.4323 35.3459 24C35.3459 23.5677 35.3221 23.125 35.2727 22.6822L36.8749 21.1685C37.5407 20.5262 37.6922 19.506 37.241 18.6782L35.3578 15.3305C34.9117 14.5167 33.9497 14.1283 33.0609 14.4135L30.9921 15.0837C30.2956 14.543 29.5533 14.1002 28.7734 13.759L28.295 11.5733C28.0974 10.6615 27.2938 10 26.3879 10H22.613C21.7054 10 20.9035 10.6615 20.706 11.5715L20.2275 13.7573C19.4476 14.0985 18.7053 14.5413 18.0088 15.082L15.9383 14.4117C15.0546 14.13 14.0909 14.515 13.6482 15.3218L11.7548 18.687C11.3087 19.5042 11.4602 20.5245 12.1328 21.1755L13.7299 22.6822C13.6788 23.125 13.6533 23.5677 13.6533 24C13.6533 24.4323 13.6771 24.875 13.7265 25.3178L12.1243 26.8315C11.4585 27.4737 11.307 28.494 11.7582 29.3218L13.6414 32.6695C14.0875 33.4833 15.0529 33.8718 15.9383 33.5865L18.0071 32.9162C18.7036 33.457 19.4459 33.8997 20.2258 34.241L20.7042 36.4268C20.9018 37.3385 21.7054 38 22.6113 38H26.3862C27.2938 38 28.0957 37.3385 28.2933 36.4285L28.7717 34.2428C29.5516 33.9015 30.2939 33.4588 30.9904 32.918L33.0609 33.5882C33.9463 33.8735 34.9083 33.4867 35.351 32.6782L37.2444 29.313C37.6922 28.494 37.5407 27.4755 36.8749 26.8315ZM24.4996 31C20.7451 31 17.6887 27.8587 17.6887 24C17.6887 20.1413 20.7451 17 24.4996 17C28.2541 17 31.3105 20.1413 31.3105 24C31.3105 27.8587 28.2558 31 24.4996 31Z" fill="#2A74B0"/>
<path d="M21.5 25.148C21.5 24.8564 21.7364 24.62 22.028 24.62H26.972C27.2636 24.62 27.5 24.8564 27.5 25.148C27.5 25.4396 27.2636 25.676 26.972 25.676H23.78C23.508 25.996 23.372 26.32 23.372 26.648C23.372 26.92 23.456 27.132 23.624 27.284C23.792 27.428 24.044 27.5 24.38 27.5C24.684 27.5 24.94 27.432 25.148 27.296C25.364 27.16 25.5422 26.9602 25.7227 26.7697C25.9031 26.5793 26.3312 26.3795 26.6449 26.648C26.9179 26.8817 26.92 27.212 26.792 27.452C26.672 27.684 26.504 27.888 26.288 28.064C26.072 28.232 25.804 28.368 25.484 28.472C25.164 28.568 24.796 28.616 24.38 28.616C23.548 28.616 22.932 28.444 22.532 28.1C22.132 27.756 21.932 27.296 21.932 26.72C21.932 26.352 22.036 26.004 22.244 25.676H22.028C21.7364 25.676 21.5 25.4396 21.5 25.148ZM21.5 23.468C21.5 23.1764 21.7364 22.94 22.028 22.94H25.124C25.284 22.772 25.408 22.604 25.496 22.436C25.592 22.268 25.64 22.1 25.64 21.932C25.64 21.676 25.556 21.48 25.388 21.344C25.228 21.2 24.988 21.128 24.668 21.128C24.388 21.128 24.1954 21.148 23.972 21.32C23.7732 21.473 23.7656 21.5113 23.5743 21.6735C23.1489 22.0341 22.6839 22.0363 22.4095 21.6735C22.1058 21.272 22.536 20.832 22.952 20.504C23.376 20.168 23.932 20 24.62 20C25.452 20 26.068 20.172 26.468 20.516C26.876 20.852 27.08 21.296 27.08 21.848C27.08 22.224 26.96 22.588 26.72 22.94H26.972C27.2636 22.94 27.5 23.1764 27.5 23.468C27.5 23.7596 27.2636 23.996 26.972 23.996H22.028C21.7364 23.996 21.5 23.7596 21.5 23.468Z" fill="#2A74B0" fill-opacity="0.6"/>
</g>
<defs>
<clipPath id="clip0_2953_28216">
<rect width="48" height="48" fill="white" transform="translate(0.5)"/>
</clipPath>
</defs>
</svg>
