<svg width="48" height="48" viewBox="0 0 48 48" fill="none" xmlns="http://www.w3.org/2000/svg">
<g clip-path="url(#clip0_2953_27571)">
<rect width="48" height="48" rx="14" fill="#FBF8E9"/>
<g opacity="0.6">
<path d="M30.3437 36.8125L30.3187 36.8084C30.3222 36.8111 30.3263 36.8129 30.3307 36.8136C30.3351 36.8143 30.3395 36.8139 30.3437 36.8125Z" fill="#FFE343"/>
<path d="M36.0281 27.8681C36.021 27.8304 36.0015 27.7962 35.9727 27.7708C35.9439 27.7455 35.9074 27.7305 35.8691 27.7282C35.8308 27.726 35.7928 27.7366 35.7612 27.7583C35.7296 27.7801 35.7062 27.8118 35.6947 27.8484C35.6837 27.8832 35.6619 27.9136 35.6325 27.9352C35.6032 27.9568 35.5677 27.9685 35.5313 27.9688H35.0478C35.0165 27.9688 34.9858 27.9602 34.9591 27.9441L34.2597 27.5247C34.2329 27.5085 34.2022 27.5 34.1709 27.5H33.0522C33.0181 27.5 32.9848 27.5101 32.9566 27.5291L31.5769 28.4488C31.553 28.4646 31.5335 28.4862 31.5201 28.5115C31.5067 28.5368 31.4998 28.5651 31.5 28.5938V29.8981C31.5 29.9294 31.5084 29.9601 31.5245 29.9869C31.5406 30.0137 31.5637 30.0356 31.5913 30.0503L33.4003 31.0159C33.4275 31.0306 33.4503 31.0522 33.4663 31.0785C33.4824 31.1049 33.4911 31.1351 33.4916 31.1659L33.5 31.9C33.5005 31.9304 33.509 31.9601 33.5246 31.9862C33.5402 32.0122 33.5625 32.0337 33.5891 32.0484L34.3159 32.4506C34.3429 32.4656 34.3653 32.4875 34.381 32.514C34.3966 32.5405 34.4049 32.5708 34.405 32.6016V34.1203C34.405 34.1535 34.4146 34.186 34.4326 34.2139C34.4506 34.2417 34.4763 34.2638 34.5065 34.2775C34.5368 34.2912 34.5703 34.2958 34.6031 34.2909C34.636 34.2859 34.6667 34.2716 34.6916 34.2497C34.9847 33.9916 35.405 33.6147 35.4609 33.5284C35.5534 33.3853 35.6402 33.2387 35.7213 33.0887C35.8891 32.778 36.0312 32.454 36.1463 32.12C36.5425 30.9728 36.2294 28.9106 36.0281 27.8681Z" fill="#FFE343"/>
<path d="M30.95 31.4625L29.0334 30.025C29.0118 30.0088 28.9855 30 28.9584 30H28.049C28.0335 30 28.0181 29.9969 28.0037 29.991C27.9893 29.985 27.9763 29.9763 27.9653 29.9653L27.5365 29.5365C27.5249 29.5249 27.5111 29.5157 27.496 29.5095C27.4808 29.5032 27.4645 29.5 27.4481 29.5H25.7859C25.7625 29.5 25.7396 29.493 25.7201 29.48C25.7006 29.467 25.6855 29.4485 25.6765 29.4269C25.6675 29.4052 25.6652 29.3814 25.6698 29.3584C25.6743 29.3355 25.6856 29.3144 25.7022 29.2978L25.9653 29.0347C25.9763 29.0237 25.9893 29.0149 26.0037 29.009C26.0181 29.003 26.0335 29 26.049 29H27.0606C27.1151 29 27.1681 28.9822 27.2115 28.9493C27.255 28.9164 27.2865 28.8702 27.3012 28.8178L27.5165 28.0522C27.5211 28.0357 27.5291 28.0204 27.5398 28.0071C27.5506 27.9938 27.5639 27.9829 27.579 27.975L28.4375 27.5331C28.4568 27.5231 28.473 27.508 28.4843 27.4894C28.4956 27.4709 28.5016 27.4495 28.5015 27.4278V27.0372C28.5016 27.0129 28.509 26.9893 28.5228 26.9694L28.979 26.3125C28.9927 26.2928 29.0121 26.2777 29.0347 26.2694L29.6731 26.0297C29.6957 26.0212 29.7152 26.0061 29.7289 25.9862C29.7426 25.9664 29.75 25.9429 29.75 25.9187V25.5625C29.75 25.543 29.7452 25.5237 29.7359 25.5065C29.7267 25.4893 29.7134 25.4746 29.6972 25.4637L29.0572 25.0381C29.0396 25.0265 29.0193 25.0198 28.9983 25.0186C28.9772 25.0174 28.9563 25.0218 28.9375 25.0312L28.0662 25.4669C28.0463 25.4767 28.024 25.4807 28.0019 25.4785C27.9798 25.4762 27.9588 25.4677 27.9412 25.454L27.5281 25.1275C27.514 25.1161 27.5027 25.1017 27.495 25.0854C27.4873 25.069 27.4835 25.0511 27.4838 25.033C27.4841 25.0149 27.4885 24.9971 27.4968 24.981C27.505 24.9649 27.5168 24.9508 27.5312 24.94L27.8669 24.6928C27.8821 24.6817 27.8944 24.667 27.9028 24.6502C27.9111 24.6333 27.9154 24.6147 27.9151 24.5958C27.9148 24.577 27.9101 24.5585 27.9012 24.5419C27.8923 24.5252 27.8796 24.511 27.864 24.5003L27.3412 24.1356C27.3231 24.1229 27.3018 24.1155 27.2797 24.1143C27.2576 24.113 27.2356 24.1181 27.2162 24.1287C27.0272 24.2322 26.4725 24.5384 26.2756 24.6762C25.3647 25.315 24.6316 26.1754 24.1456 27.1762C24.0887 27.2937 24.0184 27.4134 24.0115 27.5425C24.0047 27.6715 23.9034 27.9597 23.8612 28.0762C23.8555 28.092 23.8533 28.1088 23.8546 28.1255C23.8559 28.1422 23.8607 28.1584 23.8687 28.1731L24.984 30.2225C24.9941 30.2411 25.009 30.2567 25.0272 30.2675L26.2006 30.9719C26.2158 30.9809 26.2288 30.9933 26.2386 31.0081C26.2484 31.0228 26.2547 31.0396 26.2572 31.0572L26.4922 32.7615C26.4945 32.7779 26.5001 32.7936 26.5088 32.8076C26.5174 32.8216 26.5289 32.8337 26.5425 32.8431L27.4581 33.4725C27.4846 33.4907 27.5031 33.5185 27.5097 33.55L27.9953 35.8562C27.998 35.8698 28.0032 35.8827 28.0106 35.8944C28.0562 35.9681 28.2381 36.2381 28.4575 36.2781C28.4372 36.2837 28.419 36.2966 28.3987 36.3025C28.4514 36.3118 28.5036 36.3239 28.555 36.3387C28.6175 36.3556 28.68 36.37 28.7425 36.3834C28.8403 36.4028 28.85 36.4178 28.8969 36.3309C28.9594 36.2147 29.0309 36.1747 29.0844 36.1603C29.1064 36.1552 29.1266 36.144 29.1426 36.128C29.1585 36.112 29.1697 36.0917 29.1747 36.0697L29.4894 34.6109C29.496 34.5803 29.5138 34.5534 29.5394 34.5353L30.9456 33.5384C30.962 33.5269 30.9753 33.5115 30.9845 33.4938C30.9937 33.476 30.9984 33.4563 30.9984 33.4362V31.5625C30.9986 31.5432 30.9943 31.5242 30.9859 31.5068C30.9775 31.4895 30.9652 31.4743 30.95 31.4625Z" fill="#FFE343"/>
<path d="M30.1875 23.5C30.1875 23.5 30.0734 23.5066 30.0503 23.5072C29.8809 23.5122 29.712 23.5239 29.5434 23.5422C28.929 23.6088 28.3273 23.763 27.7566 24C27.8325 24.0525 27.7019 24.1006 27.7019 24.1006L27.9062 24.5H29L29.75 24.875L30.4062 24.5L30.1875 23.5Z" fill="#FFE343"/>
<path d="M33.0697 25.7519L33.5731 25.3144C33.5889 25.3007 33.6009 25.2833 33.6083 25.2637C33.6156 25.2442 33.6179 25.2231 33.6149 25.2025C33.612 25.1818 33.604 25.1622 33.5915 25.1455C33.5791 25.1287 33.5627 25.1153 33.5437 25.1066L32.9559 24.8337C32.9261 24.8198 32.8919 24.8182 32.8609 24.8294C32.8299 24.8405 32.8045 24.8634 32.7903 24.8931L32.5481 25.3997C32.5349 25.4274 32.5324 25.4589 32.541 25.4884C32.5496 25.5178 32.5687 25.5431 32.5947 25.5594L32.9215 25.7637C32.9443 25.7779 32.9709 25.7843 32.9976 25.7822C33.0242 25.7801 33.0495 25.7694 33.0697 25.7519Z" fill="#FFE343"/>
<path d="M35.4263 26.396L35.2441 26.1147C35.2413 26.1103 35.2388 26.106 35.2363 26.1013C35.2035 26.0341 34.9319 25.4856 34.705 25.2728C34.5347 25.1119 34.4863 25.1581 34.4728 25.1938C34.4651 25.2135 34.4523 25.2307 34.4356 25.2438L33.5344 25.9722C33.5122 25.9902 33.4845 26 33.456 26H32.9894C32.973 26 32.9567 26.0032 32.9415 26.0095C32.9264 26.0158 32.9126 26.025 32.901 26.0366L32.526 26.4116C32.5143 26.4232 32.5051 26.437 32.4988 26.4521C32.4925 26.4673 32.4893 26.4836 32.4893 26.5C32.4893 26.5164 32.4925 26.5327 32.4988 26.5479C32.5051 26.5631 32.5143 26.5768 32.526 26.5885L32.901 26.9635C32.9126 26.9751 32.9264 26.9843 32.9415 26.9905C32.9567 26.9968 32.973 27 32.9894 27H35.3385C35.3553 27 35.372 26.9966 35.3876 26.99C35.4031 26.9834 35.4171 26.9737 35.4288 26.9615C35.4405 26.9494 35.4496 26.935 35.4555 26.9192C35.4615 26.9034 35.4642 26.8866 35.4635 26.8697L35.4463 26.4588C35.4453 26.4364 35.4384 26.4147 35.4263 26.396Z" fill="#FFE343"/>
<path d="M30 24.25C31.3303 24.2499 32.6195 24.711 33.6479 25.5549C34.6763 26.3987 35.3803 27.5731 35.6399 28.8778C35.8995 30.1825 35.6987 31.5369 35.0717 32.7102C34.4447 33.8834 33.4303 34.803 32.2013 35.3122C30.9723 35.8213 29.6048 35.8886 28.3317 35.5025C27.0587 35.1164 25.9589 34.3009 25.2197 33.1948C24.4806 32.0888 24.1478 30.7607 24.2781 29.4368C24.4084 28.1129 24.9938 26.8751 25.9344 25.9344C26.467 25.3987 27.1006 24.974 27.7984 24.6849C28.4963 24.3958 29.2446 24.248 30 24.25ZM30 23C26.1344 23 23 26.1344 23 30C23 33.8656 26.1344 37 30 37C33.8656 37 37 33.8656 37 30C37 26.1344 33.8656 23 30 23Z" fill="#FFE343"/>
</g>
<path d="M33 16.2078C33 14.4385 31.7669 13 30.2504 13H15.7496C14.2331 12.9983 13 14.4385 13 16.2078V20H33V16.2078Z" fill="#FFE343"/>
<path d="M20.8745 32H16.375C14.5136 32 13 30.5649 13 28.8002V17.0671C13 16.4785 13.503 16 14.1255 16C14.7481 16 15.2495 16.4785 15.2495 17.0671V28.8002C15.2495 29.3889 15.7541 29.8673 16.375 29.8673H20.8745C21.497 29.8658 22 30.3443 22 30.9329C22 31.5215 21.497 32 20.8745 32Z" fill="#FFE343"/>
<path d="M32 22C31.4469 22 31 21.5514 31 20.9996V19.0004C31 18.4486 31.4469 18 32 18C32.5516 18 33 18.4486 33 19.0004V20.9996C32.9985 21.5514 32.5516 22 32 22Z" fill="#FFE343"/>
<path d="M20 17C20 16.4469 20.4486 16 21.0004 16L27.9996 16C28.5514 16 29 16.4469 29 17C29 17.5516 28.5514 18 27.9996 18L21.0004 18C20.4486 17.9985 20 17.5516 20 17Z" fill="#F1920D" fill-opacity="0.6"/>
<path d="M15.0001 17C15.0001 16.4469 15.4487 16 16.0005 16C16.5523 16 17.001 16.4469 17.001 17C17.001 17.5516 16.5524 18 16.0006 18C15.4488 17.9985 15.0001 17.5516 15.0001 17Z" fill="#F1920D" fill-opacity="0.6"/>
</g>
<defs>
<clipPath id="clip0_2953_27571">
<rect width="48" height="48" fill="white"/>
</clipPath>
</defs>
</svg>
