<svg width="48" height="48" viewBox="0 0 48 48" fill="none" xmlns="http://www.w3.org/2000/svg">
<g clip-path="url(#clip0_2953_27602)">
<rect width="48" height="48" rx="14" fill="#ECF7EA"/>
<path d="M31 17.7495C31 16.233 29.8286 15 28.3879 15H14.6121C13.1714 14.9985 12 16.233 12 17.7495V21H31V17.7495Z" fill="#43B02A"/>
<path d="M17 17C16.4484 17 16 16.5513 16 15.9994V12.9991C16.0015 12.4472 16.4484 12 17 12C17.5516 12 18 12.4472 18 13.0006V16.0009C18 16.5528 17.5531 17 17 17Z" fill="#43B02A" fill-opacity="0.6"/>
<path d="M26 17C25.4484 17 25 16.5513 25 15.9994V12.9991C25 12.4472 25.4484 12 26 12C26.5516 12 27 12.4487 27 13.0006V16.0009C27 16.5528 26.5531 17 26 17Z" fill="#43B02A" fill-opacity="0.6"/>
<path d="M18.9995 33H15C13.3455 33 12 31.6546 12 30.0002V19.0004C12 18.4486 12.4471 18 13.0005 18C13.5538 18 13.9995 18.4486 13.9995 19.0004V30.0002C13.9995 30.5521 14.4481 31.0006 15 31.0006H18.9995C19.5529 30.9992 20 31.4477 20 31.9996C20 32.5514 19.5529 33 18.9995 33Z" fill="#43B02A"/>
<path d="M30 24C29.4469 24 29 23.5514 29 22.9996V21.0004C29 20.4486 29.4469 20 30 20C30.5516 20 31 20.4486 31 21.0004V22.9996C30.9985 23.5514 30.5516 24 30 24Z" fill="#43B02A"/>
<path fill-rule="evenodd" clip-rule="evenodd" d="M24.4 26C23.0745 26 22 27.0745 22 28.4V29H36.0004V28.4C36.0004 27.0745 34.9259 26 33.6004 26H24.4ZM36.0004 31H22V33.6C22 34.9255 23.0745 36 24.4 36H33.6004C34.9259 36 36.0004 34.9255 36.0004 33.6V31Z" fill="#43B02A" fill-opacity="0.6"/>
</g>
<defs>
<clipPath id="clip0_2953_27602">
<rect width="48" height="48" fill="white"/>
</clipPath>
</defs>
</svg>
