<svg width="49" height="48" viewBox="0 0 49 48" fill="none" xmlns="http://www.w3.org/2000/svg">
<g clip-path="url(#clip0_2953_27591)">
<rect x="0.5" width="48" height="48" rx="14" fill="#FFE7D9"/>
<path d="M31.1705 15.9299C29.8625 13.5285 27.2915 12 24.5 12C20.9555 12 17.8805 14.4659 17.102 17.8288C14.519 18.1003 12.5 20.2707 12.5 22.9002C12.5 25.7126 14.81 28 17.6495 28H17.999V23.0007H17.249C16.835 23.0007 16.499 22.6647 16.499 22.2507C16.499 21.8367 16.835 21.5007 17.249 21.5007H31.7495C32.1635 21.5007 32.4995 21.8367 32.4995 22.2507C32.4995 22.6647 32.1635 23.0007 31.7495 23.0007H30.9995V27.9685C34.085 27.655 36.5 25.0661 36.5 21.9297C36.5 18.8623 34.193 16.3064 31.1705 15.9299Z" fill="#FF823E"/>
<path opacity="0.6" fill-rule="evenodd" clip-rule="evenodd" d="M19.5 34.2496V23H29.5V34.2496C29.5 35.2155 28.714 36 27.7496 36H21.2504C20.2845 36 19.5 35.214 19.5 34.2496ZM22.028 29.62C21.7364 29.62 21.5 29.8564 21.5 30.148C21.5 30.4396 21.7364 30.676 22.028 30.676H22.244C22.036 31.004 21.932 31.352 21.932 31.72C21.932 32.296 22.132 32.756 22.532 33.1C22.932 33.444 23.548 33.616 24.38 33.616C24.796 33.616 25.164 33.568 25.484 33.472C25.804 33.368 26.072 33.232 26.288 33.064C26.504 32.888 26.672 32.684 26.792 32.452C26.92 32.212 26.9179 31.8817 26.6449 31.648C26.3312 31.3795 25.9031 31.5793 25.7227 31.7697C25.7044 31.789 25.6861 31.8084 25.6679 31.8278C25.5057 32 25.3421 32.1738 25.148 32.296C24.94 32.432 24.684 32.5 24.38 32.5C24.044 32.5 23.792 32.428 23.624 32.284C23.456 32.132 23.372 31.92 23.372 31.648C23.372 31.32 23.508 30.996 23.78 30.676H26.972C27.2636 30.676 27.5 30.4396 27.5 30.148C27.5 29.8564 27.2636 29.62 26.972 29.62H22.028ZM22.028 27.94C21.7364 27.94 21.5 28.1764 21.5 28.468C21.5 28.7596 21.7364 28.996 22.028 28.996H26.972C27.2636 28.996 27.5 28.7596 27.5 28.468C27.5 28.1764 27.2636 27.94 26.972 27.94H26.72C26.96 27.588 27.08 27.224 27.08 26.848C27.08 26.296 26.876 25.852 26.468 25.516C26.068 25.172 25.452 25 24.62 25C23.932 25 23.376 25.168 22.952 25.504C22.536 25.832 22.1058 26.272 22.4095 26.6735C22.6839 27.0363 23.1489 27.0341 23.5743 26.6735C23.6575 26.603 23.7059 26.5559 23.7505 26.5126C23.8084 26.4563 23.8596 26.4065 23.972 26.32C24.1954 26.148 24.388 26.128 24.668 26.128C24.988 26.128 25.228 26.2 25.388 26.344C25.556 26.48 25.64 26.676 25.64 26.932C25.64 27.1 25.592 27.268 25.496 27.436C25.408 27.604 25.284 27.772 25.124 27.94H22.028Z" fill="#FF8E3E"/>
</g>
<defs>
<clipPath id="clip0_2953_27591">
<rect width="48" height="48" fill="white" transform="translate(0.5)"/>
</clipPath>
</defs>
</svg>
