<svg width="20" height="20" viewBox="0 0 20 20" fill="none" xmlns="http://www.w3.org/2000/svg">
<path fill-rule="evenodd" clip-rule="evenodd" d="M2 3.5C2 2.39543 2.89543 1.5 4 1.5L5 1.5C6.10457 1.5 7 2.39543 7 3.5L7 4.5C7 5.60457 6.10457 6.5 5 6.5L4 6.5C2.89543 6.5 2 5.60457 2 4.5L2 3.5ZM4 2.5L5 2.5C5.55228 2.5 6 2.94772 6 3.5V4.5C6 5.05228 5.55228 5.5 5 5.5L4 5.5C3.44772 5.5 3 5.05228 3 4.5V3.5C3 2.94772 3.44772 2.5 4 2.5Z" fill="#43B02A"/>
<path fill-rule="evenodd" clip-rule="evenodd" d="M2 9.5C2 8.39543 2.89543 7.5 4 7.5L5 7.5C6.10457 7.5 7 8.39543 7 9.5L7 10.5C7 11.6046 6.10457 12.5 5 12.5H4C2.89543 12.5 2 11.6046 2 10.5L2 9.5ZM4 8.5H5C5.55228 8.5 6 8.94772 6 9.5V10.5C6 11.0523 5.55228 11.5 5 11.5H4C3.44772 11.5 3 11.0523 3 10.5V9.5C3 8.94772 3.44772 8.5 4 8.5Z" fill="#43B02A"/>
<path fill-rule="evenodd" clip-rule="evenodd" d="M4 13.5C2.89543 13.5 2 14.3954 2 15.5L2 16.5C2 17.6046 2.89543 18.5 4 18.5H5C6.10457 18.5 7 17.6046 7 16.5V15.5C7 14.3954 6.10457 13.5 5 13.5H4ZM5 14.5H4C3.44772 14.5 3 14.9477 3 15.5L3 16.5C3 17.0523 3.44772 17.5 4 17.5H5C5.55228 17.5 6 17.0523 6 16.5V15.5C6 14.9477 5.55228 14.5 5 14.5Z" fill="#43B02A"/>
<path d="M5 2.5L4 2.5C3.44772 2.5 3 2.94772 3 3.5V4.5C3 5.05228 3.44772 5.5 4 5.5L5 5.5C5.55228 5.5 6 5.05228 6 4.5V3.5C6 2.94772 5.55228 2.5 5 2.5Z" fill="#43B02A"/>
<path d="M5 8.5H4C3.44772 8.5 3 8.94772 3 9.5V10.5C3 11.0523 3.44772 11.5 4 11.5H5C5.55228 11.5 6 11.0523 6 10.5V9.5C6 8.94772 5.55228 8.5 5 8.5Z" fill="#43B02A"/>
<path d="M4 14.5H5C5.55228 14.5 6 14.9477 6 15.5V16.5C6 17.0523 5.55228 17.5 5 17.5H4C3.44772 17.5 3 17.0523 3 16.5L3 15.5C3 14.9477 3.44772 14.5 4 14.5Z" fill="#43B02A"/>
<path fill-rule="evenodd" clip-rule="evenodd" d="M5 3L4 3C3.72386 3 3.5 3.22386 3.5 3.5L3.5 4.5C3.5 4.77614 3.72386 5 4 5H5C5.27614 5 5.5 4.77614 5.5 4.5V3.5C5.5 3.22386 5.27614 3 5 3ZM5 9H4C3.72386 9 3.5 9.22386 3.5 9.5L3.5 10.5C3.5 10.7761 3.72386 11 4 11H5C5.27614 11 5.5 10.7761 5.5 10.5V9.5C5.5 9.22386 5.27614 9 5 9ZM5 15H4C3.72386 15 3.5 15.2239 3.5 15.5L3.5 16.5C3.5 16.7761 3.72386 17 4 17H5C5.27614 17 5.5 16.7761 5.5 16.5V15.5C5.5 15.2239 5.27614 15 5 15ZM4 1.5C2.89543 1.5 2 2.39543 2 3.5L2 4.5C2 5.60457 2.89543 6.5 4 6.5L5 6.5C6.10457 6.5 7 5.60457 7 4.5L7 3.5C7 2.39543 6.10457 1.5 5 1.5L4 1.5ZM4 7.5C2.89543 7.5 2 8.39543 2 9.5L2 10.5C2 11.6046 2.89543 12.5 4 12.5H5C6.10457 12.5 7 11.6046 7 10.5L7 9.5C7 8.39543 6.10457 7.5 5 7.5L4 7.5ZM4 13.5C2.89543 13.5 2 14.3954 2 15.5L2 16.5C2 17.6046 2.89543 18.5 4 18.5H5C6.10457 18.5 7 17.6046 7 16.5V15.5C7 14.3954 6.10457 13.5 5 13.5H4Z" fill="#43B02A"/>
<path d="M10 3.5C9.72386 3.5 9.5 3.72386 9.5 4C9.5 4.27614 9.72386 4.5 10 4.5L17.5 4.5C17.7761 4.5 18 4.27614 18 4C18 3.72386 17.7761 3.5 17.5 3.5L10 3.5Z" fill="#43B02A"/>
<path d="M10 9.5C9.72386 9.5 9.5 9.72386 9.5 10C9.5 10.2761 9.72386 10.5 10 10.5H17.5C17.7761 10.5 18 10.2761 18 10C18 9.72386 17.7761 9.5 17.5 9.5H10Z" fill="#43B02A"/>
<path d="M9.5 16C9.5 15.7239 9.72386 15.5 10 15.5H17.5C17.7761 15.5 18 15.7239 18 16C18 16.2761 17.7761 16.5 17.5 16.5H10C9.72386 16.5 9.5 16.2761 9.5 16Z" fill="#43B02A"/>
<path fill-rule="evenodd" clip-rule="evenodd" d="M9 4C9 3.44772 9.44771 3 10 3L17.5 3C18.0523 3 18.5 3.44772 18.5 4C18.5 4.55228 18.0523 5 17.5 5L10 5C9.44772 5 9 4.55228 9 4ZM9 10C9 9.44772 9.44771 9 10 9L17.5 9C18.0523 9 18.5 9.44772 18.5 10C18.5 10.5523 18.0523 11 17.5 11H10C9.44772 11 9 10.5523 9 10ZM9 16C9 15.4477 9.44771 15 10 15H17.5C18.0523 15 18.5 15.4477 18.5 16C18.5 16.5523 18.0523 17 17.5 17H10C9.44772 17 9 16.5523 9 16Z" fill="#43B02A"/>
</svg>
