<svg width="20" height="20" viewBox="0 0 20 20" fill="none" xmlns="http://www.w3.org/2000/svg">
<path fill-rule="evenodd" clip-rule="evenodd" d="M13.0068 14.7502C13.0068 15.0264 13.2307 15.2502 13.5068 15.2502C13.783 15.2502 14.0068 15.0264 14.0068 14.7502V4.41516L16.3193 6.61267C16.5194 6.8029 16.8359 6.79483 17.0261 6.59466C17.2164 6.39449 17.2083 6.07801 17.0081 5.88779L14.1957 3.21512C13.8097 2.8483 13.204 2.8483 12.818 3.21512L10.0055 5.8878C9.80537 6.07803 9.79731 6.39451 9.98753 6.59468C10.1778 6.79485 10.4942 6.80291 10.6944 6.61269L13.0068 4.41516V14.7502ZM7.00683 5.25024C7.00683 4.9741 6.78297 4.75024 6.50683 4.75024C6.23069 4.75024 6.00683 4.9741 6.00683 5.25024V15.5853L3.69441 13.3878C3.49424 13.1976 3.17776 13.2057 2.98753 13.4058C2.79731 13.606 2.80537 13.9225 3.00554 14.1127L5.81796 16.7854C6.20396 17.1522 6.8097 17.1522 7.1957 16.7854L10.0081 14.1127C10.2083 13.9225 10.2164 13.606 10.0261 13.4058C9.8359 13.2056 9.51942 13.1976 9.31925 13.3878L7.00683 15.5853V5.25024Z" fill="#616161"/>
</svg>
