<svg width="8" height="8" viewBox="0 0 8 8" fill="none" xmlns="http://www.w3.org/2000/svg">
<g clip-path="url(#clip0_3275_148)">
<path fill-rule="evenodd" clip-rule="evenodd" d="M3.8559 6.60974C4.07139 6.86148 4.042 7.24024 3.79026 7.45573C3.53852 7.67121 3.15976 7.64182 2.94427 7.39008L0.739621 4.8145C0.286908 4.36687 0.286908 3.63295 0.739622 3.18533L2.94427 0.609744C3.15976 0.358004 3.53852 0.328613 3.79026 0.544098C4.042 0.759582 4.07139 1.13834 3.8559 1.39008L2.13227 3.40372C2.15453 3.40121 2.17717 3.39992 2.2001 3.39992H7.0001C7.33147 3.39992 7.6001 3.66855 7.6001 3.99992C7.6001 4.3313 7.33147 4.59992 7.0001 4.59992H2.2001C2.17717 4.59992 2.15455 4.59864 2.13229 4.59614L3.8559 6.60974Z" fill="#616161"/>
</g>
<defs>
<clipPath id="clip0_3275_148">
<rect width="7.2" height="7.2" fill="white" transform="matrix(-1 0 0 1 7.6001 0.399902)"/>
</clipPath>
</defs>
</svg>
