<svg width="384" height="93" viewBox="0 0 384 93" fill="none" xmlns="http://www.w3.org/2000/svg">
<path fill-rule="evenodd" clip-rule="evenodd" d="M46.7851 0C144.283 0.0191997 241.772 -0.00959983 339.27 0.0191997C349.364 -0.0287995 359.421 3.62873 367.282 10.2142C377.625 18.7581 384.075 32.2746 383.992 46.06C384.213 57.4166 380.089 68.754 372.827 77.221C364.505 87.1568 351.966 92.9071 339.325 92.9647C244.881 92.9935 150.437 92.9647 55.9933 92.9743C48.0307 92.9167 39.8836 93.5215 32.1609 91.0352C17.6935 86.744 5.76345 74.3219 1.74063 59.2213C-1.36875 48.3351 -0.233871 36.3737 4.51785 26.1787C10.6167 12.9118 23.128 3.11994 37.0787 0.691188C40.2803 0.124798 43.5466 0 46.7851 0Z" fill="white"/>
<path d="M331.559 22.2145C342.934 18.8662 355.955 25.1396 360.693 36.0687C364.146 43.4801 363.616 52.5563 359.353 59.5258C354.773 67.3322 345.745 72.2795 336.753 71.6305C325.099 71.3389 314.674 61.5479 313.306 49.8852C311.417 37.7428 319.766 25.149 331.559 22.2145Z" fill="#FF671F"/>
<path d="M45.2413 17.6543C56.1259 15.6793 67.8663 21.2305 73.6721 31.0099C76.4783 35.7749 72.3747 42.889 66.9462 42.0836C63.8915 42.4959 61.7385 39.9935 60.1007 37.6925C56.1075 32.5343 48.526 31.1921 43.0515 34.519C37.5217 37.6062 34.3934 45.1516 36.6753 51.3548C38.3958 57.3663 44.3948 61.8149 50.4398 61.1917C55.3163 61.4123 59.0426 57.7114 62.0881 54.2407C66.1365 50.166 73.534 53.6367 73.8837 59.303C74.4449 64.3077 70.1665 67.8264 66.8818 70.7027C56.1259 79.5041 39.3987 78.3632 29.8022 68.2195C19.9848 58.6414 18.3471 41.6042 26.2046 30.2141C30.5475 23.5507 37.6137 18.9487 45.2413 17.6543Z" fill="#43B02A"/>
<path fill-rule="evenodd" clip-rule="evenodd" d="M132.934 40.9613C130.266 25.6978 114.652 14.6433 100.05 17.7976C84.4825 20.2712 73.1378 37.9316 77.3058 53.8471C80.3421 68.7175 95.588 79.2447 109.923 76.263C125.27 73.914 136.661 56.733 132.934 40.9613ZM91.3651 47.9219C90.7578 40.827 96.0484 33.9719 102.793 32.946C110.337 31.3449 118.259 37.7878 118.71 45.7838C119.603 53.7416 112.868 61.6418 105.111 61.2391C98.0633 61.6705 91.6411 55.1797 91.3651 47.9219Z" fill="#43B02A"/>
<path d="M138.122 24.7696C137.874 18.9212 145.29 15.019 149.633 18.8061C155.678 24.5971 161.309 30.877 167.17 36.8692C172.791 31.0879 178.312 25.1915 183.97 19.4485C186.041 17.3105 189.436 16.5818 192.076 17.9624C194.883 19.2663 196.668 22.5453 196.52 25.7188C196.493 40.1674 196.539 54.6159 196.493 69.0645C196.548 73.5323 192.343 77.4153 188.074 76.6579C184.513 76.2552 181.615 72.8133 181.679 69.0837C181.624 60.5986 181.661 52.104 181.679 43.6189C178.468 46.8404 175.34 50.1577 172.156 53.4079C169.709 55.8815 165.67 56.2171 162.956 54.0023C159.294 50.8768 156.313 46.9842 152.789 43.6764C152.687 52.267 152.871 60.8575 152.706 69.4384C152.724 73.9158 148.207 77.5783 144.048 76.5908C140.671 75.9868 137.8 72.6119 138.104 68.9686C138.095 54.2324 138.058 39.5058 138.122 24.7696Z" fill="#43B02A"/>
<path d="M202.561 25.0462C202.423 20.7222 206.26 17.0118 210.354 17.2707C220.208 17.2898 230.062 17.2515 239.916 17.2898C242.621 17.2898 245.253 19.0444 246.458 21.5659C248.823 25.9283 245.713 32.3712 240.781 32.4958C232.97 32.6972 225.14 32.515 217.328 32.5821C217.319 35.7269 217.319 38.8812 217.328 42.0259C223.925 42.0547 230.522 41.9972 237.119 42.0355C241.766 41.8533 245.934 46.8581 244.6 51.6231C243.864 55.1706 240.505 57.7017 237.064 57.5483C230.485 57.5962 223.907 57.5291 217.328 57.5579C217.264 61.6135 217.439 65.669 217.264 69.715C217.025 74.3938 212.01 77.8932 207.759 76.3496C205.652 75.8415 204.327 73.9623 203.048 72.3132C202.174 68.0372 202.607 63.6556 202.524 59.3316C202.552 47.9031 202.45 36.4747 202.561 25.0462Z" fill="#43B02A"/>
<path d="M250.406 25.7799C249.652 20.7177 254.841 16.0389 259.524 17.5442C262.763 18.5221 264.622 21.6668 267.005 23.9008C270.639 27.4578 273.979 31.3408 277.659 34.869C282.803 29.6917 287.734 24.2938 292.896 19.1357C295.767 16.4128 300.533 16.8155 303.054 19.8548C305.667 22.7119 305.603 27.6208 302.87 30.3628C296.944 36.6235 290.899 42.7692 284.992 49.0587C284.974 55.7221 285.085 62.3855 284.965 69.0489C285.13 72.6251 282.379 75.9232 279.058 76.5464C274.733 77.6011 270.013 73.6414 270.326 68.9722C270.262 62.3376 270.326 55.7029 270.308 49.0683C265.551 43.8526 260.5 38.9246 255.715 33.7377C253.562 31.427 250.517 29.3369 250.406 25.7799Z" fill="#43B02A"/>
</svg>
