<svg width="35" height="35" viewBox="0 0 35 35" fill="none" xmlns="http://www.w3.org/2000/svg">
<path d="M17.5 16.042C16.6961 16.042 16.0417 16.6964 16.0417 17.5003C16.0417 18.0329 16.3431 18.4798 16.7709 18.7344V19.6878C16.7709 20.0908 17.0971 20.4169 17.5001 20.4169C17.9031 20.4169 18.2293 20.0908 18.2293 19.6878V18.7344C18.6571 18.4798 18.9585 18.0329 18.9585 17.5003C18.9583 16.6964 18.3039 16.042 17.5 16.042Z" fill="white"/>
<path d="M17.5 10.2087C16.2937 10.2087 15.3125 11.19 15.3125 12.3962V13.1254H19.6875V12.3962C19.6875 11.19 18.7062 10.2087 17.5 10.2087Z" fill="white"/>
<path d="M30.1385 4.41662L17.7429 0.0416816C17.5862 -0.0138939 17.4139 -0.0138939 17.2573 0.0416816L4.86161 4.41662C4.57041 4.51985 4.37524 4.79547 4.37524 5.10452V13.8544C4.37524 25.1777 6.05433 29.3163 17.1718 34.9217C17.275 34.9736 17.3876 35 17.5001 35C17.6126 35 17.7251 34.9737 17.8283 34.9217C28.9458 29.3163 30.6249 25.1777 30.6249 13.8544V5.10452C30.6249 4.79547 30.4297 4.51991 30.1385 4.41662ZM24.0625 21.8751C24.0625 22.679 23.4081 23.3334 22.6042 23.3334H12.3959C11.5921 23.3334 10.9377 22.679 10.9377 21.8751V14.5836C10.9377 13.7797 11.5921 13.1253 12.3959 13.1253V12.3961C12.3959 9.582 14.686 7.29199 17.5001 7.29199C20.3142 7.29199 22.6042 9.582 22.6042 12.3961V13.1253C23.4081 13.1253 24.0625 13.7797 24.0625 14.5836V21.8751Z" fill="white"/>
</svg>
