<svg width="35" height="35" viewBox="0 0 35 35" fill="none" xmlns="http://www.w3.org/2000/svg">
<g clip-path="url(#clip0)">
<path d="M31.5 4.6499H15.54L14 -0.600098H3.50002C1.575 -0.600098 0 0.974901 0 2.89993V25.6499C0 27.5749 1.575 29.1499 3.50002 29.1499H15.75L17.5 34.3999H31.5C33.425 34.3999 35 32.8249 35 30.8999V8.14992C35 6.2249 33.425 4.6499 31.5 4.6499ZM9.03877 21.4236C5.0925 21.4236 1.89 18.2124 1.89 14.2749C1.89 10.3374 5.10127 7.12609 9.03877 7.12609C10.8588 7.12609 12.5125 7.77356 13.825 8.98984L13.9388 9.10362L11.8038 11.1686L11.6988 11.0724C11.2 10.5999 10.3338 10.0486 9.03877 10.0486C6.74624 10.0486 4.8825 11.9474 4.8825 14.2836C4.8825 16.6199 6.74624 18.5187 9.03877 18.5187C11.4363 18.5187 12.4775 16.9874 12.7575 15.9636H8.88997V13.2511H15.8025L15.8287 13.3736C15.8987 13.7411 15.925 14.0649 15.925 14.4324C15.9163 18.5536 13.09 21.4236 9.03877 21.4236ZM18.6812 15.2811H25.6725C25.6725 15.2811 25.0775 17.5824 22.9425 20.0674C22.0063 18.9912 21.3587 17.9412 20.9475 17.1012H19.215L18.6812 15.2811ZM21.6825 21.4236L20.7463 22.3512L19.6 18.4487C20.1862 19.4986 20.895 20.5049 21.6825 21.4236ZM33.25 30.8999C33.25 31.8623 32.4624 32.6498 31.5 32.6498H19.25L22.75 29.1498L21.3238 24.311L22.9338 22.701L27.6325 27.3998L28.91 26.1223L24.1762 21.4236C25.7512 19.6123 26.9762 17.4861 27.5275 15.2898H29.7499V13.4699H23.3887V11.6499H21.5687V13.4699H18.1387L16.0562 6.39987H31.5C32.4624 6.39987 33.25 7.18737 33.25 8.14984V30.8999Z" fill="white"/>
</g>
<defs>
<clipPath id="clip0">
<rect width="35" height="35" fill="white"/>
</clipPath>
</defs>
</svg>
