<svg width="35" height="36" viewBox="0 0 35 36" fill="none" xmlns="http://www.w3.org/2000/svg">
<path d="M17.4928 8.17203L24.3105 5.50953H24.3107L17.5001 3.17578L10.5233 5.56653H10.5237L17.4928 8.17203Z" fill="white"/>
<path d="M16.5075 9.94803L9.1003 7.17889L9.10004 7.17822V15.4347L16.5075 18.2925V9.94803Z" fill="white"/>
<path d="M18.4926 9.93715V18.2413L25.9001 15.3835V7.04468L25.8998 7.04528L18.4926 9.93715Z" fill="white"/>
<path d="M8.10776 23.7829L0.700012 20.8301V30.649L8.10782 33.2648L8.10776 33.2646V23.7829Z" fill="white"/>
<path d="M10.0939 23.7828V33.2645L16.5086 30.9994V21.2256L10.0939 23.7828Z" fill="white"/>
<path d="M14.7428 19.764L7.73033 17.0586L2.17108 19.254L9.10107 22.0163L14.7428 19.764Z" fill="white"/>
<path d="M25.9005 22.0165L32.8299 19.2541L27.2054 17.033L20.1934 19.7382L25.9005 22.0165Z" fill="white"/>
<path d="M26.8926 33.2647L34.2998 30.6491V20.8301L26.8926 23.783V33.2647Z" fill="white"/>
<path d="M24.9076 23.7829L18.4926 21.2258V30.9995L24.9077 33.2648L24.9076 33.2646V23.7829Z" fill="white"/>
</svg>
