<svg width="35" height="35" viewBox="0 0 35 35" fill="none" xmlns="http://www.w3.org/2000/svg">
<path fill-rule="evenodd" clip-rule="evenodd" d="M5.83335 0C2.61168 0 0 2.61167 0 5.83333V9.72222C0 12.9439 2.61168 15.5555 5.83335 15.5555H9.72225C12.9439 15.5555 15.5556 12.9439 15.5556 9.72222V5.83333C15.5556 2.61167 12.9439 0 9.72226 0H5.83335ZM25.2777 0C22.0561 0 19.4444 2.61167 19.4444 5.83333V9.72222C19.4444 12.9439 22.0561 15.5555 25.2777 15.5555H29.1666C32.3883 15.5555 35 12.9439 35 9.72222V5.83333C35 2.61167 32.3883 0 29.1667 0H25.2777ZM0 25.2778C0 22.0561 2.61168 19.4445 5.83335 19.4445H9.72226C12.9439 19.4445 15.5556 22.0561 15.5556 25.2778V29.1667C15.5556 32.3883 12.9439 35 9.72225 35H5.83335C2.61168 35 0 32.3883 0 29.1667V25.2778ZM25.2777 19.4445C22.0561 19.4445 19.4444 22.0561 19.4444 25.2778V29.1667C19.4444 32.3883 22.0561 35 25.2777 35H29.1666C32.3883 35 35 32.3883 35 29.1667V25.2778C35 22.0561 32.3883 19.4445 29.1667 19.4445H25.2777Z" fill="white"/>
</svg>
