<svg width="35" height="35" viewBox="0 0 35 35" fill="none" xmlns="http://www.w3.org/2000/svg">
<path d="M17.5001 16.6304C17.0097 16.6304 16.5316 16.6812 16.0679 16.7691V17.9824V28.3464C16.0673 28.9905 15.8113 29.5604 15.3899 29.9838C14.9666 30.4051 14.3973 30.6611 13.7526 30.6624C13.1091 30.6617 12.5386 30.4058 12.1152 29.9838C11.6932 29.5604 11.4379 28.9905 11.4372 28.3464V27.5043H8.4895V28.3464C8.48885 29.7949 9.08087 31.1202 10.0311 32.0679C10.9787 33.0181 12.3041 33.6101 13.7526 33.6095C15.201 33.6101 16.5264 33.0181 17.474 32.0679C18.4243 31.1202 19.0163 29.7949 19.0156 28.3464V17.9824V16.7841C18.5259 16.6857 18.0192 16.6304 17.5001 16.6304Z" fill="white"/>
<path d="M19.0151 3.77971V1.3999H16.068V3.7732C7.76538 4.42775 1.17368 10.1656 0.700195 18.3191C1.67713 16.7065 3.47078 15.6201 5.53406 15.6201C7.82399 15.6201 9.78633 16.9592 10.6623 18.8746L10.6708 18.8623C11.8288 16.3105 14.4476 14.5253 17.5002 14.5253C20.5482 14.5253 23.1625 16.3027 24.3296 18.8499L24.342 18.8753C25.2134 16.9599 27.1797 15.6208 29.4709 15.6208C31.5296 15.6208 33.3278 16.7072 34.3002 18.3197C33.8267 10.193 27.2813 4.46682 19.0151 3.77971Z" fill="white"/>
</svg>
