<svg width="35" height="35" viewBox="0 0 35 35" fill="none" xmlns="http://www.w3.org/2000/svg">
<g clip-path="url(#clip0)">
<path d="M33.9292 7.78462H20.0089V4.57224C20.0089 4.25314 19.8676 3.95118 19.6213 3.74773C19.3771 3.54427 19.0495 3.45647 18.7411 3.52072L1.60839 6.7331C1.10083 6.82733 0.734619 7.26849 0.734619 7.78462V31.3421C0.734619 31.856 1.10083 32.2994 1.60839 32.3936L18.7411 35.606C18.8053 35.6188 18.8717 35.6252 18.9381 35.6252C19.1865 35.6252 19.4285 35.5396 19.6213 35.379C19.8676 35.1755 20.0089 34.8714 20.0089 34.5544V31.3421H33.9292C34.5203 31.3421 35 30.8623 35 30.2713V8.85541C35 8.26433 34.5203 7.78462 33.9292 7.78462ZM15.4602 23.1419C15.8499 23.5852 15.805 24.262 15.3595 24.6517C15.1561 24.8295 14.9055 24.9173 14.6549 24.9173C14.3572 24.9173 14.0617 24.7931 13.8497 24.5511L10.7358 20.9939L8.0053 24.5061C7.79329 24.776 7.47633 24.9173 7.15938 24.9173C6.93023 24.9173 6.69894 24.8445 6.50191 24.6924C6.03505 24.3284 5.95152 23.6559 6.31345 23.189L9.29882 19.3513L6.35414 15.9847C5.96437 15.5414 6.00935 14.8647 6.4548 14.4749C6.8981 14.0852 7.5727 14.128 7.96676 14.5756L10.6395 17.6295L13.8111 13.5519C14.1752 13.0872 14.8477 13.0015 15.3145 13.3656C15.7814 13.7275 15.8649 14.4 15.5009 14.869L12.0743 19.2721L15.4602 23.1419ZM32.8584 29.2005H20.0089V27.0589H23.2213C23.8124 27.0589 24.2921 26.5792 24.2921 25.9881C24.2921 25.397 23.8124 24.9173 23.2213 24.9173H20.0089V22.7757H23.2213C23.8124 22.7757 24.2921 22.296 24.2921 21.7049C24.2921 21.1138 23.8124 20.6341 23.2213 20.6341H20.0089V18.4925H23.2213C23.8124 18.4925 24.2921 18.0128 24.2921 17.4218C24.2921 16.8307 23.8124 16.351 23.2213 16.351H20.0089V14.2094H23.2213C23.8124 14.2094 24.2921 13.7297 24.2921 13.1386C24.2921 12.5475 23.8124 12.0678 23.2213 12.0678H20.0089V9.9262H32.8584V29.2005Z" fill="white"/>
<path d="M29.6459 12.0676H27.5043C26.9132 12.0676 26.4335 12.5473 26.4335 13.1384C26.4335 13.7295 26.9132 14.2092 27.5043 14.2092H29.6459C30.2369 14.2092 30.7166 13.7295 30.7166 13.1384C30.7166 12.5473 30.2369 12.0676 29.6459 12.0676Z" fill="white"/>
<path d="M29.6459 16.3508H27.5043C26.9132 16.3508 26.4335 16.8305 26.4335 17.4216C26.4335 18.0127 26.9132 18.4924 27.5043 18.4924H29.6459C30.2369 18.4924 30.7166 18.0127 30.7166 17.4216C30.7166 16.8305 30.2369 16.3508 29.6459 16.3508Z" fill="white"/>
<path d="M29.6459 20.6343H27.5043C26.9132 20.6343 26.4335 21.114 26.4335 21.7051C26.4335 22.2962 26.9132 22.7759 27.5043 22.7759H29.6459C30.2369 22.7759 30.7166 22.2962 30.7166 21.7051C30.7166 21.114 30.2369 20.6343 29.6459 20.6343Z" fill="white"/>
<path d="M29.6459 24.9172H27.5043C26.9132 24.9172 26.4335 25.397 26.4335 25.988C26.4335 26.5791 26.9132 27.0588 27.5043 27.0588H29.6459C30.2369 27.0588 30.7166 26.5791 30.7166 25.988C30.7166 25.397 30.2369 24.9172 29.6459 24.9172Z" fill="white"/>
</g>
<defs>
<clipPath id="clip0">
<rect width="35" height="35" fill="white"/>
</clipPath>
</defs>
</svg>
