<svg width="35" height="35" viewBox="0 0 35 35" fill="none" xmlns="http://www.w3.org/2000/svg">
<path d="M25.353 9.09985H8.94691C8.64504 9.09985 8.40002 9.34487 8.40002 9.64674V15.1155C8.40002 15.4173 8.64504 15.6624 8.94691 15.6624C9.24878 15.6624 9.4938 15.4173 9.4938 15.1155C9.4938 14.2109 10.2299 13.4749 11.1344 13.4749H14.9625V23.8654C14.9625 24.77 14.2265 25.506 13.3219 25.506C13.02 25.506 12.775 25.751 12.775 26.0529C12.775 26.3548 13.02 26.5998 13.3219 26.5998H20.9781C20.9857 26.5998 20.9945 26.6009 21 26.5998C21.3018 26.5998 21.5469 26.3548 21.5469 26.0529C21.5469 25.751 21.3018 25.506 21 25.506H20.9891C20.9869 25.506 20.9825 25.506 20.9781 25.506C20.0736 25.506 19.3375 24.77 19.3375 23.8654V13.4749H23.1656C24.0702 13.4749 24.8062 14.2109 24.8062 15.1155C24.8062 15.4173 25.0513 15.6624 25.3531 15.6624C25.655 15.6624 25.9 15.4173 25.9 15.1155V9.64674C25.8999 9.34487 25.6549 9.09985 25.353 9.09985Z" fill="white"/>
<path d="M10.5875 2.7124H8.48753C8.19774 2.7124 7.96252 3.00642 7.96252 3.36867C7.96252 3.73092 8.19774 4.02494 8.48753 4.02494H10.5875C10.8773 4.02494 11.1125 3.73092 11.1125 3.36867C11.1125 3.00642 10.8773 2.7124 10.5875 2.7124Z" fill="white"/>
<path d="M17.8063 2.7124H15.7062C15.4165 2.7124 15.1813 3.00642 15.1813 3.36867C15.1813 3.73092 15.4165 4.02494 15.7063 4.02494H17.8063C18.0961 4.02494 18.3313 3.73092 18.3313 3.36867C18.3313 3.00642 18.0961 2.7124 17.8063 2.7124Z" fill="white"/>
<path d="M25.025 2.7124H22.925C22.6352 2.7124 22.4 3.00642 22.4 3.36867C22.4 3.73092 22.6352 4.02494 22.925 4.02494H25.025C25.3148 4.02494 25.55 3.73092 25.55 3.36867C25.55 3.00642 25.3148 2.7124 25.025 2.7124Z" fill="white"/>
<path d="M11.2875 30.2749H9.18748C8.89769 30.2749 8.66248 30.5689 8.66248 30.9312C8.66248 31.2934 8.89769 31.5874 9.18748 31.5874H11.2875C11.5773 31.5874 11.8125 31.2934 11.8125 30.9312C11.8125 30.5689 11.5773 30.2749 11.2875 30.2749Z" fill="white"/>
<path d="M18.5062 30.2749H16.4062C16.1164 30.2749 15.8812 30.5689 15.8812 30.9312C15.8812 31.2934 16.1164 31.5874 16.4062 31.5874H18.5062C18.796 31.5874 19.0312 31.2934 19.0312 30.9312C19.0312 30.5689 18.796 30.2749 18.5062 30.2749Z" fill="white"/>
<path d="M25.725 30.2749H23.625C23.3352 30.2749 23.1 30.5689 23.1 30.9312C23.1 31.2934 23.3352 31.5874 23.625 31.5874H25.725C26.0148 31.5874 26.25 31.2934 26.25 30.9312C26.2499 30.5689 26.0148 30.2749 25.725 30.2749Z" fill="white"/>
<path d="M3.36879 23.0999C3.00654 23.0999 2.71252 23.3351 2.71252 23.6249V25.7248C2.71252 26.0146 3.00654 26.2499 3.36879 26.2499C3.73104 26.2499 4.02507 26.0146 4.02507 25.7248V23.6249C4.02507 23.3351 3.73104 23.0999 3.36879 23.0999Z" fill="white"/>
<path d="M3.36879 15.8811C3.00654 15.8811 2.71252 16.1163 2.71252 16.4061V18.5061C2.71252 18.7959 3.00654 19.0311 3.36879 19.0311C3.73104 19.0311 4.02507 18.7959 4.02507 18.5061V16.4061C4.02507 16.1163 3.73104 15.8811 3.36879 15.8811Z" fill="white"/>
<path d="M3.36879 8.66235C3.00654 8.66235 2.71252 8.89757 2.71252 9.18737V11.2873C2.71252 11.5771 3.00654 11.8124 3.36879 11.8124C3.73104 11.8124 4.02507 11.5771 4.02507 11.2873V9.18732C4.02507 8.89752 3.73104 8.66235 3.36879 8.66235Z" fill="white"/>
<path d="M30.9313 23.0999C30.569 23.0999 30.275 23.3351 30.275 23.6249V25.7248C30.275 26.0146 30.569 26.2499 30.9313 26.2499C31.2935 26.2499 31.5876 26.0146 31.5876 25.7248V23.6249C31.5876 23.3351 31.2935 23.0999 30.9313 23.0999Z" fill="white"/>
<path d="M30.9313 15.8811C30.569 15.8811 30.275 16.1163 30.275 16.4061V18.5061C30.275 18.7959 30.569 19.0311 30.9313 19.0311C31.2935 19.0311 31.5876 18.7959 31.5876 18.5061V16.4061C31.5876 16.1163 31.2935 15.8811 30.9313 15.8811Z" fill="white"/>
<path d="M30.9313 8.66235C30.569 8.66235 30.275 8.89757 30.275 9.18737V11.2873C30.275 11.5771 30.569 11.8124 30.9313 11.8124C31.2935 11.8124 31.5876 11.5771 31.5876 11.2873V9.18732C31.5876 8.89752 31.2935 8.66235 30.9313 8.66235Z" fill="white"/>
<path d="M32.2438 1.3999H29.6187C29.2565 1.3999 28.9625 1.69392 28.9625 2.05617V4.68119C28.9625 5.04338 29.2565 5.3374 29.6188 5.3374H32.2438C32.606 5.3374 32.9 5.04338 32.9 4.68113V2.05617C32.9 1.69392 32.606 1.3999 32.2438 1.3999Z" fill="white"/>
<path d="M4.68125 1.3999H2.05629C1.69404 1.3999 1.40002 1.69392 1.40002 2.05617V4.68119C1.40002 5.04338 1.69404 5.3374 2.05629 5.3374H4.68132C5.0435 5.3374 5.33752 5.04338 5.33752 4.68113V2.05617C5.33752 1.69392 5.0435 1.3999 4.68125 1.3999Z" fill="white"/>
<path d="M32.2438 28.9624H29.6188C29.2565 28.9624 28.9625 29.2564 28.9625 29.6187V32.2437C28.9625 32.6059 29.2565 32.9 29.6188 32.9H32.2438C32.6061 32.9 32.9001 32.6059 32.9001 32.2437V29.6187C32.9001 29.2564 32.6061 28.9624 32.2438 28.9624Z" fill="white"/>
<path d="M4.68125 28.9624H2.05629C1.69404 28.9624 1.40002 29.2564 1.40002 29.6187V32.2437C1.40002 32.6059 1.69404 32.8999 2.05629 32.8999H4.68132C5.0435 32.8999 5.33752 32.6059 5.33752 32.2436V29.6186C5.33752 29.2564 5.0435 28.9624 4.68125 28.9624Z" fill="white"/>
</svg>
