<svg width="63" height="42" viewBox="0 0 63 42" fill="none" xmlns="http://www.w3.org/2000/svg">
<path d="M61.273 15.0393L46.8591 19.1187C46.4209 19.2442 46.1191 19.6445 46.1191 20.0997V33.9251C45.5167 33.5738 44.8257 33.3578 44.0794 33.3578C41.8295 33.3578 40 35.1873 40 37.4372C40 39.687 41.8295 41.5166 44.0794 41.5166C46.3293 41.5166 48.1588 39.687 48.1588 37.4372C48.1588 37.2046 48.1588 24.9488 48.1588 24.9488L60.533 21.4521V29.8457C59.9306 29.4944 59.2396 29.2784 58.4933 29.2784C56.2434 29.2784 54.4139 31.1079 54.4139 33.3578C54.4139 35.6076 56.2434 37.4372 58.4933 37.4372C60.7432 37.4372 62.5727 35.6076 62.5727 33.3578C62.5727 33.1252 62.5727 16.0203 62.5727 16.0203C62.5727 15.3458 61.9275 14.8544 61.273 15.0393Z" fill="white"/>
<path d="M29.0499 7.9624C28.6877 7.9624 28.3937 8.2564 28.3937 8.61865C28.3937 8.9809 28.6877 9.2749 29.0499 9.2749C29.4122 9.2749 29.7062 8.9809 29.7062 8.61865C29.7062 8.2564 29.4122 7.9624 29.0499 7.9624Z" fill="white"/>
<path d="M5.94995 7.9624C5.5877 7.9624 5.2937 8.2564 5.2937 8.61865C5.2937 8.9809 5.5877 9.2749 5.94995 9.2749C6.3122 9.2749 6.6062 8.9809 6.6062 8.61865C6.6062 8.2564 6.3122 7.9624 5.94995 7.9624Z" fill="white"/>
<path d="M33.6435 15.8374H32.8587C32.6134 13.9472 32.0206 12.1458 31.0905 10.4755C30.9141 10.159 30.5145 10.0451 30.1978 10.2214C29.8812 10.3978 29.7674 10.7974 29.9437 11.1141C30.7646 12.5882 31.2986 14.174 31.5353 15.8374H31.0185C30.6561 15.8374 30.3623 16.1312 30.3623 16.4937V19.1187C30.3623 19.4811 30.6561 19.7749 31.0185 19.7749H33.6435C34.006 19.7749 34.2998 19.4811 34.2998 19.1187V16.4937C34.2998 16.1312 34.006 15.8374 33.6435 15.8374ZM32.9873 18.4624H31.6748V17.1499H32.2705C32.2707 17.1499 32.271 17.1499 32.2712 17.1499C32.2715 17.1499 32.2716 17.1499 32.2719 17.1499H32.9873V18.4624Z" fill="white"/>
<path d="M14.3982 30.5459H21.349V34.2575H14.3982V30.5459Z" fill="white"/>
<path d="M25.339 20.687C25.3386 20.6769 25.3383 20.6668 25.3374 20.6567C25.3362 20.6428 25.3342 20.6292 25.3321 20.6156C25.3308 20.6073 25.3298 20.5989 25.3281 20.5906C25.325 20.5746 25.3209 20.5589 25.3166 20.5433C25.315 20.5374 25.3137 20.5315 25.3119 20.5256C25.3058 20.5061 25.2988 20.487 25.2909 20.4682C25.29 20.4662 25.2894 20.4641 25.2885 20.462C25.2792 20.4402 25.2686 20.419 25.257 20.3986L18.4692 8.4594C18.3503 8.2501 18.1218 8.11987 17.8736 8.11987C17.6254 8.11987 17.397 8.2501 17.278 8.45946L10.4903 20.3986C10.4786 20.4191 10.4681 20.4403 10.4587 20.4621C10.4578 20.4641 10.4572 20.4662 10.4563 20.4683C10.4485 20.487 10.4414 20.5061 10.4354 20.5256C10.4335 20.5315 10.4322 20.5375 10.4306 20.5434C10.4263 20.559 10.4223 20.5746 10.4191 20.5906C10.4175 20.5989 10.4165 20.6073 10.4151 20.6157C10.413 20.6293 10.4111 20.6429 10.4098 20.6567C10.409 20.6668 10.4086 20.6769 10.4083 20.6871C10.4079 20.6953 10.407 20.7034 10.407 20.7117C10.407 20.716 10.4076 20.7201 10.4077 20.7244C10.4079 20.7347 10.4085 20.7449 10.4093 20.7551C10.4102 20.7681 10.4113 20.781 10.413 20.7938C10.4142 20.8028 10.4157 20.8117 10.4172 20.8207C10.4197 20.8348 10.4226 20.8488 10.426 20.8626C10.4279 20.8703 10.43 20.8781 10.4322 20.8858C10.4365 20.9007 10.4414 20.9153 10.4467 20.9297C10.4482 20.9338 10.4491 20.938 10.4508 20.9421L12.8987 27.1773C12.7024 27.2708 12.5207 27.3951 12.3611 27.5484C11.9764 27.9182 11.7646 28.4097 11.7646 28.9323C11.7646 29.7828 12.3321 30.508 13.1221 30.7774V34.3474C13.1221 34.7078 13.426 34.9999 13.8009 34.9999H21.9463C22.3212 34.9999 22.6251 34.7078 22.6251 34.3474V30.7785C22.9081 30.6825 23.1676 30.5262 23.3862 30.3162C23.7708 29.9464 23.9827 29.4549 23.9827 28.9323C23.9827 28.1642 23.5198 27.4984 22.8482 27.1781L25.2965 20.9421C25.2982 20.938 25.2991 20.9338 25.3006 20.9297C25.3059 20.9153 25.3108 20.9007 25.3151 20.8858C25.3173 20.8781 25.3193 20.8703 25.3213 20.8626C25.3247 20.8488 25.3276 20.8348 25.3301 20.8207C25.3316 20.8117 25.3332 20.8028 25.3343 20.7938C25.336 20.781 25.3371 20.7681 25.338 20.7551C25.3387 20.7449 25.3394 20.7347 25.3396 20.7244C25.3397 20.7202 25.3403 20.716 25.3403 20.7117C25.3403 20.7034 25.3393 20.6953 25.339 20.687ZM17.8736 20.0593C18.2479 20.0593 18.5524 20.352 18.5524 20.7117C18.5524 21.0715 18.2479 21.3641 17.8736 21.3641C17.4993 21.3641 17.1948 21.0715 17.1948 20.7117C17.1948 20.352 17.4993 20.0593 17.8736 20.0593ZM21.2675 33.695H14.4797V30.8896H21.2675V33.695ZM22.4262 29.3934C22.2979 29.5168 22.1274 29.5847 21.9463 29.5847H13.8009C13.4266 29.5847 13.1221 29.292 13.1221 28.9323C13.1221 28.7582 13.1928 28.5944 13.3211 28.4712C13.4494 28.3478 13.6198 28.2799 13.8009 28.2799H21.9418L21.9463 28.2801L21.9486 28.28C22.3218 28.2812 22.6252 28.5733 22.6252 28.9323C22.6251 29.1064 22.5544 29.2702 22.4262 29.3934ZM21.4769 26.975H14.2703L12.0674 21.3641H13.8009C14.1758 21.3641 14.4797 21.0721 14.4797 20.7117C14.4797 20.3514 14.1758 20.0593 13.8009 20.0593H12.2302L17.1948 11.3268V18.8667C16.4048 19.136 15.8373 19.8611 15.8373 20.7117C15.8373 21.791 16.7508 22.669 17.8736 22.669C18.9965 22.669 19.91 21.791 19.91 20.7117C19.91 19.8612 19.3424 19.136 18.5524 18.8667V11.3268L23.517 20.0593H21.9463C21.5714 20.0593 21.2675 20.3514 21.2675 20.7117C21.2675 21.0721 21.5714 21.3641 21.9463 21.3641H23.6798L21.4769 26.975Z" fill="white"/>
<path d="M4.80184 10.2215C4.48514 10.0451 4.08548 10.1589 3.90921 10.4756C2.97911 12.1459 2.38632 13.9472 2.14108 15.8375H1.3562C0.993754 15.8375 0.699951 16.1313 0.699951 16.4937V19.1187C0.699951 19.4812 0.993754 19.775 1.3562 19.775H3.9812C4.34365 19.775 4.63745 19.4812 4.63745 19.1187V16.4937C4.63745 16.1313 4.34365 15.8375 3.9812 15.8375H3.4644C3.70111 14.1741 4.2351 12.5882 5.05594 11.1141C5.23228 10.7975 5.11855 10.3978 4.80184 10.2215ZM3.32495 18.4625H2.01245V17.15H2.72783C2.72809 17.15 2.72829 17.15 2.72855 17.15C2.72875 17.15 2.72901 17.15 2.72921 17.15H3.32495V18.4625Z" fill="white"/>
<path d="M32.3312 1.3999C31.4757 1.3999 30.7462 1.94859 30.4753 2.7124H19.4687V2.05615C19.4687 1.69371 19.1749 1.3999 18.8125 1.3999H16.1875C15.825 1.3999 15.5312 1.69371 15.5312 2.05615V2.7124H4.52458C4.25368 1.94859 3.52419 1.3999 2.6687 1.3999C1.58313 1.3999 0.699951 2.28308 0.699951 3.36865C0.699951 4.45422 1.58313 5.3374 2.6687 5.3374C3.52419 5.3374 4.25368 4.78871 4.52458 4.0249H11.1221C9.7224 4.61061 8.43878 5.37094 7.38222 6.26166C7.10508 6.49529 7.06984 6.90932 7.30347 7.18639C7.43327 7.34041 7.61879 7.41968 7.8055 7.41968C7.95486 7.41968 8.10501 7.36902 8.22812 7.2652C10.111 5.67786 12.7981 4.54419 15.5312 4.16396V4.68115C15.5312 5.0436 15.825 5.3374 16.1875 5.3374H18.8125C19.1749 5.3374 19.4687 5.0436 19.4687 4.68115V4.16396C22.2018 4.54419 24.8889 5.67786 26.7718 7.26514C26.8949 7.36896 27.045 7.41968 27.1944 7.41962C27.3812 7.41962 27.5667 7.34034 27.6964 7.18632C27.9301 6.90932 27.8948 6.49529 27.6177 6.26166C26.5611 5.37094 25.2775 4.61061 23.8778 4.0249H30.4753C30.7462 4.78871 31.4756 5.3374 32.3312 5.3374C33.4168 5.3374 34.2999 4.45422 34.2999 3.36865C34.2999 2.28308 33.4168 1.3999 32.3312 1.3999ZM2.6687 4.0249C2.30684 4.0249 2.01245 3.73051 2.01245 3.36865C2.01245 3.0068 2.30684 2.7124 2.6687 2.7124C3.03056 2.7124 3.32495 3.0068 3.32495 3.36865C3.32495 3.73051 3.03056 4.0249 2.6687 4.0249ZM18.1562 3.36865V3.42771V4.0249H16.8437V3.42771V3.36865V2.7124H18.1562V3.36865ZM32.3312 4.0249C31.9693 4.0249 31.6749 3.73051 31.6749 3.36865C31.6749 3.0068 31.9693 2.7124 32.3312 2.7124C32.6931 2.7124 32.9874 3.0068 32.9874 3.36865C32.9874 3.73051 32.6931 4.0249 32.3312 4.0249Z" fill="white"/>
<path d="M10 20L17.5 6L25 20L22.0833 27H12.9167L10 20Z" fill="white"/>
<path fill-rule="evenodd" clip-rule="evenodd" d="M18 7L24 18.331L21.6652 24H14.3348L12 18.331L18 7ZM12.6931 18.3644L14.7554 23.372H21.2446L23.3069 18.3644L18 8.34227L12.6931 18.3644Z" fill="white"/>
<path fill-rule="evenodd" clip-rule="evenodd" d="M17.8738 21.5599C18.2862 21.5599 18.6205 21.2256 18.6205 20.8132C18.6205 20.4009 18.2862 20.0666 17.8738 20.0666C17.4614 20.0666 17.1271 20.4009 17.1271 20.8132C17.1271 21.2256 17.4614 21.5599 17.8738 21.5599ZM17.8738 23.0532C19.1109 23.0532 20.1138 22.0504 20.1138 20.8132C20.1138 19.5761 19.1109 18.5732 17.8738 18.5732C16.6367 18.5732 15.6338 19.5761 15.6338 20.8132C15.6338 22.0504 16.6367 23.0532 17.8738 23.0532Z" fill="#3743E1"/>
<path d="M17.1271 7.37329H18.6204V20.0666H17.1271V7.37329Z" fill="#3743E1"/>
</svg>
