<svg width="35" height="35" viewBox="0 0 35 35" fill="none" xmlns="http://www.w3.org/2000/svg">
<g clip-path="url(#clip0)">
<path d="M28.2315 21.3962C27.5522 21.3962 27.0428 21.566 26.5334 21.566L21.609 16.6415L25.6844 12.5662L30.9484 10.6983L34.854 4.41539C35.0238 4.07578 35.0238 3.56636 34.854 3.39655L32.8163 1.35886C32.4767 1.01924 31.9672 1.01924 31.6276 1.18905L25.1749 4.92482L23.1372 10.3587L19.0619 14.434L14.477 9.50962C14.477 9.0002 14.6469 8.49078 14.6469 7.81155C14.6469 3.39655 10.4017 0.170204 6.15648 1.18905L8.70359 3.73616C10.0621 5.09462 10.0621 7.13231 8.70359 8.49078C7.34513 9.84924 5.30744 9.84924 3.94898 8.49078L1.23206 6.11347C-0.126403 11.0379 4.4584 15.7925 9.55263 14.2642L14.477 19.1887L12.4394 21.2263C11.2507 20.8867 10.0621 21.2263 9.21301 22.0754L2.2509 29.0375C0.892443 30.396 0.722635 32.4336 1.91129 33.7921C3.26975 35.3204 5.47725 35.3204 6.83571 33.9619L13.9676 26.83C14.8167 25.981 15.1563 24.6225 14.8167 23.6037L16.8544 21.566L21.7788 26.4904C21.609 26.9998 21.609 27.679 21.609 28.1885C21.609 32.6035 25.8542 35.8298 30.0993 34.811L27.5522 32.2638C26.1938 30.9054 26.1938 28.8677 27.5522 27.5092C28.9107 26.1508 30.9484 26.1508 32.3068 27.5092L34.854 30.0563C36.0426 25.6413 32.6465 21.3962 28.2315 21.3962Z" fill="white"/>
</g>
<defs>
<clipPath id="clip0">
<rect width="35" height="35" fill="white"/>
</clipPath>
</defs>
</svg>
