<svg width="16" height="16" viewBox="0 0 16 16" fill="none" xmlns="http://www.w3.org/2000/svg">
<path d="M7.99995 9.4391H8.49995V8.9391V5.49563C8.49995 5.04953 8.13972 4.68259 7.68884 4.68259C7.23796 4.68259 6.87773 5.04953 6.87773 5.49563V8.60608C6.87773 9.06322 7.24685 9.4391 7.70869 9.4391H7.99995ZM8.74438 8.9391V9.4391H9.24438H11.4932L13.0839 12.3202C13.1185 12.383 13.0948 12.4605 13.0359 12.4934C12.9788 12.5254 12.9051 12.5059 12.8715 12.445L11.4937 9.9496L11.3511 9.69127H11.056H7.70869C7.11769 9.69127 6.6333 9.20834 6.6333 8.60608V5.49563C6.6333 4.90441 7.1088 4.43042 7.68884 4.43042C8.26888 4.43042 8.74438 4.90441 8.74438 5.49563V6.43476V6.93476H9.24438H11.111C11.1756 6.93476 11.2332 6.98829 11.2332 7.06085C11.2332 7.13341 11.1756 7.18693 11.111 7.18693H9.24438H8.74438V7.68693V8.9391ZM8.7 1.99999C8.7 2.60751 8.20751 3.09999 7.6 3.09999C6.99249 3.09999 6.5 2.60751 6.5 1.99999C6.5 1.39248 6.99249 0.899994 7.6 0.899994C8.20751 0.899994 8.7 1.39248 8.7 1.99999Z" stroke="#FF671F"/>
</svg>
