<svg width="16" height="16" viewBox="0 0 16 16" fill="none" xmlns="http://www.w3.org/2000/svg">
<path fill-rule="evenodd" clip-rule="evenodd" d="M8 8.25C8.27614 8.25 8.5 8.47386 8.5 8.75V8.95852V14.75C8.5 15.0261 8.27614 15.25 8 15.25C7.72386 15.25 7.5 15.0261 7.5 14.75V8.95852V8.75C7.5 8.47386 7.72386 8.25 8 8.25Z" fill="#FF671F"/>
<path fill-rule="evenodd" clip-rule="evenodd" d="M7.5 8.95852C7.6626 8.9858 7.82964 9 8 9C8.17036 9 8.3374 8.9858 8.5 8.95852V8.75C8.5 8.47386 8.27614 8.25 8 8.25C7.72386 8.25 7.5 8.47386 7.5 8.75V8.95852Z" fill="#FF671F"/>
<path fill-rule="evenodd" clip-rule="evenodd" d="M8 8C9.38071 8 10.5 6.88071 10.5 5.5C10.5 4.11929 9.38071 3 8 3C6.61929 3 5.5 4.11929 5.5 5.5C5.5 6.88071 6.61929 8 8 8ZM8 9C9.933 9 11.5 7.433 11.5 5.5C11.5 3.567 9.933 2 8 2C6.067 2 4.5 3.567 4.5 5.5C4.5 7.433 6.067 9 8 9Z" fill="#FF671F"/>
</svg>
