<svg width="16" height="16" viewBox="0 0 16 16" fill="none" xmlns="http://www.w3.org/2000/svg">
<path fill-rule="evenodd" clip-rule="evenodd" d="M13.6 8.00001C13.6 11.0928 11.0928 13.6 8 13.6C4.9072 13.6 2.4 11.0928 2.4 8.00001C2.4 4.90721 4.9072 2.40001 8 2.40001C11.0928 2.40001 13.6 4.90721 13.6 8.00001ZM14.4 8.00001C14.4 11.5346 11.5346 14.4 8 14.4C4.46538 14.4 1.6 11.5346 1.6 8.00001C1.6 4.46538 4.46538 1.60001 8 1.60001C11.5346 1.60001 14.4 4.46538 14.4 8.00001ZM8.07412 9.80994C7.65407 10.44 6.76259 10.5283 6.22713 9.99282L5.31716 9.08285C5.16095 8.92664 5.16095 8.67337 5.31716 8.51716C5.47337 8.36095 5.72663 8.36095 5.88284 8.51716L6.79282 9.42714C6.9713 9.60562 7.26846 9.5762 7.40848 9.36618L10.0672 5.37813C10.1897 5.19431 10.4381 5.14464 10.6219 5.26719C10.8057 5.38973 10.8554 5.63807 10.7328 5.82189L8.07412 9.80994Z" fill="black"/>
<path fill-rule="evenodd" clip-rule="evenodd" d="M1.2 8.00001C1.2 4.24448 4.24446 1.20001 8 1.20001C11.7555 1.20001 14.8 4.24448 14.8 8.00001C14.8 11.7555 11.7555 14.8 8 14.8C4.24446 14.8 1.2 11.7555 1.2 8.00001ZM8 2.80001C5.12812 2.80001 2.8 5.12813 2.8 8.00001C2.8 10.8719 5.12812 13.2 8 13.2C10.8719 13.2 13.2 10.8719 13.2 8.00001C13.2 5.12813 10.8719 2.80001 8 2.80001ZM9.73436 5.15625C9.97944 4.78863 10.4761 4.68929 10.8438 4.93437C11.2114 5.17945 11.3107 5.67615 11.0656 6.04377L8.40694 10.0318C7.84687 10.8719 6.65824 10.9896 5.94429 10.2757L5.03431 9.3657C4.72189 9.05328 4.72189 8.54675 5.03431 8.23433C5.34673 7.92191 5.85326 7.92191 6.16568 8.23433L7.07566 9.1443L9.73436 5.15625Z" fill="#43B02A"/>
</svg>
