<svg width="16" height="16" viewBox="0 0 16 16" fill="none" xmlns="http://www.w3.org/2000/svg">
<g clip-path="url(#clip0_3791_91548)">
<path fill-rule="evenodd" clip-rule="evenodd" d="M8 1C7.57634 1 7.11414 1.08966 6.63145 1.26226C5.38113 1.70936 4.63027 2.42268 4.23201 3.26688C3.82829 4.12262 3.76014 5.17057 3.99055 6.32011C4.43746 8.5497 5.98382 11.0274 8 12.8367C10.0162 11.0274 11.5625 8.5497 12.0094 6.32011C12.2399 5.17057 12.1717 4.12262 11.768 3.26687C11.3697 2.42268 10.6189 1.70936 9.36855 1.26226C8.88586 1.08966 8.42366 1 8 1ZM6.29474 0.320656C6.86106 0.118144 7.43823 0 8 0C8.56176 0 9.13894 0.118144 9.70526 0.320655C11.1706 0.844656 12.1458 1.72408 12.6724 2.8402C13.1935 3.94478 13.2489 5.22474 12.9899 6.51664C12.4741 9.09009 10.6862 11.8515 8.43326 13.787C8.18408 14.001 7.81592 14.001 7.56674 13.787C5.31378 11.8515 3.52588 9.09009 3.01006 6.51664C2.7511 5.22474 2.8065 3.94478 3.3276 2.84021C3.85415 1.72408 4.82937 0.844657 6.29474 0.320656ZM8 3.98649C7.17157 3.98649 6.5 4.65806 6.5 5.48649C6.5 6.31491 7.17157 6.98649 8 6.98649C8.82843 6.98649 9.5 6.31491 9.5 5.48649C9.5 4.65806 8.82843 3.98649 8 3.98649ZM5.5 5.48649C5.5 4.10577 6.61929 2.98649 8 2.98649C9.38071 2.98649 10.5 4.10577 10.5 5.48649C10.5 6.8672 9.38071 7.98649 8 7.98649C6.61929 7.98649 5.5 6.8672 5.5 5.48649ZM4.49977 11.5C4.49989 11.5 4.5 11.5 4.5 12C4.5 12.5 4.50008 12.5 4.50014 12.5H4.50001L4.49859 12.5L4.49155 12.5L4.46133 12.5003C4.43424 12.5007 4.39366 12.5014 4.34151 12.5028C4.23714 12.5055 4.08689 12.5112 3.90619 12.5225C3.54298 12.5452 3.06497 12.5903 2.59214 12.6789C2.11106 12.7691 1.67422 12.8975 1.37013 13.0686C1.0622 13.2418 1 13.3897 1 13.5C1 13.5658 1.06114 13.753 1.54666 13.9995C1.99423 14.2267 2.64523 14.4191 3.41056 14.5722C4.93268 14.8766 6.7735 15 8 15C9.2265 15 11.0673 14.8766 12.5894 14.5722C13.3548 14.4191 14.0058 14.2267 14.4533 13.9995C14.9389 13.753 15 13.5658 15 13.5C15 13.3897 14.9378 13.2418 14.6299 13.0686C14.3258 12.8975 13.8889 12.7691 13.4079 12.6789C12.935 12.5903 12.457 12.5452 12.0938 12.5225C11.9131 12.5112 11.7629 12.5055 11.6585 12.5028C11.6063 12.5014 11.5658 12.5007 11.5387 12.5003L11.5085 12.5L11.5014 12.5L11.5 12.5H11.4999C11.4999 12.5 11.5 12.5 11.5 12C11.5 11.5 11.5001 11.5 11.5002 11.5H11.5006L11.5015 11.5L11.5044 11.5L11.5145 11.5001L11.5512 11.5004C11.5827 11.5008 11.628 11.5016 11.6853 11.5031C11.7996 11.5062 11.9619 11.5123 12.1562 11.5244C12.543 11.5486 13.065 11.5972 13.5921 11.6961C14.1111 11.7934 14.6742 11.9462 15.1201 12.197C15.5622 12.4457 16 12.8603 16 13.5C16 14.1842 15.4361 14.622 14.906 14.8911C14.338 15.1795 13.5827 15.3934 12.7856 15.5528C11.1827 15.8734 9.2735 16 8 16C6.7265 16 4.81732 15.8734 3.21444 15.5528C2.41727 15.3934 1.66202 15.1795 1.09397 14.8911C0.563863 14.622 0 14.1842 0 13.5C0 12.8603 0.437801 12.4457 0.879869 12.197C1.32578 11.9462 1.88894 11.7934 2.40786 11.6961C2.93503 11.5972 3.45702 11.5486 3.84381 11.5244C4.03811 11.5123 4.20036 11.5062 4.31474 11.5031C4.37196 11.5016 4.41732 11.5008 4.44883 11.5004L4.4855 11.5001L4.49561 11.5L4.49853 11.5L4.49945 11.5H4.49977Z" fill="#FF671F"/>
</g>
<defs>
<clipPath id="clip0_3791_91548">
<rect width="16" height="16" fill="white"/>
</clipPath>
</defs>
</svg>
