<svg width="16" height="16" viewBox="0 0 16 16" fill="none" xmlns="http://www.w3.org/2000/svg">
<path fill-rule="evenodd" clip-rule="evenodd" d="M8 13.6C11.0928 13.6 13.6 11.0928 13.6 8.00001C13.6 4.90722 11.0928 2.40001 8 2.40001C4.9072 2.40001 2.4 4.90722 2.4 8.00001C2.4 11.0928 4.9072 13.6 8 13.6ZM8 14.4C11.5346 14.4 14.4 11.5346 14.4 8.00001C14.4 4.46539 11.5346 1.60001 8 1.60001C4.46537 1.60001 1.6 4.46539 1.6 8.00001C1.6 11.5346 4.46537 14.4 8 14.4Z" fill="#FF090B"/>
<path d="M5.68572 5.68788C5.80002 5.57072 5.98534 5.57072 6.09964 5.68788L7.91479 7.54841L9.7863 5.68483C9.90224 5.56938 10.0875 5.57213 10.2002 5.69097C10.3128 5.80981 10.3101 5.99974 10.1942 6.11519L8.33467 7.96683L10.3085 9.88215C10.4259 9.99606 10.431 10.1859 10.3199 10.3063C10.2087 10.4266 10.0235 10.4318 9.9061 10.3179L7.92043 8.39109L6.10261 10.3091C5.98998 10.4279 5.80468 10.4306 5.68874 10.3152C5.5728 10.1997 5.57012 10.0098 5.68275 9.89097L7.50088 7.97268L5.68572 6.11214C5.57142 5.99499 5.57142 5.80504 5.68572 5.68788Z" fill="#FF090B"/>
<path fill-rule="evenodd" clip-rule="evenodd" d="M1.2 8.00001C1.2 4.24448 4.24446 1.20001 8 1.20001C11.7555 1.20001 14.8 4.24448 14.8 8.00001C14.8 11.7555 11.7555 14.8 8 14.8C4.24446 14.8 1.2 11.7555 1.2 8.00001ZM8 2.80001C5.12812 2.80001 2.8 5.12813 2.8 8.00001C2.8 10.8719 5.12812 13.2 8 13.2C10.8719 13.2 13.2 10.8719 13.2 8.00001C13.2 5.12813 10.8719 2.80001 8 2.80001ZM9.50406 5.40139C9.77947 5.12714 10.2234 5.13403 10.4905 5.41581C10.7523 5.69201 10.7464 6.12984 10.4764 6.39863L8.90526 7.96314L10.5871 9.59508C10.8606 9.8605 10.8718 10.2982 10.6137 10.5776C10.3504 10.8627 9.90663 10.8757 9.62755 10.6049L7.93233 8.96L6.39293 10.5842C6.12586 10.866 5.68191 10.8729 5.4065 10.5986C5.13655 10.3298 5.13065 9.89201 5.39243 9.61581L6.94596 7.97669L5.39941 6.39147C5.13353 6.11894 5.13353 5.68108 5.39941 5.40855C5.67068 5.1305 6.11468 5.1305 6.38595 5.40855L7.91891 6.97983L9.50406 5.40139ZM10.0685 5.96828C10.0685 5.96836 10.0686 5.9682 10.0685 5.96828V5.96828Z" fill="#FF090B"/>
</svg>
