<svg width="16" height="16" viewBox="0 0 16 16" fill="none" xmlns="http://www.w3.org/2000/svg">
<path fill-rule="evenodd" clip-rule="evenodd" d="M11.5 1.5H4.5C4.22386 1.5 4 1.72386 4 2V10.5C4 10.7761 4.22386 11 4.5 11H11.5C11.7761 11 12 10.7761 12 10.5V2C12 1.72386 11.7761 1.5 11.5 1.5ZM4.5 0.5C3.67157 0.5 3 1.17157 3 2V10.5C3 11.3284 3.67157 12 4.5 12H11.5C12.3284 12 13 11.3284 13 10.5V2C13 1.17157 12.3284 0.5 11.5 0.5H4.5Z" fill="#FF671F"/>
<path fill-rule="evenodd" clip-rule="evenodd" d="M8 11.5C8.27614 11.5 8.5 11.7239 8.5 12V15H9.5C9.77614 15 10 15.2239 10 15.5C10 15.7761 9.77614 16 9.5 16H6.5C6.22386 16 6 15.7761 6 15.5C6 15.2239 6.22386 15 6.5 15H7.5V12C7.5 11.7239 7.72386 11.5 8 11.5Z" fill="#FF671F"/>
<path fill-rule="evenodd" clip-rule="evenodd" d="M10.5 5.75H5.5V8C5.5 8.27614 5.72386 8.5 6 8.5H10C10.2761 8.5 10.5 8.27614 10.5 8V5.75ZM10.5 5.25H5.5V3.5C5.5 3.22386 5.72386 3 6 3H10C10.2761 3 10.5 3.22386 10.5 3.5V5.25ZM11 3.5C11 2.94772 10.5523 2.5 10 2.5H6C5.44772 2.5 5 2.94772 5 3.5V8C5 8.55228 5.44772 9 6 9H10C10.5523 9 11 8.55228 11 8V3.5Z" fill="#FF671F"/>
<path d="M6 9H7V9.5C7 9.77614 6.77614 10 6.5 10Lnan nanL6.5 10C6.22386 10 6 9.77614 6 9.5V9Z" fill="#FF671F"/>
<path d="M9 9H10V9.5C10 9.77614 9.77614 10 9.5 10Lnan nanL9.5 10C9.22386 10 9 9.77614 9 9.5V9Z" fill="#FF671F"/>
</svg>
