<svg width="202" height="47" viewBox="0 0 202 47" fill="none" xmlns="http://www.w3.org/2000/svg">
<path fill-rule="evenodd" clip-rule="evenodd" d="M24.5248 0C75.6334 0.00967265 126.737 -0.00483632 177.846 0.00967265C183.137 -0.014509 188.409 1.82813 192.53 5.14585C197.952 9.45018 201.332 16.2597 201.289 23.2047C201.405 28.9261 199.243 34.6378 195.436 38.9034C191.074 43.909 184.501 46.806 177.875 46.835C128.367 46.8495 78.8594 46.835 29.3518 46.8398C25.1778 46.8108 20.907 47.1155 16.8588 45.8629C9.27496 43.701 3.02121 37.4428 0.912441 29.8353C-0.7175 24.3509 -0.122595 18.3248 2.36826 13.1887C5.56527 6.50486 12.1237 1.57181 19.4367 0.348215C21.115 0.0628722 22.8272 0 24.5248 0Z" fill="white"/>
<mask id="mask0_64_81" style="mask-type:alpha" maskUnits="userSpaceOnUse" x="0" y="0" width="202" height="47">
<path fill-rule="evenodd" clip-rule="evenodd" d="M24.5248 0C75.6334 0.00967265 126.737 -0.00483632 177.846 0.00967265C183.137 -0.014509 188.409 1.82813 192.53 5.14585C197.952 9.45018 201.332 16.2597 201.289 23.2047C201.405 28.9261 199.243 34.6378 195.436 38.9034C191.074 43.909 184.501 46.806 177.875 46.835C128.367 46.8495 78.8594 46.835 29.3518 46.8398C25.1778 46.8108 20.907 47.1155 16.8588 45.8629C9.27496 43.701 3.02121 37.4428 0.912441 29.8353C-0.7175 24.3509 -0.122595 18.3248 2.36826 13.1887C5.56527 6.50486 12.1237 1.57181 19.4367 0.348215C21.115 0.0628722 22.8272 0 24.5248 0Z" fill="white"/>
</mask>
<g mask="url(#mask0_64_81)">
<path d="M173.985 11.0776C179.939 9.34395 186.755 12.5922 189.235 18.251C191.042 22.0885 190.765 26.7879 188.533 30.3965C186.136 34.4385 181.41 37.0001 176.704 36.664C170.604 36.5131 165.147 31.4435 164.431 25.4049C163.442 19.1178 167.812 12.597 173.985 11.0776Z" fill="#FF671F"/>
<path d="M23.9768 8.8872C29.6825 7.89218 35.8368 10.6889 38.8802 15.6156C40.3513 18.0162 38.2001 21.6002 35.3545 21.1945C33.7532 21.4022 32.6246 20.1415 31.7661 18.9823C29.6729 16.3836 25.6986 15.7074 22.8289 17.3835C19.9302 18.9388 18.2903 22.7402 19.4864 25.8653C20.3884 28.8938 23.533 31.135 26.7018 30.821C29.2581 30.9321 31.2114 29.0677 32.8079 27.3192C34.9301 25.2663 38.8079 27.0149 38.9911 29.8695C39.2853 32.3909 37.0426 34.1635 35.3207 35.6126C29.6825 40.0467 20.9141 39.4719 15.8836 34.3616C10.7373 29.5362 9.87878 20.953 13.9977 15.2147C16.2742 11.8578 19.9784 9.53927 23.9768 8.8872Z" fill="#43B02A"/>
<path fill-rule="evenodd" clip-rule="evenodd" d="M69.9321 20.6285C68.5333 12.9389 60.3485 7.36968 52.6942 8.9588C44.5335 10.205 38.5866 19.1022 40.7715 27.1203C42.3631 34.6119 50.355 39.9154 57.8694 38.4132C65.9144 37.2298 71.8854 28.5742 69.9321 20.6285ZM48.15 24.1321C47.8317 20.5577 50.605 17.1042 54.1403 16.5873C58.0953 15.7807 62.248 19.0266 62.4843 23.0549C62.9522 27.064 59.4217 31.0441 55.3558 30.8412C51.6613 31.0585 48.2947 27.7885 48.15 24.1321Z" fill="#43B02A"/>
<path d="M72.6628 12.4718C72.5326 9.5254 76.42 7.55952 78.6965 9.46744C81.8653 12.3849 84.8171 15.5486 87.8894 18.5675C90.8363 15.6549 93.7302 12.6843 96.6964 9.79106C97.7816 8.71393 99.5614 8.34683 100.946 9.04238C102.417 9.69928 103.352 11.3512 103.275 12.95C103.261 20.2291 103.285 27.5082 103.261 34.7872C103.29 37.0381 101.085 38.9943 98.8475 38.6127C96.981 38.4099 95.4617 36.6758 95.4955 34.7969C95.4665 30.5222 95.4858 26.2426 95.4955 21.9679C93.8122 23.5909 92.1723 25.2621 90.5035 26.8995C89.2206 28.1457 87.1032 28.3148 85.6804 27.199C83.7608 25.6244 82.1981 23.6633 80.3509 21.9969C80.2978 26.3248 80.3943 30.6526 80.3075 34.9756C80.3171 37.2313 77.949 39.0764 75.7689 38.5789C73.9988 38.2746 72.494 36.5744 72.6532 34.7389C72.6484 27.3149 72.6291 19.8958 72.6628 12.4718Z" fill="#43B02A"/>
<path d="M106.44 12.6112C106.367 10.4327 108.379 8.56346 110.525 8.69388C115.69 8.70354 120.856 8.68422 126.022 8.70354C127.44 8.70354 128.819 9.58746 129.451 10.8578C130.69 13.0555 129.06 16.3014 126.475 16.3642C122.38 16.4656 118.276 16.3739 114.181 16.4077C114.176 17.992 114.176 19.5811 114.181 21.1654C117.639 21.1799 121.097 21.1509 124.555 21.1702C126.991 21.0785 129.176 23.5998 128.477 26.0004C128.091 27.7876 126.33 29.0627 124.526 28.9855C121.078 29.0096 117.629 28.9758 114.181 28.9903C114.147 31.0335 114.239 33.0766 114.147 35.115C114.022 37.4721 111.393 39.2351 109.165 38.4574C108.06 38.2014 107.366 37.2547 106.695 36.4239C106.237 34.2697 106.464 32.0623 106.42 29.8839C106.435 24.1263 106.382 18.3687 106.44 12.6112Z" fill="#43B02A"/>
<path d="M131.524 12.9808C131.129 10.4304 133.849 8.07332 136.304 8.83166C138.002 9.32434 138.976 10.9086 140.225 12.0341C142.13 13.8261 143.881 15.7823 145.81 17.5598C148.506 14.9515 151.092 12.2321 153.797 9.63347C155.302 8.2617 157.801 8.46456 159.122 9.99573C160.492 11.4351 160.458 13.9082 159.026 15.2896C155.92 18.4437 152.751 21.5399 149.654 24.7085C149.645 28.0654 149.703 31.4224 149.64 34.7794C149.727 36.581 148.285 38.2426 146.543 38.5566C144.277 39.0879 141.802 37.093 141.966 34.7407C141.933 31.3983 141.966 28.0558 141.957 24.7133C139.463 22.0857 136.815 19.603 134.307 16.9898C133.179 15.8258 131.582 14.7728 131.524 12.9808Z" fill="#43B02A"/>
</g>
</svg>
