<svg width="141" height="141" viewBox="0 0 141 141" fill="none" xmlns="http://www.w3.org/2000/svg">
<g clip-path="url(#clip0_64_97)">
<path d="M140.68 0.493347H0.702576V140.471H140.68V0.493347Z" fill="white"/>
<path d="M18.8871 14.8255H15.0348V18.6778H18.8871V14.8255Z" fill="black"/>
<path d="M22.7394 14.8255H18.8871V18.6778H22.7394V14.8255Z" fill="black"/>
<path d="M26.5917 14.8255H22.7394V18.6778H26.5917V14.8255Z" fill="black"/>
<path d="M30.444 14.8255H26.5917V18.6778H30.444V14.8255Z" fill="black"/>
<path d="M34.2962 14.8255H30.444V18.6778H34.2962V14.8255Z" fill="black"/>
<path d="M38.1485 14.8255H34.2962V18.6778H38.1485V14.8255Z" fill="black"/>
<path d="M42.0008 14.8255H38.1485V18.6778H42.0008V14.8255Z" fill="black"/>
<path d="M49.7054 14.8255H45.8531V18.6778H49.7054V14.8255Z" fill="black"/>
<path d="M61.2623 14.8255H57.41V18.6778H61.2623V14.8255Z" fill="black"/>
<path d="M68.9669 14.8255H65.1146V18.6778H68.9669V14.8255Z" fill="black"/>
<path d="M80.5237 14.8255H76.6715V18.6778H80.5237V14.8255Z" fill="black"/>
<path d="M88.2283 14.8255H84.376V18.6778H88.2283V14.8255Z" fill="black"/>
<path d="M95.9329 14.8255H92.0806V18.6778H95.9329V14.8255Z" fill="black"/>
<path d="M103.637 14.8255H99.7852V18.6778H103.637V14.8255Z" fill="black"/>
<path d="M107.49 14.8255H103.637V18.6778H107.49V14.8255Z" fill="black"/>
<path d="M111.342 14.8255H107.49V18.6778H111.342V14.8255Z" fill="black"/>
<path d="M115.194 14.8255H111.342V18.6778H115.194V14.8255Z" fill="black"/>
<path d="M119.047 14.8255H115.194V18.6778H119.047V14.8255Z" fill="black"/>
<path d="M122.899 14.8255H119.047V18.6778H122.899V14.8255Z" fill="black"/>
<path d="M126.751 14.8255H122.899V18.6778H126.751V14.8255Z" fill="black"/>
<path d="M18.8871 18.6778H15.0348V22.5301H18.8871V18.6778Z" fill="black"/>
<path d="M42.0008 18.6778H38.1485V22.5301H42.0008V18.6778Z" fill="black"/>
<path d="M65.1146 18.6778H61.2623V22.5301H65.1146V18.6778Z" fill="black"/>
<path d="M72.8192 18.6778H68.9669V22.5301H72.8192V18.6778Z" fill="black"/>
<path d="M76.6715 18.6778H72.8192V22.5301H76.6715V18.6778Z" fill="black"/>
<path d="M103.637 18.6778H99.7852V22.5301H103.637V18.6778Z" fill="black"/>
<path d="M126.751 18.6778H122.899V22.5301H126.751V18.6778Z" fill="black"/>
<path d="M18.8871 22.5301H15.0348V26.3824H18.8871V22.5301Z" fill="black"/>
<path d="M26.5917 22.5301H22.7394V26.3824H26.5917V22.5301Z" fill="black"/>
<path d="M30.444 22.5301H26.5917V26.3824H30.444V22.5301Z" fill="black"/>
<path d="M34.2962 22.5301H30.444V26.3824H34.2962V22.5301Z" fill="black"/>
<path d="M42.0008 22.5301H38.1485V26.3824H42.0008V22.5301Z" fill="black"/>
<path d="M61.2623 22.5301H57.41V26.3824H61.2623V22.5301Z" fill="black"/>
<path d="M65.1146 22.5301H61.2623V26.3824H65.1146V22.5301Z" fill="black"/>
<path d="M68.9669 22.5301H65.1146V26.3824H68.9669V22.5301Z" fill="black"/>
<path d="M72.8192 22.5301H68.9669V26.3824H72.8192V22.5301Z" fill="black"/>
<path d="M84.376 22.5301H80.5237V26.3824H84.376V22.5301Z" fill="black"/>
<path d="M103.637 22.5301H99.7852V26.3824H103.637V22.5301Z" fill="black"/>
<path d="M111.342 22.5301H107.49V26.3824H111.342V22.5301Z" fill="black"/>
<path d="M115.194 22.5301H111.342V26.3824H115.194V22.5301Z" fill="black"/>
<path d="M119.047 22.5301H115.194V26.3824H119.047V22.5301Z" fill="black"/>
<path d="M126.751 22.5301H122.899V26.3824H126.751V22.5301Z" fill="black"/>
<path d="M18.8871 26.3824H15.0348V30.2347H18.8871V26.3824Z" fill="black"/>
<path d="M26.5917 26.3824H22.7394V30.2347H26.5917V26.3824Z" fill="black"/>
<path d="M30.444 26.3824H26.5917V30.2347H30.444V26.3824Z" fill="black"/>
<path d="M34.2962 26.3824H30.444V30.2347H34.2962V26.3824Z" fill="black"/>
<path d="M42.0008 26.3824H38.1485V30.2347H42.0008V26.3824Z" fill="black"/>
<path d="M49.7054 26.3824H45.8531V30.2347H49.7054V26.3824Z" fill="black"/>
<path d="M53.5577 26.3824H49.7054V30.2347H53.5577V26.3824Z" fill="black"/>
<path d="M61.2623 26.3824H57.41V30.2347H61.2623V26.3824Z" fill="black"/>
<path d="M84.376 26.3824H80.5237V30.2347H84.376V26.3824Z" fill="black"/>
<path d="M103.637 26.3824H99.7852V30.2347H103.637V26.3824Z" fill="black"/>
<path d="M111.342 26.3824H107.49V30.2347H111.342V26.3824Z" fill="black"/>
<path d="M115.194 26.3824H111.342V30.2347H115.194V26.3824Z" fill="black"/>
<path d="M119.047 26.3824H115.194V30.2347H119.047V26.3824Z" fill="black"/>
<path d="M126.751 26.3824H122.899V30.2347H126.751V26.3824Z" fill="black"/>
<path d="M18.8871 30.2347H15.0348V34.087H18.8871V30.2347Z" fill="black"/>
<path d="M26.5917 30.2347H22.7394V34.087H26.5917V30.2347Z" fill="black"/>
<path d="M30.444 30.2347H26.5917V34.087H30.444V30.2347Z" fill="black"/>
<path d="M34.2962 30.2347H30.444V34.087H34.2962V30.2347Z" fill="black"/>
<path d="M42.0008 30.2347H38.1485V34.087H42.0008V30.2347Z" fill="black"/>
<path d="M57.41 30.2347H53.5577V34.087H57.41V30.2347Z" fill="black"/>
<path d="M68.9669 30.2347H65.1146V34.087H68.9669V30.2347Z" fill="black"/>
<path d="M72.8192 30.2347H68.9669V34.087H72.8192V30.2347Z" fill="black"/>
<path d="M76.6715 30.2347H72.8192V34.087H76.6715V30.2347Z" fill="black"/>
<path d="M84.376 30.2347H80.5237V34.087H84.376V30.2347Z" fill="black"/>
<path d="M88.2283 30.2347H84.376V34.087H88.2283V30.2347Z" fill="black"/>
<path d="M92.0806 30.2347H88.2283V34.087H92.0806V30.2347Z" fill="black"/>
<path d="M103.637 30.2347H99.7852V34.087H103.637V30.2347Z" fill="black"/>
<path d="M111.342 30.2347H107.49V34.087H111.342V30.2347Z" fill="black"/>
<path d="M115.194 30.2347H111.342V34.087H115.194V30.2347Z" fill="black"/>
<path d="M119.047 30.2347H115.194V34.087H119.047V30.2347Z" fill="black"/>
<path d="M126.751 30.2347H122.899V34.087H126.751V30.2347Z" fill="black"/>
<path d="M18.8871 34.087H15.0348V37.9393H18.8871V34.087Z" fill="black"/>
<path d="M42.0008 34.087H38.1485V37.9393H42.0008V34.087Z" fill="black"/>
<path d="M49.7054 34.087H45.8531V37.9393H49.7054V34.087Z" fill="black"/>
<path d="M53.5577 34.087H49.7054V37.9393H53.5577V34.087Z" fill="black"/>
<path d="M57.41 34.087H53.5577V37.9393H57.41V34.087Z" fill="black"/>
<path d="M61.2623 34.087H57.41V37.9393H61.2623V34.087Z" fill="black"/>
<path d="M65.1146 34.087H61.2623V37.9393H65.1146V34.087Z" fill="black"/>
<path d="M68.9669 34.087H65.1146V37.9393H68.9669V34.087Z" fill="black"/>
<path d="M80.5237 34.087H76.6715V37.9393H80.5237V34.087Z" fill="black"/>
<path d="M92.0806 34.087H88.2283V37.9393H92.0806V34.087Z" fill="black"/>
<path d="M103.637 34.087H99.7852V37.9393H103.637V34.087Z" fill="black"/>
<path d="M126.751 34.087H122.899V37.9393H126.751V34.087Z" fill="black"/>
<path d="M18.8871 37.9393H15.0348V41.7916H18.8871V37.9393Z" fill="black"/>
<path d="M22.7394 37.9393H18.8871V41.7916H22.7394V37.9393Z" fill="black"/>
<path d="M26.5917 37.9393H22.7394V41.7916H26.5917V37.9393Z" fill="black"/>
<path d="M30.444 37.9393H26.5917V41.7916H30.444V37.9393Z" fill="black"/>
<path d="M34.2962 37.9393H30.444V41.7916H34.2962V37.9393Z" fill="black"/>
<path d="M38.1485 37.9393H34.2962V41.7916H38.1485V37.9393Z" fill="black"/>
<path d="M42.0008 37.9393H38.1485V41.7916H42.0008V37.9393Z" fill="black"/>
<path d="M49.7054 37.9393H45.8531V41.7916H49.7054V37.9393Z" fill="black"/>
<path d="M57.41 37.9393H53.5577V41.7916H57.41V37.9393Z" fill="black"/>
<path d="M65.1146 37.9393H61.2623V41.7916H65.1146V37.9393Z" fill="black"/>
<path d="M72.8192 37.9393H68.9669V41.7916H72.8192V37.9393Z" fill="black"/>
<path d="M80.5237 37.9393H76.6715V41.7916H80.5237V37.9393Z" fill="black"/>
<path d="M88.2283 37.9393H84.376V41.7916H88.2283V37.9393Z" fill="black"/>
<path d="M95.9329 37.9393H92.0806V41.7916H95.9329V37.9393Z" fill="black"/>
<path d="M103.637 37.9393H99.7852V41.7916H103.637V37.9393Z" fill="black"/>
<path d="M107.49 37.9393H103.637V41.7916H107.49V37.9393Z" fill="black"/>
<path d="M111.342 37.9393H107.49V41.7916H111.342V37.9393Z" fill="black"/>
<path d="M115.194 37.9393H111.342V41.7916H115.194V37.9393Z" fill="black"/>
<path d="M119.047 37.9393H115.194V41.7916H119.047V37.9393Z" fill="black"/>
<path d="M122.899 37.9393H119.047V41.7916H122.899V37.9393Z" fill="black"/>
<path d="M126.751 37.9393H122.899V41.7916H126.751V37.9393Z" fill="black"/>
<path d="M53.5577 41.7916H49.7054V45.6439H53.5577V41.7916Z" fill="black"/>
<path d="M65.1146 41.7916H61.2623V45.6439H65.1146V41.7916Z" fill="black"/>
<path d="M76.6715 41.7916H72.8192V45.6439H76.6715V41.7916Z" fill="black"/>
<path d="M88.2283 41.7916H84.376V45.6439H88.2283V41.7916Z" fill="black"/>
<path d="M95.9329 41.7916H92.0806V45.6439H95.9329V41.7916Z" fill="black"/>
<path d="M38.1485 45.6439H34.2962V49.4962H38.1485V45.6439Z" fill="black"/>
<path d="M42.0008 45.6439H38.1485V49.4962H42.0008V45.6439Z" fill="black"/>
<path d="M49.7054 45.6439H45.8531V49.4962H49.7054V45.6439Z" fill="black"/>
<path d="M57.41 45.6439H53.5577V49.4962H57.41V45.6439Z" fill="black"/>
<path d="M65.1146 45.6439H61.2623V49.4962H65.1146V45.6439Z" fill="black"/>
<path d="M72.8192 45.6439H68.9669V49.4962H72.8192V45.6439Z" fill="black"/>
<path d="M76.6715 45.6439H72.8192V49.4962H76.6715V45.6439Z" fill="black"/>
<path d="M84.376 45.6439H80.5237V49.4962H84.376V45.6439Z" fill="black"/>
<path d="M92.0806 45.6439H88.2283V49.4962H92.0806V45.6439Z" fill="black"/>
<path d="M95.9329 45.6439H92.0806V49.4962H95.9329V45.6439Z" fill="black"/>
<path d="M99.7852 45.6439H95.9329V49.4962H99.7852V45.6439Z" fill="black"/>
<path d="M107.49 45.6439H103.637V49.4962H107.49V45.6439Z" fill="black"/>
<path d="M115.194 45.6439H111.342V49.4962H115.194V45.6439Z" fill="black"/>
<path d="M126.751 45.6439H122.899V49.4962H126.751V45.6439Z" fill="black"/>
<path d="M30.444 49.4962H26.5917V53.3484H30.444V49.4962Z" fill="black"/>
<path d="M34.2962 49.4962H30.444V53.3484H34.2962V49.4962Z" fill="black"/>
<path d="M57.41 49.4962H53.5577V53.3484H57.41V49.4962Z" fill="black"/>
<path d="M65.1146 49.4962H61.2623V53.3484H65.1146V49.4962Z" fill="black"/>
<path d="M76.6715 49.4962H72.8192V53.3484H76.6715V49.4962Z" fill="black"/>
<path d="M80.5237 49.4962H76.6715V53.3484H80.5237V49.4962Z" fill="black"/>
<path d="M88.2283 49.4962H84.376V53.3484H88.2283V49.4962Z" fill="black"/>
<path d="M99.7852 49.4962H95.9329V53.3484H99.7852V49.4962Z" fill="black"/>
<path d="M107.49 49.4962H103.637V53.3484H107.49V49.4962Z" fill="black"/>
<path d="M111.342 49.4962H107.49V53.3484H111.342V49.4962Z" fill="black"/>
<path d="M119.047 49.4962H115.194V53.3484H119.047V49.4962Z" fill="black"/>
<path d="M122.899 49.4962H119.047V53.3484H122.899V49.4962Z" fill="black"/>
<path d="M22.7394 53.3484H18.8871V57.2007H22.7394V53.3484Z" fill="black"/>
<path d="M26.5917 53.3484H22.7394V57.2007H26.5917V53.3484Z" fill="black"/>
<path d="M38.1485 53.3484H34.2962V57.2007H38.1485V53.3484Z" fill="black"/>
<path d="M42.0008 53.3484H38.1485V57.2007H42.0008V53.3484Z" fill="black"/>
<path d="M45.8531 53.3484H42.0008V57.2007H45.8531V53.3484Z" fill="black"/>
<path d="M53.5577 53.3484H49.7054V57.2007H53.5577V53.3484Z" fill="black"/>
<path d="M61.2623 53.3484H57.41V57.2007H61.2623V53.3484Z" fill="black"/>
<path d="M65.1146 53.3484H61.2623V57.2007H65.1146V53.3484Z" fill="black"/>
<path d="M80.5237 53.3484H76.6715V57.2007H80.5237V53.3484Z" fill="black"/>
<path d="M95.9329 53.3484H92.0806V57.2007H95.9329V53.3484Z" fill="black"/>
<path d="M107.49 53.3484H103.637V57.2007H107.49V53.3484Z" fill="black"/>
<path d="M115.194 53.3484H111.342V57.2007H115.194V53.3484Z" fill="black"/>
<path d="M126.751 53.3484H122.899V57.2007H126.751V53.3484Z" fill="black"/>
<path d="M22.7394 57.2007H18.8871V61.053H22.7394V57.2007Z" fill="black"/>
<path d="M34.2962 57.2007H30.444V61.053H34.2962V57.2007Z" fill="black"/>
<path d="M38.1485 57.2007H34.2962V61.053H38.1485V57.2007Z" fill="black"/>
<path d="M49.7054 57.2007H45.8531V61.053H49.7054V57.2007Z" fill="black"/>
<path d="M53.5577 57.2007H49.7054V61.053H53.5577V57.2007Z" fill="black"/>
<path d="M57.41 57.2007H53.5577V61.053H57.41V57.2007Z" fill="black"/>
<path d="M68.9669 57.2007H65.1146V61.053H68.9669V57.2007Z" fill="black"/>
<path d="M80.5237 57.2007H76.6715V61.053H80.5237V57.2007Z" fill="black"/>
<path d="M92.0806 57.2007H88.2283V61.053H92.0806V57.2007Z" fill="black"/>
<path d="M103.637 57.2007H99.7852V61.053H103.637V57.2007Z" fill="black"/>
<path d="M111.342 57.2007H107.49V61.053H111.342V57.2007Z" fill="black"/>
<path d="M18.8871 61.053H15.0348V64.9053H18.8871V61.053Z" fill="black"/>
<path d="M22.7394 61.053H18.8871V64.9053H22.7394V61.053Z" fill="black"/>
<path d="M26.5917 61.053H22.7394V64.9053H26.5917V61.053Z" fill="black"/>
<path d="M38.1485 61.053H34.2962V64.9053H38.1485V61.053Z" fill="black"/>
<path d="M42.0008 61.053H38.1485V64.9053H42.0008V61.053Z" fill="black"/>
<path d="M45.8531 61.053H42.0008V64.9053H45.8531V61.053Z" fill="black"/>
<path d="M49.7054 61.053H45.8531V64.9053H49.7054V61.053Z" fill="black"/>
<path d="M53.5577 61.053H49.7054V64.9053H53.5577V61.053Z" fill="black"/>
<path d="M68.9669 61.053H65.1146V64.9053H68.9669V61.053Z" fill="black"/>
<path d="M72.8192 61.053H68.9669V64.9053H72.8192V61.053Z" fill="black"/>
<path d="M76.6715 61.053H72.8192V64.9053H76.6715V61.053Z" fill="black"/>
<path d="M84.376 61.053H80.5237V64.9053H84.376V61.053Z" fill="black"/>
<path d="M88.2283 61.053H84.376V64.9053H88.2283V61.053Z" fill="black"/>
<path d="M99.7852 61.053H95.9329V64.9053H99.7852V61.053Z" fill="black"/>
<path d="M107.49 61.053H103.637V64.9053H107.49V61.053Z" fill="black"/>
<path d="M111.342 61.053H107.49V64.9053H111.342V61.053Z" fill="black"/>
<path d="M119.047 61.053H115.194V64.9053H119.047V61.053Z" fill="black"/>
<path d="M122.899 61.053H119.047V64.9053H122.899V61.053Z" fill="black"/>
<path d="M18.8871 64.9053H15.0348V68.7576H18.8871V64.9053Z" fill="black"/>
<path d="M22.7394 64.9053H18.8871V68.7576H22.7394V64.9053Z" fill="black"/>
<path d="M26.5917 64.9053H22.7394V68.7576H26.5917V64.9053Z" fill="black"/>
<path d="M30.444 64.9053H26.5917V68.7576H30.444V64.9053Z" fill="black"/>
<path d="M34.2962 64.9053H30.444V68.7576H34.2962V64.9053Z" fill="black"/>
<path d="M38.1485 64.9053H34.2962V68.7576H38.1485V64.9053Z" fill="black"/>
<path d="M76.6715 64.9053H72.8192V68.7576H76.6715V64.9053Z" fill="black"/>
<path d="M80.5237 64.9053H76.6715V68.7576H80.5237V64.9053Z" fill="black"/>
<path d="M88.2283 64.9053H84.376V68.7576H88.2283V64.9053Z" fill="black"/>
<path d="M92.0806 64.9053H88.2283V68.7576H92.0806V64.9053Z" fill="black"/>
<path d="M99.7852 64.9053H95.9329V68.7576H99.7852V64.9053Z" fill="black"/>
<path d="M103.637 64.9053H99.7852V68.7576H103.637V64.9053Z" fill="black"/>
<path d="M107.49 64.9053H103.637V68.7576H107.49V64.9053Z" fill="black"/>
<path d="M115.194 64.9053H111.342V68.7576H115.194V64.9053Z" fill="black"/>
<path d="M122.899 64.9053H119.047V68.7576H122.899V64.9053Z" fill="black"/>
<path d="M126.751 64.9053H122.899V68.7576H126.751V64.9053Z" fill="black"/>
<path d="M22.7394 68.7576H18.8871V72.6099H22.7394V68.7576Z" fill="black"/>
<path d="M30.444 68.7576H26.5917V72.6099H30.444V68.7576Z" fill="black"/>
<path d="M34.2962 68.7576H30.444V72.6099H34.2962V68.7576Z" fill="black"/>
<path d="M38.1485 68.7576H34.2962V72.6099H38.1485V68.7576Z" fill="black"/>
<path d="M42.0008 68.7576H38.1485V72.6099H42.0008V68.7576Z" fill="black"/>
<path d="M45.8531 68.7576H42.0008V72.6099H45.8531V68.7576Z" fill="black"/>
<path d="M53.5577 68.7576H49.7054V72.6099H53.5577V68.7576Z" fill="black"/>
<path d="M61.2623 68.7576H57.41V72.6099H61.2623V68.7576Z" fill="black"/>
<path d="M76.6715 68.7576H72.8192V72.6099H76.6715V68.7576Z" fill="black"/>
<path d="M80.5237 68.7576H76.6715V72.6099H80.5237V68.7576Z" fill="black"/>
<path d="M95.9329 68.7576H92.0806V72.6099H95.9329V68.7576Z" fill="black"/>
<path d="M103.637 68.7576H99.7852V72.6099H103.637V68.7576Z" fill="black"/>
<path d="M111.342 68.7576H107.49V72.6099H111.342V68.7576Z" fill="black"/>
<path d="M115.194 68.7576H111.342V72.6099H115.194V68.7576Z" fill="black"/>
<path d="M122.899 68.7576H119.047V72.6099H122.899V68.7576Z" fill="black"/>
<path d="M22.7394 72.6099H18.8871V76.4622H22.7394V72.6099Z" fill="black"/>
<path d="M30.444 72.6099H26.5917V76.4622H30.444V72.6099Z" fill="black"/>
<path d="M49.7054 72.6099H45.8531V76.4622H49.7054V72.6099Z" fill="black"/>
<path d="M53.5577 72.6099H49.7054V76.4622H53.5577V72.6099Z" fill="black"/>
<path d="M61.2623 72.6099H57.41V76.4622H61.2623V72.6099Z" fill="black"/>
<path d="M68.9669 72.6099H65.1146V76.4622H68.9669V72.6099Z" fill="black"/>
<path d="M72.8192 72.6099H68.9669V76.4622H72.8192V72.6099Z" fill="black"/>
<path d="M80.5237 72.6099H76.6715V76.4622H80.5237V72.6099Z" fill="black"/>
<path d="M84.376 72.6099H80.5237V76.4622H84.376V72.6099Z" fill="black"/>
<path d="M92.0806 72.6099H88.2283V76.4622H92.0806V72.6099Z" fill="black"/>
<path d="M99.7852 72.6099H95.9329V76.4622H99.7852V72.6099Z" fill="black"/>
<path d="M103.637 72.6099H99.7852V76.4622H103.637V72.6099Z" fill="black"/>
<path d="M111.342 72.6099H107.49V76.4622H111.342V72.6099Z" fill="black"/>
<path d="M115.194 72.6099H111.342V76.4622H115.194V72.6099Z" fill="black"/>
<path d="M122.899 72.6099H119.047V76.4622H122.899V72.6099Z" fill="black"/>
<path d="M18.8871 76.4622H15.0348V80.3145H18.8871V76.4622Z" fill="black"/>
<path d="M26.5917 76.4622H22.7394V80.3145H26.5917V76.4622Z" fill="black"/>
<path d="M34.2962 76.4622H30.444V80.3145H34.2962V76.4622Z" fill="black"/>
<path d="M42.0008 76.4622H38.1485V80.3145H42.0008V76.4622Z" fill="black"/>
<path d="M57.41 76.4622H53.5577V80.3145H57.41V76.4622Z" fill="black"/>
<path d="M65.1146 76.4622H61.2623V80.3145H65.1146V76.4622Z" fill="black"/>
<path d="M72.8192 76.4622H68.9669V80.3145H72.8192V76.4622Z" fill="black"/>
<path d="M76.6715 76.4622H72.8192V80.3145H76.6715V76.4622Z" fill="black"/>
<path d="M80.5237 76.4622H76.6715V80.3145H80.5237V76.4622Z" fill="black"/>
<path d="M92.0806 76.4622H88.2283V80.3145H92.0806V76.4622Z" fill="black"/>
<path d="M95.9329 76.4622H92.0806V80.3145H95.9329V76.4622Z" fill="black"/>
<path d="M99.7852 76.4622H95.9329V80.3145H99.7852V76.4622Z" fill="black"/>
<path d="M107.49 76.4622H103.637V80.3145H107.49V76.4622Z" fill="black"/>
<path d="M115.194 76.4622H111.342V80.3145H115.194V76.4622Z" fill="black"/>
<path d="M26.5917 80.3145H22.7394V84.1668H26.5917V80.3145Z" fill="black"/>
<path d="M34.2962 80.3145H30.444V84.1668H34.2962V80.3145Z" fill="black"/>
<path d="M38.1485 80.3145H34.2962V84.1668H38.1485V80.3145Z" fill="black"/>
<path d="M45.8531 80.3145H42.0008V84.1668H45.8531V80.3145Z" fill="black"/>
<path d="M49.7054 80.3145H45.8531V84.1668H49.7054V80.3145Z" fill="black"/>
<path d="M57.41 80.3145H53.5577V84.1668H57.41V80.3145Z" fill="black"/>
<path d="M61.2623 80.3145H57.41V84.1668H61.2623V80.3145Z" fill="black"/>
<path d="M68.9669 80.3145H65.1146V84.1668H68.9669V80.3145Z" fill="black"/>
<path d="M72.8192 80.3145H68.9669V84.1668H72.8192V80.3145Z" fill="black"/>
<path d="M76.6715 80.3145H72.8192V84.1668H76.6715V80.3145Z" fill="black"/>
<path d="M84.376 80.3145H80.5237V84.1668H84.376V80.3145Z" fill="black"/>
<path d="M88.2283 80.3145H84.376V84.1668H88.2283V80.3145Z" fill="black"/>
<path d="M95.9329 80.3145H92.0806V84.1668H95.9329V80.3145Z" fill="black"/>
<path d="M99.7852 80.3145H95.9329V84.1668H99.7852V80.3145Z" fill="black"/>
<path d="M22.7394 84.1668H18.8871V88.0191H22.7394V84.1668Z" fill="black"/>
<path d="M26.5917 84.1668H22.7394V88.0191H26.5917V84.1668Z" fill="black"/>
<path d="M30.444 84.1668H26.5917V88.0191H30.444V84.1668Z" fill="black"/>
<path d="M34.2962 84.1668H30.444V88.0191H34.2962V84.1668Z" fill="black"/>
<path d="M38.1485 84.1668H34.2962V88.0191H38.1485V84.1668Z" fill="black"/>
<path d="M42.0008 84.1668H38.1485V88.0191H42.0008V84.1668Z" fill="black"/>
<path d="M45.8531 84.1668H42.0008V88.0191H45.8531V84.1668Z" fill="black"/>
<path d="M49.7054 84.1668H45.8531V88.0191H49.7054V84.1668Z" fill="black"/>
<path d="M72.8192 84.1668H68.9669V88.0191H72.8192V84.1668Z" fill="black"/>
<path d="M76.6715 84.1668H72.8192V88.0191H76.6715V84.1668Z" fill="black"/>
<path d="M80.5237 84.1668H76.6715V88.0191H80.5237V84.1668Z" fill="black"/>
<path d="M84.376 84.1668H80.5237V88.0191H84.376V84.1668Z" fill="black"/>
<path d="M103.637 84.1668H99.7852V88.0191H103.637V84.1668Z" fill="black"/>
<path d="M107.49 84.1668H103.637V88.0191H107.49V84.1668Z" fill="black"/>
<path d="M111.342 84.1668H107.49V88.0191H111.342V84.1668Z" fill="black"/>
<path d="M115.194 84.1668H111.342V88.0191H115.194V84.1668Z" fill="black"/>
<path d="M18.8871 88.0191H15.0348V91.8714H18.8871V88.0191Z" fill="black"/>
<path d="M26.5917 88.0191H22.7394V91.8714H26.5917V88.0191Z" fill="black"/>
<path d="M30.444 88.0191H26.5917V91.8714H30.444V88.0191Z" fill="black"/>
<path d="M38.1485 88.0191H34.2962V91.8714H38.1485V88.0191Z" fill="black"/>
<path d="M45.8531 88.0191H42.0008V91.8714H45.8531V88.0191Z" fill="black"/>
<path d="M53.5577 88.0191H49.7054V91.8714H53.5577V88.0191Z" fill="black"/>
<path d="M57.41 88.0191H53.5577V91.8714H57.41V88.0191Z" fill="black"/>
<path d="M65.1146 88.0191H61.2623V91.8714H65.1146V88.0191Z" fill="black"/>
<path d="M68.9669 88.0191H65.1146V91.8714H68.9669V88.0191Z" fill="black"/>
<path d="M76.6715 88.0191H72.8192V91.8714H76.6715V88.0191Z" fill="black"/>
<path d="M80.5237 88.0191H76.6715V91.8714H80.5237V88.0191Z" fill="black"/>
<path d="M119.047 88.0191H115.194V91.8714H119.047V88.0191Z" fill="black"/>
<path d="M122.899 88.0191H119.047V91.8714H122.899V88.0191Z" fill="black"/>
<path d="M126.751 88.0191H122.899V91.8714H126.751V88.0191Z" fill="black"/>
<path d="M18.8871 91.8714H15.0348V95.7236H18.8871V91.8714Z" fill="black"/>
<path d="M38.1485 91.8714H34.2962V95.7236H38.1485V91.8714Z" fill="black"/>
<path d="M42.0008 91.8714H38.1485V95.7236H42.0008V91.8714Z" fill="black"/>
<path d="M49.7054 91.8714H45.8531V95.7236H49.7054V91.8714Z" fill="black"/>
<path d="M53.5577 91.8714H49.7054V95.7236H53.5577V91.8714Z" fill="black"/>
<path d="M65.1146 91.8714H61.2623V95.7236H65.1146V91.8714Z" fill="black"/>
<path d="M72.8192 91.8714H68.9669V95.7236H72.8192V91.8714Z" fill="black"/>
<path d="M80.5237 91.8714H76.6715V95.7236H80.5237V91.8714Z" fill="black"/>
<path d="M92.0806 91.8714H88.2283V95.7236H92.0806V91.8714Z" fill="black"/>
<path d="M95.9329 91.8714H92.0806V95.7236H95.9329V91.8714Z" fill="black"/>
<path d="M99.7852 91.8714H95.9329V95.7236H99.7852V91.8714Z" fill="black"/>
<path d="M103.637 91.8714H99.7852V95.7236H103.637V91.8714Z" fill="black"/>
<path d="M107.49 91.8714H103.637V95.7236H107.49V91.8714Z" fill="black"/>
<path d="M111.342 91.8714H107.49V95.7236H111.342V91.8714Z" fill="black"/>
<path d="M115.194 91.8714H111.342V95.7236H115.194V91.8714Z" fill="black"/>
<path d="M119.047 91.8714H115.194V95.7236H119.047V91.8714Z" fill="black"/>
<path d="M122.899 91.8714H119.047V95.7236H122.899V91.8714Z" fill="black"/>
<path d="M126.751 91.8714H122.899V95.7236H126.751V91.8714Z" fill="black"/>
<path d="M49.7054 95.7236H45.8531V99.5759H49.7054V95.7236Z" fill="black"/>
<path d="M53.5577 95.7236H49.7054V99.5759H53.5577V95.7236Z" fill="black"/>
<path d="M57.41 95.7236H53.5577V99.5759H57.41V95.7236Z" fill="black"/>
<path d="M61.2623 95.7236H57.41V99.5759H61.2623V95.7236Z" fill="black"/>
<path d="M65.1146 95.7236H61.2623V99.5759H65.1146V95.7236Z" fill="black"/>
<path d="M68.9669 95.7236H65.1146V99.5759H68.9669V95.7236Z" fill="black"/>
<path d="M80.5237 95.7236H76.6715V99.5759H80.5237V95.7236Z" fill="black"/>
<path d="M84.376 95.7236H80.5237V99.5759H84.376V95.7236Z" fill="black"/>
<path d="M88.2283 95.7236H84.376V99.5759H88.2283V95.7236Z" fill="black"/>
<path d="M95.9329 95.7236H92.0806V99.5759H95.9329V95.7236Z" fill="black"/>
<path d="M111.342 95.7236H107.49V99.5759H111.342V95.7236Z" fill="black"/>
<path d="M126.751 95.7236H122.899V99.5759H126.751V95.7236Z" fill="black"/>
<path d="M18.8871 99.5759H15.0348V103.428H18.8871V99.5759Z" fill="black"/>
<path d="M22.7394 99.5759H18.8871V103.428H22.7394V99.5759Z" fill="black"/>
<path d="M26.5917 99.5759H22.7394V103.428H26.5917V99.5759Z" fill="black"/>
<path d="M30.444 99.5759H26.5917V103.428H30.444V99.5759Z" fill="black"/>
<path d="M34.2962 99.5759H30.444V103.428H34.2962V99.5759Z" fill="black"/>
<path d="M38.1485 99.5759H34.2962V103.428H38.1485V99.5759Z" fill="black"/>
<path d="M42.0008 99.5759H38.1485V103.428H42.0008V99.5759Z" fill="black"/>
<path d="M53.5577 99.5759H49.7054V103.428H53.5577V99.5759Z" fill="black"/>
<path d="M57.41 99.5759H53.5577V103.428H57.41V99.5759Z" fill="black"/>
<path d="M61.2623 99.5759H57.41V103.428H61.2623V99.5759Z" fill="black"/>
<path d="M65.1146 99.5759H61.2623V103.428H65.1146V99.5759Z" fill="black"/>
<path d="M72.8192 99.5759H68.9669V103.428H72.8192V99.5759Z" fill="black"/>
<path d="M76.6715 99.5759H72.8192V103.428H76.6715V99.5759Z" fill="black"/>
<path d="M84.376 99.5759H80.5237V103.428H84.376V99.5759Z" fill="black"/>
<path d="M95.9329 99.5759H92.0806V103.428H95.9329V99.5759Z" fill="black"/>
<path d="M103.637 99.5759H99.7852V103.428H103.637V99.5759Z" fill="black"/>
<path d="M111.342 99.5759H107.49V103.428H111.342V99.5759Z" fill="black"/>
<path d="M115.194 99.5759H111.342V103.428H115.194V99.5759Z" fill="black"/>
<path d="M122.899 99.5759H119.047V103.428H122.899V99.5759Z" fill="black"/>
<path d="M18.8871 103.428H15.0348V107.281H18.8871V103.428Z" fill="black"/>
<path d="M42.0008 103.428H38.1485V107.281H42.0008V103.428Z" fill="black"/>
<path d="M49.7054 103.428H45.8531V107.281H49.7054V103.428Z" fill="black"/>
<path d="M53.5577 103.428H49.7054V107.281H53.5577V103.428Z" fill="black"/>
<path d="M57.41 103.428H53.5577V107.281H57.41V103.428Z" fill="black"/>
<path d="M72.8192 103.428H68.9669V107.281H72.8192V103.428Z" fill="black"/>
<path d="M84.376 103.428H80.5237V107.281H84.376V103.428Z" fill="black"/>
<path d="M88.2283 103.428H84.376V107.281H88.2283V103.428Z" fill="black"/>
<path d="M92.0806 103.428H88.2283V107.281H92.0806V103.428Z" fill="black"/>
<path d="M95.9329 103.428H92.0806V107.281H95.9329V103.428Z" fill="black"/>
<path d="M111.342 103.428H107.49V107.281H111.342V103.428Z" fill="black"/>
<path d="M115.194 103.428H111.342V107.281H115.194V103.428Z" fill="black"/>
<path d="M122.899 103.428H119.047V107.281H122.899V103.428Z" fill="black"/>
<path d="M18.8871 107.281H15.0348V111.133H18.8871V107.281Z" fill="black"/>
<path d="M26.5917 107.281H22.7394V111.133H26.5917V107.281Z" fill="black"/>
<path d="M30.444 107.281H26.5917V111.133H30.444V107.281Z" fill="black"/>
<path d="M34.2962 107.281H30.444V111.133H34.2962V107.281Z" fill="black"/>
<path d="M42.0008 107.281H38.1485V111.133H42.0008V107.281Z" fill="black"/>
<path d="M61.2623 107.281H57.41V111.133H61.2623V107.281Z" fill="black"/>
<path d="M76.6715 107.281H72.8192V111.133H76.6715V107.281Z" fill="black"/>
<path d="M88.2283 107.281H84.376V111.133H88.2283V107.281Z" fill="black"/>
<path d="M95.9329 107.281H92.0806V111.133H95.9329V107.281Z" fill="black"/>
<path d="M99.7852 107.281H95.9329V111.133H99.7852V107.281Z" fill="black"/>
<path d="M103.637 107.281H99.7852V111.133H103.637V107.281Z" fill="black"/>
<path d="M107.49 107.281H103.637V111.133H107.49V107.281Z" fill="black"/>
<path d="M111.342 107.281H107.49V111.133H111.342V107.281Z" fill="black"/>
<path d="M115.194 107.281H111.342V111.133H115.194V107.281Z" fill="black"/>
<path d="M119.047 107.281H115.194V111.133H119.047V107.281Z" fill="black"/>
<path d="M122.899 107.281H119.047V111.133H122.899V107.281Z" fill="black"/>
<path d="M126.751 107.281H122.899V111.133H126.751V107.281Z" fill="black"/>
<path d="M18.8871 111.133H15.0348V114.985H18.8871V111.133Z" fill="black"/>
<path d="M26.5917 111.133H22.7394V114.985H26.5917V111.133Z" fill="black"/>
<path d="M30.444 111.133H26.5917V114.985H30.444V111.133Z" fill="black"/>
<path d="M34.2962 111.133H30.444V114.985H34.2962V111.133Z" fill="black"/>
<path d="M42.0008 111.133H38.1485V114.985H42.0008V111.133Z" fill="black"/>
<path d="M53.5577 111.133H49.7054V114.985H53.5577V111.133Z" fill="black"/>
<path d="M68.9669 111.133H65.1146V114.985H68.9669V111.133Z" fill="black"/>
<path d="M72.8192 111.133H68.9669V114.985H72.8192V111.133Z" fill="black"/>
<path d="M80.5237 111.133H76.6715V114.985H80.5237V111.133Z" fill="black"/>
<path d="M92.0806 111.133H88.2283V114.985H92.0806V111.133Z" fill="black"/>
<path d="M95.9329 111.133H92.0806V114.985H95.9329V111.133Z" fill="black"/>
<path d="M99.7852 111.133H95.9329V114.985H99.7852V111.133Z" fill="black"/>
<path d="M115.194 111.133H111.342V114.985H115.194V111.133Z" fill="black"/>
<path d="M119.047 111.133H115.194V114.985H119.047V111.133Z" fill="black"/>
<path d="M126.751 111.133H122.899V114.985H126.751V111.133Z" fill="black"/>
<path d="M18.8871 114.985H15.0348V118.837H18.8871V114.985Z" fill="black"/>
<path d="M26.5917 114.985H22.7394V118.837H26.5917V114.985Z" fill="black"/>
<path d="M30.444 114.985H26.5917V118.837H30.444V114.985Z" fill="black"/>
<path d="M34.2962 114.985H30.444V118.837H34.2962V114.985Z" fill="black"/>
<path d="M42.0008 114.985H38.1485V118.837H42.0008V114.985Z" fill="black"/>
<path d="M61.2623 114.985H57.41V118.837H61.2623V114.985Z" fill="black"/>
<path d="M95.9329 114.985H92.0806V118.837H95.9329V114.985Z" fill="black"/>
<path d="M107.49 114.985H103.637V118.837H107.49V114.985Z" fill="black"/>
<path d="M18.8871 118.837H15.0348V122.69H18.8871V118.837Z" fill="black"/>
<path d="M42.0008 118.837H38.1485V122.69H42.0008V118.837Z" fill="black"/>
<path d="M57.41 118.837H53.5577V122.69H57.41V118.837Z" fill="black"/>
<path d="M61.2623 118.837H57.41V122.69H61.2623V118.837Z" fill="black"/>
<path d="M65.1146 118.837H61.2623V122.69H65.1146V118.837Z" fill="black"/>
<path d="M68.9669 118.837H65.1146V122.69H68.9669V118.837Z" fill="black"/>
<path d="M84.376 118.837H80.5237V122.69H84.376V118.837Z" fill="black"/>
<path d="M88.2283 118.837H84.376V122.69H88.2283V118.837Z" fill="black"/>
<path d="M92.0806 118.837H88.2283V122.69H92.0806V118.837Z" fill="black"/>
<path d="M99.7852 118.837H95.9329V122.69H99.7852V118.837Z" fill="black"/>
<path d="M103.637 118.837H99.7852V122.69H103.637V118.837Z" fill="black"/>
<path d="M107.49 118.837H103.637V122.69H107.49V118.837Z" fill="black"/>
<path d="M122.899 118.837H119.047V122.69H122.899V118.837Z" fill="black"/>
<path d="M126.751 118.837H122.899V122.69H126.751V118.837Z" fill="black"/>
<path d="M18.8871 122.69H15.0348V126.542H18.8871V122.69Z" fill="black"/>
<path d="M22.7394 122.69H18.8871V126.542H22.7394V122.69Z" fill="black"/>
<path d="M26.5917 122.69H22.7394V126.542H26.5917V122.69Z" fill="black"/>
<path d="M30.444 122.69H26.5917V126.542H30.444V122.69Z" fill="black"/>
<path d="M34.2962 122.69H30.444V126.542H34.2962V122.69Z" fill="black"/>
<path d="M38.1485 122.69H34.2962V126.542H38.1485V122.69Z" fill="black"/>
<path d="M42.0008 122.69H38.1485V126.542H42.0008V122.69Z" fill="black"/>
<path d="M53.5577 122.69H49.7054V126.542H53.5577V122.69Z" fill="black"/>
<path d="M61.2623 122.69H57.41V126.542H61.2623V122.69Z" fill="black"/>
<path d="M72.8192 122.69H68.9669V126.542H72.8192V122.69Z" fill="black"/>
<path d="M80.5237 122.69H76.6715V126.542H80.5237V122.69Z" fill="black"/>
<path d="M84.376 122.69H80.5237V126.542H84.376V122.69Z" fill="black"/>
<path d="M88.2283 122.69H84.376V126.542H88.2283V122.69Z" fill="black"/>
<path d="M92.0806 122.69H88.2283V126.542H92.0806V122.69Z" fill="black"/>
<path d="M99.7852 122.69H95.9329V126.542H99.7852V122.69Z" fill="black"/>
<path d="M115.194 122.69H111.342V126.542H115.194V122.69Z" fill="black"/>
<path d="M119.047 122.69H115.194V126.542H119.047V122.69Z" fill="black"/>
</g>
<defs>
<clipPath id="clip0_64_97">
<rect x="0.703125" y="0.492188" width="139.978" height="139.978" rx="28.6644" fill="white"/>
</clipPath>
</defs>
</svg>
