<svg width="293" height="44" viewBox="0 0 293 44" fill="none" xmlns="http://www.w3.org/2000/svg">
<path d="M9.277 34.3596H0.107942L0 34.2465L12.9666 21.9045L0 9.5635L0.107942 9.4504H9.277L22.3635 21.9045L9.277 34.3596Z" fill="white"/>
<path d="M25.9271 34.2635H16.7581L16.6501 34.1504L29.6167 21.8085L16.6501 9.46743L16.7581 9.35433H25.9271L39.0136 21.8085L25.9271 34.2635Z" fill="white"/>
<path d="M61.6076 33.4393L50.1919 33.3831L50.1707 37.6846L47.1927 37.67L47.2273 30.6551L49.0141 30.6639C49.3694 30.1804 49.6586 29.6854 49.8817 29.1792C50.127 28.6509 50.3175 28.0452 50.4532 27.362C50.5889 26.6789 50.681 25.8962 50.7295 25.014C50.8001 24.1099 50.8385 23.0402 50.8445 21.8049L50.869 16.8416L62.5163 16.8989L62.4482 30.7301L64.599 30.7407L64.5644 37.7555L61.5864 37.7409L61.6076 33.4393ZM53.7564 21.8192C53.7499 23.1428 53.7112 24.2787 53.6403 25.2269C53.5695 26.1751 53.4662 26.9908 53.3305 27.674C53.1947 28.3572 53.0264 28.941 52.8255 29.4253C52.6467 29.8877 52.4461 30.3058 52.2237 30.6797L59.4702 30.7154L59.5249 19.5975L53.7675 19.5692L53.7564 21.8192ZM74.1736 33.7659C73.0045 33.7601 71.9465 33.5785 70.9997 33.2208C70.075 32.8413 69.2835 32.319 68.6249 31.6539C67.9665 30.9668 67.4632 30.1371 67.1151 29.1648C66.767 28.1704 66.596 27.0555 66.6021 25.8202L66.6083 24.5628C66.6143 23.3495 66.7961 22.2585 67.1539 21.2896C67.5338 20.2988 68.0563 19.4631 68.7214 18.7825C69.3866 18.1019 70.1833 17.5874 71.1115 17.239C72.0619 16.8687 73.1106 16.6864 74.2577 16.692C75.4048 16.6977 76.4407 16.8903 77.3653 17.2698C78.3121 17.6275 79.1147 18.1498 79.7731 18.8369C80.4316 19.502 80.9349 20.3317 81.283 21.3261C81.6532 22.2985 81.8353 23.4024 81.8292 24.6377L81.823 25.8951C81.8169 27.1304 81.624 28.2325 81.2442 29.2013C80.8865 30.1701 80.375 30.9948 79.7099 31.6754C79.0448 32.356 78.237 32.8815 77.2866 33.2518C76.3584 33.6002 75.3207 33.7716 74.1736 33.7659ZM74.1876 30.9203C75.5774 30.9271 76.6714 30.5134 77.4696 29.679C78.2901 28.8227 78.7044 27.5563 78.7127 25.8798L78.7189 24.6224C78.727 22.968 78.3251 21.7086 77.5131 20.8443C76.7232 19.98 75.6334 19.5445 74.2437 19.5377C72.854 19.5308 71.7489 19.9555 70.9284 20.8118C70.1302 21.6462 69.7269 22.9016 69.7187 24.5781L69.7125 25.8355C69.7043 27.4899 70.0952 28.7493 70.8851 29.6135C71.6971 30.4778 72.7979 30.9134 74.1876 30.9203ZM92.2995 13.7697L97.147 10.4515L100.257 10.4668L100.143 33.6291L97.0329 33.6138L97.13 13.8928L92.2829 17.1448L92.2995 13.7697ZM106.366 10.4969L119.105 10.5596L119.091 13.4053L109.197 13.3566L108.637 19.707C109.855 18.6762 111.369 18.1653 113.178 18.1742C114.236 18.1794 115.217 18.3717 116.12 18.7512C117.022 19.1307 117.803 19.675 118.461 20.3841C119.12 21.0712 119.623 21.9009 119.971 22.8733C120.341 23.8237 120.524 24.8945 120.518 26.0857C120.512 27.2769 120.319 28.3679 119.939 29.3587C119.559 30.3275 119.015 31.152 118.305 31.8324C117.618 32.5129 116.788 33.0382 115.816 33.4085C114.844 33.7787 113.751 33.9608 112.537 33.9548C110.53 33.9449 108.812 33.4291 107.383 32.4073C105.954 31.3855 105.035 29.903 104.625 27.9597L107.868 27.9757C108.238 28.9702 108.819 29.7231 109.611 30.2344C110.402 30.7236 111.383 30.9711 112.552 30.9768C114.008 30.984 115.157 30.5595 116 29.7033C116.842 28.8471 117.267 27.6359 117.275 26.0697C117.283 24.5256 116.869 23.3213 116.035 22.4568C115.201 21.5924 114.056 21.1566 112.6 21.1494C111.608 21.1445 110.746 21.3388 110.017 21.7323C109.309 22.1259 108.766 22.6085 108.388 23.1802L105.311 23.1651L106.366 10.4969ZM125.953 34.0209C125.269 34.0175 124.707 33.7942 124.268 33.3508C123.852 32.8855 123.645 32.333 123.648 31.6933C123.651 31.0535 123.863 30.5141 124.284 30.075C124.728 29.6139 125.292 29.3851 125.975 29.3884C126.659 29.3918 127.21 29.6262 127.626 30.0915C128.065 30.5348 128.283 31.0764 128.28 31.7161C128.277 32.3558 128.054 32.9062 127.61 33.3673C127.189 33.8064 126.636 34.0243 125.953 34.0209ZM140.181 34.091C138.968 34.085 137.866 33.881 136.875 33.4791C135.906 33.0772 135.082 32.4445 134.403 31.5808C133.723 30.695 133.199 29.5674 132.831 28.1979C132.463 26.8063 132.283 25.1289 132.293 23.1656L132.303 21.2464C132.312 19.3052 132.508 17.6517 132.89 16.2859C133.271 14.898 133.806 13.7756 134.494 12.9186C135.205 12.0397 136.046 11.4041 137.019 11.0119C138.013 10.5976 139.106 10.3934 140.298 10.3993C141.511 10.4053 142.602 10.6092 143.57 11.011C144.561 11.413 145.396 12.0568 146.076 12.9426C146.755 13.8063 147.279 14.9339 147.647 16.3255C148.016 17.695 148.195 19.3614 148.185 21.3247L148.176 23.2438C148.166 25.185 147.971 26.8496 147.589 28.2375C147.207 29.6033 146.661 30.7257 145.951 31.6046C145.263 32.4615 144.421 33.0971 143.427 33.5113C142.454 33.9036 141.372 34.0968 140.181 34.091ZM140.196 31.113C140.923 31.1166 141.575 30.9984 142.15 30.7586C142.746 30.4968 143.245 30.0691 143.645 29.4755C144.045 28.8598 144.358 28.0451 144.583 27.0314C144.809 26.0178 144.926 24.7499 144.933 23.2279L144.943 21.3087C144.95 19.7866 144.846 18.5287 144.63 17.5349C144.415 16.5191 144.099 15.7013 143.683 15.0816C143.289 14.462 142.794 14.0294 142.2 13.7838C141.628 13.5163 140.989 13.3808 140.283 13.3773C139.555 13.3737 138.892 13.5028 138.296 13.7646C137.721 14.0044 137.233 14.4322 136.833 15.0479C136.433 15.6415 136.121 16.4452 135.895 17.4588C135.669 18.4725 135.553 19.7403 135.545 21.2624L135.536 23.1816C135.528 24.7037 135.632 25.9726 135.848 26.9884C136.064 27.9822 136.369 28.7889 136.763 29.4085C137.179 30.0282 137.673 30.4718 138.245 30.7394C138.839 30.985 139.49 31.1095 140.196 31.113ZM151.045 14.059L155.893 10.7408L159.003 10.7561L158.889 33.9184L155.779 33.9031L155.876 14.1821L151.029 17.4341L151.045 14.059ZM165.989 34.2181C165.305 34.2147 164.744 33.9913 164.305 33.548C163.888 33.0827 163.681 32.5302 163.684 31.8904C163.687 31.2507 163.899 30.7113 164.321 30.2722C164.764 29.8111 165.328 29.5822 166.012 29.5856C166.696 29.589 167.246 29.8233 167.663 30.2886C168.102 30.732 168.32 31.2735 168.317 31.9132C168.313 32.553 168.09 33.1034 167.647 33.5644C167.225 34.0036 166.673 34.2214 165.989 34.2181ZM171.464 31.1346L179.41 23.53C180.828 22.1472 181.86 21.0162 182.504 20.137C183.17 19.2358 183.505 18.3661 183.509 17.5279C183.515 16.3587 183.123 15.4082 182.332 14.6763C181.542 13.9445 180.485 13.5753 179.161 13.5688C177.838 13.5622 176.777 13.932 175.979 14.6781C175.181 15.4022 174.779 16.3819 174.773 17.6172L171.531 17.6012C171.536 16.5644 171.717 15.6168 172.074 14.7582C172.453 13.8997 172.975 13.1633 173.64 12.5489C174.305 11.9124 175.102 11.431 176.03 11.1047C176.98 10.7564 178.029 10.5851 179.176 10.5908C180.323 10.5964 181.359 10.778 182.283 11.1355C183.23 11.4711 184.033 11.9493 184.692 12.5702C185.351 13.1911 185.854 13.9326 186.203 14.7947C186.574 15.6348 186.757 16.5512 186.752 17.5438C186.746 18.7791 186.31 20.0234 185.443 21.2765C184.577 22.5297 183.324 23.9133 181.684 25.4273L175.567 31.1548L186.685 31.2096L186.671 34.0552L171.45 33.9802L171.464 31.1346ZM198.41 34.3777C197.196 34.3718 196.094 34.1678 195.104 33.7658C194.135 33.364 193.311 32.7312 192.631 31.8675C191.952 30.9818 191.428 29.8542 191.06 28.4846C190.691 27.0931 190.512 25.4156 190.522 23.4524L190.531 21.5332C190.541 19.592 190.737 17.9385 191.118 16.5726C191.5 15.1847 192.035 14.0623 192.723 13.2054C193.433 12.3265 194.275 11.6909 195.247 11.2986C196.242 10.8844 197.335 10.6802 198.526 10.6861C199.74 10.692 200.831 10.8959 201.799 11.2978C202.79 11.6997 203.625 12.3436 204.304 13.2293C204.984 14.093 205.508 15.2206 205.876 16.6122C206.244 17.9817 206.424 19.6481 206.414 21.6114L206.405 23.5306C206.395 25.4718 206.199 27.1363 205.817 28.5242C205.436 29.8901 204.89 31.0124 204.179 31.8913C203.491 32.7483 202.65 33.3839 201.655 33.7981C200.683 34.1904 199.601 34.3836 198.41 34.3777ZM198.424 31.3997C199.152 31.4033 199.804 31.2852 200.378 31.0454C200.975 30.7836 201.474 30.3559 201.874 29.7622C202.274 29.1465 202.587 28.3318 202.812 27.3182C203.038 26.3046 203.154 25.0367 203.162 23.5146L203.171 21.5955C203.179 20.0734 203.075 18.8154 202.859 17.8217C202.643 16.8059 202.328 15.9881 201.911 15.3684C201.517 14.7488 201.023 14.3162 200.429 14.0706C199.857 13.803 199.218 13.6675 198.512 13.6641C197.784 13.6605 197.121 13.7896 196.524 14.0513C195.95 14.2912 195.462 14.7189 195.062 15.3346C194.662 15.9283 194.349 16.7319 194.124 17.7456C193.898 18.7592 193.782 20.0271 193.774 21.5492L193.765 23.4683C193.757 24.9904 193.861 26.2594 194.077 27.2752C194.292 28.2689 194.597 29.0756 194.991 29.6952C195.407 30.315 195.902 30.7586 196.474 31.0261C197.068 31.2717 197.718 31.3962 198.424 31.3997ZM209.852 31.3236L217.798 23.719C219.217 22.3363 220.248 21.2053 220.892 20.326C221.558 19.4249 221.894 18.5552 221.898 17.7169C221.904 16.5478 221.511 15.5973 220.721 14.8654C219.93 14.1335 218.873 13.7643 217.549 13.7578C216.226 13.7513 215.165 14.1211 214.367 14.8672C213.57 15.5912 213.168 16.5709 213.162 17.8062L209.919 17.7903C209.924 16.7535 210.105 15.8058 210.462 14.9472C210.842 14.0888 211.364 13.3523 212.028 12.7379C212.693 12.1015 213.49 11.6201 214.418 11.2938C215.368 10.9455 216.417 10.7742 217.564 10.7798C218.711 10.7855 219.747 10.967 220.672 11.3245C221.619 11.6601 222.422 12.1383 223.08 12.7593C223.739 13.3802 224.243 14.1217 224.591 14.9837C224.962 15.8238 225.145 16.7402 225.14 17.7329C225.134 18.9682 224.698 20.2124 223.832 21.4656C222.965 22.7187 221.712 24.1023 220.072 25.6164L213.955 31.3439L225.073 31.3986L225.059 34.2443L209.838 34.1693L209.852 31.3236ZM229.965 11.1056L242.704 11.1683L242.69 14.014L232.796 13.9653L232.236 20.3157C233.454 19.2849 234.968 18.774 236.776 18.7829C237.835 18.7881 238.816 18.9804 239.719 19.3599C240.621 19.7393 241.402 20.2837 242.06 20.9928C242.718 21.6799 243.222 22.5096 243.57 23.482C243.94 24.4324 244.122 25.5032 244.116 26.6944C244.111 27.8856 243.918 28.9766 243.538 29.9674C243.158 30.9362 242.613 31.7607 241.904 32.4411C241.217 33.1216 240.387 33.6469 239.415 34.0171C238.442 34.3874 237.349 34.5695 236.136 34.5635C234.129 34.5536 232.411 34.0378 230.982 33.016C229.553 31.9942 228.634 30.5117 228.224 28.5684L231.467 28.5844C231.837 29.5789 232.418 30.3318 233.209 30.8431C234.001 31.3323 234.982 31.5798 236.151 31.5855C237.607 31.5927 238.756 31.1682 239.598 30.312C240.441 29.4558 240.866 28.2446 240.874 26.6784C240.881 25.1343 240.468 23.93 239.634 23.0655C238.8 22.2011 237.655 21.7653 236.199 21.7581C235.207 21.7532 234.345 21.9475 233.615 22.341C232.908 22.7346 232.365 23.2172 231.987 23.7889L228.91 23.7738L229.965 11.1056Z" fill="#F7FBF6"/>
<path d="M283.605 34.3596H292.774L292.882 34.2465L279.915 21.9045L292.882 9.5635L292.774 9.4504H283.605L270.518 21.9045L283.605 34.3596Z" fill="white"/>
<path d="M266.955 34.2635H276.124L276.232 34.1504L263.265 21.8085L276.232 9.46743L276.124 9.35433H266.955L253.868 21.8085L266.955 34.2635Z" fill="white"/>
</svg>
