<svg width="540" height="88" viewBox="0 0 540 88" fill="none" xmlns="http://www.w3.org/2000/svg">
<rect x="0.107971" y="0.157043" width="539.783" height="87.3734" rx="43.6867" fill="#2622F5"/>
<path d="M54.6737 65.3094C52.0737 65.3094 49.7066 64.8826 47.5723 64.0288C45.4379 63.1363 43.5947 61.8751 42.0424 60.2453C40.529 58.6154 39.3454 56.6169 38.4917 54.2498C37.638 51.8826 37.2111 49.1856 37.2111 46.1588V42.7826C37.2111 39.7946 37.638 37.117 38.4917 34.7498C39.3454 32.3827 40.5484 30.3842 42.1006 28.7543C43.6529 27.0857 45.4961 25.8245 47.6305 24.9708C49.7648 24.0782 52.1125 23.632 54.6737 23.632C57.2737 23.632 59.6409 24.0782 61.7752 24.9708C63.9095 25.8245 65.7334 27.0663 67.2468 28.6961C68.799 30.326 70.002 32.3245 70.8557 34.6916C71.7095 37.0588 72.1363 39.7558 72.1363 42.7826V46.1588C72.1363 49.1468 71.7095 51.8244 70.8557 54.1916C70.002 56.5587 68.799 58.5766 67.2468 60.2453C65.6946 61.8751 63.8513 63.1363 61.717 64.0288C59.5827 64.8826 57.2349 65.3094 54.6737 65.3094ZM54.6737 60.0706C56.3812 60.0706 57.9528 59.7796 59.3886 59.1975C60.8244 58.5766 62.0662 57.6841 63.114 56.5199C64.1617 55.3557 64.9767 53.9199 65.5588 52.2125C66.1408 50.4662 66.4319 48.4483 66.4319 46.1588V42.7826C66.4319 40.5319 66.1408 38.5528 65.5588 36.8454C64.9767 35.0991 64.1617 33.6439 63.114 32.4797C62.0662 31.2767 60.8244 30.3842 59.3886 29.8021C57.9528 29.1812 56.3812 28.8708 54.6737 28.8708C52.9663 28.8708 51.3946 29.1812 49.9588 29.8021C48.523 30.3842 47.2812 31.2573 46.2334 32.4215C45.1857 33.5857 44.3708 35.0409 43.7887 36.7871C43.2066 38.5334 42.9156 40.5319 42.9156 42.7826V46.1588C42.9156 48.4095 43.2066 50.408 43.7887 52.1543C44.3708 53.8617 45.1857 55.3169 46.2334 56.5199C47.2812 57.6841 48.523 58.5766 49.9588 59.1975C51.3946 59.7796 52.9663 60.0706 54.6737 60.0706ZM91.0519 65.3094C89.0728 65.3094 87.2683 64.999 85.6385 64.3781C84.0475 63.7184 82.6699 62.8065 81.5057 61.6423C80.3803 60.4393 79.5072 58.9841 78.8863 57.2766C78.2654 55.5304 77.9549 53.5707 77.9549 51.3975V49.1856C77.9549 47.0513 78.2654 45.1304 78.8863 43.4229C79.546 41.6767 80.4385 40.2021 81.5639 38.9991C82.7281 37.7961 84.1057 36.8842 85.6967 36.2633C87.3266 35.6036 89.1116 35.2737 91.0519 35.2737H93.0892V24.0976H98.328V35.2737H100.365C102.344 35.2737 104.129 35.6036 105.721 36.2633C107.35 36.8842 108.728 37.7961 109.853 38.9991C111.018 40.1633 111.91 41.6185 112.531 43.3647C113.152 45.0722 113.462 47.0125 113.462 49.1856V51.3975C113.462 53.5707 113.132 55.511 112.473 57.2184C111.852 58.9259 110.959 60.3811 109.795 61.5841C108.67 62.7871 107.292 63.7184 105.662 64.3781C104.071 64.999 102.306 65.3094 100.365 65.3094H98.328V76.4855H93.0892V65.3094H91.0519ZM83.4266 51.3975C83.4266 54.3468 84.1057 56.5781 85.4639 58.0915C86.8609 59.5662 88.7236 60.3035 91.0519 60.3035H93.0892V40.2797H91.0519C88.7236 40.2797 86.8609 41.017 85.4639 42.4916C84.1057 43.9662 83.4266 46.1976 83.4266 49.1856V51.3975ZM98.328 40.2797V60.3035H100.365C102.694 60.3035 104.537 59.5662 105.895 58.0915C107.292 56.6169 107.991 54.3856 107.991 51.3975V49.1856C107.991 46.2364 107.292 44.0244 105.895 42.5498C104.537 41.0364 102.694 40.2797 100.365 40.2797H98.328ZM132.1 65.3094C130.044 65.3094 128.181 64.999 126.512 64.3781C124.883 63.7184 123.486 62.8065 122.321 61.6423C121.157 60.4393 120.265 58.9841 119.644 57.2766C119.023 55.5304 118.712 53.5707 118.712 51.3975V49.1856C118.712 47.0513 119.023 45.1304 119.644 43.4229C120.303 41.6767 121.215 40.2021 122.38 38.9991C123.544 37.7961 124.941 36.8842 126.571 36.2633C128.239 35.6036 130.083 35.2737 132.1 35.2737C134.118 35.2737 135.942 35.6036 137.572 36.2633C139.241 36.8842 140.657 37.7961 141.821 38.9991C142.985 40.1633 143.878 41.6185 144.499 43.3647C145.159 45.0722 145.488 47.0125 145.488 49.1856V51.3975C145.488 53.5707 145.159 55.511 144.499 57.2184C143.878 58.9259 142.985 60.3811 141.821 61.5841C140.657 62.7871 139.241 63.7184 137.572 64.3781C135.942 64.999 134.118 65.3094 132.1 65.3094ZM132.1 60.3035C134.545 60.3035 136.466 59.5662 137.863 58.0915C139.299 56.5781 140.017 54.3468 140.017 51.3975V49.1856C140.017 46.2752 139.299 44.0632 137.863 42.5498C136.466 41.0364 134.545 40.2797 132.1 40.2797C129.656 40.2797 127.715 41.0364 126.28 42.5498C124.883 44.0244 124.184 46.2364 124.184 49.1856V51.3975C124.184 54.308 124.883 56.5199 126.28 58.0333C127.715 59.5468 129.656 60.3035 132.1 60.3035ZM166.549 65.3094C162.707 65.3094 159.758 64.0482 157.701 61.5259V76.4855H152.462V35.7394H156.537L157.061 39.9304C158.07 38.3782 159.389 37.214 161.019 36.4379C162.649 35.6618 164.511 35.2737 166.607 35.2737C168.237 35.2737 169.75 35.5842 171.147 36.2051C172.583 36.7871 173.805 37.6797 174.814 38.8827C175.823 40.0468 176.619 41.5021 177.201 43.2483C177.783 44.9558 178.074 46.9349 178.074 49.1856V51.3975C178.074 53.6483 177.783 55.6468 177.201 57.393C176.619 59.1005 175.804 60.5557 174.756 61.7587C173.747 62.9229 172.525 63.8154 171.089 64.4363C169.692 65.0184 168.178 65.3094 166.549 65.3094ZM165.152 60.3035C167.48 60.3035 169.304 59.5856 170.623 58.1498C171.943 56.7139 172.602 54.4632 172.602 51.3975V49.1856C172.602 46.1588 171.943 43.9274 170.623 42.4916C169.304 41.017 167.48 40.2797 165.152 40.2797C163.056 40.2797 161.31 40.9976 159.913 42.4334C158.516 43.8692 157.779 45.9841 157.701 48.7781V51.3975C157.701 54.2692 158.399 56.4811 159.796 58.0333C161.193 59.5468 162.979 60.3035 165.152 60.3035ZM193.125 47.9632L190.273 41.6767V64.8438H185.034V35.7394H192.718L200.576 52.2707L208.434 35.7394H215.885V64.8438H210.646V41.6185L207.735 47.9632L203.079 57.8587H197.84L193.125 47.9632ZM244.389 41.9677L241.187 47.9632L231.35 64.8438H224.598V35.7394H229.837V58.6154L233.038 52.6199L242.875 35.7394H249.628V64.8438H244.389V41.9677ZM255.162 35.7394H279.028V40.5125H269.714V64.8438H264.475V40.5125H255.162V35.7394ZM304.36 41.9677L301.158 47.9632L291.321 64.8438H284.569V35.7394H289.807V58.6154L293.009 52.6199L302.846 35.7394H309.598V64.8438H304.36V41.9677ZM342.142 52.096H338.125V64.8438H332.886V35.7394H338.125V47.3229H342.2L350 35.7394H356.17L346.507 49.5931L357.334 64.8438H350.931L342.142 52.096ZM369.267 65.3094C366.24 65.3094 363.931 64.5527 362.34 63.0393C360.749 61.4871 359.954 59.3721 359.954 56.6945C359.954 55.2199 360.186 53.9005 360.652 52.7363C361.118 51.5334 361.855 50.5244 362.864 49.7095C363.912 48.8946 365.231 48.2737 366.822 47.8468C368.452 47.4199 370.431 47.2065 372.759 47.2065H378.58V45.0528C378.58 43.4229 378.095 42.1618 377.125 41.2692C376.194 40.3767 374.739 39.9304 372.759 39.9304C370.78 39.9304 369.345 40.2991 368.452 41.0364C367.598 41.7737 367.094 42.7244 366.939 43.8886H361.118C361.273 41.405 362.282 39.3483 364.145 37.7185C366.046 36.0886 368.918 35.2737 372.759 35.2737C376.407 35.2737 379.162 36.1469 381.025 37.8931C382.888 39.6394 383.819 42.0259 383.819 45.0528V64.8438H379.745L379.104 60.0706C378.056 61.7393 376.679 63.0393 374.971 63.9706C373.303 64.8632 371.401 65.3094 369.267 65.3094ZM369.849 60.6527C371.13 60.6527 372.294 60.4393 373.342 60.0124C374.428 59.5856 375.359 59.0229 376.136 58.3244C376.912 57.5871 377.513 56.7333 377.94 55.7632C378.367 54.7931 378.58 53.7647 378.58 52.6781V51.6304H372.759C370.082 51.6304 368.18 52.096 367.055 53.0274C365.968 53.9199 365.425 55.1035 365.425 56.5781C365.425 57.8199 365.813 58.8095 366.589 59.5468C367.365 60.2841 368.452 60.6527 369.849 60.6527ZM406.319 65.3094C402.477 65.3094 399.528 64.0482 397.471 61.5259V76.4855H392.232V35.7394H396.307L396.831 39.9304C397.84 38.3782 399.159 37.214 400.789 36.4379C402.419 35.6618 404.281 35.2737 406.377 35.2737C408.007 35.2737 409.52 35.5842 410.917 36.2051C412.353 36.7871 413.575 37.6797 414.584 38.8827C415.593 40.0468 416.389 41.5021 416.971 43.2483C417.553 44.9558 417.844 46.9349 417.844 49.1856V51.3975C417.844 53.6483 417.553 55.6468 416.971 57.393C416.389 59.1005 415.574 60.5557 414.526 61.7587C413.517 62.9229 412.295 63.8154 410.859 64.4363C409.462 65.0184 407.949 65.3094 406.319 65.3094ZM404.922 60.3035C407.25 60.3035 409.074 59.5856 410.393 58.1498C411.713 56.7139 412.372 54.4632 412.372 51.3975V49.1856C412.372 46.1588 411.713 43.9274 410.393 42.4916C409.074 41.017 407.25 40.2797 404.922 40.2797C402.826 40.2797 401.08 40.9976 399.683 42.4334C398.286 43.8692 397.549 45.9841 397.471 48.7781V51.3975C397.471 54.2692 398.169 56.4811 399.566 58.0333C400.963 59.5468 402.749 60.3035 404.922 60.3035ZM420.466 35.7394H444.331V40.5125H435.018V64.8438H429.779V40.5125H420.466V35.7394ZM459.128 52.096H455.111V64.8438H449.872V35.7394H455.111V47.3229H459.186L466.986 35.7394H473.156L463.493 49.5931L474.32 64.8438H467.917L459.128 52.096ZM488.379 64.8438L476.621 35.7394H482.326L491.173 58.2662L499.555 35.7394H505.143L489.485 76.4855H483.897L488.379 64.8438Z" fill="white"/>
</svg>
