<svg width="41" height="40" viewBox="0 0 41 40" fill="none" xmlns="http://www.w3.org/2000/svg">
<circle cx="20.5" cy="20" r="19.5" fill="white" stroke="#999999"/>
<path d="M23.95 15.362C23.95 16.11 23.8107 16.8653 23.532 17.628C23.268 18.3907 22.9233 19.1387 22.498 19.872C22.0873 20.6053 21.6253 21.3167 21.112 22.006C20.6133 22.6807 20.122 23.304 19.638 23.876L18.472 24.778V24.888L20.056 24.58H24.28V27H15.018V25.526C15.37 25.1593 15.766 24.734 16.206 24.25C16.646 23.7513 17.086 23.2307 17.526 22.688C17.9807 22.1307 18.4207 21.5587 18.846 20.972C19.2713 20.3853 19.6527 19.7987 19.99 19.212C20.3273 18.6107 20.5913 18.0313 20.782 17.474C20.9873 16.9167 21.09 16.3887 21.09 15.89C21.09 15.2887 20.914 14.7973 20.562 14.416C20.2247 14.02 19.682 13.822 18.934 13.822C18.4647 13.822 17.9807 13.9247 17.482 14.13C16.998 14.3207 16.5873 14.57 16.25 14.878L15.106 12.854C15.678 12.3847 16.3233 12.0107 17.042 11.732C17.7753 11.4387 18.6333 11.292 19.616 11.292C20.2467 11.292 20.826 11.38 21.354 11.556C21.882 11.732 22.3367 11.9887 22.718 12.326C23.0993 12.6633 23.4 13.0887 23.62 13.602C23.84 14.1007 23.95 14.6873 23.95 15.362Z" fill="#616161"/>
</svg>
