<svg width="41" height="40" viewBox="0 0 41 40" fill="none" xmlns="http://www.w3.org/2000/svg">
<circle cx="20.5" cy="20" r="19.5" fill="white" stroke="#999999"/>
<path d="M18.8019 24.888C19.7112 24.888 20.4005 24.646 20.8699 24.162C21.3539 23.678 21.5959 23.0913 21.5959 22.402C21.5959 21.566 21.3465 20.95 20.8479 20.554C20.3492 20.158 19.5645 19.96 18.4939 19.96H16.9099V18.442L19.5719 14.812L20.8259 13.822L19.0879 14.02H15.3919V11.6H23.7959V13.162L20.6939 17.32L19.7259 17.914V18.024L20.6499 17.892C21.1632 17.936 21.6472 18.0533 22.1019 18.244C22.5712 18.4347 22.9745 18.7133 23.3119 19.08C23.6639 19.432 23.9425 19.872 24.1479 20.4C24.3532 20.928 24.4559 21.5367 24.4559 22.226C24.4559 23.0913 24.3092 23.8393 24.0159 24.47C23.7372 25.1007 23.3412 25.6287 22.8279 26.054C22.3292 26.4793 21.7425 26.7947 21.0679 27C20.3932 27.2053 19.6672 27.308 18.8899 27.308C18.2445 27.308 17.5772 27.2493 16.8879 27.132C16.1985 27.0147 15.6412 26.846 15.2159 26.626L15.9859 24.25C16.3672 24.4407 16.7852 24.5947 17.2399 24.712C17.7092 24.8293 18.2299 24.888 18.8019 24.888Z" fill="#616161"/>
</svg>
