<svg width="21" height="20" viewBox="0 0 21 20" fill="none" xmlns="http://www.w3.org/2000/svg">
<path fill-rule="evenodd" clip-rule="evenodd" d="M16.5218 3.64645C16.717 3.84171 16.717 4.15829 16.5218 4.35355L10.7184 10.1569L16.2289 15.6673C16.4241 15.8625 16.4241 16.1791 16.2289 16.3744C16.0336 16.5696 15.717 16.5696 15.5218 16.3744L10.0113 10.864L4.50094 16.3744C4.30568 16.5696 3.98909 16.5696 3.79383 16.3744C3.59857 16.1791 3.59857 15.8625 3.79383 15.6673L9.30423 10.1569L3.50094 4.35357C3.30568 4.15831 3.30568 3.84173 3.50094 3.64646C3.6962 3.4512 4.01278 3.4512 4.20805 3.64646L10.0113 9.44976L15.8146 3.64645C16.0099 3.45118 16.3265 3.45118 16.5218 3.64645Z" fill="black"/>
</svg>
