<svg width="20" height="20" viewBox="0 0 20 20" fill="none" xmlns="http://www.w3.org/2000/svg">
<path d="M3.5 11.4211V15.4211C3.5 16.8018 4.61929 17.9211 6 17.9211H14C15.3807 17.9211 16.5 16.8018 16.5 15.4211V11.4211C16.5 11.4211 16.5 10.9211 16 10.9211C15.5 10.9211 15.5 11.4211 15.5 11.4211V15.4211C15.5 16.2496 14.8284 16.9211 14 16.9211H6C5.17157 16.9211 4.5 16.2496 4.5 15.4211V11.4211C4.5 11.4211 4.5 10.9211 4 10.9211C3.5 10.9211 3.5 11.4211 3.5 11.4211Z" fill="#43B02A"/>
<path d="M10.5068 2.5791C10.5068 2.30296 10.283 2.0791 10.0068 2.0791C9.7307 2.0791 9.50684 2.30296 9.50684 2.5791V10.9142L7.19442 8.71667C6.99425 8.52645 6.67777 8.53451 6.48754 8.73468C6.29732 8.93486 6.30538 9.25134 6.50555 9.44156L9.31797 12.1142C9.70397 12.481 10.3097 12.481 10.6957 12.1142L13.5081 9.44154C13.7083 9.25132 13.7164 8.93484 13.5261 8.73467C13.3359 8.5345 13.0194 8.52643 12.8193 8.71666L10.5068 10.9142L10.5068 2.5791Z" fill="#43B02A"/>
<path d="M3.5 11.4211V15.4211C3.5 16.8018 4.61929 17.9211 6 17.9211H14C15.3807 17.9211 16.5 16.8018 16.5 15.4211V11.4211C16.5 11.4211 16.5 10.9211 16 10.9211C15.5 10.9211 15.5 11.4211 15.5 11.4211V15.4211C15.5 16.2496 14.8284 16.9211 14 16.9211H6C5.17157 16.9211 4.5 16.2496 4.5 15.4211V11.4211C4.5 11.4211 4.5 10.9211 4 10.9211C3.5 10.9211 3.5 11.4211 3.5 11.4211Z" stroke="#43B02A" stroke-linecap="round"/>
<path d="M10.5068 2.5791C10.5068 2.30296 10.283 2.0791 10.0068 2.0791C9.7307 2.0791 9.50684 2.30296 9.50684 2.5791V10.9142L7.19442 8.71667C6.99425 8.52645 6.67777 8.53451 6.48754 8.73468C6.29732 8.93486 6.30538 9.25134 6.50555 9.44156L9.31797 12.1142C9.70397 12.481 10.3097 12.481 10.6957 12.1142L13.5081 9.44154C13.7083 9.25132 13.7164 8.93484 13.5261 8.73467C13.3359 8.5345 13.0194 8.52643 12.8193 8.71666L10.5068 10.9142L10.5068 2.5791Z" stroke="#43B02A" stroke-linecap="round"/>
</svg>
