<svg width="12" height="12" viewBox="0 0 12 12" fill="none" xmlns="http://www.w3.org/2000/svg">
<g clip-path="url(#clip0_533_8948)">
<path fill-rule="evenodd" clip-rule="evenodd" d="M2.91829 2.09155C2.92288 1.22498 3.62667 0.524902 4.49326 0.524902H9.59958C10.4694 0.524902 11.1746 1.23005 11.1746 2.0999V6.9157C11.1746 7.78554 10.4694 8.49069 9.59958 8.49069H8.4904V10.1999C8.4904 11.0698 7.78525 11.7749 6.9154 11.7749H1.79961C0.929761 11.7749 0.224609 11.0698 0.224609 10.1999V5.08412C0.224609 4.21427 0.929761 3.50912 1.79961 3.50912H2.91077L2.91829 2.09155ZM3.66078 3.50912H6.9154C7.78525 3.50912 8.4904 4.21427 8.4904 5.08412V7.74069H9.59958C10.0552 7.74069 10.4246 7.37133 10.4246 6.9157V2.0999C10.4246 1.64427 10.0552 1.2749 9.59958 1.2749H4.49326C4.03934 1.2749 3.67068 1.64161 3.66828 2.09553L3.66078 3.50912ZM1.79961 4.25912C1.34397 4.25912 0.974609 4.62849 0.974609 5.08412V10.1999C0.974609 10.6555 1.34397 11.0249 1.79961 11.0249H6.9154C7.37103 11.0249 7.7404 10.6555 7.7404 10.1999V5.08412C7.7404 4.62849 7.37103 4.25912 6.9154 4.25912H1.79961Z" fill="#616161" stroke="#616161" stroke-width="0.2" stroke-linejoin="round"/>
</g>
<defs>
<clipPath id="clip0_533_8948">
<rect width="12" height="12" fill="white"/>
</clipPath>
</defs>
</svg>
