<svg width="38" height="14" viewBox="0 0 38 14" fill="none" xmlns="http://www.w3.org/2000/svg">
<g clip-path="url(#clip0_199_130330)">
<path d="M22.6902 4.0377C24.9746 6.16281 30.0218 6.00343 30.0218 6.80034C30.0218 7.59726 24.9746 7.38475 22.6902 9.56298C20.2463 11.8475 20.2463 13.6007 19.4494 13.6007C18.6524 13.6007 18.6524 11.8475 16.2086 9.56298C13.9241 7.43788 8.87695 7.59726 8.87695 6.80034C8.87695 6.00343 13.9772 6.16281 16.2086 4.0377C18.6524 1.75321 18.6524 0 19.4494 0C20.2463 0 20.2463 1.75321 22.6902 4.0377Z" fill="#E25C1D"/>
<path d="M37.9933 6.80034C37.9933 5.31276 36.8245 4.14395 35.3369 4.14395C33.8494 4.14395 32.6805 5.31276 32.6805 6.80034C32.6805 8.23478 33.8494 9.45672 35.3369 9.45672C36.8245 9.45672 37.9933 8.28791 37.9933 6.80034Z" fill="#E25C1D"/>
<path d="M6.28274 6.80034C6.28274 5.31276 5.11393 4.14395 3.62636 4.14395C2.13878 4.14395 0.969971 5.31276 0.969971 6.80034C0.969971 8.28791 2.13878 9.45672 3.62636 9.45672C5.11393 9.45672 6.28274 8.28791 6.28274 6.80034Z" fill="#E25C1D"/>
</g>
<defs>
<clipPath id="clip0_199_130330">
<rect width="37.03" height="13.6007" fill="white" transform="translate(0.96875)"/>
</clipPath>
</defs>
</svg>
