<svg width="16" height="26" viewBox="0 0 16 26" fill="none" xmlns="http://www.w3.org/2000/svg">
<path d="M5.79 17.724C5.79 16.568 5.926 15.616 6.198 14.868C6.47 14.0973 6.79867 13.4513 7.184 12.93C7.592 12.386 8.02267 11.9327 8.476 11.57C8.952 11.2073 9.38267 10.856 9.768 10.516C10.176 10.1533 10.516 9.75667 10.788 9.326C11.06 8.87267 11.196 8.31733 11.196 7.66C11.196 6.75333 10.9127 6.03933 10.346 5.518C9.802 4.974 9.02 4.702 8 4.702C6.93467 4.702 6.096 4.99667 5.484 5.586C4.89467 6.17533 4.55467 6.98 4.464 8H0.18C0.225333 6.95733 0.429333 6.00533 0.792 5.144C1.17733 4.28267 1.69867 3.53467 2.356 2.9C3.036 2.26533 3.82933 1.778 4.736 1.438C5.66533 1.07533 6.69667 0.893998 7.83 0.893998C9.07667 0.893998 10.176 1.05266 11.128 1.37C12.08 1.68733 12.8733 2.12933 13.508 2.696C14.1653 3.26267 14.6527 3.94267 14.97 4.736C15.31 5.50667 15.48 6.368 15.48 7.32C15.48 8.29467 15.344 9.11067 15.072 9.768C14.8 10.4253 14.4487 11.0033 14.018 11.502C13.61 11.978 13.1567 12.4087 12.658 12.794C12.182 13.1793 11.7287 13.5987 11.298 14.052C10.89 14.5053 10.55 15.0153 10.278 15.582C10.006 16.1487 9.87 16.8627 9.87 17.724H5.79ZM7.83 25.306C7.03667 25.306 6.37933 25.0453 5.858 24.524C5.35933 23.98 5.11 23.334 5.11 22.586C5.11 21.838 5.35933 21.2033 5.858 20.682C6.37933 20.138 7.03667 19.866 7.83 19.866C8.62333 19.866 9.26933 20.138 9.768 20.682C10.2893 21.2033 10.55 21.838 10.55 22.586C10.55 23.334 10.2893 23.98 9.768 24.524C9.26933 25.0453 8.62333 25.306 7.83 25.306Z" fill="#0A0E1A"/>
</svg>
