<svg width="290" height="14" viewBox="0 0 290 14" fill="none" xmlns="http://www.w3.org/2000/svg">
<path d="M1.48499 7H121.485" stroke="#E25C1D" stroke-linecap="round"/>
<g clip-path="url(#clip0_199_130346)">
<path d="M148.206 4.23738C150.491 6.36249 155.538 6.20311 155.538 7.00002C155.538 7.79694 150.491 7.58443 148.206 9.76266C145.763 12.0472 145.763 13.8004 144.966 13.8004C144.169 13.8004 144.169 12.0472 141.725 9.76266C139.44 7.63755 134.393 7.79694 134.393 7.00002C134.393 6.20311 139.493 6.36249 141.725 4.23738C144.169 1.95289 144.169 0.199677 144.966 0.199677C145.763 0.199677 145.763 1.95289 148.206 4.23738Z" fill="#E25C1D"/>
</g>
<path d="M168.515 7H288.515" stroke="#E25C1D" stroke-linecap="round"/>
<defs>
<clipPath id="clip0_199_130346">
<rect width="37.03" height="13.6007" fill="white" transform="translate(126.485 0.199661)"/>
</clipPath>
</defs>
</svg>
