<svg width="200" height="200" viewBox="0 0 200 200" fill="none" xmlns="http://www.w3.org/2000/svg">
<g clip-path="url(#clip0_191_280619)">
<path d="M197.114 4.34131C194.812 3.49925 189.03 3.03143 178.42 3.03143H171.066V1.96482H178.42C189.03 1.94611 194.812 1.47829 197.114 0.654938C197.844 1.08533 199.996 2.48877 199.996 2.48877C199.996 2.48877 197.844 3.89221 197.114 4.34131Z" fill="#E25C1D"/>
<path d="M4.34009 197.118C3.49802 194.817 3.0302 189.034 3.0302 178.424V171.07H1.96358V178.424C1.96358 189.016 1.49577 194.817 0.653708 197.118C1.0841 197.848 2.48753 200 2.48753 200C2.48753 200 3.89099 197.848 4.34009 197.118Z" fill="#E25C1D"/>
<path d="M18.5414 1.94611C18.8408 11.2463 11.2435 18.8436 1.94337 18.5442V172.287H3.00999V19.6295C12.0669 19.3488 19.3273 12.0696 19.608 3.03144H172.284V1.96482H18.5414V1.94611Z" fill="#E25C1D"/>
<path d="M10.2523 13.7912C6.99628 17.1594 -0.395191 17.0097 0.0164852 14.5958C0.409451 12.1632 5.57412 15.7934 10.2523 13.7912ZM13.7889 10.2545C15.7912 5.55763 12.1422 0.411671 14.5936 0.0187072C17.0075 -0.374257 17.1759 7.01721 13.7889 10.2545ZM10.7762 10.7784C7.4828 14.0719 3.38475 9.63697 0.503017 10.7036C1.40122 8.75748 3.53446 7.76571 5.12503 7.95284C4.32038 6.73652 3.90871 5.48278 3.98356 3.98577C5.48056 3.91092 6.73431 4.3226 7.95063 5.12724C7.78222 3.53667 8.75526 1.40344 10.7014 0.505234C9.63475 3.38697 14.0696 7.46631 10.7762 10.7784ZM12.8346 11.5269C13.1902 11.8825 13.1902 12.4813 12.8346 12.8368C12.4791 13.1924 11.8803 13.1924 11.5247 12.8368C11.1692 12.4813 11.1692 11.8825 11.5247 11.5269C11.8803 11.1714 12.4791 11.1714 12.8346 11.5269ZM1.98131 3.31212C1.62577 2.95658 1.62577 2.35778 1.98131 2.00224C2.33685 1.6467 2.93565 1.6467 3.29119 2.00224C3.64673 2.35778 3.64673 2.95658 3.29119 3.31212C2.93565 3.66766 2.33685 3.66766 1.98131 3.31212Z" fill="#E25C1D"/>
</g>
<defs>
<clipPath id="clip0_191_280619">
<rect width="200" height="200" fill="white" transform="matrix(-1 0 0 1 200 0)"/>
</clipPath>
</defs>
</svg>
