<svg width="487" height="238" viewBox="0 0 487 238" fill="none" xmlns="http://www.w3.org/2000/svg">
<path d="M31.9881 90.2811H19.9968V168.091H2.72924V0.5H19.9968V73.522H31.9881V0.5H49.2556V168.091H31.9881V90.2811Z" fill="#43B02A"/>
<path d="M54.8278 168.091L69.2175 6.00657V0.5H92.001V6.24599L105.911 168.091H87.2045L85.5257 137.925H73.7742L72.0954 168.091H54.8278ZM74.9733 121.166H84.5664L80.4893 45.9891L80.7291 36.173H79.2902L79.53 45.9891L74.9733 121.166Z" fill="#43B02A"/>
<path d="M135.863 168.091L126.51 60.5935L126.03 52.2139H124.831L125.79 63.7059L127.469 168.091H111.401V0.5H134.424V3.373L144.017 120.208L143.777 130.024H145.216L144.976 120.208L153.85 3.61241V0.5H178.312V168.091H161.045V63.7059L162.004 52.2139H160.805L160.325 60.5935L151.692 168.091H135.863Z" fill="#43B02A"/>
<path d="M233.759 144.15C233.759 151.173 231.521 156.919 227.044 161.388C222.567 165.857 216.811 168.091 209.777 168.091H189.391V0.5H229.682V17.2591H206.659V65.1424H209.777C216.811 65.1424 222.567 67.3769 227.044 71.846C231.521 76.3151 233.759 82.0611 233.759 89.084V144.15ZM216.492 89.3234C216.492 87.2485 215.852 85.5726 214.573 84.2957C213.454 82.8592 211.855 82.1409 209.777 82.1409H206.659V151.332H209.777C211.855 151.332 213.454 150.694 214.573 149.417C215.852 147.98 216.492 146.225 216.492 144.15V89.3234Z" fill="#43B02A"/>
<path d="M241.853 168.091V0.5H274.71V17.2591H259.121V73.2825H272.791V90.0417H259.121V151.332H276.149V168.091H241.853Z" fill="#43B02A"/>
<path d="M326.956 91.4782C326.956 98.501 324.718 104.247 320.241 108.716C315.764 113.185 310.008 115.42 302.974 115.42H300.575V168.091H283.308V0.5H302.974C310.008 0.5 315.764 2.73455 320.241 7.20365C324.718 11.6728 326.956 17.4187 326.956 24.4416V91.4782ZM309.689 24.4416C309.689 22.3667 309.049 20.6908 307.77 19.4139C306.651 17.9774 305.052 17.2591 302.974 17.2591H300.575V98.6607H302.974C305.052 98.6607 306.651 98.0222 307.77 96.7453C309.049 95.3088 309.689 93.5531 309.689 91.4782V24.4416Z" fill="#43B02A"/>
<path d="M379.201 59.6358C379.201 63.6261 378.402 67.2173 376.803 70.4095C375.364 73.6018 373.285 76.3151 370.567 78.5497C373.605 80.6246 375.923 83.338 377.522 86.6899C379.281 90.0417 380.16 93.7925 380.16 97.9424V144.15C380.16 151.173 377.922 156.919 373.445 161.388C368.968 165.857 363.213 168.091 356.178 168.091H334.833V0.5H355.218C362.253 0.5 368.009 2.73455 372.486 7.20365C376.963 11.6728 379.201 17.4187 379.201 24.4416V59.6358ZM362.893 95.5483C362.893 93.4733 362.253 91.7974 360.974 90.5205C359.855 89.084 358.256 88.3658 356.178 88.3658H352.101V151.332H356.178C358.256 151.332 359.855 150.694 360.974 149.417C362.253 147.98 362.893 146.225 362.893 144.15V95.5483ZM361.933 24.4416C361.933 22.3667 361.294 20.6908 360.015 19.4139C358.896 17.9774 357.297 17.2591 355.218 17.2591H352.101V71.6066H355.938C357.697 71.2874 359.135 70.4893 360.255 69.2125C361.374 67.9356 361.933 66.3395 361.933 64.4241V24.4416Z" fill="#43B02A"/>
<path d="M383.653 168.091L398.042 6.00657V0.5H420.826V6.24599L434.736 168.091H416.029L414.351 137.925H402.599L400.92 168.091H383.653ZM403.798 121.166H413.391L409.314 45.9891L409.554 36.173H408.115L408.355 45.9891L403.798 121.166Z" fill="#43B02A"/>
<path d="M469.485 90.2811H457.493V168.091H440.226V0.5H457.493V73.522H469.485V0.5H486.752V168.091H469.485V90.2811Z" fill="#43B02A"/>
<path d="M12.7549 200.692H7.71723V230.652H0V193.202H20.4721V230.652H12.7549V200.692Z" fill="#43B02A"/>
<path d="M46.5353 221.022C46.5353 222.591 46.2673 224.036 45.7314 225.355C45.1955 226.639 44.4452 227.763 43.4806 228.726C42.5516 229.653 41.4262 230.384 40.1043 230.919C38.7824 231.454 37.3532 231.722 35.8169 231.722C34.2449 231.722 32.7979 231.454 31.476 230.919C30.1898 230.384 29.0644 229.653 28.0997 228.726C27.1708 227.763 26.4384 226.639 25.9024 225.355C25.3665 224.036 25.0986 222.591 25.0986 221.022V202.832C25.0986 201.298 25.3665 199.872 25.9024 198.552C26.4384 197.232 27.1708 196.109 28.0997 195.181C29.0644 194.218 30.1898 193.469 31.476 192.934C32.7979 192.399 34.2449 192.132 35.8169 192.132C37.3532 192.132 38.7824 192.399 40.1043 192.934C41.4262 193.469 42.5516 194.218 43.4806 195.181C44.4452 196.109 45.1955 197.232 45.7314 198.552C46.2673 199.872 46.5353 201.298 46.5353 202.832V221.022ZM32.8158 221.022C32.8158 221.949 33.0838 222.716 33.6197 223.322C34.1556 223.929 34.888 224.232 35.8169 224.232C36.7459 224.232 37.4783 223.929 38.0142 223.322C38.5501 222.716 38.8181 221.949 38.8181 221.022V202.832C38.8181 201.905 38.5501 201.138 38.0142 200.531C37.4783 199.925 36.7459 199.622 35.8169 199.622C34.888 199.622 34.1556 199.925 33.6197 200.531C33.0838 201.138 32.8158 201.905 32.8158 202.832V221.022Z" fill="#43B02A"/>
<path d="M69.5781 200.692V230.652H61.8609V193.202H77.1882V200.692H69.5781Z" fill="#43B02A"/>
<path d="M76.6242 230.652L82.4657 193.202H92.6482L98.4897 230.652H90.7189L90.0222 224.499L84.6094 224.339L83.8591 230.652H76.6242ZM85.4669 217.491L89.2183 217.384L87.6641 203.42L87.7177 200.424H87.1818L87.2354 203.42L85.4669 217.491Z" fill="#43B02A"/>
<path d="M121.51 209.573C121.51 211.142 121.242 212.587 120.706 213.906C120.17 215.19 119.42 216.314 118.455 217.277C117.526 218.204 116.401 218.935 115.079 219.47C113.757 220.005 112.328 220.273 110.792 220.273H109.72V230.652H102.002V193.202H110.792C112.328 193.202 113.757 193.469 115.079 194.004C116.401 194.539 117.526 195.288 118.455 196.251C119.42 197.179 120.17 198.302 120.706 199.622C121.242 200.942 121.51 202.368 121.51 203.902V209.573ZM113.793 203.902C113.793 202.975 113.525 202.208 112.989 201.601C112.453 200.995 111.72 200.692 110.792 200.692H109.72V212.783H110.792C111.72 212.783 112.453 212.48 112.989 211.873C113.525 211.267 113.793 210.5 113.793 209.573V203.902Z" fill="#43B02A"/>
<path d="M123.203 230.652L129.045 193.202H139.227L145.069 230.652H137.298L136.601 224.499L131.188 224.339L130.438 230.652H123.203ZM132.046 217.491L135.797 217.384L134.243 203.42L134.297 200.424H133.761L133.814 203.42L132.046 217.491Z" fill="#43B02A"/>
<path d="M161.658 215.351H156.299V230.652H148.581V193.202H156.299V207.861H161.658V193.202H169.375V230.652H161.658V215.351Z" fill="#43B02A"/>
<path d="M185.57 200.692V230.652H177.853V200.692H172.493V193.202H190.875V200.692H185.57Z" fill="#43B02A"/>
<path d="M214.481 221.022C214.481 222.591 214.213 224.036 213.677 225.355C213.141 226.639 212.391 227.763 211.426 228.726C210.497 229.653 209.372 230.384 208.05 230.919C206.728 231.454 205.299 231.722 203.762 231.722C202.19 231.722 200.743 231.454 199.422 230.919C198.135 230.384 197.01 229.653 196.045 228.726C195.116 227.763 194.384 226.639 193.848 225.355C193.312 224.036 193.044 222.591 193.044 221.022V202.832C193.044 201.298 193.312 199.872 193.848 198.552C194.384 197.232 195.116 196.109 196.045 195.181C197.01 194.218 198.135 193.469 199.422 192.934C200.743 192.399 202.19 192.132 203.762 192.132C205.299 192.132 206.728 192.399 208.05 192.934C209.372 193.469 210.497 194.218 211.426 195.181C212.391 196.109 213.141 197.232 213.677 198.552C214.213 199.872 214.481 201.298 214.481 202.832V221.022ZM200.761 221.022C200.761 221.949 201.029 222.716 201.565 223.322C202.101 223.929 202.834 224.232 203.762 224.232C204.691 224.232 205.424 223.929 205.96 223.322C206.496 222.716 206.764 221.949 206.764 221.022V202.832C206.764 201.905 206.496 201.138 205.96 200.531C205.424 199.925 204.691 199.622 203.762 199.622C202.834 199.622 202.101 199.925 201.565 200.531C201.029 201.138 200.761 201.905 200.761 202.832V221.022Z" fill="#43B02A"/>
<path d="M239.175 220.38C239.175 221.878 238.907 223.269 238.371 224.553C237.87 225.801 237.156 226.889 236.227 227.816C235.334 228.708 234.262 229.404 233.011 229.903C231.761 230.402 230.385 230.652 228.885 230.652H219.078V193.202H228.188C229.689 193.202 231.064 193.469 232.315 194.004C233.565 194.504 234.637 195.217 235.53 196.144C236.459 197.036 237.174 198.106 237.674 199.354C238.21 200.603 238.478 201.976 238.478 203.474V203.902C238.478 205.614 238.156 207.094 237.513 208.342C236.906 209.555 236.031 210.536 234.887 211.285C236.209 212.034 237.245 213.068 237.996 214.388C238.782 215.672 239.175 217.241 239.175 219.096V220.38ZM231.457 217.705C231.457 215.957 230.689 215.03 229.153 214.923H226.795V223.162H228.885C230.6 223.162 231.457 222.235 231.457 220.38V217.705ZM230.761 203.474C230.761 201.619 229.903 200.692 228.188 200.692H226.795V208.075H228.188C229.903 208.075 230.761 207.148 230.761 205.293V203.474Z" fill="#43B02A"/>
<path d="M241.43 230.652L247.271 193.202H257.454L263.295 230.652H255.524L254.828 224.499L249.415 224.339L248.664 230.652H241.43ZM250.272 217.491L254.024 217.384L252.47 203.42L252.523 200.424H251.987L252.041 203.42L250.272 217.491Z" fill="#43B02A"/>
<path d="M279.884 215.351H274.525V230.652H266.808V193.202H274.525V207.861H279.884V193.202H287.601V230.652H279.884V215.351Z" fill="#43B02A"/>
<path d="M306.797 193.202H315.908V230.652H308.084L308.62 208.503L308.995 205.507H308.512L308.405 207.112L302.296 230.652H293.185V193.202H301.009L300.474 215.351L300.098 218.347H300.581L300.688 216.742L306.797 193.202Z" fill="#43B02A"/>
<path d="M343.364 207.005L339.988 230.652H332.056L328.144 207.005L328.037 205.4H327.555L327.93 208.396L328.466 230.652H321.499V193.202H332.11L335.915 219.31L335.861 222.306H336.397L336.344 219.31L340.042 193.202H351.189V230.652H343.471L343.579 208.396L343.954 205.4H343.471L343.364 207.005Z" fill="#43B02A"/>
<path d="M375.219 223.162H380.15V193.202H387.867V223.162H391.243L389.635 237.5H383.633V230.652H367.502V193.202H375.219V223.162Z" fill="#43B02A"/>
<path d="M394.298 193.202H402.015V230.652H394.298V193.202Z" fill="#43B02A"/>
<path d="M420.668 215.351H415.308V230.652H407.591V193.202H415.308V207.861H420.668V193.202H428.385V230.652H420.668V215.351Z" fill="#43B02A"/>
<path d="M431.932 230.652L437.773 193.202H447.956L453.797 230.652H446.027L445.33 224.499L439.917 224.339L439.167 230.652H431.932ZM440.775 217.491L444.526 217.384L442.972 203.42L443.025 200.424H442.489L442.543 203.42L440.775 217.491Z" fill="#43B02A"/>
<path d="M479.176 207.005L475.799 230.652H467.868L463.955 207.005L463.848 205.4H463.366L463.741 208.396L464.277 230.652H457.31V193.202H467.921L471.726 219.31L471.673 222.306H472.209L472.155 219.31L475.853 193.202H487V230.652H479.283L479.39 208.396L479.765 205.4H479.283L479.176 207.005Z" fill="#43B02A"/>
</svg>
