<svg width="376" height="107" viewBox="0 0 376 107" fill="none" xmlns="http://www.w3.org/2000/svg">
<path d="M27.5 8.5L6 13.5L4 25.5C5.83333 35.1667 9.9 54.8 11.5 56C13.1 57.2 10.8333 77.5 9.5 87.5L16 98.5C21.5 99.5 32.8 101.5 34 101.5C35.2 101.5 123.833 102.833 168 103.5C194.333 103.667 247.9 103.9 251.5 103.5C256 103 280.5 98.5 283 98.5C285.5 98.5 326.5 97 328.5 97H355.5L358.5 78L361 60.5L367.5 40L371.5 25.5V13L364.5 10L330 6L284 2L215.5 8.5L152 12L141 10L130 12L43.5 8.5H27.5Z" fill="#FF671F"/>
<path d="M147.683 11.2094C145.09 11.4974 137.227 11.6712 134.551 11.9923M147.683 11.2094C149.03 11.2094 150.241 12.1695 151.526 12.4549C152.91 12.7625 154.673 12.4905 156.081 12.4905C168.268 12.4905 180.635 10.9445 192.734 9.57245C201.382 8.59175 209.622 7.65743 218.285 7.33055C225.571 7.05559 232.901 6.6086 240.17 6.04947C250.831 5.22935 261.329 3.52288 272.055 3.52288C281.117 3.52288 290.18 3.4714 299.242 3.52288C312.789 3.59985 326.701 4.71024 340.166 6.2274C345.774 6.85935 351.3 6.80278 356.82 8.14902C360.213 8.97668 363.735 10.1965 367.211 10.5688C374.235 11.3215 372.099 20.2084 371.41 24.8031C369.279 39.0066 360.791 51.6234 359.417 66.0469C359.056 69.8432 358.32 73.4009 358.065 77.2208C357.853 80.4052 357.848 84.2488 357.14 87.3628C356.478 90.2767 356.799 93.173 355.539 96.0101C354.882 97.4878 346.437 96.4015 344.827 96.4015C333.912 96.4015 323.131 97.6826 312.195 97.6826C302.899 97.6826 293.722 98.3232 284.438 98.3232C274.699 98.3232 264.37 101.236 254.689 102.665C245.755 103.983 236.512 103.447 227.501 103.447C184.612 103.447 141.576 103.447 98.6811 103.447C88.6321 103.447 78.6856 102.807 68.6467 102.807C59.6582 102.807 50.8652 100.885 41.8863 100.885C34.2051 100.885 26.6673 99.2097 19.0403 98.9637C14.3157 98.8113 10.4418 94.1655 10.2862 89.4979C9.78736 74.5326 12.5439 58.3074 8.64927 43.8415C5.87951 33.5538 -3.55743 16.7835 10.6065 11.5652C14.5975 10.0949 19.5732 10.7723 23.7376 9.78596C26.1395 9.2171 28.1074 7.45663 30.6412 7.36614C39.5432 7.04821 47.9561 8.03086 56.7611 9.14542C73.1314 11.2176 89.648 11.2097 106.083 11.9923C115.527 12.442 125.129 13.123 134.551 11.9923M147.683 11.2094C146.507 11.2094 135.727 11.9923 134.551 11.9923M134.551 11.9923C133.421 11.9923 135.909 11.9923 134.551 11.9923Z" stroke="#183F0F" stroke-width="6" stroke-linecap="round"/>
<path d="M40.24 24.08L40.32 24H47.28V80H35.76V38.32C33.0933 39.4933 30.16 40.08 26.96 40.08V30C28.08 30 29.2533 29.84 30.48 29.52C31.76 29.2 32.9867 28.7733 34.16 28.24C35.3333 27.6533 36.4267 26.9867 37.44 26.24C38.5067 25.4933 39.44 24.72 40.24 23.92V24.08ZM55.61 61.12H67.13V64.4C67.13 66 67.4233 67.3333 68.01 68.4C68.65 69.4667 69.5833 70 70.81 70C72.0367 70 72.9433 69.4667 73.53 68.4C74.17 67.3333 74.49 66 74.49 64.4V57.12C72.8367 57.8667 71.13 58.24 69.37 58.24C67.3433 58.24 65.4767 57.84 63.77 57.04C62.1167 56.24 60.6767 55.12 59.45 53.68C58.2767 52.24 57.3433 50.48 56.65 48.4C56.01 46.32 55.69 44 55.69 41.44H55.61V39.6C55.61 37.04 55.9833 34.72 56.73 32.64C57.53 30.56 58.5967 28.8 59.93 27.36C61.3167 25.92 62.9167 24.8 64.73 24C66.5967 23.2 68.6233 22.8 70.81 22.8C72.9967 22.8 74.9967 23.2 76.81 24C78.6767 24.8 80.2767 25.92 81.61 27.36C82.9967 28.8 84.0633 30.56 84.81 32.64C85.61 34.72 86.01 37.04 86.01 39.6V64.4C86.01 66.96 85.61 69.28 84.81 71.36C84.0633 73.44 82.9967 75.2 81.61 76.64C80.2767 78.08 78.6767 79.2 76.81 80C74.9967 80.8 72.9967 81.2 70.81 81.2C68.6233 81.2 66.5967 80.8 64.73 80C62.9167 79.2 61.3167 78.08 59.93 76.64C58.5967 75.2 57.53 73.44 56.73 71.36C55.9833 69.28 55.61 66.96 55.61 64.4V61.12ZM74.49 39.6C74.49 38 74.17 36.6667 73.53 35.6C72.9433 34.5333 72.0367 34 70.81 34C69.5833 34 68.65 34.5333 68.01 35.6C67.4233 36.6667 67.13 38 67.13 39.6V41.84C67.13 43.44 67.4233 44.7733 68.01 45.84C68.65 46.9067 69.5833 47.44 70.81 47.44C72.0367 47.44 72.9433 46.9067 73.53 45.84C74.17 44.7733 74.49 43.44 74.49 41.84V39.6ZM94.4644 66.64H105.584V80H94.4644V66.64ZM124.303 24.08L124.383 24H131.343V80H119.823V38.32C117.156 39.4933 114.223 40.08 111.023 40.08V30C112.142 30 113.316 29.84 114.543 29.52C115.823 29.2 117.049 28.7733 118.223 28.24C119.396 27.6533 120.489 26.9867 121.503 26.24C122.569 25.4933 123.503 24.72 124.303 23.92V24.08ZM150.553 24.08L150.633 24H157.593V80H146.073V38.32C143.406 39.4933 140.473 40.08 137.273 40.08V30C138.392 30 139.566 29.84 140.793 29.52C142.073 29.2 143.299 28.7733 144.473 28.24C145.646 27.6533 146.739 26.9867 147.753 26.24C148.819 25.4933 149.753 24.72 150.553 23.92V24.08ZM181.378 80V71.92C181.378 69.04 181.938 66.32 183.058 63.76C184.178 61.2 185.938 58.88 188.338 56.8L196.258 49.84C197.485 48.7733 198.445 47.6533 199.138 46.48C199.885 45.3067 200.258 44.08 200.258 42.8V39.6C200.258 37.8933 199.938 36.5333 199.298 35.52C198.711 34.5067 197.805 34 196.578 34C195.351 34 194.418 34.5067 193.778 35.52C193.191 36.5333 192.898 37.8933 192.898 39.6V42.88H181.378V39.6C181.378 37.04 181.751 34.72 182.498 32.64C183.298 30.56 184.365 28.8 185.698 27.36C187.085 25.92 188.685 24.8 190.498 24C192.365 23.2 194.391 22.8 196.578 22.8C198.765 22.8 200.765 23.2 202.578 24C204.445 24.8 206.045 25.92 207.378 27.36C208.765 28.8 209.831 30.56 210.578 32.64C211.378 34.72 211.778 37.04 211.778 39.6V40.56C211.778 43.44 211.218 46.16 210.098 48.72C208.978 51.28 207.218 53.6 204.818 55.68L196.898 62.64C195.831 63.5467 194.951 64.5333 194.258 65.6C193.565 66.6133 193.138 67.68 192.978 68.8H210.498V80H181.378ZM248.447 64.4C248.447 66.96 248.047 69.28 247.247 71.36C246.5 73.44 245.434 75.2 244.047 76.64C242.714 78.08 241.114 79.2 239.247 80C237.434 80.8 235.434 81.2 233.247 81.2C231.06 81.2 229.034 80.8 227.167 80C225.354 79.2 223.754 78.08 222.367 76.64C221.034 75.2 219.967 73.44 219.167 71.36C218.42 69.28 218.047 66.96 218.047 64.4V39.6C218.047 37.04 218.42 34.72 219.167 32.64C219.967 30.56 221.034 28.8 222.367 27.36C223.754 25.92 225.354 24.8 227.167 24C229.034 23.2 231.06 22.8 233.247 22.8C235.434 22.8 237.434 23.2 239.247 24C241.114 24.8 242.714 25.92 244.047 27.36C245.434 28.8 246.5 30.56 247.247 32.64C248.047 34.72 248.447 37.04 248.447 39.6V64.4ZM229.567 64.4C229.567 66 229.86 67.3333 230.447 68.4C231.087 69.4667 232.02 70 233.247 70C234.474 70 235.38 69.4667 235.967 68.4C236.607 67.3333 236.927 66 236.927 64.4V39.6C236.927 38 236.607 36.6667 235.967 35.6C235.38 34.5333 234.474 34 233.247 34C232.02 34 231.087 34.5333 230.447 35.6C229.86 36.6667 229.567 38 229.567 39.6V64.4ZM256.964 66.64H268.084V80H256.964V66.64ZM256.964 40.08H268.084V53.44H256.964V40.08ZM306.963 64.4C306.963 66.96 306.563 69.28 305.763 71.36C305.016 73.44 303.949 75.2 302.563 76.64C301.229 78.08 299.629 79.2 297.763 80C295.949 80.8 293.949 81.2 291.763 81.2C289.576 81.2 287.549 80.8 285.683 80C283.869 79.2 282.269 78.08 280.883 76.64C279.549 75.2 278.483 73.44 277.683 71.36C276.936 69.28 276.563 66.96 276.563 64.4V39.6C276.563 37.04 276.936 34.72 277.683 32.64C278.483 30.56 279.549 28.8 280.883 27.36C282.269 25.92 283.869 24.8 285.683 24C287.549 23.2 289.576 22.8 291.763 22.8C293.949 22.8 295.949 23.2 297.763 24C299.629 24.8 301.229 25.92 302.563 27.36C303.949 28.8 305.016 30.56 305.763 32.64C306.563 34.72 306.963 37.04 306.963 39.6V64.4ZM288.083 64.4C288.083 66 288.376 67.3333 288.963 68.4C289.603 69.4667 290.536 70 291.763 70C292.989 70 293.896 69.4667 294.483 68.4C295.123 67.3333 295.443 66 295.443 64.4V39.6C295.443 38 295.123 36.6667 294.483 35.6C293.896 34.5333 292.989 34 291.763 34C290.536 34 289.603 34.5333 288.963 35.6C288.376 36.6667 288.083 38 288.083 39.6V64.4ZM345.4 64.4C345.4 66.96 345 69.28 344.2 71.36C343.453 73.44 342.387 75.2 341 76.64C339.667 78.08 338.067 79.2 336.2 80C334.387 80.8 332.387 81.2 330.2 81.2C328.013 81.2 325.987 80.8 324.12 80C322.307 79.2 320.707 78.08 319.32 76.64C317.987 75.2 316.92 73.44 316.12 71.36C315.373 69.28 315 66.96 315 64.4V39.6C315 37.04 315.373 34.72 316.12 32.64C316.92 30.56 317.987 28.8 319.32 27.36C320.707 25.92 322.307 24.8 324.12 24C325.987 23.2 328.013 22.8 330.2 22.8C332.387 22.8 334.387 23.2 336.2 24C338.067 24.8 339.667 25.92 341 27.36C342.387 28.8 343.453 30.56 344.2 32.64C345 34.72 345.4 37.04 345.4 39.6V64.4ZM326.52 64.4C326.52 66 326.813 67.3333 327.4 68.4C328.04 69.4667 328.973 70 330.2 70C331.427 70 332.333 69.4667 332.92 68.4C333.56 67.3333 333.88 66 333.88 64.4V39.6C333.88 38 333.56 36.6667 332.92 35.6C332.333 34.5333 331.427 34 330.2 34C328.973 34 328.04 34.5333 327.4 35.6C326.813 36.6667 326.52 38 326.52 39.6V64.4Z" fill="white"/>
</svg>
