<svg width="820" height="268" viewBox="0 0 820 268" fill="none" xmlns="http://www.w3.org/2000/svg">
<path d="M18.962 92.296C18.962 94.274 19.478 95.994 20.51 97.456C21.542 98.832 23.09 99.52 25.154 99.52C27.218 99.52 28.766 98.832 29.798 97.456C30.83 95.994 31.346 94.274 31.346 92.296V83.008H49.922V92.296C49.922 95.822 49.277 99.133 47.987 102.229C46.783 105.325 45.063 108.034 42.827 110.356C40.677 112.592 38.097 114.355 35.087 115.645C32.077 116.935 28.766 117.58 25.154 117.58C21.542 117.58 18.188 116.935 15.092 115.645C12.082 114.355 9.459 112.592 7.223 110.356C5.073 108.034 3.396 105.325 2.192 102.229C0.988 99.133 0.386 95.822 0.386 92.296V47.404C0.386 43.878 0.988 40.567 2.192 37.471C3.396 34.375 5.073 31.709 7.223 29.473C9.459 27.151 12.082 25.345 15.092 24.055C18.188 22.765 21.542 22.12 25.154 22.12C28.766 22.12 32.077 22.765 35.087 24.055C38.097 25.345 40.677 27.151 42.827 29.473C45.063 31.709 46.783 34.375 47.987 37.471C49.277 40.567 49.922 43.878 49.922 47.404V57.208H31.346V47.404C31.346 45.426 30.83 43.749 29.798 42.373C28.766 40.911 27.218 40.18 25.154 40.18C23.09 40.18 21.542 40.911 20.51 42.373C19.478 43.749 18.962 45.426 18.962 47.404V92.296ZM98.7273 66.625L113.691 115H94.5993L81.1833 69.205V115H62.6073V24.7H81.1833V69.205L94.2123 24.7H112.788L98.7273 66.625ZM119.872 115L133.933 24.7H158.443L172.504 115H153.799L152.122 100.165L139.093 99.778L137.287 115H119.872ZM141.157 83.266L150.187 83.008L146.446 49.339L146.575 42.115H145.285L145.414 49.339L141.157 83.266ZM215.016 78.106H202.116V115H183.54V24.7H202.116V60.046H215.016V24.7H233.592V115H215.016V78.106ZM249.096 99.391H251.289C254.127 99.391 256.406 98.875 258.126 97.843L244.452 24.7H263.415L269.22 68.947L269.091 76.171H270.381L270.252 68.947L274.509 24.7H292.182L284.571 75.268H284.7C283.754 82.234 282.55 88.34 281.088 93.586C279.626 98.746 277.734 103.089 275.412 106.615C273.09 110.141 270.295 112.807 267.027 114.613C263.759 116.333 259.889 117.193 255.417 117.193C254.471 117.193 253.439 117.107 252.321 116.935C251.203 116.849 250.128 116.677 249.096 116.419V99.391ZM349.923 0.834994C349.923 3.93099 349.407 6.76899 348.375 9.34899C347.343 11.843 345.881 13.993 343.989 15.799C342.183 17.605 339.99 19.024 337.41 20.056C334.916 21.002 332.121 21.475 329.025 21.475C325.929 21.475 323.091 21.002 320.511 20.056C318.017 19.024 315.824 17.605 313.932 15.799C312.126 13.993 310.707 11.843 309.675 9.34899C308.643 6.76899 308.127 3.93099 308.127 0.834994H323.865C323.865 2.55499 324.295 4.05999 325.155 5.35C326.015 6.554 327.305 7.156 329.025 7.156C330.745 7.156 332.035 6.554 332.895 5.35C333.755 4.05999 334.185 2.55499 334.185 0.834994H349.923ZM335.475 24.7H357.405V115H338.571L339.861 61.594L340.764 54.37H339.603L339.345 58.24L324.639 115H302.709V24.7H321.543L320.253 78.106L319.35 85.33H320.511L320.769 81.46L335.475 24.7ZM451.125 91.78C451.125 97.542 449.663 102.53 446.739 106.744C447.427 108.292 449.147 109.066 451.899 109.066V125.578C447.771 125.578 444.116 124.761 440.934 123.127C437.752 121.493 435.172 119.257 433.194 116.419C430.7 117.193 428.077 117.58 425.325 117.58C421.541 117.58 418.058 116.935 414.876 115.645C411.78 114.355 409.071 112.592 406.749 110.356C404.513 108.034 402.75 105.325 401.46 102.229C400.17 99.047 399.525 95.564 399.525 91.78V47.92C399.525 44.222 400.17 40.782 401.46 37.6C402.75 34.418 404.513 31.709 406.749 29.473C409.071 27.151 411.78 25.345 414.876 24.055C418.058 22.765 421.541 22.12 425.325 22.12C429.023 22.12 432.463 22.765 435.645 24.055C438.827 25.345 441.536 27.151 443.772 29.473C446.094 31.709 447.9 34.418 449.19 37.6C450.48 40.782 451.125 44.222 451.125 47.92V91.78ZM418.101 91.78C418.101 94.016 418.746 95.865 420.036 97.327C421.326 98.789 423.089 99.52 425.325 99.52C427.561 99.52 429.324 98.789 430.614 97.327C431.904 95.865 432.549 94.016 432.549 91.78V47.92C432.549 45.684 431.904 43.835 430.614 42.373C429.324 40.911 427.561 40.18 425.325 40.18C423.089 40.18 421.326 40.911 420.036 42.373C418.746 43.835 418.101 45.684 418.101 47.92V91.78ZM487.465 80.428H483.724V115H465.148V24.7H487.078C490.69 24.7 494.001 25.345 497.011 26.635C500.021 27.839 502.601 29.559 504.751 31.795C506.987 33.945 508.707 36.525 509.911 39.535C511.201 42.545 511.846 45.856 511.846 49.468V53.08C511.846 57.036 511.115 60.648 509.653 63.916C508.191 67.098 506.213 69.807 503.719 72.043L516.232 115H496.624L487.465 80.428ZM493.27 49.468C493.27 44.996 491.206 42.76 487.078 42.76H483.724V63.013H487.078C491.206 63.013 493.27 60.777 493.27 56.305V49.468ZM532.877 80.686V61.336H567.449V80.686H532.877ZM625.728 66.625L640.692 115H621.6L608.184 69.205V115H589.608V24.7H608.184V69.205L621.213 24.7H639.789L625.728 66.625ZM701.053 91.78C701.053 95.564 700.408 99.047 699.118 102.229C697.828 105.325 696.022 108.034 693.7 110.356C691.464 112.592 688.755 114.355 685.573 115.645C682.391 116.935 678.951 117.58 675.253 117.58C671.469 117.58 667.986 116.935 664.804 115.645C661.708 114.355 658.999 112.592 656.677 110.356C654.441 108.034 652.678 105.325 651.388 102.229C650.098 99.047 649.453 95.564 649.453 91.78V47.92C649.453 44.222 650.098 40.782 651.388 37.6C652.678 34.418 654.441 31.709 656.677 29.473C658.999 27.151 661.708 25.345 664.804 24.055C667.986 22.765 671.469 22.12 675.253 22.12C678.951 22.12 682.391 22.765 685.573 24.055C688.755 25.345 691.464 27.151 693.7 29.473C696.022 31.709 697.828 34.418 699.118 37.6C700.408 40.782 701.053 44.222 701.053 47.92V91.78ZM668.029 91.78C668.029 94.016 668.674 95.865 669.964 97.327C671.254 98.789 673.017 99.52 675.253 99.52C677.489 99.52 679.252 98.789 680.542 97.327C681.832 95.865 682.477 94.016 682.477 91.78V47.92C682.477 45.684 681.832 43.835 680.542 42.373C679.252 40.911 677.489 40.18 675.253 40.18C673.017 40.18 671.254 40.911 669.964 42.373C668.674 43.835 668.029 45.684 668.029 47.92V91.78ZM764.749 24.7V96.94H772.876L769.006 131.512H754.558V115H724.888L723.082 131.512H708.634V96.94H711.472C712.934 96.51 714.052 95.392 714.826 93.586C715.686 91.694 716.331 89.2 716.761 86.104C717.277 83.008 717.621 79.31 717.793 75.01C717.965 70.71 718.137 65.894 718.309 60.562L719.212 24.7H764.749ZM735.853 60.562C735.681 68.388 735.337 75.311 734.821 81.331C734.305 87.351 733.316 92.554 731.854 96.94H746.173V42.76H736.24L735.853 60.562ZM2.708 160.7H21.284V251H2.708V160.7ZM101.811 202.625L116.775 251H97.6832L84.2672 205.205V251H65.6912V160.7H84.2672V205.205L97.2962 160.7H115.872L101.811 202.625ZM122.956 251L137.017 160.7H161.527L175.588 251H156.883L155.206 236.165L142.177 235.778L140.371 251H122.956ZM144.241 219.266L153.271 219.008L149.53 185.339L149.659 178.115H148.369L148.498 185.339L144.241 219.266ZM181.53 160.571H200.106V196.433C200.106 199.185 200.45 201.206 201.138 202.496C201.912 203.786 203.202 204.431 205.008 204.431C205.438 204.431 206.126 204.388 207.072 204.302C208.018 204.216 208.749 204.087 209.265 203.915V160.571H227.841V251H209.265V219.395C208.233 219.825 206.857 220.169 205.137 220.427C203.503 220.599 202.084 220.685 200.88 220.685C197.956 220.685 195.29 220.126 192.882 219.008C190.56 217.89 188.539 216.342 186.819 214.364C185.185 212.386 183.895 210.021 182.949 207.269C182.003 204.431 181.53 201.335 181.53 197.981V160.571ZM238.976 251L253.037 160.7H277.547L291.608 251H272.903L271.226 236.165L258.197 235.778L256.391 251H238.976ZM260.261 219.266L269.291 219.008L265.55 185.339L265.679 178.115H264.389L264.518 185.339L260.261 219.266ZM349.857 136.835C349.857 139.931 349.341 142.769 348.309 145.349C347.277 147.843 345.815 149.993 343.923 151.799C342.117 153.605 339.924 155.024 337.344 156.056C334.85 157.002 332.055 157.475 328.959 157.475C325.863 157.475 323.025 157.002 320.445 156.056C317.951 155.024 315.758 153.605 313.866 151.799C312.06 149.993 310.641 147.843 309.609 145.349C308.577 142.769 308.061 139.931 308.061 136.835H323.799C323.799 138.555 324.229 140.06 325.089 141.35C325.949 142.554 327.239 143.156 328.959 143.156C330.679 143.156 331.969 142.554 332.829 141.35C333.689 140.06 334.119 138.555 334.119 136.835H349.857ZM335.409 160.7H357.339V251H338.505L339.795 197.594L340.698 190.37H339.537L339.279 194.24L324.573 251H302.643V160.7H321.477L320.187 214.106L319.284 221.33H320.445L320.703 217.46L335.409 160.7ZM451.834 160.7V232.94H459.961L456.091 267.512H441.643V251H411.973L410.167 267.512H395.719V232.94H398.557C400.019 232.51 401.137 231.392 401.911 229.586C402.771 227.694 403.416 225.2 403.846 222.104C404.362 219.008 404.706 215.31 404.878 211.01C405.05 206.71 405.222 201.894 405.394 196.562L406.297 160.7H451.834ZM422.938 196.562C422.766 204.388 422.422 211.311 421.906 217.331C421.39 223.351 420.401 228.554 418.939 232.94H433.258V178.76H423.325L422.938 196.562ZM519.147 227.78C519.147 231.564 518.502 235.047 517.212 238.229C515.922 241.325 514.116 244.034 511.794 246.356C509.558 248.592 506.849 250.355 503.667 251.645C500.485 252.935 497.045 253.58 493.347 253.58C489.563 253.58 486.08 252.935 482.898 251.645C479.802 250.355 477.093 248.592 474.771 246.356C472.535 244.034 470.772 241.325 469.482 238.229C468.192 235.047 467.547 231.564 467.547 227.78V183.92C467.547 180.222 468.192 176.782 469.482 173.6C470.772 170.418 472.535 167.709 474.771 165.473C477.093 163.151 479.802 161.345 482.898 160.055C486.08 158.765 489.563 158.12 493.347 158.12C497.045 158.12 500.485 158.765 503.667 160.055C506.849 161.345 509.558 163.151 511.794 165.473C514.116 167.709 515.922 170.418 517.212 173.6C518.502 176.782 519.147 180.222 519.147 183.92V227.78ZM486.123 227.78C486.123 230.016 486.768 231.865 488.058 233.327C489.348 234.789 491.111 235.52 493.347 235.52C495.583 235.52 497.346 234.789 498.636 233.327C499.926 231.865 500.571 230.016 500.571 227.78V183.92C500.571 181.684 499.926 179.835 498.636 178.373C497.346 176.911 495.583 176.18 493.347 176.18C491.111 176.18 489.348 176.911 488.058 178.373C486.768 179.835 486.123 181.684 486.123 183.92V227.78ZM582.844 160.7V232.94H590.971L587.101 267.512H572.653V251H542.983L541.177 267.512H526.729V232.94H529.567C531.029 232.51 532.147 231.392 532.921 229.586C533.781 227.694 534.426 225.2 534.856 222.104C535.372 219.008 535.716 215.31 535.888 211.01C536.06 206.71 536.232 201.894 536.404 196.562L537.307 160.7H582.844ZM553.948 196.562C553.776 204.388 553.432 211.311 552.916 217.331C552.4 223.351 551.411 228.554 549.949 232.94H564.268V178.76H554.335L553.948 196.562ZM595.978 251L610.039 160.7H634.549L648.61 251H629.905L628.228 236.165L615.199 235.778L613.393 251H595.978ZM617.263 219.266L626.293 219.008L622.552 185.339L622.681 178.115H621.391L621.52 185.339L617.263 219.266ZM682.668 178.76V251H664.092V178.76H651.192V160.7H664.092H695.439V178.76H682.668ZM754.839 227.78C754.839 231.564 754.194 235.047 752.904 238.229C751.614 241.325 749.808 244.034 747.486 246.356C745.25 248.592 742.541 250.355 739.359 251.645C736.177 252.935 732.737 253.58 729.039 253.58C725.255 253.58 721.772 252.935 718.59 251.645C715.494 250.355 712.785 248.592 710.463 246.356C708.227 244.034 706.464 241.325 705.174 238.229C703.884 235.047 703.239 231.564 703.239 227.78V183.92C703.239 180.222 703.884 176.782 705.174 173.6C706.464 170.418 708.227 167.709 710.463 165.473C712.785 163.151 715.494 161.345 718.59 160.055C721.772 158.765 725.255 158.12 729.039 158.12C732.737 158.12 736.177 158.765 739.359 160.055C742.541 161.345 745.25 163.151 747.486 165.473C749.808 167.709 751.614 170.418 752.904 173.6C754.194 176.782 754.839 180.222 754.839 183.92V227.78ZM721.815 227.78C721.815 230.016 722.46 231.865 723.75 233.327C725.04 234.789 726.803 235.52 729.039 235.52C731.275 235.52 733.038 234.789 734.328 233.327C735.618 231.865 736.263 230.016 736.263 227.78V183.92C736.263 181.684 735.618 179.835 734.328 178.373C733.038 176.911 731.275 176.18 729.039 176.18C726.803 176.18 725.04 176.911 723.75 178.373C722.46 179.835 721.815 181.684 721.815 183.92V227.78ZM804.604 202.625L819.568 251H800.476L787.06 205.205V251H768.484V160.7H787.06V205.205L800.089 160.7H818.665L804.604 202.625Z" fill="white"/>
</svg>
