<svg width="836" height="106" viewBox="0 0 836 106" fill="none" xmlns="http://www.w3.org/2000/svg">
<path d="M27.84 31.24H18.816V85H4.992V17.8H41.664V85H27.84V31.24ZM86.6235 47.176C86.6235 49.992 86.1435 52.584 85.1835 54.952C84.2235 57.256 82.8795 59.272 81.1515 61C79.4875 62.664 77.4715 63.976 75.1035 64.936C72.7355 65.896 70.1755 66.376 67.4235 66.376H65.5035V85H51.6795V17.8H67.4235C70.1755 17.8 72.7355 18.28 75.1035 19.24C77.4715 20.2 79.4875 21.544 81.1515 23.272C82.8795 24.936 84.2235 26.952 85.1835 29.32C86.1435 31.688 86.6235 34.248 86.6235 37V47.176ZM72.7995 37C72.7995 35.336 72.3195 33.96 71.3595 32.872C70.3995 31.784 69.0875 31.24 67.4235 31.24H65.5035V52.936H67.4235C69.0875 52.936 70.3995 52.392 71.3595 51.304C72.3195 50.216 72.7995 48.84 72.7995 47.176V37ZM93.3045 85V17.8H119.801V31.24H107.129V44.008H118.265V57.448H107.129V71.56H121.049V85H93.3045ZM141.026 68.104C141.026 69.576 141.41 70.856 142.178 71.944C142.946 72.968 144.098 73.48 145.634 73.48C147.17 73.48 148.322 72.968 149.09 71.944C149.858 70.856 150.242 69.576 150.242 68.104V61.192H164.066V68.104C164.066 70.728 163.586 73.192 162.626 75.496C161.73 77.8 160.45 79.816 158.786 81.544C157.186 83.208 155.266 84.52 153.026 85.48C150.786 86.44 148.322 86.92 145.634 86.92C142.946 86.92 140.45 86.44 138.146 85.48C135.906 84.52 133.954 83.208 132.29 81.544C130.69 79.816 129.442 77.8 128.546 75.496C127.65 73.192 127.202 70.728 127.202 68.104V34.696C127.202 32.072 127.65 29.608 128.546 27.304C129.442 25 130.69 23.016 132.29 21.352C133.954 19.624 135.906 18.28 138.146 17.32C140.45 16.36 142.946 15.88 145.634 15.88C148.322 15.88 150.786 16.36 153.026 17.32C155.266 18.28 157.186 19.624 158.786 21.352C160.45 23.016 161.73 25 162.626 27.304C163.586 29.608 164.066 32.072 164.066 34.696V41.992H150.242V34.696C150.242 33.224 149.858 31.976 149.09 30.952C148.322 29.864 147.17 29.32 145.634 29.32C144.098 29.32 142.946 29.864 142.178 30.952C141.41 31.976 141.026 33.224 141.026 34.696V68.104ZM171.586 85V17.8H198.082V31.24H185.41V44.008H196.546V57.448H185.41V71.56H199.33V85H171.586ZM242.347 0.0399952C242.347 2.344 241.963 4.456 241.195 6.37599C240.427 8.232 239.339 9.832 237.931 11.176C236.587 12.52 234.955 13.576 233.035 14.344C231.179 15.048 229.099 15.4 226.795 15.4C224.491 15.4 222.379 15.048 220.459 14.344C218.603 13.576 216.971 12.52 215.563 11.176C214.219 9.832 213.163 8.232 212.395 6.37599C211.627 4.456 211.243 2.344 211.243 0.0399952H222.955C222.955 1.31999 223.275 2.43999 223.915 3.4C224.555 4.296 225.515 4.744 226.795 4.744C228.075 4.744 229.035 4.296 229.675 3.4C230.315 2.43999 230.635 1.31999 230.635 0.0399952H242.347ZM231.595 17.8H247.915V85H233.899L234.859 45.256L235.531 39.88H234.667L234.475 42.76L223.531 85H207.211V17.8H221.227L220.267 57.544L219.595 62.92H220.459L220.651 60.04L231.595 17.8ZM293.642 17.8V85H279.818V31.24H274.058L273.77 44.488C273.642 50.44 273.386 55.944 273.002 61C272.682 66.056 271.978 70.44 270.89 74.152C269.802 77.864 268.234 80.776 266.186 82.888C264.138 84.936 261.354 85.96 257.834 85.96C256.554 85.96 255.146 85.768 253.61 85.384V70.984H254.57C255.914 70.984 256.97 70.376 257.738 69.16C258.506 67.88 259.082 66.088 259.466 63.784C259.85 61.416 260.106 58.568 260.234 55.24C260.426 51.848 260.586 48.008 260.714 43.72L261.386 17.8H293.642ZM358.421 65.8C358.421 68.616 357.941 71.208 356.981 73.576C356.021 75.88 354.677 77.896 352.949 79.624C351.285 81.288 349.269 82.6 346.901 83.56C344.533 84.52 341.973 85 339.221 85H322.805V17.8H353.525V31.24H336.629V39.304H339.221C341.973 39.304 344.533 39.784 346.901 40.744C349.269 41.704 351.285 43.048 352.949 44.776C354.677 46.44 356.021 48.456 356.981 50.824C357.941 53.192 358.421 55.752 358.421 58.504V65.8ZM344.597 58.504C344.597 56.84 344.117 55.464 343.156 54.376C342.197 53.288 340.885 52.744 339.221 52.744H336.629V71.56H339.221C340.885 71.56 342.197 71.016 343.156 69.928C344.117 68.84 344.597 67.464 344.597 65.8V58.504ZM400.892 17.8V85H387.068V31.24H381.308L381.02 44.488C380.892 50.44 380.636 55.944 380.252 61C379.932 66.056 379.228 70.44 378.14 74.152C377.052 77.864 375.484 80.776 373.436 82.888C371.388 84.936 368.604 85.96 365.084 85.96C363.804 85.96 362.396 85.768 360.86 85.384V70.984H361.82C363.164 70.984 364.22 70.376 364.988 69.16C365.756 67.88 366.332 66.088 366.716 63.784C367.1 61.416 367.356 58.568 367.484 55.24C367.676 51.848 367.836 48.008 367.964 43.72L368.636 17.8H400.892ZM410.836 85V17.8H437.332V31.24H424.66V44.008H435.796V57.448H424.66V71.56H438.58V85H410.836ZM473.341 49L484.477 85H470.269L460.285 50.92V85H446.461V17.8H460.285V50.92L469.981 17.8H483.805L473.341 49ZM558.695 57.352C558.695 60.104 558.279 62.696 557.447 65.128C556.615 67.56 555.399 69.704 553.799 71.56C552.199 73.352 550.215 74.824 547.847 75.976C545.479 77.064 542.727 77.64 539.591 77.704V85H526.055V77.704C522.919 77.64 520.167 77.064 517.799 75.976C515.431 74.824 513.447 73.352 511.847 71.56C510.247 69.704 509.031 67.56 508.199 65.128C507.367 62.696 506.951 60.104 506.951 57.352V44.2C506.951 41.448 507.367 38.856 508.199 36.424C509.031 33.992 510.247 31.88 511.847 30.088C513.447 28.232 515.431 26.76 517.799 25.672C520.167 24.52 522.919 23.912 526.055 23.848V17.8H539.591V23.848C542.727 23.912 545.479 24.52 547.847 25.672C550.215 26.76 552.199 28.232 553.799 30.088C555.399 31.88 556.615 33.992 557.447 36.424C558.279 38.856 558.695 41.448 558.695 44.2V57.352ZM545.351 42.28C545.351 39.976 544.807 38.152 543.719 36.808C542.631 35.464 541.255 34.792 539.591 34.792H539.303V66.76H540.071C541.543 66.632 542.791 65.928 543.815 64.648C544.839 63.304 545.351 61.512 545.351 59.272V42.28ZM520.295 59.272C520.295 61.576 520.839 63.4 521.927 64.744C523.015 66.088 524.391 66.76 526.055 66.76H526.343V34.792H526.055C524.391 34.792 523.015 35.464 521.927 36.808C520.839 38.152 520.295 39.976 520.295 42.28V59.272ZM600.561 47.176C600.561 49.992 600.081 52.584 599.121 54.952C598.161 57.256 596.817 59.272 595.089 61C593.425 62.664 591.409 63.976 589.041 64.936C586.673 65.896 584.113 66.376 581.361 66.376H579.441V85H565.617V17.8H581.361C584.113 17.8 586.673 18.28 589.041 19.24C591.409 20.2 593.425 21.544 595.089 23.272C596.817 24.936 598.161 26.952 599.121 29.32C600.081 31.688 600.561 34.248 600.561 37V47.176ZM586.737 37C586.737 35.336 586.257 33.96 585.297 32.872C584.337 31.784 583.025 31.24 581.361 31.24H579.441V52.936H581.361C583.025 52.936 584.337 52.392 585.297 51.304C586.257 50.216 586.737 48.84 586.737 47.176V37ZM603.594 85L614.058 17.8H632.298L642.762 85H628.842L627.594 73.96L617.898 73.672L616.554 85H603.594ZM619.434 61.384L626.154 61.192L623.37 36.136L623.466 30.76H622.506L622.602 36.136L619.434 61.384ZM684.191 0.0399952C684.191 2.344 683.807 4.456 683.039 6.37599C682.271 8.232 681.183 9.832 679.775 11.176C678.431 12.52 676.799 13.576 674.879 14.344C673.023 15.048 670.943 15.4 668.639 15.4C666.335 15.4 664.223 15.048 662.303 14.344C660.447 13.576 658.815 12.52 657.407 11.176C656.063 9.832 655.007 8.232 654.239 6.37599C653.471 4.456 653.087 2.344 653.087 0.0399952H664.799C664.799 1.31999 665.119 2.43999 665.759 3.4C666.399 4.296 667.359 4.744 668.639 4.744C669.919 4.744 670.879 4.296 671.519 3.4C672.159 2.43999 672.479 1.31999 672.479 0.0399952H684.191ZM673.439 17.8H689.759V85H675.743L676.703 45.256L677.375 39.88H676.511L676.319 42.76L665.375 85H649.055V17.8H663.071L662.111 57.544L661.439 62.92H662.303L662.495 60.04L673.439 17.8ZM737.021 17.8V71.56H743.069L740.189 97.288H729.437V85H707.357L706.013 97.288H695.261V71.56H697.373C698.461 71.24 699.293 70.408 699.869 69.064C700.509 67.656 700.989 65.8 701.309 63.496C701.693 61.192 701.949 58.44 702.077 55.24C702.205 52.04 702.333 48.456 702.461 44.488L703.133 17.8H737.021ZM715.517 44.488C715.389 50.312 715.133 55.464 714.749 59.944C714.365 64.424 713.629 68.296 712.541 71.56H723.197V31.24H715.805L715.517 44.488ZM748.523 85V17.8H775.019V31.24H762.347V44.008H773.483V57.448H762.347V71.56H776.267V85H748.523ZM819.284 0.0399952C819.284 2.344 818.9 4.456 818.132 6.37599C817.364 8.232 816.276 9.832 814.868 11.176C813.524 12.52 811.892 13.576 809.972 14.344C808.116 15.048 806.036 15.4 803.732 15.4C801.428 15.4 799.316 15.048 797.396 14.344C795.54 13.576 793.908 12.52 792.5 11.176C791.156 9.832 790.1 8.232 789.332 6.37599C788.564 4.456 788.18 2.344 788.18 0.0399952H799.892C799.892 1.31999 800.212 2.43999 800.852 3.4C801.492 4.296 802.452 4.744 803.732 4.744C805.012 4.744 805.972 4.296 806.612 3.4C807.252 2.43999 807.572 1.31999 807.572 0.0399952H819.284ZM808.532 17.8H824.852V85H810.836L811.796 45.256L812.468 39.88H811.604L811.412 42.76L800.468 85H784.148V17.8H798.164L797.204 57.544L796.532 62.92H797.396L797.588 60.04L808.532 17.8Z" fill="#E25C1D"/>
<path d="M28.84 32.24H19.816V86H5.992V18.8H42.664V86H28.84V32.24ZM87.6235 48.176C87.6235 50.992 87.1435 53.584 86.1835 55.952C85.2235 58.256 83.8795 60.272 82.1515 62C80.4875 63.664 78.4715 64.976 76.1035 65.936C73.7355 66.896 71.1755 67.376 68.4235 67.376H66.5035V86H52.6795V18.8H68.4235C71.1755 18.8 73.7355 19.28 76.1035 20.24C78.4715 21.2 80.4875 22.544 82.1515 24.272C83.8795 25.936 85.2235 27.952 86.1835 30.32C87.1435 32.688 87.6235 35.248 87.6235 38V48.176ZM73.7995 38C73.7995 36.336 73.3195 34.96 72.3595 33.872C71.3995 32.784 70.0875 32.24 68.4235 32.24H66.5035V53.936H68.4235C70.0875 53.936 71.3995 53.392 72.3595 52.304C73.3195 51.216 73.7995 49.84 73.7995 48.176V38ZM94.3045 86V18.8H120.801V32.24H108.129V45.008H119.265V58.448H108.129V72.56H122.049V86H94.3045ZM142.026 69.104C142.026 70.576 142.41 71.856 143.178 72.944C143.946 73.968 145.098 74.48 146.634 74.48C148.17 74.48 149.322 73.968 150.09 72.944C150.858 71.856 151.242 70.576 151.242 69.104V62.192H165.066V69.104C165.066 71.728 164.586 74.192 163.626 76.496C162.73 78.8 161.45 80.816 159.786 82.544C158.186 84.208 156.266 85.52 154.026 86.48C151.786 87.44 149.322 87.92 146.634 87.92C143.946 87.92 141.45 87.44 139.146 86.48C136.906 85.52 134.954 84.208 133.29 82.544C131.69 80.816 130.442 78.8 129.546 76.496C128.65 74.192 128.202 71.728 128.202 69.104V35.696C128.202 33.072 128.65 30.608 129.546 28.304C130.442 26 131.69 24.016 133.29 22.352C134.954 20.624 136.906 19.28 139.146 18.32C141.45 17.36 143.946 16.88 146.634 16.88C149.322 16.88 151.786 17.36 154.026 18.32C156.266 19.28 158.186 20.624 159.786 22.352C161.45 24.016 162.73 26 163.626 28.304C164.586 30.608 165.066 33.072 165.066 35.696V42.992H151.242V35.696C151.242 34.224 150.858 32.976 150.09 31.952C149.322 30.864 148.17 30.32 146.634 30.32C145.098 30.32 143.946 30.864 143.178 31.952C142.41 32.976 142.026 34.224 142.026 35.696V69.104ZM172.586 86V18.8H199.082V32.24H186.41V45.008H197.546V58.448H186.41V72.56H200.33V86H172.586ZM243.347 1.04C243.347 3.344 242.963 5.456 242.195 7.37599C241.427 9.232 240.339 10.832 238.931 12.176C237.587 13.52 235.955 14.576 234.035 15.344C232.179 16.048 230.099 16.4 227.795 16.4C225.491 16.4 223.379 16.048 221.459 15.344C219.603 14.576 217.971 13.52 216.563 12.176C215.219 10.832 214.163 9.232 213.395 7.37599C212.627 5.456 212.243 3.344 212.243 1.04H223.955C223.955 2.31999 224.275 3.43999 224.915 4.4C225.555 5.296 226.515 5.744 227.795 5.744C229.075 5.744 230.035 5.296 230.675 4.4C231.315 3.43999 231.635 2.31999 231.635 1.04H243.347ZM232.595 18.8H248.915V86H234.899L235.859 46.256L236.531 40.88H235.667L235.475 43.76L224.531 86H208.211V18.8H222.227L221.267 58.544L220.595 63.92H221.459L221.651 61.04L232.595 18.8ZM294.642 18.8V86H280.818V32.24H275.058L274.77 45.488C274.642 51.44 274.386 56.944 274.002 62C273.682 67.056 272.978 71.44 271.89 75.152C270.802 78.864 269.234 81.776 267.186 83.888C265.138 85.936 262.354 86.96 258.834 86.96C257.554 86.96 256.146 86.768 254.61 86.384V71.984H255.57C256.914 71.984 257.97 71.376 258.738 70.16C259.506 68.88 260.082 67.088 260.466 64.784C260.85 62.416 261.106 59.568 261.234 56.24C261.426 52.848 261.586 49.008 261.714 44.72L262.386 18.8H294.642ZM359.421 66.8C359.421 69.616 358.941 72.208 357.981 74.576C357.021 76.88 355.677 78.896 353.949 80.624C352.285 82.288 350.269 83.6 347.901 84.56C345.533 85.52 342.973 86 340.221 86H323.805V18.8H354.525V32.24H337.629V40.304H340.221C342.973 40.304 345.533 40.784 347.901 41.744C350.269 42.704 352.285 44.048 353.949 45.776C355.677 47.44 357.021 49.456 357.981 51.824C358.941 54.192 359.421 56.752 359.421 59.504V66.8ZM345.597 59.504C345.597 57.84 345.117 56.464 344.156 55.376C343.197 54.288 341.885 53.744 340.221 53.744H337.629V72.56H340.221C341.885 72.56 343.197 72.016 344.156 70.928C345.117 69.84 345.597 68.464 345.597 66.8V59.504ZM401.892 18.8V86H388.068V32.24H382.308L382.02 45.488C381.892 51.44 381.636 56.944 381.252 62C380.932 67.056 380.228 71.44 379.14 75.152C378.052 78.864 376.484 81.776 374.436 83.888C372.388 85.936 369.604 86.96 366.084 86.96C364.804 86.96 363.396 86.768 361.86 86.384V71.984H362.82C364.164 71.984 365.22 71.376 365.988 70.16C366.756 68.88 367.332 67.088 367.716 64.784C368.1 62.416 368.356 59.568 368.484 56.24C368.676 52.848 368.836 49.008 368.964 44.72L369.636 18.8H401.892ZM411.836 86V18.8H438.332V32.24H425.66V45.008H436.796V58.448H425.66V72.56H439.58V86H411.836ZM474.341 50L485.477 86H471.269L461.285 51.92V86H447.461V18.8H461.285V51.92L470.981 18.8H484.805L474.341 50ZM559.695 58.352C559.695 61.104 559.279 63.696 558.447 66.128C557.615 68.56 556.399 70.704 554.799 72.56C553.199 74.352 551.215 75.824 548.847 76.976C546.479 78.064 543.727 78.64 540.591 78.704V86H527.055V78.704C523.919 78.64 521.167 78.064 518.799 76.976C516.431 75.824 514.447 74.352 512.847 72.56C511.247 70.704 510.031 68.56 509.199 66.128C508.367 63.696 507.951 61.104 507.951 58.352V45.2C507.951 42.448 508.367 39.856 509.199 37.424C510.031 34.992 511.247 32.88 512.847 31.088C514.447 29.232 516.431 27.76 518.799 26.672C521.167 25.52 523.919 24.912 527.055 24.848V18.8H540.591V24.848C543.727 24.912 546.479 25.52 548.847 26.672C551.215 27.76 553.199 29.232 554.799 31.088C556.399 32.88 557.615 34.992 558.447 37.424C559.279 39.856 559.695 42.448 559.695 45.2V58.352ZM546.351 43.28C546.351 40.976 545.807 39.152 544.719 37.808C543.631 36.464 542.255 35.792 540.591 35.792H540.303V67.76H541.071C542.543 67.632 543.791 66.928 544.815 65.648C545.839 64.304 546.351 62.512 546.351 60.272V43.28ZM521.295 60.272C521.295 62.576 521.839 64.4 522.927 65.744C524.015 67.088 525.391 67.76 527.055 67.76H527.343V35.792H527.055C525.391 35.792 524.015 36.464 522.927 37.808C521.839 39.152 521.295 40.976 521.295 43.28V60.272ZM601.561 48.176C601.561 50.992 601.081 53.584 600.121 55.952C599.161 58.256 597.817 60.272 596.089 62C594.425 63.664 592.409 64.976 590.041 65.936C587.673 66.896 585.113 67.376 582.361 67.376H580.441V86H566.617V18.8H582.361C585.113 18.8 587.673 19.28 590.041 20.24C592.409 21.2 594.425 22.544 596.089 24.272C597.817 25.936 599.161 27.952 600.121 30.32C601.081 32.688 601.561 35.248 601.561 38V48.176ZM587.737 38C587.737 36.336 587.257 34.96 586.297 33.872C585.337 32.784 584.025 32.24 582.361 32.24H580.441V53.936H582.361C584.025 53.936 585.337 53.392 586.297 52.304C587.257 51.216 587.737 49.84 587.737 48.176V38ZM604.594 86L615.058 18.8H633.298L643.762 86H629.842L628.594 74.96L618.898 74.672L617.554 86H604.594ZM620.434 62.384L627.154 62.192L624.37 37.136L624.466 31.76H623.506L623.602 37.136L620.434 62.384ZM685.191 1.04C685.191 3.344 684.807 5.456 684.039 7.37599C683.271 9.232 682.183 10.832 680.775 12.176C679.431 13.52 677.799 14.576 675.879 15.344C674.023 16.048 671.943 16.4 669.639 16.4C667.335 16.4 665.223 16.048 663.303 15.344C661.447 14.576 659.815 13.52 658.407 12.176C657.063 10.832 656.007 9.232 655.239 7.37599C654.471 5.456 654.087 3.344 654.087 1.04H665.799C665.799 2.31999 666.119 3.43999 666.759 4.4C667.399 5.296 668.359 5.744 669.639 5.744C670.919 5.744 671.879 5.296 672.519 4.4C673.159 3.43999 673.479 2.31999 673.479 1.04H685.191ZM674.439 18.8H690.759V86H676.743L677.703 46.256L678.375 40.88H677.511L677.319 43.76L666.375 86H650.055V18.8H664.071L663.111 58.544L662.439 63.92H663.303L663.495 61.04L674.439 18.8ZM738.021 18.8V72.56H744.069L741.189 98.288H730.437V86H708.357L707.013 98.288H696.261V72.56H698.373C699.461 72.24 700.293 71.408 700.869 70.064C701.509 68.656 701.989 66.8 702.309 64.496C702.693 62.192 702.949 59.44 703.077 56.24C703.205 53.04 703.333 49.456 703.461 45.488L704.133 18.8H738.021ZM716.517 45.488C716.389 51.312 716.133 56.464 715.749 60.944C715.365 65.424 714.629 69.296 713.541 72.56H724.197V32.24H716.805L716.517 45.488ZM749.523 86V18.8H776.019V32.24H763.347V45.008H774.483V58.448H763.347V72.56H777.267V86H749.523ZM820.284 1.04C820.284 3.344 819.9 5.456 819.132 7.37599C818.364 9.232 817.276 10.832 815.868 12.176C814.524 13.52 812.892 14.576 810.972 15.344C809.116 16.048 807.036 16.4 804.732 16.4C802.428 16.4 800.316 16.048 798.396 15.344C796.54 14.576 794.908 13.52 793.5 12.176C792.156 10.832 791.1 9.232 790.332 7.37599C789.564 5.456 789.18 3.344 789.18 1.04H800.892C800.892 2.31999 801.212 3.43999 801.852 4.4C802.492 5.296 803.452 5.744 804.732 5.744C806.012 5.744 806.972 5.296 807.612 4.4C808.252 3.43999 808.572 2.31999 808.572 1.04H820.284ZM809.532 18.8H825.852V86H811.836L812.796 46.256L813.468 40.88H812.604L812.412 43.76L801.468 86H785.148V18.8H799.164L798.204 58.544L797.532 63.92H798.396L798.588 61.04L809.532 18.8Z" fill="#FF671F"/>
<path d="M31.84 33.24H22.816V87H8.992V19.8H45.664V87H31.84V33.24ZM90.6235 49.176C90.6235 51.992 90.1435 54.584 89.1835 56.952C88.2235 59.256 86.8795 61.272 85.1515 63C83.4875 64.664 81.4715 65.976 79.1035 66.936C76.7355 67.896 74.1755 68.376 71.4235 68.376H69.5035V87H55.6795V19.8H71.4235C74.1755 19.8 76.7355 20.28 79.1035 21.24C81.4715 22.2 83.4875 23.544 85.1515 25.272C86.8795 26.936 88.2235 28.952 89.1835 31.32C90.1435 33.688 90.6235 36.248 90.6235 39V49.176ZM76.7995 39C76.7995 37.336 76.3195 35.96 75.3595 34.872C74.3995 33.784 73.0875 33.24 71.4235 33.24H69.5035V54.936H71.4235C73.0875 54.936 74.3995 54.392 75.3595 53.304C76.3195 52.216 76.7995 50.84 76.7995 49.176V39ZM97.3045 87V19.8H123.801V33.24H111.129V46.008H122.265V59.448H111.129V73.56H125.049V87H97.3045ZM145.026 70.104C145.026 71.576 145.41 72.856 146.178 73.944C146.946 74.968 148.098 75.48 149.634 75.48C151.17 75.48 152.322 74.968 153.09 73.944C153.858 72.856 154.242 71.576 154.242 70.104V63.192H168.066V70.104C168.066 72.728 167.586 75.192 166.626 77.496C165.73 79.8 164.45 81.816 162.786 83.544C161.186 85.208 159.266 86.52 157.026 87.48C154.786 88.44 152.322 88.92 149.634 88.92C146.946 88.92 144.45 88.44 142.146 87.48C139.906 86.52 137.954 85.208 136.29 83.544C134.69 81.816 133.442 79.8 132.546 77.496C131.65 75.192 131.202 72.728 131.202 70.104V36.696C131.202 34.072 131.65 31.608 132.546 29.304C133.442 27 134.69 25.016 136.29 23.352C137.954 21.624 139.906 20.28 142.146 19.32C144.45 18.36 146.946 17.88 149.634 17.88C152.322 17.88 154.786 18.36 157.026 19.32C159.266 20.28 161.186 21.624 162.786 23.352C164.45 25.016 165.73 27 166.626 29.304C167.586 31.608 168.066 34.072 168.066 36.696V43.992H154.242V36.696C154.242 35.224 153.858 33.976 153.09 32.952C152.322 31.864 151.17 31.32 149.634 31.32C148.098 31.32 146.946 31.864 146.178 32.952C145.41 33.976 145.026 35.224 145.026 36.696V70.104ZM175.586 87V19.8H202.082V33.24H189.41V46.008H200.546V59.448H189.41V73.56H203.33V87H175.586ZM246.347 2.04C246.347 4.344 245.963 6.456 245.195 8.37599C244.427 10.232 243.339 11.832 241.931 13.176C240.587 14.52 238.955 15.576 237.035 16.344C235.179 17.048 233.099 17.4 230.795 17.4C228.491 17.4 226.379 17.048 224.459 16.344C222.603 15.576 220.971 14.52 219.563 13.176C218.219 11.832 217.163 10.232 216.395 8.37599C215.627 6.456 215.243 4.344 215.243 2.04H226.955C226.955 3.31999 227.275 4.43999 227.915 5.4C228.555 6.296 229.515 6.744 230.795 6.744C232.075 6.744 233.035 6.296 233.675 5.4C234.315 4.43999 234.635 3.31999 234.635 2.04H246.347ZM235.595 19.8H251.915V87H237.899L238.859 47.256L239.531 41.88H238.667L238.475 44.76L227.531 87H211.211V19.8H225.227L224.267 59.544L223.595 64.92H224.459L224.651 62.04L235.595 19.8ZM297.642 19.8V87H283.818V33.24H278.058L277.77 46.488C277.642 52.44 277.386 57.944 277.002 63C276.682 68.056 275.978 72.44 274.89 76.152C273.802 79.864 272.234 82.776 270.186 84.888C268.138 86.936 265.354 87.96 261.834 87.96C260.554 87.96 259.146 87.768 257.61 87.384V72.984H258.57C259.914 72.984 260.97 72.376 261.738 71.16C262.506 69.88 263.082 68.088 263.466 65.784C263.85 63.416 264.106 60.568 264.234 57.24C264.426 53.848 264.586 50.008 264.714 45.72L265.386 19.8H297.642Z" fill="white"/>
<path d="M362.421 67.8C362.421 70.616 361.941 73.208 360.981 75.576C360.021 77.88 358.677 79.896 356.949 81.624C355.285 83.288 353.269 84.6 350.901 85.56C348.533 86.52 345.973 87 343.221 87H326.805V19.8H357.525V33.24H340.629V41.304H343.221C345.973 41.304 348.533 41.784 350.901 42.744C353.269 43.704 355.285 45.048 356.949 46.776C358.677 48.44 360.021 50.456 360.981 52.824C361.941 55.192 362.421 57.752 362.421 60.504V67.8ZM348.597 60.504C348.597 58.84 348.117 57.464 347.156 56.376C346.197 55.288 344.885 54.744 343.221 54.744H340.629V73.56H343.221C344.885 73.56 346.197 73.016 347.156 71.928C348.117 70.84 348.597 69.464 348.597 67.8V60.504ZM404.892 19.8V87H391.068V33.24H385.308L385.02 46.488C384.892 52.44 384.636 57.944 384.252 63C383.932 68.056 383.228 72.44 382.14 76.152C381.052 79.864 379.484 82.776 377.436 84.888C375.388 86.936 372.604 87.96 369.084 87.96C367.804 87.96 366.396 87.768 364.86 87.384V72.984H365.82C367.164 72.984 368.22 72.376 368.988 71.16C369.756 69.88 370.332 68.088 370.716 65.784C371.1 63.416 371.356 60.568 371.484 57.24C371.676 53.848 371.836 50.008 371.964 45.72L372.636 19.8H404.892ZM414.836 87V19.8H441.332V33.24H428.66V46.008H439.796V59.448H428.66V73.56H442.58V87H414.836ZM477.341 51L488.477 87H474.269L464.285 52.92V87H450.461V19.8H464.285V52.92L473.981 19.8H487.805L477.341 51ZM562.695 59.352C562.695 62.104 562.279 64.696 561.447 67.128C560.615 69.56 559.399 71.704 557.799 73.56C556.199 75.352 554.215 76.824 551.847 77.976C549.479 79.064 546.727 79.64 543.591 79.704V87H530.055V79.704C526.919 79.64 524.167 79.064 521.799 77.976C519.431 76.824 517.447 75.352 515.847 73.56C514.247 71.704 513.031 69.56 512.199 67.128C511.367 64.696 510.951 62.104 510.951 59.352V46.2C510.951 43.448 511.367 40.856 512.199 38.424C513.031 35.992 514.247 33.88 515.847 32.088C517.447 30.232 519.431 28.76 521.799 27.672C524.167 26.52 526.919 25.912 530.055 25.848V19.8H543.591V25.848C546.727 25.912 549.479 26.52 551.847 27.672C554.215 28.76 556.199 30.232 557.799 32.088C559.399 33.88 560.615 35.992 561.447 38.424C562.279 40.856 562.695 43.448 562.695 46.2V59.352ZM549.351 44.28C549.351 41.976 548.807 40.152 547.719 38.808C546.631 37.464 545.255 36.792 543.591 36.792H543.303V68.76H544.071C545.543 68.632 546.791 67.928 547.815 66.648C548.839 65.304 549.351 63.512 549.351 61.272V44.28ZM524.295 61.272C524.295 63.576 524.839 65.4 525.927 66.744C527.015 68.088 528.391 68.76 530.055 68.76H530.343V36.792H530.055C528.391 36.792 527.015 37.464 525.927 38.808C524.839 40.152 524.295 41.976 524.295 44.28V61.272ZM604.561 49.176C604.561 51.992 604.081 54.584 603.121 56.952C602.161 59.256 600.817 61.272 599.089 63C597.425 64.664 595.409 65.976 593.041 66.936C590.673 67.896 588.113 68.376 585.361 68.376H583.441V87H569.617V19.8H585.361C588.113 19.8 590.673 20.28 593.041 21.24C595.409 22.2 597.425 23.544 599.089 25.272C600.817 26.936 602.161 28.952 603.121 31.32C604.081 33.688 604.561 36.248 604.561 39V49.176ZM590.737 39C590.737 37.336 590.257 35.96 589.297 34.872C588.337 33.784 587.025 33.24 585.361 33.24H583.441V54.936H585.361C587.025 54.936 588.337 54.392 589.297 53.304C590.257 52.216 590.737 50.84 590.737 49.176V39ZM607.594 87L618.058 19.8H636.298L646.762 87H632.842L631.594 75.96L621.898 75.672L620.554 87H607.594ZM623.434 63.384L630.154 63.192L627.37 38.136L627.466 32.76H626.506L626.602 38.136L623.434 63.384ZM688.191 2.04C688.191 4.344 687.807 6.456 687.039 8.37599C686.271 10.232 685.183 11.832 683.775 13.176C682.431 14.52 680.799 15.576 678.879 16.344C677.023 17.048 674.943 17.4 672.639 17.4C670.335 17.4 668.223 17.048 666.303 16.344C664.447 15.576 662.815 14.52 661.407 13.176C660.063 11.832 659.007 10.232 658.239 8.37599C657.471 6.456 657.087 4.344 657.087 2.04H668.799C668.799 3.31999 669.119 4.43999 669.759 5.4C670.399 6.296 671.359 6.744 672.639 6.744C673.919 6.744 674.879 6.296 675.519 5.4C676.159 4.43999 676.479 3.31999 676.479 2.04H688.191ZM677.439 19.8H693.759V87H679.743L680.703 47.256L681.375 41.88H680.511L680.319 44.76L669.375 87H653.055V19.8H667.071L666.111 59.544L665.439 64.92H666.303L666.495 62.04L677.439 19.8ZM741.021 19.8V73.56H747.069L744.189 99.288H733.437V87H711.357L710.013 99.288H699.261V73.56H701.373C702.461 73.24 703.293 72.408 703.869 71.064C704.509 69.656 704.989 67.8 705.309 65.496C705.693 63.192 705.949 60.44 706.077 57.24C706.205 54.04 706.333 50.456 706.461 46.488L707.133 19.8H741.021ZM719.517 46.488C719.389 52.312 719.133 57.464 718.749 61.944C718.365 66.424 717.629 70.296 716.541 73.56H727.197V33.24H719.805L719.517 46.488ZM752.523 87V19.8H779.019V33.24H766.347V46.008H777.483V59.448H766.347V73.56H780.267V87H752.523ZM823.284 2.04C823.284 4.344 822.9 6.456 822.132 8.37599C821.364 10.232 820.276 11.832 818.868 13.176C817.524 14.52 815.892 15.576 813.972 16.344C812.116 17.048 810.036 17.4 807.732 17.4C805.428 17.4 803.316 17.048 801.396 16.344C799.54 15.576 797.908 14.52 796.5 13.176C795.156 11.832 794.1 10.232 793.332 8.37599C792.564 6.456 792.18 4.344 792.18 2.04H803.892C803.892 3.31999 804.212 4.43999 804.852 5.4C805.492 6.296 806.452 6.744 807.732 6.744C809.012 6.744 809.972 6.296 810.612 5.4C811.252 4.43999 811.572 3.31999 811.572 2.04H823.284ZM812.532 19.8H828.852V87H814.836L815.796 47.256L816.468 41.88H815.604L815.412 44.76L804.468 87H788.148V19.8H802.164L801.204 59.544L800.532 64.92H801.396L801.588 62.04L812.532 19.8Z" fill="black"/>
</svg>
