<svg width="456" height="228" viewBox="0 0 456 228" fill="none" xmlns="http://www.w3.org/2000/svg">
<path d="M56.1041 45.5917H43.4463V121H24.0556V26.7396H75.4948V121H56.1041V45.5917ZM138.559 67.9449C138.559 71.8948 137.886 75.5306 136.539 78.8521C135.192 82.0839 133.307 84.9117 130.883 87.3356C128.549 89.6696 125.721 91.51 122.4 92.8565C119.078 94.2031 115.487 94.8764 111.627 94.8764H108.934V121H89.5434V26.7396H111.627C115.487 26.7396 119.078 27.4129 122.4 28.7594C125.721 30.106 128.549 31.9912 130.883 34.4151C133.307 36.7491 135.192 39.577 136.539 42.8985C137.886 46.2201 138.559 49.8109 138.559 53.6711V67.9449ZM119.168 53.6711C119.168 51.3371 118.495 49.407 117.148 47.8808C115.802 46.3547 113.961 45.5917 111.627 45.5917H108.934V76.0243H111.627C113.961 76.0243 115.802 75.2613 117.148 73.7351C118.495 72.209 119.168 70.2789 119.168 67.9449V53.6711ZM147.93 121V26.7396H185.096V45.5917H167.321V63.5011H182.941V82.3532H167.321V102.148H186.846V121H147.93ZM214.868 97.3002C214.868 99.365 215.406 101.16 216.484 102.687C217.561 104.123 219.177 104.841 221.331 104.841C223.486 104.841 225.102 104.123 226.179 102.687C227.256 101.16 227.795 99.365 227.795 97.3002V87.6049H247.186V97.3002C247.186 100.981 246.512 104.437 245.166 107.669C243.909 110.901 242.113 113.728 239.779 116.152C237.535 118.486 234.842 120.327 231.7 121.673C228.558 123.02 225.102 123.693 221.331 123.693C217.561 123.693 214.06 123.02 210.828 121.673C207.686 120.327 204.948 118.486 202.614 116.152C200.37 113.728 198.619 110.901 197.362 107.669C196.105 104.437 195.477 100.981 195.477 97.3002V50.4393C195.477 46.7587 196.105 43.3025 197.362 40.0707C198.619 36.8389 200.37 34.056 202.614 31.7219C204.948 29.2981 207.686 27.4129 210.828 26.0663C214.06 24.7197 217.561 24.0464 221.331 24.0464C225.102 24.0464 228.558 24.7197 231.7 26.0663C234.842 27.4129 237.535 29.2981 239.779 31.7219C242.113 34.056 243.909 36.8389 245.166 40.0707C246.512 43.3025 247.186 46.7587 247.186 50.4393V60.6733H227.795V50.4393C227.795 48.3746 227.256 46.624 226.179 45.1877C225.102 43.6616 223.486 42.8985 221.331 42.8985C219.177 42.8985 217.561 43.6616 216.484 45.1877C215.406 46.624 214.868 48.3746 214.868 50.4393V97.3002ZM257.734 121V26.7396H294.9V45.5917H277.125V63.5011H292.745V82.3532H277.125V102.148H296.65V121H257.734ZM356.989 1.8279C356.989 5.05969 356.451 8.02216 355.374 10.7153C354.296 13.3187 352.77 15.563 350.795 17.4482C348.91 19.3334 346.621 20.8146 343.928 21.8919C341.324 22.8794 338.407 23.3731 335.175 23.3731C331.943 23.3731 328.981 22.8794 326.287 21.8919C323.684 20.8146 321.395 19.3334 319.42 17.4482C317.535 15.563 316.053 13.3187 314.976 10.7153C313.899 8.02216 313.36 5.05969 313.36 1.8279H329.789C329.789 3.62334 330.237 5.19434 331.135 6.54093C332.033 7.79773 333.379 8.42613 335.175 8.42613C336.97 8.42613 338.317 7.79773 339.215 6.54093C340.112 5.19434 340.561 3.62334 340.561 1.8279H356.989ZM341.908 26.7396H364.8V121H345.14L346.486 65.2517L347.429 57.7109H346.217L345.948 61.7506L330.597 121H307.705V26.7396H327.365L326.018 82.4879L325.076 90.0287H326.287L326.557 85.989L341.908 26.7396ZM428.94 26.7396V121H409.549V45.5917H401.47L401.066 64.1744C400.886 72.5232 400.527 80.2436 399.988 87.3356C399.54 94.4275 398.552 100.577 397.026 105.784C395.5 110.99 393.3 115.075 390.428 118.038C387.555 120.91 383.65 122.347 378.712 122.347C376.917 122.347 374.942 122.077 372.788 121.539V101.34H374.134C376.019 101.34 377.501 100.487 378.578 98.7815C379.655 96.986 380.463 94.4724 381.002 91.2406C381.54 87.9191 381.899 83.9242 382.079 79.2561C382.348 74.4982 382.573 69.1119 382.752 63.0972L383.695 26.7396H428.94Z" fill="#E25C1D"/>
<path d="M57.6344 47.1219H44.9765V122.53H25.5858V28.2698H77.0251V122.53H57.6344V47.1219ZM140.089 69.4751C140.089 73.425 139.416 77.0608 138.069 80.3823C136.723 83.6141 134.837 86.4419 132.414 88.8658C130.08 91.1998 127.252 93.0402 123.93 94.3867C120.609 95.7333 117.018 96.4066 113.158 96.4066H110.464V122.53H91.0737V28.2698H113.158C117.018 28.2698 120.609 28.9431 123.93 30.2897C127.252 31.6362 130.08 33.5215 132.414 35.9453C134.837 38.2794 136.723 41.1072 138.069 44.4287C139.416 47.7503 140.089 51.3412 140.089 55.2013V69.4751ZM120.698 55.2013C120.698 52.8673 120.025 50.9372 118.679 49.4111C117.332 47.8849 115.492 47.1219 113.158 47.1219H110.464V77.5545H113.158C115.492 77.5545 117.332 76.7915 118.679 75.2653C120.025 73.7392 120.698 71.8091 120.698 69.4751V55.2013ZM149.46 122.53V28.2698H186.626V47.1219H168.851V65.0314H184.471V83.8834H168.851V103.678H188.377V122.53H149.46ZM216.398 98.8305C216.398 100.895 216.937 102.691 218.014 104.217C219.091 105.653 220.707 106.371 222.862 106.371C225.016 106.371 226.632 105.653 227.709 104.217C228.786 102.691 229.325 100.895 229.325 98.8305V89.1351H248.716V98.8305C248.716 102.511 248.043 105.967 246.696 109.199C245.439 112.431 243.644 115.259 241.31 117.683C239.065 120.017 236.372 121.857 233.23 123.204C230.088 124.55 226.632 125.223 222.862 125.223C219.091 125.223 215.59 124.55 212.358 123.204C209.216 121.857 206.478 120.017 204.144 117.683C201.9 115.259 200.149 112.431 198.892 109.199C197.636 105.967 197.007 102.511 197.007 98.8305V51.9696C197.007 48.2889 197.636 44.8327 198.892 41.6009C200.149 38.3691 201.9 35.5862 204.144 33.2521C206.478 30.8283 209.216 28.9431 212.358 27.5965C215.59 26.2499 219.091 25.5766 222.862 25.5766C226.632 25.5766 230.088 26.2499 233.23 27.5965C236.372 28.9431 239.065 30.8283 241.31 33.2521C243.644 35.5862 245.439 38.3691 246.696 41.6009C248.043 44.8327 248.716 48.2889 248.716 51.9696V62.2035H229.325V51.9696C229.325 49.9048 228.786 48.1543 227.709 46.7179C226.632 45.1918 225.016 44.4287 222.862 44.4287C220.707 44.4287 219.091 45.1918 218.014 46.7179C216.937 48.1543 216.398 49.9048 216.398 51.9696V98.8305ZM259.264 122.53V28.2698H296.43V47.1219H278.655V65.0314H294.275V83.8834H278.655V103.678H298.18V122.53H259.264ZM358.52 3.35811C358.52 6.5899 357.981 9.55237 356.904 12.2455C355.827 14.8489 354.3 17.0932 352.325 18.9784C350.44 20.8636 348.151 22.3449 345.458 23.4221C342.855 24.4096 339.937 24.9034 336.705 24.9034C333.473 24.9034 330.511 24.4096 327.818 23.4221C325.214 22.3449 322.925 20.8636 320.95 18.9784C319.065 17.0932 317.584 14.8489 316.507 12.2455C315.429 9.55237 314.891 6.5899 314.891 3.35811H331.319C331.319 5.15355 331.768 6.72456 332.665 8.07114C333.563 9.32794 334.91 9.95635 336.705 9.95635C338.501 9.95635 339.847 9.32794 340.745 8.07114C341.643 6.72456 342.091 5.15355 342.091 3.35811H358.52ZM343.438 28.2698H366.33V122.53H346.67L348.016 66.7819L348.959 59.2411H347.747L347.478 63.2808L332.127 122.53H309.235V28.2698H328.895L327.548 84.0181L326.606 91.5589H327.818L328.087 87.5192L343.438 28.2698ZM430.47 28.2698V122.53H411.079V47.1219H403L402.596 65.7046C402.416 74.0534 402.057 81.7738 401.519 88.8658C401.07 95.9578 400.082 102.107 398.556 107.314C397.03 112.521 394.831 116.605 391.958 119.568C389.085 122.44 385.18 123.877 380.243 123.877C378.447 123.877 376.472 123.607 374.318 123.069V102.87H375.664C377.55 102.87 379.031 102.017 380.108 100.312C381.185 98.5163 381.993 96.0026 382.532 92.7709C383.071 89.4493 383.43 85.4544 383.609 80.7863C383.878 76.0284 384.103 70.6421 384.282 64.6274L385.225 28.2698H430.47Z" fill="#FF671F"/>
<path d="M59.1647 48.6521H46.5068V124.06H27.1161V29.8H78.5554V124.06H59.1647V48.6521ZM141.619 71.0053C141.619 74.9552 140.946 78.591 139.599 81.9125C138.253 85.1443 136.368 87.9721 133.944 90.396C131.61 92.73 128.782 94.5704 125.46 95.9169C122.139 97.2635 118.548 97.9368 114.688 97.9368H111.995V124.06H92.6039V29.8H114.688C118.548 29.8 122.139 30.4733 125.46 31.8199C128.782 33.1664 131.61 35.0516 133.944 37.4755C136.368 39.8096 138.253 42.6374 139.599 45.9589C140.946 49.2805 141.619 52.8714 141.619 56.7315V71.0053ZM122.229 56.7315C122.229 54.3975 121.555 52.4674 120.209 50.9413C118.862 49.4151 117.022 48.6521 114.688 48.6521H111.995V79.0847H114.688C117.022 79.0847 118.862 78.3217 120.209 76.7955C121.555 75.2694 122.229 73.3393 122.229 71.0053V56.7315ZM150.991 124.06V29.8H188.156V48.6521H170.381V66.5616H186.002V85.4136H170.381V105.208H189.907V124.06H150.991ZM217.928 100.361C217.928 102.425 218.467 104.221 219.544 105.747C220.621 107.183 222.237 107.901 224.392 107.901C226.546 107.901 228.162 107.183 229.239 105.747C230.317 104.221 230.855 102.425 230.855 100.361V90.6653H250.246V100.361C250.246 104.041 249.573 107.498 248.226 110.729C246.969 113.961 245.174 116.789 242.84 119.213C240.596 121.547 237.902 123.387 234.76 124.734C231.618 126.08 228.162 126.754 224.392 126.754C220.621 126.754 217.12 126.08 213.888 124.734C210.746 123.387 208.008 121.547 205.674 119.213C203.43 116.789 201.68 113.961 200.423 110.729C199.166 107.498 198.538 104.041 198.538 100.361V53.4998C198.538 49.8191 199.166 46.3629 200.423 43.1311C201.68 39.8993 203.43 37.1164 205.674 34.7823C208.008 32.3585 210.746 30.4733 213.888 29.1267C217.12 27.7801 220.621 27.1068 224.392 27.1068C228.162 27.1068 231.618 27.7801 234.76 29.1267C237.902 30.4733 240.596 32.3585 242.84 34.7823C245.174 37.1164 246.969 39.8993 248.226 43.1311C249.573 46.3629 250.246 49.8191 250.246 53.4998V63.7337H230.855V53.4998C230.855 51.435 230.317 49.6845 229.239 48.2481C228.162 46.722 226.546 45.9589 224.392 45.9589C222.237 45.9589 220.621 46.722 219.544 48.2481C218.467 49.6845 217.928 51.435 217.928 53.4998V100.361ZM260.795 124.06V29.8H297.96V48.6521H280.185V66.5616H295.806V85.4136H280.185V105.208H299.711V124.06H260.795ZM360.05 4.88831C360.05 8.1201 359.511 11.0826 358.434 13.7757C357.357 16.3791 355.831 18.6234 353.856 20.5086C351.971 22.3938 349.681 23.8751 346.988 24.9523C344.385 25.9398 341.467 26.4336 338.235 26.4336C335.004 26.4336 332.041 25.9398 329.348 24.9523C326.745 23.8751 324.455 22.3938 322.48 20.5086C320.595 18.6234 319.114 16.3791 318.037 13.7757C316.96 11.0826 316.421 8.1201 316.421 4.88831H332.849C332.849 6.68375 333.298 8.25475 334.196 9.60134C335.093 10.8581 336.44 11.4865 338.235 11.4865C340.031 11.4865 341.377 10.8581 342.275 9.60134C343.173 8.25475 343.622 6.68375 343.622 4.88831H360.05ZM344.968 29.8H367.86V124.06H348.2L349.547 68.3121L350.489 60.7713H349.277L349.008 64.811L333.657 124.06H310.765V29.8H330.425L329.079 85.5483L328.136 93.0891H329.348L329.617 89.0494L344.968 29.8ZM432 29.8V124.06H412.61V48.6521H404.53L404.126 67.2348C403.947 75.5836 403.588 83.304 403.049 90.396C402.6 97.488 401.613 103.637 400.086 108.844C398.56 114.051 396.361 118.135 393.488 121.098C390.616 123.971 386.71 125.407 381.773 125.407C379.978 125.407 378.003 125.138 375.848 124.599V104.4H377.195C379.08 104.4 380.561 103.548 381.638 101.842C382.716 100.046 383.524 97.5328 384.062 94.301C384.601 90.9795 384.96 86.9846 385.139 82.3165C385.409 77.5586 385.633 72.1723 385.813 66.1576L386.755 29.8H432Z" fill="white"/>
<path d="M37.613 189.765C37.613 192.234 37.1922 194.506 36.3506 196.582C35.509 198.602 34.3307 200.369 32.8158 201.884C31.357 203.343 29.5896 204.493 27.5137 205.335C25.4377 206.177 23.1934 206.597 20.7808 206.597H6.38924V147.685H33.3208V159.467H18.5084V166.537H20.7808C23.1934 166.537 25.4377 166.957 27.5137 167.799C29.5896 168.641 31.357 169.819 32.8158 171.334C34.3307 172.793 35.509 174.56 36.3506 176.636C37.1922 178.712 37.613 180.956 37.613 183.369V189.765ZM25.4938 183.369C25.4938 181.91 25.073 180.704 24.2314 179.75C23.3898 178.796 22.2396 178.319 20.7808 178.319H18.5084V194.815H20.7808C22.2396 194.815 23.3898 194.338 24.2314 193.384C25.073 192.43 25.4938 191.224 25.4938 189.765V183.369ZM74.8464 147.685V206.597H62.7272V159.467H57.6775L57.425 171.081C57.3128 176.299 57.0884 181.125 56.7518 185.557C56.4712 189.99 55.854 193.833 54.9002 197.087C53.9464 200.341 52.5718 202.894 50.7763 204.746C48.9809 206.541 46.5402 207.439 43.4543 207.439C42.3322 207.439 41.0978 207.271 39.7512 206.934V194.31H40.5928C41.7711 194.31 42.6969 193.777 43.3701 192.711C44.0434 191.589 44.5484 190.018 44.885 187.998C45.2217 185.922 45.4461 183.425 45.5583 180.507C45.7267 177.534 45.8669 174.167 45.9791 170.408L46.5683 147.685H74.8464ZM83.5643 206.597V147.685H106.793V159.467H95.6835V170.661H105.446V182.443H95.6835V194.815H107.887V206.597H83.5643ZM138.361 175.037L148.124 206.597H135.668L126.915 176.72V206.597H114.796V147.685H126.915V176.72L135.415 147.685H147.535L138.361 175.037ZM213.189 182.359C213.189 184.772 212.825 187.044 212.095 189.176C211.366 191.308 210.3 193.188 208.897 194.815C207.495 196.386 205.755 197.676 203.679 198.686C201.603 199.64 199.191 200.145 196.441 200.201V206.597H184.575V200.201C181.825 200.145 179.413 199.64 177.337 198.686C175.261 197.676 173.522 196.386 172.119 194.815C170.716 193.188 169.65 191.308 168.921 189.176C168.191 187.044 167.827 184.772 167.827 182.359V170.829C167.827 168.416 168.191 166.144 168.921 164.012C169.65 161.88 170.716 160.028 172.119 158.457C173.522 156.83 175.261 155.54 177.337 154.586C179.413 153.576 181.825 153.043 184.575 152.987V147.685H196.441V152.987C199.191 153.043 201.603 153.576 203.679 154.586C205.755 155.54 207.495 156.83 208.897 158.457C210.3 160.028 211.366 161.88 212.095 164.012C212.825 166.144 213.189 168.416 213.189 170.829V182.359ZM201.491 169.146C201.491 167.126 201.014 165.527 200.06 164.348C199.106 163.17 197.9 162.581 196.441 162.581H196.189V190.607H196.862C198.153 190.495 199.247 189.877 200.144 188.755C201.042 187.577 201.491 186.006 201.491 184.042V169.146ZM179.525 184.042C179.525 186.062 180.002 187.661 180.956 188.839C181.91 190.018 183.116 190.607 184.575 190.607H184.827V162.581H184.575C183.116 162.581 181.91 163.17 180.956 164.348C180.002 165.527 179.525 167.126 179.525 169.146V184.042ZM249.892 173.438C249.892 175.907 249.471 178.179 248.63 180.255C247.788 182.275 246.61 184.042 245.095 185.557C243.636 187.016 241.869 188.166 239.793 189.008C237.717 189.849 235.473 190.27 233.06 190.27H231.377V206.597H219.258V147.685H233.06C235.473 147.685 237.717 148.105 239.793 148.947C241.869 149.789 243.636 150.967 245.095 152.482C246.61 153.941 247.788 155.708 248.63 157.784C249.471 159.86 249.892 162.104 249.892 164.517V173.438ZM237.773 164.517C237.773 163.058 237.352 161.852 236.511 160.898C235.669 159.944 234.519 159.467 233.06 159.467H231.377V178.488H233.06C234.519 178.488 235.669 178.011 236.511 177.057C237.352 176.103 237.773 174.897 237.773 173.438V164.517ZM252.551 206.597L261.725 147.685H277.715L286.889 206.597H274.686L273.591 196.919L265.091 196.666L263.913 206.597H252.551ZM266.438 185.894L272.329 185.725L269.888 163.759L269.973 159.046H269.131L269.215 163.759L266.438 185.894ZM323.208 132.115C323.208 134.135 322.872 135.986 322.198 137.669C321.525 139.297 320.571 140.699 319.337 141.877C318.159 143.056 316.728 143.982 315.045 144.655C313.418 145.272 311.594 145.581 309.574 145.581C307.554 145.581 305.703 145.272 304.02 144.655C302.393 143.982 300.962 143.056 299.727 141.877C298.549 140.699 297.623 139.297 296.95 137.669C296.277 135.986 295.94 134.135 295.94 132.115H306.208C306.208 133.237 306.488 134.219 307.049 135.06C307.611 135.846 308.452 136.239 309.574 136.239C310.696 136.239 311.538 135.846 312.099 135.06C312.66 134.219 312.941 133.237 312.941 132.115H323.208ZM313.782 147.685H328.09V206.597H315.802L316.644 171.755L317.233 167.042H316.476L316.307 169.566L306.713 206.597H292.405V147.685H304.693L303.851 182.527L303.262 187.24H304.02L304.188 184.715L313.782 147.685ZM369.524 147.685V194.815H374.826L372.301 217.37H362.875V206.597H343.518L342.34 217.37H332.914V194.815H334.765C335.719 194.534 336.449 193.805 336.954 192.627C337.515 191.392 337.935 189.765 338.216 187.745C338.553 185.725 338.777 183.313 338.889 180.507C339.001 177.702 339.114 174.56 339.226 171.081L339.815 147.685H369.524ZM350.672 171.081C350.56 176.187 350.335 180.704 349.999 184.631C349.662 188.559 349.017 191.953 348.063 194.815H357.405V159.467H350.924L350.672 171.081ZM379.607 206.597V147.685H402.836V159.467H391.727V170.661H401.489V182.443H391.727V194.815H403.93V206.597H379.607ZM441.642 132.115C441.642 134.135 441.305 135.986 440.632 137.669C439.959 139.297 439.005 140.699 437.771 141.877C436.592 143.056 435.162 143.982 433.478 144.655C431.851 145.272 430.028 145.581 428.008 145.581C425.988 145.581 424.137 145.272 422.453 144.655C420.826 143.982 419.396 143.056 418.161 141.877C416.983 140.699 416.057 139.297 415.384 137.669C414.711 135.986 414.374 134.135 414.374 132.115H424.642C424.642 133.237 424.922 134.219 425.483 135.06C426.044 135.846 426.886 136.239 428.008 136.239C429.13 136.239 429.972 135.846 430.533 135.06C431.094 134.219 431.374 133.237 431.374 132.115H441.642ZM432.216 147.685H446.523V206.597H434.236L435.078 171.755L435.667 167.042H434.909L434.741 169.566L425.147 206.597H410.839V147.685H423.127L422.285 182.527L421.696 187.24H422.453L422.622 184.715L432.216 147.685Z" fill="#E25C1D"/>
<path d="M39.1433 191.295C39.1433 193.764 38.7225 196.036 37.8809 198.112C37.0392 200.132 35.861 201.9 34.3461 203.414C32.8873 204.873 31.1199 206.023 29.0439 206.865C26.968 207.707 24.7237 208.128 22.3111 208.128H7.91951V149.215H34.8511V160.997H20.0387V168.067H22.3111C24.7237 168.067 26.968 168.488 29.0439 169.329C31.1199 170.171 32.8873 171.349 34.3461 172.864C35.861 174.323 37.0392 176.09 37.8809 178.166C38.7225 180.242 39.1433 182.486 39.1433 184.899V191.295ZM27.0241 184.899C27.0241 183.44 26.6033 182.234 25.7617 181.28C24.9201 180.326 23.7699 179.849 22.3111 179.849H20.0387V196.345H22.3111C23.7699 196.345 24.9201 195.868 25.7617 194.914C26.6033 193.96 27.0241 192.754 27.0241 191.295V184.899ZM76.3767 149.215V208.128H64.2575V160.997H59.2078L58.9553 172.612C58.8431 177.83 58.6187 182.655 58.282 187.087C58.0015 191.52 57.3843 195.363 56.4305 198.617C55.4767 201.872 54.102 204.424 52.3066 206.276C50.5112 208.071 48.0705 208.969 44.9846 208.969C43.8624 208.969 42.6281 208.801 41.2815 208.464V195.84H42.1231C43.3014 195.84 44.2271 195.307 44.9004 194.241C45.5737 193.119 46.0787 191.548 46.4153 189.528C46.752 187.452 46.9764 184.955 47.0886 182.038C47.2569 179.064 47.3972 175.697 47.5094 171.938L48.0985 149.215H76.3767ZM85.0946 208.128V149.215H108.323V160.997H97.2138V172.191H106.976V183.973H97.2138V196.345H109.417V208.128H85.0946ZM139.891 176.567L149.654 208.128H137.198L128.445 178.25V208.128H116.326V149.215H128.445V178.25L136.946 149.215H149.065L139.891 176.567ZM214.72 183.889C214.72 186.302 214.355 188.574 213.626 190.706C212.896 192.838 211.83 194.718 210.428 196.345C209.025 197.916 207.285 199.206 205.21 200.216C203.134 201.17 200.721 201.675 197.972 201.731V208.128H186.105V201.731C183.356 201.675 180.943 201.17 178.867 200.216C176.791 199.206 175.052 197.916 173.649 196.345C172.246 194.718 171.18 192.838 170.451 190.706C169.722 188.574 169.357 186.302 169.357 183.889V172.359C169.357 169.946 169.722 167.674 170.451 165.542C171.18 163.41 172.246 161.558 173.649 159.987C175.052 158.36 176.791 157.07 178.867 156.116C180.943 155.106 183.356 154.573 186.105 154.517V149.215H197.972V154.517C200.721 154.573 203.134 155.106 205.21 156.116C207.285 157.07 209.025 158.36 210.428 159.987C211.83 161.558 212.896 163.41 213.626 165.542C214.355 167.674 214.72 169.946 214.72 172.359V183.889ZM203.021 170.676C203.021 168.656 202.544 167.057 201.591 165.879C200.637 164.7 199.43 164.111 197.972 164.111H197.719V192.137H198.392C199.683 192.025 200.777 191.408 201.675 190.285C202.572 189.107 203.021 187.536 203.021 185.572V170.676ZM181.055 185.572C181.055 187.592 181.532 189.191 182.486 190.37C183.44 191.548 184.646 192.137 186.105 192.137H186.357V164.111H186.105C184.646 164.111 183.44 164.7 182.486 165.879C181.532 167.057 181.055 168.656 181.055 170.676V185.572ZM251.423 174.968C251.423 177.437 251.002 179.709 250.16 181.785C249.318 183.805 248.14 185.572 246.625 187.087C245.167 188.546 243.399 189.696 241.323 190.538C239.247 191.379 237.003 191.8 234.59 191.8H232.907V208.128H220.788V149.215H234.59C237.003 149.215 239.247 149.636 241.323 150.477C243.399 151.319 245.167 152.497 246.625 154.012C248.14 155.471 249.318 157.238 250.16 159.314C251.002 161.39 251.423 163.634 251.423 166.047V174.968ZM239.303 166.047C239.303 164.588 238.883 163.382 238.041 162.428C237.199 161.474 236.049 160.997 234.59 160.997H232.907V180.018H234.59C236.049 180.018 237.199 179.541 238.041 178.587C238.883 177.633 239.303 176.427 239.303 174.968V166.047ZM254.081 208.128L263.255 149.215H279.246L288.419 208.128H276.216L275.122 198.449L266.621 198.196L265.443 208.128H254.081ZM267.968 187.424L273.859 187.256L271.419 165.29L271.503 160.576H270.661L270.745 165.29L267.968 187.424ZM324.739 133.645C324.739 135.665 324.402 137.516 323.729 139.2C323.055 140.827 322.102 142.229 320.867 143.408C319.689 144.586 318.258 145.512 316.575 146.185C314.948 146.802 313.124 147.111 311.105 147.111C309.085 147.111 307.233 146.802 305.55 146.185C303.923 145.512 302.492 144.586 301.258 143.408C300.079 142.229 299.154 140.827 298.48 139.2C297.807 137.516 297.47 135.665 297.47 133.645H307.738C307.738 134.767 308.019 135.749 308.58 136.591C309.141 137.376 309.982 137.769 311.105 137.769C312.227 137.769 313.068 137.376 313.629 136.591C314.19 135.749 314.471 134.767 314.471 133.645H324.739ZM315.313 149.215H329.62V208.128H317.332L318.174 173.285L318.763 168.572H318.006L317.837 171.097L308.243 208.128H293.936V149.215H306.223L305.382 184.057L304.792 188.77H305.55L305.718 186.246L315.313 149.215ZM371.054 149.215V196.345H376.356L373.832 218.9H364.405V208.128H345.048L343.87 218.9H334.444V196.345H336.296C337.249 196.064 337.979 195.335 338.484 194.157C339.045 192.922 339.466 191.295 339.746 189.275C340.083 187.256 340.307 184.843 340.42 182.038C340.532 179.232 340.644 176.09 340.756 172.612L341.345 149.215H371.054ZM352.202 172.612C352.09 177.717 351.865 182.234 351.529 186.161C351.192 190.089 350.547 193.483 349.593 196.345H358.935V160.997H352.455L352.202 172.612ZM381.138 208.128V149.215H404.366V160.997H393.257V172.191H403.02V183.973H393.257V196.345H405.46V208.128H381.138ZM443.172 133.645C443.172 135.665 442.836 137.516 442.162 139.2C441.489 140.827 440.535 142.229 439.301 143.408C438.123 144.586 436.692 145.512 435.009 146.185C433.382 146.802 431.558 147.111 429.538 147.111C427.518 147.111 425.667 146.802 423.984 146.185C422.357 145.512 420.926 144.586 419.691 143.408C418.513 142.229 417.587 140.827 416.914 139.2C416.241 137.516 415.904 135.665 415.904 133.645H426.172C426.172 134.767 426.452 135.749 427.013 136.591C427.575 137.376 428.416 137.769 429.538 137.769C430.66 137.769 431.502 137.376 432.063 136.591C432.624 135.749 432.905 134.767 432.905 133.645H443.172ZM433.746 149.215H448.054V208.128H435.766L436.608 173.285L437.197 168.572H436.439L436.271 171.097L426.677 208.128H412.369V149.215H424.657L423.815 184.057L423.226 188.77H423.984L424.152 186.246L433.746 149.215Z" fill="#FF671F"/>
<path d="M40.6735 192.825C40.6735 195.294 40.2527 197.567 39.4111 199.643C38.5695 201.662 37.3913 203.43 35.8764 204.945C34.4176 206.403 32.6502 207.554 30.5742 208.395C28.4982 209.237 26.2539 209.658 23.8413 209.658H9.44979V150.745H36.3813V162.528H21.569V169.597H23.8413C26.2539 169.597 28.4982 170.018 30.5742 170.859C32.6502 171.701 34.4176 172.879 35.8764 174.394C37.3913 175.853 38.5695 177.62 39.4111 179.696C40.2527 181.772 40.6735 184.017 40.6735 186.429V192.825ZM28.5544 186.429C28.5544 184.97 28.1335 183.764 27.2919 182.81C26.4503 181.857 25.3001 181.38 23.8413 181.38H21.569V197.875H23.8413C25.3001 197.875 26.4503 197.398 27.2919 196.444C28.1335 195.491 28.5544 194.284 28.5544 192.825V186.429ZM77.9069 150.745V209.658H65.7877V162.528H60.7381L60.4856 174.142C60.3734 179.36 60.1489 184.185 59.8123 188.617C59.5318 193.05 58.9146 196.893 57.9608 200.148C57.0069 203.402 55.6323 205.955 53.8369 207.806C52.0414 209.602 49.6008 210.499 46.5149 210.499C45.3927 210.499 44.1583 210.331 42.8118 209.994V197.37H43.6534C44.8316 197.37 45.7574 196.837 46.4307 195.771C47.104 194.649 47.6089 193.078 47.9456 191.058C48.2822 188.982 48.5067 186.485 48.6189 183.568C48.7872 180.594 48.9275 177.228 49.0397 173.468L49.6288 150.745H77.9069ZM86.6248 209.658V150.745H109.853V162.528H98.744V173.721H108.507V185.503H98.744V197.875H110.947V209.658H86.6248ZM141.422 178.097L151.184 209.658H138.728L129.976 179.781V209.658H117.856V150.745H129.976V179.781L138.476 150.745H150.595L141.422 178.097ZM216.25 185.419C216.25 187.832 215.885 190.104 215.156 192.236C214.427 194.368 213.36 196.248 211.958 197.875C210.555 199.446 208.816 200.737 206.74 201.747C204.664 202.7 202.251 203.205 199.502 203.261V209.658H187.635V203.261C184.886 203.205 182.473 202.7 180.397 201.747C178.321 200.737 176.582 199.446 175.179 197.875C173.777 196.248 172.711 194.368 171.981 192.236C171.252 190.104 170.887 187.832 170.887 185.419V173.889C170.887 171.477 171.252 169.204 171.981 167.072C172.711 164.94 173.777 163.089 175.179 161.518C176.582 159.89 178.321 158.6 180.397 157.646C182.473 156.636 184.886 156.103 187.635 156.047V150.745H199.502V156.047C202.251 156.103 204.664 156.636 206.74 157.646C208.816 158.6 210.555 159.89 211.958 161.518C213.36 163.089 214.427 164.94 215.156 167.072C215.885 169.204 216.25 171.477 216.25 173.889V185.419ZM204.552 172.206C204.552 170.186 204.075 168.587 203.121 167.409C202.167 166.231 200.961 165.641 199.502 165.641H199.249V193.667H199.923C201.213 193.555 202.307 192.938 203.205 191.816C204.103 190.637 204.552 189.066 204.552 187.103V172.206ZM182.586 187.103C182.586 189.122 183.062 190.721 184.016 191.9C184.97 193.078 186.176 193.667 187.635 193.667H187.888V165.641H187.635C186.176 165.641 184.97 166.231 184.016 167.409C183.062 168.587 182.586 170.186 182.586 172.206V187.103ZM252.953 176.498C252.953 178.967 252.532 181.239 251.69 183.315C250.849 185.335 249.671 187.103 248.156 188.617C246.697 190.076 244.929 191.226 242.853 192.068C240.777 192.91 238.533 193.33 236.121 193.33H234.437V209.658H222.318V150.745H236.121C238.533 150.745 240.777 151.166 242.853 152.007C244.929 152.849 246.697 154.027 248.156 155.542C249.671 157.001 250.849 158.768 251.69 160.844C252.532 162.92 252.953 165.165 252.953 167.577V176.498ZM240.834 167.577C240.834 166.118 240.413 164.912 239.571 163.958C238.73 163.004 237.579 162.528 236.121 162.528H234.437V181.548H236.121C237.579 181.548 238.73 181.071 239.571 180.117C240.413 179.163 240.834 177.957 240.834 176.498V167.577ZM255.612 209.658L264.785 150.745H280.776L289.949 209.658H277.746L276.652 199.979L268.152 199.727L266.973 209.658H255.612ZM269.498 188.954L275.39 188.786L272.949 166.82L273.033 162.107H272.191L272.276 166.82L269.498 188.954ZM326.269 135.175C326.269 137.195 325.932 139.047 325.259 140.73C324.586 142.357 323.632 143.76 322.398 144.938C321.219 146.116 319.789 147.042 318.105 147.715C316.478 148.332 314.655 148.641 312.635 148.641C310.615 148.641 308.763 148.332 307.08 147.715C305.453 147.042 304.022 146.116 302.788 144.938C301.61 143.76 300.684 142.357 300.011 140.73C299.337 139.047 299.001 137.195 299.001 135.175H309.268C309.268 136.297 309.549 137.279 310.11 138.121C310.671 138.906 311.513 139.299 312.635 139.299C313.757 139.299 314.599 138.906 315.16 138.121C315.721 137.279 316.001 136.297 316.001 135.175H326.269ZM316.843 150.745H331.15V209.658H318.863L319.704 174.815L320.293 170.102H319.536L319.368 172.627L309.773 209.658H295.466V150.745H307.753L306.912 185.588L306.323 190.301H307.08L307.249 187.776L316.843 150.745ZM372.584 150.745V197.875H377.887L375.362 220.43H365.936V209.658H346.579L345.4 220.43H335.974V197.875H337.826C338.78 197.595 339.509 196.865 340.014 195.687C340.575 194.453 340.996 192.825 341.277 190.806C341.613 188.786 341.838 186.373 341.95 183.568C342.062 180.762 342.174 177.62 342.286 174.142L342.876 150.745H372.584ZM353.732 174.142C353.62 179.248 353.396 183.764 353.059 187.692C352.722 191.619 352.077 195.014 351.123 197.875H360.465V162.528H353.985L353.732 174.142ZM382.668 209.658V150.745H405.896V162.528H394.787V173.721H404.55V185.503H394.787V197.875H406.991V209.658H382.668ZM444.703 135.175C444.703 137.195 444.366 139.047 443.693 140.73C443.019 142.357 442.066 143.76 440.831 144.938C439.653 146.116 438.222 147.042 436.539 147.715C434.912 148.332 433.088 148.641 431.069 148.641C429.049 148.641 427.197 148.332 425.514 147.715C423.887 147.042 422.456 146.116 421.222 144.938C420.043 143.76 419.118 142.357 418.444 140.73C417.771 139.047 417.434 137.195 417.434 135.175H427.702C427.702 136.297 427.983 137.279 428.544 138.121C429.105 138.906 429.946 139.299 431.069 139.299C432.191 139.299 433.032 138.906 433.593 138.121C434.154 137.279 434.435 136.297 434.435 135.175H444.703ZM435.277 150.745H449.584V209.658H437.296L438.138 174.815L438.727 170.102H437.97L437.801 172.627L428.207 209.658H413.9V150.745H426.187L425.346 185.588L424.756 190.301H425.514L425.682 187.776L435.277 150.745Z" fill="black"/>
</svg>
