<svg width="447" height="127" viewBox="0 0 447 127" fill="none" xmlns="http://www.w3.org/2000/svg">
<path d="M33.3197 10.2742L7.74925 16.2209L5.37061 30.4928C7.55103 41.9896 12.3876 65.3399 14.2905 66.7671C16.1935 68.1943 13.4977 92.3376 11.9119 104.231L19.6425 117.313C26.1838 118.503 39.6231 120.881 41.0503 120.881C42.4775 120.881 147.891 122.467 200.42 123.26C231.739 123.458 295.447 123.736 299.728 123.26C305.08 122.665 334.219 117.313 337.192 117.313C340.165 117.313 388.928 115.529 391.306 115.529H423.418L426.986 92.9323L429.959 72.1191L437.69 47.738L442.447 30.4928V15.6262L434.122 12.0582L393.09 7.30094L338.381 2.54364L256.913 10.2742L181.391 14.4369L168.308 12.0582L155.225 14.4369L52.3489 10.2742H33.3197Z" fill="#FF671F"/>
<path d="M176.256 13.4965C173.173 13.8391 163.821 14.0458 160.638 14.4276M176.256 13.4965C177.858 13.4965 179.299 14.6384 180.826 14.9778C182.473 15.3437 184.57 15.0202 186.244 15.0202C200.739 15.0202 215.447 13.1815 229.836 11.5497C240.122 10.3833 249.922 9.27211 260.224 8.88334C268.89 8.55632 277.608 8.02471 286.253 7.35972C298.933 6.38433 311.418 4.35479 324.174 4.35479C334.952 4.35479 345.731 4.29356 356.509 4.35479C372.621 4.44633 389.166 5.76694 405.18 7.57133C411.851 8.32293 418.423 8.25566 424.987 9.85677C429.023 10.8411 433.213 12.2919 437.346 12.7347C445.7 13.6299 443.159 24.1993 442.34 29.6639C439.806 46.5564 429.711 61.5619 428.077 78.7161C427.647 83.2311 426.772 87.4624 426.469 92.0055C426.216 95.7928 426.21 100.364 425.368 104.068C424.581 107.533 424.963 110.978 423.464 114.352C422.683 116.11 412.64 114.818 410.725 114.818C397.743 114.818 384.921 116.341 371.914 116.341C360.858 116.341 349.944 117.103 338.903 117.103C327.319 117.103 315.035 120.568 303.521 122.266C292.896 123.834 281.903 123.198 271.186 123.198C220.176 123.198 168.993 123.198 117.977 123.198C106.025 123.198 94.1959 122.436 82.2564 122.436C71.5661 122.436 61.1083 120.15 50.4296 120.15C41.2941 120.15 32.3293 118.157 23.2583 117.865C17.6392 117.684 13.0319 112.158 12.8468 106.607C12.2535 88.8083 15.532 69.5113 10.9 52.3067C7.60582 40.0713 -3.61776 20.126 13.2277 13.9198C17.9743 12.171 23.8921 12.9767 28.8449 11.8036C31.7015 11.1271 34.042 9.03329 37.0555 8.92567C47.6429 8.54755 57.6485 9.71624 68.1205 11.0418C87.5902 13.5063 107.234 13.4969 126.78 14.4276C138.012 14.9625 149.432 15.7724 160.638 14.4276M176.256 13.4965C174.858 13.4965 162.036 14.4276 160.638 14.4276M160.638 14.4276C159.293 14.4276 162.253 14.4276 160.638 14.4276Z" stroke="#183F0F" stroke-width="7.13595" stroke-linecap="round"/>
<path d="M48.4716 34.2782L48.5668 34.1831H56.8445V100.785H43.1434V51.2142C39.9719 52.6097 36.4832 53.3074 32.6774 53.3074V41.319C34.0094 41.319 35.4049 41.1287 36.8638 40.7481C38.3862 40.3676 39.8451 39.8601 41.2405 39.2258C42.636 38.5281 43.9363 37.7352 45.1415 36.8471C46.4101 35.9591 47.5202 35.0394 48.4716 34.0879V34.2782ZM66.7515 78.3308H80.4525V82.2318C80.4525 84.1347 80.8014 85.7204 81.4992 86.9891C82.2603 88.2577 83.3704 88.892 84.8293 88.892C86.2882 88.892 87.3665 88.2577 88.0642 86.9891C88.8254 85.7204 89.206 84.1347 89.206 82.2318V73.5735C87.2396 74.4615 85.2098 74.9055 83.1166 74.9055C80.7063 74.9055 78.4862 74.4298 76.4564 73.4783C74.4901 72.5269 72.7774 71.1948 71.3185 69.4822C69.9231 67.7696 68.813 65.6764 67.9884 63.2026C67.2273 60.7288 66.8467 57.9695 66.8467 54.9249H66.7515V52.7365C66.7515 49.6919 67.1955 46.9326 68.0836 44.4588C69.035 41.985 70.3036 39.8918 71.8894 38.1792C73.5386 36.4666 75.4415 35.1345 77.5982 34.1831C79.8182 33.2316 82.2286 32.7559 84.8293 32.7559C87.4299 32.7559 89.8086 33.2316 91.9652 34.1831C94.1853 35.1345 96.0882 36.4666 97.674 38.1792C99.3232 39.8918 100.592 41.985 101.48 44.4588C102.431 46.9326 102.907 49.6919 102.907 52.7365V82.2318C102.907 85.2764 102.431 88.0357 101.48 90.5095C100.592 92.9833 99.3232 95.0765 97.674 96.7891C96.0882 98.5017 94.1853 99.8338 91.9652 100.785C89.8086 101.737 87.4299 102.212 84.8293 102.212C82.2286 102.212 79.8182 101.737 77.5982 100.785C75.4415 99.8338 73.5386 98.5017 71.8894 96.7891C70.3036 95.0765 69.035 92.9833 68.0836 90.5095C67.1955 88.0357 66.7515 85.2764 66.7515 82.2318V78.3308ZM89.206 52.7365C89.206 50.8336 88.8254 49.2478 88.0642 47.9792C87.3665 46.7106 86.2882 46.0763 84.8293 46.0763C83.3704 46.0763 82.2603 46.7106 81.4992 47.9792C80.8014 49.2478 80.4525 50.8336 80.4525 52.7365V55.4006C80.4525 57.3035 80.8014 58.8893 81.4992 60.1579C82.2603 61.4265 83.3704 62.0608 84.8293 62.0608C86.2882 62.0608 87.3665 61.4265 88.0642 60.1579C88.8254 58.8893 89.206 57.3035 89.206 55.4006V52.7365ZM112.962 84.8958H126.187V100.785H112.962V84.8958ZM148.449 34.2782L148.544 34.1831H156.822V100.785H143.121V51.2142C139.949 52.6097 136.461 53.3074 132.655 53.3074V41.319C133.987 41.319 135.382 41.1287 136.841 40.7481C138.364 40.3676 139.823 39.8601 141.218 39.2258C142.614 38.5281 143.914 37.7352 145.119 36.8471C146.388 35.9591 147.498 35.0394 148.449 34.0879V34.2782ZM179.669 34.2782L179.764 34.1831H188.042V100.785H174.341V51.2142C171.169 52.6097 167.681 53.3074 163.875 53.3074V41.319C165.207 41.319 166.602 41.1287 168.061 40.7481C169.583 40.3676 171.042 39.8601 172.438 39.2258C173.833 38.5281 175.134 37.7352 176.339 36.8471C177.607 35.9591 178.717 35.0394 179.669 34.0879V34.2782ZM216.331 100.785V91.1755C216.331 87.7502 216.997 84.5153 218.329 81.4706C219.661 78.4259 221.754 75.6667 224.608 73.1929L234.028 64.9152C235.487 63.6466 236.628 62.3145 237.453 60.9191C238.341 59.5236 238.785 58.0647 238.785 56.5424V52.7365C238.785 50.7067 238.404 49.0893 237.643 47.8841C236.946 46.6789 235.867 46.0763 234.408 46.0763C232.949 46.0763 231.839 46.6789 231.078 47.8841C230.38 49.0893 230.032 50.7067 230.032 52.7365V56.6375H216.331V52.7365C216.331 49.6919 216.775 46.9326 217.663 44.4588C218.614 41.985 219.883 39.8918 221.468 38.1792C223.118 36.4666 225.021 35.1345 227.177 34.1831C229.397 33.2316 231.808 32.7559 234.408 32.7559C237.009 32.7559 239.388 33.2316 241.544 34.1831C243.764 35.1345 245.667 36.4666 247.253 38.1792C248.902 39.8918 250.171 41.985 251.059 44.4588C252.01 46.9326 252.486 49.6919 252.486 52.7365V53.8783C252.486 57.3035 251.82 60.5385 250.488 63.5832C249.156 66.6278 247.063 69.3871 244.208 71.8609L234.789 80.1386C233.52 81.2169 232.474 82.3903 231.649 83.6589C230.824 84.8641 230.317 86.1327 230.127 87.4648H250.964V100.785H216.331ZM296.097 82.2318C296.097 85.2764 295.621 88.0357 294.67 90.5095C293.782 92.9833 292.513 95.0765 290.864 96.7891C289.278 98.5017 287.375 99.8338 285.155 100.785C282.999 101.737 280.62 102.212 278.019 102.212C275.419 102.212 273.008 101.737 270.788 100.785C268.632 99.8338 266.729 98.5017 265.08 96.7891C263.494 95.0765 262.225 92.9833 261.274 90.5095C260.386 88.0357 259.942 85.2764 259.942 82.2318V52.7365C259.942 49.6919 260.386 46.9326 261.274 44.4588C262.225 41.985 263.494 39.8918 265.08 38.1792C266.729 36.4666 268.632 35.1345 270.788 34.1831C273.008 33.2316 275.419 32.7559 278.019 32.7559C280.62 32.7559 282.999 33.2316 285.155 34.1831C287.375 35.1345 289.278 36.4666 290.864 38.1792C292.513 39.8918 293.782 41.985 294.67 44.4588C295.621 46.9326 296.097 49.6919 296.097 52.7365V82.2318ZM273.643 82.2318C273.643 84.1347 273.992 85.7204 274.689 86.9891C275.45 88.2577 276.56 88.892 278.019 88.892C279.478 88.892 280.557 88.2577 281.254 86.9891C282.015 85.7204 282.396 84.1347 282.396 82.2318V52.7365C282.396 50.8336 282.015 49.2478 281.254 47.9792C280.557 46.7106 279.478 46.0763 278.019 46.0763C276.56 46.0763 275.45 46.7106 274.689 47.9792C273.992 49.2478 273.643 50.8336 273.643 52.7365V82.2318ZM306.227 84.8958H319.452V100.785H306.227V84.8958ZM306.227 53.3074H319.452V69.1968H306.227V53.3074ZM365.691 82.2318C365.691 85.2764 365.215 88.0357 364.264 90.5095C363.376 92.9833 362.107 95.0765 360.458 96.7891C358.872 98.5017 356.969 99.8338 354.749 100.785C352.593 101.737 350.214 102.212 347.613 102.212C345.013 102.212 342.602 101.737 340.382 100.785C338.226 99.8338 336.323 98.5017 334.674 96.7891C333.088 95.0765 331.819 92.9833 330.868 90.5095C329.98 88.0357 329.536 85.2764 329.536 82.2318V52.7365C329.536 49.6919 329.98 46.9326 330.868 44.4588C331.819 41.985 333.088 39.8918 334.674 38.1792C336.323 36.4666 338.226 35.1345 340.382 34.1831C342.602 33.2316 345.013 32.7559 347.613 32.7559C350.214 32.7559 352.593 33.2316 354.749 34.1831C356.969 35.1345 358.872 36.4666 360.458 38.1792C362.107 39.8918 363.376 41.985 364.264 44.4588C365.215 46.9326 365.691 49.6919 365.691 52.7365V82.2318ZM343.237 82.2318C343.237 84.1347 343.586 85.7204 344.283 86.9891C345.044 88.2577 346.155 88.892 347.613 88.892C349.072 88.892 350.151 88.2577 350.848 86.9891C351.61 85.7204 351.99 84.1347 351.99 82.2318V52.7365C351.99 50.8336 351.61 49.2478 350.848 47.9792C350.151 46.7106 349.072 46.0763 347.613 46.0763C346.155 46.0763 345.044 46.7106 344.283 47.9792C343.586 49.2478 343.237 50.8336 343.237 52.7365V82.2318ZM411.406 82.2318C411.406 85.2764 410.93 88.0357 409.979 90.5095C409.091 92.9833 407.822 95.0765 406.173 96.7891C404.587 98.5017 402.684 99.8338 400.464 100.785C398.307 101.737 395.929 102.212 393.328 102.212C390.727 102.212 388.317 101.737 386.097 100.785C383.94 99.8338 382.037 98.5017 380.388 96.7891C378.802 95.0765 377.534 92.9833 376.582 90.5095C375.694 88.0357 375.25 85.2764 375.25 82.2318V52.7365C375.25 49.6919 375.694 46.9326 376.582 44.4588C377.534 41.985 378.802 39.8918 380.388 38.1792C382.037 36.4666 383.94 35.1345 386.097 34.1831C388.317 33.2316 390.727 32.7559 393.328 32.7559C395.929 32.7559 398.307 33.2316 400.464 34.1831C402.684 35.1345 404.587 36.4666 406.173 38.1792C407.822 39.8918 409.091 41.985 409.979 44.4588C410.93 46.9326 411.406 49.6919 411.406 52.7365V82.2318ZM388.951 82.2318C388.951 84.1347 389.3 85.7204 389.998 86.9891C390.759 88.2577 391.869 88.892 393.328 88.892C394.787 88.892 395.865 88.2577 396.563 86.9891C397.324 85.7204 397.705 84.1347 397.705 82.2318V52.7365C397.705 50.8336 397.324 49.2478 396.563 47.9792C395.865 46.7106 394.787 46.0763 393.328 46.0763C391.869 46.0763 390.759 46.7106 389.998 47.9792C389.3 49.2478 388.951 50.8336 388.951 52.7365V82.2318Z" fill="white"/>
</svg>
