<svg width="406" height="138" viewBox="0 0 406 138" fill="none" xmlns="http://www.w3.org/2000/svg">
<path d="M20.5245 45.736C20.5245 46.7173 20.7805 47.5707 21.2925 48.296C21.8045 48.9787 22.5725 49.32 23.5965 49.32C24.6205 49.32 25.3885 48.9787 25.9005 48.296C26.4125 47.5707 26.6685 46.7173 26.6685 45.736V41.128H35.8845V45.736C35.8845 47.4853 35.5645 49.128 34.9245 50.664C34.3272 52.2 33.4738 53.544 32.3645 54.696C31.2978 55.8053 30.0178 56.68 28.5245 57.32C27.0312 57.96 25.3885 58.28 23.5965 58.28C21.8045 58.28 20.1405 57.96 18.6045 57.32C17.1112 56.68 15.8098 55.8053 14.7005 54.696C13.6338 53.544 12.8018 52.2 12.2045 50.664C11.6072 49.128 11.3085 47.4853 11.3085 45.736V23.464C11.3085 21.7147 11.6072 20.072 12.2045 18.536C12.8018 17 13.6338 15.6773 14.7005 14.568C15.8098 13.416 17.1112 12.52 18.6045 11.88C20.1405 11.24 21.8045 10.92 23.5965 10.92C25.3885 10.92 27.0312 11.24 28.5245 11.88C30.0178 12.52 31.2978 13.416 32.3645 14.568C33.4738 15.6773 34.3272 17 34.9245 18.536C35.5645 20.072 35.8845 21.7147 35.8845 23.464V28.328H26.6685V23.464C26.6685 22.4827 26.4125 21.6507 25.9005 20.968C25.3885 20.2427 24.6205 19.88 23.5965 19.88C22.5725 19.88 21.8045 20.2427 21.2925 20.968C20.7805 21.6507 20.5245 22.4827 20.5245 23.464V45.736ZM60.098 33L67.522 57H58.05L51.394 34.28V57H42.178V12.2H51.394V34.28L57.858 12.2H67.074L60.098 33ZM70.5885 57L77.5645 12.2H89.7245L96.7005 57H87.4205L86.5885 49.64L80.1245 49.448L79.2285 57H70.5885ZM81.1485 41.256L85.6285 41.128L83.7725 24.424L83.8365 20.84H83.1965L83.2605 24.424L81.1485 41.256ZM117.792 38.696H111.392V57H102.176V12.2H111.392V29.736H117.792V12.2H127.008V57H117.792V38.696ZM134.7 49.256H135.788C137.196 49.256 138.326 49 139.18 48.488L132.396 12.2H141.804L144.684 34.152L144.62 37.736H145.26L145.196 34.152L147.308 12.2H156.076L152.3 37.288H152.364C151.894 40.744 151.297 43.7733 150.572 46.376C149.846 48.936 148.908 51.0907 147.756 52.84C146.604 54.5893 145.217 55.912 143.596 56.808C141.974 57.6613 140.054 58.088 137.836 58.088C137.366 58.088 136.854 58.0453 136.3 57.96C135.745 57.9173 135.212 57.832 134.7 57.704V49.256ZM184.722 0.359997C184.722 1.896 184.466 3.304 183.954 4.584C183.442 5.82133 182.717 6.888 181.778 7.784C180.882 8.68 179.794 9.384 178.514 9.896C177.277 10.3653 175.89 10.6 174.354 10.6C172.818 10.6 171.41 10.3653 170.13 9.896C168.893 9.384 167.805 8.68 166.866 7.784C165.97 6.888 165.266 5.82133 164.754 4.584C164.242 3.304 163.986 1.896 163.986 0.359997H171.794C171.794 1.21333 172.007 1.96 172.434 2.6C172.861 3.19733 173.501 3.496 174.354 3.496C175.207 3.496 175.847 3.19733 176.274 2.6C176.701 1.96 176.914 1.21333 176.914 0.359997H184.722ZM177.554 12.2H188.434V57H179.09L179.73 30.504L180.178 26.92H179.602L179.474 28.84L172.178 57H161.298V12.2H170.642L170.002 38.696L169.554 42.28H170.13L170.258 40.36L177.554 12.2ZM234.931 45.48C234.931 48.3387 234.206 50.8133 232.755 52.904C233.096 53.672 233.95 54.056 235.315 54.056V62.248C233.267 62.248 231.454 61.8427 229.875 61.032C228.296 60.2213 227.016 59.112 226.035 57.704C224.798 58.088 223.496 58.28 222.131 58.28C220.254 58.28 218.526 57.96 216.947 57.32C215.411 56.68 214.067 55.8053 212.915 54.696C211.806 53.544 210.931 52.2 210.291 50.664C209.651 49.0853 209.331 47.3573 209.331 45.48V23.72C209.331 21.8853 209.651 20.1787 210.291 18.6C210.931 17.0213 211.806 15.6773 212.915 14.568C214.067 13.416 215.411 12.52 216.947 11.88C218.526 11.24 220.254 10.92 222.131 10.92C223.966 10.92 225.672 11.24 227.251 11.88C228.83 12.52 230.174 13.416 231.283 14.568C232.435 15.6773 233.331 17.0213 233.971 18.6C234.611 20.1787 234.931 21.8853 234.931 23.72V45.48ZM218.547 45.48C218.547 46.5893 218.867 47.5067 219.507 48.232C220.147 48.9573 221.022 49.32 222.131 49.32C223.24 49.32 224.115 48.9573 224.755 48.232C225.395 47.5067 225.715 46.5893 225.715 45.48V23.72C225.715 22.6107 225.395 21.6933 224.755 20.968C224.115 20.2427 223.24 19.88 222.131 19.88C221.022 19.88 220.147 20.2427 219.507 20.968C218.867 21.6933 218.547 22.6107 218.547 23.72V45.48ZM252.96 39.848H251.104V57H241.888V12.2H252.768C254.56 12.2 256.203 12.52 257.696 13.16C259.189 13.7573 260.469 14.6107 261.536 15.72C262.645 16.7867 263.499 18.0667 264.096 19.56C264.736 21.0533 265.056 22.696 265.056 24.488V26.28C265.056 28.2427 264.693 30.0347 263.968 31.656C263.243 33.2347 262.261 34.5787 261.024 35.688L267.232 57H257.504L252.96 39.848ZM255.84 24.488C255.84 22.2693 254.816 21.16 252.768 21.16H251.104V31.208H252.768C254.816 31.208 255.84 30.0987 255.84 27.88V24.488ZM275.49 39.976V30.376H292.642V39.976H275.49ZM321.555 33L328.979 57H319.507L312.851 34.28V57H303.635V12.2H312.851V34.28L319.315 12.2H328.531L321.555 33ZM358.926 45.48C358.926 47.3573 358.606 49.0853 357.966 50.664C357.326 52.2 356.43 53.544 355.278 54.696C354.169 55.8053 352.825 56.68 351.246 57.32C349.667 57.96 347.961 58.28 346.126 58.28C344.249 58.28 342.521 57.96 340.942 57.32C339.406 56.68 338.062 55.8053 336.91 54.696C335.801 53.544 334.926 52.2 334.286 50.664C333.646 49.0853 333.326 47.3573 333.326 45.48V23.72C333.326 21.8853 333.646 20.1787 334.286 18.6C334.926 17.0213 335.801 15.6773 336.91 14.568C338.062 13.416 339.406 12.52 340.942 11.88C342.521 11.24 344.249 10.92 346.126 10.92C347.961 10.92 349.667 11.24 351.246 11.88C352.825 12.52 354.169 13.416 355.278 14.568C356.43 15.6773 357.326 17.0213 357.966 18.6C358.606 20.1787 358.926 21.8853 358.926 23.72V45.48ZM342.542 45.48C342.542 46.5893 342.862 47.5067 343.502 48.232C344.142 48.9573 345.017 49.32 346.126 49.32C347.235 49.32 348.11 48.9573 348.75 48.232C349.39 47.5067 349.71 46.5893 349.71 45.48V23.72C349.71 22.6107 349.39 21.6933 348.75 20.968C348.11 20.2427 347.235 19.88 346.126 19.88C345.017 19.88 344.142 20.2427 343.502 20.968C342.862 21.6933 342.542 22.6107 342.542 23.72V45.48ZM390.527 12.2V48.04H394.559L392.639 65.192H385.471V57H370.751L369.855 65.192H362.687V48.04H364.095C364.821 47.8267 365.375 47.272 365.759 46.376C366.186 45.4373 366.506 44.2 366.719 42.664C366.975 41.128 367.146 39.2933 367.231 37.16C367.317 35.0267 367.402 32.6373 367.487 29.992L367.935 12.2H390.527ZM376.191 29.992C376.106 33.8747 375.935 37.3093 375.679 40.296C375.423 43.2827 374.933 45.864 374.207 48.04H381.311V21.16H376.383L376.191 29.992ZM0.586743 84.2H9.80274V129H0.586743V84.2ZM49.7542 105L57.1782 129H47.7062L41.0502 106.28V129H31.8342V84.2H41.0502V106.28L47.5142 84.2H56.7302L49.7542 105ZM60.2447 129L67.2207 84.2H79.3807L86.3567 129H77.0767L76.2447 121.64L69.7807 121.448L68.8847 129H60.2447ZM70.8047 113.256L75.2847 113.128L73.4287 96.424L73.4927 92.84H72.8527L72.9167 96.424L70.8047 113.256ZM89.3047 84.136H98.5207V101.928C98.5207 103.293 98.6914 104.296 99.0327 104.936C99.4167 105.576 100.057 105.896 100.953 105.896C101.166 105.896 101.507 105.875 101.977 105.832C102.446 105.789 102.809 105.725 103.065 105.64V84.136H112.281V129H103.065V113.32C102.553 113.533 101.87 113.704 101.017 113.832C100.206 113.917 99.5021 113.96 98.9047 113.96C97.4541 113.96 96.1314 113.683 94.9367 113.128C93.7847 112.573 92.7821 111.805 91.9287 110.824C91.1181 109.843 90.4781 108.669 90.0087 107.304C89.5394 105.896 89.3047 104.36 89.3047 102.696V84.136ZM117.805 129L124.781 84.2H136.941L143.917 129H134.637L133.805 121.64L127.341 121.448L126.445 129H117.805ZM128.365 113.256L132.845 113.128L130.989 96.424L131.053 92.84H130.413L130.477 96.424L128.365 113.256ZM172.816 72.36C172.816 73.896 172.56 75.304 172.048 76.584C171.536 77.8213 170.81 78.888 169.872 79.784C168.976 80.68 167.888 81.384 166.608 81.896C165.37 82.3653 163.984 82.6 162.448 82.6C160.912 82.6 159.504 82.3653 158.224 81.896C156.986 81.384 155.898 80.68 154.96 79.784C154.064 78.888 153.36 77.8213 152.848 76.584C152.336 75.304 152.08 73.896 152.08 72.36H159.888C159.888 73.2133 160.101 73.96 160.528 74.6C160.954 75.1973 161.594 75.496 162.448 75.496C163.301 75.496 163.941 75.1973 164.368 74.6C164.794 73.96 165.008 73.2133 165.008 72.36H172.816ZM165.648 84.2H176.528V129H167.184L167.824 102.504L168.272 98.92H167.696L167.568 100.84L160.272 129H149.392V84.2H158.736L158.096 110.696L157.648 114.28H158.224L158.352 112.36L165.648 84.2ZM223.409 84.2V120.04H227.441L225.521 137.192H218.353V129H203.633L202.737 137.192H195.569V120.04H196.977C197.702 119.827 198.257 119.272 198.641 118.376C199.067 117.437 199.387 116.2 199.601 114.664C199.857 113.128 200.027 111.293 200.113 109.16C200.198 107.027 200.283 104.637 200.369 101.992L200.817 84.2H223.409ZM209.073 101.992C208.987 105.875 208.817 109.309 208.561 112.296C208.305 115.283 207.814 117.864 207.089 120.04H214.193V93.16H209.265L209.073 101.992ZM256.805 117.48C256.805 119.357 256.485 121.085 255.845 122.664C255.205 124.2 254.309 125.544 253.157 126.696C252.047 127.805 250.703 128.68 249.125 129.32C247.546 129.96 245.839 130.28 244.005 130.28C242.127 130.28 240.399 129.96 238.821 129.32C237.285 128.68 235.941 127.805 234.789 126.696C233.679 125.544 232.805 124.2 232.165 122.664C231.525 121.085 231.205 119.357 231.205 117.48V95.72C231.205 93.8853 231.525 92.1787 232.165 90.6C232.805 89.0213 233.679 87.6773 234.789 86.568C235.941 85.416 237.285 84.52 238.821 83.88C240.399 83.24 242.127 82.92 244.005 82.92C245.839 82.92 247.546 83.24 249.125 83.88C250.703 84.52 252.047 85.416 253.157 86.568C254.309 87.6773 255.205 89.0213 255.845 90.6C256.485 92.1787 256.805 93.8853 256.805 95.72V117.48ZM240.421 117.48C240.421 118.589 240.741 119.507 241.381 120.232C242.021 120.957 242.895 121.32 244.005 121.32C245.114 121.32 245.989 120.957 246.629 120.232C247.269 119.507 247.589 118.589 247.589 117.48V95.72C247.589 94.6107 247.269 93.6933 246.629 92.968C245.989 92.2427 245.114 91.88 244.005 91.88C242.895 91.88 242.021 92.2427 241.381 92.968C240.741 93.6933 240.421 94.6107 240.421 95.72V117.48ZM288.406 84.2V120.04H292.438L290.518 137.192H283.35V129H268.63L267.734 137.192H260.566V120.04H261.974C262.7 119.827 263.254 119.272 263.638 118.376C264.065 117.437 264.385 116.2 264.598 114.664C264.854 113.128 265.025 111.293 265.11 109.16C265.196 107.027 265.281 104.637 265.366 101.992L265.814 84.2H288.406ZM274.07 101.992C273.985 105.875 273.814 109.309 273.558 112.296C273.302 115.283 272.812 117.864 272.086 120.04H279.19V93.16H274.262L274.07 101.992ZM294.922 129L301.898 84.2H314.058L321.034 129H311.754L310.922 121.64L304.458 121.448L303.562 129H294.922ZM305.482 113.256L309.962 113.128L308.106 96.424L308.17 92.84H307.53L307.594 96.424L305.482 113.256ZM337.931 93.16V129H328.715V93.16H322.315V84.2H328.715H344.267V93.16H337.931ZM373.737 117.48C373.737 119.357 373.417 121.085 372.777 122.664C372.137 124.2 371.241 125.544 370.089 126.696C368.98 127.805 367.636 128.68 366.057 129.32C364.479 129.96 362.772 130.28 360.937 130.28C359.06 130.28 357.332 129.96 355.753 129.32C354.217 128.68 352.873 127.805 351.721 126.696C350.612 125.544 349.737 124.2 349.097 122.664C348.457 121.085 348.137 119.357 348.137 117.48V95.72C348.137 93.8853 348.457 92.1787 349.097 90.6C349.737 89.0213 350.612 87.6773 351.721 86.568C352.873 85.416 354.217 84.52 355.753 83.88C357.332 83.24 359.06 82.92 360.937 82.92C362.772 82.92 364.479 83.24 366.057 83.88C367.636 84.52 368.98 85.416 370.089 86.568C371.241 87.6773 372.137 89.0213 372.777 90.6C373.417 92.1787 373.737 93.8853 373.737 95.72V117.48ZM357.353 117.48C357.353 118.589 357.673 119.507 358.313 120.232C358.953 120.957 359.828 121.32 360.937 121.32C362.047 121.32 362.921 120.957 363.561 120.232C364.201 119.507 364.521 118.589 364.521 117.48V95.72C364.521 94.6107 364.201 93.6933 363.561 92.968C362.921 92.2427 362.047 91.88 360.937 91.88C359.828 91.88 358.953 92.2427 358.313 92.968C357.673 93.6933 357.353 94.6107 357.353 95.72V117.48ZM398.427 105L405.851 129H396.379L389.723 106.28V129H380.507V84.2H389.723V106.28L396.187 84.2H405.403L398.427 105Z" fill="white"/>
</svg>
