<svg width="180" height="45" viewBox="0 0 180 45" fill="none" xmlns="http://www.w3.org/2000/svg">
<path d="M28.8433 23.9927C28.7963 18.5061 33.1328 15.8373 33.3315 15.7125C30.8751 11.9619 27.068 11.4495 25.7313 11.4097C22.5345 11.0579 19.4333 13.4126 17.8042 13.4126C16.1425 13.4126 13.6337 11.4437 10.9317 11.5005C7.45306 11.5571 4.19847 13.6661 2.41402 16.9399C-1.26875 23.6184 1.47838 33.4306 5.00768 38.8286C6.77224 41.4725 8.83672 44.423 11.535 44.319C14.1775 44.2055 15.1635 42.5563 18.3513 42.5563C21.5104 42.5563 22.437 44.319 25.1896 44.2528C28.0251 44.2055 29.8095 41.5974 31.5128 38.9306C33.5519 35.9007 34.3719 32.9162 34.4044 32.7629C34.3357 32.7421 28.8975 30.5671 28.8433 23.9927Z" fill="white"/>
<path d="M23.6507 7.82075C25.0722 5.95964 26.0438 3.42903 25.773 0.860588C23.7176 0.955162 21.1456 2.34908 19.6647 4.17043C18.355 5.7743 17.1848 8.40136 17.4863 10.8733C19.7964 11.0529 22.1679 9.65342 23.6507 7.82075Z" fill="white"/>
<path d="M70.4186 35.5408L66.7889 35.5408L64.8001 29.1755L57.8889 29.1755L55.9942 35.5408L52.4604 35.5408L59.3077 13.8703L63.5358 13.8703L70.4186 35.5408ZM64.2017 26.5049L62.4028 20.8453C62.2128 20.2681 61.8559 18.9057 61.3303 16.7634L61.2664 16.7634C61.0568 17.6844 60.7194 19.0468 60.256 20.8453L58.4909 26.5049L64.2017 26.5049Z" fill="white"/>
<path d="M88.0152 27.4979C88.0152 30.1559 87.3102 32.2565 85.9003 33.7981C84.6378 35.1713 83.0698 35.8571 81.1981 35.8571C79.1773 35.8571 77.7265 35.1171 76.844 33.6388L76.7801 33.6388L76.7801 41.8695L73.3724 41.8695L73.3724 25.021C73.3724 23.3509 73.3298 21.6357 73.2463 19.877L76.2438 19.877L76.4338 22.354L76.4977 22.354C77.6342 20.4886 79.3585 19.5568 81.6723 19.5568C83.4817 19.5568 84.9911 20.2841 86.2004 21.7424C87.4115 23.2008 88.0152 25.1187 88.0152 27.4979ZM84.5436 27.6246C84.5436 26.1029 84.208 24.8491 83.5332 23.863C82.7963 22.8335 81.8072 22.3196 80.5677 22.3196C79.7278 22.3196 78.9625 22.6055 78.2806 23.1718C77.5969 23.7418 77.1494 24.4854 76.9399 25.4082C76.8351 25.8388 76.7818 26.1898 76.7818 26.4666L76.7818 29.0721C76.7818 30.2083 77.1246 31.1673 77.8082 31.9507C78.4919 32.7342 79.3815 33.125 80.4736 33.125C81.7575 33.125 82.7555 32.6202 83.4711 31.6142C84.1849 30.6046 84.5436 29.2765 84.5436 27.6246Z" fill="white"/>
<path d="M105.68 27.4979C105.68 30.1559 104.976 32.2565 103.564 33.7981C102.303 35.1713 100.735 35.8571 98.8634 35.8571C96.8426 35.8571 95.3918 35.1171 94.5093 33.6388L94.4453 33.6388L94.4453 41.8695L91.0377 41.8695L91.0377 25.021C91.0377 23.3509 90.9951 21.6357 90.9116 19.877L93.9091 19.877L94.0991 22.354L94.163 22.354C95.2977 20.4886 97.022 19.5568 99.3375 19.5568C101.145 19.5568 102.655 20.2841 103.867 21.7424C105.075 23.2008 105.68 25.1187 105.68 27.4979ZM102.209 27.6246C102.209 26.1029 101.872 24.8491 101.197 23.863C100.46 22.8335 99.4743 22.3196 98.2312 22.3196C97.3895 22.3196 96.626 22.6055 95.9423 23.1718C95.2586 23.7418 94.8129 24.4854 94.6034 25.4082C94.4986 25.8388 94.4453 26.1898 94.4453 26.4666L94.4453 29.0721C94.4453 30.2083 94.7881 31.1673 95.4682 31.9507C96.1518 32.7324 97.0415 33.125 98.1371 33.125C99.421 33.125 100.419 32.6202 101.135 31.6142C101.852 30.6046 102.209 29.2765 102.209 27.6246Z" fill="white"/>
<path d="M125.388 29.4464C125.388 31.2901 124.76 32.7901 123.499 33.9481C122.114 35.2128 120.183 35.8461 117.705 35.8461C115.415 35.8461 113.581 35.3973 112.193 34.4963L112.983 31.6032C114.478 32.5241 116.121 32.9873 117.909 32.9873C119.193 32.9873 120.191 32.6906 120.908 32.1007C121.622 31.5109 121.979 30.7202 121.979 29.7323C121.979 28.853 121.684 28.1111 121.094 27.5104C120.508 26.9097 119.528 26.3507 118.161 25.835C114.437 24.4201 112.576 22.3466 112.576 19.6217C112.576 17.8395 113.228 16.3794 114.533 15.2431C115.835 14.1051 117.57 13.5369 119.74 13.5369C121.675 13.5369 123.282 13.8807 124.566 14.5664L123.714 17.3962C122.515 16.7322 121.16 16.3993 119.644 16.3993C118.445 16.3993 117.509 16.7015 116.838 17.3003C116.272 17.8359 115.986 18.4891 115.986 19.2617C115.986 20.1175 116.311 20.8267 116.962 21.384C117.531 21.8979 118.56 22.4551 120.056 23.0558C121.885 23.8067 123.229 24.6843 124.094 25.6902C124.958 26.6926 125.388 27.9483 125.388 29.4464Z" fill="white"/>
<path d="M136.64 22.5153L132.885 22.5153L132.885 30.1019C132.885 32.0306 133.547 32.995 134.874 32.995C135.483 32.995 135.987 32.9407 136.387 32.834L136.481 35.4702C135.809 35.7253 134.925 35.8538 133.831 35.8538C132.485 35.8538 131.434 35.4358 130.676 34.5999C129.919 33.7622 129.539 32.3599 129.539 30.3877L129.539 22.5117L127.302 22.5117L127.302 19.9062L129.539 19.9062L129.539 17.0457L132.887 16.0162L132.887 19.9062L136.642 19.9062L136.64 22.5153Z" fill="white"/>
<path d="M153.579 27.5613C153.579 29.9641 152.905 31.9344 151.559 33.4778C150.147 35.0646 148.275 35.8571 145.94 35.8571C143.69 35.8571 141.899 35.0971 140.563 33.5755C139.228 32.0538 138.558 30.1341 138.558 27.82C138.558 25.3991 139.246 23.4161 140.625 21.8727C142.002 20.3293 143.859 19.5568 146.194 19.5568C148.444 19.5568 150.255 20.3167 151.621 21.8401C152.928 23.3184 153.579 25.2254 153.579 27.5613ZM150.044 27.6734C150.044 26.2314 149.742 24.9956 149.129 23.9661C148.416 22.7195 147.394 22.0971 146.07 22.0971C144.701 22.0971 143.66 22.7213 142.944 23.9661C142.332 24.9992 142.03 26.2549 142.03 27.7386C142.03 29.1788 142.332 30.4164 142.944 31.4441C143.681 32.6907 144.711 33.3131 146.038 33.3131C147.339 33.3131 148.36 32.6781 149.097 31.4115C149.728 30.3621 150.044 29.1137 150.044 27.6734Z" fill="white"/>
<path d="M164.648 22.9348C164.311 22.8715 163.952 22.8389 163.574 22.8389C162.375 22.8389 161.448 23.3003 160.797 24.223C160.228 25.0372 159.944 26.0668 159.944 27.308L159.944 35.5061L156.538 35.5061L156.57 24.8002C156.57 22.9999 156.528 21.3589 156.442 19.8806L159.41 19.8806L159.534 22.8697L159.628 22.8697C159.987 21.8419 160.555 21.0151 161.331 20.3945C162.089 19.8354 162.91 19.5568 163.794 19.5568C164.108 19.5568 164.394 19.5803 164.646 19.6201C164.648 19.6237 164.648 22.9348 164.648 22.9348Z" fill="white"/>
<path d="M179.915 26.9823C179.915 27.6047 179.876 28.1294 179.791 28.5564L169.57 28.5564C169.609 30.0998 170.104 31.2813 171.052 32.0955C171.914 32.8228 173.027 33.1883 174.396 33.1883C175.909 33.1883 177.291 32.9422 178.532 32.4483L179.066 34.8583C177.616 35.5025 175.902 35.8245 173.926 35.8245C171.548 35.8245 169.682 35.1116 168.323 33.6859C166.968 32.2601 166.288 30.3476 166.288 27.9467C166.288 25.5909 166.918 23.6278 168.183 22.0627C169.506 20.3927 171.294 19.5568 173.546 19.5568C175.756 19.5568 177.429 20.3927 178.566 22.0627C179.464 23.3907 179.915 25.0318 179.915 26.9823ZM176.667 26.0812C176.69 25.0517 176.467 24.1633 176.005 23.4125C175.415 22.4463 174.51 21.965 173.29 21.965C172.176 21.965 171.269 22.4354 170.578 23.3799C170.01 24.1308 169.674 25.0318 169.57 26.0794L176.667 26.0812Z" fill="white"/>
</svg>
