<svg width="183" height="41" viewBox="0 0 183 41" fill="none" xmlns="http://www.w3.org/2000/svg">
<path d="M1.17765 0.771751C0.723813 1.25378 0.455322 2.00205 0.455322 2.97307L0.455322 37.6095C0.455322 38.5805 0.723813 39.327 1.17765 39.8091L20.6078 20.2895L1.17765 0.771751Z" fill="#00E3FF"/>
<path d="M1.32741 0.655365L1.20386 0.777621C1.24504 0.734361 1.30307 0.715553 1.34613 0.674174L1.32741 0.655365Z" fill="#00E3FF"/>
<path d="M1.32928 39.9085L1.348 39.8897C1.30307 39.8502 1.24504 39.8314 1.20386 39.7863L1.32928 39.9085Z" fill="#00E3FF"/>
<path d="M34.8321 18.0274L27.2035 13.6735L27.2017 13.6735L20.6194 20.2862L27.2017 26.9023L27.0545 26.9876L27.2017 26.9041L34.8304 22.5502C37.0112 21.3059 37.0112 19.2717 34.8321 18.0274Z" fill="#FFE000"/>
<path d="M20.634 20.2867L1.20386 39.8062C1.24197 39.848 1.29567 39.8654 1.33724 39.9019C2.06476 40.5562 3.17857 40.6241 4.44307 39.9019L27.0708 26.9881L27.2181 26.9028L20.634 20.2867Z" fill="#FF3A44"/>
<path d="M20.634 20.285L27.2163 13.6706L27.2181 13.6689L4.44307 0.66979C3.17857 -0.0523825 2.0613 0.0154843 1.33551 0.66979C1.29566 0.708074 1.24197 0.725458 1.20386 0.765482L20.634 20.285Z" fill="#00F076"/>
<path d="M78.4591 17.9211C74.792 17.9211 71.804 20.7211 71.804 24.5825C71.804 28.4179 74.792 31.2439 78.4591 31.2439C82.1261 31.2439 85.1142 28.4179 85.1142 24.5825C85.1142 20.7228 82.1261 17.9211 78.4591 17.9211ZM78.4591 28.6197C76.4497 28.6197 74.7175 26.9544 74.7175 24.5825C74.7175 22.1863 76.4497 20.5453 78.4591 20.5453C80.4684 20.5453 82.2006 22.1846 82.2006 24.5825C82.2024 26.9544 80.4684 28.6197 78.4591 28.6197Z" fill="white"/>
<path d="M92.9747 17.9211C89.3076 17.9211 86.3196 20.7211 86.3196 24.5825C86.3196 28.4179 89.3076 31.2439 92.9747 31.2439C96.6418 31.2439 99.6298 28.4179 99.6298 24.5825C99.6315 20.7228 96.6418 17.9211 92.9747 17.9211ZM92.9747 28.6197C90.9653 28.6197 89.2331 26.9544 89.2331 24.5825C89.2331 22.1863 90.9671 20.5453 92.9747 20.5453C94.9823 20.5453 96.7162 22.1846 96.7162 24.5825C96.718 26.9544 94.984 28.6197 92.9747 28.6197Z" fill="white"/>
<path d="M156.331 11.2681L153.422 11.2681L153.422 30.8468L156.331 30.8468L156.331 11.2681Z" fill="white"/>
<path d="M61.1732 19.9726L61.1732 22.797L67.9046 22.797C67.7036 24.3857 67.1771 25.5464 66.3716 26.3539C65.3929 27.3371 63.8599 28.4229 61.1732 28.4229C57.0298 28.4229 53.7889 25.0679 53.7889 20.9036C53.7889 16.7394 57.0281 13.3843 61.1732 13.3843C63.4095 13.3843 65.0413 14.2684 66.2469 15.4029L68.2302 13.4104C66.5483 11.7956 64.312 10.56 61.1732 10.56C55.4968 10.56 50.7246 15.2028 50.7246 20.9054C50.7246 26.6079 55.4968 31.2507 61.1732 31.2507C64.2375 31.2507 66.5483 30.2414 68.3567 28.3499C70.2153 26.4826 70.7939 23.8585 70.7939 21.7389C70.7939 21.0829 70.7437 20.4773 70.6432 19.9726L61.1732 19.9726Z" fill="white"/>
<path d="M163.488 17.8807C161.381 17.8807 159.2 18.8134 158.298 20.879L160.881 21.9614C161.431 20.879 162.46 20.5258 163.538 20.5258C165.041 20.5258 166.571 21.4324 166.597 23.0438L166.597 23.2457C166.07 22.9429 164.943 22.4904 163.564 22.4904C160.78 22.4904 157.948 24.027 157.948 26.8983C157.948 29.5173 160.229 31.2052 162.788 31.2052C164.743 31.2052 165.821 30.323 166.498 29.291L166.599 29.291L166.599 30.8015L169.407 30.8015L169.407 23.2944C169.405 19.8193 166.822 17.8807 163.488 17.8807ZM163.136 28.6106C162.183 28.6106 160.855 28.1321 160.855 26.9488C160.855 25.4383 162.509 24.8588 163.938 24.8588C165.216 24.8588 165.819 25.1355 166.595 25.5131C166.372 27.3264 164.816 28.6106 163.136 28.6106Z" fill="white"/>
<path d="M176.329 26.8205L176.229 26.8205L172.77 18.332L169.636 18.332L174.826 30.1965L171.867 36.7952L174.9 36.7952L182.9 18.332L179.664 18.332L176.329 26.8205Z" fill="white"/>
<path d="M110.77 19.409L110.668 19.409C110.015 18.6277 108.759 17.9211 107.177 17.9211C103.862 17.9211 100.823 20.8481 100.823 24.6069C100.823 28.3413 103.862 31.2422 107.177 31.2422C108.759 31.2422 110.015 30.5357 110.668 29.7282L110.768 29.7282L110.768 30.6871C110.768 33.2347 109.412 34.5972 107.227 34.5972C105.445 34.5972 104.34 33.3113 103.888 32.2254L101.352 33.2852C102.079 35.0514 104.014 37.2214 107.229 37.2214C110.645 37.2214 113.533 35.2028 113.533 30.2834L113.533 18.3231L110.77 18.3231L110.77 19.409ZM107.427 28.618C105.417 28.618 103.735 26.9283 103.735 24.6069C103.735 22.2611 105.419 20.5453 107.427 20.5453C109.41 20.5453 110.967 22.2611 110.967 24.6069C110.969 26.9283 109.412 28.618 107.427 28.618Z" fill="white"/>
<path d="M145.451 11.2681L138.48 11.2681L138.48 30.8468L141.389 30.8468L141.389 23.4284L145.451 23.4284C148.676 23.4284 151.844 21.0826 151.844 17.3482C151.844 13.6138 148.676 11.2681 145.451 11.2681ZM145.527 20.7033L141.389 20.7033L141.389 13.9914L145.525 13.9914C147.701 13.9914 148.936 15.8012 148.936 17.3465C148.936 18.8657 147.701 20.7033 145.527 20.7033Z" fill="white"/>
<path d="M118.477 11.2681L115.564 11.2681L115.564 30.8468L118.477 30.8468L118.477 11.2681Z" fill="white"/>
<path d="M131.818 22.1602C131.265 20.6724 129.583 17.9211 126.141 17.9211C122.725 17.9211 119.888 20.6202 119.888 24.5825C119.888 28.3169 122.701 31.2439 126.469 31.2439C129.507 31.2439 131.265 29.3767 131.994 28.2926L129.734 26.7786C128.98 27.8889 127.951 28.6197 126.469 28.6197C124.986 28.6197 123.933 27.9376 123.254 26.6011L132.119 22.9172L131.818 22.1602ZM122.776 24.3807C122.699 21.8069 124.759 20.4949 126.242 20.4949C127.397 20.4949 128.377 21.0743 128.703 21.9079L122.776 24.3807Z" fill="white"/>
</svg>
