<svg width="24" height="24" viewBox="0 0 24 24" fill="none" xmlns="http://www.w3.org/2000/svg">
<path fill-rule="evenodd" clip-rule="evenodd" d="M5.98745 4.18405C5.9962 2.53342 7.33676 1.19995 8.98741 1.19995H19.2C20.8569 1.19995 22.2 2.5431 22.2 4.19995V13.8315C22.2 15.4884 20.8569 16.8315 19.2 16.8315H16.8317V20.4C16.8317 22.0568 15.4885 23.4 13.8317 23.4H3.6001C1.94325 23.4 0.600098 22.0568 0.600098 20.4V10.1684C0.600098 8.51154 1.94324 7.16839 3.6001 7.16839H5.97163L5.98745 4.18405ZM7.17165 7.16839H13.8317C15.4885 7.16839 16.8317 8.51153 16.8317 10.1684V15.6315H19.2C20.1941 15.6315 21 14.8256 21 13.8315V4.19995C21 3.20584 20.1941 2.39995 19.2 2.39995H8.98741C7.99702 2.39995 7.19268 3.20003 7.18743 4.19041L7.17165 7.16839ZM3.6001 8.36839C2.60599 8.36839 1.8001 9.17428 1.8001 10.1684V20.4C1.8001 21.3941 2.60599 22.2 3.6001 22.2H13.8317C14.8258 22.2 15.6317 21.3941 15.6317 20.4V10.1684C15.6317 9.17428 14.8258 8.36839 13.8317 8.36839H3.6001Z" fill="#43B02A" stroke="#43B02A" stroke-linejoin="round"/>
</svg>
