<svg width="582" height="62" viewBox="0 0 582 62" fill="none" xmlns="http://www.w3.org/2000/svg">
<path d="M275.818 7.009L275.885 6.51364L275.818 7.009ZM581.949 55.5515L576.842 52.8589L577.064 58.6281L581.949 55.5515ZM0.711572 37.4419C1.84299 36.871 2.99758 36.3035 4.17499 35.7396L3.74306 34.8377C2.55959 35.4044 1.39881 35.975 0.261084 36.5491L0.711572 37.4419ZM11.2723 32.5054C13.5867 31.5011 15.9751 30.5108 18.4353 29.5362L18.067 28.6065C15.5972 29.5849 13.1988 30.5793 10.8742 31.5881L11.2723 32.5054ZM25.7013 26.7801C28.0918 25.9117 30.5413 25.0579 33.0483 24.2202L32.7313 23.2718C30.2164 24.1122 27.7587 24.9687 25.3598 25.8402L25.7013 26.7801ZM40.4602 21.8421C42.9007 21.0905 45.3895 20.3538 47.9255 19.6332L47.6521 18.6713C45.1093 19.3939 42.6134 20.1326 40.1659 20.8864L40.4602 21.8421ZM55.4352 17.583C57.9109 16.9339 60.4272 16.3 62.9829 15.6822L62.748 14.7102C60.1861 15.3295 57.6636 15.965 55.1816 16.6157L55.4352 17.583ZM70.5638 13.923C73.0662 13.366 75.6032 12.8244 78.1739 12.2988L77.9735 11.319C75.3973 11.8458 72.8546 12.3887 70.3465 12.9469L70.5638 13.923ZM85.8103 10.8036C88.3341 10.331 90.8878 9.87384 93.4706 9.43273L93.3022 8.447C90.7143 8.889 88.1553 9.34713 85.6262 9.82071L85.8103 10.8036ZM101.153 8.18182C103.694 7.78792 106.262 7.40955 108.855 7.04728L108.717 6.0569C106.119 6.41985 103.546 6.79895 101 7.19361L101.153 8.18182ZM116.577 6.026C119.133 5.70664 121.713 5.4029 124.315 5.11533L124.205 4.12139C121.598 4.40947 119.014 4.71376 116.453 5.03371L116.577 6.026ZM132.068 4.3131C134.63 4.06602 137.211 3.83459 139.812 3.61929L139.729 2.6227C137.124 2.83837 134.538 3.07021 131.972 3.31773L132.068 4.3131ZM147.568 3.0295C150.14 2.85117 152.73 2.68863 155.338 2.54232L155.282 1.54389C152.67 1.69044 150.076 1.85326 147.499 2.0319L147.568 3.0295ZM163.118 2.15658C165.7 2.04539 168.297 1.95015 170.91 1.87127L170.879 0.871724C168.262 0.950735 165.661 1.04614 163.075 1.1575L163.118 2.15658ZM178.686 1.686C181.265 1.64092 183.858 1.61181 186.465 1.59908L186.46 0.599093C183.849 0.611846 181.251 0.640997 178.668 0.686152L178.686 1.686ZM194.251 1.60981C196.837 1.62953 199.435 1.6654 202.045 1.7178L202.065 0.717997C199.451 0.66552 196.849 0.629592 194.259 0.609842L194.251 1.60981ZM209.828 1.92219C212.407 2.00589 214.998 2.10579 217.6 2.22225L217.645 1.22325C215.039 1.10661 212.444 1.00655 209.86 0.922714L209.828 1.92219ZM225.377 2.61819C227.96 2.76561 230.554 2.92943 233.157 3.10997L233.226 2.11237C230.619 1.93154 228.021 1.76747 225.434 1.61982L225.377 2.61819ZM240.916 3.69576C243.491 3.90598 246.075 4.13267 248.667 4.37613L248.76 3.38051C246.164 3.13667 243.576 2.90963 240.997 2.69908L240.916 3.69576ZM256.418 5.15187C258.992 5.42533 261.574 5.71543 264.162 6.02248L264.28 5.02944C261.687 4.72191 259.102 4.43136 256.524 4.15747L256.418 5.15187ZM271.879 6.98535C273.167 7.15412 274.458 7.32711 275.75 7.50436L275.885 6.51364C274.592 6.33611 273.299 6.16285 272.009 5.99382L271.879 6.98535ZM275.75 7.50436C277.13 7.69373 278.499 7.88619 279.856 8.08162L279.999 7.09182C278.639 6.89608 277.268 6.70332 275.885 6.51364L275.75 7.50436ZM287.926 9.29741C290.661 9.72813 293.351 10.1708 296 10.6244L296.168 9.63877C293.516 9.1844 290.821 8.74101 288.081 8.30958L287.926 9.29741ZM304.082 12.0657C306.807 12.5707 309.488 13.0871 312.128 13.6135L312.323 12.6328C309.679 12.1055 306.994 11.5883 304.264 11.0824L304.082 12.0657ZM320.143 15.2673C322.846 15.8437 325.508 16.4299 328.132 17.0247L328.353 16.0494C325.725 15.4538 323.059 14.8666 320.352 14.2893L320.143 15.2673ZM336.099 18.8813C338.783 19.5235 341.43 20.1736 344.046 20.83L344.289 19.86C341.67 19.2029 339.019 18.5519 336.332 17.9087L336.099 18.8813ZM351.976 22.8612C354.641 23.5573 357.278 24.2584 359.891 24.9627L360.151 23.9971C357.536 23.2922 354.897 22.5905 352.228 21.8937L351.976 22.8612ZM367.796 27.1197C370.445 27.8502 373.075 28.5821 375.691 29.3135L375.961 28.3505C373.343 27.6188 370.712 26.8866 368.062 26.1557L367.796 27.1197ZM383.582 31.5251C386.218 32.2647 388.847 33.0017 391.475 33.7339L391.744 32.7706C389.117 32.0386 386.489 31.3018 383.852 30.5623L383.582 31.5251ZM399.377 35.9184C402.008 36.6389 404.644 37.3526 407.292 38.0575L407.549 37.0911C404.904 36.387 402.27 35.6739 399.641 34.9539L399.377 35.9184ZM415.226 40.1305C417.859 40.8044 420.509 41.4678 423.182 42.1185L423.419 41.1469C420.75 40.4972 418.104 39.8348 415.474 39.1617L415.226 40.1305ZM431.163 44.005C433.803 44.6097 436.47 45.2006 439.169 45.7761L439.377 44.798C436.683 44.2237 434.021 43.6338 431.386 43.0303L431.163 44.005ZM447.2 47.4209C449.849 47.9409 452.532 48.445 455.255 48.9318L455.431 47.9474C452.714 47.4617 450.036 46.9585 447.392 46.4396L447.2 47.4209ZM463.335 50.3043C465.995 50.7325 468.695 51.1436 471.439 51.5363L471.581 50.5464C468.843 50.1545 466.149 49.7443 463.494 49.317L463.335 50.3043ZM479.569 52.6284C482.246 52.9645 484.965 53.2829 487.73 53.5825L487.838 52.5884C485.079 52.2893 482.365 51.9715 479.694 51.6362L479.569 52.6284ZM495.919 54.4014C498.588 54.6462 501.3 54.8737 504.057 55.0828L504.132 54.0857C501.38 53.8769 498.674 53.6499 496.01 53.4056L495.919 54.4014ZM512.223 55.6396C514.915 55.8028 517.65 55.9489 520.43 56.077L520.476 55.0781C517.701 54.9502 514.971 54.8044 512.284 54.6414L512.223 55.6396ZM528.653 56.3986C531.328 56.4849 534.044 56.555 536.804 56.6082L536.823 55.6084C534.068 55.5552 531.356 55.4853 528.685 55.3991L528.653 56.3986ZM545.015 56.7152C547.718 56.7339 550.462 56.7368 553.248 56.7234L553.243 55.7234C550.461 55.7368 547.721 55.7339 545.022 55.7153L545.015 56.7152ZM561.395 56.6392C564.103 56.5965 566.85 56.5389 569.638 56.4658L569.612 55.4661C566.828 55.5391 564.084 55.5967 561.38 55.6394L561.395 56.6392ZM275.818 7.009L275.953 6.01828L275.818 7.009ZM581.949 55.5515L571.735 50.1663L572.178 61.7048L581.949 55.5515ZM0.936816 37.8883C2.06508 37.319 3.21657 36.753 4.39096 36.1905L3.52709 34.3867C2.3406 34.9549 1.17673 35.527 0.0358402 36.1027L0.936816 37.8883ZM11.4713 32.9641C13.7806 31.962 16.164 30.9737 18.6195 30.001L17.8829 28.1416C15.4082 29.1219 13.0049 30.1184 10.6752 31.1294L11.4713 32.9641ZM25.872 27.25C28.2583 26.3831 30.7038 25.5308 33.2067 24.6944L32.5729 22.7975C30.054 23.6393 27.5921 24.4973 25.1891 25.3702L25.872 27.25ZM40.6074 22.3199C43.0443 21.5694 45.5296 20.8338 48.0621 20.1142L47.5155 18.1904C44.9692 18.9139 42.4698 19.6536 40.0187 20.4085L40.6074 22.3199ZM55.562 18.0667C58.0346 17.4184 60.5478 16.7853 63.1004 16.1682L62.6305 14.2242C60.0656 14.8443 57.5399 15.4805 55.0548 16.132L55.562 18.0667ZM70.6724 14.4111C73.172 13.8547 75.7062 13.3137 78.274 12.7886L77.8734 10.8292C75.2943 11.3565 72.7488 11.9 70.2379 12.4589L70.6724 14.4111ZM85.9023 11.2951C88.4235 10.823 90.9746 10.3663 93.5548 9.92559L93.218 7.95414C90.6275 8.39658 88.0659 8.85518 85.5342 9.32925L85.9023 11.2951ZM101.229 8.67592C103.769 8.28241 106.334 7.9044 108.924 7.54247L108.648 5.56171C106.047 5.925 103.472 6.30447 100.923 6.69951L101.229 8.67592ZM116.638 6.52215C119.193 6.20308 121.77 5.89962 124.37 5.61231L124.15 3.62441C121.541 3.91276 118.954 4.21732 116.391 4.53757L116.638 6.52215ZM132.116 4.81079C134.675 4.56393 137.254 4.3327 139.853 4.11759L139.688 2.12441C137.08 2.34026 134.492 2.5723 131.924 2.82004L132.116 4.81079ZM147.603 3.5283C150.173 3.35012 152.761 3.18772 155.366 3.04154L155.254 1.04468C152.64 1.19135 150.043 1.35431 147.465 1.53309L147.603 3.5283ZM163.14 2.65611C165.719 2.54502 168.314 2.44986 170.925 2.37104L170.864 0.371952C168.245 0.451028 165.641 0.546507 163.054 0.657967L163.14 2.65611ZM178.694 2.18592C181.271 2.14088 183.862 2.1118 186.467 2.09907L186.457 0.0990986C183.844 0.111863 181.245 0.141037 178.659 0.186228L178.694 2.18592ZM194.248 2.1098C196.831 2.1295 199.427 2.16534 202.035 2.21769L202.075 0.218098C199.459 0.165579 196.854 0.129622 194.263 0.109857L194.248 2.1098ZM209.811 2.42193C212.389 2.50556 214.978 2.60538 217.578 2.72175L217.667 0.72375C215.059 0.607018 212.462 0.506876 209.876 0.422977L209.811 2.42193ZM225.348 3.11738C227.93 3.26468 230.521 3.42837 233.122 3.60877L233.261 1.61357C230.651 1.4326 228.052 1.2684 225.462 1.12063L225.348 3.11738ZM240.875 4.19411C243.448 4.40416 246.03 4.63067 248.62 4.87394L248.807 2.8827C246.209 2.63867 243.619 2.41145 241.038 2.20074L240.875 4.19411ZM256.365 5.64908C258.937 5.92232 261.517 6.21219 264.104 6.519L264.339 4.53292C261.744 4.22515 259.156 3.93437 256.576 3.66027L256.365 5.64908ZM271.814 7.48112C273.102 7.64975 274.391 7.82261 275.682 7.99972L275.953 6.01828C274.659 5.84061 273.365 5.66721 272.074 5.49805L271.814 7.48112ZM275.682 7.99972C277.061 8.18894 278.428 8.38124 279.785 8.57652L280.07 6.59692C278.709 6.40102 277.337 6.20811 275.953 6.01828L275.682 7.99972ZM287.848 9.79132C290.581 10.2217 293.269 10.664 295.915 11.1172L296.253 9.14595C293.598 8.6912 290.901 8.24745 288.159 7.81566L287.848 9.79132ZM303.991 12.5573C306.714 13.062 309.392 13.5779 312.03 14.1038L312.421 12.1424C309.775 11.6147 307.087 11.0971 304.356 10.5908L303.991 12.5573ZM320.039 15.7563C322.74 16.3322 325.399 16.918 328.022 17.5123L328.464 15.5618C325.833 14.9657 323.165 14.378 320.456 13.8003L320.039 15.7563ZM335.983 19.3675C338.665 20.0093 341.31 20.659 343.924 21.3149L344.411 19.3751C341.79 18.7175 339.138 18.0661 336.448 17.4225L335.983 19.3675ZM351.849 23.345C354.513 24.0407 357.149 24.7414 359.761 25.4454L360.281 23.5143C357.665 22.8092 355.024 22.107 352.355 21.4099L351.849 23.345ZM367.663 27.6017C370.311 28.332 372.94 29.0638 375.557 29.7951L376.095 27.8689C373.478 27.1372 370.846 26.4048 368.195 25.6737L367.663 27.6017ZM383.447 32.0066C386.083 32.7461 388.713 33.4832 391.341 34.2155L391.878 32.2889C389.251 31.5571 386.624 30.8204 383.987 30.0809L383.447 32.0066ZM399.245 36.4007C401.877 37.1214 404.514 37.8354 407.163 38.5406L407.678 36.6079C405.034 35.9042 402.401 35.1914 399.773 34.4717L399.245 36.4007ZM415.102 40.6148C417.737 41.2892 420.389 41.9531 423.064 42.6043L423.537 40.6611C420.87 40.0119 418.226 39.3499 415.598 38.6773L415.102 40.6148ZM431.051 44.4924C433.693 45.0976 436.363 45.6891 439.065 46.2651L439.482 44.309C436.79 43.7352 434.131 43.1459 431.498 42.5429L431.051 44.4924ZM447.103 47.9115C449.755 48.432 452.442 48.9367 455.167 49.424L455.519 47.4552C452.805 46.97 450.13 46.4674 447.489 45.949L447.103 47.9115ZM463.255 50.7979C465.919 51.2266 468.622 51.6382 471.368 52.0313L471.651 50.0515C468.917 49.66 466.225 49.2502 463.573 48.8233L463.255 50.7979ZM479.507 53.1245C482.187 53.4609 484.908 53.7797 487.676 54.0796L487.892 52.0913C485.135 51.7925 482.425 51.4751 479.756 51.1401L479.507 53.1245ZM495.874 54.8993C498.545 55.1444 501.259 55.372 504.019 55.5814L504.17 53.5871C501.421 53.3786 498.717 53.1518 496.056 52.9077L495.874 54.8993ZM512.193 56.1387C514.887 56.302 517.625 56.4482 520.407 56.5765L520.499 54.5786C517.726 54.4508 514.998 54.3051 512.314 54.1423L512.193 56.1387ZM528.637 56.8984C531.314 56.9847 534.032 57.0548 536.794 57.1081L536.833 55.1085C534.079 55.0554 531.37 54.9855 528.701 54.8994L528.637 56.8984ZM545.012 57.2152C547.717 57.2339 550.462 57.2368 553.25 57.2234L553.241 55.2235C550.46 55.2368 547.723 55.2339 545.026 55.2153L545.012 57.2152ZM561.403 57.1392C564.113 57.0965 566.862 57.0387 569.651 56.9656L569.599 54.9663C566.816 55.0393 564.074 55.0968 561.372 55.1394L561.403 57.1392Z" fill="url(#paint0_linear_659_17988)"/>
<defs>
<linearGradient id="paint0_linear_659_17988" x1="-14.6864" y1="9.58858" x2="679.116" y2="145.225" gradientUnits="userSpaceOnUse">
<stop stop-color="#43B02A"/>
<stop offset="1" stop-color="#43B02A"/>
</linearGradient>
</defs>
</svg>
